G75*
%MOIN*%
%OFA0B0*%
%FSLAX25Y25*%
%IPPOS*%
%LPD*%
%AMOC8*
5,1,8,0,0,1.08239X$1,22.5*
%
%ADD10C,0.03150*%
%ADD11C,0.00000*%
%ADD12C,0.07874*%
%ADD13C,0.00600*%
%ADD14C,0.00787*%
%ADD15C,0.01969*%
%ADD16C,0.02362*%
D10*
X0266926Y0078618D02*
X0314170Y0078618D01*
X0314170Y0045154D01*
X0314170Y0078618D02*
X0314170Y0366020D01*
X0314170Y0399484D01*
X0314170Y0366020D02*
X0266926Y0366020D01*
X0314170Y0366020D02*
X0540548Y0366020D01*
X0540548Y0399484D01*
X0540548Y0366020D02*
X0581886Y0366020D01*
X0540548Y0366020D02*
X0540548Y0078618D01*
X0540548Y0045154D01*
X0540548Y0078618D02*
X0581886Y0078618D01*
X0540548Y0078618D02*
X0314170Y0078618D01*
X0479131Y0344366D02*
X0487792Y0344366D01*
D11*
X0266926Y0399484D02*
X0266926Y0045154D01*
X0581886Y0045154D01*
X0581886Y0399484D01*
X0266926Y0399484D01*
X0278737Y0379799D02*
X0278739Y0379992D01*
X0278746Y0380185D01*
X0278758Y0380378D01*
X0278775Y0380571D01*
X0278796Y0380763D01*
X0278822Y0380954D01*
X0278853Y0381145D01*
X0278888Y0381335D01*
X0278928Y0381524D01*
X0278973Y0381712D01*
X0279022Y0381899D01*
X0279076Y0382085D01*
X0279134Y0382269D01*
X0279197Y0382452D01*
X0279265Y0382633D01*
X0279336Y0382812D01*
X0279413Y0382990D01*
X0279493Y0383166D01*
X0279578Y0383339D01*
X0279667Y0383511D01*
X0279760Y0383680D01*
X0279857Y0383847D01*
X0279959Y0384012D01*
X0280064Y0384174D01*
X0280173Y0384333D01*
X0280287Y0384490D01*
X0280404Y0384643D01*
X0280524Y0384794D01*
X0280649Y0384942D01*
X0280777Y0385087D01*
X0280908Y0385228D01*
X0281043Y0385367D01*
X0281182Y0385502D01*
X0281323Y0385633D01*
X0281468Y0385761D01*
X0281616Y0385886D01*
X0281767Y0386006D01*
X0281920Y0386123D01*
X0282077Y0386237D01*
X0282236Y0386346D01*
X0282398Y0386451D01*
X0282563Y0386553D01*
X0282730Y0386650D01*
X0282899Y0386743D01*
X0283071Y0386832D01*
X0283244Y0386917D01*
X0283420Y0386997D01*
X0283598Y0387074D01*
X0283777Y0387145D01*
X0283958Y0387213D01*
X0284141Y0387276D01*
X0284325Y0387334D01*
X0284511Y0387388D01*
X0284698Y0387437D01*
X0284886Y0387482D01*
X0285075Y0387522D01*
X0285265Y0387557D01*
X0285456Y0387588D01*
X0285647Y0387614D01*
X0285839Y0387635D01*
X0286032Y0387652D01*
X0286225Y0387664D01*
X0286418Y0387671D01*
X0286611Y0387673D01*
X0286804Y0387671D01*
X0286997Y0387664D01*
X0287190Y0387652D01*
X0287383Y0387635D01*
X0287575Y0387614D01*
X0287766Y0387588D01*
X0287957Y0387557D01*
X0288147Y0387522D01*
X0288336Y0387482D01*
X0288524Y0387437D01*
X0288711Y0387388D01*
X0288897Y0387334D01*
X0289081Y0387276D01*
X0289264Y0387213D01*
X0289445Y0387145D01*
X0289624Y0387074D01*
X0289802Y0386997D01*
X0289978Y0386917D01*
X0290151Y0386832D01*
X0290323Y0386743D01*
X0290492Y0386650D01*
X0290659Y0386553D01*
X0290824Y0386451D01*
X0290986Y0386346D01*
X0291145Y0386237D01*
X0291302Y0386123D01*
X0291455Y0386006D01*
X0291606Y0385886D01*
X0291754Y0385761D01*
X0291899Y0385633D01*
X0292040Y0385502D01*
X0292179Y0385367D01*
X0292314Y0385228D01*
X0292445Y0385087D01*
X0292573Y0384942D01*
X0292698Y0384794D01*
X0292818Y0384643D01*
X0292935Y0384490D01*
X0293049Y0384333D01*
X0293158Y0384174D01*
X0293263Y0384012D01*
X0293365Y0383847D01*
X0293462Y0383680D01*
X0293555Y0383511D01*
X0293644Y0383339D01*
X0293729Y0383166D01*
X0293809Y0382990D01*
X0293886Y0382812D01*
X0293957Y0382633D01*
X0294025Y0382452D01*
X0294088Y0382269D01*
X0294146Y0382085D01*
X0294200Y0381899D01*
X0294249Y0381712D01*
X0294294Y0381524D01*
X0294334Y0381335D01*
X0294369Y0381145D01*
X0294400Y0380954D01*
X0294426Y0380763D01*
X0294447Y0380571D01*
X0294464Y0380378D01*
X0294476Y0380185D01*
X0294483Y0379992D01*
X0294485Y0379799D01*
X0294483Y0379606D01*
X0294476Y0379413D01*
X0294464Y0379220D01*
X0294447Y0379027D01*
X0294426Y0378835D01*
X0294400Y0378644D01*
X0294369Y0378453D01*
X0294334Y0378263D01*
X0294294Y0378074D01*
X0294249Y0377886D01*
X0294200Y0377699D01*
X0294146Y0377513D01*
X0294088Y0377329D01*
X0294025Y0377146D01*
X0293957Y0376965D01*
X0293886Y0376786D01*
X0293809Y0376608D01*
X0293729Y0376432D01*
X0293644Y0376259D01*
X0293555Y0376087D01*
X0293462Y0375918D01*
X0293365Y0375751D01*
X0293263Y0375586D01*
X0293158Y0375424D01*
X0293049Y0375265D01*
X0292935Y0375108D01*
X0292818Y0374955D01*
X0292698Y0374804D01*
X0292573Y0374656D01*
X0292445Y0374511D01*
X0292314Y0374370D01*
X0292179Y0374231D01*
X0292040Y0374096D01*
X0291899Y0373965D01*
X0291754Y0373837D01*
X0291606Y0373712D01*
X0291455Y0373592D01*
X0291302Y0373475D01*
X0291145Y0373361D01*
X0290986Y0373252D01*
X0290824Y0373147D01*
X0290659Y0373045D01*
X0290492Y0372948D01*
X0290323Y0372855D01*
X0290151Y0372766D01*
X0289978Y0372681D01*
X0289802Y0372601D01*
X0289624Y0372524D01*
X0289445Y0372453D01*
X0289264Y0372385D01*
X0289081Y0372322D01*
X0288897Y0372264D01*
X0288711Y0372210D01*
X0288524Y0372161D01*
X0288336Y0372116D01*
X0288147Y0372076D01*
X0287957Y0372041D01*
X0287766Y0372010D01*
X0287575Y0371984D01*
X0287383Y0371963D01*
X0287190Y0371946D01*
X0286997Y0371934D01*
X0286804Y0371927D01*
X0286611Y0371925D01*
X0286418Y0371927D01*
X0286225Y0371934D01*
X0286032Y0371946D01*
X0285839Y0371963D01*
X0285647Y0371984D01*
X0285456Y0372010D01*
X0285265Y0372041D01*
X0285075Y0372076D01*
X0284886Y0372116D01*
X0284698Y0372161D01*
X0284511Y0372210D01*
X0284325Y0372264D01*
X0284141Y0372322D01*
X0283958Y0372385D01*
X0283777Y0372453D01*
X0283598Y0372524D01*
X0283420Y0372601D01*
X0283244Y0372681D01*
X0283071Y0372766D01*
X0282899Y0372855D01*
X0282730Y0372948D01*
X0282563Y0373045D01*
X0282398Y0373147D01*
X0282236Y0373252D01*
X0282077Y0373361D01*
X0281920Y0373475D01*
X0281767Y0373592D01*
X0281616Y0373712D01*
X0281468Y0373837D01*
X0281323Y0373965D01*
X0281182Y0374096D01*
X0281043Y0374231D01*
X0280908Y0374370D01*
X0280777Y0374511D01*
X0280649Y0374656D01*
X0280524Y0374804D01*
X0280404Y0374955D01*
X0280287Y0375108D01*
X0280173Y0375265D01*
X0280064Y0375424D01*
X0279959Y0375586D01*
X0279857Y0375751D01*
X0279760Y0375918D01*
X0279667Y0376087D01*
X0279578Y0376259D01*
X0279493Y0376432D01*
X0279413Y0376608D01*
X0279336Y0376786D01*
X0279265Y0376965D01*
X0279197Y0377146D01*
X0279134Y0377329D01*
X0279076Y0377513D01*
X0279022Y0377699D01*
X0278973Y0377886D01*
X0278928Y0378074D01*
X0278888Y0378263D01*
X0278853Y0378453D01*
X0278822Y0378644D01*
X0278796Y0378835D01*
X0278775Y0379027D01*
X0278758Y0379220D01*
X0278746Y0379413D01*
X0278739Y0379606D01*
X0278737Y0379799D01*
X0314170Y0350272D02*
X0314170Y0326256D01*
X0314170Y0118382D01*
X0314170Y0094366D01*
X0314175Y0093985D01*
X0314188Y0093605D01*
X0314211Y0093225D01*
X0314244Y0092846D01*
X0314285Y0092468D01*
X0314335Y0092091D01*
X0314395Y0091715D01*
X0314463Y0091340D01*
X0314541Y0090968D01*
X0314628Y0090597D01*
X0314723Y0090229D01*
X0314828Y0089863D01*
X0314941Y0089500D01*
X0315063Y0089139D01*
X0315193Y0088782D01*
X0315333Y0088428D01*
X0315480Y0088077D01*
X0315637Y0087730D01*
X0315801Y0087387D01*
X0315974Y0087048D01*
X0316155Y0086713D01*
X0316344Y0086382D01*
X0316541Y0086057D01*
X0316745Y0085736D01*
X0316958Y0085420D01*
X0317178Y0085110D01*
X0317405Y0084804D01*
X0317640Y0084505D01*
X0317882Y0084211D01*
X0318130Y0083923D01*
X0318386Y0083641D01*
X0318649Y0083366D01*
X0318918Y0083097D01*
X0319193Y0082834D01*
X0319475Y0082578D01*
X0319763Y0082330D01*
X0320057Y0082088D01*
X0320356Y0081853D01*
X0320662Y0081626D01*
X0320972Y0081406D01*
X0321288Y0081193D01*
X0321609Y0080989D01*
X0321934Y0080792D01*
X0322265Y0080603D01*
X0322600Y0080422D01*
X0322939Y0080249D01*
X0323282Y0080085D01*
X0323629Y0079928D01*
X0323980Y0079781D01*
X0324334Y0079641D01*
X0324691Y0079511D01*
X0325052Y0079389D01*
X0325415Y0079276D01*
X0325781Y0079171D01*
X0326149Y0079076D01*
X0326520Y0078989D01*
X0326892Y0078911D01*
X0327267Y0078843D01*
X0327643Y0078783D01*
X0328020Y0078733D01*
X0328398Y0078692D01*
X0328777Y0078659D01*
X0329157Y0078636D01*
X0329537Y0078623D01*
X0329918Y0078618D01*
X0353934Y0078618D01*
X0500784Y0078618D01*
X0524800Y0078618D01*
X0525181Y0078623D01*
X0525561Y0078636D01*
X0525941Y0078659D01*
X0526320Y0078692D01*
X0526698Y0078733D01*
X0527075Y0078783D01*
X0527451Y0078843D01*
X0527826Y0078911D01*
X0528198Y0078989D01*
X0528569Y0079076D01*
X0528937Y0079171D01*
X0529303Y0079276D01*
X0529666Y0079389D01*
X0530027Y0079511D01*
X0530384Y0079641D01*
X0530738Y0079781D01*
X0531089Y0079928D01*
X0531436Y0080085D01*
X0531779Y0080249D01*
X0532118Y0080422D01*
X0532453Y0080603D01*
X0532784Y0080792D01*
X0533109Y0080989D01*
X0533430Y0081193D01*
X0533746Y0081406D01*
X0534056Y0081626D01*
X0534362Y0081853D01*
X0534661Y0082088D01*
X0534955Y0082330D01*
X0535243Y0082578D01*
X0535525Y0082834D01*
X0535800Y0083097D01*
X0536069Y0083366D01*
X0536332Y0083641D01*
X0536588Y0083923D01*
X0536836Y0084211D01*
X0537078Y0084505D01*
X0537313Y0084804D01*
X0537540Y0085110D01*
X0537760Y0085420D01*
X0537973Y0085736D01*
X0538177Y0086057D01*
X0538374Y0086382D01*
X0538563Y0086713D01*
X0538744Y0087048D01*
X0538917Y0087387D01*
X0539081Y0087730D01*
X0539238Y0088077D01*
X0539385Y0088428D01*
X0539525Y0088782D01*
X0539655Y0089139D01*
X0539777Y0089500D01*
X0539890Y0089863D01*
X0539995Y0090229D01*
X0540090Y0090597D01*
X0540177Y0090968D01*
X0540255Y0091340D01*
X0540323Y0091715D01*
X0540383Y0092091D01*
X0540433Y0092468D01*
X0540474Y0092846D01*
X0540507Y0093225D01*
X0540530Y0093605D01*
X0540543Y0093985D01*
X0540548Y0094366D01*
X0540548Y0118382D01*
X0540548Y0326256D01*
X0540548Y0350272D01*
X0540543Y0350653D01*
X0540530Y0351033D01*
X0540507Y0351413D01*
X0540474Y0351792D01*
X0540433Y0352170D01*
X0540383Y0352547D01*
X0540323Y0352923D01*
X0540255Y0353298D01*
X0540177Y0353670D01*
X0540090Y0354041D01*
X0539995Y0354409D01*
X0539890Y0354775D01*
X0539777Y0355138D01*
X0539655Y0355499D01*
X0539525Y0355856D01*
X0539385Y0356210D01*
X0539238Y0356561D01*
X0539081Y0356908D01*
X0538917Y0357251D01*
X0538744Y0357590D01*
X0538563Y0357925D01*
X0538374Y0358256D01*
X0538177Y0358581D01*
X0537973Y0358902D01*
X0537760Y0359218D01*
X0537540Y0359528D01*
X0537313Y0359834D01*
X0537078Y0360133D01*
X0536836Y0360427D01*
X0536588Y0360715D01*
X0536332Y0360997D01*
X0536069Y0361272D01*
X0535800Y0361541D01*
X0535525Y0361804D01*
X0535243Y0362060D01*
X0534955Y0362308D01*
X0534661Y0362550D01*
X0534362Y0362785D01*
X0534056Y0363012D01*
X0533746Y0363232D01*
X0533430Y0363445D01*
X0533109Y0363649D01*
X0532784Y0363846D01*
X0532453Y0364035D01*
X0532118Y0364216D01*
X0531779Y0364389D01*
X0531436Y0364553D01*
X0531089Y0364710D01*
X0530738Y0364857D01*
X0530384Y0364997D01*
X0530027Y0365127D01*
X0529666Y0365249D01*
X0529303Y0365362D01*
X0528937Y0365467D01*
X0528569Y0365562D01*
X0528198Y0365649D01*
X0527826Y0365727D01*
X0527451Y0365795D01*
X0527075Y0365855D01*
X0526698Y0365905D01*
X0526320Y0365946D01*
X0525941Y0365979D01*
X0525561Y0366002D01*
X0525181Y0366015D01*
X0524800Y0366020D01*
X0500784Y0366020D01*
X0353934Y0366020D01*
X0329918Y0366020D01*
X0329537Y0366015D01*
X0329157Y0366002D01*
X0328777Y0365979D01*
X0328398Y0365946D01*
X0328020Y0365905D01*
X0327643Y0365855D01*
X0327267Y0365795D01*
X0326892Y0365727D01*
X0326520Y0365649D01*
X0326149Y0365562D01*
X0325781Y0365467D01*
X0325415Y0365362D01*
X0325052Y0365249D01*
X0324691Y0365127D01*
X0324334Y0364997D01*
X0323980Y0364857D01*
X0323629Y0364710D01*
X0323282Y0364553D01*
X0322939Y0364389D01*
X0322600Y0364216D01*
X0322265Y0364035D01*
X0321934Y0363846D01*
X0321609Y0363649D01*
X0321288Y0363445D01*
X0320972Y0363232D01*
X0320662Y0363012D01*
X0320356Y0362785D01*
X0320057Y0362550D01*
X0319763Y0362308D01*
X0319475Y0362060D01*
X0319193Y0361804D01*
X0318918Y0361541D01*
X0318649Y0361272D01*
X0318386Y0360997D01*
X0318130Y0360715D01*
X0317882Y0360427D01*
X0317640Y0360133D01*
X0317405Y0359834D01*
X0317178Y0359528D01*
X0316958Y0359218D01*
X0316745Y0358902D01*
X0316541Y0358581D01*
X0316344Y0358256D01*
X0316155Y0357925D01*
X0315974Y0357590D01*
X0315801Y0357251D01*
X0315637Y0356908D01*
X0315480Y0356561D01*
X0315333Y0356210D01*
X0315193Y0355856D01*
X0315063Y0355499D01*
X0314941Y0355138D01*
X0314828Y0354775D01*
X0314723Y0354409D01*
X0314628Y0354041D01*
X0314541Y0353670D01*
X0314463Y0353298D01*
X0314395Y0352923D01*
X0314335Y0352547D01*
X0314285Y0352170D01*
X0314244Y0351792D01*
X0314211Y0351413D01*
X0314188Y0351033D01*
X0314175Y0350653D01*
X0314170Y0350272D01*
X0323619Y0350272D02*
X0323621Y0350430D01*
X0323627Y0350588D01*
X0323637Y0350746D01*
X0323651Y0350904D01*
X0323669Y0351061D01*
X0323690Y0351218D01*
X0323716Y0351374D01*
X0323746Y0351530D01*
X0323779Y0351685D01*
X0323817Y0351838D01*
X0323858Y0351991D01*
X0323903Y0352143D01*
X0323952Y0352294D01*
X0324005Y0352443D01*
X0324061Y0352591D01*
X0324121Y0352737D01*
X0324185Y0352882D01*
X0324253Y0353025D01*
X0324324Y0353167D01*
X0324398Y0353307D01*
X0324476Y0353444D01*
X0324558Y0353580D01*
X0324642Y0353714D01*
X0324731Y0353845D01*
X0324822Y0353974D01*
X0324917Y0354101D01*
X0325014Y0354226D01*
X0325115Y0354348D01*
X0325219Y0354467D01*
X0325326Y0354584D01*
X0325436Y0354698D01*
X0325549Y0354809D01*
X0325664Y0354918D01*
X0325782Y0355023D01*
X0325903Y0355125D01*
X0326026Y0355225D01*
X0326152Y0355321D01*
X0326280Y0355414D01*
X0326410Y0355504D01*
X0326543Y0355590D01*
X0326678Y0355674D01*
X0326814Y0355753D01*
X0326953Y0355830D01*
X0327094Y0355902D01*
X0327236Y0355972D01*
X0327380Y0356037D01*
X0327526Y0356099D01*
X0327673Y0356157D01*
X0327822Y0356212D01*
X0327972Y0356263D01*
X0328123Y0356310D01*
X0328275Y0356353D01*
X0328428Y0356392D01*
X0328583Y0356428D01*
X0328738Y0356459D01*
X0328894Y0356487D01*
X0329050Y0356511D01*
X0329207Y0356531D01*
X0329365Y0356547D01*
X0329522Y0356559D01*
X0329681Y0356567D01*
X0329839Y0356571D01*
X0329997Y0356571D01*
X0330155Y0356567D01*
X0330314Y0356559D01*
X0330471Y0356547D01*
X0330629Y0356531D01*
X0330786Y0356511D01*
X0330942Y0356487D01*
X0331098Y0356459D01*
X0331253Y0356428D01*
X0331408Y0356392D01*
X0331561Y0356353D01*
X0331713Y0356310D01*
X0331864Y0356263D01*
X0332014Y0356212D01*
X0332163Y0356157D01*
X0332310Y0356099D01*
X0332456Y0356037D01*
X0332600Y0355972D01*
X0332742Y0355902D01*
X0332883Y0355830D01*
X0333022Y0355753D01*
X0333158Y0355674D01*
X0333293Y0355590D01*
X0333426Y0355504D01*
X0333556Y0355414D01*
X0333684Y0355321D01*
X0333810Y0355225D01*
X0333933Y0355125D01*
X0334054Y0355023D01*
X0334172Y0354918D01*
X0334287Y0354809D01*
X0334400Y0354698D01*
X0334510Y0354584D01*
X0334617Y0354467D01*
X0334721Y0354348D01*
X0334822Y0354226D01*
X0334919Y0354101D01*
X0335014Y0353974D01*
X0335105Y0353845D01*
X0335194Y0353714D01*
X0335278Y0353580D01*
X0335360Y0353444D01*
X0335438Y0353307D01*
X0335512Y0353167D01*
X0335583Y0353025D01*
X0335651Y0352882D01*
X0335715Y0352737D01*
X0335775Y0352591D01*
X0335831Y0352443D01*
X0335884Y0352294D01*
X0335933Y0352143D01*
X0335978Y0351991D01*
X0336019Y0351838D01*
X0336057Y0351685D01*
X0336090Y0351530D01*
X0336120Y0351374D01*
X0336146Y0351218D01*
X0336167Y0351061D01*
X0336185Y0350904D01*
X0336199Y0350746D01*
X0336209Y0350588D01*
X0336215Y0350430D01*
X0336217Y0350272D01*
X0336215Y0350114D01*
X0336209Y0349956D01*
X0336199Y0349798D01*
X0336185Y0349640D01*
X0336167Y0349483D01*
X0336146Y0349326D01*
X0336120Y0349170D01*
X0336090Y0349014D01*
X0336057Y0348859D01*
X0336019Y0348706D01*
X0335978Y0348553D01*
X0335933Y0348401D01*
X0335884Y0348250D01*
X0335831Y0348101D01*
X0335775Y0347953D01*
X0335715Y0347807D01*
X0335651Y0347662D01*
X0335583Y0347519D01*
X0335512Y0347377D01*
X0335438Y0347237D01*
X0335360Y0347100D01*
X0335278Y0346964D01*
X0335194Y0346830D01*
X0335105Y0346699D01*
X0335014Y0346570D01*
X0334919Y0346443D01*
X0334822Y0346318D01*
X0334721Y0346196D01*
X0334617Y0346077D01*
X0334510Y0345960D01*
X0334400Y0345846D01*
X0334287Y0345735D01*
X0334172Y0345626D01*
X0334054Y0345521D01*
X0333933Y0345419D01*
X0333810Y0345319D01*
X0333684Y0345223D01*
X0333556Y0345130D01*
X0333426Y0345040D01*
X0333293Y0344954D01*
X0333158Y0344870D01*
X0333022Y0344791D01*
X0332883Y0344714D01*
X0332742Y0344642D01*
X0332600Y0344572D01*
X0332456Y0344507D01*
X0332310Y0344445D01*
X0332163Y0344387D01*
X0332014Y0344332D01*
X0331864Y0344281D01*
X0331713Y0344234D01*
X0331561Y0344191D01*
X0331408Y0344152D01*
X0331253Y0344116D01*
X0331098Y0344085D01*
X0330942Y0344057D01*
X0330786Y0344033D01*
X0330629Y0344013D01*
X0330471Y0343997D01*
X0330314Y0343985D01*
X0330155Y0343977D01*
X0329997Y0343973D01*
X0329839Y0343973D01*
X0329681Y0343977D01*
X0329522Y0343985D01*
X0329365Y0343997D01*
X0329207Y0344013D01*
X0329050Y0344033D01*
X0328894Y0344057D01*
X0328738Y0344085D01*
X0328583Y0344116D01*
X0328428Y0344152D01*
X0328275Y0344191D01*
X0328123Y0344234D01*
X0327972Y0344281D01*
X0327822Y0344332D01*
X0327673Y0344387D01*
X0327526Y0344445D01*
X0327380Y0344507D01*
X0327236Y0344572D01*
X0327094Y0344642D01*
X0326953Y0344714D01*
X0326814Y0344791D01*
X0326678Y0344870D01*
X0326543Y0344954D01*
X0326410Y0345040D01*
X0326280Y0345130D01*
X0326152Y0345223D01*
X0326026Y0345319D01*
X0325903Y0345419D01*
X0325782Y0345521D01*
X0325664Y0345626D01*
X0325549Y0345735D01*
X0325436Y0345846D01*
X0325326Y0345960D01*
X0325219Y0346077D01*
X0325115Y0346196D01*
X0325014Y0346318D01*
X0324917Y0346443D01*
X0324822Y0346570D01*
X0324731Y0346699D01*
X0324642Y0346830D01*
X0324558Y0346964D01*
X0324476Y0347100D01*
X0324398Y0347237D01*
X0324324Y0347377D01*
X0324253Y0347519D01*
X0324185Y0347662D01*
X0324121Y0347807D01*
X0324061Y0347953D01*
X0324005Y0348101D01*
X0323952Y0348250D01*
X0323903Y0348401D01*
X0323858Y0348553D01*
X0323817Y0348706D01*
X0323779Y0348859D01*
X0323746Y0349014D01*
X0323716Y0349170D01*
X0323690Y0349326D01*
X0323669Y0349483D01*
X0323651Y0349640D01*
X0323637Y0349798D01*
X0323627Y0349956D01*
X0323621Y0350114D01*
X0323619Y0350272D01*
X0518501Y0350272D02*
X0518503Y0350430D01*
X0518509Y0350588D01*
X0518519Y0350746D01*
X0518533Y0350904D01*
X0518551Y0351061D01*
X0518572Y0351218D01*
X0518598Y0351374D01*
X0518628Y0351530D01*
X0518661Y0351685D01*
X0518699Y0351838D01*
X0518740Y0351991D01*
X0518785Y0352143D01*
X0518834Y0352294D01*
X0518887Y0352443D01*
X0518943Y0352591D01*
X0519003Y0352737D01*
X0519067Y0352882D01*
X0519135Y0353025D01*
X0519206Y0353167D01*
X0519280Y0353307D01*
X0519358Y0353444D01*
X0519440Y0353580D01*
X0519524Y0353714D01*
X0519613Y0353845D01*
X0519704Y0353974D01*
X0519799Y0354101D01*
X0519896Y0354226D01*
X0519997Y0354348D01*
X0520101Y0354467D01*
X0520208Y0354584D01*
X0520318Y0354698D01*
X0520431Y0354809D01*
X0520546Y0354918D01*
X0520664Y0355023D01*
X0520785Y0355125D01*
X0520908Y0355225D01*
X0521034Y0355321D01*
X0521162Y0355414D01*
X0521292Y0355504D01*
X0521425Y0355590D01*
X0521560Y0355674D01*
X0521696Y0355753D01*
X0521835Y0355830D01*
X0521976Y0355902D01*
X0522118Y0355972D01*
X0522262Y0356037D01*
X0522408Y0356099D01*
X0522555Y0356157D01*
X0522704Y0356212D01*
X0522854Y0356263D01*
X0523005Y0356310D01*
X0523157Y0356353D01*
X0523310Y0356392D01*
X0523465Y0356428D01*
X0523620Y0356459D01*
X0523776Y0356487D01*
X0523932Y0356511D01*
X0524089Y0356531D01*
X0524247Y0356547D01*
X0524404Y0356559D01*
X0524563Y0356567D01*
X0524721Y0356571D01*
X0524879Y0356571D01*
X0525037Y0356567D01*
X0525196Y0356559D01*
X0525353Y0356547D01*
X0525511Y0356531D01*
X0525668Y0356511D01*
X0525824Y0356487D01*
X0525980Y0356459D01*
X0526135Y0356428D01*
X0526290Y0356392D01*
X0526443Y0356353D01*
X0526595Y0356310D01*
X0526746Y0356263D01*
X0526896Y0356212D01*
X0527045Y0356157D01*
X0527192Y0356099D01*
X0527338Y0356037D01*
X0527482Y0355972D01*
X0527624Y0355902D01*
X0527765Y0355830D01*
X0527904Y0355753D01*
X0528040Y0355674D01*
X0528175Y0355590D01*
X0528308Y0355504D01*
X0528438Y0355414D01*
X0528566Y0355321D01*
X0528692Y0355225D01*
X0528815Y0355125D01*
X0528936Y0355023D01*
X0529054Y0354918D01*
X0529169Y0354809D01*
X0529282Y0354698D01*
X0529392Y0354584D01*
X0529499Y0354467D01*
X0529603Y0354348D01*
X0529704Y0354226D01*
X0529801Y0354101D01*
X0529896Y0353974D01*
X0529987Y0353845D01*
X0530076Y0353714D01*
X0530160Y0353580D01*
X0530242Y0353444D01*
X0530320Y0353307D01*
X0530394Y0353167D01*
X0530465Y0353025D01*
X0530533Y0352882D01*
X0530597Y0352737D01*
X0530657Y0352591D01*
X0530713Y0352443D01*
X0530766Y0352294D01*
X0530815Y0352143D01*
X0530860Y0351991D01*
X0530901Y0351838D01*
X0530939Y0351685D01*
X0530972Y0351530D01*
X0531002Y0351374D01*
X0531028Y0351218D01*
X0531049Y0351061D01*
X0531067Y0350904D01*
X0531081Y0350746D01*
X0531091Y0350588D01*
X0531097Y0350430D01*
X0531099Y0350272D01*
X0531097Y0350114D01*
X0531091Y0349956D01*
X0531081Y0349798D01*
X0531067Y0349640D01*
X0531049Y0349483D01*
X0531028Y0349326D01*
X0531002Y0349170D01*
X0530972Y0349014D01*
X0530939Y0348859D01*
X0530901Y0348706D01*
X0530860Y0348553D01*
X0530815Y0348401D01*
X0530766Y0348250D01*
X0530713Y0348101D01*
X0530657Y0347953D01*
X0530597Y0347807D01*
X0530533Y0347662D01*
X0530465Y0347519D01*
X0530394Y0347377D01*
X0530320Y0347237D01*
X0530242Y0347100D01*
X0530160Y0346964D01*
X0530076Y0346830D01*
X0529987Y0346699D01*
X0529896Y0346570D01*
X0529801Y0346443D01*
X0529704Y0346318D01*
X0529603Y0346196D01*
X0529499Y0346077D01*
X0529392Y0345960D01*
X0529282Y0345846D01*
X0529169Y0345735D01*
X0529054Y0345626D01*
X0528936Y0345521D01*
X0528815Y0345419D01*
X0528692Y0345319D01*
X0528566Y0345223D01*
X0528438Y0345130D01*
X0528308Y0345040D01*
X0528175Y0344954D01*
X0528040Y0344870D01*
X0527904Y0344791D01*
X0527765Y0344714D01*
X0527624Y0344642D01*
X0527482Y0344572D01*
X0527338Y0344507D01*
X0527192Y0344445D01*
X0527045Y0344387D01*
X0526896Y0344332D01*
X0526746Y0344281D01*
X0526595Y0344234D01*
X0526443Y0344191D01*
X0526290Y0344152D01*
X0526135Y0344116D01*
X0525980Y0344085D01*
X0525824Y0344057D01*
X0525668Y0344033D01*
X0525511Y0344013D01*
X0525353Y0343997D01*
X0525196Y0343985D01*
X0525037Y0343977D01*
X0524879Y0343973D01*
X0524721Y0343973D01*
X0524563Y0343977D01*
X0524404Y0343985D01*
X0524247Y0343997D01*
X0524089Y0344013D01*
X0523932Y0344033D01*
X0523776Y0344057D01*
X0523620Y0344085D01*
X0523465Y0344116D01*
X0523310Y0344152D01*
X0523157Y0344191D01*
X0523005Y0344234D01*
X0522854Y0344281D01*
X0522704Y0344332D01*
X0522555Y0344387D01*
X0522408Y0344445D01*
X0522262Y0344507D01*
X0522118Y0344572D01*
X0521976Y0344642D01*
X0521835Y0344714D01*
X0521696Y0344791D01*
X0521560Y0344870D01*
X0521425Y0344954D01*
X0521292Y0345040D01*
X0521162Y0345130D01*
X0521034Y0345223D01*
X0520908Y0345319D01*
X0520785Y0345419D01*
X0520664Y0345521D01*
X0520546Y0345626D01*
X0520431Y0345735D01*
X0520318Y0345846D01*
X0520208Y0345960D01*
X0520101Y0346077D01*
X0519997Y0346196D01*
X0519896Y0346318D01*
X0519799Y0346443D01*
X0519704Y0346570D01*
X0519613Y0346699D01*
X0519524Y0346830D01*
X0519440Y0346964D01*
X0519358Y0347100D01*
X0519280Y0347237D01*
X0519206Y0347377D01*
X0519135Y0347519D01*
X0519067Y0347662D01*
X0519003Y0347807D01*
X0518943Y0347953D01*
X0518887Y0348101D01*
X0518834Y0348250D01*
X0518785Y0348401D01*
X0518740Y0348553D01*
X0518699Y0348706D01*
X0518661Y0348859D01*
X0518628Y0349014D01*
X0518598Y0349170D01*
X0518572Y0349326D01*
X0518551Y0349483D01*
X0518533Y0349640D01*
X0518519Y0349798D01*
X0518509Y0349956D01*
X0518503Y0350114D01*
X0518501Y0350272D01*
X0554327Y0379799D02*
X0554329Y0379992D01*
X0554336Y0380185D01*
X0554348Y0380378D01*
X0554365Y0380571D01*
X0554386Y0380763D01*
X0554412Y0380954D01*
X0554443Y0381145D01*
X0554478Y0381335D01*
X0554518Y0381524D01*
X0554563Y0381712D01*
X0554612Y0381899D01*
X0554666Y0382085D01*
X0554724Y0382269D01*
X0554787Y0382452D01*
X0554855Y0382633D01*
X0554926Y0382812D01*
X0555003Y0382990D01*
X0555083Y0383166D01*
X0555168Y0383339D01*
X0555257Y0383511D01*
X0555350Y0383680D01*
X0555447Y0383847D01*
X0555549Y0384012D01*
X0555654Y0384174D01*
X0555763Y0384333D01*
X0555877Y0384490D01*
X0555994Y0384643D01*
X0556114Y0384794D01*
X0556239Y0384942D01*
X0556367Y0385087D01*
X0556498Y0385228D01*
X0556633Y0385367D01*
X0556772Y0385502D01*
X0556913Y0385633D01*
X0557058Y0385761D01*
X0557206Y0385886D01*
X0557357Y0386006D01*
X0557510Y0386123D01*
X0557667Y0386237D01*
X0557826Y0386346D01*
X0557988Y0386451D01*
X0558153Y0386553D01*
X0558320Y0386650D01*
X0558489Y0386743D01*
X0558661Y0386832D01*
X0558834Y0386917D01*
X0559010Y0386997D01*
X0559188Y0387074D01*
X0559367Y0387145D01*
X0559548Y0387213D01*
X0559731Y0387276D01*
X0559915Y0387334D01*
X0560101Y0387388D01*
X0560288Y0387437D01*
X0560476Y0387482D01*
X0560665Y0387522D01*
X0560855Y0387557D01*
X0561046Y0387588D01*
X0561237Y0387614D01*
X0561429Y0387635D01*
X0561622Y0387652D01*
X0561815Y0387664D01*
X0562008Y0387671D01*
X0562201Y0387673D01*
X0562394Y0387671D01*
X0562587Y0387664D01*
X0562780Y0387652D01*
X0562973Y0387635D01*
X0563165Y0387614D01*
X0563356Y0387588D01*
X0563547Y0387557D01*
X0563737Y0387522D01*
X0563926Y0387482D01*
X0564114Y0387437D01*
X0564301Y0387388D01*
X0564487Y0387334D01*
X0564671Y0387276D01*
X0564854Y0387213D01*
X0565035Y0387145D01*
X0565214Y0387074D01*
X0565392Y0386997D01*
X0565568Y0386917D01*
X0565741Y0386832D01*
X0565913Y0386743D01*
X0566082Y0386650D01*
X0566249Y0386553D01*
X0566414Y0386451D01*
X0566576Y0386346D01*
X0566735Y0386237D01*
X0566892Y0386123D01*
X0567045Y0386006D01*
X0567196Y0385886D01*
X0567344Y0385761D01*
X0567489Y0385633D01*
X0567630Y0385502D01*
X0567769Y0385367D01*
X0567904Y0385228D01*
X0568035Y0385087D01*
X0568163Y0384942D01*
X0568288Y0384794D01*
X0568408Y0384643D01*
X0568525Y0384490D01*
X0568639Y0384333D01*
X0568748Y0384174D01*
X0568853Y0384012D01*
X0568955Y0383847D01*
X0569052Y0383680D01*
X0569145Y0383511D01*
X0569234Y0383339D01*
X0569319Y0383166D01*
X0569399Y0382990D01*
X0569476Y0382812D01*
X0569547Y0382633D01*
X0569615Y0382452D01*
X0569678Y0382269D01*
X0569736Y0382085D01*
X0569790Y0381899D01*
X0569839Y0381712D01*
X0569884Y0381524D01*
X0569924Y0381335D01*
X0569959Y0381145D01*
X0569990Y0380954D01*
X0570016Y0380763D01*
X0570037Y0380571D01*
X0570054Y0380378D01*
X0570066Y0380185D01*
X0570073Y0379992D01*
X0570075Y0379799D01*
X0570073Y0379606D01*
X0570066Y0379413D01*
X0570054Y0379220D01*
X0570037Y0379027D01*
X0570016Y0378835D01*
X0569990Y0378644D01*
X0569959Y0378453D01*
X0569924Y0378263D01*
X0569884Y0378074D01*
X0569839Y0377886D01*
X0569790Y0377699D01*
X0569736Y0377513D01*
X0569678Y0377329D01*
X0569615Y0377146D01*
X0569547Y0376965D01*
X0569476Y0376786D01*
X0569399Y0376608D01*
X0569319Y0376432D01*
X0569234Y0376259D01*
X0569145Y0376087D01*
X0569052Y0375918D01*
X0568955Y0375751D01*
X0568853Y0375586D01*
X0568748Y0375424D01*
X0568639Y0375265D01*
X0568525Y0375108D01*
X0568408Y0374955D01*
X0568288Y0374804D01*
X0568163Y0374656D01*
X0568035Y0374511D01*
X0567904Y0374370D01*
X0567769Y0374231D01*
X0567630Y0374096D01*
X0567489Y0373965D01*
X0567344Y0373837D01*
X0567196Y0373712D01*
X0567045Y0373592D01*
X0566892Y0373475D01*
X0566735Y0373361D01*
X0566576Y0373252D01*
X0566414Y0373147D01*
X0566249Y0373045D01*
X0566082Y0372948D01*
X0565913Y0372855D01*
X0565741Y0372766D01*
X0565568Y0372681D01*
X0565392Y0372601D01*
X0565214Y0372524D01*
X0565035Y0372453D01*
X0564854Y0372385D01*
X0564671Y0372322D01*
X0564487Y0372264D01*
X0564301Y0372210D01*
X0564114Y0372161D01*
X0563926Y0372116D01*
X0563737Y0372076D01*
X0563547Y0372041D01*
X0563356Y0372010D01*
X0563165Y0371984D01*
X0562973Y0371963D01*
X0562780Y0371946D01*
X0562587Y0371934D01*
X0562394Y0371927D01*
X0562201Y0371925D01*
X0562008Y0371927D01*
X0561815Y0371934D01*
X0561622Y0371946D01*
X0561429Y0371963D01*
X0561237Y0371984D01*
X0561046Y0372010D01*
X0560855Y0372041D01*
X0560665Y0372076D01*
X0560476Y0372116D01*
X0560288Y0372161D01*
X0560101Y0372210D01*
X0559915Y0372264D01*
X0559731Y0372322D01*
X0559548Y0372385D01*
X0559367Y0372453D01*
X0559188Y0372524D01*
X0559010Y0372601D01*
X0558834Y0372681D01*
X0558661Y0372766D01*
X0558489Y0372855D01*
X0558320Y0372948D01*
X0558153Y0373045D01*
X0557988Y0373147D01*
X0557826Y0373252D01*
X0557667Y0373361D01*
X0557510Y0373475D01*
X0557357Y0373592D01*
X0557206Y0373712D01*
X0557058Y0373837D01*
X0556913Y0373965D01*
X0556772Y0374096D01*
X0556633Y0374231D01*
X0556498Y0374370D01*
X0556367Y0374511D01*
X0556239Y0374656D01*
X0556114Y0374804D01*
X0555994Y0374955D01*
X0555877Y0375108D01*
X0555763Y0375265D01*
X0555654Y0375424D01*
X0555549Y0375586D01*
X0555447Y0375751D01*
X0555350Y0375918D01*
X0555257Y0376087D01*
X0555168Y0376259D01*
X0555083Y0376432D01*
X0555003Y0376608D01*
X0554926Y0376786D01*
X0554855Y0376965D01*
X0554787Y0377146D01*
X0554724Y0377329D01*
X0554666Y0377513D01*
X0554612Y0377699D01*
X0554563Y0377886D01*
X0554518Y0378074D01*
X0554478Y0378263D01*
X0554443Y0378453D01*
X0554412Y0378644D01*
X0554386Y0378835D01*
X0554365Y0379027D01*
X0554348Y0379220D01*
X0554336Y0379413D01*
X0554329Y0379606D01*
X0554327Y0379799D01*
X0518501Y0094366D02*
X0518503Y0094524D01*
X0518509Y0094682D01*
X0518519Y0094840D01*
X0518533Y0094998D01*
X0518551Y0095155D01*
X0518572Y0095312D01*
X0518598Y0095468D01*
X0518628Y0095624D01*
X0518661Y0095779D01*
X0518699Y0095932D01*
X0518740Y0096085D01*
X0518785Y0096237D01*
X0518834Y0096388D01*
X0518887Y0096537D01*
X0518943Y0096685D01*
X0519003Y0096831D01*
X0519067Y0096976D01*
X0519135Y0097119D01*
X0519206Y0097261D01*
X0519280Y0097401D01*
X0519358Y0097538D01*
X0519440Y0097674D01*
X0519524Y0097808D01*
X0519613Y0097939D01*
X0519704Y0098068D01*
X0519799Y0098195D01*
X0519896Y0098320D01*
X0519997Y0098442D01*
X0520101Y0098561D01*
X0520208Y0098678D01*
X0520318Y0098792D01*
X0520431Y0098903D01*
X0520546Y0099012D01*
X0520664Y0099117D01*
X0520785Y0099219D01*
X0520908Y0099319D01*
X0521034Y0099415D01*
X0521162Y0099508D01*
X0521292Y0099598D01*
X0521425Y0099684D01*
X0521560Y0099768D01*
X0521696Y0099847D01*
X0521835Y0099924D01*
X0521976Y0099996D01*
X0522118Y0100066D01*
X0522262Y0100131D01*
X0522408Y0100193D01*
X0522555Y0100251D01*
X0522704Y0100306D01*
X0522854Y0100357D01*
X0523005Y0100404D01*
X0523157Y0100447D01*
X0523310Y0100486D01*
X0523465Y0100522D01*
X0523620Y0100553D01*
X0523776Y0100581D01*
X0523932Y0100605D01*
X0524089Y0100625D01*
X0524247Y0100641D01*
X0524404Y0100653D01*
X0524563Y0100661D01*
X0524721Y0100665D01*
X0524879Y0100665D01*
X0525037Y0100661D01*
X0525196Y0100653D01*
X0525353Y0100641D01*
X0525511Y0100625D01*
X0525668Y0100605D01*
X0525824Y0100581D01*
X0525980Y0100553D01*
X0526135Y0100522D01*
X0526290Y0100486D01*
X0526443Y0100447D01*
X0526595Y0100404D01*
X0526746Y0100357D01*
X0526896Y0100306D01*
X0527045Y0100251D01*
X0527192Y0100193D01*
X0527338Y0100131D01*
X0527482Y0100066D01*
X0527624Y0099996D01*
X0527765Y0099924D01*
X0527904Y0099847D01*
X0528040Y0099768D01*
X0528175Y0099684D01*
X0528308Y0099598D01*
X0528438Y0099508D01*
X0528566Y0099415D01*
X0528692Y0099319D01*
X0528815Y0099219D01*
X0528936Y0099117D01*
X0529054Y0099012D01*
X0529169Y0098903D01*
X0529282Y0098792D01*
X0529392Y0098678D01*
X0529499Y0098561D01*
X0529603Y0098442D01*
X0529704Y0098320D01*
X0529801Y0098195D01*
X0529896Y0098068D01*
X0529987Y0097939D01*
X0530076Y0097808D01*
X0530160Y0097674D01*
X0530242Y0097538D01*
X0530320Y0097401D01*
X0530394Y0097261D01*
X0530465Y0097119D01*
X0530533Y0096976D01*
X0530597Y0096831D01*
X0530657Y0096685D01*
X0530713Y0096537D01*
X0530766Y0096388D01*
X0530815Y0096237D01*
X0530860Y0096085D01*
X0530901Y0095932D01*
X0530939Y0095779D01*
X0530972Y0095624D01*
X0531002Y0095468D01*
X0531028Y0095312D01*
X0531049Y0095155D01*
X0531067Y0094998D01*
X0531081Y0094840D01*
X0531091Y0094682D01*
X0531097Y0094524D01*
X0531099Y0094366D01*
X0531097Y0094208D01*
X0531091Y0094050D01*
X0531081Y0093892D01*
X0531067Y0093734D01*
X0531049Y0093577D01*
X0531028Y0093420D01*
X0531002Y0093264D01*
X0530972Y0093108D01*
X0530939Y0092953D01*
X0530901Y0092800D01*
X0530860Y0092647D01*
X0530815Y0092495D01*
X0530766Y0092344D01*
X0530713Y0092195D01*
X0530657Y0092047D01*
X0530597Y0091901D01*
X0530533Y0091756D01*
X0530465Y0091613D01*
X0530394Y0091471D01*
X0530320Y0091331D01*
X0530242Y0091194D01*
X0530160Y0091058D01*
X0530076Y0090924D01*
X0529987Y0090793D01*
X0529896Y0090664D01*
X0529801Y0090537D01*
X0529704Y0090412D01*
X0529603Y0090290D01*
X0529499Y0090171D01*
X0529392Y0090054D01*
X0529282Y0089940D01*
X0529169Y0089829D01*
X0529054Y0089720D01*
X0528936Y0089615D01*
X0528815Y0089513D01*
X0528692Y0089413D01*
X0528566Y0089317D01*
X0528438Y0089224D01*
X0528308Y0089134D01*
X0528175Y0089048D01*
X0528040Y0088964D01*
X0527904Y0088885D01*
X0527765Y0088808D01*
X0527624Y0088736D01*
X0527482Y0088666D01*
X0527338Y0088601D01*
X0527192Y0088539D01*
X0527045Y0088481D01*
X0526896Y0088426D01*
X0526746Y0088375D01*
X0526595Y0088328D01*
X0526443Y0088285D01*
X0526290Y0088246D01*
X0526135Y0088210D01*
X0525980Y0088179D01*
X0525824Y0088151D01*
X0525668Y0088127D01*
X0525511Y0088107D01*
X0525353Y0088091D01*
X0525196Y0088079D01*
X0525037Y0088071D01*
X0524879Y0088067D01*
X0524721Y0088067D01*
X0524563Y0088071D01*
X0524404Y0088079D01*
X0524247Y0088091D01*
X0524089Y0088107D01*
X0523932Y0088127D01*
X0523776Y0088151D01*
X0523620Y0088179D01*
X0523465Y0088210D01*
X0523310Y0088246D01*
X0523157Y0088285D01*
X0523005Y0088328D01*
X0522854Y0088375D01*
X0522704Y0088426D01*
X0522555Y0088481D01*
X0522408Y0088539D01*
X0522262Y0088601D01*
X0522118Y0088666D01*
X0521976Y0088736D01*
X0521835Y0088808D01*
X0521696Y0088885D01*
X0521560Y0088964D01*
X0521425Y0089048D01*
X0521292Y0089134D01*
X0521162Y0089224D01*
X0521034Y0089317D01*
X0520908Y0089413D01*
X0520785Y0089513D01*
X0520664Y0089615D01*
X0520546Y0089720D01*
X0520431Y0089829D01*
X0520318Y0089940D01*
X0520208Y0090054D01*
X0520101Y0090171D01*
X0519997Y0090290D01*
X0519896Y0090412D01*
X0519799Y0090537D01*
X0519704Y0090664D01*
X0519613Y0090793D01*
X0519524Y0090924D01*
X0519440Y0091058D01*
X0519358Y0091194D01*
X0519280Y0091331D01*
X0519206Y0091471D01*
X0519135Y0091613D01*
X0519067Y0091756D01*
X0519003Y0091901D01*
X0518943Y0092047D01*
X0518887Y0092195D01*
X0518834Y0092344D01*
X0518785Y0092495D01*
X0518740Y0092647D01*
X0518699Y0092800D01*
X0518661Y0092953D01*
X0518628Y0093108D01*
X0518598Y0093264D01*
X0518572Y0093420D01*
X0518551Y0093577D01*
X0518533Y0093734D01*
X0518519Y0093892D01*
X0518509Y0094050D01*
X0518503Y0094208D01*
X0518501Y0094366D01*
X0554327Y0064839D02*
X0554329Y0065032D01*
X0554336Y0065225D01*
X0554348Y0065418D01*
X0554365Y0065611D01*
X0554386Y0065803D01*
X0554412Y0065994D01*
X0554443Y0066185D01*
X0554478Y0066375D01*
X0554518Y0066564D01*
X0554563Y0066752D01*
X0554612Y0066939D01*
X0554666Y0067125D01*
X0554724Y0067309D01*
X0554787Y0067492D01*
X0554855Y0067673D01*
X0554926Y0067852D01*
X0555003Y0068030D01*
X0555083Y0068206D01*
X0555168Y0068379D01*
X0555257Y0068551D01*
X0555350Y0068720D01*
X0555447Y0068887D01*
X0555549Y0069052D01*
X0555654Y0069214D01*
X0555763Y0069373D01*
X0555877Y0069530D01*
X0555994Y0069683D01*
X0556114Y0069834D01*
X0556239Y0069982D01*
X0556367Y0070127D01*
X0556498Y0070268D01*
X0556633Y0070407D01*
X0556772Y0070542D01*
X0556913Y0070673D01*
X0557058Y0070801D01*
X0557206Y0070926D01*
X0557357Y0071046D01*
X0557510Y0071163D01*
X0557667Y0071277D01*
X0557826Y0071386D01*
X0557988Y0071491D01*
X0558153Y0071593D01*
X0558320Y0071690D01*
X0558489Y0071783D01*
X0558661Y0071872D01*
X0558834Y0071957D01*
X0559010Y0072037D01*
X0559188Y0072114D01*
X0559367Y0072185D01*
X0559548Y0072253D01*
X0559731Y0072316D01*
X0559915Y0072374D01*
X0560101Y0072428D01*
X0560288Y0072477D01*
X0560476Y0072522D01*
X0560665Y0072562D01*
X0560855Y0072597D01*
X0561046Y0072628D01*
X0561237Y0072654D01*
X0561429Y0072675D01*
X0561622Y0072692D01*
X0561815Y0072704D01*
X0562008Y0072711D01*
X0562201Y0072713D01*
X0562394Y0072711D01*
X0562587Y0072704D01*
X0562780Y0072692D01*
X0562973Y0072675D01*
X0563165Y0072654D01*
X0563356Y0072628D01*
X0563547Y0072597D01*
X0563737Y0072562D01*
X0563926Y0072522D01*
X0564114Y0072477D01*
X0564301Y0072428D01*
X0564487Y0072374D01*
X0564671Y0072316D01*
X0564854Y0072253D01*
X0565035Y0072185D01*
X0565214Y0072114D01*
X0565392Y0072037D01*
X0565568Y0071957D01*
X0565741Y0071872D01*
X0565913Y0071783D01*
X0566082Y0071690D01*
X0566249Y0071593D01*
X0566414Y0071491D01*
X0566576Y0071386D01*
X0566735Y0071277D01*
X0566892Y0071163D01*
X0567045Y0071046D01*
X0567196Y0070926D01*
X0567344Y0070801D01*
X0567489Y0070673D01*
X0567630Y0070542D01*
X0567769Y0070407D01*
X0567904Y0070268D01*
X0568035Y0070127D01*
X0568163Y0069982D01*
X0568288Y0069834D01*
X0568408Y0069683D01*
X0568525Y0069530D01*
X0568639Y0069373D01*
X0568748Y0069214D01*
X0568853Y0069052D01*
X0568955Y0068887D01*
X0569052Y0068720D01*
X0569145Y0068551D01*
X0569234Y0068379D01*
X0569319Y0068206D01*
X0569399Y0068030D01*
X0569476Y0067852D01*
X0569547Y0067673D01*
X0569615Y0067492D01*
X0569678Y0067309D01*
X0569736Y0067125D01*
X0569790Y0066939D01*
X0569839Y0066752D01*
X0569884Y0066564D01*
X0569924Y0066375D01*
X0569959Y0066185D01*
X0569990Y0065994D01*
X0570016Y0065803D01*
X0570037Y0065611D01*
X0570054Y0065418D01*
X0570066Y0065225D01*
X0570073Y0065032D01*
X0570075Y0064839D01*
X0570073Y0064646D01*
X0570066Y0064453D01*
X0570054Y0064260D01*
X0570037Y0064067D01*
X0570016Y0063875D01*
X0569990Y0063684D01*
X0569959Y0063493D01*
X0569924Y0063303D01*
X0569884Y0063114D01*
X0569839Y0062926D01*
X0569790Y0062739D01*
X0569736Y0062553D01*
X0569678Y0062369D01*
X0569615Y0062186D01*
X0569547Y0062005D01*
X0569476Y0061826D01*
X0569399Y0061648D01*
X0569319Y0061472D01*
X0569234Y0061299D01*
X0569145Y0061127D01*
X0569052Y0060958D01*
X0568955Y0060791D01*
X0568853Y0060626D01*
X0568748Y0060464D01*
X0568639Y0060305D01*
X0568525Y0060148D01*
X0568408Y0059995D01*
X0568288Y0059844D01*
X0568163Y0059696D01*
X0568035Y0059551D01*
X0567904Y0059410D01*
X0567769Y0059271D01*
X0567630Y0059136D01*
X0567489Y0059005D01*
X0567344Y0058877D01*
X0567196Y0058752D01*
X0567045Y0058632D01*
X0566892Y0058515D01*
X0566735Y0058401D01*
X0566576Y0058292D01*
X0566414Y0058187D01*
X0566249Y0058085D01*
X0566082Y0057988D01*
X0565913Y0057895D01*
X0565741Y0057806D01*
X0565568Y0057721D01*
X0565392Y0057641D01*
X0565214Y0057564D01*
X0565035Y0057493D01*
X0564854Y0057425D01*
X0564671Y0057362D01*
X0564487Y0057304D01*
X0564301Y0057250D01*
X0564114Y0057201D01*
X0563926Y0057156D01*
X0563737Y0057116D01*
X0563547Y0057081D01*
X0563356Y0057050D01*
X0563165Y0057024D01*
X0562973Y0057003D01*
X0562780Y0056986D01*
X0562587Y0056974D01*
X0562394Y0056967D01*
X0562201Y0056965D01*
X0562008Y0056967D01*
X0561815Y0056974D01*
X0561622Y0056986D01*
X0561429Y0057003D01*
X0561237Y0057024D01*
X0561046Y0057050D01*
X0560855Y0057081D01*
X0560665Y0057116D01*
X0560476Y0057156D01*
X0560288Y0057201D01*
X0560101Y0057250D01*
X0559915Y0057304D01*
X0559731Y0057362D01*
X0559548Y0057425D01*
X0559367Y0057493D01*
X0559188Y0057564D01*
X0559010Y0057641D01*
X0558834Y0057721D01*
X0558661Y0057806D01*
X0558489Y0057895D01*
X0558320Y0057988D01*
X0558153Y0058085D01*
X0557988Y0058187D01*
X0557826Y0058292D01*
X0557667Y0058401D01*
X0557510Y0058515D01*
X0557357Y0058632D01*
X0557206Y0058752D01*
X0557058Y0058877D01*
X0556913Y0059005D01*
X0556772Y0059136D01*
X0556633Y0059271D01*
X0556498Y0059410D01*
X0556367Y0059551D01*
X0556239Y0059696D01*
X0556114Y0059844D01*
X0555994Y0059995D01*
X0555877Y0060148D01*
X0555763Y0060305D01*
X0555654Y0060464D01*
X0555549Y0060626D01*
X0555447Y0060791D01*
X0555350Y0060958D01*
X0555257Y0061127D01*
X0555168Y0061299D01*
X0555083Y0061472D01*
X0555003Y0061648D01*
X0554926Y0061826D01*
X0554855Y0062005D01*
X0554787Y0062186D01*
X0554724Y0062369D01*
X0554666Y0062553D01*
X0554612Y0062739D01*
X0554563Y0062926D01*
X0554518Y0063114D01*
X0554478Y0063303D01*
X0554443Y0063493D01*
X0554412Y0063684D01*
X0554386Y0063875D01*
X0554365Y0064067D01*
X0554348Y0064260D01*
X0554336Y0064453D01*
X0554329Y0064646D01*
X0554327Y0064839D01*
X0323619Y0094366D02*
X0323621Y0094524D01*
X0323627Y0094682D01*
X0323637Y0094840D01*
X0323651Y0094998D01*
X0323669Y0095155D01*
X0323690Y0095312D01*
X0323716Y0095468D01*
X0323746Y0095624D01*
X0323779Y0095779D01*
X0323817Y0095932D01*
X0323858Y0096085D01*
X0323903Y0096237D01*
X0323952Y0096388D01*
X0324005Y0096537D01*
X0324061Y0096685D01*
X0324121Y0096831D01*
X0324185Y0096976D01*
X0324253Y0097119D01*
X0324324Y0097261D01*
X0324398Y0097401D01*
X0324476Y0097538D01*
X0324558Y0097674D01*
X0324642Y0097808D01*
X0324731Y0097939D01*
X0324822Y0098068D01*
X0324917Y0098195D01*
X0325014Y0098320D01*
X0325115Y0098442D01*
X0325219Y0098561D01*
X0325326Y0098678D01*
X0325436Y0098792D01*
X0325549Y0098903D01*
X0325664Y0099012D01*
X0325782Y0099117D01*
X0325903Y0099219D01*
X0326026Y0099319D01*
X0326152Y0099415D01*
X0326280Y0099508D01*
X0326410Y0099598D01*
X0326543Y0099684D01*
X0326678Y0099768D01*
X0326814Y0099847D01*
X0326953Y0099924D01*
X0327094Y0099996D01*
X0327236Y0100066D01*
X0327380Y0100131D01*
X0327526Y0100193D01*
X0327673Y0100251D01*
X0327822Y0100306D01*
X0327972Y0100357D01*
X0328123Y0100404D01*
X0328275Y0100447D01*
X0328428Y0100486D01*
X0328583Y0100522D01*
X0328738Y0100553D01*
X0328894Y0100581D01*
X0329050Y0100605D01*
X0329207Y0100625D01*
X0329365Y0100641D01*
X0329522Y0100653D01*
X0329681Y0100661D01*
X0329839Y0100665D01*
X0329997Y0100665D01*
X0330155Y0100661D01*
X0330314Y0100653D01*
X0330471Y0100641D01*
X0330629Y0100625D01*
X0330786Y0100605D01*
X0330942Y0100581D01*
X0331098Y0100553D01*
X0331253Y0100522D01*
X0331408Y0100486D01*
X0331561Y0100447D01*
X0331713Y0100404D01*
X0331864Y0100357D01*
X0332014Y0100306D01*
X0332163Y0100251D01*
X0332310Y0100193D01*
X0332456Y0100131D01*
X0332600Y0100066D01*
X0332742Y0099996D01*
X0332883Y0099924D01*
X0333022Y0099847D01*
X0333158Y0099768D01*
X0333293Y0099684D01*
X0333426Y0099598D01*
X0333556Y0099508D01*
X0333684Y0099415D01*
X0333810Y0099319D01*
X0333933Y0099219D01*
X0334054Y0099117D01*
X0334172Y0099012D01*
X0334287Y0098903D01*
X0334400Y0098792D01*
X0334510Y0098678D01*
X0334617Y0098561D01*
X0334721Y0098442D01*
X0334822Y0098320D01*
X0334919Y0098195D01*
X0335014Y0098068D01*
X0335105Y0097939D01*
X0335194Y0097808D01*
X0335278Y0097674D01*
X0335360Y0097538D01*
X0335438Y0097401D01*
X0335512Y0097261D01*
X0335583Y0097119D01*
X0335651Y0096976D01*
X0335715Y0096831D01*
X0335775Y0096685D01*
X0335831Y0096537D01*
X0335884Y0096388D01*
X0335933Y0096237D01*
X0335978Y0096085D01*
X0336019Y0095932D01*
X0336057Y0095779D01*
X0336090Y0095624D01*
X0336120Y0095468D01*
X0336146Y0095312D01*
X0336167Y0095155D01*
X0336185Y0094998D01*
X0336199Y0094840D01*
X0336209Y0094682D01*
X0336215Y0094524D01*
X0336217Y0094366D01*
X0336215Y0094208D01*
X0336209Y0094050D01*
X0336199Y0093892D01*
X0336185Y0093734D01*
X0336167Y0093577D01*
X0336146Y0093420D01*
X0336120Y0093264D01*
X0336090Y0093108D01*
X0336057Y0092953D01*
X0336019Y0092800D01*
X0335978Y0092647D01*
X0335933Y0092495D01*
X0335884Y0092344D01*
X0335831Y0092195D01*
X0335775Y0092047D01*
X0335715Y0091901D01*
X0335651Y0091756D01*
X0335583Y0091613D01*
X0335512Y0091471D01*
X0335438Y0091331D01*
X0335360Y0091194D01*
X0335278Y0091058D01*
X0335194Y0090924D01*
X0335105Y0090793D01*
X0335014Y0090664D01*
X0334919Y0090537D01*
X0334822Y0090412D01*
X0334721Y0090290D01*
X0334617Y0090171D01*
X0334510Y0090054D01*
X0334400Y0089940D01*
X0334287Y0089829D01*
X0334172Y0089720D01*
X0334054Y0089615D01*
X0333933Y0089513D01*
X0333810Y0089413D01*
X0333684Y0089317D01*
X0333556Y0089224D01*
X0333426Y0089134D01*
X0333293Y0089048D01*
X0333158Y0088964D01*
X0333022Y0088885D01*
X0332883Y0088808D01*
X0332742Y0088736D01*
X0332600Y0088666D01*
X0332456Y0088601D01*
X0332310Y0088539D01*
X0332163Y0088481D01*
X0332014Y0088426D01*
X0331864Y0088375D01*
X0331713Y0088328D01*
X0331561Y0088285D01*
X0331408Y0088246D01*
X0331253Y0088210D01*
X0331098Y0088179D01*
X0330942Y0088151D01*
X0330786Y0088127D01*
X0330629Y0088107D01*
X0330471Y0088091D01*
X0330314Y0088079D01*
X0330155Y0088071D01*
X0329997Y0088067D01*
X0329839Y0088067D01*
X0329681Y0088071D01*
X0329522Y0088079D01*
X0329365Y0088091D01*
X0329207Y0088107D01*
X0329050Y0088127D01*
X0328894Y0088151D01*
X0328738Y0088179D01*
X0328583Y0088210D01*
X0328428Y0088246D01*
X0328275Y0088285D01*
X0328123Y0088328D01*
X0327972Y0088375D01*
X0327822Y0088426D01*
X0327673Y0088481D01*
X0327526Y0088539D01*
X0327380Y0088601D01*
X0327236Y0088666D01*
X0327094Y0088736D01*
X0326953Y0088808D01*
X0326814Y0088885D01*
X0326678Y0088964D01*
X0326543Y0089048D01*
X0326410Y0089134D01*
X0326280Y0089224D01*
X0326152Y0089317D01*
X0326026Y0089413D01*
X0325903Y0089513D01*
X0325782Y0089615D01*
X0325664Y0089720D01*
X0325549Y0089829D01*
X0325436Y0089940D01*
X0325326Y0090054D01*
X0325219Y0090171D01*
X0325115Y0090290D01*
X0325014Y0090412D01*
X0324917Y0090537D01*
X0324822Y0090664D01*
X0324731Y0090793D01*
X0324642Y0090924D01*
X0324558Y0091058D01*
X0324476Y0091194D01*
X0324398Y0091331D01*
X0324324Y0091471D01*
X0324253Y0091613D01*
X0324185Y0091756D01*
X0324121Y0091901D01*
X0324061Y0092047D01*
X0324005Y0092195D01*
X0323952Y0092344D01*
X0323903Y0092495D01*
X0323858Y0092647D01*
X0323817Y0092800D01*
X0323779Y0092953D01*
X0323746Y0093108D01*
X0323716Y0093264D01*
X0323690Y0093420D01*
X0323669Y0093577D01*
X0323651Y0093734D01*
X0323637Y0093892D01*
X0323627Y0094050D01*
X0323621Y0094208D01*
X0323619Y0094366D01*
X0278737Y0064839D02*
X0278739Y0065032D01*
X0278746Y0065225D01*
X0278758Y0065418D01*
X0278775Y0065611D01*
X0278796Y0065803D01*
X0278822Y0065994D01*
X0278853Y0066185D01*
X0278888Y0066375D01*
X0278928Y0066564D01*
X0278973Y0066752D01*
X0279022Y0066939D01*
X0279076Y0067125D01*
X0279134Y0067309D01*
X0279197Y0067492D01*
X0279265Y0067673D01*
X0279336Y0067852D01*
X0279413Y0068030D01*
X0279493Y0068206D01*
X0279578Y0068379D01*
X0279667Y0068551D01*
X0279760Y0068720D01*
X0279857Y0068887D01*
X0279959Y0069052D01*
X0280064Y0069214D01*
X0280173Y0069373D01*
X0280287Y0069530D01*
X0280404Y0069683D01*
X0280524Y0069834D01*
X0280649Y0069982D01*
X0280777Y0070127D01*
X0280908Y0070268D01*
X0281043Y0070407D01*
X0281182Y0070542D01*
X0281323Y0070673D01*
X0281468Y0070801D01*
X0281616Y0070926D01*
X0281767Y0071046D01*
X0281920Y0071163D01*
X0282077Y0071277D01*
X0282236Y0071386D01*
X0282398Y0071491D01*
X0282563Y0071593D01*
X0282730Y0071690D01*
X0282899Y0071783D01*
X0283071Y0071872D01*
X0283244Y0071957D01*
X0283420Y0072037D01*
X0283598Y0072114D01*
X0283777Y0072185D01*
X0283958Y0072253D01*
X0284141Y0072316D01*
X0284325Y0072374D01*
X0284511Y0072428D01*
X0284698Y0072477D01*
X0284886Y0072522D01*
X0285075Y0072562D01*
X0285265Y0072597D01*
X0285456Y0072628D01*
X0285647Y0072654D01*
X0285839Y0072675D01*
X0286032Y0072692D01*
X0286225Y0072704D01*
X0286418Y0072711D01*
X0286611Y0072713D01*
X0286804Y0072711D01*
X0286997Y0072704D01*
X0287190Y0072692D01*
X0287383Y0072675D01*
X0287575Y0072654D01*
X0287766Y0072628D01*
X0287957Y0072597D01*
X0288147Y0072562D01*
X0288336Y0072522D01*
X0288524Y0072477D01*
X0288711Y0072428D01*
X0288897Y0072374D01*
X0289081Y0072316D01*
X0289264Y0072253D01*
X0289445Y0072185D01*
X0289624Y0072114D01*
X0289802Y0072037D01*
X0289978Y0071957D01*
X0290151Y0071872D01*
X0290323Y0071783D01*
X0290492Y0071690D01*
X0290659Y0071593D01*
X0290824Y0071491D01*
X0290986Y0071386D01*
X0291145Y0071277D01*
X0291302Y0071163D01*
X0291455Y0071046D01*
X0291606Y0070926D01*
X0291754Y0070801D01*
X0291899Y0070673D01*
X0292040Y0070542D01*
X0292179Y0070407D01*
X0292314Y0070268D01*
X0292445Y0070127D01*
X0292573Y0069982D01*
X0292698Y0069834D01*
X0292818Y0069683D01*
X0292935Y0069530D01*
X0293049Y0069373D01*
X0293158Y0069214D01*
X0293263Y0069052D01*
X0293365Y0068887D01*
X0293462Y0068720D01*
X0293555Y0068551D01*
X0293644Y0068379D01*
X0293729Y0068206D01*
X0293809Y0068030D01*
X0293886Y0067852D01*
X0293957Y0067673D01*
X0294025Y0067492D01*
X0294088Y0067309D01*
X0294146Y0067125D01*
X0294200Y0066939D01*
X0294249Y0066752D01*
X0294294Y0066564D01*
X0294334Y0066375D01*
X0294369Y0066185D01*
X0294400Y0065994D01*
X0294426Y0065803D01*
X0294447Y0065611D01*
X0294464Y0065418D01*
X0294476Y0065225D01*
X0294483Y0065032D01*
X0294485Y0064839D01*
X0294483Y0064646D01*
X0294476Y0064453D01*
X0294464Y0064260D01*
X0294447Y0064067D01*
X0294426Y0063875D01*
X0294400Y0063684D01*
X0294369Y0063493D01*
X0294334Y0063303D01*
X0294294Y0063114D01*
X0294249Y0062926D01*
X0294200Y0062739D01*
X0294146Y0062553D01*
X0294088Y0062369D01*
X0294025Y0062186D01*
X0293957Y0062005D01*
X0293886Y0061826D01*
X0293809Y0061648D01*
X0293729Y0061472D01*
X0293644Y0061299D01*
X0293555Y0061127D01*
X0293462Y0060958D01*
X0293365Y0060791D01*
X0293263Y0060626D01*
X0293158Y0060464D01*
X0293049Y0060305D01*
X0292935Y0060148D01*
X0292818Y0059995D01*
X0292698Y0059844D01*
X0292573Y0059696D01*
X0292445Y0059551D01*
X0292314Y0059410D01*
X0292179Y0059271D01*
X0292040Y0059136D01*
X0291899Y0059005D01*
X0291754Y0058877D01*
X0291606Y0058752D01*
X0291455Y0058632D01*
X0291302Y0058515D01*
X0291145Y0058401D01*
X0290986Y0058292D01*
X0290824Y0058187D01*
X0290659Y0058085D01*
X0290492Y0057988D01*
X0290323Y0057895D01*
X0290151Y0057806D01*
X0289978Y0057721D01*
X0289802Y0057641D01*
X0289624Y0057564D01*
X0289445Y0057493D01*
X0289264Y0057425D01*
X0289081Y0057362D01*
X0288897Y0057304D01*
X0288711Y0057250D01*
X0288524Y0057201D01*
X0288336Y0057156D01*
X0288147Y0057116D01*
X0287957Y0057081D01*
X0287766Y0057050D01*
X0287575Y0057024D01*
X0287383Y0057003D01*
X0287190Y0056986D01*
X0286997Y0056974D01*
X0286804Y0056967D01*
X0286611Y0056965D01*
X0286418Y0056967D01*
X0286225Y0056974D01*
X0286032Y0056986D01*
X0285839Y0057003D01*
X0285647Y0057024D01*
X0285456Y0057050D01*
X0285265Y0057081D01*
X0285075Y0057116D01*
X0284886Y0057156D01*
X0284698Y0057201D01*
X0284511Y0057250D01*
X0284325Y0057304D01*
X0284141Y0057362D01*
X0283958Y0057425D01*
X0283777Y0057493D01*
X0283598Y0057564D01*
X0283420Y0057641D01*
X0283244Y0057721D01*
X0283071Y0057806D01*
X0282899Y0057895D01*
X0282730Y0057988D01*
X0282563Y0058085D01*
X0282398Y0058187D01*
X0282236Y0058292D01*
X0282077Y0058401D01*
X0281920Y0058515D01*
X0281767Y0058632D01*
X0281616Y0058752D01*
X0281468Y0058877D01*
X0281323Y0059005D01*
X0281182Y0059136D01*
X0281043Y0059271D01*
X0280908Y0059410D01*
X0280777Y0059551D01*
X0280649Y0059696D01*
X0280524Y0059844D01*
X0280404Y0059995D01*
X0280287Y0060148D01*
X0280173Y0060305D01*
X0280064Y0060464D01*
X0279959Y0060626D01*
X0279857Y0060791D01*
X0279760Y0060958D01*
X0279667Y0061127D01*
X0279578Y0061299D01*
X0279493Y0061472D01*
X0279413Y0061648D01*
X0279336Y0061826D01*
X0279265Y0062005D01*
X0279197Y0062186D01*
X0279134Y0062369D01*
X0279076Y0062553D01*
X0279022Y0062739D01*
X0278973Y0062926D01*
X0278928Y0063114D01*
X0278888Y0063303D01*
X0278853Y0063493D01*
X0278822Y0063684D01*
X0278796Y0063875D01*
X0278775Y0064067D01*
X0278758Y0064260D01*
X0278746Y0064453D01*
X0278739Y0064646D01*
X0278737Y0064839D01*
D12*
X0329918Y0074681D02*
X0349997Y0074681D01*
X0329918Y0074681D02*
X0329442Y0074687D01*
X0328967Y0074704D01*
X0328492Y0074733D01*
X0328018Y0074773D01*
X0327545Y0074825D01*
X0327074Y0074888D01*
X0326604Y0074962D01*
X0326136Y0075048D01*
X0325670Y0075145D01*
X0325207Y0075253D01*
X0324747Y0075372D01*
X0324289Y0075503D01*
X0323835Y0075644D01*
X0323384Y0075797D01*
X0322938Y0075960D01*
X0322495Y0076134D01*
X0322057Y0076319D01*
X0321623Y0076514D01*
X0321194Y0076720D01*
X0320770Y0076936D01*
X0320351Y0077162D01*
X0319938Y0077398D01*
X0319531Y0077644D01*
X0319130Y0077900D01*
X0318736Y0078166D01*
X0318347Y0078441D01*
X0317966Y0078725D01*
X0317592Y0079018D01*
X0317224Y0079320D01*
X0316864Y0079632D01*
X0316512Y0079951D01*
X0316168Y0080279D01*
X0315831Y0080616D01*
X0315503Y0080960D01*
X0315184Y0081312D01*
X0314872Y0081672D01*
X0314570Y0082040D01*
X0314277Y0082414D01*
X0313993Y0082795D01*
X0313718Y0083184D01*
X0313452Y0083578D01*
X0313196Y0083979D01*
X0312950Y0084386D01*
X0312714Y0084799D01*
X0312488Y0085218D01*
X0312272Y0085642D01*
X0312066Y0086071D01*
X0311871Y0086505D01*
X0311686Y0086943D01*
X0311512Y0087386D01*
X0311349Y0087832D01*
X0311196Y0088283D01*
X0311055Y0088737D01*
X0310924Y0089195D01*
X0310805Y0089655D01*
X0310697Y0090118D01*
X0310600Y0090584D01*
X0310514Y0091052D01*
X0310440Y0091522D01*
X0310377Y0091993D01*
X0310325Y0092466D01*
X0310285Y0092940D01*
X0310256Y0093415D01*
X0310239Y0093890D01*
X0310233Y0094366D01*
X0310233Y0114445D01*
X0504721Y0074681D02*
X0524800Y0074681D01*
X0525276Y0074687D01*
X0525751Y0074704D01*
X0526226Y0074733D01*
X0526700Y0074773D01*
X0527173Y0074825D01*
X0527644Y0074888D01*
X0528114Y0074962D01*
X0528582Y0075048D01*
X0529048Y0075145D01*
X0529511Y0075253D01*
X0529971Y0075372D01*
X0530429Y0075503D01*
X0530883Y0075644D01*
X0531334Y0075797D01*
X0531780Y0075960D01*
X0532223Y0076134D01*
X0532661Y0076319D01*
X0533095Y0076514D01*
X0533524Y0076720D01*
X0533948Y0076936D01*
X0534367Y0077162D01*
X0534780Y0077398D01*
X0535187Y0077644D01*
X0535588Y0077900D01*
X0535982Y0078166D01*
X0536371Y0078441D01*
X0536752Y0078725D01*
X0537126Y0079018D01*
X0537494Y0079320D01*
X0537854Y0079632D01*
X0538206Y0079951D01*
X0538550Y0080279D01*
X0538887Y0080616D01*
X0539215Y0080960D01*
X0539534Y0081312D01*
X0539846Y0081672D01*
X0540148Y0082040D01*
X0540441Y0082414D01*
X0540725Y0082795D01*
X0541000Y0083184D01*
X0541266Y0083578D01*
X0541522Y0083979D01*
X0541768Y0084386D01*
X0542004Y0084799D01*
X0542230Y0085218D01*
X0542446Y0085642D01*
X0542652Y0086071D01*
X0542847Y0086505D01*
X0543032Y0086943D01*
X0543206Y0087386D01*
X0543369Y0087832D01*
X0543522Y0088283D01*
X0543663Y0088737D01*
X0543794Y0089195D01*
X0543913Y0089655D01*
X0544021Y0090118D01*
X0544118Y0090584D01*
X0544204Y0091052D01*
X0544278Y0091522D01*
X0544341Y0091993D01*
X0544393Y0092466D01*
X0544433Y0092940D01*
X0544462Y0093415D01*
X0544479Y0093890D01*
X0544485Y0094366D01*
X0544485Y0114445D01*
X0544485Y0135705D02*
X0544485Y0167201D01*
X0544485Y0182949D02*
X0544485Y0214445D01*
X0544485Y0230193D02*
X0544485Y0261689D01*
X0544485Y0277437D02*
X0544485Y0308933D01*
X0544485Y0330193D02*
X0544485Y0350272D01*
X0544479Y0350748D01*
X0544462Y0351223D01*
X0544433Y0351698D01*
X0544393Y0352172D01*
X0544341Y0352645D01*
X0544278Y0353116D01*
X0544204Y0353586D01*
X0544118Y0354054D01*
X0544021Y0354520D01*
X0543913Y0354983D01*
X0543794Y0355443D01*
X0543663Y0355901D01*
X0543522Y0356355D01*
X0543369Y0356806D01*
X0543206Y0357252D01*
X0543032Y0357695D01*
X0542847Y0358133D01*
X0542652Y0358567D01*
X0542446Y0358996D01*
X0542230Y0359420D01*
X0542004Y0359839D01*
X0541768Y0360252D01*
X0541522Y0360659D01*
X0541266Y0361060D01*
X0541000Y0361454D01*
X0540725Y0361843D01*
X0540441Y0362224D01*
X0540148Y0362598D01*
X0539846Y0362966D01*
X0539534Y0363326D01*
X0539215Y0363678D01*
X0538887Y0364022D01*
X0538550Y0364359D01*
X0538206Y0364687D01*
X0537854Y0365006D01*
X0537494Y0365318D01*
X0537126Y0365620D01*
X0536752Y0365913D01*
X0536371Y0366197D01*
X0535982Y0366472D01*
X0535588Y0366738D01*
X0535187Y0366994D01*
X0534780Y0367240D01*
X0534367Y0367476D01*
X0533948Y0367702D01*
X0533524Y0367918D01*
X0533095Y0368124D01*
X0532661Y0368319D01*
X0532223Y0368504D01*
X0531780Y0368678D01*
X0531334Y0368841D01*
X0530883Y0368994D01*
X0530429Y0369135D01*
X0529971Y0369266D01*
X0529511Y0369385D01*
X0529048Y0369493D01*
X0528582Y0369590D01*
X0528114Y0369676D01*
X0527644Y0369750D01*
X0527173Y0369813D01*
X0526700Y0369865D01*
X0526226Y0369905D01*
X0525751Y0369934D01*
X0525276Y0369951D01*
X0524800Y0369957D01*
X0504721Y0369957D01*
X0349997Y0369957D02*
X0329918Y0369957D01*
X0329442Y0369951D01*
X0328967Y0369934D01*
X0328492Y0369905D01*
X0328018Y0369865D01*
X0327545Y0369813D01*
X0327074Y0369750D01*
X0326604Y0369676D01*
X0326136Y0369590D01*
X0325670Y0369493D01*
X0325207Y0369385D01*
X0324747Y0369266D01*
X0324289Y0369135D01*
X0323835Y0368994D01*
X0323384Y0368841D01*
X0322938Y0368678D01*
X0322495Y0368504D01*
X0322057Y0368319D01*
X0321623Y0368124D01*
X0321194Y0367918D01*
X0320770Y0367702D01*
X0320351Y0367476D01*
X0319938Y0367240D01*
X0319531Y0366994D01*
X0319130Y0366738D01*
X0318736Y0366472D01*
X0318347Y0366197D01*
X0317966Y0365913D01*
X0317592Y0365620D01*
X0317224Y0365318D01*
X0316864Y0365006D01*
X0316512Y0364687D01*
X0316168Y0364359D01*
X0315831Y0364022D01*
X0315503Y0363678D01*
X0315184Y0363326D01*
X0314872Y0362966D01*
X0314570Y0362598D01*
X0314277Y0362224D01*
X0313993Y0361843D01*
X0313718Y0361454D01*
X0313452Y0361060D01*
X0313196Y0360659D01*
X0312950Y0360252D01*
X0312714Y0359839D01*
X0312488Y0359420D01*
X0312272Y0358996D01*
X0312066Y0358567D01*
X0311871Y0358133D01*
X0311686Y0357695D01*
X0311512Y0357252D01*
X0311349Y0356806D01*
X0311196Y0356355D01*
X0311055Y0355901D01*
X0310924Y0355443D01*
X0310805Y0354983D01*
X0310697Y0354520D01*
X0310600Y0354054D01*
X0310514Y0353586D01*
X0310440Y0353116D01*
X0310377Y0352645D01*
X0310325Y0352172D01*
X0310285Y0351698D01*
X0310256Y0351223D01*
X0310239Y0350748D01*
X0310233Y0350272D01*
X0310233Y0330193D01*
D13*
X0600378Y0350965D02*
X0604648Y0350965D01*
X0606783Y0353101D01*
X0604648Y0355236D01*
X0600378Y0355236D01*
X0603581Y0357411D02*
X0603581Y0361681D01*
X0605716Y0363856D02*
X0606783Y0364924D01*
X0606783Y0367059D01*
X0605716Y0368127D01*
X0605716Y0370302D02*
X0606783Y0371369D01*
X0606783Y0373505D01*
X0605716Y0374572D01*
X0600378Y0374572D01*
X0600378Y0376747D02*
X0600378Y0381018D01*
X0600378Y0378882D02*
X0606783Y0378882D01*
X0605716Y0370302D02*
X0600378Y0370302D01*
X0601445Y0368127D02*
X0600378Y0367059D01*
X0600378Y0364924D01*
X0601445Y0363856D01*
X0605716Y0363856D01*
X0600378Y0093616D02*
X0600378Y0089346D01*
X0600378Y0091481D02*
X0606783Y0091481D01*
X0605716Y0087171D02*
X0600378Y0087171D01*
X0600378Y0082900D02*
X0605716Y0082900D01*
X0606783Y0083968D01*
X0606783Y0086103D01*
X0605716Y0087171D01*
X0605716Y0080725D02*
X0606783Y0079658D01*
X0606783Y0077522D01*
X0605716Y0076455D01*
X0601445Y0076455D01*
X0600378Y0077522D01*
X0600378Y0079658D01*
X0601445Y0080725D01*
X0603581Y0074280D02*
X0603581Y0070009D01*
X0604648Y0067834D02*
X0600378Y0067834D01*
X0604648Y0067834D02*
X0606783Y0065699D01*
X0604648Y0063564D01*
X0600378Y0063564D01*
X0555546Y0026662D02*
X0551276Y0026662D01*
X0553411Y0026662D02*
X0553411Y0020257D01*
X0549100Y0021324D02*
X0549100Y0026662D01*
X0544830Y0026662D02*
X0544830Y0021324D01*
X0545898Y0020257D01*
X0548033Y0020257D01*
X0549100Y0021324D01*
X0542655Y0021324D02*
X0541587Y0020257D01*
X0539452Y0020257D01*
X0538385Y0021324D01*
X0538385Y0025595D01*
X0539452Y0026662D01*
X0541587Y0026662D01*
X0542655Y0025595D01*
X0536209Y0023459D02*
X0531939Y0023459D01*
X0529764Y0022392D02*
X0529764Y0026662D01*
X0529764Y0022392D02*
X0527629Y0020257D01*
X0525494Y0022392D01*
X0525494Y0026662D01*
X0329168Y0026662D02*
X0324898Y0026662D01*
X0327033Y0026662D02*
X0327033Y0020257D01*
X0322722Y0021324D02*
X0322722Y0026662D01*
X0318452Y0026662D02*
X0318452Y0021324D01*
X0319520Y0020257D01*
X0321655Y0020257D01*
X0322722Y0021324D01*
X0316277Y0021324D02*
X0315209Y0020257D01*
X0313074Y0020257D01*
X0312007Y0021324D01*
X0312007Y0025595D01*
X0313074Y0026662D01*
X0315209Y0026662D01*
X0316277Y0025595D01*
X0309831Y0023459D02*
X0305561Y0023459D01*
X0303386Y0022392D02*
X0303386Y0026662D01*
X0303386Y0022392D02*
X0301251Y0020257D01*
X0299116Y0022392D01*
X0299116Y0026662D01*
D14*
X0314170Y0028618D02*
X0314170Y0043579D01*
X0318501Y0039248D01*
X0309839Y0039248D01*
X0314170Y0043579D01*
X0536217Y0039248D02*
X0544879Y0039248D01*
X0540548Y0043579D01*
X0540548Y0028618D01*
X0536217Y0039248D02*
X0540548Y0043579D01*
X0583461Y0078618D02*
X0587792Y0074287D01*
X0587792Y0082949D01*
X0583461Y0078618D01*
X0598422Y0078618D01*
X0587792Y0361689D02*
X0587792Y0370350D01*
X0583461Y0366020D01*
X0598422Y0366020D01*
X0587792Y0361689D02*
X0583461Y0366020D01*
D15*
X0488579Y0320744D02*
X0478343Y0320744D01*
X0478281Y0320742D01*
X0478220Y0320736D01*
X0478159Y0320727D01*
X0478098Y0320713D01*
X0478039Y0320696D01*
X0477981Y0320675D01*
X0477924Y0320650D01*
X0477869Y0320622D01*
X0477816Y0320591D01*
X0477765Y0320556D01*
X0477716Y0320518D01*
X0477669Y0320477D01*
X0477626Y0320434D01*
X0477585Y0320387D01*
X0477547Y0320338D01*
X0477512Y0320287D01*
X0477481Y0320234D01*
X0477453Y0320179D01*
X0477428Y0320122D01*
X0477407Y0320064D01*
X0477390Y0320005D01*
X0477376Y0319944D01*
X0477367Y0319883D01*
X0477361Y0319822D01*
X0477359Y0319760D01*
X0477361Y0319698D01*
X0477367Y0319637D01*
X0477376Y0319576D01*
X0477390Y0319515D01*
X0477407Y0319456D01*
X0477428Y0319398D01*
X0477453Y0319341D01*
X0477481Y0319286D01*
X0477512Y0319233D01*
X0477547Y0319182D01*
X0477585Y0319133D01*
X0477626Y0319086D01*
X0477669Y0319043D01*
X0477716Y0319002D01*
X0477765Y0318964D01*
X0477816Y0318929D01*
X0477869Y0318898D01*
X0477924Y0318870D01*
X0477981Y0318845D01*
X0478039Y0318824D01*
X0478098Y0318807D01*
X0478159Y0318793D01*
X0478220Y0318784D01*
X0478281Y0318778D01*
X0478343Y0318776D01*
X0488579Y0318776D01*
X0488641Y0318778D01*
X0488702Y0318784D01*
X0488763Y0318793D01*
X0488824Y0318807D01*
X0488883Y0318824D01*
X0488941Y0318845D01*
X0488998Y0318870D01*
X0489053Y0318898D01*
X0489106Y0318929D01*
X0489157Y0318964D01*
X0489206Y0319002D01*
X0489253Y0319043D01*
X0489296Y0319086D01*
X0489337Y0319133D01*
X0489375Y0319182D01*
X0489410Y0319233D01*
X0489441Y0319286D01*
X0489469Y0319341D01*
X0489494Y0319398D01*
X0489515Y0319456D01*
X0489532Y0319515D01*
X0489546Y0319576D01*
X0489555Y0319637D01*
X0489561Y0319698D01*
X0489563Y0319760D01*
X0489561Y0319822D01*
X0489555Y0319883D01*
X0489546Y0319944D01*
X0489532Y0320005D01*
X0489515Y0320064D01*
X0489494Y0320122D01*
X0489469Y0320179D01*
X0489441Y0320234D01*
X0489410Y0320287D01*
X0489375Y0320338D01*
X0489337Y0320387D01*
X0489296Y0320434D01*
X0489253Y0320477D01*
X0489206Y0320518D01*
X0489157Y0320556D01*
X0489106Y0320591D01*
X0489053Y0320622D01*
X0488998Y0320650D01*
X0488941Y0320675D01*
X0488883Y0320696D01*
X0488824Y0320713D01*
X0488763Y0320727D01*
X0488702Y0320736D01*
X0488641Y0320742D01*
X0488579Y0320744D01*
X0465154Y0327240D02*
X0465154Y0335902D01*
X0465155Y0335902D02*
X0465153Y0335950D01*
X0465147Y0335997D01*
X0465138Y0336043D01*
X0465125Y0336089D01*
X0465108Y0336134D01*
X0465087Y0336177D01*
X0465064Y0336218D01*
X0465036Y0336257D01*
X0465006Y0336294D01*
X0464973Y0336328D01*
X0464938Y0336360D01*
X0464900Y0336388D01*
X0464860Y0336414D01*
X0464817Y0336436D01*
X0464774Y0336455D01*
X0464728Y0336470D01*
X0464682Y0336481D01*
X0464635Y0336489D01*
X0464588Y0336493D01*
X0464540Y0336493D01*
X0464493Y0336489D01*
X0464446Y0336481D01*
X0464400Y0336470D01*
X0464354Y0336455D01*
X0464311Y0336436D01*
X0464269Y0336414D01*
X0464228Y0336388D01*
X0464190Y0336360D01*
X0464155Y0336328D01*
X0464122Y0336294D01*
X0464092Y0336257D01*
X0464064Y0336218D01*
X0464041Y0336177D01*
X0464020Y0336134D01*
X0464003Y0336089D01*
X0463990Y0336043D01*
X0463981Y0335997D01*
X0463975Y0335950D01*
X0463973Y0335902D01*
X0463973Y0327240D01*
X0463975Y0327192D01*
X0463981Y0327145D01*
X0463990Y0327099D01*
X0464003Y0327053D01*
X0464020Y0327008D01*
X0464041Y0326965D01*
X0464064Y0326924D01*
X0464092Y0326885D01*
X0464122Y0326848D01*
X0464155Y0326814D01*
X0464190Y0326782D01*
X0464228Y0326754D01*
X0464269Y0326728D01*
X0464311Y0326706D01*
X0464354Y0326687D01*
X0464400Y0326672D01*
X0464446Y0326661D01*
X0464493Y0326653D01*
X0464540Y0326649D01*
X0464588Y0326649D01*
X0464635Y0326653D01*
X0464682Y0326661D01*
X0464728Y0326672D01*
X0464774Y0326687D01*
X0464817Y0326706D01*
X0464860Y0326728D01*
X0464900Y0326754D01*
X0464938Y0326782D01*
X0464973Y0326814D01*
X0465006Y0326848D01*
X0465036Y0326885D01*
X0465064Y0326924D01*
X0465087Y0326965D01*
X0465108Y0327008D01*
X0465125Y0327053D01*
X0465138Y0327099D01*
X0465147Y0327145D01*
X0465153Y0327192D01*
X0465155Y0327240D01*
X0522260Y0301968D02*
X0522241Y0301846D01*
X0522260Y0301725D01*
X0522316Y0301615D01*
X0522403Y0301528D01*
X0522513Y0301472D01*
X0522635Y0301453D01*
X0523422Y0301453D01*
X0523544Y0301472D01*
X0523653Y0301528D01*
X0523740Y0301615D01*
X0523796Y0301725D01*
X0523816Y0301846D01*
X0523796Y0301968D01*
X0523740Y0302078D01*
X0523653Y0302165D01*
X0523544Y0302221D01*
X0523422Y0302240D01*
X0522635Y0302240D01*
X0522513Y0302221D01*
X0522403Y0302165D01*
X0522316Y0302078D01*
X0522260Y0301968D01*
X0522635Y0284917D02*
X0523422Y0284917D01*
X0523544Y0284898D01*
X0523653Y0284842D01*
X0523740Y0284755D01*
X0523796Y0284645D01*
X0523816Y0284524D01*
X0523796Y0284402D01*
X0523740Y0284292D01*
X0523653Y0284205D01*
X0523544Y0284149D01*
X0523422Y0284130D01*
X0522635Y0284130D01*
X0522513Y0284149D01*
X0522403Y0284205D01*
X0522316Y0284292D01*
X0522260Y0284402D01*
X0522241Y0284524D01*
X0522260Y0284645D01*
X0522316Y0284755D01*
X0522403Y0284842D01*
X0522513Y0284898D01*
X0522635Y0284917D01*
X0522635Y0254996D02*
X0523422Y0254996D01*
X0523544Y0254977D01*
X0523653Y0254921D01*
X0523740Y0254834D01*
X0523796Y0254724D01*
X0523816Y0254602D01*
X0523796Y0254481D01*
X0523740Y0254371D01*
X0523653Y0254284D01*
X0523544Y0254228D01*
X0523422Y0254209D01*
X0522635Y0254209D01*
X0522513Y0254228D01*
X0522403Y0254284D01*
X0522316Y0254371D01*
X0522260Y0254481D01*
X0522241Y0254602D01*
X0522260Y0254724D01*
X0522316Y0254834D01*
X0522403Y0254921D01*
X0522513Y0254977D01*
X0522635Y0254996D01*
X0522635Y0237673D02*
X0523422Y0237673D01*
X0523544Y0237654D01*
X0523653Y0237598D01*
X0523740Y0237511D01*
X0523796Y0237401D01*
X0523816Y0237280D01*
X0523796Y0237158D01*
X0523740Y0237048D01*
X0523653Y0236961D01*
X0523544Y0236905D01*
X0523422Y0236886D01*
X0522635Y0236886D01*
X0522513Y0236905D01*
X0522403Y0236961D01*
X0522316Y0237048D01*
X0522260Y0237158D01*
X0522241Y0237280D01*
X0522260Y0237401D01*
X0522316Y0237511D01*
X0522403Y0237598D01*
X0522513Y0237654D01*
X0522635Y0237673D01*
X0522635Y0207752D02*
X0523422Y0207752D01*
X0523544Y0207733D01*
X0523653Y0207677D01*
X0523740Y0207590D01*
X0523796Y0207480D01*
X0523816Y0207358D01*
X0523796Y0207237D01*
X0523740Y0207127D01*
X0523653Y0207040D01*
X0523544Y0206984D01*
X0523422Y0206965D01*
X0522635Y0206965D01*
X0522513Y0206984D01*
X0522403Y0207040D01*
X0522316Y0207127D01*
X0522260Y0207237D01*
X0522241Y0207358D01*
X0522260Y0207480D01*
X0522316Y0207590D01*
X0522403Y0207677D01*
X0522513Y0207733D01*
X0522635Y0207752D01*
X0522635Y0190429D02*
X0523422Y0190429D01*
X0523544Y0190410D01*
X0523653Y0190354D01*
X0523740Y0190267D01*
X0523796Y0190157D01*
X0523816Y0190035D01*
X0523796Y0189914D01*
X0523740Y0189804D01*
X0523653Y0189717D01*
X0523544Y0189661D01*
X0523422Y0189642D01*
X0522635Y0189642D01*
X0522513Y0189661D01*
X0522403Y0189717D01*
X0522316Y0189804D01*
X0522260Y0189914D01*
X0522241Y0190035D01*
X0522260Y0190157D01*
X0522316Y0190267D01*
X0522403Y0190354D01*
X0522513Y0190410D01*
X0522635Y0190429D01*
X0522635Y0160508D02*
X0523422Y0160508D01*
X0523544Y0160489D01*
X0523653Y0160433D01*
X0523740Y0160346D01*
X0523796Y0160236D01*
X0523816Y0160114D01*
X0523796Y0159993D01*
X0523740Y0159883D01*
X0523653Y0159796D01*
X0523544Y0159740D01*
X0523422Y0159720D01*
X0522635Y0159720D01*
X0522513Y0159740D01*
X0522403Y0159796D01*
X0522316Y0159883D01*
X0522260Y0159993D01*
X0522241Y0160114D01*
X0522260Y0160236D01*
X0522316Y0160346D01*
X0522403Y0160433D01*
X0522513Y0160489D01*
X0522635Y0160508D01*
X0522635Y0143185D02*
X0523422Y0143185D01*
X0523544Y0143166D01*
X0523653Y0143110D01*
X0523740Y0143023D01*
X0523796Y0142913D01*
X0523816Y0142791D01*
X0523796Y0142670D01*
X0523740Y0142560D01*
X0523653Y0142473D01*
X0523544Y0142417D01*
X0523422Y0142398D01*
X0522635Y0142398D01*
X0522513Y0142417D01*
X0522403Y0142473D01*
X0522316Y0142560D01*
X0522260Y0142670D01*
X0522241Y0142791D01*
X0522260Y0142913D01*
X0522316Y0143023D01*
X0522403Y0143110D01*
X0522513Y0143166D01*
X0522635Y0143185D01*
D16*
X0533068Y0134917D02*
X0536611Y0134917D01*
X0536611Y0167988D02*
X0533068Y0167988D01*
X0533068Y0182161D02*
X0536611Y0182161D01*
X0536611Y0215232D02*
X0533068Y0215232D01*
X0533068Y0229406D02*
X0536611Y0229406D01*
X0536611Y0262476D02*
X0533068Y0262476D01*
X0533068Y0276650D02*
X0536611Y0276650D01*
X0536611Y0309720D02*
X0533068Y0309720D01*
X0327556Y0318382D02*
X0321650Y0318382D01*
X0321650Y0267988D02*
X0327556Y0267988D01*
X0327556Y0247516D02*
X0321650Y0247516D01*
X0321650Y0197122D02*
X0327556Y0197122D01*
X0327556Y0176650D02*
X0321650Y0176650D01*
X0321650Y0126256D02*
X0327556Y0126256D01*
M02*
