G75*
%MOIN*%
%OFA0B0*%
%FSLAX25Y25*%
%IPPOS*%
%LPD*%
%AMOC8*
5,1,8,0,0,1.08239X$1,22.5*
%
%ADD10C,0.01575*%
%ADD11C,0.00787*%
%ADD12R,0.00787X0.00787*%
%ADD13C,0.03150*%
%ADD14C,0.01181*%
%ADD15R,0.05906X0.06693*%
%ADD16R,0.05906X0.05512*%
%ADD17R,0.01181X0.03543*%
%ADD18R,0.01181X0.01181*%
%ADD19R,0.03937X0.03937*%
%ADD20R,0.03150X0.03150*%
%ADD21R,0.03150X0.03937*%
%ADD22R,0.06299X0.14173*%
%ADD23R,0.07874X0.03937*%
%ADD24R,0.04724X0.11811*%
%ADD25R,0.11811X0.04724*%
D10*
X0121459Y0108539D02*
X0122247Y0108539D01*
X0122247Y0109327D01*
X0121459Y0109327D01*
X0121459Y0108539D01*
X0121459Y0113264D02*
X0122247Y0113264D01*
X0122247Y0114051D01*
X0121459Y0114051D01*
X0121459Y0113264D01*
X0125790Y0113264D02*
X0125790Y0114051D01*
X0126577Y0114051D01*
X0126577Y0113264D01*
X0125790Y0113264D01*
X0125790Y0117988D02*
X0125790Y0118776D01*
X0126577Y0118776D01*
X0126577Y0117988D01*
X0125790Y0117988D01*
X0122247Y0117988D02*
X0122247Y0118776D01*
X0121459Y0118776D01*
X0121459Y0117988D01*
X0122247Y0117988D01*
X0122247Y0122713D02*
X0121459Y0122713D01*
X0121459Y0123500D01*
X0122247Y0123500D01*
X0122247Y0122713D01*
X0119097Y0128421D02*
X0118703Y0128421D01*
X0118703Y0131177D01*
X0119097Y0131177D01*
X0119097Y0128421D01*
X0115357Y0128421D02*
X0115357Y0131177D01*
X0114963Y0131177D01*
X0114963Y0128421D01*
X0115357Y0128421D01*
X0111617Y0128421D02*
X0111617Y0131177D01*
X0111223Y0131177D01*
X0111223Y0128421D01*
X0111617Y0128421D01*
X0106302Y0128028D02*
X0106302Y0131571D01*
X0102759Y0131571D01*
X0102759Y0128028D01*
X0106302Y0128028D01*
X0098822Y0128028D02*
X0095278Y0128028D01*
X0095278Y0131571D01*
X0098822Y0131571D01*
X0098822Y0128028D01*
X0098822Y0137476D02*
X0095278Y0137476D01*
X0095278Y0141020D01*
X0098822Y0141020D01*
X0098822Y0137476D01*
X0102759Y0137476D02*
X0102759Y0141020D01*
X0106302Y0141020D01*
X0106302Y0137476D01*
X0102759Y0137476D01*
X0111223Y0141020D02*
X0111223Y0143776D01*
X0111617Y0143776D01*
X0111617Y0141020D01*
X0111223Y0141020D01*
X0112601Y0147319D02*
X0112601Y0150862D01*
X0109058Y0150862D01*
X0109058Y0147319D01*
X0112601Y0147319D01*
X0117719Y0147713D02*
X0123625Y0147713D01*
X0123625Y0161492D01*
X0117719Y0161492D01*
X0117719Y0147713D01*
X0118703Y0143776D02*
X0118703Y0141020D01*
X0119097Y0141020D01*
X0119097Y0143776D01*
X0118703Y0143776D01*
X0103152Y0147319D02*
X0103152Y0150862D01*
X0099609Y0150862D01*
X0099609Y0147319D01*
X0103152Y0147319D01*
X0130514Y0118776D02*
X0131302Y0118776D01*
X0131302Y0117988D01*
X0130514Y0117988D01*
X0130514Y0118776D01*
X0130514Y0114051D02*
X0131302Y0114051D01*
X0131302Y0113264D01*
X0130514Y0113264D01*
X0130514Y0114051D01*
X0142916Y0143776D02*
X0150396Y0143776D01*
X0150396Y0147319D01*
X0142916Y0147319D01*
X0142916Y0143776D01*
X0142916Y0152831D02*
X0150396Y0152831D01*
X0150396Y0156374D01*
X0142916Y0156374D01*
X0142916Y0152831D01*
X0142916Y0161886D02*
X0150396Y0161886D01*
X0150396Y0165429D01*
X0142916Y0165429D01*
X0142916Y0161886D01*
X0154333Y0161886D02*
X0154333Y0165429D01*
X0157877Y0165429D01*
X0157877Y0161886D01*
X0154333Y0161886D01*
X0154333Y0155980D02*
X0157877Y0155980D01*
X0157877Y0152437D01*
X0154333Y0152437D01*
X0154333Y0155980D01*
X0179727Y0164445D02*
X0179727Y0165232D01*
X0180514Y0165232D01*
X0180514Y0164445D01*
X0179727Y0164445D01*
X0184451Y0164445D02*
X0184451Y0165232D01*
X0185239Y0165232D01*
X0185239Y0164445D01*
X0184451Y0164445D01*
X0185239Y0168579D02*
X0185239Y0172516D01*
X0188388Y0172516D02*
X0188388Y0168579D01*
X0191538Y0168579D02*
X0191538Y0172516D01*
X0194688Y0172516D02*
X0194688Y0168579D01*
X0197837Y0168579D02*
X0197837Y0172516D01*
X0200987Y0172516D02*
X0200987Y0168579D01*
X0204136Y0168579D02*
X0204136Y0172516D01*
X0207286Y0172516D02*
X0207286Y0168579D01*
X0206892Y0164839D02*
X0207680Y0164839D01*
X0207680Y0164051D01*
X0206892Y0164051D01*
X0206892Y0164839D01*
X0211617Y0164839D02*
X0212404Y0164839D01*
X0212404Y0164051D01*
X0211617Y0164051D01*
X0211617Y0164839D01*
X0211617Y0160114D02*
X0212404Y0160114D01*
X0212404Y0159327D01*
X0211617Y0159327D01*
X0211617Y0160114D01*
X0207680Y0160114D02*
X0207680Y0159327D01*
X0206892Y0159327D01*
X0206892Y0160114D01*
X0207680Y0160114D01*
X0202168Y0154209D02*
X0199412Y0154209D01*
X0199412Y0150665D01*
X0202168Y0150665D01*
X0202168Y0154209D01*
X0195475Y0154209D02*
X0192719Y0154209D01*
X0192719Y0150665D01*
X0195475Y0150665D01*
X0195475Y0154209D01*
X0189176Y0150665D02*
X0189176Y0149878D01*
X0188388Y0149878D01*
X0188388Y0150665D01*
X0189176Y0150665D01*
X0189176Y0145941D02*
X0188388Y0145941D01*
X0188388Y0145154D01*
X0189176Y0145154D01*
X0189176Y0145941D01*
X0192719Y0145154D02*
X0192719Y0141610D01*
X0195475Y0141610D01*
X0195475Y0145154D01*
X0192719Y0145154D01*
X0199412Y0145154D02*
X0199412Y0141610D01*
X0202168Y0141610D01*
X0202168Y0145154D01*
X0199412Y0145154D01*
X0199412Y0137280D02*
X0200199Y0137280D01*
X0200199Y0136492D01*
X0199412Y0136492D01*
X0199412Y0137280D01*
X0195475Y0137280D02*
X0195475Y0136492D01*
X0194688Y0136492D01*
X0194688Y0137280D01*
X0195475Y0137280D01*
X0213979Y0134130D02*
X0214766Y0134130D01*
X0214766Y0133343D01*
X0213979Y0133343D01*
X0213979Y0134130D01*
X0213979Y0129406D02*
X0214766Y0129406D01*
X0214766Y0128618D01*
X0213979Y0128618D01*
X0213979Y0129406D01*
X0220278Y0129406D02*
X0221066Y0129406D01*
X0221066Y0128618D01*
X0220278Y0128618D01*
X0220278Y0129406D01*
X0225003Y0129406D02*
X0225790Y0129406D01*
X0225790Y0128618D01*
X0225003Y0128618D01*
X0225003Y0129406D01*
X0247640Y0105587D02*
X0250396Y0105587D01*
X0250396Y0102831D01*
X0247640Y0102831D01*
X0247640Y0105587D01*
X0248625Y0099091D02*
X0249412Y0099091D01*
X0249412Y0098303D01*
X0248625Y0098303D01*
X0248625Y0099091D01*
X0244688Y0099091D02*
X0244688Y0098303D01*
X0243900Y0098303D01*
X0243900Y0099091D01*
X0244688Y0099091D01*
X0247640Y0093776D02*
X0250396Y0093776D01*
X0250396Y0091020D01*
X0247640Y0091020D01*
X0247640Y0093776D01*
X0248625Y0087280D02*
X0249412Y0087280D01*
X0249412Y0086492D01*
X0248625Y0086492D01*
X0248625Y0087280D01*
X0244688Y0087280D02*
X0244688Y0086492D01*
X0243900Y0086492D01*
X0243900Y0087280D01*
X0244688Y0087280D01*
X0247640Y0081965D02*
X0250396Y0081965D01*
X0250396Y0079209D01*
X0247640Y0079209D01*
X0247640Y0081965D01*
X0248625Y0075469D02*
X0249412Y0075469D01*
X0249412Y0074681D01*
X0248625Y0074681D01*
X0248625Y0075469D01*
X0244688Y0075469D02*
X0244688Y0074681D01*
X0243900Y0074681D01*
X0243900Y0075469D01*
X0244688Y0075469D01*
X0247640Y0070154D02*
X0250396Y0070154D01*
X0250396Y0067398D01*
X0247640Y0067398D01*
X0247640Y0070154D01*
X0248625Y0063657D02*
X0249412Y0063657D01*
X0249412Y0062870D01*
X0248625Y0062870D01*
X0248625Y0063657D01*
X0244688Y0063657D02*
X0244688Y0062870D01*
X0243900Y0062870D01*
X0243900Y0063657D01*
X0244688Y0063657D01*
X0256302Y0067398D02*
X0256302Y0070154D01*
X0259058Y0070154D01*
X0259058Y0067398D01*
X0256302Y0067398D01*
X0256302Y0079209D02*
X0256302Y0081965D01*
X0259058Y0081965D01*
X0259058Y0079209D01*
X0256302Y0079209D01*
X0256302Y0091020D02*
X0256302Y0093776D01*
X0259058Y0093776D01*
X0259058Y0091020D01*
X0256302Y0091020D01*
X0256302Y0102831D02*
X0256302Y0105587D01*
X0259058Y0105587D01*
X0259058Y0102831D01*
X0256302Y0102831D01*
X0255318Y0137280D02*
X0254530Y0137280D01*
X0254530Y0138067D01*
X0255318Y0138067D01*
X0255318Y0137280D01*
X0250593Y0137280D02*
X0249806Y0137280D01*
X0249806Y0138067D01*
X0250593Y0138067D01*
X0250593Y0137280D01*
X0257286Y0145941D02*
X0257286Y0146728D01*
X0258073Y0146728D01*
X0258073Y0145941D01*
X0257286Y0145941D01*
X0262010Y0145941D02*
X0262010Y0146728D01*
X0262798Y0146728D01*
X0262798Y0145941D01*
X0262010Y0145941D01*
X0262010Y0151453D02*
X0262010Y0152240D01*
X0262798Y0152240D01*
X0262798Y0151453D01*
X0262010Y0151453D01*
X0258073Y0151453D02*
X0257286Y0151453D01*
X0257286Y0152240D01*
X0258073Y0152240D01*
X0258073Y0151453D01*
X0258073Y0156965D02*
X0257286Y0156965D01*
X0257286Y0157752D01*
X0258073Y0157752D01*
X0258073Y0156965D01*
X0262010Y0156965D02*
X0262010Y0157752D01*
X0262798Y0157752D01*
X0262798Y0156965D01*
X0262010Y0156965D01*
X0262010Y0162476D02*
X0262010Y0163264D01*
X0262798Y0163264D01*
X0262798Y0162476D01*
X0262010Y0162476D01*
X0258073Y0162476D02*
X0258073Y0163264D01*
X0257286Y0163264D01*
X0257286Y0162476D01*
X0258073Y0162476D01*
X0243113Y0164051D02*
X0243113Y0164839D01*
X0242325Y0164839D01*
X0242325Y0164051D01*
X0243113Y0164051D01*
X0238388Y0164051D02*
X0238388Y0164839D01*
X0237601Y0164839D01*
X0237601Y0164051D01*
X0238388Y0164051D01*
X0242719Y0174681D02*
X0242719Y0175469D01*
X0243507Y0175469D01*
X0243507Y0174681D01*
X0242719Y0174681D01*
X0242719Y0179406D02*
X0242719Y0180193D01*
X0243507Y0180193D01*
X0243507Y0179406D01*
X0242719Y0179406D01*
X0227365Y0174287D02*
X0227365Y0173500D01*
X0226577Y0173500D01*
X0226577Y0174287D01*
X0227365Y0174287D01*
X0222640Y0174287D02*
X0222640Y0173500D01*
X0221853Y0173500D01*
X0221853Y0174287D01*
X0222640Y0174287D01*
X0214570Y0175862D02*
X0210633Y0175862D01*
X0210633Y0179012D02*
X0214570Y0179012D01*
X0214570Y0182161D02*
X0210633Y0182161D01*
X0210633Y0185311D02*
X0214570Y0185311D01*
X0214570Y0188461D02*
X0210633Y0188461D01*
X0210633Y0191610D02*
X0214570Y0191610D01*
X0214570Y0194760D02*
X0210633Y0194760D01*
X0210633Y0197909D02*
X0214570Y0197909D01*
X0218703Y0197516D02*
X0218703Y0198303D01*
X0219491Y0198303D01*
X0219491Y0197516D01*
X0218703Y0197516D01*
X0218703Y0193579D02*
X0219491Y0193579D01*
X0219491Y0192791D01*
X0218703Y0192791D01*
X0218703Y0193579D01*
X0223428Y0193579D02*
X0224215Y0193579D01*
X0224215Y0192791D01*
X0223428Y0192791D01*
X0223428Y0193579D01*
X0223428Y0197516D02*
X0223428Y0198303D01*
X0224215Y0198303D01*
X0224215Y0197516D01*
X0223428Y0197516D01*
X0221066Y0188854D02*
X0221066Y0188067D01*
X0220278Y0188067D01*
X0220278Y0188854D01*
X0221066Y0188854D01*
X0221066Y0184130D02*
X0221066Y0183343D01*
X0220278Y0183343D01*
X0220278Y0184130D01*
X0221066Y0184130D01*
X0207286Y0201256D02*
X0207286Y0205193D01*
X0204136Y0205193D02*
X0204136Y0201256D01*
X0200987Y0201256D02*
X0200987Y0205193D01*
X0197837Y0205193D02*
X0197837Y0201256D01*
X0194688Y0201256D02*
X0194688Y0205193D01*
X0191538Y0205193D02*
X0191538Y0201256D01*
X0188388Y0201256D02*
X0188388Y0205193D01*
X0185239Y0205193D02*
X0185239Y0201256D01*
X0181892Y0197909D02*
X0177955Y0197909D01*
X0177955Y0194760D02*
X0181892Y0194760D01*
X0181892Y0191610D02*
X0177955Y0191610D01*
X0177955Y0188461D02*
X0181892Y0188461D01*
X0181892Y0185311D02*
X0177955Y0185311D01*
X0177955Y0182161D02*
X0181892Y0182161D01*
X0181892Y0179012D02*
X0177955Y0179012D01*
X0177955Y0175862D02*
X0181892Y0175862D01*
X0188782Y0165232D02*
X0189570Y0165232D01*
X0189570Y0164445D01*
X0188782Y0164445D01*
X0188782Y0165232D01*
X0188782Y0160508D02*
X0189570Y0160508D01*
X0189570Y0159720D01*
X0188782Y0159720D01*
X0188782Y0160508D01*
X0150396Y0215035D02*
X0142916Y0215035D01*
X0142916Y0218579D01*
X0150396Y0218579D01*
X0150396Y0215035D01*
X0154333Y0223697D02*
X0154333Y0227240D01*
X0157877Y0227240D01*
X0157877Y0223697D01*
X0154333Y0223697D01*
X0150396Y0224091D02*
X0142916Y0224091D01*
X0142916Y0227634D01*
X0150396Y0227634D01*
X0150396Y0224091D01*
X0150396Y0233146D02*
X0142916Y0233146D01*
X0142916Y0236689D01*
X0150396Y0236689D01*
X0150396Y0233146D01*
X0154333Y0233146D02*
X0154333Y0236689D01*
X0157877Y0236689D01*
X0157877Y0233146D01*
X0154333Y0233146D01*
X0131302Y0254996D02*
X0131302Y0255783D01*
X0130514Y0255783D01*
X0130514Y0254996D01*
X0131302Y0254996D01*
X0131302Y0259720D02*
X0131302Y0260508D01*
X0130514Y0260508D01*
X0130514Y0259720D01*
X0131302Y0259720D01*
X0126577Y0259720D02*
X0126577Y0260508D01*
X0125790Y0260508D01*
X0125790Y0259720D01*
X0126577Y0259720D01*
X0126577Y0255783D02*
X0126577Y0254996D01*
X0125790Y0254996D01*
X0125790Y0255783D01*
X0126577Y0255783D01*
X0122247Y0255783D02*
X0122247Y0254996D01*
X0121459Y0254996D01*
X0121459Y0255783D01*
X0122247Y0255783D01*
X0122247Y0259720D02*
X0121459Y0259720D01*
X0121459Y0260508D01*
X0122247Y0260508D01*
X0122247Y0259720D01*
X0122247Y0264445D02*
X0121459Y0264445D01*
X0121459Y0265232D01*
X0122247Y0265232D01*
X0122247Y0264445D01*
X0119097Y0270154D02*
X0118703Y0270154D01*
X0118703Y0272909D01*
X0119097Y0272909D01*
X0119097Y0270154D01*
X0115357Y0270154D02*
X0115357Y0272909D01*
X0114963Y0272909D01*
X0114963Y0270154D01*
X0115357Y0270154D01*
X0111617Y0270154D02*
X0111617Y0272909D01*
X0111223Y0272909D01*
X0111223Y0270154D01*
X0111617Y0270154D01*
X0106302Y0269760D02*
X0106302Y0273303D01*
X0102759Y0273303D01*
X0102759Y0269760D01*
X0106302Y0269760D01*
X0098822Y0269760D02*
X0095278Y0269760D01*
X0095278Y0273303D01*
X0098822Y0273303D01*
X0098822Y0269760D01*
X0098822Y0279209D02*
X0095278Y0279209D01*
X0095278Y0282752D01*
X0098822Y0282752D01*
X0098822Y0279209D01*
X0102759Y0279209D02*
X0102759Y0282752D01*
X0106302Y0282752D01*
X0106302Y0279209D01*
X0102759Y0279209D01*
X0111223Y0282752D02*
X0111223Y0285508D01*
X0111617Y0285508D01*
X0111617Y0282752D01*
X0111223Y0282752D01*
X0112601Y0289051D02*
X0112601Y0292594D01*
X0109058Y0292594D01*
X0109058Y0289051D01*
X0112601Y0289051D01*
X0117719Y0289839D02*
X0123625Y0289839D01*
X0123625Y0303618D01*
X0117719Y0303618D01*
X0117719Y0289839D01*
X0118703Y0285508D02*
X0118703Y0282752D01*
X0119097Y0282752D01*
X0119097Y0285508D01*
X0118703Y0285508D01*
X0103152Y0289051D02*
X0103152Y0292594D01*
X0099609Y0292594D01*
X0099609Y0289051D01*
X0103152Y0289051D01*
X0108664Y0313854D02*
X0095672Y0313854D01*
X0095672Y0319760D01*
X0108664Y0319760D01*
X0108664Y0313854D01*
X0142916Y0307555D02*
X0142916Y0304012D01*
X0150396Y0304012D01*
X0150396Y0307555D01*
X0142916Y0307555D01*
X0142916Y0298500D02*
X0150396Y0298500D01*
X0150396Y0294957D01*
X0142916Y0294957D01*
X0142916Y0298500D01*
X0142916Y0289445D02*
X0150396Y0289445D01*
X0150396Y0285902D01*
X0142916Y0285902D01*
X0142916Y0289445D01*
X0154333Y0294957D02*
X0154333Y0298500D01*
X0157877Y0298500D01*
X0157877Y0294957D01*
X0154333Y0294957D01*
X0154333Y0304406D02*
X0154333Y0307949D01*
X0157877Y0307949D01*
X0157877Y0304406D01*
X0154333Y0304406D01*
X0122247Y0251059D02*
X0122247Y0250272D01*
X0121459Y0250272D01*
X0121459Y0251059D01*
X0122247Y0251059D01*
X0123625Y0232752D02*
X0117719Y0232752D01*
X0117719Y0218972D01*
X0123625Y0218972D01*
X0123625Y0232752D01*
X0112601Y0221728D02*
X0112601Y0218185D01*
X0109058Y0218185D01*
X0109058Y0221728D01*
X0112601Y0221728D01*
X0111617Y0214642D02*
X0111617Y0211886D01*
X0111223Y0211886D01*
X0111223Y0214642D01*
X0111617Y0214642D01*
X0106302Y0211886D02*
X0106302Y0208343D01*
X0102759Y0208343D01*
X0102759Y0211886D01*
X0106302Y0211886D01*
X0103152Y0218185D02*
X0103152Y0221728D01*
X0099609Y0221728D01*
X0099609Y0218185D01*
X0103152Y0218185D01*
X0098822Y0211886D02*
X0098822Y0208343D01*
X0095278Y0208343D01*
X0095278Y0211886D01*
X0098822Y0211886D01*
X0098822Y0202437D02*
X0095278Y0202437D01*
X0095278Y0198894D01*
X0098822Y0198894D01*
X0098822Y0202437D01*
X0102759Y0202437D02*
X0102759Y0198894D01*
X0106302Y0198894D01*
X0106302Y0202437D01*
X0102759Y0202437D01*
X0111223Y0202043D02*
X0111223Y0199287D01*
X0111617Y0199287D01*
X0111617Y0202043D01*
X0111223Y0202043D01*
X0114963Y0202043D02*
X0114963Y0199287D01*
X0115357Y0199287D01*
X0115357Y0202043D01*
X0114963Y0202043D01*
X0118703Y0202043D02*
X0118703Y0199287D01*
X0119097Y0199287D01*
X0119097Y0202043D01*
X0118703Y0202043D01*
X0121459Y0194366D02*
X0122247Y0194366D01*
X0122247Y0193579D01*
X0121459Y0193579D01*
X0121459Y0194366D01*
X0121459Y0189642D02*
X0122247Y0189642D01*
X0122247Y0188854D01*
X0121459Y0188854D01*
X0121459Y0189642D01*
X0125790Y0189642D02*
X0126577Y0189642D01*
X0126577Y0188854D01*
X0125790Y0188854D01*
X0125790Y0189642D01*
X0130514Y0189642D02*
X0131302Y0189642D01*
X0131302Y0188854D01*
X0130514Y0188854D01*
X0130514Y0189642D01*
X0130514Y0184917D02*
X0131302Y0184917D01*
X0131302Y0184130D01*
X0130514Y0184130D01*
X0130514Y0184917D01*
X0126577Y0184917D02*
X0126577Y0184130D01*
X0125790Y0184130D01*
X0125790Y0184917D01*
X0126577Y0184917D01*
X0122247Y0184917D02*
X0122247Y0184130D01*
X0121459Y0184130D01*
X0121459Y0184917D01*
X0122247Y0184917D01*
X0122247Y0180193D02*
X0122247Y0179406D01*
X0121459Y0179406D01*
X0121459Y0180193D01*
X0122247Y0180193D01*
X0119097Y0211886D02*
X0118703Y0211886D01*
X0118703Y0214642D01*
X0119097Y0214642D01*
X0119097Y0211886D01*
X0224018Y0239051D02*
X0229924Y0239051D01*
X0229924Y0252831D01*
X0224018Y0252831D01*
X0224018Y0239051D01*
X0249215Y0238657D02*
X0249215Y0235114D01*
X0256696Y0235114D01*
X0256696Y0238657D01*
X0249215Y0238657D01*
X0249215Y0244169D02*
X0256696Y0244169D01*
X0256696Y0247713D01*
X0249215Y0247713D01*
X0249215Y0244169D01*
X0249215Y0253224D02*
X0256696Y0253224D01*
X0256696Y0256768D01*
X0249215Y0256768D01*
X0249215Y0253224D01*
X0253546Y0260311D02*
X0253546Y0263854D01*
X0257089Y0263854D01*
X0257089Y0260311D01*
X0253546Y0260311D01*
X0262995Y0260311D02*
X0262995Y0263854D01*
X0266538Y0263854D01*
X0266538Y0260311D01*
X0262995Y0260311D01*
X0304136Y0259327D02*
X0304924Y0259327D01*
X0304924Y0258539D01*
X0304136Y0258539D01*
X0304136Y0259327D01*
X0304136Y0254602D02*
X0304924Y0254602D01*
X0304924Y0253815D01*
X0304136Y0253815D01*
X0304136Y0254602D01*
X0308861Y0254602D02*
X0309648Y0254602D01*
X0309648Y0253815D01*
X0308861Y0253815D01*
X0308861Y0254602D01*
X0308861Y0258539D02*
X0308861Y0259327D01*
X0309648Y0259327D01*
X0309648Y0258539D01*
X0308861Y0258539D01*
X0329924Y0259720D02*
X0329924Y0264839D01*
X0335436Y0264839D01*
X0335436Y0259720D01*
X0329924Y0259720D01*
X0329924Y0255783D02*
X0335436Y0255783D01*
X0335436Y0250665D01*
X0329924Y0250665D01*
X0329924Y0255783D01*
X0329924Y0246531D02*
X0335436Y0246531D01*
X0335436Y0240232D01*
X0329924Y0240232D01*
X0329924Y0246531D01*
X0329924Y0228028D02*
X0335436Y0228028D01*
X0335436Y0221728D01*
X0329924Y0221728D01*
X0329924Y0228028D01*
X0329924Y0217594D02*
X0335436Y0217594D01*
X0335436Y0212476D01*
X0329924Y0212476D01*
X0329924Y0217594D01*
X0329924Y0208539D02*
X0335436Y0208539D01*
X0335436Y0203421D01*
X0329924Y0203421D01*
X0329924Y0208539D01*
X0329924Y0199287D02*
X0335436Y0199287D01*
X0335436Y0192988D01*
X0329924Y0192988D01*
X0329924Y0199287D01*
X0329924Y0180783D02*
X0335436Y0180783D01*
X0335436Y0174484D01*
X0329924Y0174484D01*
X0329924Y0180783D01*
X0329924Y0170350D02*
X0335436Y0170350D01*
X0335436Y0165232D01*
X0329924Y0165232D01*
X0329924Y0170350D01*
X0329924Y0161295D02*
X0335436Y0161295D01*
X0335436Y0156177D01*
X0329924Y0156177D01*
X0329924Y0161295D01*
X0329924Y0152043D02*
X0335436Y0152043D01*
X0335436Y0145744D01*
X0329924Y0145744D01*
X0329924Y0152043D01*
X0329924Y0133539D02*
X0335436Y0133539D01*
X0335436Y0127240D01*
X0329924Y0127240D01*
X0329924Y0133539D01*
X0329924Y0123106D02*
X0335436Y0123106D01*
X0335436Y0117988D01*
X0329924Y0117988D01*
X0329924Y0123106D01*
X0329924Y0114051D02*
X0335436Y0114051D01*
X0335436Y0108933D01*
X0329924Y0108933D01*
X0329924Y0114051D01*
X0329924Y0104799D02*
X0335436Y0104799D01*
X0335436Y0098500D01*
X0329924Y0098500D01*
X0329924Y0104799D01*
X0327562Y0091020D02*
X0333467Y0091020D01*
X0333467Y0078028D01*
X0327562Y0078028D01*
X0327562Y0091020D01*
X0309648Y0112083D02*
X0309648Y0112870D01*
X0308861Y0112870D01*
X0308861Y0112083D01*
X0309648Y0112083D01*
X0309648Y0116807D02*
X0309648Y0117594D01*
X0308861Y0117594D01*
X0308861Y0116807D01*
X0309648Y0116807D01*
X0304924Y0116807D02*
X0304924Y0117594D01*
X0304136Y0117594D01*
X0304136Y0116807D01*
X0304924Y0116807D01*
X0304924Y0112870D02*
X0304924Y0112083D01*
X0304136Y0112083D01*
X0304136Y0112870D01*
X0304924Y0112870D01*
X0304924Y0159327D02*
X0304924Y0160114D01*
X0304136Y0160114D01*
X0304136Y0159327D01*
X0304924Y0159327D01*
X0308861Y0159327D02*
X0308861Y0160114D01*
X0309648Y0160114D01*
X0309648Y0159327D01*
X0308861Y0159327D01*
X0308861Y0164051D02*
X0308861Y0164839D01*
X0309648Y0164839D01*
X0309648Y0164051D01*
X0308861Y0164051D01*
X0304924Y0164051D02*
X0304924Y0164839D01*
X0304136Y0164839D01*
X0304136Y0164051D01*
X0304924Y0164051D01*
X0304924Y0206571D02*
X0304924Y0207358D01*
X0304136Y0207358D01*
X0304136Y0206571D01*
X0304924Y0206571D01*
X0308861Y0206571D02*
X0308861Y0207358D01*
X0309648Y0207358D01*
X0309648Y0206571D01*
X0308861Y0206571D01*
X0308861Y0211295D02*
X0308861Y0212083D01*
X0309648Y0212083D01*
X0309648Y0211295D01*
X0308861Y0211295D01*
X0304924Y0211295D02*
X0304924Y0212083D01*
X0304136Y0212083D01*
X0304136Y0211295D01*
X0304924Y0211295D01*
X0329924Y0268972D02*
X0335436Y0268972D01*
X0335436Y0275272D01*
X0329924Y0275272D01*
X0329924Y0268972D01*
X0195869Y0097909D02*
X0195869Y0097122D01*
X0195081Y0097122D01*
X0195081Y0097909D01*
X0195869Y0097909D01*
X0195869Y0093185D02*
X0195869Y0092398D01*
X0195081Y0092398D01*
X0195081Y0093185D01*
X0195869Y0093185D01*
X0186026Y0093185D02*
X0186026Y0092398D01*
X0185239Y0092398D01*
X0185239Y0093185D01*
X0186026Y0093185D01*
X0186026Y0097122D02*
X0185239Y0097122D01*
X0185239Y0097909D01*
X0186026Y0097909D01*
X0186026Y0097122D01*
D11*
X0248822Y0179996D02*
X0248822Y0181965D01*
X0250790Y0181965D02*
X0250790Y0179996D01*
X0252759Y0179996D02*
X0252759Y0181965D01*
X0254727Y0181965D02*
X0254727Y0179996D01*
X0256696Y0183933D02*
X0258664Y0183933D01*
X0258664Y0185902D02*
X0256696Y0185902D01*
X0256696Y0187870D02*
X0258664Y0187870D01*
X0258664Y0189839D02*
X0256696Y0189839D01*
X0254136Y0189248D02*
X0254136Y0188461D01*
X0253349Y0188461D01*
X0253349Y0189248D01*
X0254136Y0189248D01*
X0254727Y0191807D02*
X0254727Y0193776D01*
X0252759Y0193776D02*
X0252759Y0191807D01*
X0250790Y0191807D02*
X0250790Y0193776D01*
X0248822Y0193776D02*
X0248822Y0191807D01*
X0249412Y0189248D02*
X0249412Y0188461D01*
X0250199Y0188461D01*
X0250199Y0189248D01*
X0249412Y0189248D01*
X0246853Y0189839D02*
X0244885Y0189839D01*
X0244885Y0187870D02*
X0246853Y0187870D01*
X0246853Y0185902D02*
X0244885Y0185902D01*
X0244885Y0183933D02*
X0246853Y0183933D01*
X0249412Y0184524D02*
X0249412Y0185311D01*
X0250199Y0185311D01*
X0250199Y0184524D01*
X0249412Y0184524D01*
X0251381Y0186492D02*
X0251381Y0187280D01*
X0252168Y0187280D01*
X0252168Y0186492D01*
X0251381Y0186492D01*
X0253349Y0185311D02*
X0253349Y0184524D01*
X0254136Y0184524D01*
X0254136Y0185311D01*
X0253349Y0185311D01*
D12*
X0253743Y0184917D03*
X0251774Y0186886D03*
X0249806Y0188854D03*
X0249806Y0184917D03*
X0253743Y0188854D03*
D13*
X0318999Y0201846D02*
X0322739Y0201846D01*
X0322739Y0219169D02*
X0318999Y0219169D01*
X0318999Y0249091D02*
X0322739Y0249091D01*
X0322739Y0266413D02*
X0318999Y0266413D01*
X0318999Y0171925D02*
X0322739Y0171925D01*
X0322739Y0154602D02*
X0318999Y0154602D01*
X0318999Y0124681D02*
X0322739Y0124681D01*
X0322739Y0107358D02*
X0318999Y0107358D01*
D14*
X0320081Y0110902D02*
X0324018Y0110902D01*
X0324018Y0113461D02*
X0320081Y0113461D01*
X0320081Y0116020D02*
X0324018Y0116020D01*
X0324018Y0118579D02*
X0320081Y0118579D01*
X0320081Y0121138D02*
X0324018Y0121138D01*
X0324018Y0158146D02*
X0320081Y0158146D01*
X0320081Y0160705D02*
X0324018Y0160705D01*
X0324018Y0163264D02*
X0320081Y0163264D01*
X0320081Y0165823D02*
X0324018Y0165823D01*
X0324018Y0168382D02*
X0320081Y0168382D01*
X0320081Y0205390D02*
X0324018Y0205390D01*
X0324018Y0207949D02*
X0320081Y0207949D01*
X0320081Y0210508D02*
X0324018Y0210508D01*
X0324018Y0213067D02*
X0320081Y0213067D01*
X0320081Y0215626D02*
X0324018Y0215626D01*
X0324018Y0252634D02*
X0320081Y0252634D01*
X0320081Y0255193D02*
X0324018Y0255193D01*
X0324018Y0257752D02*
X0320081Y0257752D01*
X0320081Y0260311D02*
X0324018Y0260311D01*
X0324018Y0262870D02*
X0320081Y0262870D01*
X0246361Y0160114D02*
X0245573Y0160114D01*
X0245573Y0156177D01*
X0246361Y0156177D01*
X0246361Y0160114D01*
X0242818Y0160114D02*
X0242818Y0156177D01*
X0240259Y0156177D02*
X0240259Y0160114D01*
X0237699Y0160114D02*
X0237699Y0156177D01*
X0235140Y0156177D02*
X0235140Y0160114D01*
X0232581Y0160114D02*
X0232581Y0156177D01*
X0230022Y0156177D02*
X0230022Y0160114D01*
X0227266Y0160114D02*
X0227266Y0156177D01*
X0226479Y0156177D01*
X0226479Y0160114D01*
X0227266Y0160114D01*
X0227266Y0138854D02*
X0226479Y0138854D01*
X0226479Y0134917D01*
X0227266Y0134917D01*
X0227266Y0138854D01*
X0230022Y0138854D02*
X0230022Y0134917D01*
X0232581Y0134917D02*
X0232581Y0138854D01*
X0235140Y0138854D02*
X0235140Y0134917D01*
X0237699Y0134917D02*
X0237699Y0138854D01*
X0240259Y0138854D02*
X0240259Y0134917D01*
X0242818Y0134917D02*
X0242818Y0138854D01*
X0245573Y0138854D02*
X0246361Y0138854D01*
X0246361Y0134917D01*
X0245573Y0134917D01*
X0245573Y0138854D01*
X0249510Y0133736D02*
X0249510Y0129012D01*
X0252070Y0129012D02*
X0252070Y0133736D01*
X0254629Y0133736D02*
X0254629Y0129012D01*
X0257188Y0129012D02*
X0257188Y0133736D01*
X0257188Y0120350D02*
X0257188Y0115626D01*
X0254629Y0115626D02*
X0254629Y0120350D01*
X0252070Y0120350D02*
X0252070Y0115626D01*
X0249510Y0115626D02*
X0249510Y0120350D01*
D15*
X0332680Y0130390D03*
X0332680Y0148894D03*
X0332680Y0177634D03*
X0332680Y0196138D03*
X0332680Y0224878D03*
X0332680Y0243382D03*
X0332680Y0272122D03*
X0332680Y0101650D03*
D16*
X0332680Y0111492D03*
X0332680Y0120547D03*
X0332680Y0158736D03*
X0332680Y0167791D03*
X0332680Y0205980D03*
X0332680Y0215035D03*
X0332680Y0253224D03*
X0332680Y0262280D03*
D17*
X0118900Y0271531D03*
X0115160Y0271531D03*
X0111420Y0271531D03*
X0111420Y0284130D03*
X0118900Y0284130D03*
X0118900Y0213264D03*
X0111420Y0213264D03*
X0111420Y0200665D03*
X0115160Y0200665D03*
X0118900Y0200665D03*
X0118900Y0142398D03*
X0111420Y0142398D03*
X0111420Y0129799D03*
X0115160Y0129799D03*
X0118900Y0129799D03*
D18*
X0121853Y0123106D03*
X0121853Y0118382D03*
X0126184Y0118382D03*
X0130908Y0118382D03*
X0130908Y0113657D03*
X0126184Y0113657D03*
X0121853Y0113657D03*
X0121853Y0108933D03*
X0180121Y0164839D03*
X0184845Y0164839D03*
X0189176Y0164839D03*
X0189176Y0160114D03*
X0188782Y0150272D03*
X0188782Y0145547D03*
X0195081Y0136886D03*
X0199806Y0136886D03*
X0214373Y0133736D03*
X0214373Y0129012D03*
X0220672Y0129012D03*
X0225396Y0129012D03*
X0250199Y0137673D03*
X0254924Y0137673D03*
X0257680Y0146335D03*
X0262404Y0146335D03*
X0262404Y0151846D03*
X0262404Y0157358D03*
X0257680Y0157358D03*
X0257680Y0151846D03*
X0257680Y0162870D03*
X0262404Y0162870D03*
X0242719Y0164445D03*
X0237995Y0164445D03*
X0243113Y0175075D03*
X0243113Y0179799D03*
X0226971Y0173894D03*
X0222247Y0173894D03*
X0220672Y0183736D03*
X0220672Y0188461D03*
X0219097Y0193185D03*
X0219097Y0197909D03*
X0223822Y0197909D03*
X0223822Y0193185D03*
X0212010Y0164445D03*
X0207286Y0164445D03*
X0207286Y0159720D03*
X0212010Y0159720D03*
X0244294Y0098697D03*
X0249018Y0098697D03*
X0249018Y0086886D03*
X0244294Y0086886D03*
X0244294Y0075075D03*
X0249018Y0075075D03*
X0249018Y0063264D03*
X0244294Y0063264D03*
X0195475Y0092791D03*
X0195475Y0097516D03*
X0185633Y0097516D03*
X0185633Y0092791D03*
X0121853Y0179799D03*
X0121853Y0184524D03*
X0126184Y0184524D03*
X0126184Y0189248D03*
X0121853Y0189248D03*
X0121853Y0193972D03*
X0130908Y0189248D03*
X0130908Y0184524D03*
X0121853Y0250665D03*
X0121853Y0255390D03*
X0126184Y0255390D03*
X0130908Y0255390D03*
X0130908Y0260114D03*
X0126184Y0260114D03*
X0121853Y0260114D03*
X0121853Y0264839D03*
X0304530Y0258933D03*
X0304530Y0254209D03*
X0309255Y0254209D03*
X0309255Y0258933D03*
X0309255Y0211689D03*
X0309255Y0206965D03*
X0304530Y0206965D03*
X0304530Y0211689D03*
X0304530Y0164445D03*
X0304530Y0159720D03*
X0309255Y0159720D03*
X0309255Y0164445D03*
X0309255Y0117201D03*
X0309255Y0112476D03*
X0304530Y0112476D03*
X0304530Y0117201D03*
D19*
X0264766Y0262083D03*
X0255318Y0262083D03*
X0156105Y0234917D03*
X0156105Y0225469D03*
X0110829Y0219957D03*
X0101381Y0219957D03*
X0104530Y0210114D03*
X0097050Y0210114D03*
X0097050Y0200665D03*
X0104530Y0200665D03*
X0101381Y0149091D03*
X0110829Y0149091D03*
X0104530Y0139248D03*
X0097050Y0139248D03*
X0097050Y0129799D03*
X0104530Y0129799D03*
X0156105Y0154209D03*
X0156105Y0163657D03*
X0104530Y0271531D03*
X0097050Y0271531D03*
X0097050Y0280980D03*
X0104530Y0280980D03*
X0101381Y0290823D03*
X0110829Y0290823D03*
X0156105Y0296728D03*
X0156105Y0306177D03*
D20*
X0249018Y0104209D03*
X0257680Y0104209D03*
X0257680Y0092398D03*
X0249018Y0092398D03*
X0249018Y0080587D03*
X0257680Y0080587D03*
X0257680Y0068776D03*
X0249018Y0068776D03*
D21*
X0200790Y0143382D03*
X0194097Y0143382D03*
X0194097Y0152437D03*
X0200790Y0152437D03*
D22*
X0120672Y0154602D03*
X0120672Y0225862D03*
X0120672Y0296728D03*
X0226971Y0245941D03*
D23*
X0252955Y0245941D03*
X0252955Y0254996D03*
X0252955Y0236886D03*
X0146656Y0234917D03*
X0146656Y0225862D03*
X0146656Y0216807D03*
X0146656Y0163657D03*
X0146656Y0154602D03*
X0146656Y0145547D03*
X0146656Y0287673D03*
X0146656Y0296728D03*
X0146656Y0305783D03*
D24*
X0330514Y0084524D03*
D25*
X0102168Y0316807D03*
M02*
