G75*
%MOIN*%
%OFA0B0*%
%FSLAX25Y25*%
%IPPOS*%
%LPD*%
%AMOC8*
5,1,8,0,0,1.08239X$1,22.5*
%
%ADD10C,0.16142*%
%ADD11OC8,0.07874*%
%ADD12C,0.04331*%
%ADD13C,0.05512*%
%ADD14C,0.05709*%
%ADD15C,0.10236*%
%ADD16OC8,0.06299*%
%ADD17C,0.12992*%
%ADD18C,0.08268*%
D10*
X0286611Y0064839D03*
X0562201Y0064839D03*
X0562201Y0379799D03*
X0286611Y0379799D03*
D11*
X0534839Y0309720D03*
X0534839Y0276650D03*
X0534839Y0262476D03*
X0534839Y0229406D03*
X0534839Y0215232D03*
X0534839Y0182161D03*
X0534839Y0167988D03*
X0534839Y0134917D03*
D12*
X0524997Y0142791D02*
X0521060Y0142791D01*
X0521060Y0160114D02*
X0524997Y0160114D01*
X0524997Y0190035D02*
X0521060Y0190035D01*
X0521060Y0207358D02*
X0524997Y0207358D01*
X0524997Y0237280D02*
X0521060Y0237280D01*
X0521060Y0254602D02*
X0524997Y0254602D01*
X0524997Y0284524D02*
X0521060Y0284524D01*
X0521060Y0301846D02*
X0524997Y0301846D01*
D13*
X0327162Y0318382D02*
X0322044Y0318382D01*
X0322044Y0267988D02*
X0327162Y0267988D01*
X0327162Y0247516D02*
X0322044Y0247516D01*
X0322044Y0197122D02*
X0327162Y0197122D01*
X0327162Y0176650D02*
X0322044Y0176650D01*
X0322044Y0126256D02*
X0327162Y0126256D01*
D14*
X0353540Y0137673D03*
X0353540Y0147516D03*
X0353540Y0155390D03*
X0353540Y0165232D03*
X0353540Y0208539D03*
X0353540Y0218382D03*
X0353540Y0226256D03*
X0353540Y0236098D03*
X0353540Y0279406D03*
X0353540Y0289248D03*
X0353540Y0297122D03*
X0353540Y0306965D03*
D15*
X0464564Y0326650D02*
X0464564Y0336492D01*
X0478540Y0344366D02*
X0488383Y0344366D01*
X0488383Y0319760D02*
X0478540Y0319760D01*
D16*
X0445666Y0155665D03*
X0435430Y0155665D03*
X0435430Y0145665D03*
X0445666Y0145665D03*
X0449406Y0135012D03*
X0439406Y0135012D03*
X0429406Y0135012D03*
X0419406Y0135012D03*
X0409406Y0135012D03*
X0399406Y0135012D03*
D17*
X0329918Y0094366D03*
X0524800Y0094366D03*
X0524800Y0350272D03*
X0329918Y0350272D03*
D18*
X0483461Y0329563D03*
X0483461Y0309563D03*
M02*
