G75*
%MOIN*%
%OFA0B0*%
%FSLAX25Y25*%
%IPPOS*%
%LPD*%
%AMOC8*
5,1,8,0,0,1.08239X$1,22.5*
%
%ADD10OC8,0.07874*%
%ADD11C,0.04134*%
%ADD12C,0.12992*%
%ADD13C,0.13055*%
%ADD14C,0.05709*%
%ADD15C,0.10236*%
%ADD16OC8,0.08071*%
%ADD17OC8,0.06299*%
%ADD18OC8,0.06694*%
%ADD19C,0.06694*%
D10*
X0332680Y0099484D03*
X0332680Y0132555D03*
X0332680Y0146728D03*
X0332680Y0179799D03*
X0332680Y0193972D03*
X0332680Y0227043D03*
X0332680Y0241217D03*
X0332680Y0274287D03*
D11*
X0322739Y0266413D02*
X0318999Y0266413D01*
X0318999Y0249091D02*
X0322739Y0249091D01*
X0322739Y0219169D02*
X0318999Y0219169D01*
X0318999Y0201846D02*
X0322739Y0201846D01*
X0322739Y0171925D02*
X0318999Y0171925D01*
X0318999Y0154602D02*
X0322739Y0154602D01*
X0322739Y0124681D02*
X0318999Y0124681D01*
X0318999Y0107358D02*
X0322739Y0107358D01*
D12*
X0078546Y0064839D03*
X0078546Y0308933D03*
X0322640Y0308933D03*
X0322640Y0064839D03*
D13*
X0075790Y0090035D03*
X0075790Y0142004D03*
X0075790Y0160902D03*
X0075790Y0212870D03*
X0075790Y0231768D03*
X0075790Y0283736D03*
D14*
X0086420Y0271531D03*
X0086420Y0261689D03*
X0086420Y0253815D03*
X0086420Y0243972D03*
X0086420Y0200665D03*
X0086420Y0190823D03*
X0086420Y0182949D03*
X0086420Y0173106D03*
X0086420Y0129799D03*
X0086420Y0119957D03*
X0086420Y0112083D03*
X0086420Y0102240D03*
D15*
X0260436Y0291217D02*
X0260436Y0301059D01*
X0274412Y0308933D02*
X0284255Y0308933D01*
X0284255Y0284327D02*
X0274412Y0284327D01*
D16*
X0283270Y0270350D03*
X0283270Y0245154D03*
X0283270Y0223106D03*
X0283270Y0197909D03*
X0283270Y0175862D03*
X0283270Y0150665D03*
X0283270Y0128618D03*
X0283270Y0103421D03*
D17*
X0225593Y0086193D03*
X0215593Y0086193D03*
X0205593Y0086193D03*
X0195593Y0086193D03*
X0185593Y0086193D03*
X0175593Y0086193D03*
X0211617Y0110232D03*
X0211617Y0120232D03*
X0221853Y0120232D03*
X0221853Y0110232D03*
D18*
X0242325Y0296925D03*
D19*
X0242325Y0287083D03*
M02*
