G75*
%MOIN*%
%OFA0B0*%
%FSLAX25Y25*%
%IPPOS*%
%LPD*%
%AMOC8*
5,1,8,0,0,1.08239X$1,22.5*
%
%ADD10R,0.02362X0.06299*%
%ADD11R,0.06299X0.02362*%
%ADD12R,0.07087X0.07087*%
%ADD13R,0.01575X0.03543*%
%ADD14R,0.03543X0.01575*%
%ADD15R,0.07874X0.07480*%
%ADD16R,0.07874X0.06693*%
%ADD17OC8,0.07874*%
%ADD18C,0.04134*%
%ADD19R,0.05906X0.01969*%
%ADD20R,0.02756X0.05118*%
%ADD21C,0.12992*%
%ADD22C,0.13055*%
%ADD23C,0.05709*%
%ADD24C,0.10236*%
%ADD25R,0.02756X0.05906*%
%ADD26R,0.01969X0.05906*%
%ADD27OC8,0.08071*%
%ADD28OC8,0.06299*%
%ADD29R,0.03150X0.03150*%
%ADD30R,0.05906X0.05906*%
%ADD31OC8,0.06694*%
%ADD32C,0.06694*%
%ADD33R,0.02165X0.06693*%
%ADD34R,0.05118X0.05118*%
%ADD35R,0.05118X0.05906*%
%ADD36R,0.09843X0.05906*%
%ADD37R,0.08268X0.16142*%
%ADD38C,0.04331*%
%ADD39R,0.15748X0.15748*%
%ADD40R,0.02756X0.01969*%
%ADD41R,0.08268X0.15354*%
%ADD42R,0.15354X0.08268*%
D10*
X0185239Y0170547D03*
X0188388Y0170547D03*
X0191538Y0170547D03*
X0194688Y0170547D03*
X0197837Y0170547D03*
X0200987Y0170547D03*
X0204136Y0170547D03*
X0207286Y0170547D03*
X0207286Y0203224D03*
X0204136Y0203224D03*
X0200987Y0203224D03*
X0197837Y0203224D03*
X0194688Y0203224D03*
X0191538Y0203224D03*
X0188388Y0203224D03*
X0185239Y0203224D03*
D11*
X0179924Y0197909D03*
X0179924Y0194760D03*
X0179924Y0191610D03*
X0179924Y0188461D03*
X0179924Y0185311D03*
X0179924Y0182161D03*
X0179924Y0179012D03*
X0179924Y0175862D03*
X0212601Y0175862D03*
X0212601Y0179012D03*
X0212601Y0182161D03*
X0212601Y0185311D03*
X0212601Y0188461D03*
X0212601Y0191610D03*
X0212601Y0194760D03*
X0212601Y0197909D03*
D12*
X0251774Y0186886D03*
D13*
X0250790Y0180980D03*
X0248822Y0180980D03*
X0252759Y0180980D03*
X0254727Y0180980D03*
X0254727Y0192791D03*
X0252759Y0192791D03*
X0250790Y0192791D03*
X0248822Y0192791D03*
D14*
X0245869Y0189839D03*
X0245869Y0187870D03*
X0245869Y0185902D03*
X0245869Y0183933D03*
X0257680Y0183933D03*
X0257680Y0185902D03*
X0257680Y0187870D03*
X0257680Y0189839D03*
D15*
X0332680Y0205980D03*
X0332680Y0215035D03*
X0332680Y0253224D03*
X0332680Y0262280D03*
X0332680Y0167791D03*
X0332680Y0158736D03*
X0332680Y0120547D03*
X0332680Y0111492D03*
D16*
X0332680Y0102634D03*
X0332680Y0129406D03*
X0332680Y0149878D03*
X0332680Y0176650D03*
X0332680Y0197122D03*
X0332680Y0223894D03*
X0332680Y0244366D03*
X0332680Y0271138D03*
D17*
X0332680Y0274287D03*
X0332680Y0241217D03*
X0332680Y0227043D03*
X0332680Y0193972D03*
X0332680Y0179799D03*
X0332680Y0146728D03*
X0332680Y0132555D03*
X0332680Y0099484D03*
D18*
X0322739Y0107358D02*
X0318999Y0107358D01*
X0318999Y0124681D02*
X0322739Y0124681D01*
X0322739Y0154602D02*
X0318999Y0154602D01*
X0318999Y0171925D02*
X0322739Y0171925D01*
X0322739Y0201846D02*
X0318999Y0201846D01*
X0318999Y0219169D02*
X0322739Y0219169D01*
X0322739Y0249091D02*
X0318999Y0249091D01*
X0318999Y0266413D02*
X0322739Y0266413D01*
D19*
X0322050Y0262870D03*
X0322050Y0260311D03*
X0322050Y0257752D03*
X0322050Y0255193D03*
X0322050Y0252634D03*
X0322050Y0215626D03*
X0322050Y0213067D03*
X0322050Y0210508D03*
X0322050Y0207949D03*
X0322050Y0205390D03*
X0322050Y0168382D03*
X0322050Y0165823D03*
X0322050Y0163264D03*
X0322050Y0160705D03*
X0322050Y0158146D03*
X0322050Y0121138D03*
X0322050Y0118579D03*
X0322050Y0116020D03*
X0322050Y0113461D03*
X0322050Y0110902D03*
D20*
X0118900Y0129799D03*
X0115160Y0129799D03*
X0111420Y0129799D03*
X0111420Y0142398D03*
X0118900Y0142398D03*
X0118900Y0200665D03*
X0115160Y0200665D03*
X0111420Y0200665D03*
X0111420Y0213264D03*
X0118900Y0213264D03*
X0118900Y0271531D03*
X0115160Y0271531D03*
X0111420Y0271531D03*
X0111420Y0284130D03*
X0118900Y0284130D03*
D21*
X0078546Y0064839D03*
X0078546Y0308933D03*
X0322640Y0308933D03*
X0322640Y0064839D03*
D22*
X0075790Y0090035D03*
X0075790Y0142004D03*
X0075790Y0160902D03*
X0075790Y0212870D03*
X0075790Y0231768D03*
X0075790Y0283736D03*
D23*
X0086420Y0271531D03*
X0086420Y0261689D03*
X0086420Y0253815D03*
X0086420Y0243972D03*
X0086420Y0200665D03*
X0086420Y0190823D03*
X0086420Y0182949D03*
X0086420Y0173106D03*
X0086420Y0129799D03*
X0086420Y0119957D03*
X0086420Y0112083D03*
X0086420Y0102240D03*
D24*
X0260436Y0291217D02*
X0260436Y0301059D01*
X0274412Y0308933D02*
X0284255Y0308933D01*
X0284255Y0284327D02*
X0274412Y0284327D01*
D25*
X0245967Y0158146D03*
X0226873Y0158146D03*
X0226873Y0136886D03*
X0245967Y0136886D03*
D26*
X0242818Y0136886D03*
X0240259Y0136886D03*
X0237699Y0136886D03*
X0235140Y0136886D03*
X0232581Y0136886D03*
X0230022Y0136886D03*
X0230022Y0158146D03*
X0232581Y0158146D03*
X0235140Y0158146D03*
X0237699Y0158146D03*
X0240259Y0158146D03*
X0242818Y0158146D03*
D27*
X0283270Y0150665D03*
X0283270Y0128618D03*
X0283270Y0103421D03*
X0283270Y0175862D03*
X0283270Y0197909D03*
X0283270Y0223106D03*
X0283270Y0245154D03*
X0283270Y0270350D03*
D28*
X0221853Y0120232D03*
X0221853Y0110232D03*
X0211617Y0110232D03*
X0211617Y0120232D03*
X0215593Y0086193D03*
X0205593Y0086193D03*
X0195593Y0086193D03*
X0185593Y0086193D03*
X0175593Y0086193D03*
X0225593Y0086193D03*
D29*
X0244294Y0086886D03*
X0249018Y0086886D03*
X0249018Y0098697D03*
X0244294Y0098697D03*
X0244294Y0075075D03*
X0249018Y0075075D03*
X0249018Y0063264D03*
X0244294Y0063264D03*
X0195475Y0092791D03*
X0195475Y0097516D03*
X0185633Y0097516D03*
X0185633Y0092791D03*
X0214373Y0129012D03*
X0214373Y0133736D03*
X0220672Y0129012D03*
X0225396Y0129012D03*
X0199806Y0136886D03*
X0195081Y0136886D03*
X0188782Y0145547D03*
X0188782Y0150272D03*
X0189176Y0160114D03*
X0189176Y0164839D03*
X0184845Y0164839D03*
X0180121Y0164839D03*
X0207286Y0164445D03*
X0212010Y0164445D03*
X0212010Y0159720D03*
X0207286Y0159720D03*
X0222247Y0173894D03*
X0226971Y0173894D03*
X0220672Y0183736D03*
X0220672Y0188461D03*
X0219097Y0193185D03*
X0219097Y0197909D03*
X0223822Y0197909D03*
X0223822Y0193185D03*
X0243113Y0179799D03*
X0243113Y0175075D03*
X0242719Y0164445D03*
X0237995Y0164445D03*
X0257680Y0162870D03*
X0262404Y0162870D03*
X0262404Y0157358D03*
X0262404Y0151846D03*
X0257680Y0151846D03*
X0257680Y0157358D03*
X0257680Y0146335D03*
X0262404Y0146335D03*
X0254924Y0137673D03*
X0250199Y0137673D03*
X0304530Y0117201D03*
X0309255Y0117201D03*
X0309255Y0112476D03*
X0304530Y0112476D03*
X0304530Y0159720D03*
X0309255Y0159720D03*
X0309255Y0164445D03*
X0304530Y0164445D03*
X0304530Y0206965D03*
X0304530Y0211689D03*
X0309255Y0211689D03*
X0309255Y0206965D03*
X0309255Y0254209D03*
X0309255Y0258933D03*
X0304530Y0258933D03*
X0304530Y0254209D03*
X0130908Y0255390D03*
X0130908Y0260114D03*
X0126184Y0260114D03*
X0121853Y0260114D03*
X0121853Y0255390D03*
X0126184Y0255390D03*
X0121853Y0250665D03*
X0121853Y0264839D03*
X0121853Y0193972D03*
X0121853Y0189248D03*
X0126184Y0189248D03*
X0130908Y0189248D03*
X0130908Y0184524D03*
X0126184Y0184524D03*
X0121853Y0184524D03*
X0121853Y0179799D03*
X0121853Y0123106D03*
X0121853Y0118382D03*
X0126184Y0118382D03*
X0130908Y0118382D03*
X0130908Y0113657D03*
X0126184Y0113657D03*
X0121853Y0113657D03*
X0121853Y0108933D03*
D30*
X0104530Y0129799D03*
X0097050Y0129799D03*
X0097050Y0139248D03*
X0104530Y0139248D03*
X0101381Y0149091D03*
X0110829Y0149091D03*
X0156105Y0154209D03*
X0156105Y0163657D03*
X0104530Y0200665D03*
X0097050Y0200665D03*
X0097050Y0210114D03*
X0104530Y0210114D03*
X0101381Y0219957D03*
X0110829Y0219957D03*
X0156105Y0225469D03*
X0156105Y0234917D03*
X0104530Y0271531D03*
X0097050Y0271531D03*
X0097050Y0280980D03*
X0104530Y0280980D03*
X0101381Y0290823D03*
X0110829Y0290823D03*
X0156105Y0296728D03*
X0156105Y0306177D03*
X0255318Y0262083D03*
X0264766Y0262083D03*
D31*
X0242325Y0296925D03*
D32*
X0242325Y0287083D03*
D33*
X0249510Y0131374D03*
X0252070Y0131374D03*
X0254629Y0131374D03*
X0257188Y0131374D03*
X0257188Y0117988D03*
X0254629Y0117988D03*
X0252070Y0117988D03*
X0249510Y0117988D03*
D34*
X0249018Y0104209D03*
X0257680Y0104209D03*
X0257680Y0092398D03*
X0249018Y0092398D03*
X0249018Y0080587D03*
X0257680Y0080587D03*
X0257680Y0068776D03*
X0249018Y0068776D03*
D35*
X0200790Y0143382D03*
X0194097Y0143382D03*
X0194097Y0152437D03*
X0200790Y0152437D03*
D36*
X0146656Y0154602D03*
X0146656Y0145547D03*
X0146656Y0163657D03*
X0146656Y0216807D03*
X0146656Y0225862D03*
X0146656Y0234917D03*
X0146656Y0287673D03*
X0146656Y0296728D03*
X0146656Y0305783D03*
X0252955Y0254996D03*
X0252955Y0245941D03*
X0252955Y0236886D03*
D37*
X0226971Y0245941D03*
X0120672Y0225862D03*
X0120672Y0296728D03*
X0120672Y0154602D03*
D38*
X0121853Y0072713D03*
X0315160Y0086492D03*
X0318703Y0287280D03*
D39*
X0318703Y0287280D03*
X0315160Y0086492D03*
X0121853Y0072713D03*
D40*
X0200199Y0157752D03*
D41*
X0330514Y0084524D03*
D42*
X0102168Y0316807D03*
M02*
