%
M48
M72
T01C0.01181
T02C0.02362
T03C0.03150
T04C0.03200
T05C0.03543
T06C0.03937
T07C0.05118
T08C0.08661
T09C0.12598
T10C0.15748
%
T01
X244294Y97428
X244294Y109239
X244294Y121050
X257286Y131286
X258073Y156483
X250199Y159633
X226971Y151365
X230908Y150971
X229333Y168294
X237995Y186010
X246656Y183255
X253349Y179318
X253349Y176168
X253349Y171444
X250593Y167900
X262404Y161601
X246262Y198609
X237601Y202546
X242325Y207270
X250593Y215144
X293113Y224199
X298231Y229318
X316735Y234436
X316341Y281680
X316735Y187192
X316735Y139948
X220278Y255302
X217916Y256877
X220278Y258451
X217916Y260026
X220278Y261601
X217916Y263176
X220278Y264751
X217916Y266325
X220278Y267900
X217916Y269475
X220278Y271050
X217916Y272625
X220278Y274199
X171066Y323806
X175003Y323806
X173034Y319869
X171066Y315932
X175003Y315932
X173034Y311995
X171066Y308058
X175003Y308058
X173034Y304121
X171066Y300184
X175003Y300184
X173034Y296247
X171066Y292310
X175003Y292310
X163192Y262782
X163192Y258845
X159255Y260814
X155318Y262782
X155318Y258845
X151381Y260814
X147444Y262782
X147444Y258845
X143507Y260814
X143507Y189948
X147444Y191916
X147444Y187979
X151381Y189948
X155318Y191916
X155318Y187979
X159255Y189948
X155318Y168294
X159255Y168294
X155318Y164357
X155318Y160420
X184845Y178924
X212010Y175381
X219491Y192703
X223822Y202546
X223822Y220262
X191538Y194672
X217522Y147822
X244294Y85617
X291932Y271837
X296656Y276562
T02
X320869Y285223
X332680Y293097
X332680Y260026
X320869Y267900
X320869Y237979
X332680Y245853
X332680Y212782
X320869Y220656
X320869Y190735
X332680Y198609
X332680Y165538
X320869Y173412
X320869Y143491
X332680Y151365
X332680Y118294
X320869Y126168
T03
X260436Y314948
X279333Y327743
T04
X242325Y305892
X242325Y315735
T05
X86420Y219475
X86420Y209633
X86420Y201759
X86420Y191916
X86420Y148609
X86420Y138766
X86420Y130892
X86420Y121050
X86420Y262782
X86420Y272625
X86420Y280499
X86420Y290341
T06
X211617Y129042
X211617Y139042
X221853Y139042
X175593Y105003
X185593Y105003
X195593Y105003
X205593Y105003
X215593Y105003
X225593Y105003
X221853Y129042
X279333Y303136
T07
X283270Y169475
X283270Y194672
X283270Y216719
X283270Y241916
X283270Y263963
X283270Y289160
X283270Y147428
X283270Y122231
T08
X75790Y160814
X75790Y108845
X75790Y179711
X75790Y231680
X75790Y250577
X75790Y302546
T09
X78546Y83648
X322640Y83648
X78546Y327743
X322640Y327743
T10
X43113Y48215
X358073Y48215
X43113Y363176
X358073Y363176
M30
