G75*
%MOIN*%
%OFA0B0*%
%FSLAX25Y25*%
%IPPOS*%
%LPD*%
%AMOC8*
5,1,8,0,0,1.08239X$1,22.5*
%
%ADD10C,0.16142*%
%ADD11C,0.12992*%
%ADD12OC8,0.07874*%
%ADD13C,0.04331*%
%ADD14C,0.05512*%
%ADD15C,0.05709*%
%ADD16C,0.10236*%
%ADD17OC8,0.06299*%
%ADD18OC8,0.08071*%
D10*
X0286611Y0083315D03*
X0648816Y0083315D03*
X0648816Y0402213D03*
X0286611Y0402213D03*
D11*
X0318107Y0370717D03*
X0471650Y0305756D03*
X0511020Y0370717D03*
X0589760Y0305756D03*
X0511020Y0114811D03*
X0318107Y0114811D03*
D12*
X0521060Y0131740D03*
X0521060Y0164811D03*
X0521060Y0178984D03*
X0521060Y0212055D03*
X0521060Y0226228D03*
X0521060Y0259299D03*
X0521060Y0273472D03*
X0521060Y0306543D03*
D13*
X0511217Y0298669D02*
X0507280Y0298669D01*
X0507280Y0281346D02*
X0511217Y0281346D01*
X0511217Y0251425D02*
X0507280Y0251425D01*
X0507280Y0234102D02*
X0511217Y0234102D01*
X0511217Y0204181D02*
X0507280Y0204181D01*
X0507280Y0186858D02*
X0511217Y0186858D01*
X0511217Y0156937D02*
X0507280Y0156937D01*
X0507280Y0139614D02*
X0511217Y0139614D01*
D14*
X0313383Y0146701D02*
X0308264Y0146701D01*
X0308264Y0197094D02*
X0313383Y0197094D01*
X0313383Y0217567D02*
X0308264Y0217567D01*
X0308264Y0267961D02*
X0313383Y0267961D01*
X0313383Y0288433D02*
X0308264Y0288433D01*
X0308264Y0338827D02*
X0313383Y0338827D01*
D15*
X0339760Y0327409D03*
X0339760Y0317567D03*
X0339760Y0309693D03*
X0339760Y0299850D03*
X0339760Y0256543D03*
X0339760Y0246701D03*
X0339760Y0238827D03*
X0339760Y0228984D03*
X0339760Y0185677D03*
X0339760Y0175835D03*
X0339760Y0167961D03*
X0339760Y0158118D03*
D16*
X0472635Y0332331D02*
X0472635Y0342173D01*
X0479524Y0356150D02*
X0489367Y0356150D01*
X0497241Y0342173D02*
X0497241Y0332331D01*
D17*
X0496178Y0313630D03*
X0506178Y0313630D03*
X0550390Y0298669D03*
X0555233Y0313630D03*
X0565233Y0313630D03*
X0550390Y0281346D03*
X0555233Y0266386D03*
X0565233Y0266386D03*
X0550390Y0251425D03*
X0550390Y0234102D03*
X0555233Y0219142D03*
X0565233Y0219142D03*
X0550390Y0204181D03*
X0550390Y0186858D03*
X0555233Y0171898D03*
X0565233Y0171898D03*
X0550390Y0156937D03*
X0550390Y0139614D03*
X0505390Y0171898D03*
X0495390Y0171898D03*
X0435627Y0155457D03*
X0425627Y0155457D03*
X0415627Y0155457D03*
X0405627Y0155457D03*
X0395627Y0155457D03*
X0385627Y0155457D03*
X0421650Y0166110D03*
X0431886Y0166110D03*
X0431886Y0176110D03*
X0421650Y0176110D03*
X0496178Y0219142D03*
X0506178Y0219142D03*
X0506178Y0266386D03*
X0496178Y0266386D03*
D18*
X0560233Y0276228D03*
X0560233Y0256543D03*
X0560233Y0228984D03*
X0560233Y0209299D03*
X0560233Y0181740D03*
X0560233Y0162055D03*
X0560233Y0134496D03*
X0560233Y0303787D03*
M02*
