%
M48
M72
T01C0.01181
T02C0.02362
T03C0.03150
T04C0.03543
T05C0.03937
T06C0.04724
T07C0.12598
T08C0.15748
%
T01
X374012Y170350
X374012Y173500
X389760Y168382
X389760Y165232
X398816Y167201
X398816Y162476
X406690Y170350
X411414Y170350
X416138Y170350
X420863Y170350
X425194Y173106
X438973Y164445
X450784Y167988
X474012Y176256
X477162Y182161
X477162Y186886
X477162Y191610
X477162Y196335
X477162Y201059
X477162Y205783
X470075Y200665
X461808Y203421
X443304Y216020
X440548Y206571
X415351Y211295
X408658Y211295
X408658Y214445
X408658Y217594
X408658Y220744
X408658Y230193
X408658Y233343
X415351Y245547
X403540Y246728
X426768Y245547
X441335Y258933
X442910Y261295
X444485Y258933
X446060Y261295
X447635Y258933
X449209Y261295
X450784Y258933
X452359Y261295
X453934Y258933
X453934Y263657
X450784Y263657
X447635Y263657
X444485Y263657
X441335Y263657
X457871Y273106
X461020Y273106
X484642Y288067
X489367Y292791
X518501Y298303
X503934Y275862
X518894Y251059
X509446Y245941
X503146Y239642
X503934Y229012
X474406Y236492
X465745Y228618
X461020Y223894
X462201Y220744
X448028Y240823
X396060Y275075
X394485Y277437
X396060Y279799
X392910Y279799
X391335Y277437
X389760Y275075
X388186Y277437
X389760Y279799
X392910Y275075
X382674Y300272
X374012Y311689
X374012Y315232
X416926Y313264
X419288Y315626
X421650Y317988
X424012Y315626
X421650Y313264
X419288Y310902
X421650Y308539
X424012Y306177
X426375Y308539
X428737Y306177
X431099Y308539
X433461Y306177
X433461Y310902
X431099Y313264
X428737Y315626
X426375Y317988
X426375Y313264
X428737Y310902
X424012Y310902
X462989Y300272
X462989Y297122
X444485Y342398
X440154Y345154
X435823Y342398
X374012Y244366
X374012Y241217
X387792Y211295
X389367Y208933
X390942Y206571
X392516Y208933
X390942Y211295
X386217Y208933
X387792Y206571
X389367Y204209
X392516Y204209
X408658Y195547
X409052Y187673
X481099Y147909
X462989Y134917
X518894Y156571
X488186Y177437
X481886Y172319
X503540Y188854
X518894Y203815
T02
X523028Y207358
X534839Y215232
X534839Y229406
X523028Y237280
X523028Y254602
X534839Y262476
X534839Y276650
X523028Y284524
X523028Y301846
X534839Y309720
X523028Y190035
X534839Y182161
X534839Y167988
X523028Y160114
X523028Y142791
X534839Y134917
X324603Y126256
X324603Y176650
X324603Y197122
X324603Y247516
X324603Y267988
X324603Y318382
T03
X464564Y331571
X483461Y344366
T04
X353540Y306965
X353540Y297122
X353540Y289248
X353540Y279406
X353540Y236098
X353540Y226256
X353540Y218382
X353540Y208539
X353540Y165232
X353540Y155390
X353540Y147516
X353540Y137673
T05
X399406Y135012
X409406Y135012
X419406Y135012
X429406Y135012
X439406Y135012
X449406Y135012
X445666Y145665
X435430Y145665
X435430Y155665
X445666Y155665
X483461Y319760
T06
X483461Y329563
X483461Y309563
T07
X524800Y350272
X329918Y350272
X329918Y94366
X524800Y94366
T08
X286611Y64839
X562201Y64839
X562201Y379799
X286611Y379799
M30
