G75*
%MOIN*%
%OFA0B0*%
%FSLAX25Y25*%
%IPPOS*%
%LPD*%
%AMOC8*
5,1,8,0,0,1.08239X$1,22.5*
%
%ADD10OC8,0.07480*%
%ADD11C,0.03740*%
%ADD12C,0.12661*%
%ADD13C,0.05315*%
%ADD14C,0.09843*%
%ADD15OC8,0.07677*%
%ADD16OC8,0.05906*%
%ADD17OC8,0.06300*%
%ADD18C,0.06300*%
%ADD19C,0.00984*%
%ADD20C,0.02362*%
%ADD21C,0.02362*%
%ADD22C,0.00787*%
%ADD23C,0.03150*%
%ADD24C,0.03937*%
%ADD25C,0.01575*%
D10*
X0332680Y0118294D03*
X0332680Y0151365D03*
X0332680Y0165538D03*
X0332680Y0198609D03*
X0332680Y0212782D03*
X0332680Y0245853D03*
X0332680Y0260026D03*
X0332680Y0293097D03*
D11*
X0322739Y0285223D02*
X0318999Y0285223D01*
X0318999Y0267900D02*
X0322739Y0267900D01*
X0322739Y0237979D02*
X0318999Y0237979D01*
X0318999Y0220656D02*
X0322739Y0220656D01*
X0322739Y0190735D02*
X0318999Y0190735D01*
X0318999Y0173412D02*
X0322739Y0173412D01*
X0322739Y0143491D02*
X0318999Y0143491D01*
X0318999Y0126168D02*
X0322739Y0126168D01*
D12*
X0075790Y0108845D03*
X0075790Y0160814D03*
X0075790Y0179711D03*
X0075790Y0231680D03*
X0075790Y0250577D03*
X0075790Y0302546D03*
D13*
X0086420Y0290341D03*
X0086420Y0280499D03*
X0086420Y0272625D03*
X0086420Y0262782D03*
X0086420Y0219475D03*
X0086420Y0209633D03*
X0086420Y0201759D03*
X0086420Y0191916D03*
X0086420Y0148609D03*
X0086420Y0138766D03*
X0086420Y0130892D03*
X0086420Y0121050D03*
D14*
X0260436Y0310026D02*
X0260436Y0319869D01*
X0274412Y0327743D02*
X0284255Y0327743D01*
X0284255Y0303136D02*
X0274412Y0303136D01*
D15*
X0283270Y0289160D03*
X0283270Y0263963D03*
X0283270Y0241916D03*
X0283270Y0216719D03*
X0283270Y0194672D03*
X0283270Y0169475D03*
X0283270Y0147428D03*
X0283270Y0122231D03*
D16*
X0225593Y0105003D03*
X0215593Y0105003D03*
X0205593Y0105003D03*
X0195593Y0105003D03*
X0185593Y0105003D03*
X0175593Y0105003D03*
X0211617Y0129042D03*
X0211617Y0139042D03*
X0221853Y0139042D03*
X0221853Y0129042D03*
D17*
X0242325Y0315735D03*
D18*
X0242325Y0305892D03*
D19*
X0089351Y0091112D02*
X0089561Y0090727D01*
X0089824Y0090376D01*
X0089809Y0090273D01*
X0090209Y0089542D01*
X0090303Y0089498D01*
X0090456Y0089088D01*
X0090667Y0088703D01*
X0090637Y0088603D01*
X0090929Y0087822D01*
X0091016Y0087766D01*
X0091109Y0087337D01*
X0091263Y0086926D01*
X0091219Y0086832D01*
X0091396Y0086017D01*
X0091475Y0085949D01*
X0091506Y0085512D01*
X0091600Y0085083D01*
X0091543Y0084996D01*
X0091599Y0084216D01*
X0091636Y0084178D01*
X0091636Y0083694D01*
X0091671Y0083211D01*
X0091636Y0083171D01*
X0091636Y0069967D01*
X0309550Y0069967D01*
X0309550Y0083171D01*
X0309515Y0083211D01*
X0309550Y0083694D01*
X0309550Y0084178D01*
X0309587Y0084216D01*
X0309643Y0084996D01*
X0309587Y0085083D01*
X0309680Y0085512D01*
X0309711Y0085949D01*
X0309790Y0086017D01*
X0309967Y0086832D01*
X0309924Y0086926D01*
X0310077Y0087337D01*
X0310170Y0087766D01*
X0310258Y0087822D01*
X0310549Y0088603D01*
X0310520Y0088703D01*
X0310730Y0089088D01*
X0310883Y0089498D01*
X0310978Y0089542D01*
X0311377Y0090273D01*
X0311362Y0090376D01*
X0311625Y0090727D01*
X0311835Y0091112D01*
X0311935Y0091142D01*
X0312435Y0091809D01*
X0312435Y0091913D01*
X0312745Y0092223D01*
X0313008Y0092574D01*
X0313111Y0092589D01*
X0313700Y0093178D01*
X0313715Y0093281D01*
X0314066Y0093544D01*
X0314376Y0093854D01*
X0314480Y0093854D01*
X0315147Y0094353D01*
X0315177Y0094453D01*
X0315561Y0094663D01*
X0315912Y0094926D01*
X0316015Y0094911D01*
X0316747Y0095311D01*
X0316790Y0095406D01*
X0317201Y0095559D01*
X0317586Y0095769D01*
X0317686Y0095740D01*
X0318467Y0096031D01*
X0318523Y0096118D01*
X0318951Y0096212D01*
X0319362Y0096365D01*
X0319457Y0096322D01*
X0320271Y0096499D01*
X0320340Y0096578D01*
X0320777Y0096609D01*
X0321205Y0096702D01*
X0321293Y0096646D01*
X0322073Y0096702D01*
X0322110Y0096739D01*
X0322595Y0096739D01*
X0323078Y0096773D01*
X0323118Y0096739D01*
X0336322Y0096739D01*
X0336322Y0114837D01*
X0334759Y0113274D01*
X0330601Y0113274D01*
X0327660Y0116215D01*
X0327660Y0120373D01*
X0330601Y0123314D01*
X0334759Y0123314D01*
X0336322Y0121751D01*
X0336322Y0147908D01*
X0334759Y0146345D01*
X0330601Y0146345D01*
X0327660Y0149286D01*
X0327660Y0153444D01*
X0330601Y0156384D01*
X0334759Y0156384D01*
X0336322Y0154822D01*
X0336322Y0162081D01*
X0334759Y0160518D01*
X0330601Y0160518D01*
X0327660Y0163459D01*
X0327660Y0167617D01*
X0330601Y0170558D01*
X0334759Y0170558D01*
X0336322Y0168995D01*
X0336322Y0195152D01*
X0334759Y0193589D01*
X0330601Y0193589D01*
X0327660Y0196530D01*
X0327660Y0200688D01*
X0330601Y0203629D01*
X0334759Y0203629D01*
X0336322Y0202066D01*
X0336322Y0209325D01*
X0334759Y0207762D01*
X0330601Y0207762D01*
X0327660Y0210703D01*
X0327660Y0214861D01*
X0330601Y0217802D01*
X0334759Y0217802D01*
X0336322Y0216239D01*
X0336322Y0242396D01*
X0334759Y0240833D01*
X0330601Y0240833D01*
X0327660Y0243774D01*
X0327660Y0247932D01*
X0330601Y0250873D01*
X0334759Y0250873D01*
X0336322Y0249310D01*
X0336322Y0256569D01*
X0334759Y0255007D01*
X0330601Y0255007D01*
X0327660Y0257947D01*
X0327660Y0262105D01*
X0330601Y0265046D01*
X0334759Y0265046D01*
X0336322Y0263483D01*
X0336322Y0289640D01*
X0334759Y0288077D01*
X0330601Y0288077D01*
X0327660Y0291018D01*
X0327660Y0295176D01*
X0330601Y0298117D01*
X0334759Y0298117D01*
X0336322Y0296554D01*
X0336322Y0314652D01*
X0323118Y0314652D01*
X0323078Y0314618D01*
X0322595Y0314652D01*
X0322110Y0314652D01*
X0322073Y0314690D01*
X0321293Y0314745D01*
X0321205Y0314689D01*
X0320777Y0314782D01*
X0320340Y0314814D01*
X0320271Y0314892D01*
X0319457Y0315069D01*
X0319362Y0315026D01*
X0318951Y0315179D01*
X0318523Y0315273D01*
X0318467Y0315360D01*
X0317686Y0315651D01*
X0317586Y0315622D01*
X0317201Y0315832D01*
X0316790Y0315985D01*
X0316747Y0316080D01*
X0316015Y0316480D01*
X0315912Y0316465D01*
X0315561Y0316728D01*
X0315177Y0316938D01*
X0315147Y0317038D01*
X0314480Y0317537D01*
X0314376Y0317537D01*
X0314066Y0317847D01*
X0313715Y0318110D01*
X0313700Y0318213D01*
X0313111Y0318802D01*
X0313008Y0318817D01*
X0312745Y0319168D01*
X0312435Y0319478D01*
X0312435Y0319582D01*
X0311935Y0320250D01*
X0311835Y0320279D01*
X0311625Y0320664D01*
X0311362Y0321015D01*
X0311377Y0321118D01*
X0310978Y0321849D01*
X0310883Y0321893D01*
X0310730Y0322303D01*
X0310520Y0322688D01*
X0310549Y0322788D01*
X0310258Y0323569D01*
X0310170Y0323625D01*
X0310077Y0324054D01*
X0309924Y0324465D01*
X0309967Y0324559D01*
X0309790Y0325374D01*
X0309711Y0325442D01*
X0309680Y0325879D01*
X0309587Y0326308D01*
X0309643Y0326395D01*
X0309587Y0327175D01*
X0309550Y0327213D01*
X0309550Y0327697D01*
X0309515Y0328180D01*
X0309550Y0328220D01*
X0309550Y0341424D01*
X0091636Y0341424D01*
X0091636Y0328220D01*
X0091671Y0328180D01*
X0091636Y0327697D01*
X0091636Y0327213D01*
X0091599Y0327175D01*
X0091543Y0326395D01*
X0091600Y0326308D01*
X0091506Y0325879D01*
X0091475Y0325442D01*
X0091396Y0325374D01*
X0091219Y0324559D01*
X0091263Y0324465D01*
X0091109Y0324054D01*
X0091016Y0323625D01*
X0090929Y0323569D01*
X0090637Y0322788D01*
X0090667Y0322688D01*
X0090456Y0322303D01*
X0090303Y0321893D01*
X0090209Y0321849D01*
X0089809Y0321118D01*
X0089824Y0321015D01*
X0089561Y0320664D01*
X0089351Y0320279D01*
X0089251Y0320250D01*
X0088752Y0319582D01*
X0088752Y0319478D01*
X0088442Y0319168D01*
X0088179Y0318817D01*
X0088076Y0318802D01*
X0087486Y0318213D01*
X0087472Y0318110D01*
X0087121Y0317847D01*
X0086810Y0317537D01*
X0086706Y0317537D01*
X0086039Y0317038D01*
X0086010Y0316938D01*
X0085625Y0316728D01*
X0085274Y0316465D01*
X0085171Y0316480D01*
X0084439Y0316080D01*
X0084396Y0315985D01*
X0083985Y0315832D01*
X0083600Y0315622D01*
X0083501Y0315651D01*
X0082720Y0315360D01*
X0082663Y0315273D01*
X0082235Y0315179D01*
X0081824Y0315026D01*
X0081729Y0315069D01*
X0080915Y0314892D01*
X0080847Y0314814D01*
X0080409Y0314782D01*
X0079981Y0314689D01*
X0079893Y0314745D01*
X0079113Y0314690D01*
X0079076Y0314652D01*
X0078592Y0314652D01*
X0078109Y0314618D01*
X0078069Y0314652D01*
X0064865Y0314652D01*
X0064865Y0096739D01*
X0078069Y0096739D01*
X0078109Y0096773D01*
X0078592Y0096739D01*
X0079076Y0096739D01*
X0079113Y0096702D01*
X0079893Y0096646D01*
X0079981Y0096702D01*
X0080409Y0096609D01*
X0080847Y0096578D01*
X0080915Y0096499D01*
X0081729Y0096322D01*
X0081824Y0096365D01*
X0082235Y0096212D01*
X0082663Y0096118D01*
X0082720Y0096031D01*
X0083501Y0095740D01*
X0083600Y0095769D01*
X0083985Y0095559D01*
X0084396Y0095406D01*
X0084439Y0095311D01*
X0085171Y0094911D01*
X0085274Y0094926D01*
X0085625Y0094663D01*
X0086010Y0094453D01*
X0086039Y0094353D01*
X0086706Y0093854D01*
X0086810Y0093854D01*
X0087121Y0093544D01*
X0087472Y0093281D01*
X0087486Y0093178D01*
X0088076Y0092589D01*
X0088179Y0092574D01*
X0088442Y0092223D01*
X0088752Y0091913D01*
X0088752Y0091809D01*
X0089251Y0091142D01*
X0089351Y0091112D01*
X0089037Y0091427D02*
X0241046Y0091427D01*
X0241046Y0090444D02*
X0089773Y0090444D01*
X0090317Y0089462D02*
X0241046Y0089462D01*
X0241046Y0088479D02*
X0090684Y0088479D01*
X0091075Y0087496D02*
X0241046Y0087496D01*
X0241046Y0086513D02*
X0091289Y0086513D01*
X0091505Y0085530D02*
X0241046Y0085530D01*
X0241046Y0084971D02*
X0241540Y0083777D01*
X0242454Y0082863D01*
X0243648Y0082369D01*
X0244940Y0082369D01*
X0246134Y0082863D01*
X0247048Y0083777D01*
X0247542Y0084971D01*
X0247542Y0140932D01*
X0248571Y0140932D01*
X0249609Y0141970D01*
X0249609Y0156778D01*
X0250767Y0156778D01*
X0251816Y0157213D01*
X0252169Y0157566D01*
X0261292Y0157566D01*
X0262867Y0159140D01*
X0262894Y0159140D01*
X0263798Y0159515D01*
X0264490Y0160207D01*
X0264865Y0161112D01*
X0264865Y0162090D01*
X0264490Y0162995D01*
X0263798Y0163687D01*
X0262894Y0164062D01*
X0261915Y0164062D01*
X0261010Y0163687D01*
X0260318Y0162995D01*
X0259944Y0162090D01*
X0259944Y0162063D01*
X0259580Y0161699D01*
X0252169Y0161699D01*
X0251816Y0162052D01*
X0250767Y0162487D01*
X0249609Y0162487D01*
X0249609Y0191715D01*
X0251286Y0193392D01*
X0252266Y0194373D01*
X0252266Y0213338D01*
X0252679Y0213751D01*
X0253054Y0214655D01*
X0253054Y0215634D01*
X0252679Y0216538D01*
X0251987Y0217230D01*
X0251083Y0217605D01*
X0250104Y0217605D01*
X0249609Y0217400D01*
X0249609Y0278477D01*
X0248571Y0279514D01*
X0172300Y0279514D01*
X0171262Y0278477D01*
X0171262Y0141970D01*
X0172300Y0140932D01*
X0207521Y0140932D01*
X0207385Y0140795D01*
X0207385Y0137289D01*
X0209864Y0134810D01*
X0213370Y0134810D01*
X0215849Y0137289D01*
X0215849Y0140795D01*
X0215712Y0140932D01*
X0217757Y0140932D01*
X0217621Y0140795D01*
X0217621Y0137289D01*
X0220100Y0134810D01*
X0223606Y0134810D01*
X0226085Y0137289D01*
X0226085Y0140795D01*
X0225949Y0140932D01*
X0241046Y0140932D01*
X0241046Y0084971D01*
X0241221Y0084548D02*
X0091575Y0084548D01*
X0091646Y0083565D02*
X0241752Y0083565D01*
X0243133Y0082582D02*
X0091636Y0082582D01*
X0091636Y0081599D02*
X0309550Y0081599D01*
X0309550Y0080617D02*
X0091636Y0080617D01*
X0091636Y0079634D02*
X0309550Y0079634D01*
X0309550Y0078651D02*
X0091636Y0078651D01*
X0091636Y0077668D02*
X0309550Y0077668D01*
X0309550Y0076686D02*
X0091636Y0076686D01*
X0091636Y0075703D02*
X0309550Y0075703D01*
X0309550Y0074720D02*
X0091636Y0074720D01*
X0091636Y0073737D02*
X0309550Y0073737D01*
X0309550Y0072755D02*
X0091636Y0072755D01*
X0091636Y0071772D02*
X0309550Y0071772D01*
X0309550Y0070789D02*
X0091636Y0070789D01*
X0088302Y0092410D02*
X0241046Y0092410D01*
X0241046Y0093393D02*
X0087323Y0093393D01*
X0086033Y0094375D02*
X0241046Y0094375D01*
X0241046Y0095358D02*
X0084418Y0095358D01*
X0081889Y0096341D02*
X0241046Y0096341D01*
X0241046Y0097324D02*
X0064865Y0097324D01*
X0064865Y0098306D02*
X0241046Y0098306D01*
X0241046Y0099289D02*
X0064865Y0099289D01*
X0064865Y0100272D02*
X0241046Y0100272D01*
X0241046Y0101255D02*
X0228131Y0101255D01*
X0227434Y0100558D02*
X0230038Y0103161D01*
X0230038Y0104510D01*
X0226085Y0104510D01*
X0226085Y0100558D01*
X0227434Y0100558D01*
X0226085Y0101255D02*
X0225101Y0101255D01*
X0225101Y0100558D02*
X0225101Y0104510D01*
X0226085Y0104510D01*
X0226085Y0105495D01*
X0225101Y0105495D01*
X0225101Y0109447D01*
X0223752Y0109447D01*
X0221148Y0106844D01*
X0221148Y0105495D01*
X0225101Y0105495D01*
X0225101Y0104510D01*
X0221148Y0104510D01*
X0221148Y0103161D01*
X0223752Y0100558D01*
X0225101Y0100558D01*
X0225101Y0102237D02*
X0226085Y0102237D01*
X0226085Y0103220D02*
X0225101Y0103220D01*
X0225101Y0104203D02*
X0226085Y0104203D01*
X0226085Y0105186D02*
X0241046Y0105186D01*
X0241046Y0106168D02*
X0230038Y0106168D01*
X0230038Y0105495D02*
X0230038Y0106844D01*
X0227434Y0109447D01*
X0226085Y0109447D01*
X0226085Y0105495D01*
X0230038Y0105495D01*
X0230038Y0104203D02*
X0241046Y0104203D01*
X0241046Y0103220D02*
X0230038Y0103220D01*
X0229114Y0102237D02*
X0241046Y0102237D01*
X0241046Y0107151D02*
X0229731Y0107151D01*
X0228748Y0108134D02*
X0241046Y0108134D01*
X0241046Y0109117D02*
X0227765Y0109117D01*
X0226085Y0109117D02*
X0225101Y0109117D01*
X0225101Y0108134D02*
X0226085Y0108134D01*
X0226085Y0107151D02*
X0225101Y0107151D01*
X0225101Y0106168D02*
X0226085Y0106168D01*
X0225101Y0105186D02*
X0219825Y0105186D01*
X0219825Y0106168D02*
X0221148Y0106168D01*
X0221456Y0107151D02*
X0219430Y0107151D01*
X0219825Y0106756D02*
X0217346Y0109235D01*
X0213840Y0109235D01*
X0211361Y0106756D01*
X0211361Y0103250D01*
X0213840Y0100770D01*
X0217346Y0100770D01*
X0219825Y0103250D01*
X0219825Y0106756D01*
X0218447Y0108134D02*
X0222439Y0108134D01*
X0223421Y0109117D02*
X0217464Y0109117D01*
X0213722Y0109117D02*
X0207464Y0109117D01*
X0207346Y0109235D02*
X0203840Y0109235D01*
X0201361Y0106756D01*
X0201361Y0103250D01*
X0203840Y0100770D01*
X0207346Y0100770D01*
X0209825Y0103250D01*
X0209825Y0106756D01*
X0207346Y0109235D01*
X0208447Y0108134D02*
X0212739Y0108134D01*
X0211756Y0107151D02*
X0209430Y0107151D01*
X0209825Y0106168D02*
X0211361Y0106168D01*
X0211361Y0105186D02*
X0209825Y0105186D01*
X0209825Y0104203D02*
X0211361Y0104203D01*
X0211390Y0103220D02*
X0209796Y0103220D01*
X0208813Y0102237D02*
X0212373Y0102237D01*
X0213356Y0101255D02*
X0207831Y0101255D01*
X0203356Y0101255D02*
X0197831Y0101255D01*
X0197346Y0100770D02*
X0199825Y0103250D01*
X0199825Y0106756D01*
X0197346Y0109235D01*
X0193840Y0109235D01*
X0191361Y0106756D01*
X0191361Y0103250D01*
X0193840Y0100770D01*
X0197346Y0100770D01*
X0198813Y0102237D02*
X0202373Y0102237D01*
X0201390Y0103220D02*
X0199796Y0103220D01*
X0199825Y0104203D02*
X0201361Y0104203D01*
X0201361Y0105186D02*
X0199825Y0105186D01*
X0199825Y0106168D02*
X0201361Y0106168D01*
X0201756Y0107151D02*
X0199430Y0107151D01*
X0198447Y0108134D02*
X0202739Y0108134D01*
X0203722Y0109117D02*
X0197464Y0109117D01*
X0193722Y0109117D02*
X0187464Y0109117D01*
X0187346Y0109235D02*
X0183840Y0109235D01*
X0181361Y0106756D01*
X0181361Y0103250D01*
X0183840Y0100770D01*
X0187346Y0100770D01*
X0189825Y0103250D01*
X0189825Y0106756D01*
X0187346Y0109235D01*
X0188447Y0108134D02*
X0192739Y0108134D01*
X0191756Y0107151D02*
X0189430Y0107151D01*
X0189825Y0106168D02*
X0191361Y0106168D01*
X0191361Y0105186D02*
X0189825Y0105186D01*
X0189825Y0104203D02*
X0191361Y0104203D01*
X0191390Y0103220D02*
X0189796Y0103220D01*
X0188813Y0102237D02*
X0192373Y0102237D01*
X0193356Y0101255D02*
X0187831Y0101255D01*
X0183356Y0101255D02*
X0177831Y0101255D01*
X0177346Y0100770D02*
X0179825Y0103250D01*
X0179825Y0106756D01*
X0177346Y0109235D01*
X0173840Y0109235D01*
X0171361Y0106756D01*
X0171361Y0103250D01*
X0173840Y0100770D01*
X0177346Y0100770D01*
X0178813Y0102237D02*
X0182373Y0102237D01*
X0181390Y0103220D02*
X0179796Y0103220D01*
X0179825Y0104203D02*
X0181361Y0104203D01*
X0181361Y0105186D02*
X0179825Y0105186D01*
X0179825Y0106168D02*
X0181361Y0106168D01*
X0181756Y0107151D02*
X0179430Y0107151D01*
X0178447Y0108134D02*
X0182739Y0108134D01*
X0183722Y0109117D02*
X0177464Y0109117D01*
X0173722Y0109117D02*
X0083400Y0109117D01*
X0083400Y0110100D02*
X0241046Y0110100D01*
X0241046Y0111082D02*
X0083101Y0111082D01*
X0083400Y0110359D02*
X0082242Y0113156D01*
X0080101Y0115297D01*
X0077304Y0116455D01*
X0074276Y0116455D01*
X0071479Y0115297D01*
X0069338Y0113156D01*
X0068180Y0110359D01*
X0068180Y0107331D01*
X0069338Y0104534D01*
X0071479Y0102393D01*
X0074276Y0101235D01*
X0077304Y0101235D01*
X0080101Y0102393D01*
X0082242Y0104534D01*
X0083400Y0107331D01*
X0083400Y0110359D01*
X0082694Y0112065D02*
X0241046Y0112065D01*
X0241046Y0113048D02*
X0082286Y0113048D01*
X0081367Y0114031D02*
X0241046Y0114031D01*
X0241046Y0115013D02*
X0080384Y0115013D01*
X0078413Y0115996D02*
X0241046Y0115996D01*
X0241046Y0116979D02*
X0087243Y0116979D01*
X0087392Y0117002D02*
X0088013Y0117204D01*
X0088595Y0117501D01*
X0089123Y0117885D01*
X0089585Y0118347D01*
X0089969Y0118875D01*
X0090266Y0119457D01*
X0090467Y0120078D01*
X0090559Y0120656D01*
X0086814Y0120656D01*
X0086814Y0121444D01*
X0086026Y0121444D01*
X0086026Y0125189D01*
X0085448Y0125097D01*
X0084827Y0124895D01*
X0084245Y0124599D01*
X0083717Y0124215D01*
X0083255Y0123753D01*
X0082871Y0123225D01*
X0082574Y0122643D01*
X0082373Y0122022D01*
X0082281Y0121444D01*
X0086026Y0121444D01*
X0086026Y0120656D01*
X0082281Y0120656D01*
X0082373Y0120078D01*
X0082574Y0119457D01*
X0082871Y0118875D01*
X0083255Y0118347D01*
X0083717Y0117885D01*
X0084245Y0117501D01*
X0084827Y0117204D01*
X0085448Y0117002D01*
X0086026Y0116911D01*
X0086026Y0120656D01*
X0086814Y0120656D01*
X0086814Y0116911D01*
X0087392Y0117002D01*
X0086814Y0116979D02*
X0086026Y0116979D01*
X0085597Y0116979D02*
X0064865Y0116979D01*
X0064865Y0117962D02*
X0083640Y0117962D01*
X0082836Y0118944D02*
X0064865Y0118944D01*
X0064865Y0119927D02*
X0082422Y0119927D01*
X0082352Y0121893D02*
X0064865Y0121893D01*
X0064865Y0122875D02*
X0082693Y0122875D01*
X0083360Y0123858D02*
X0064865Y0123858D01*
X0064865Y0124841D02*
X0084720Y0124841D01*
X0086026Y0124841D02*
X0086814Y0124841D01*
X0086814Y0125189D02*
X0086814Y0121444D01*
X0090559Y0121444D01*
X0090467Y0122022D01*
X0090266Y0122643D01*
X0089969Y0123225D01*
X0089585Y0123753D01*
X0089123Y0124215D01*
X0088595Y0124599D01*
X0088013Y0124895D01*
X0087392Y0125097D01*
X0086814Y0125189D01*
X0086814Y0123858D02*
X0086026Y0123858D01*
X0086026Y0122875D02*
X0086814Y0122875D01*
X0086814Y0121893D02*
X0086026Y0121893D01*
X0086026Y0120910D02*
X0064865Y0120910D01*
X0064865Y0125824D02*
X0208549Y0125824D01*
X0207566Y0126807D02*
X0064865Y0126807D01*
X0064865Y0127789D02*
X0083955Y0127789D01*
X0084190Y0127555D02*
X0085637Y0126955D01*
X0087203Y0126955D01*
X0088650Y0127555D01*
X0089758Y0128662D01*
X0090357Y0130109D01*
X0090357Y0131676D01*
X0089758Y0133123D01*
X0088650Y0134230D01*
X0087203Y0134829D01*
X0085637Y0134829D01*
X0084190Y0134230D01*
X0083082Y0133123D01*
X0082483Y0131676D01*
X0082483Y0130109D01*
X0083082Y0128662D01*
X0084190Y0127555D01*
X0083037Y0128772D02*
X0064865Y0128772D01*
X0064865Y0129755D02*
X0082630Y0129755D01*
X0082483Y0130738D02*
X0064865Y0130738D01*
X0064865Y0131720D02*
X0082502Y0131720D01*
X0082909Y0132703D02*
X0064865Y0132703D01*
X0064865Y0133686D02*
X0083646Y0133686D01*
X0084190Y0135429D02*
X0085637Y0134829D01*
X0087203Y0134829D01*
X0088650Y0135429D01*
X0089758Y0136536D01*
X0090357Y0137983D01*
X0090357Y0139550D01*
X0089758Y0140997D01*
X0088650Y0142104D01*
X0087203Y0142703D01*
X0085637Y0142703D01*
X0084190Y0142104D01*
X0083082Y0140997D01*
X0082483Y0139550D01*
X0082483Y0137983D01*
X0083082Y0136536D01*
X0084190Y0135429D01*
X0083967Y0135651D02*
X0064865Y0135651D01*
X0064865Y0134669D02*
X0085249Y0134669D01*
X0087591Y0134669D02*
X0241046Y0134669D01*
X0241046Y0135651D02*
X0224448Y0135651D01*
X0225431Y0136634D02*
X0241046Y0136634D01*
X0241046Y0137617D02*
X0226085Y0137617D01*
X0226085Y0138600D02*
X0241046Y0138600D01*
X0241046Y0139582D02*
X0226085Y0139582D01*
X0226085Y0140565D02*
X0241046Y0140565D01*
X0247542Y0140565D02*
X0317831Y0140565D01*
X0318372Y0140341D02*
X0317215Y0140821D01*
X0316329Y0141707D01*
X0315849Y0142864D01*
X0315849Y0144117D01*
X0316329Y0145275D01*
X0317215Y0146161D01*
X0318372Y0146640D01*
X0323365Y0146640D01*
X0324523Y0146161D01*
X0325409Y0145275D01*
X0325888Y0144117D01*
X0325888Y0142864D01*
X0325409Y0141707D01*
X0324523Y0140821D01*
X0323365Y0140341D01*
X0318372Y0140341D01*
X0316487Y0141548D02*
X0249187Y0141548D01*
X0249609Y0142531D02*
X0280629Y0142531D01*
X0281062Y0142097D02*
X0277940Y0145220D01*
X0277940Y0146936D01*
X0282778Y0146936D01*
X0282778Y0147920D01*
X0277940Y0147920D01*
X0277940Y0149636D01*
X0281062Y0152759D01*
X0282778Y0152759D01*
X0282778Y0147920D01*
X0283762Y0147920D01*
X0283762Y0152759D01*
X0285478Y0152759D01*
X0288601Y0149636D01*
X0288601Y0147920D01*
X0283763Y0147920D01*
X0283763Y0146936D01*
X0288601Y0146936D01*
X0288601Y0145220D01*
X0285478Y0142097D01*
X0283762Y0142097D01*
X0283762Y0146936D01*
X0282778Y0146936D01*
X0282778Y0142097D01*
X0281062Y0142097D01*
X0282778Y0142531D02*
X0283762Y0142531D01*
X0283762Y0143513D02*
X0282778Y0143513D01*
X0282778Y0144496D02*
X0283762Y0144496D01*
X0283762Y0145479D02*
X0282778Y0145479D01*
X0282778Y0146462D02*
X0283762Y0146462D01*
X0283763Y0147445D02*
X0329501Y0147445D01*
X0328518Y0148427D02*
X0288601Y0148427D01*
X0288601Y0149410D02*
X0327660Y0149410D01*
X0327660Y0150393D02*
X0287844Y0150393D01*
X0286861Y0151376D02*
X0327660Y0151376D01*
X0327660Y0152358D02*
X0285879Y0152358D01*
X0283762Y0152358D02*
X0282778Y0152358D01*
X0282778Y0151376D02*
X0283762Y0151376D01*
X0283762Y0150393D02*
X0282778Y0150393D01*
X0282778Y0149410D02*
X0283762Y0149410D01*
X0283762Y0148427D02*
X0282778Y0148427D01*
X0282778Y0147445D02*
X0249609Y0147445D01*
X0249609Y0148427D02*
X0277940Y0148427D01*
X0277940Y0149410D02*
X0249609Y0149410D01*
X0249609Y0150393D02*
X0278697Y0150393D01*
X0279679Y0151376D02*
X0249609Y0151376D01*
X0249609Y0152358D02*
X0280662Y0152358D01*
X0277940Y0146462D02*
X0249609Y0146462D01*
X0249609Y0145479D02*
X0277940Y0145479D01*
X0278663Y0144496D02*
X0249609Y0144496D01*
X0249609Y0143513D02*
X0279646Y0143513D01*
X0285912Y0142531D02*
X0315987Y0142531D01*
X0315849Y0143513D02*
X0286895Y0143513D01*
X0287878Y0144496D02*
X0316006Y0144496D01*
X0316533Y0145479D02*
X0288601Y0145479D01*
X0288601Y0146462D02*
X0317941Y0146462D01*
X0323797Y0146462D02*
X0330484Y0146462D01*
X0334876Y0146462D02*
X0336322Y0146462D01*
X0336322Y0147445D02*
X0335858Y0147445D01*
X0336322Y0145479D02*
X0325205Y0145479D01*
X0325731Y0144496D02*
X0336322Y0144496D01*
X0336322Y0143513D02*
X0325888Y0143513D01*
X0325750Y0142531D02*
X0336322Y0142531D01*
X0336322Y0141548D02*
X0325250Y0141548D01*
X0323906Y0140565D02*
X0336322Y0140565D01*
X0336322Y0139582D02*
X0247542Y0139582D01*
X0247542Y0138600D02*
X0336322Y0138600D01*
X0336322Y0137617D02*
X0247542Y0137617D01*
X0247542Y0136634D02*
X0336322Y0136634D01*
X0336322Y0135651D02*
X0247542Y0135651D01*
X0247542Y0134669D02*
X0336322Y0134669D01*
X0336322Y0133686D02*
X0247542Y0133686D01*
X0247542Y0132703D02*
X0336322Y0132703D01*
X0336322Y0131720D02*
X0247542Y0131720D01*
X0247542Y0130738D02*
X0336322Y0130738D01*
X0336322Y0129755D02*
X0247542Y0129755D01*
X0247542Y0128772D02*
X0317149Y0128772D01*
X0317215Y0128838D02*
X0316329Y0127952D01*
X0315849Y0126794D01*
X0315849Y0125541D01*
X0316329Y0124384D01*
X0317215Y0123498D01*
X0318372Y0123018D01*
X0323365Y0123018D01*
X0324523Y0123498D01*
X0325409Y0124384D01*
X0325888Y0125541D01*
X0325888Y0126794D01*
X0325409Y0127952D01*
X0324523Y0128838D01*
X0323365Y0129318D01*
X0318372Y0129318D01*
X0317215Y0128838D01*
X0316261Y0127789D02*
X0247542Y0127789D01*
X0247542Y0126807D02*
X0280608Y0126807D01*
X0281150Y0127349D02*
X0278152Y0124351D01*
X0278152Y0120111D01*
X0281150Y0117113D01*
X0285390Y0117113D01*
X0288388Y0120111D01*
X0288388Y0124351D01*
X0285390Y0127349D01*
X0281150Y0127349D01*
X0279625Y0125824D02*
X0247542Y0125824D01*
X0247542Y0124841D02*
X0278642Y0124841D01*
X0278152Y0123858D02*
X0247542Y0123858D01*
X0247542Y0122875D02*
X0278152Y0122875D01*
X0278152Y0121893D02*
X0247542Y0121893D01*
X0247542Y0120910D02*
X0278152Y0120910D01*
X0278336Y0119927D02*
X0247542Y0119927D01*
X0247542Y0118944D02*
X0279319Y0118944D01*
X0280302Y0117962D02*
X0247542Y0117962D01*
X0247542Y0116979D02*
X0327660Y0116979D01*
X0327660Y0117962D02*
X0286239Y0117962D01*
X0287222Y0118944D02*
X0327660Y0118944D01*
X0327660Y0119927D02*
X0288205Y0119927D01*
X0288388Y0120910D02*
X0328197Y0120910D01*
X0329180Y0121893D02*
X0288388Y0121893D01*
X0288388Y0122875D02*
X0330162Y0122875D01*
X0325598Y0124841D02*
X0336322Y0124841D01*
X0336322Y0125824D02*
X0325888Y0125824D01*
X0325883Y0126807D02*
X0336322Y0126807D01*
X0336322Y0127789D02*
X0325476Y0127789D01*
X0324589Y0128772D02*
X0336322Y0128772D01*
X0336322Y0123858D02*
X0324883Y0123858D01*
X0316854Y0123858D02*
X0288388Y0123858D01*
X0287898Y0124841D02*
X0316139Y0124841D01*
X0315849Y0125824D02*
X0286916Y0125824D01*
X0285933Y0126807D02*
X0315854Y0126807D01*
X0327879Y0115996D02*
X0247542Y0115996D01*
X0247542Y0115013D02*
X0328861Y0115013D01*
X0329844Y0114031D02*
X0247542Y0114031D01*
X0247542Y0113048D02*
X0336322Y0113048D01*
X0336322Y0114031D02*
X0335515Y0114031D01*
X0336322Y0112065D02*
X0247542Y0112065D01*
X0247542Y0111082D02*
X0336322Y0111082D01*
X0336322Y0110100D02*
X0247542Y0110100D01*
X0247542Y0109117D02*
X0336322Y0109117D01*
X0336322Y0108134D02*
X0247542Y0108134D01*
X0247542Y0107151D02*
X0336322Y0107151D01*
X0336322Y0106168D02*
X0247542Y0106168D01*
X0247542Y0105186D02*
X0336322Y0105186D01*
X0336322Y0104203D02*
X0247542Y0104203D01*
X0247542Y0103220D02*
X0336322Y0103220D01*
X0336322Y0102237D02*
X0247542Y0102237D01*
X0247542Y0101255D02*
X0336322Y0101255D01*
X0336322Y0100272D02*
X0247542Y0100272D01*
X0247542Y0099289D02*
X0336322Y0099289D01*
X0336322Y0098306D02*
X0247542Y0098306D01*
X0247542Y0097324D02*
X0336322Y0097324D01*
X0319545Y0096341D02*
X0319415Y0096341D01*
X0319298Y0096341D02*
X0247542Y0096341D01*
X0247542Y0095358D02*
X0316769Y0095358D01*
X0315154Y0094375D02*
X0247542Y0094375D01*
X0247542Y0093393D02*
X0313864Y0093393D01*
X0312885Y0092410D02*
X0247542Y0092410D01*
X0247542Y0091427D02*
X0312149Y0091427D01*
X0311413Y0090444D02*
X0247542Y0090444D01*
X0247542Y0089462D02*
X0310869Y0089462D01*
X0310503Y0088479D02*
X0247542Y0088479D01*
X0247542Y0087496D02*
X0310112Y0087496D01*
X0309898Y0086513D02*
X0247542Y0086513D01*
X0247542Y0085530D02*
X0309681Y0085530D01*
X0309611Y0084548D02*
X0247367Y0084548D01*
X0246835Y0083565D02*
X0309541Y0083565D01*
X0309550Y0082582D02*
X0245455Y0082582D01*
X0223055Y0101255D02*
X0217831Y0101255D01*
X0218813Y0102237D02*
X0222072Y0102237D01*
X0221148Y0103220D02*
X0219796Y0103220D01*
X0219825Y0104203D02*
X0221148Y0104203D01*
X0221361Y0124597D02*
X0221361Y0128550D01*
X0217408Y0128550D01*
X0217408Y0127201D01*
X0220012Y0124597D01*
X0221361Y0124597D01*
X0221361Y0124841D02*
X0222345Y0124841D01*
X0222345Y0124597D02*
X0223694Y0124597D01*
X0226298Y0127201D01*
X0226298Y0128550D01*
X0222345Y0128550D01*
X0222345Y0129534D01*
X0221361Y0129534D01*
X0221361Y0128550D01*
X0222345Y0128550D01*
X0222345Y0124597D01*
X0222345Y0125824D02*
X0221361Y0125824D01*
X0221361Y0126807D02*
X0222345Y0126807D01*
X0222345Y0127789D02*
X0221361Y0127789D01*
X0221361Y0128772D02*
X0212109Y0128772D01*
X0212109Y0128550D02*
X0212109Y0129534D01*
X0216062Y0129534D01*
X0216062Y0130883D01*
X0213458Y0133487D01*
X0212109Y0133487D01*
X0212109Y0129534D01*
X0211125Y0129534D01*
X0211125Y0133487D01*
X0209776Y0133487D01*
X0207172Y0130883D01*
X0207172Y0129534D01*
X0211125Y0129534D01*
X0211125Y0128550D01*
X0212109Y0128550D01*
X0216062Y0128550D01*
X0216062Y0127201D01*
X0213458Y0124597D01*
X0212109Y0124597D01*
X0212109Y0128550D01*
X0212109Y0127789D02*
X0211125Y0127789D01*
X0211125Y0128550D02*
X0211125Y0124597D01*
X0209776Y0124597D01*
X0207172Y0127201D01*
X0207172Y0128550D01*
X0211125Y0128550D01*
X0211125Y0128772D02*
X0089803Y0128772D01*
X0090210Y0129755D02*
X0207172Y0129755D01*
X0207172Y0130738D02*
X0090357Y0130738D01*
X0090338Y0131720D02*
X0208009Y0131720D01*
X0208992Y0132703D02*
X0089931Y0132703D01*
X0089194Y0133686D02*
X0241046Y0133686D01*
X0241046Y0132703D02*
X0224478Y0132703D01*
X0223694Y0133487D02*
X0222345Y0133487D01*
X0222345Y0129534D01*
X0226298Y0129534D01*
X0226298Y0130883D01*
X0223694Y0133487D01*
X0222345Y0132703D02*
X0221361Y0132703D01*
X0221361Y0133487D02*
X0220012Y0133487D01*
X0217408Y0130883D01*
X0217408Y0129534D01*
X0221361Y0129534D01*
X0221361Y0133487D01*
X0221361Y0131720D02*
X0222345Y0131720D01*
X0222345Y0130738D02*
X0221361Y0130738D01*
X0221361Y0129755D02*
X0222345Y0129755D01*
X0222345Y0128772D02*
X0241046Y0128772D01*
X0241046Y0127789D02*
X0226298Y0127789D01*
X0225904Y0126807D02*
X0241046Y0126807D01*
X0241046Y0125824D02*
X0224921Y0125824D01*
X0223938Y0124841D02*
X0241046Y0124841D01*
X0241046Y0123858D02*
X0089480Y0123858D01*
X0090147Y0122875D02*
X0241046Y0122875D01*
X0241046Y0121893D02*
X0090488Y0121893D01*
X0090418Y0119927D02*
X0241046Y0119927D01*
X0241046Y0118944D02*
X0090004Y0118944D01*
X0089200Y0117962D02*
X0241046Y0117962D01*
X0241046Y0120910D02*
X0086814Y0120910D01*
X0086814Y0119927D02*
X0086026Y0119927D01*
X0086026Y0118944D02*
X0086814Y0118944D01*
X0086814Y0117962D02*
X0086026Y0117962D01*
X0088120Y0124841D02*
X0209532Y0124841D01*
X0211125Y0124841D02*
X0212109Y0124841D01*
X0212109Y0125824D02*
X0211125Y0125824D01*
X0211125Y0126807D02*
X0212109Y0126807D01*
X0213702Y0124841D02*
X0219768Y0124841D01*
X0218785Y0125824D02*
X0214685Y0125824D01*
X0215667Y0126807D02*
X0217802Y0126807D01*
X0217408Y0127789D02*
X0216062Y0127789D01*
X0216062Y0129755D02*
X0217408Y0129755D01*
X0217408Y0130738D02*
X0216062Y0130738D01*
X0215224Y0131720D02*
X0218245Y0131720D01*
X0219228Y0132703D02*
X0214242Y0132703D01*
X0212109Y0132703D02*
X0211125Y0132703D01*
X0211125Y0131720D02*
X0212109Y0131720D01*
X0212109Y0130738D02*
X0211125Y0130738D01*
X0211125Y0129755D02*
X0212109Y0129755D01*
X0214212Y0135651D02*
X0219258Y0135651D01*
X0218276Y0136634D02*
X0215194Y0136634D01*
X0215849Y0137617D02*
X0217621Y0137617D01*
X0217621Y0138600D02*
X0215849Y0138600D01*
X0215849Y0139582D02*
X0217621Y0139582D01*
X0217621Y0140565D02*
X0215849Y0140565D01*
X0213941Y0142703D02*
X0213370Y0143274D01*
X0209864Y0143274D01*
X0209293Y0142703D01*
X0173034Y0142703D01*
X0173034Y0277743D01*
X0247837Y0277743D01*
X0247837Y0194676D01*
X0244782Y0191621D01*
X0234546Y0191621D01*
X0233566Y0190641D01*
X0226278Y0183353D01*
X0225298Y0182373D01*
X0225298Y0153171D01*
X0224885Y0152759D01*
X0224510Y0151854D01*
X0224510Y0150875D01*
X0224885Y0149971D01*
X0225577Y0149279D01*
X0226482Y0148904D01*
X0227461Y0148904D01*
X0228365Y0149279D01*
X0228776Y0149689D01*
X0228822Y0149577D01*
X0229514Y0148885D01*
X0230419Y0148510D01*
X0231398Y0148510D01*
X0232302Y0148885D01*
X0232994Y0149577D01*
X0233369Y0150482D01*
X0233369Y0151461D01*
X0232994Y0152365D01*
X0232302Y0153057D01*
X0231398Y0153432D01*
X0231007Y0153432D01*
X0231007Y0166487D01*
X0231419Y0166900D01*
X0231794Y0167805D01*
X0231794Y0168783D01*
X0231419Y0169688D01*
X0230727Y0170380D01*
X0229823Y0170755D01*
X0228844Y0170755D01*
X0228644Y0170672D01*
X0228644Y0180987D01*
X0235932Y0188274D01*
X0246168Y0188274D01*
X0247148Y0189254D01*
X0247837Y0189943D01*
X0247837Y0185715D01*
X0246167Y0185715D01*
X0245262Y0185341D01*
X0244570Y0184648D01*
X0244196Y0183744D01*
X0244196Y0182765D01*
X0244570Y0181861D01*
X0245262Y0181169D01*
X0246167Y0180794D01*
X0247837Y0180794D01*
X0247837Y0142703D01*
X0224177Y0142703D01*
X0223606Y0143274D01*
X0220100Y0143274D01*
X0219529Y0142703D01*
X0213941Y0142703D01*
X0207385Y0140565D02*
X0089936Y0140565D01*
X0090343Y0139582D02*
X0207385Y0139582D01*
X0207385Y0138600D02*
X0090357Y0138600D01*
X0090205Y0137617D02*
X0207385Y0137617D01*
X0208039Y0136634D02*
X0089798Y0136634D01*
X0088873Y0135651D02*
X0209022Y0135651D01*
X0207172Y0127789D02*
X0088885Y0127789D01*
X0083042Y0136634D02*
X0064865Y0136634D01*
X0064865Y0137617D02*
X0082635Y0137617D01*
X0082483Y0138600D02*
X0064865Y0138600D01*
X0064865Y0139582D02*
X0082497Y0139582D01*
X0082904Y0140565D02*
X0064865Y0140565D01*
X0064865Y0141548D02*
X0083634Y0141548D01*
X0085220Y0142531D02*
X0064865Y0142531D01*
X0064865Y0143513D02*
X0171262Y0143513D01*
X0171262Y0142531D02*
X0087620Y0142531D01*
X0089206Y0141548D02*
X0171684Y0141548D01*
X0173034Y0143513D02*
X0247837Y0143513D01*
X0247837Y0144496D02*
X0173034Y0144496D01*
X0173034Y0145479D02*
X0247837Y0145479D01*
X0247837Y0146462D02*
X0173034Y0146462D01*
X0173034Y0147445D02*
X0247837Y0147445D01*
X0247837Y0148427D02*
X0173034Y0148427D01*
X0173034Y0149410D02*
X0225446Y0149410D01*
X0224710Y0150393D02*
X0173034Y0150393D01*
X0173034Y0151376D02*
X0224510Y0151376D01*
X0224719Y0152358D02*
X0173034Y0152358D01*
X0173034Y0153341D02*
X0225298Y0153341D01*
X0225298Y0154324D02*
X0173034Y0154324D01*
X0173034Y0155307D02*
X0225298Y0155307D01*
X0225298Y0156289D02*
X0173034Y0156289D01*
X0173034Y0157272D02*
X0225298Y0157272D01*
X0225298Y0158255D02*
X0173034Y0158255D01*
X0173034Y0159238D02*
X0225298Y0159238D01*
X0225298Y0160220D02*
X0173034Y0160220D01*
X0173034Y0161203D02*
X0225298Y0161203D01*
X0225298Y0162186D02*
X0173034Y0162186D01*
X0173034Y0163169D02*
X0225298Y0163169D01*
X0225298Y0164152D02*
X0173034Y0164152D01*
X0173034Y0165134D02*
X0225298Y0165134D01*
X0225298Y0166117D02*
X0173034Y0166117D01*
X0173034Y0167100D02*
X0225298Y0167100D01*
X0225298Y0168083D02*
X0173034Y0168083D01*
X0173034Y0169065D02*
X0225298Y0169065D01*
X0225298Y0170048D02*
X0173034Y0170048D01*
X0173034Y0171031D02*
X0225298Y0171031D01*
X0225298Y0172014D02*
X0173034Y0172014D01*
X0173034Y0172996D02*
X0225298Y0172996D01*
X0225298Y0173979D02*
X0173034Y0173979D01*
X0173034Y0174962D02*
X0225298Y0174962D01*
X0225298Y0175945D02*
X0173034Y0175945D01*
X0173034Y0176927D02*
X0225298Y0176927D01*
X0225298Y0177910D02*
X0173034Y0177910D01*
X0173034Y0178893D02*
X0225298Y0178893D01*
X0225298Y0179876D02*
X0173034Y0179876D01*
X0173034Y0180858D02*
X0225298Y0180858D01*
X0225298Y0181841D02*
X0173034Y0181841D01*
X0173034Y0182824D02*
X0225749Y0182824D01*
X0226732Y0183807D02*
X0173034Y0183807D01*
X0173034Y0184790D02*
X0227715Y0184790D01*
X0228697Y0185772D02*
X0173034Y0185772D01*
X0173034Y0186755D02*
X0229680Y0186755D01*
X0230663Y0187738D02*
X0173034Y0187738D01*
X0173034Y0188721D02*
X0231646Y0188721D01*
X0232628Y0189703D02*
X0173034Y0189703D01*
X0173034Y0190686D02*
X0218028Y0190686D01*
X0218097Y0190617D02*
X0219001Y0190243D01*
X0219980Y0190243D01*
X0220885Y0190617D01*
X0221577Y0191310D01*
X0221951Y0192214D01*
X0221951Y0193193D01*
X0221577Y0194097D01*
X0220885Y0194789D01*
X0219980Y0195164D01*
X0219001Y0195164D01*
X0218097Y0194789D01*
X0217783Y0194475D01*
X0194240Y0194475D01*
X0193999Y0194717D01*
X0193999Y0195161D01*
X0193624Y0196066D01*
X0192932Y0196758D01*
X0192027Y0197133D01*
X0191049Y0197133D01*
X0190144Y0196758D01*
X0189452Y0196066D01*
X0189077Y0195161D01*
X0189077Y0194182D01*
X0189452Y0193278D01*
X0190144Y0192586D01*
X0191049Y0192211D01*
X0191493Y0192211D01*
X0192773Y0190932D01*
X0217783Y0190932D01*
X0218097Y0190617D01*
X0219491Y0192703D02*
X0193507Y0192703D01*
X0191538Y0194672D01*
X0189259Y0195600D02*
X0173034Y0195600D01*
X0173034Y0196583D02*
X0189969Y0196583D01*
X0189077Y0194617D02*
X0173034Y0194617D01*
X0173034Y0193634D02*
X0189304Y0193634D01*
X0190078Y0192652D02*
X0173034Y0192652D01*
X0173034Y0191669D02*
X0192036Y0191669D01*
X0194098Y0194617D02*
X0217925Y0194617D01*
X0221057Y0194617D02*
X0247778Y0194617D01*
X0247837Y0195600D02*
X0193817Y0195600D01*
X0193107Y0196583D02*
X0247837Y0196583D01*
X0247837Y0197565D02*
X0173034Y0197565D01*
X0173034Y0198548D02*
X0247837Y0198548D01*
X0247837Y0199531D02*
X0173034Y0199531D01*
X0173034Y0200514D02*
X0236153Y0200514D01*
X0236207Y0200460D02*
X0237112Y0200085D01*
X0238090Y0200085D01*
X0238995Y0200460D01*
X0239687Y0201152D01*
X0240062Y0202056D01*
X0240062Y0202640D01*
X0242231Y0204810D01*
X0242815Y0204810D01*
X0243719Y0205184D01*
X0244411Y0205877D01*
X0244786Y0206781D01*
X0244786Y0207760D01*
X0244411Y0208664D01*
X0243719Y0209356D01*
X0242815Y0209731D01*
X0241836Y0209731D01*
X0240932Y0209356D01*
X0240239Y0208664D01*
X0239865Y0207760D01*
X0239865Y0207176D01*
X0237695Y0205007D01*
X0237112Y0205007D01*
X0236207Y0204632D01*
X0235515Y0203940D01*
X0235140Y0203035D01*
X0235140Y0202056D01*
X0235515Y0201152D01*
X0236207Y0200460D01*
X0235372Y0201497D02*
X0173034Y0201497D01*
X0173034Y0202479D02*
X0235140Y0202479D01*
X0235317Y0203462D02*
X0173034Y0203462D01*
X0173034Y0204445D02*
X0236020Y0204445D01*
X0238116Y0205428D02*
X0173034Y0205428D01*
X0173034Y0206410D02*
X0239099Y0206410D01*
X0239865Y0207393D02*
X0173034Y0207393D01*
X0173034Y0208376D02*
X0240120Y0208376D01*
X0240937Y0209359D02*
X0173034Y0209359D01*
X0173034Y0210341D02*
X0247837Y0210341D01*
X0247837Y0209359D02*
X0243714Y0209359D01*
X0244531Y0208376D02*
X0247837Y0208376D01*
X0247837Y0207393D02*
X0244786Y0207393D01*
X0244633Y0206410D02*
X0247837Y0206410D01*
X0247837Y0205428D02*
X0243963Y0205428D01*
X0241866Y0204445D02*
X0247837Y0204445D01*
X0247837Y0203462D02*
X0240883Y0203462D01*
X0240062Y0202479D02*
X0247837Y0202479D01*
X0247837Y0201497D02*
X0239830Y0201497D01*
X0239049Y0200514D02*
X0247837Y0200514D01*
X0252266Y0200514D02*
X0272936Y0200514D01*
X0272936Y0201497D02*
X0252266Y0201497D01*
X0252266Y0202479D02*
X0272936Y0202479D01*
X0272936Y0203462D02*
X0252266Y0203462D01*
X0252266Y0204445D02*
X0272936Y0204445D01*
X0272936Y0205428D02*
X0252266Y0205428D01*
X0252266Y0206410D02*
X0272936Y0206410D01*
X0272936Y0207393D02*
X0252266Y0207393D01*
X0252266Y0208376D02*
X0272936Y0208376D01*
X0272936Y0209359D02*
X0252266Y0209359D01*
X0252266Y0210341D02*
X0272936Y0210341D01*
X0272936Y0211324D02*
X0252266Y0211324D01*
X0252266Y0212307D02*
X0272936Y0212307D01*
X0272936Y0213290D02*
X0252266Y0213290D01*
X0252895Y0214272D02*
X0272936Y0214272D01*
X0272936Y0215255D02*
X0253054Y0215255D01*
X0252804Y0216238D02*
X0272936Y0216238D01*
X0272936Y0217221D02*
X0251997Y0217221D01*
X0249609Y0218203D02*
X0272936Y0218203D01*
X0272936Y0219186D02*
X0249609Y0219186D01*
X0249609Y0220169D02*
X0272936Y0220169D01*
X0272936Y0221152D02*
X0249609Y0221152D01*
X0249609Y0222135D02*
X0272936Y0222135D01*
X0272936Y0223117D02*
X0249609Y0223117D01*
X0249609Y0224100D02*
X0272936Y0224100D01*
X0272936Y0225083D02*
X0249609Y0225083D01*
X0249609Y0226066D02*
X0272936Y0226066D01*
X0272936Y0227048D02*
X0249609Y0227048D01*
X0249609Y0228031D02*
X0272936Y0228031D01*
X0272936Y0229014D02*
X0249609Y0229014D01*
X0249609Y0229997D02*
X0272936Y0229997D01*
X0272936Y0230979D02*
X0249609Y0230979D01*
X0249609Y0231962D02*
X0272936Y0231962D01*
X0272936Y0232945D02*
X0249609Y0232945D01*
X0249609Y0233928D02*
X0272936Y0233928D01*
X0272936Y0234910D02*
X0249609Y0234910D01*
X0249609Y0235893D02*
X0272936Y0235893D01*
X0272936Y0236876D02*
X0249609Y0236876D01*
X0249609Y0237859D02*
X0272936Y0237859D01*
X0272936Y0238842D02*
X0249609Y0238842D01*
X0249609Y0239824D02*
X0272936Y0239824D01*
X0272936Y0240807D02*
X0249609Y0240807D01*
X0249609Y0241790D02*
X0272936Y0241790D01*
X0272936Y0242773D02*
X0249609Y0242773D01*
X0249609Y0243755D02*
X0272936Y0243755D01*
X0272936Y0244184D02*
X0272936Y0186310D01*
X0267617Y0180991D01*
X0255156Y0180991D01*
X0254743Y0181404D01*
X0253839Y0181778D01*
X0252860Y0181778D01*
X0251955Y0181404D01*
X0251263Y0180711D01*
X0250888Y0179807D01*
X0250888Y0178828D01*
X0251263Y0177924D01*
X0251444Y0177743D01*
X0251263Y0177562D01*
X0250888Y0176657D01*
X0250888Y0175679D01*
X0251263Y0174774D01*
X0251955Y0174082D01*
X0252622Y0173806D01*
X0251955Y0173530D01*
X0251263Y0172837D01*
X0250888Y0171933D01*
X0250888Y0170954D01*
X0251263Y0170050D01*
X0251955Y0169358D01*
X0252860Y0168983D01*
X0253839Y0168983D01*
X0254743Y0169358D01*
X0255156Y0169770D01*
X0275097Y0169770D01*
X0277065Y0167802D01*
X0278152Y0167802D01*
X0278152Y0167355D01*
X0281150Y0164357D01*
X0285390Y0164357D01*
X0288388Y0167355D01*
X0288388Y0171595D01*
X0285390Y0174593D01*
X0281150Y0174593D01*
X0278152Y0171595D01*
X0278152Y0171448D01*
X0276483Y0173117D01*
X0255156Y0173117D01*
X0254743Y0173530D01*
X0254076Y0173806D01*
X0254743Y0174082D01*
X0255156Y0174495D01*
X0269790Y0174495D01*
X0270770Y0175475D01*
X0276877Y0181581D01*
X0277857Y0182562D01*
X0277857Y0201853D01*
X0283963Y0207959D01*
X0284944Y0208939D01*
X0284944Y0211601D01*
X0285390Y0211601D01*
X0288388Y0214599D01*
X0288388Y0218839D01*
X0285390Y0221837D01*
X0281150Y0221837D01*
X0278152Y0218839D01*
X0278152Y0214599D01*
X0281150Y0211601D01*
X0281597Y0211601D01*
X0281597Y0210326D01*
X0276282Y0205011D01*
X0276282Y0242798D01*
X0283963Y0250479D01*
X0284944Y0251459D01*
X0284944Y0258845D01*
X0285390Y0258845D01*
X0288388Y0261843D01*
X0288388Y0266083D01*
X0285390Y0269081D01*
X0281150Y0269081D01*
X0278152Y0266083D01*
X0278152Y0261843D01*
X0281150Y0258845D01*
X0281597Y0258845D01*
X0281597Y0252845D01*
X0272936Y0244184D01*
X0273490Y0244738D02*
X0249609Y0244738D01*
X0249609Y0245721D02*
X0274473Y0245721D01*
X0275455Y0246704D02*
X0249609Y0246704D01*
X0249609Y0247686D02*
X0276438Y0247686D01*
X0277421Y0248669D02*
X0249609Y0248669D01*
X0249609Y0249652D02*
X0278404Y0249652D01*
X0279386Y0250635D02*
X0249609Y0250635D01*
X0249609Y0251617D02*
X0280369Y0251617D01*
X0281352Y0252600D02*
X0249609Y0252600D01*
X0249609Y0253583D02*
X0281597Y0253583D01*
X0281597Y0254566D02*
X0249609Y0254566D01*
X0249609Y0255548D02*
X0281597Y0255548D01*
X0281597Y0256531D02*
X0249609Y0256531D01*
X0249609Y0257514D02*
X0281597Y0257514D01*
X0281597Y0258497D02*
X0249609Y0258497D01*
X0249609Y0259480D02*
X0280516Y0259480D01*
X0279533Y0260462D02*
X0249609Y0260462D01*
X0249609Y0261445D02*
X0278550Y0261445D01*
X0278152Y0262428D02*
X0249609Y0262428D01*
X0249609Y0263411D02*
X0278152Y0263411D01*
X0278152Y0264393D02*
X0249609Y0264393D01*
X0249609Y0265376D02*
X0278152Y0265376D01*
X0278428Y0266359D02*
X0249609Y0266359D01*
X0249609Y0267342D02*
X0279411Y0267342D01*
X0280393Y0268324D02*
X0249609Y0268324D01*
X0249609Y0269307D02*
X0316172Y0269307D01*
X0316329Y0269684D02*
X0315849Y0268527D01*
X0315849Y0267274D01*
X0316329Y0266116D01*
X0317215Y0265230D01*
X0318372Y0264751D01*
X0323365Y0264751D01*
X0324523Y0265230D01*
X0325409Y0266116D01*
X0325888Y0267274D01*
X0325888Y0268527D01*
X0325409Y0269684D01*
X0324523Y0270570D01*
X0323365Y0271050D01*
X0318372Y0271050D01*
X0317215Y0270570D01*
X0316329Y0269684D01*
X0316934Y0270290D02*
X0293864Y0270290D01*
X0294018Y0270443D02*
X0294392Y0271348D01*
X0294392Y0271932D01*
X0296562Y0274101D01*
X0297146Y0274101D01*
X0298050Y0274476D01*
X0298742Y0275168D01*
X0299117Y0276072D01*
X0299117Y0277051D01*
X0298742Y0277955D01*
X0298050Y0278648D01*
X0297146Y0279022D01*
X0296167Y0279022D01*
X0295262Y0278648D01*
X0294570Y0277955D01*
X0294196Y0277051D01*
X0294196Y0276467D01*
X0292026Y0274298D01*
X0291442Y0274298D01*
X0290538Y0273923D01*
X0289846Y0273231D01*
X0289471Y0272327D01*
X0289471Y0271348D01*
X0289846Y0270443D01*
X0290538Y0269751D01*
X0291442Y0269377D01*
X0292421Y0269377D01*
X0293326Y0269751D01*
X0294018Y0270443D01*
X0294361Y0271273D02*
X0336322Y0271273D01*
X0336322Y0272255D02*
X0294716Y0272255D01*
X0295699Y0273238D02*
X0336322Y0273238D01*
X0336322Y0274221D02*
X0297435Y0274221D01*
X0298757Y0275204D02*
X0336322Y0275204D01*
X0336322Y0276187D02*
X0299117Y0276187D01*
X0299068Y0277169D02*
X0336322Y0277169D01*
X0336322Y0278152D02*
X0298546Y0278152D01*
X0294767Y0278152D02*
X0249609Y0278152D01*
X0249609Y0277169D02*
X0294244Y0277169D01*
X0293915Y0276187D02*
X0249609Y0276187D01*
X0249609Y0275204D02*
X0292932Y0275204D01*
X0291257Y0274221D02*
X0249609Y0274221D01*
X0249609Y0273238D02*
X0289853Y0273238D01*
X0289471Y0272255D02*
X0249609Y0272255D01*
X0249609Y0271273D02*
X0289502Y0271273D01*
X0289999Y0270290D02*
X0249609Y0270290D01*
X0247837Y0270290D02*
X0173034Y0270290D01*
X0173034Y0271273D02*
X0247837Y0271273D01*
X0247837Y0272255D02*
X0173034Y0272255D01*
X0173034Y0273238D02*
X0247837Y0273238D01*
X0247837Y0274221D02*
X0173034Y0274221D01*
X0173034Y0275204D02*
X0247837Y0275204D01*
X0247837Y0276187D02*
X0173034Y0276187D01*
X0173034Y0277169D02*
X0247837Y0277169D01*
X0248951Y0279135D02*
X0336322Y0279135D01*
X0336322Y0280118D02*
X0172403Y0280118D01*
X0171921Y0279135D02*
X0171420Y0279135D01*
X0171262Y0278152D02*
X0170437Y0278152D01*
X0171262Y0277169D02*
X0169454Y0277169D01*
X0168472Y0276187D02*
X0171262Y0276187D01*
X0171262Y0275204D02*
X0167719Y0275204D01*
X0167719Y0275434D02*
X0178886Y0286601D01*
X0179924Y0287639D01*
X0179924Y0328477D01*
X0178886Y0329514D01*
X0165214Y0329514D01*
X0164176Y0328477D01*
X0140017Y0304318D01*
X0138979Y0303280D01*
X0138979Y0177403D01*
X0140017Y0176365D01*
X0166681Y0176365D01*
X0167719Y0177403D01*
X0167719Y0275434D01*
X0167719Y0274221D02*
X0171262Y0274221D01*
X0171262Y0273238D02*
X0167719Y0273238D01*
X0167719Y0272255D02*
X0171262Y0272255D01*
X0171262Y0271273D02*
X0167719Y0271273D01*
X0167719Y0270290D02*
X0171262Y0270290D01*
X0171262Y0269307D02*
X0167719Y0269307D01*
X0167719Y0268324D02*
X0171262Y0268324D01*
X0171262Y0267342D02*
X0167719Y0267342D01*
X0167719Y0266359D02*
X0171262Y0266359D01*
X0171262Y0265376D02*
X0167719Y0265376D01*
X0167719Y0264393D02*
X0171262Y0264393D01*
X0171262Y0263411D02*
X0167719Y0263411D01*
X0167719Y0262428D02*
X0171262Y0262428D01*
X0171262Y0261445D02*
X0167719Y0261445D01*
X0167719Y0260462D02*
X0171262Y0260462D01*
X0171262Y0259480D02*
X0167719Y0259480D01*
X0167719Y0258497D02*
X0171262Y0258497D01*
X0171262Y0257514D02*
X0167719Y0257514D01*
X0167719Y0256531D02*
X0171262Y0256531D01*
X0171262Y0255548D02*
X0167719Y0255548D01*
X0167719Y0254566D02*
X0171262Y0254566D01*
X0171262Y0253583D02*
X0167719Y0253583D01*
X0167719Y0252600D02*
X0171262Y0252600D01*
X0171262Y0251617D02*
X0167719Y0251617D01*
X0167719Y0250635D02*
X0171262Y0250635D01*
X0171262Y0249652D02*
X0167719Y0249652D01*
X0167719Y0248669D02*
X0171262Y0248669D01*
X0171262Y0247686D02*
X0167719Y0247686D01*
X0167719Y0246704D02*
X0171262Y0246704D01*
X0171262Y0245721D02*
X0167719Y0245721D01*
X0167719Y0244738D02*
X0171262Y0244738D01*
X0171262Y0243755D02*
X0167719Y0243755D01*
X0167719Y0242773D02*
X0171262Y0242773D01*
X0171262Y0241790D02*
X0167719Y0241790D01*
X0167719Y0240807D02*
X0171262Y0240807D01*
X0171262Y0239824D02*
X0167719Y0239824D01*
X0167719Y0238842D02*
X0171262Y0238842D01*
X0171262Y0237859D02*
X0167719Y0237859D01*
X0167719Y0236876D02*
X0171262Y0236876D01*
X0171262Y0235893D02*
X0167719Y0235893D01*
X0167719Y0234910D02*
X0171262Y0234910D01*
X0171262Y0233928D02*
X0167719Y0233928D01*
X0167719Y0232945D02*
X0171262Y0232945D01*
X0171262Y0231962D02*
X0167719Y0231962D01*
X0167719Y0230979D02*
X0171262Y0230979D01*
X0171262Y0229997D02*
X0167719Y0229997D01*
X0167719Y0229014D02*
X0171262Y0229014D01*
X0171262Y0228031D02*
X0167719Y0228031D01*
X0167719Y0227048D02*
X0171262Y0227048D01*
X0171262Y0226066D02*
X0167719Y0226066D01*
X0167719Y0225083D02*
X0171262Y0225083D01*
X0171262Y0224100D02*
X0167719Y0224100D01*
X0167719Y0223117D02*
X0171262Y0223117D01*
X0171262Y0222135D02*
X0167719Y0222135D01*
X0167719Y0221152D02*
X0171262Y0221152D01*
X0171262Y0220169D02*
X0167719Y0220169D01*
X0167719Y0219186D02*
X0171262Y0219186D01*
X0171262Y0218203D02*
X0167719Y0218203D01*
X0167719Y0217221D02*
X0171262Y0217221D01*
X0171262Y0216238D02*
X0167719Y0216238D01*
X0167719Y0215255D02*
X0171262Y0215255D01*
X0171262Y0214272D02*
X0167719Y0214272D01*
X0167719Y0213290D02*
X0171262Y0213290D01*
X0171262Y0212307D02*
X0167719Y0212307D01*
X0167719Y0211324D02*
X0171262Y0211324D01*
X0171262Y0210341D02*
X0167719Y0210341D01*
X0167719Y0209359D02*
X0171262Y0209359D01*
X0171262Y0208376D02*
X0167719Y0208376D01*
X0167719Y0207393D02*
X0171262Y0207393D01*
X0171262Y0206410D02*
X0167719Y0206410D01*
X0167719Y0205428D02*
X0171262Y0205428D01*
X0171262Y0204445D02*
X0167719Y0204445D01*
X0167719Y0203462D02*
X0171262Y0203462D01*
X0171262Y0202479D02*
X0167719Y0202479D01*
X0167719Y0201497D02*
X0171262Y0201497D01*
X0171262Y0200514D02*
X0167719Y0200514D01*
X0167719Y0199531D02*
X0171262Y0199531D01*
X0171262Y0198548D02*
X0167719Y0198548D01*
X0167719Y0197565D02*
X0171262Y0197565D01*
X0171262Y0196583D02*
X0167719Y0196583D01*
X0167719Y0195600D02*
X0171262Y0195600D01*
X0171262Y0194617D02*
X0167719Y0194617D01*
X0167719Y0193634D02*
X0171262Y0193634D01*
X0171262Y0192652D02*
X0167719Y0192652D01*
X0167719Y0191669D02*
X0171262Y0191669D01*
X0171262Y0190686D02*
X0167719Y0190686D01*
X0167719Y0189703D02*
X0171262Y0189703D01*
X0171262Y0188721D02*
X0167719Y0188721D01*
X0167719Y0187738D02*
X0171262Y0187738D01*
X0171262Y0186755D02*
X0167719Y0186755D01*
X0167719Y0185772D02*
X0171262Y0185772D01*
X0171262Y0184790D02*
X0167719Y0184790D01*
X0167719Y0183807D02*
X0171262Y0183807D01*
X0171262Y0182824D02*
X0167719Y0182824D01*
X0167719Y0181841D02*
X0171262Y0181841D01*
X0171262Y0180858D02*
X0167719Y0180858D01*
X0167719Y0179876D02*
X0171262Y0179876D01*
X0171262Y0178893D02*
X0167719Y0178893D01*
X0167719Y0177910D02*
X0171262Y0177910D01*
X0171262Y0176927D02*
X0167244Y0176927D01*
X0165948Y0178136D02*
X0140751Y0178136D01*
X0140751Y0302546D01*
X0165948Y0327743D01*
X0178152Y0327743D01*
X0178152Y0288373D01*
X0165948Y0276168D01*
X0165948Y0327743D01*
X0165948Y0178136D01*
X0165948Y0178893D02*
X0140751Y0178893D01*
X0140751Y0179876D02*
X0165948Y0179876D01*
X0165948Y0180858D02*
X0140751Y0180858D01*
X0140751Y0181841D02*
X0165948Y0181841D01*
X0165948Y0182824D02*
X0140751Y0182824D01*
X0140751Y0183807D02*
X0165948Y0183807D01*
X0165948Y0184790D02*
X0140751Y0184790D01*
X0140751Y0185772D02*
X0165948Y0185772D01*
X0165948Y0186755D02*
X0140751Y0186755D01*
X0140751Y0187738D02*
X0165948Y0187738D01*
X0165948Y0188721D02*
X0140751Y0188721D01*
X0140751Y0189703D02*
X0165948Y0189703D01*
X0165948Y0190686D02*
X0140751Y0190686D01*
X0140751Y0191669D02*
X0165948Y0191669D01*
X0165948Y0192652D02*
X0140751Y0192652D01*
X0140751Y0193634D02*
X0165948Y0193634D01*
X0165948Y0194617D02*
X0140751Y0194617D01*
X0140751Y0195600D02*
X0165948Y0195600D01*
X0165948Y0196583D02*
X0140751Y0196583D01*
X0140751Y0197565D02*
X0165948Y0197565D01*
X0165948Y0198548D02*
X0140751Y0198548D01*
X0140751Y0199531D02*
X0165948Y0199531D01*
X0165948Y0200514D02*
X0140751Y0200514D01*
X0140751Y0201497D02*
X0165948Y0201497D01*
X0165948Y0202479D02*
X0140751Y0202479D01*
X0140751Y0203462D02*
X0165948Y0203462D01*
X0165948Y0204445D02*
X0140751Y0204445D01*
X0140751Y0205428D02*
X0165948Y0205428D01*
X0165948Y0206410D02*
X0140751Y0206410D01*
X0140751Y0207393D02*
X0165948Y0207393D01*
X0165948Y0208376D02*
X0140751Y0208376D01*
X0140751Y0209359D02*
X0165948Y0209359D01*
X0165948Y0210341D02*
X0140751Y0210341D01*
X0140751Y0211324D02*
X0165948Y0211324D01*
X0165948Y0212307D02*
X0140751Y0212307D01*
X0140751Y0213290D02*
X0165948Y0213290D01*
X0165948Y0214272D02*
X0140751Y0214272D01*
X0140751Y0215255D02*
X0165948Y0215255D01*
X0165948Y0216238D02*
X0140751Y0216238D01*
X0140751Y0217221D02*
X0165948Y0217221D01*
X0165948Y0218203D02*
X0140751Y0218203D01*
X0140751Y0219186D02*
X0165948Y0219186D01*
X0165948Y0220169D02*
X0140751Y0220169D01*
X0140751Y0221152D02*
X0165948Y0221152D01*
X0165948Y0222135D02*
X0140751Y0222135D01*
X0140751Y0223117D02*
X0165948Y0223117D01*
X0165948Y0224100D02*
X0140751Y0224100D01*
X0140751Y0225083D02*
X0165948Y0225083D01*
X0165948Y0226066D02*
X0140751Y0226066D01*
X0140751Y0227048D02*
X0165948Y0227048D01*
X0165948Y0228031D02*
X0140751Y0228031D01*
X0140751Y0229014D02*
X0165948Y0229014D01*
X0165948Y0229997D02*
X0140751Y0229997D01*
X0140751Y0230979D02*
X0165948Y0230979D01*
X0165948Y0231962D02*
X0140751Y0231962D01*
X0140751Y0232945D02*
X0165948Y0232945D01*
X0165948Y0233928D02*
X0140751Y0233928D01*
X0140751Y0234910D02*
X0165948Y0234910D01*
X0165948Y0235893D02*
X0140751Y0235893D01*
X0140751Y0236876D02*
X0165948Y0236876D01*
X0165948Y0237859D02*
X0140751Y0237859D01*
X0140751Y0238842D02*
X0165948Y0238842D01*
X0165948Y0239824D02*
X0140751Y0239824D01*
X0140751Y0240807D02*
X0165948Y0240807D01*
X0165948Y0241790D02*
X0140751Y0241790D01*
X0140751Y0242773D02*
X0165948Y0242773D01*
X0165948Y0243755D02*
X0140751Y0243755D01*
X0140751Y0244738D02*
X0165948Y0244738D01*
X0165948Y0245721D02*
X0140751Y0245721D01*
X0140751Y0246704D02*
X0165948Y0246704D01*
X0165948Y0247686D02*
X0140751Y0247686D01*
X0140751Y0248669D02*
X0165948Y0248669D01*
X0165948Y0249652D02*
X0140751Y0249652D01*
X0140751Y0250635D02*
X0165948Y0250635D01*
X0165948Y0251617D02*
X0140751Y0251617D01*
X0140751Y0252600D02*
X0165948Y0252600D01*
X0165948Y0253583D02*
X0140751Y0253583D01*
X0140751Y0254566D02*
X0165948Y0254566D01*
X0165948Y0255548D02*
X0140751Y0255548D01*
X0140751Y0256531D02*
X0165948Y0256531D01*
X0165948Y0257514D02*
X0140751Y0257514D01*
X0140751Y0258497D02*
X0165948Y0258497D01*
X0165948Y0259480D02*
X0140751Y0259480D01*
X0140751Y0260462D02*
X0165948Y0260462D01*
X0165948Y0261445D02*
X0140751Y0261445D01*
X0140751Y0262428D02*
X0165948Y0262428D01*
X0165948Y0263411D02*
X0140751Y0263411D01*
X0140751Y0264393D02*
X0165948Y0264393D01*
X0165948Y0265376D02*
X0140751Y0265376D01*
X0140751Y0266359D02*
X0165948Y0266359D01*
X0165948Y0267342D02*
X0140751Y0267342D01*
X0140751Y0268324D02*
X0165948Y0268324D01*
X0165948Y0269307D02*
X0140751Y0269307D01*
X0140751Y0270290D02*
X0165948Y0270290D01*
X0165948Y0271273D02*
X0140751Y0271273D01*
X0140751Y0272255D02*
X0165948Y0272255D01*
X0165948Y0273238D02*
X0140751Y0273238D01*
X0140751Y0274221D02*
X0165948Y0274221D01*
X0165948Y0275204D02*
X0140751Y0275204D01*
X0140751Y0276187D02*
X0165948Y0276187D01*
X0165966Y0276187D01*
X0165948Y0277169D02*
X0166949Y0277169D01*
X0165948Y0277169D02*
X0140751Y0277169D01*
X0140751Y0278152D02*
X0165948Y0278152D01*
X0167932Y0278152D01*
X0168914Y0279135D02*
X0165948Y0279135D01*
X0140751Y0279135D01*
X0140751Y0280118D02*
X0165948Y0280118D01*
X0169897Y0280118D01*
X0170880Y0281100D02*
X0165948Y0281100D01*
X0140751Y0281100D01*
X0140751Y0282083D02*
X0165948Y0282083D01*
X0171863Y0282083D01*
X0172845Y0283066D02*
X0165948Y0283066D01*
X0140751Y0283066D01*
X0140751Y0284049D02*
X0165948Y0284049D01*
X0173828Y0284049D01*
X0174811Y0285031D02*
X0165948Y0285031D01*
X0140751Y0285031D01*
X0140751Y0286014D02*
X0165948Y0286014D01*
X0175794Y0286014D01*
X0176776Y0286997D02*
X0165948Y0286997D01*
X0140751Y0286997D01*
X0140751Y0287980D02*
X0165948Y0287980D01*
X0177759Y0287980D01*
X0178152Y0288962D02*
X0165948Y0288962D01*
X0140751Y0288962D01*
X0140751Y0289945D02*
X0165948Y0289945D01*
X0178152Y0289945D01*
X0178152Y0290928D02*
X0165948Y0290928D01*
X0140751Y0290928D01*
X0140751Y0291911D02*
X0165948Y0291911D01*
X0178152Y0291911D01*
X0178152Y0292894D02*
X0165948Y0292894D01*
X0140751Y0292894D01*
X0140751Y0293876D02*
X0165948Y0293876D01*
X0178152Y0293876D01*
X0178152Y0294859D02*
X0165948Y0294859D01*
X0140751Y0294859D01*
X0140751Y0295842D02*
X0165948Y0295842D01*
X0178152Y0295842D01*
X0178152Y0296825D02*
X0165948Y0296825D01*
X0140751Y0296825D01*
X0140751Y0297807D02*
X0165948Y0297807D01*
X0178152Y0297807D01*
X0178152Y0298790D02*
X0165948Y0298790D01*
X0140751Y0298790D01*
X0140751Y0299773D02*
X0165948Y0299773D01*
X0178152Y0299773D01*
X0178152Y0300756D02*
X0165948Y0300756D01*
X0140751Y0300756D01*
X0140751Y0301738D02*
X0165948Y0301738D01*
X0178152Y0301738D01*
X0178152Y0302721D02*
X0165948Y0302721D01*
X0140926Y0302721D01*
X0141909Y0303704D02*
X0165948Y0303704D01*
X0178152Y0303704D01*
X0178152Y0304687D02*
X0165948Y0304687D01*
X0142891Y0304687D01*
X0143874Y0305669D02*
X0165948Y0305669D01*
X0178152Y0305669D01*
X0178152Y0306652D02*
X0165948Y0306652D01*
X0144857Y0306652D01*
X0145840Y0307635D02*
X0165948Y0307635D01*
X0178152Y0307635D01*
X0178152Y0308618D02*
X0165948Y0308618D01*
X0146822Y0308618D01*
X0147805Y0309600D02*
X0165948Y0309600D01*
X0178152Y0309600D01*
X0178152Y0310583D02*
X0165948Y0310583D01*
X0148788Y0310583D01*
X0149771Y0311566D02*
X0165948Y0311566D01*
X0178152Y0311566D01*
X0178152Y0312549D02*
X0165948Y0312549D01*
X0150753Y0312549D01*
X0151736Y0313532D02*
X0165948Y0313532D01*
X0178152Y0313532D01*
X0178152Y0314514D02*
X0165948Y0314514D01*
X0152719Y0314514D01*
X0153702Y0315497D02*
X0165948Y0315497D01*
X0178152Y0315497D01*
X0178152Y0316480D02*
X0165948Y0316480D01*
X0154685Y0316480D01*
X0155667Y0317463D02*
X0165948Y0317463D01*
X0178152Y0317463D01*
X0178152Y0318445D02*
X0165948Y0318445D01*
X0156650Y0318445D01*
X0157633Y0319428D02*
X0165948Y0319428D01*
X0178152Y0319428D01*
X0178152Y0320411D02*
X0165948Y0320411D01*
X0158616Y0320411D01*
X0159598Y0321394D02*
X0165948Y0321394D01*
X0178152Y0321394D01*
X0178152Y0322376D02*
X0165948Y0322376D01*
X0160581Y0322376D01*
X0161564Y0323359D02*
X0165948Y0323359D01*
X0178152Y0323359D01*
X0178152Y0324342D02*
X0165948Y0324342D01*
X0162547Y0324342D01*
X0163529Y0325325D02*
X0165948Y0325325D01*
X0178152Y0325325D01*
X0178152Y0326307D02*
X0165948Y0326307D01*
X0164512Y0326307D01*
X0165495Y0327290D02*
X0165948Y0327290D01*
X0178152Y0327290D01*
X0179924Y0327290D02*
X0268003Y0327290D01*
X0267999Y0327322D02*
X0268108Y0326489D01*
X0268326Y0325677D01*
X0268648Y0324900D01*
X0269068Y0324172D01*
X0269580Y0323505D01*
X0270174Y0322911D01*
X0270841Y0322399D01*
X0271569Y0321978D01*
X0272346Y0321657D01*
X0273158Y0321439D01*
X0273992Y0321329D01*
X0279038Y0321329D01*
X0279038Y0327447D01*
X0279629Y0327447D01*
X0279629Y0321329D01*
X0284675Y0321329D01*
X0285508Y0321439D01*
X0286321Y0321657D01*
X0287097Y0321978D01*
X0287825Y0322399D01*
X0288492Y0322911D01*
X0289087Y0323505D01*
X0289599Y0324172D01*
X0290019Y0324900D01*
X0290341Y0325677D01*
X0290558Y0326489D01*
X0290668Y0327322D01*
X0290668Y0327447D01*
X0279629Y0327447D01*
X0279629Y0328038D01*
X0290668Y0328038D01*
X0290668Y0328163D01*
X0290558Y0328997D01*
X0290341Y0329809D01*
X0290019Y0330585D01*
X0289599Y0331313D01*
X0289087Y0331980D01*
X0288492Y0332575D01*
X0287825Y0333087D01*
X0287097Y0333507D01*
X0286321Y0333829D01*
X0285508Y0334046D01*
X0284675Y0334156D01*
X0279629Y0334156D01*
X0279629Y0328038D01*
X0279038Y0328038D01*
X0279038Y0327447D01*
X0267999Y0327447D01*
X0267999Y0327322D01*
X0267999Y0328038D02*
X0279038Y0328038D01*
X0279038Y0334156D01*
X0273992Y0334156D01*
X0273158Y0334046D01*
X0272346Y0333829D01*
X0271569Y0333507D01*
X0270841Y0333087D01*
X0270174Y0332575D01*
X0269580Y0331980D01*
X0269068Y0331313D01*
X0268648Y0330585D01*
X0268326Y0329809D01*
X0268108Y0328997D01*
X0267999Y0328163D01*
X0267999Y0328038D01*
X0268013Y0328273D02*
X0179924Y0328273D01*
X0179145Y0329256D02*
X0268178Y0329256D01*
X0268504Y0330239D02*
X0091636Y0330239D01*
X0091636Y0331221D02*
X0269015Y0331221D01*
X0269803Y0332204D02*
X0091636Y0332204D01*
X0091636Y0333187D02*
X0271015Y0333187D01*
X0268157Y0326307D02*
X0179924Y0326307D01*
X0179924Y0325325D02*
X0257404Y0325325D01*
X0256923Y0325126D02*
X0255179Y0323381D01*
X0254235Y0321102D01*
X0254235Y0308793D01*
X0255179Y0306514D01*
X0256923Y0304769D01*
X0259202Y0303825D01*
X0261669Y0303825D01*
X0263948Y0304769D01*
X0265692Y0306514D01*
X0266636Y0308793D01*
X0266636Y0321102D01*
X0265692Y0323381D01*
X0263948Y0325126D01*
X0261669Y0326070D01*
X0259202Y0326070D01*
X0256923Y0325126D01*
X0256140Y0324342D02*
X0179924Y0324342D01*
X0179924Y0323359D02*
X0255170Y0323359D01*
X0254763Y0322376D02*
X0179924Y0322376D01*
X0179924Y0321394D02*
X0254356Y0321394D01*
X0254235Y0320411D02*
X0179924Y0320411D01*
X0179924Y0319428D02*
X0239454Y0319428D01*
X0240403Y0320377D02*
X0237683Y0317658D01*
X0237683Y0316043D01*
X0242017Y0316043D01*
X0242017Y0315427D01*
X0237683Y0315427D01*
X0237683Y0313812D01*
X0240403Y0311093D01*
X0242018Y0311093D01*
X0242018Y0315427D01*
X0242633Y0315427D01*
X0242633Y0311093D01*
X0244248Y0311093D01*
X0246968Y0313812D01*
X0246968Y0315427D01*
X0242633Y0315427D01*
X0242633Y0316043D01*
X0242018Y0316043D01*
X0242018Y0320377D01*
X0240403Y0320377D01*
X0242018Y0319428D02*
X0242633Y0319428D01*
X0242633Y0320377D02*
X0242633Y0316043D01*
X0246968Y0316043D01*
X0246968Y0317658D01*
X0244248Y0320377D01*
X0242633Y0320377D01*
X0242633Y0318445D02*
X0242018Y0318445D01*
X0242018Y0317463D02*
X0242633Y0317463D01*
X0242633Y0316480D02*
X0242018Y0316480D01*
X0242017Y0315497D02*
X0179924Y0315497D01*
X0179924Y0314514D02*
X0237683Y0314514D01*
X0237964Y0313532D02*
X0179924Y0313532D01*
X0179924Y0312549D02*
X0238947Y0312549D01*
X0239929Y0311566D02*
X0179924Y0311566D01*
X0179924Y0310583D02*
X0254235Y0310583D01*
X0254235Y0309600D02*
X0244882Y0309600D01*
X0244835Y0309648D02*
X0243207Y0310322D01*
X0241444Y0310322D01*
X0239816Y0309648D01*
X0238570Y0308402D01*
X0237896Y0306773D01*
X0237896Y0305011D01*
X0238570Y0303383D01*
X0239816Y0302137D01*
X0241444Y0301463D01*
X0243207Y0301463D01*
X0244835Y0302137D01*
X0246081Y0303383D01*
X0246755Y0305011D01*
X0246755Y0306773D01*
X0246081Y0308402D01*
X0244835Y0309648D01*
X0245864Y0308618D02*
X0254307Y0308618D01*
X0254714Y0307635D02*
X0246398Y0307635D01*
X0246755Y0306652D02*
X0255122Y0306652D01*
X0256023Y0305669D02*
X0246755Y0305669D01*
X0246621Y0304687D02*
X0257123Y0304687D01*
X0263748Y0304687D02*
X0268342Y0304687D01*
X0268211Y0304370D02*
X0268211Y0301903D01*
X0269155Y0299624D01*
X0270900Y0297880D01*
X0273179Y0296936D01*
X0285488Y0296936D01*
X0287767Y0297880D01*
X0289511Y0299624D01*
X0290455Y0301903D01*
X0290455Y0304370D01*
X0289511Y0306649D01*
X0287767Y0308393D01*
X0285488Y0309337D01*
X0273179Y0309337D01*
X0270900Y0308393D01*
X0269155Y0306649D01*
X0268211Y0304370D01*
X0268211Y0303704D02*
X0246213Y0303704D01*
X0245419Y0302721D02*
X0268211Y0302721D01*
X0268279Y0301738D02*
X0243872Y0301738D01*
X0240779Y0301738D02*
X0179924Y0301738D01*
X0179924Y0300756D02*
X0268687Y0300756D01*
X0269094Y0299773D02*
X0179924Y0299773D01*
X0179924Y0298790D02*
X0269989Y0298790D01*
X0271074Y0297807D02*
X0179924Y0297807D01*
X0179924Y0296825D02*
X0329308Y0296825D01*
X0330291Y0297807D02*
X0287592Y0297807D01*
X0288677Y0298790D02*
X0336322Y0298790D01*
X0336322Y0297807D02*
X0335068Y0297807D01*
X0336051Y0296825D02*
X0336322Y0296825D01*
X0336322Y0299773D02*
X0289573Y0299773D01*
X0289980Y0300756D02*
X0336322Y0300756D01*
X0336322Y0301738D02*
X0290387Y0301738D01*
X0290455Y0302721D02*
X0336322Y0302721D01*
X0336322Y0303704D02*
X0290455Y0303704D01*
X0290324Y0304687D02*
X0336322Y0304687D01*
X0336322Y0305669D02*
X0289917Y0305669D01*
X0289508Y0306652D02*
X0336322Y0306652D01*
X0336322Y0307635D02*
X0288525Y0307635D01*
X0287225Y0308618D02*
X0336322Y0308618D01*
X0336322Y0309600D02*
X0266636Y0309600D01*
X0266636Y0310583D02*
X0336322Y0310583D01*
X0336322Y0311566D02*
X0266636Y0311566D01*
X0266636Y0312549D02*
X0336322Y0312549D01*
X0336322Y0313532D02*
X0266636Y0313532D01*
X0266636Y0314514D02*
X0336322Y0314514D01*
X0318100Y0315497D02*
X0266636Y0315497D01*
X0266636Y0316480D02*
X0315892Y0316480D01*
X0314579Y0317463D02*
X0266636Y0317463D01*
X0266636Y0318445D02*
X0313468Y0318445D01*
X0312485Y0319428D02*
X0266636Y0319428D01*
X0266636Y0320411D02*
X0311763Y0320411D01*
X0311227Y0321394D02*
X0285163Y0321394D01*
X0287787Y0322376D02*
X0310690Y0322376D01*
X0310336Y0323359D02*
X0288941Y0323359D01*
X0289697Y0324342D02*
X0309970Y0324342D01*
X0309801Y0325325D02*
X0290195Y0325325D01*
X0290510Y0326307D02*
X0309587Y0326307D01*
X0309550Y0327290D02*
X0290664Y0327290D01*
X0290654Y0328273D02*
X0309550Y0328273D01*
X0309550Y0329256D02*
X0290489Y0329256D01*
X0290163Y0330239D02*
X0309550Y0330239D01*
X0309550Y0331221D02*
X0289652Y0331221D01*
X0288863Y0332204D02*
X0309550Y0332204D01*
X0309550Y0333187D02*
X0287652Y0333187D01*
X0279629Y0333187D02*
X0279038Y0333187D01*
X0279038Y0332204D02*
X0279629Y0332204D01*
X0279629Y0331221D02*
X0279038Y0331221D01*
X0279038Y0330239D02*
X0279629Y0330239D01*
X0279629Y0329256D02*
X0279038Y0329256D01*
X0279038Y0328273D02*
X0279629Y0328273D01*
X0279629Y0327290D02*
X0279038Y0327290D01*
X0279038Y0326307D02*
X0279629Y0326307D01*
X0279629Y0325325D02*
X0279038Y0325325D01*
X0279038Y0324342D02*
X0279629Y0324342D01*
X0279629Y0323359D02*
X0279038Y0323359D01*
X0279038Y0322376D02*
X0279629Y0322376D01*
X0279629Y0321394D02*
X0279038Y0321394D01*
X0273504Y0321394D02*
X0266516Y0321394D01*
X0266109Y0322376D02*
X0270880Y0322376D01*
X0269726Y0323359D02*
X0265702Y0323359D01*
X0264732Y0324342D02*
X0268970Y0324342D01*
X0268472Y0325325D02*
X0263467Y0325325D01*
X0254235Y0319428D02*
X0245197Y0319428D01*
X0246180Y0318445D02*
X0254235Y0318445D01*
X0254235Y0317463D02*
X0246968Y0317463D01*
X0246968Y0316480D02*
X0254235Y0316480D01*
X0254235Y0315497D02*
X0242633Y0315497D01*
X0242633Y0314514D02*
X0242018Y0314514D01*
X0242018Y0313532D02*
X0242633Y0313532D01*
X0242633Y0312549D02*
X0242018Y0312549D01*
X0242018Y0311566D02*
X0242633Y0311566D01*
X0244722Y0311566D02*
X0254235Y0311566D01*
X0254235Y0312549D02*
X0245704Y0312549D01*
X0246687Y0313532D02*
X0254235Y0313532D01*
X0254235Y0314514D02*
X0246968Y0314514D01*
X0239769Y0309600D02*
X0179924Y0309600D01*
X0179924Y0308618D02*
X0238786Y0308618D01*
X0238253Y0307635D02*
X0179924Y0307635D01*
X0179924Y0306652D02*
X0237896Y0306652D01*
X0237896Y0305669D02*
X0179924Y0305669D01*
X0179924Y0304687D02*
X0238030Y0304687D01*
X0238437Y0303704D02*
X0179924Y0303704D01*
X0179924Y0302721D02*
X0239232Y0302721D01*
X0237683Y0316480D02*
X0179924Y0316480D01*
X0179924Y0317463D02*
X0237683Y0317463D01*
X0238471Y0318445D02*
X0179924Y0318445D01*
X0164955Y0329256D02*
X0091636Y0329256D01*
X0091636Y0328273D02*
X0163972Y0328273D01*
X0162989Y0327290D02*
X0091636Y0327290D01*
X0091600Y0326307D02*
X0162007Y0326307D01*
X0161024Y0325325D02*
X0091386Y0325325D01*
X0091217Y0324342D02*
X0160041Y0324342D01*
X0159058Y0323359D02*
X0090850Y0323359D01*
X0090496Y0322376D02*
X0158076Y0322376D01*
X0157093Y0321394D02*
X0089960Y0321394D01*
X0089423Y0320411D02*
X0156110Y0320411D01*
X0155127Y0319428D02*
X0088702Y0319428D01*
X0087719Y0318445D02*
X0154145Y0318445D01*
X0153162Y0317463D02*
X0086607Y0317463D01*
X0085294Y0316480D02*
X0152179Y0316480D01*
X0151196Y0315497D02*
X0083087Y0315497D01*
X0080101Y0308998D02*
X0077304Y0310156D01*
X0074276Y0310156D01*
X0071479Y0308998D01*
X0069338Y0306857D01*
X0068180Y0304060D01*
X0068180Y0301032D01*
X0069338Y0298235D01*
X0071479Y0296094D01*
X0074276Y0294936D01*
X0077304Y0294936D01*
X0080101Y0296094D01*
X0082242Y0298235D01*
X0083400Y0301032D01*
X0083400Y0304060D01*
X0082242Y0306857D01*
X0080101Y0308998D01*
X0080481Y0308618D02*
X0144317Y0308618D01*
X0145300Y0309600D02*
X0078645Y0309600D01*
X0081463Y0307635D02*
X0143334Y0307635D01*
X0142351Y0306652D02*
X0082326Y0306652D01*
X0082733Y0305669D02*
X0141369Y0305669D01*
X0140386Y0304687D02*
X0083141Y0304687D01*
X0083400Y0303704D02*
X0139403Y0303704D01*
X0138979Y0302721D02*
X0083400Y0302721D01*
X0083400Y0301738D02*
X0138979Y0301738D01*
X0138979Y0300756D02*
X0083286Y0300756D01*
X0082879Y0299773D02*
X0138979Y0299773D01*
X0138979Y0298790D02*
X0082472Y0298790D01*
X0081814Y0297807D02*
X0138979Y0297807D01*
X0138979Y0296825D02*
X0080831Y0296825D01*
X0079491Y0295842D02*
X0138979Y0295842D01*
X0138979Y0294859D02*
X0064865Y0294859D01*
X0064865Y0293876D02*
X0084666Y0293876D01*
X0084190Y0293679D02*
X0083082Y0292571D01*
X0082483Y0291124D01*
X0082483Y0289558D01*
X0083082Y0288111D01*
X0084190Y0287004D01*
X0085637Y0286404D01*
X0087203Y0286404D01*
X0088650Y0287004D01*
X0089758Y0288111D01*
X0090357Y0289558D01*
X0090357Y0291124D01*
X0089758Y0292571D01*
X0088650Y0293679D01*
X0087203Y0294278D01*
X0085637Y0294278D01*
X0084190Y0293679D01*
X0083404Y0292894D02*
X0064865Y0292894D01*
X0064865Y0291911D02*
X0082809Y0291911D01*
X0082483Y0290928D02*
X0064865Y0290928D01*
X0064865Y0289945D02*
X0082483Y0289945D01*
X0082730Y0288962D02*
X0064865Y0288962D01*
X0064865Y0287980D02*
X0083214Y0287980D01*
X0084206Y0286997D02*
X0064865Y0286997D01*
X0064865Y0286014D02*
X0138979Y0286014D01*
X0138979Y0285031D02*
X0064865Y0285031D01*
X0064865Y0284049D02*
X0084702Y0284049D01*
X0084190Y0283836D02*
X0083082Y0282729D01*
X0082483Y0281282D01*
X0082483Y0279716D01*
X0083082Y0278269D01*
X0084190Y0277161D01*
X0085637Y0276562D01*
X0087203Y0276562D01*
X0088650Y0277161D01*
X0089758Y0278269D01*
X0090357Y0279716D01*
X0090357Y0281282D01*
X0089758Y0282729D01*
X0088650Y0283836D01*
X0087203Y0284436D01*
X0085637Y0284436D01*
X0084190Y0283836D01*
X0083419Y0283066D02*
X0064865Y0283066D01*
X0064865Y0282083D02*
X0082815Y0282083D01*
X0082483Y0281100D02*
X0064865Y0281100D01*
X0064865Y0280118D02*
X0082483Y0280118D01*
X0082723Y0279135D02*
X0064865Y0279135D01*
X0064865Y0278152D02*
X0083199Y0278152D01*
X0084182Y0277169D02*
X0064865Y0277169D01*
X0064865Y0276187D02*
X0084731Y0276187D01*
X0084190Y0275962D02*
X0083082Y0274855D01*
X0082483Y0273408D01*
X0082483Y0271842D01*
X0083082Y0270395D01*
X0084190Y0269287D01*
X0085637Y0268688D01*
X0087203Y0268688D01*
X0088650Y0269287D01*
X0089758Y0270395D01*
X0090357Y0271842D01*
X0090357Y0273408D01*
X0089758Y0274855D01*
X0088650Y0275962D01*
X0087203Y0276562D01*
X0085637Y0276562D01*
X0084190Y0275962D01*
X0083431Y0275204D02*
X0064865Y0275204D01*
X0064865Y0274221D02*
X0082820Y0274221D01*
X0082483Y0273238D02*
X0064865Y0273238D01*
X0064865Y0272255D02*
X0082483Y0272255D01*
X0082719Y0271273D02*
X0064865Y0271273D01*
X0064865Y0270290D02*
X0083187Y0270290D01*
X0084170Y0269307D02*
X0064865Y0269307D01*
X0064865Y0268324D02*
X0138979Y0268324D01*
X0138979Y0267342D02*
X0064865Y0267342D01*
X0064865Y0266359D02*
X0084299Y0266359D01*
X0084245Y0266331D02*
X0083717Y0265947D01*
X0083255Y0265485D01*
X0082871Y0264957D01*
X0082574Y0264375D01*
X0082373Y0263754D01*
X0082281Y0263176D01*
X0086026Y0263176D01*
X0086026Y0262388D01*
X0086814Y0262388D01*
X0086814Y0263176D01*
X0090559Y0263176D01*
X0090467Y0263754D01*
X0090266Y0264375D01*
X0089969Y0264957D01*
X0089585Y0265485D01*
X0089123Y0265947D01*
X0088595Y0266331D01*
X0088013Y0266628D01*
X0087392Y0266830D01*
X0086814Y0266921D01*
X0086814Y0263176D01*
X0086026Y0263176D01*
X0086026Y0266921D01*
X0085448Y0266830D01*
X0084827Y0266628D01*
X0084245Y0266331D01*
X0083175Y0265376D02*
X0064865Y0265376D01*
X0064865Y0264393D02*
X0082584Y0264393D01*
X0082318Y0263411D02*
X0064865Y0263411D01*
X0064865Y0262428D02*
X0086026Y0262428D01*
X0086026Y0262388D02*
X0082281Y0262388D01*
X0082373Y0261810D01*
X0082574Y0261189D01*
X0082871Y0260607D01*
X0083255Y0260079D01*
X0083717Y0259617D01*
X0084245Y0259233D01*
X0084827Y0258937D01*
X0085448Y0258735D01*
X0086026Y0258643D01*
X0086026Y0262388D01*
X0086814Y0262388D02*
X0086814Y0258643D01*
X0087392Y0258735D01*
X0088013Y0258937D01*
X0088595Y0259233D01*
X0089123Y0259617D01*
X0089585Y0260079D01*
X0089969Y0260607D01*
X0090266Y0261189D01*
X0090467Y0261810D01*
X0090559Y0262388D01*
X0086814Y0262388D01*
X0086814Y0262428D02*
X0138979Y0262428D01*
X0138979Y0263411D02*
X0090522Y0263411D01*
X0090256Y0264393D02*
X0138979Y0264393D01*
X0138979Y0265376D02*
X0089664Y0265376D01*
X0088540Y0266359D02*
X0138979Y0266359D01*
X0138979Y0269307D02*
X0088670Y0269307D01*
X0089653Y0270290D02*
X0138979Y0270290D01*
X0138979Y0271273D02*
X0090121Y0271273D01*
X0090357Y0272255D02*
X0138979Y0272255D01*
X0138979Y0273238D02*
X0090357Y0273238D01*
X0090020Y0274221D02*
X0138979Y0274221D01*
X0138979Y0275204D02*
X0089409Y0275204D01*
X0088109Y0276187D02*
X0138979Y0276187D01*
X0138979Y0277169D02*
X0088658Y0277169D01*
X0089641Y0278152D02*
X0138979Y0278152D01*
X0138979Y0279135D02*
X0090116Y0279135D01*
X0090357Y0280118D02*
X0138979Y0280118D01*
X0138979Y0281100D02*
X0090357Y0281100D01*
X0090025Y0282083D02*
X0138979Y0282083D01*
X0138979Y0283066D02*
X0089421Y0283066D01*
X0088137Y0284049D02*
X0138979Y0284049D01*
X0138979Y0286997D02*
X0088634Y0286997D01*
X0089626Y0287980D02*
X0138979Y0287980D01*
X0138979Y0288962D02*
X0090110Y0288962D01*
X0090357Y0289945D02*
X0138979Y0289945D01*
X0138979Y0290928D02*
X0090357Y0290928D01*
X0090031Y0291911D02*
X0138979Y0291911D01*
X0138979Y0292894D02*
X0089435Y0292894D01*
X0088173Y0293876D02*
X0138979Y0293876D01*
X0146282Y0310583D02*
X0064865Y0310583D01*
X0064865Y0309600D02*
X0072935Y0309600D01*
X0071099Y0308618D02*
X0064865Y0308618D01*
X0064865Y0307635D02*
X0070117Y0307635D01*
X0069254Y0306652D02*
X0064865Y0306652D01*
X0064865Y0305669D02*
X0068847Y0305669D01*
X0068439Y0304687D02*
X0064865Y0304687D01*
X0064865Y0303704D02*
X0068180Y0303704D01*
X0068180Y0302721D02*
X0064865Y0302721D01*
X0064865Y0301738D02*
X0068180Y0301738D01*
X0068294Y0300756D02*
X0064865Y0300756D01*
X0064865Y0299773D02*
X0068701Y0299773D01*
X0069108Y0298790D02*
X0064865Y0298790D01*
X0064865Y0297807D02*
X0069766Y0297807D01*
X0070749Y0296825D02*
X0064865Y0296825D01*
X0064865Y0295842D02*
X0072089Y0295842D01*
X0064865Y0311566D02*
X0147265Y0311566D01*
X0148248Y0312549D02*
X0064865Y0312549D01*
X0064865Y0313532D02*
X0149231Y0313532D01*
X0150214Y0314514D02*
X0064865Y0314514D01*
X0091636Y0334170D02*
X0309550Y0334170D01*
X0309550Y0335152D02*
X0091636Y0335152D01*
X0091636Y0336135D02*
X0309550Y0336135D01*
X0309550Y0337118D02*
X0091636Y0337118D01*
X0091636Y0338101D02*
X0309550Y0338101D01*
X0309550Y0339083D02*
X0091636Y0339083D01*
X0091636Y0340066D02*
X0309550Y0340066D01*
X0309550Y0341049D02*
X0091636Y0341049D01*
X0086814Y0266359D02*
X0086026Y0266359D01*
X0086026Y0265376D02*
X0086814Y0265376D01*
X0086814Y0264393D02*
X0086026Y0264393D01*
X0086026Y0263411D02*
X0086814Y0263411D01*
X0086814Y0261445D02*
X0086026Y0261445D01*
X0086026Y0260462D02*
X0086814Y0260462D01*
X0086814Y0259480D02*
X0086026Y0259480D01*
X0083906Y0259480D02*
X0064865Y0259480D01*
X0064865Y0260462D02*
X0082976Y0260462D01*
X0082491Y0261445D02*
X0064865Y0261445D01*
X0064865Y0258497D02*
X0138979Y0258497D01*
X0138979Y0259480D02*
X0088934Y0259480D01*
X0089864Y0260462D02*
X0138979Y0260462D01*
X0138979Y0261445D02*
X0090349Y0261445D01*
X0082242Y0254888D02*
X0080101Y0257029D01*
X0077304Y0258188D01*
X0074276Y0258188D01*
X0071479Y0257029D01*
X0069338Y0254888D01*
X0068180Y0252091D01*
X0068180Y0249064D01*
X0069338Y0246267D01*
X0071479Y0244126D01*
X0074276Y0242967D01*
X0077304Y0242967D01*
X0080101Y0244126D01*
X0082242Y0246267D01*
X0083400Y0249064D01*
X0083400Y0252091D01*
X0082242Y0254888D01*
X0082375Y0254566D02*
X0138979Y0254566D01*
X0138979Y0255548D02*
X0081581Y0255548D01*
X0080599Y0256531D02*
X0138979Y0256531D01*
X0138979Y0257514D02*
X0078930Y0257514D01*
X0082782Y0253583D02*
X0138979Y0253583D01*
X0138979Y0252600D02*
X0083189Y0252600D01*
X0083400Y0251617D02*
X0138979Y0251617D01*
X0138979Y0250635D02*
X0083400Y0250635D01*
X0083400Y0249652D02*
X0138979Y0249652D01*
X0138979Y0248669D02*
X0083237Y0248669D01*
X0082830Y0247686D02*
X0138979Y0247686D01*
X0138979Y0246704D02*
X0082423Y0246704D01*
X0081696Y0245721D02*
X0138979Y0245721D01*
X0138979Y0244738D02*
X0080713Y0244738D01*
X0079207Y0243755D02*
X0138979Y0243755D01*
X0138979Y0242773D02*
X0064865Y0242773D01*
X0064865Y0243755D02*
X0072373Y0243755D01*
X0070867Y0244738D02*
X0064865Y0244738D01*
X0064865Y0245721D02*
X0069884Y0245721D01*
X0069157Y0246704D02*
X0064865Y0246704D01*
X0064865Y0247686D02*
X0068750Y0247686D01*
X0068343Y0248669D02*
X0064865Y0248669D01*
X0064865Y0249652D02*
X0068180Y0249652D01*
X0068180Y0250635D02*
X0064865Y0250635D01*
X0064865Y0251617D02*
X0068180Y0251617D01*
X0068391Y0252600D02*
X0064865Y0252600D01*
X0064865Y0253583D02*
X0068798Y0253583D01*
X0069205Y0254566D02*
X0064865Y0254566D01*
X0064865Y0255548D02*
X0069999Y0255548D01*
X0070981Y0256531D02*
X0064865Y0256531D01*
X0064865Y0257514D02*
X0072650Y0257514D01*
X0064865Y0241790D02*
X0138979Y0241790D01*
X0138979Y0240807D02*
X0064865Y0240807D01*
X0064865Y0239824D02*
X0138979Y0239824D01*
X0138979Y0238842D02*
X0078387Y0238842D01*
X0077304Y0239290D02*
X0074276Y0239290D01*
X0071479Y0238131D01*
X0069338Y0235991D01*
X0068180Y0233194D01*
X0068180Y0230166D01*
X0069338Y0227369D01*
X0071479Y0225228D01*
X0074276Y0224070D01*
X0077304Y0224070D01*
X0080101Y0225228D01*
X0082242Y0227369D01*
X0083400Y0230166D01*
X0083400Y0233194D01*
X0082242Y0235991D01*
X0080101Y0238131D01*
X0077304Y0239290D01*
X0080374Y0237859D02*
X0138979Y0237859D01*
X0138979Y0236876D02*
X0081356Y0236876D01*
X0082282Y0235893D02*
X0138979Y0235893D01*
X0138979Y0234910D02*
X0082689Y0234910D01*
X0083096Y0233928D02*
X0138979Y0233928D01*
X0138979Y0232945D02*
X0083400Y0232945D01*
X0083400Y0231962D02*
X0138979Y0231962D01*
X0138979Y0230979D02*
X0083400Y0230979D01*
X0083330Y0229997D02*
X0138979Y0229997D01*
X0138979Y0229014D02*
X0082923Y0229014D01*
X0082516Y0228031D02*
X0138979Y0228031D01*
X0138979Y0227048D02*
X0081921Y0227048D01*
X0080938Y0226066D02*
X0138979Y0226066D01*
X0138979Y0225083D02*
X0079750Y0225083D01*
X0077377Y0224100D02*
X0138979Y0224100D01*
X0138979Y0223117D02*
X0087915Y0223117D01*
X0087203Y0223412D02*
X0085637Y0223412D01*
X0084190Y0222813D01*
X0083082Y0221705D01*
X0082483Y0220258D01*
X0082483Y0218692D01*
X0083082Y0217245D01*
X0084190Y0216137D01*
X0085637Y0215538D01*
X0087203Y0215538D01*
X0088650Y0216137D01*
X0089758Y0217245D01*
X0090357Y0218692D01*
X0090357Y0220258D01*
X0089758Y0221705D01*
X0088650Y0222813D01*
X0087203Y0223412D01*
X0084925Y0223117D02*
X0064865Y0223117D01*
X0064865Y0222135D02*
X0083512Y0222135D01*
X0082853Y0221152D02*
X0064865Y0221152D01*
X0064865Y0220169D02*
X0082483Y0220169D01*
X0082483Y0219186D02*
X0064865Y0219186D01*
X0064865Y0218203D02*
X0082685Y0218203D01*
X0083106Y0217221D02*
X0064865Y0217221D01*
X0064865Y0216238D02*
X0084089Y0216238D01*
X0084961Y0213290D02*
X0064865Y0213290D01*
X0064865Y0214272D02*
X0138979Y0214272D01*
X0138979Y0213290D02*
X0087879Y0213290D01*
X0087203Y0213570D02*
X0085637Y0213570D01*
X0084190Y0212970D01*
X0083082Y0211863D01*
X0082483Y0210416D01*
X0082483Y0208849D01*
X0083082Y0207402D01*
X0084190Y0206295D01*
X0085637Y0205696D01*
X0087203Y0205696D01*
X0088650Y0206295D01*
X0089758Y0207402D01*
X0090357Y0208849D01*
X0090357Y0210416D01*
X0089758Y0211863D01*
X0088650Y0212970D01*
X0087203Y0213570D01*
X0089313Y0212307D02*
X0138979Y0212307D01*
X0138979Y0211324D02*
X0089981Y0211324D01*
X0090357Y0210341D02*
X0138979Y0210341D01*
X0138979Y0209359D02*
X0090357Y0209359D01*
X0090161Y0208376D02*
X0138979Y0208376D01*
X0138979Y0207393D02*
X0089748Y0207393D01*
X0088766Y0206410D02*
X0138979Y0206410D01*
X0138979Y0205428D02*
X0087850Y0205428D01*
X0087203Y0205696D02*
X0085637Y0205696D01*
X0084190Y0205096D01*
X0083082Y0203989D01*
X0082483Y0202542D01*
X0082483Y0200975D01*
X0083082Y0199528D01*
X0084190Y0198421D01*
X0085637Y0197822D01*
X0087203Y0197822D01*
X0088650Y0198421D01*
X0089758Y0199528D01*
X0090357Y0200975D01*
X0090357Y0202542D01*
X0089758Y0203989D01*
X0088650Y0205096D01*
X0087203Y0205696D01*
X0084990Y0205428D02*
X0064865Y0205428D01*
X0064865Y0206410D02*
X0084074Y0206410D01*
X0083092Y0207393D02*
X0064865Y0207393D01*
X0064865Y0208376D02*
X0082679Y0208376D01*
X0082483Y0209359D02*
X0064865Y0209359D01*
X0064865Y0210341D02*
X0082483Y0210341D01*
X0082859Y0211324D02*
X0064865Y0211324D01*
X0064865Y0212307D02*
X0083527Y0212307D01*
X0088751Y0216238D02*
X0138979Y0216238D01*
X0138979Y0217221D02*
X0089733Y0217221D01*
X0090155Y0218203D02*
X0138979Y0218203D01*
X0138979Y0219186D02*
X0090357Y0219186D01*
X0090357Y0220169D02*
X0138979Y0220169D01*
X0138979Y0221152D02*
X0089987Y0221152D01*
X0089328Y0222135D02*
X0138979Y0222135D01*
X0138979Y0215255D02*
X0064865Y0215255D01*
X0064865Y0224100D02*
X0074203Y0224100D01*
X0071830Y0225083D02*
X0064865Y0225083D01*
X0064865Y0226066D02*
X0070642Y0226066D01*
X0069659Y0227048D02*
X0064865Y0227048D01*
X0064865Y0228031D02*
X0069064Y0228031D01*
X0068657Y0229014D02*
X0064865Y0229014D01*
X0064865Y0229997D02*
X0068250Y0229997D01*
X0068180Y0230979D02*
X0064865Y0230979D01*
X0064865Y0231962D02*
X0068180Y0231962D01*
X0068180Y0232945D02*
X0064865Y0232945D01*
X0064865Y0233928D02*
X0068484Y0233928D01*
X0068891Y0234910D02*
X0064865Y0234910D01*
X0064865Y0235893D02*
X0069298Y0235893D01*
X0070224Y0236876D02*
X0064865Y0236876D01*
X0064865Y0237859D02*
X0071206Y0237859D01*
X0073194Y0238842D02*
X0064865Y0238842D01*
X0064865Y0204445D02*
X0083538Y0204445D01*
X0082864Y0203462D02*
X0064865Y0203462D01*
X0064865Y0202479D02*
X0082483Y0202479D01*
X0082483Y0201497D02*
X0064865Y0201497D01*
X0064865Y0200514D02*
X0082674Y0200514D01*
X0083081Y0199531D02*
X0064865Y0199531D01*
X0064865Y0198548D02*
X0084062Y0198548D01*
X0084827Y0195762D02*
X0084245Y0195465D01*
X0083717Y0195081D01*
X0083255Y0194619D01*
X0082871Y0194091D01*
X0082574Y0193509D01*
X0082373Y0192888D01*
X0082281Y0192310D01*
X0086026Y0192310D01*
X0086026Y0196055D01*
X0085448Y0195963D01*
X0084827Y0195762D01*
X0084510Y0195600D02*
X0064865Y0195600D01*
X0064865Y0196583D02*
X0138979Y0196583D01*
X0138979Y0197565D02*
X0064865Y0197565D01*
X0064865Y0194617D02*
X0083253Y0194617D01*
X0082638Y0193634D02*
X0064865Y0193634D01*
X0064865Y0192652D02*
X0082335Y0192652D01*
X0082281Y0191522D02*
X0082373Y0190944D01*
X0082574Y0190323D01*
X0082871Y0189741D01*
X0083255Y0189213D01*
X0083717Y0188751D01*
X0084245Y0188367D01*
X0084827Y0188070D01*
X0085448Y0187869D01*
X0086026Y0187777D01*
X0086026Y0191522D01*
X0086814Y0191522D01*
X0086814Y0192310D01*
X0090559Y0192310D01*
X0090467Y0192888D01*
X0090266Y0193509D01*
X0089969Y0194091D01*
X0089585Y0194619D01*
X0089123Y0195081D01*
X0088595Y0195465D01*
X0088013Y0195762D01*
X0087392Y0195963D01*
X0086814Y0196055D01*
X0086814Y0192310D01*
X0086026Y0192310D01*
X0086026Y0191522D01*
X0082281Y0191522D01*
X0082456Y0190686D02*
X0064865Y0190686D01*
X0064865Y0189703D02*
X0082898Y0189703D01*
X0083758Y0188721D02*
X0064865Y0188721D01*
X0064865Y0187738D02*
X0138979Y0187738D01*
X0138979Y0188721D02*
X0089082Y0188721D01*
X0089123Y0188751D02*
X0089585Y0189213D01*
X0089969Y0189741D01*
X0090266Y0190323D01*
X0090467Y0190944D01*
X0090559Y0191522D01*
X0086814Y0191522D01*
X0086814Y0187777D01*
X0087392Y0187869D01*
X0088013Y0188070D01*
X0088595Y0188367D01*
X0089123Y0188751D01*
X0089942Y0189703D02*
X0138979Y0189703D01*
X0138979Y0190686D02*
X0090383Y0190686D01*
X0090505Y0192652D02*
X0138979Y0192652D01*
X0138979Y0193634D02*
X0090202Y0193634D01*
X0089587Y0194617D02*
X0138979Y0194617D01*
X0138979Y0195600D02*
X0088330Y0195600D01*
X0086814Y0195600D02*
X0086026Y0195600D01*
X0086026Y0194617D02*
X0086814Y0194617D01*
X0086814Y0193634D02*
X0086026Y0193634D01*
X0086026Y0192652D02*
X0086814Y0192652D01*
X0086814Y0191669D02*
X0138979Y0191669D01*
X0138979Y0186755D02*
X0078671Y0186755D01*
X0077304Y0187322D02*
X0074276Y0187322D01*
X0071479Y0186163D01*
X0069338Y0184022D01*
X0068180Y0181225D01*
X0068180Y0178198D01*
X0069338Y0175400D01*
X0071479Y0173260D01*
X0074276Y0172101D01*
X0077304Y0172101D01*
X0080101Y0173260D01*
X0082242Y0175400D01*
X0083400Y0178198D01*
X0083400Y0181225D01*
X0082242Y0184022D01*
X0080101Y0186163D01*
X0077304Y0187322D01*
X0080491Y0185772D02*
X0138979Y0185772D01*
X0138979Y0184790D02*
X0081474Y0184790D01*
X0082331Y0183807D02*
X0138979Y0183807D01*
X0138979Y0182824D02*
X0082738Y0182824D01*
X0083145Y0181841D02*
X0138979Y0181841D01*
X0138979Y0180858D02*
X0083400Y0180858D01*
X0083400Y0179876D02*
X0138979Y0179876D01*
X0138979Y0178893D02*
X0083400Y0178893D01*
X0083281Y0177910D02*
X0138979Y0177910D01*
X0139454Y0176927D02*
X0082874Y0176927D01*
X0082467Y0175945D02*
X0171262Y0175945D01*
X0171262Y0174962D02*
X0081803Y0174962D01*
X0080820Y0173979D02*
X0171262Y0173979D01*
X0171262Y0172996D02*
X0079465Y0172996D01*
X0077304Y0168424D02*
X0074276Y0168424D01*
X0071479Y0167265D01*
X0069338Y0165124D01*
X0068180Y0162327D01*
X0068180Y0159300D01*
X0069338Y0156503D01*
X0071479Y0154362D01*
X0074276Y0153203D01*
X0077304Y0153203D01*
X0080101Y0154362D01*
X0082242Y0156503D01*
X0083400Y0159300D01*
X0083400Y0162327D01*
X0082242Y0165124D01*
X0080101Y0167265D01*
X0077304Y0168424D01*
X0078128Y0168083D02*
X0171262Y0168083D01*
X0171262Y0169065D02*
X0064865Y0169065D01*
X0064865Y0168083D02*
X0073452Y0168083D01*
X0071314Y0167100D02*
X0064865Y0167100D01*
X0064865Y0166117D02*
X0070331Y0166117D01*
X0069348Y0165134D02*
X0064865Y0165134D01*
X0064865Y0164152D02*
X0068935Y0164152D01*
X0068528Y0163169D02*
X0064865Y0163169D01*
X0064865Y0162186D02*
X0068180Y0162186D01*
X0068180Y0161203D02*
X0064865Y0161203D01*
X0064865Y0160220D02*
X0068180Y0160220D01*
X0068206Y0159238D02*
X0064865Y0159238D01*
X0064865Y0158255D02*
X0068613Y0158255D01*
X0069020Y0157272D02*
X0064865Y0157272D01*
X0064865Y0156289D02*
X0069552Y0156289D01*
X0070535Y0155307D02*
X0064865Y0155307D01*
X0064865Y0154324D02*
X0071571Y0154324D01*
X0073944Y0153341D02*
X0064865Y0153341D01*
X0064865Y0152358D02*
X0085184Y0152358D01*
X0085637Y0152546D02*
X0084190Y0151947D01*
X0083082Y0150839D01*
X0082483Y0149392D01*
X0082483Y0147826D01*
X0083082Y0146379D01*
X0084190Y0145271D01*
X0085637Y0144672D01*
X0087203Y0144672D01*
X0088650Y0145271D01*
X0089758Y0146379D01*
X0090357Y0147826D01*
X0090357Y0149392D01*
X0089758Y0150839D01*
X0088650Y0151947D01*
X0087203Y0152546D01*
X0085637Y0152546D01*
X0087656Y0152358D02*
X0171262Y0152358D01*
X0171262Y0151376D02*
X0089221Y0151376D01*
X0089942Y0150393D02*
X0171262Y0150393D01*
X0171262Y0149410D02*
X0090349Y0149410D01*
X0090357Y0148427D02*
X0171262Y0148427D01*
X0171262Y0147445D02*
X0090199Y0147445D01*
X0089792Y0146462D02*
X0171262Y0146462D01*
X0171262Y0145479D02*
X0088858Y0145479D01*
X0083982Y0145479D02*
X0064865Y0145479D01*
X0064865Y0144496D02*
X0171262Y0144496D01*
X0171262Y0153341D02*
X0077636Y0153341D01*
X0080009Y0154324D02*
X0171262Y0154324D01*
X0171262Y0155307D02*
X0081046Y0155307D01*
X0082028Y0156289D02*
X0171262Y0156289D01*
X0171262Y0157272D02*
X0082560Y0157272D01*
X0082967Y0158255D02*
X0171262Y0158255D01*
X0171262Y0159238D02*
X0083374Y0159238D01*
X0083400Y0160220D02*
X0171262Y0160220D01*
X0171262Y0161203D02*
X0083400Y0161203D01*
X0083400Y0162186D02*
X0171262Y0162186D01*
X0171262Y0163169D02*
X0083052Y0163169D01*
X0082645Y0164152D02*
X0171262Y0164152D01*
X0171262Y0165134D02*
X0082232Y0165134D01*
X0081249Y0166117D02*
X0171262Y0166117D01*
X0171262Y0167100D02*
X0080266Y0167100D01*
X0072115Y0172996D02*
X0064865Y0172996D01*
X0064865Y0172014D02*
X0171262Y0172014D01*
X0171262Y0171031D02*
X0064865Y0171031D01*
X0064865Y0170048D02*
X0171262Y0170048D01*
X0138979Y0198548D02*
X0088777Y0198548D01*
X0089759Y0199531D02*
X0138979Y0199531D01*
X0138979Y0200514D02*
X0090166Y0200514D01*
X0090357Y0201497D02*
X0138979Y0201497D01*
X0138979Y0202479D02*
X0090357Y0202479D01*
X0089976Y0203462D02*
X0138979Y0203462D01*
X0138979Y0204445D02*
X0089301Y0204445D01*
X0086026Y0191669D02*
X0064865Y0191669D01*
X0064865Y0186755D02*
X0072909Y0186755D01*
X0071089Y0185772D02*
X0064865Y0185772D01*
X0064865Y0184790D02*
X0070106Y0184790D01*
X0069249Y0183807D02*
X0064865Y0183807D01*
X0064865Y0182824D02*
X0068842Y0182824D01*
X0068435Y0181841D02*
X0064865Y0181841D01*
X0064865Y0180858D02*
X0068180Y0180858D01*
X0068180Y0179876D02*
X0064865Y0179876D01*
X0064865Y0178893D02*
X0068180Y0178893D01*
X0068299Y0177910D02*
X0064865Y0177910D01*
X0064865Y0176927D02*
X0068706Y0176927D01*
X0069113Y0175945D02*
X0064865Y0175945D01*
X0064865Y0174962D02*
X0069777Y0174962D01*
X0070760Y0173979D02*
X0064865Y0173979D01*
X0064865Y0151376D02*
X0083619Y0151376D01*
X0082897Y0150393D02*
X0064865Y0150393D01*
X0064865Y0149410D02*
X0082490Y0149410D01*
X0082483Y0148427D02*
X0064865Y0148427D01*
X0064865Y0147445D02*
X0082641Y0147445D01*
X0083048Y0146462D02*
X0064865Y0146462D01*
X0064865Y0115996D02*
X0073168Y0115996D01*
X0071196Y0115013D02*
X0064865Y0115013D01*
X0064865Y0114031D02*
X0070213Y0114031D01*
X0069294Y0113048D02*
X0064865Y0113048D01*
X0064865Y0112065D02*
X0068887Y0112065D01*
X0068479Y0111082D02*
X0064865Y0111082D01*
X0064865Y0110100D02*
X0068180Y0110100D01*
X0068180Y0109117D02*
X0064865Y0109117D01*
X0064865Y0108134D02*
X0068180Y0108134D01*
X0068254Y0107151D02*
X0064865Y0107151D01*
X0064865Y0106168D02*
X0068661Y0106168D01*
X0069069Y0105186D02*
X0064865Y0105186D01*
X0064865Y0104203D02*
X0069670Y0104203D01*
X0070652Y0103220D02*
X0064865Y0103220D01*
X0064865Y0102237D02*
X0071856Y0102237D01*
X0074229Y0101255D02*
X0064865Y0101255D01*
X0077351Y0101255D02*
X0173356Y0101255D01*
X0172373Y0102237D02*
X0079724Y0102237D01*
X0080928Y0103220D02*
X0171390Y0103220D01*
X0171361Y0104203D02*
X0081910Y0104203D01*
X0082511Y0105186D02*
X0171361Y0105186D01*
X0171361Y0106168D02*
X0082919Y0106168D01*
X0083326Y0107151D02*
X0171756Y0107151D01*
X0172739Y0108134D02*
X0083400Y0108134D01*
X0081771Y0096341D02*
X0081641Y0096341D01*
X0086026Y0188721D02*
X0086814Y0188721D01*
X0086814Y0189703D02*
X0086026Y0189703D01*
X0086026Y0190686D02*
X0086814Y0190686D01*
X0173034Y0211324D02*
X0247837Y0211324D01*
X0247837Y0212307D02*
X0173034Y0212307D01*
X0173034Y0213290D02*
X0247837Y0213290D01*
X0247837Y0214272D02*
X0173034Y0214272D01*
X0173034Y0215255D02*
X0247837Y0215255D01*
X0247837Y0216238D02*
X0173034Y0216238D01*
X0173034Y0217221D02*
X0247837Y0217221D01*
X0247837Y0218203D02*
X0173034Y0218203D01*
X0173034Y0219186D02*
X0247837Y0219186D01*
X0247837Y0220169D02*
X0173034Y0220169D01*
X0173034Y0221152D02*
X0247837Y0221152D01*
X0247837Y0222135D02*
X0173034Y0222135D01*
X0173034Y0223117D02*
X0247837Y0223117D01*
X0247837Y0224100D02*
X0173034Y0224100D01*
X0173034Y0225083D02*
X0247837Y0225083D01*
X0247837Y0226066D02*
X0173034Y0226066D01*
X0173034Y0227048D02*
X0247837Y0227048D01*
X0247837Y0228031D02*
X0173034Y0228031D01*
X0173034Y0229014D02*
X0247837Y0229014D01*
X0247837Y0229997D02*
X0173034Y0229997D01*
X0173034Y0230979D02*
X0247837Y0230979D01*
X0247837Y0231962D02*
X0173034Y0231962D01*
X0173034Y0232945D02*
X0247837Y0232945D01*
X0247837Y0233928D02*
X0173034Y0233928D01*
X0173034Y0234910D02*
X0247837Y0234910D01*
X0247837Y0235893D02*
X0173034Y0235893D01*
X0173034Y0236876D02*
X0247837Y0236876D01*
X0247837Y0237859D02*
X0173034Y0237859D01*
X0173034Y0238842D02*
X0247837Y0238842D01*
X0247837Y0239824D02*
X0173034Y0239824D01*
X0173034Y0240807D02*
X0247837Y0240807D01*
X0247837Y0241790D02*
X0173034Y0241790D01*
X0173034Y0242773D02*
X0247837Y0242773D01*
X0247837Y0243755D02*
X0173034Y0243755D01*
X0173034Y0244738D02*
X0247837Y0244738D01*
X0247837Y0245721D02*
X0173034Y0245721D01*
X0173034Y0246704D02*
X0247837Y0246704D01*
X0247837Y0247686D02*
X0173034Y0247686D01*
X0173034Y0248669D02*
X0247837Y0248669D01*
X0247837Y0249652D02*
X0173034Y0249652D01*
X0173034Y0250635D02*
X0247837Y0250635D01*
X0247837Y0251617D02*
X0173034Y0251617D01*
X0173034Y0252600D02*
X0247837Y0252600D01*
X0247837Y0253583D02*
X0173034Y0253583D01*
X0173034Y0254566D02*
X0247837Y0254566D01*
X0247837Y0255548D02*
X0173034Y0255548D01*
X0173034Y0256531D02*
X0247837Y0256531D01*
X0247837Y0257514D02*
X0173034Y0257514D01*
X0173034Y0258497D02*
X0247837Y0258497D01*
X0247837Y0259480D02*
X0173034Y0259480D01*
X0173034Y0260462D02*
X0247837Y0260462D01*
X0247837Y0261445D02*
X0173034Y0261445D01*
X0173034Y0262428D02*
X0247837Y0262428D01*
X0247837Y0263411D02*
X0173034Y0263411D01*
X0173034Y0264393D02*
X0247837Y0264393D01*
X0247837Y0265376D02*
X0173034Y0265376D01*
X0173034Y0266359D02*
X0247837Y0266359D01*
X0247837Y0267342D02*
X0173034Y0267342D01*
X0173034Y0268324D02*
X0247837Y0268324D01*
X0247837Y0269307D02*
X0173034Y0269307D01*
X0173385Y0281100D02*
X0336322Y0281100D01*
X0336322Y0282083D02*
X0323389Y0282083D01*
X0323365Y0282073D02*
X0324523Y0282553D01*
X0325409Y0283439D01*
X0325888Y0284597D01*
X0325888Y0285850D01*
X0325409Y0287007D01*
X0324523Y0287893D01*
X0323365Y0288373D01*
X0318372Y0288373D01*
X0317215Y0287893D01*
X0316329Y0287007D01*
X0315849Y0285850D01*
X0315849Y0284597D01*
X0316329Y0283439D01*
X0317215Y0282553D01*
X0318372Y0282073D01*
X0323365Y0282073D01*
X0325036Y0283066D02*
X0336322Y0283066D01*
X0336322Y0284049D02*
X0325661Y0284049D01*
X0325888Y0285031D02*
X0336322Y0285031D01*
X0336322Y0286014D02*
X0325820Y0286014D01*
X0325413Y0286997D02*
X0336322Y0286997D01*
X0336322Y0287980D02*
X0324314Y0287980D01*
X0327750Y0290928D02*
X0288601Y0290928D01*
X0288601Y0291368D02*
X0285478Y0294491D01*
X0283762Y0294491D01*
X0283762Y0289652D01*
X0282778Y0289652D01*
X0282778Y0288668D01*
X0277940Y0288668D01*
X0277940Y0286952D01*
X0281062Y0283829D01*
X0282778Y0283829D01*
X0282778Y0288668D01*
X0283762Y0288668D01*
X0283762Y0283829D01*
X0285478Y0283829D01*
X0288601Y0286952D01*
X0288601Y0288668D01*
X0283763Y0288668D01*
X0283763Y0289652D01*
X0288601Y0289652D01*
X0288601Y0291368D01*
X0288058Y0291911D02*
X0327660Y0291911D01*
X0327660Y0292894D02*
X0287076Y0292894D01*
X0286093Y0293876D02*
X0327660Y0293876D01*
X0327660Y0294859D02*
X0179924Y0294859D01*
X0179924Y0293876D02*
X0280448Y0293876D01*
X0281062Y0294491D02*
X0277940Y0291368D01*
X0277940Y0289652D01*
X0282778Y0289652D01*
X0282778Y0294491D01*
X0281062Y0294491D01*
X0282778Y0293876D02*
X0283762Y0293876D01*
X0283762Y0292894D02*
X0282778Y0292894D01*
X0282778Y0291911D02*
X0283762Y0291911D01*
X0283762Y0290928D02*
X0282778Y0290928D01*
X0282778Y0289945D02*
X0283762Y0289945D01*
X0283763Y0288962D02*
X0329716Y0288962D01*
X0328733Y0289945D02*
X0288601Y0289945D01*
X0288601Y0287980D02*
X0317423Y0287980D01*
X0316324Y0286997D02*
X0288601Y0286997D01*
X0287663Y0286014D02*
X0315917Y0286014D01*
X0315849Y0285031D02*
X0286680Y0285031D01*
X0285698Y0284049D02*
X0316076Y0284049D01*
X0316702Y0283066D02*
X0175351Y0283066D01*
X0176334Y0284049D02*
X0280843Y0284049D01*
X0279860Y0285031D02*
X0177316Y0285031D01*
X0178299Y0286014D02*
X0278878Y0286014D01*
X0277940Y0286997D02*
X0179282Y0286997D01*
X0179924Y0287980D02*
X0277940Y0287980D01*
X0277940Y0289945D02*
X0179924Y0289945D01*
X0179924Y0288962D02*
X0282778Y0288962D01*
X0282778Y0287980D02*
X0283762Y0287980D01*
X0283762Y0286997D02*
X0282778Y0286997D01*
X0282778Y0286014D02*
X0283762Y0286014D01*
X0283762Y0285031D02*
X0282778Y0285031D01*
X0282778Y0284049D02*
X0283762Y0284049D01*
X0277940Y0290928D02*
X0179924Y0290928D01*
X0179924Y0291911D02*
X0278482Y0291911D01*
X0279465Y0292894D02*
X0179924Y0292894D01*
X0179924Y0295842D02*
X0328326Y0295842D01*
X0335644Y0288962D02*
X0336322Y0288962D01*
X0336322Y0270290D02*
X0324803Y0270290D01*
X0325565Y0269307D02*
X0336322Y0269307D01*
X0336322Y0268324D02*
X0325888Y0268324D01*
X0325888Y0267342D02*
X0336322Y0267342D01*
X0336322Y0266359D02*
X0325509Y0266359D01*
X0324669Y0265376D02*
X0336322Y0265376D01*
X0336322Y0264393D02*
X0335412Y0264393D01*
X0329948Y0264393D02*
X0288388Y0264393D01*
X0288388Y0263411D02*
X0328965Y0263411D01*
X0327982Y0262428D02*
X0288388Y0262428D01*
X0287990Y0261445D02*
X0327660Y0261445D01*
X0327660Y0260462D02*
X0287007Y0260462D01*
X0286025Y0259480D02*
X0327660Y0259480D01*
X0327660Y0258497D02*
X0284944Y0258497D01*
X0284944Y0257514D02*
X0328093Y0257514D01*
X0329076Y0256531D02*
X0284944Y0256531D01*
X0284944Y0255548D02*
X0330059Y0255548D01*
X0330363Y0250635D02*
X0284119Y0250635D01*
X0284944Y0251617D02*
X0336322Y0251617D01*
X0336322Y0250635D02*
X0334997Y0250635D01*
X0335980Y0249652D02*
X0336322Y0249652D01*
X0336322Y0252600D02*
X0284944Y0252600D01*
X0284944Y0253583D02*
X0336322Y0253583D01*
X0336322Y0254566D02*
X0284944Y0254566D01*
X0283136Y0249652D02*
X0329380Y0249652D01*
X0328397Y0248669D02*
X0282154Y0248669D01*
X0281171Y0247686D02*
X0327660Y0247686D01*
X0327660Y0246704D02*
X0286021Y0246704D01*
X0285478Y0247247D02*
X0283762Y0247247D01*
X0283762Y0242408D01*
X0282778Y0242408D01*
X0282778Y0241424D01*
X0277940Y0241424D01*
X0277940Y0239708D01*
X0281062Y0236585D01*
X0282778Y0236585D01*
X0282778Y0241424D01*
X0283762Y0241424D01*
X0283762Y0236585D01*
X0285478Y0236585D01*
X0288601Y0239708D01*
X0288601Y0241424D01*
X0283763Y0241424D01*
X0283763Y0242408D01*
X0288601Y0242408D01*
X0288601Y0244124D01*
X0285478Y0247247D01*
X0283762Y0246704D02*
X0282778Y0246704D01*
X0282778Y0247247D02*
X0282778Y0242408D01*
X0277940Y0242408D01*
X0277940Y0244124D01*
X0281062Y0247247D01*
X0282778Y0247247D01*
X0282778Y0245721D02*
X0283762Y0245721D01*
X0283762Y0244738D02*
X0282778Y0244738D01*
X0282778Y0243755D02*
X0283762Y0243755D01*
X0283762Y0242773D02*
X0282778Y0242773D01*
X0282778Y0241790D02*
X0276282Y0241790D01*
X0276282Y0242773D02*
X0277940Y0242773D01*
X0277940Y0243755D02*
X0277240Y0243755D01*
X0278223Y0244738D02*
X0278554Y0244738D01*
X0279205Y0245721D02*
X0279536Y0245721D01*
X0280188Y0246704D02*
X0280519Y0246704D01*
X0283763Y0241790D02*
X0329644Y0241790D01*
X0328661Y0242773D02*
X0288601Y0242773D01*
X0288601Y0243755D02*
X0327679Y0243755D01*
X0327660Y0244738D02*
X0287987Y0244738D01*
X0287004Y0245721D02*
X0327660Y0245721D01*
X0324523Y0240649D02*
X0323365Y0241129D01*
X0318372Y0241129D01*
X0317215Y0240649D01*
X0316329Y0239763D01*
X0315849Y0238605D01*
X0315849Y0237352D01*
X0316329Y0236195D01*
X0317215Y0235309D01*
X0318372Y0234829D01*
X0323365Y0234829D01*
X0324523Y0235309D01*
X0325409Y0236195D01*
X0325888Y0237352D01*
X0325888Y0238605D01*
X0325409Y0239763D01*
X0324523Y0240649D01*
X0324142Y0240807D02*
X0336322Y0240807D01*
X0336322Y0239824D02*
X0325348Y0239824D01*
X0325791Y0238842D02*
X0336322Y0238842D01*
X0336322Y0237859D02*
X0325888Y0237859D01*
X0325691Y0236876D02*
X0336322Y0236876D01*
X0336322Y0235893D02*
X0325107Y0235893D01*
X0323561Y0234910D02*
X0336322Y0234910D01*
X0336322Y0233928D02*
X0276282Y0233928D01*
X0276282Y0234910D02*
X0318176Y0234910D01*
X0316630Y0235893D02*
X0276282Y0235893D01*
X0276282Y0236876D02*
X0280772Y0236876D01*
X0279789Y0237859D02*
X0276282Y0237859D01*
X0276282Y0238842D02*
X0278806Y0238842D01*
X0277940Y0239824D02*
X0276282Y0239824D01*
X0276282Y0240807D02*
X0277940Y0240807D01*
X0282778Y0240807D02*
X0283762Y0240807D01*
X0283762Y0239824D02*
X0282778Y0239824D01*
X0282778Y0238842D02*
X0283762Y0238842D01*
X0283762Y0237859D02*
X0282778Y0237859D01*
X0282778Y0236876D02*
X0283762Y0236876D01*
X0285769Y0236876D02*
X0316046Y0236876D01*
X0315849Y0237859D02*
X0286752Y0237859D01*
X0287735Y0238842D02*
X0315947Y0238842D01*
X0316390Y0239824D02*
X0288601Y0239824D01*
X0288601Y0240807D02*
X0317596Y0240807D01*
X0318372Y0223806D02*
X0317215Y0223326D01*
X0316329Y0222440D01*
X0315849Y0221283D01*
X0315849Y0220030D01*
X0316329Y0218872D01*
X0317215Y0217986D01*
X0318372Y0217507D01*
X0323365Y0217507D01*
X0324523Y0217986D01*
X0325409Y0218872D01*
X0325888Y0220030D01*
X0325888Y0221283D01*
X0325409Y0222440D01*
X0324523Y0223326D01*
X0323365Y0223806D01*
X0318372Y0223806D01*
X0317006Y0223117D02*
X0295328Y0223117D01*
X0295199Y0222806D02*
X0295573Y0223710D01*
X0295573Y0224294D01*
X0298137Y0226857D01*
X0298720Y0226857D01*
X0299625Y0227232D01*
X0300317Y0227924D01*
X0300692Y0228828D01*
X0300692Y0229807D01*
X0300317Y0230711D01*
X0299625Y0231404D01*
X0298720Y0231778D01*
X0297742Y0231778D01*
X0296837Y0231404D01*
X0296145Y0230711D01*
X0295770Y0229807D01*
X0295770Y0229223D01*
X0293207Y0226660D01*
X0292623Y0226660D01*
X0291719Y0226285D01*
X0291027Y0225593D01*
X0290652Y0224689D01*
X0290652Y0223710D01*
X0291027Y0222806D01*
X0291719Y0222113D01*
X0292623Y0221739D01*
X0293602Y0221739D01*
X0294507Y0222113D01*
X0295199Y0222806D01*
X0294528Y0222135D02*
X0316202Y0222135D01*
X0315849Y0221152D02*
X0286076Y0221152D01*
X0287059Y0220169D02*
X0315849Y0220169D01*
X0316198Y0219186D02*
X0288041Y0219186D01*
X0288388Y0218203D02*
X0316997Y0218203D01*
X0324740Y0218203D02*
X0336322Y0218203D01*
X0336322Y0217221D02*
X0335340Y0217221D01*
X0336322Y0219186D02*
X0325539Y0219186D01*
X0325888Y0220169D02*
X0336322Y0220169D01*
X0336322Y0221152D02*
X0325888Y0221152D01*
X0325536Y0222135D02*
X0336322Y0222135D01*
X0336322Y0223117D02*
X0324732Y0223117D01*
X0330019Y0217221D02*
X0288388Y0217221D01*
X0288388Y0216238D02*
X0329037Y0216238D01*
X0328054Y0215255D02*
X0288388Y0215255D01*
X0288062Y0214272D02*
X0327660Y0214272D01*
X0327660Y0213290D02*
X0287079Y0213290D01*
X0286096Y0212307D02*
X0327660Y0212307D01*
X0327660Y0211324D02*
X0284944Y0211324D01*
X0284944Y0210341D02*
X0328022Y0210341D01*
X0329004Y0209359D02*
X0284944Y0209359D01*
X0284380Y0208376D02*
X0329987Y0208376D01*
X0330434Y0203462D02*
X0279466Y0203462D01*
X0278483Y0202479D02*
X0329451Y0202479D01*
X0328468Y0201497D02*
X0277857Y0201497D01*
X0277857Y0200514D02*
X0327660Y0200514D01*
X0327660Y0199531D02*
X0285950Y0199531D01*
X0285478Y0200003D02*
X0283762Y0200003D01*
X0283762Y0195164D01*
X0282778Y0195164D01*
X0282778Y0194180D01*
X0277940Y0194180D01*
X0277940Y0192464D01*
X0281062Y0189341D01*
X0282778Y0189341D01*
X0282778Y0194180D01*
X0283762Y0194180D01*
X0283762Y0189341D01*
X0285478Y0189341D01*
X0288601Y0192464D01*
X0288601Y0194180D01*
X0283763Y0194180D01*
X0283763Y0195164D01*
X0288601Y0195164D01*
X0288601Y0196880D01*
X0285478Y0200003D01*
X0283762Y0199531D02*
X0282778Y0199531D01*
X0282778Y0200003D02*
X0281062Y0200003D01*
X0277940Y0196880D01*
X0277940Y0195164D01*
X0282778Y0195164D01*
X0282778Y0200003D01*
X0282778Y0198548D02*
X0283762Y0198548D01*
X0283762Y0197565D02*
X0282778Y0197565D01*
X0282778Y0196583D02*
X0283762Y0196583D01*
X0283762Y0195600D02*
X0282778Y0195600D01*
X0282778Y0194617D02*
X0277857Y0194617D01*
X0277857Y0193634D02*
X0277940Y0193634D01*
X0277940Y0192652D02*
X0277857Y0192652D01*
X0277857Y0191669D02*
X0278735Y0191669D01*
X0277857Y0190686D02*
X0279717Y0190686D01*
X0280700Y0189703D02*
X0277857Y0189703D01*
X0277857Y0188721D02*
X0316559Y0188721D01*
X0316329Y0188951D02*
X0317215Y0188065D01*
X0318372Y0187585D01*
X0323365Y0187585D01*
X0324523Y0188065D01*
X0325409Y0188951D01*
X0325888Y0190108D01*
X0325888Y0191361D01*
X0325409Y0192519D01*
X0324523Y0193405D01*
X0323365Y0193884D01*
X0318372Y0193884D01*
X0317215Y0193405D01*
X0316329Y0192519D01*
X0315849Y0191361D01*
X0315849Y0190108D01*
X0316329Y0188951D01*
X0316017Y0189703D02*
X0285841Y0189703D01*
X0286823Y0190686D02*
X0315849Y0190686D01*
X0315976Y0191669D02*
X0287806Y0191669D01*
X0288601Y0192652D02*
X0316461Y0192652D01*
X0317768Y0193634D02*
X0288601Y0193634D01*
X0288601Y0195600D02*
X0328590Y0195600D01*
X0327660Y0196583D02*
X0288601Y0196583D01*
X0287916Y0197565D02*
X0327660Y0197565D01*
X0327660Y0198548D02*
X0286933Y0198548D01*
X0283763Y0194617D02*
X0329573Y0194617D01*
X0330555Y0193634D02*
X0323969Y0193634D01*
X0325276Y0192652D02*
X0336322Y0192652D01*
X0336322Y0193634D02*
X0334804Y0193634D01*
X0335787Y0194617D02*
X0336322Y0194617D01*
X0336322Y0191669D02*
X0325761Y0191669D01*
X0325888Y0190686D02*
X0336322Y0190686D01*
X0336322Y0189703D02*
X0325721Y0189703D01*
X0325179Y0188721D02*
X0336322Y0188721D01*
X0336322Y0187738D02*
X0323734Y0187738D01*
X0318004Y0187738D02*
X0277857Y0187738D01*
X0277857Y0186755D02*
X0336322Y0186755D01*
X0336322Y0185772D02*
X0277857Y0185772D01*
X0277857Y0184790D02*
X0336322Y0184790D01*
X0336322Y0183807D02*
X0277857Y0183807D01*
X0277857Y0182824D02*
X0336322Y0182824D01*
X0336322Y0181841D02*
X0277137Y0181841D01*
X0276877Y0181581D02*
X0276877Y0181581D01*
X0276154Y0180858D02*
X0336322Y0180858D01*
X0336322Y0179876D02*
X0275171Y0179876D01*
X0274188Y0178893D02*
X0336322Y0178893D01*
X0336322Y0177910D02*
X0273206Y0177910D01*
X0272223Y0176927D02*
X0336322Y0176927D01*
X0336322Y0175945D02*
X0324660Y0175945D01*
X0324523Y0176082D02*
X0323365Y0176562D01*
X0318372Y0176562D01*
X0317215Y0176082D01*
X0316329Y0175196D01*
X0315849Y0174039D01*
X0315849Y0172786D01*
X0316329Y0171628D01*
X0317215Y0170742D01*
X0318372Y0170262D01*
X0323365Y0170262D01*
X0324523Y0170742D01*
X0325409Y0171628D01*
X0325888Y0172786D01*
X0325888Y0174039D01*
X0325409Y0175196D01*
X0324523Y0176082D01*
X0325506Y0174962D02*
X0336322Y0174962D01*
X0336322Y0173979D02*
X0325888Y0173979D01*
X0325888Y0172996D02*
X0336322Y0172996D01*
X0336322Y0172014D02*
X0325569Y0172014D01*
X0324812Y0171031D02*
X0336322Y0171031D01*
X0336322Y0170048D02*
X0335269Y0170048D01*
X0336251Y0169065D02*
X0336322Y0169065D01*
X0330091Y0170048D02*
X0288388Y0170048D01*
X0288388Y0169065D02*
X0329108Y0169065D01*
X0328125Y0168083D02*
X0288388Y0168083D01*
X0288133Y0167100D02*
X0327660Y0167100D01*
X0327660Y0166117D02*
X0287150Y0166117D01*
X0286168Y0165134D02*
X0327660Y0165134D01*
X0327660Y0164152D02*
X0249609Y0164152D01*
X0249609Y0165134D02*
X0280373Y0165134D01*
X0279390Y0166117D02*
X0249609Y0166117D01*
X0249609Y0167100D02*
X0278407Y0167100D01*
X0276785Y0168083D02*
X0249609Y0168083D01*
X0249609Y0169065D02*
X0252661Y0169065D01*
X0254037Y0169065D02*
X0275802Y0169065D01*
X0277586Y0172014D02*
X0278571Y0172014D01*
X0279554Y0172996D02*
X0276603Y0172996D01*
X0280536Y0173979D02*
X0254495Y0173979D01*
X0252203Y0173979D02*
X0249609Y0173979D01*
X0249609Y0172996D02*
X0251422Y0172996D01*
X0250922Y0172014D02*
X0249609Y0172014D01*
X0249609Y0171031D02*
X0250888Y0171031D01*
X0251265Y0170048D02*
X0249609Y0170048D01*
X0247837Y0170048D02*
X0231059Y0170048D01*
X0231677Y0169065D02*
X0247837Y0169065D01*
X0247837Y0168083D02*
X0231794Y0168083D01*
X0231502Y0167100D02*
X0247837Y0167100D01*
X0247837Y0166117D02*
X0231007Y0166117D01*
X0231007Y0165134D02*
X0247837Y0165134D01*
X0247837Y0164152D02*
X0231007Y0164152D01*
X0231007Y0163169D02*
X0247837Y0163169D01*
X0247837Y0162186D02*
X0231007Y0162186D01*
X0231007Y0161203D02*
X0247837Y0161203D01*
X0247837Y0160220D02*
X0231007Y0160220D01*
X0231007Y0159238D02*
X0247837Y0159238D01*
X0247837Y0158255D02*
X0231007Y0158255D01*
X0231007Y0157272D02*
X0247837Y0157272D01*
X0247837Y0156289D02*
X0231007Y0156289D01*
X0231007Y0155307D02*
X0247837Y0155307D01*
X0247837Y0154324D02*
X0231007Y0154324D01*
X0231616Y0153341D02*
X0247837Y0153341D01*
X0247837Y0152358D02*
X0232997Y0152358D01*
X0233369Y0151376D02*
X0247837Y0151376D01*
X0247837Y0150393D02*
X0233332Y0150393D01*
X0232827Y0149410D02*
X0247837Y0149410D01*
X0249609Y0153341D02*
X0327660Y0153341D01*
X0328540Y0154324D02*
X0249609Y0154324D01*
X0249609Y0155307D02*
X0329523Y0155307D01*
X0330505Y0156289D02*
X0249609Y0156289D01*
X0251876Y0157272D02*
X0336322Y0157272D01*
X0336322Y0156289D02*
X0334854Y0156289D01*
X0335837Y0155307D02*
X0336322Y0155307D01*
X0336322Y0158255D02*
X0261981Y0158255D01*
X0263128Y0159238D02*
X0336322Y0159238D01*
X0336322Y0160220D02*
X0264496Y0160220D01*
X0264865Y0161203D02*
X0329916Y0161203D01*
X0328933Y0162186D02*
X0264825Y0162186D01*
X0264316Y0163169D02*
X0327950Y0163169D01*
X0335444Y0161203D02*
X0336322Y0161203D01*
X0316926Y0171031D02*
X0288388Y0171031D01*
X0287970Y0172014D02*
X0316169Y0172014D01*
X0315849Y0172996D02*
X0286987Y0172996D01*
X0286004Y0173979D02*
X0315849Y0173979D01*
X0316232Y0174962D02*
X0270257Y0174962D01*
X0270770Y0175475D02*
X0270770Y0175475D01*
X0271240Y0175945D02*
X0317077Y0175945D01*
X0335908Y0202479D02*
X0336322Y0202479D01*
X0336322Y0203462D02*
X0334926Y0203462D01*
X0336322Y0204445D02*
X0280449Y0204445D01*
X0281432Y0205428D02*
X0336322Y0205428D01*
X0336322Y0206410D02*
X0282414Y0206410D01*
X0283397Y0207393D02*
X0336322Y0207393D01*
X0336322Y0208376D02*
X0335372Y0208376D01*
X0336322Y0224100D02*
X0295573Y0224100D01*
X0296363Y0225083D02*
X0336322Y0225083D01*
X0336322Y0226066D02*
X0297345Y0226066D01*
X0299183Y0227048D02*
X0336322Y0227048D01*
X0336322Y0228031D02*
X0300361Y0228031D01*
X0300692Y0229014D02*
X0336322Y0229014D01*
X0336322Y0229997D02*
X0300613Y0229997D01*
X0300049Y0230979D02*
X0336322Y0230979D01*
X0336322Y0231962D02*
X0276282Y0231962D01*
X0276282Y0230979D02*
X0296413Y0230979D01*
X0295849Y0229997D02*
X0276282Y0229997D01*
X0276282Y0229014D02*
X0295561Y0229014D01*
X0294578Y0228031D02*
X0276282Y0228031D01*
X0276282Y0227048D02*
X0293595Y0227048D01*
X0291499Y0226066D02*
X0276282Y0226066D01*
X0276282Y0225083D02*
X0290815Y0225083D01*
X0290652Y0224100D02*
X0276282Y0224100D01*
X0276282Y0223117D02*
X0290898Y0223117D01*
X0291698Y0222135D02*
X0276282Y0222135D01*
X0276282Y0221152D02*
X0280465Y0221152D01*
X0279482Y0220169D02*
X0276282Y0220169D01*
X0276282Y0219186D02*
X0278499Y0219186D01*
X0278152Y0218203D02*
X0276282Y0218203D01*
X0276282Y0217221D02*
X0278152Y0217221D01*
X0278152Y0216238D02*
X0276282Y0216238D01*
X0276282Y0215255D02*
X0278152Y0215255D01*
X0278479Y0214272D02*
X0276282Y0214272D01*
X0276282Y0213290D02*
X0279462Y0213290D01*
X0280444Y0212307D02*
X0276282Y0212307D01*
X0276282Y0211324D02*
X0281597Y0211324D01*
X0281597Y0210341D02*
X0276282Y0210341D01*
X0276282Y0209359D02*
X0280630Y0209359D01*
X0279647Y0208376D02*
X0276282Y0208376D01*
X0276282Y0207393D02*
X0278665Y0207393D01*
X0277682Y0206410D02*
X0276282Y0206410D01*
X0276282Y0205428D02*
X0276699Y0205428D01*
X0277857Y0199531D02*
X0280591Y0199531D01*
X0279608Y0198548D02*
X0277857Y0198548D01*
X0277857Y0197565D02*
X0278625Y0197565D01*
X0277940Y0196583D02*
X0277857Y0196583D01*
X0277857Y0195600D02*
X0277940Y0195600D01*
X0272936Y0195600D02*
X0252266Y0195600D01*
X0252266Y0196583D02*
X0272936Y0196583D01*
X0272936Y0197565D02*
X0252266Y0197565D01*
X0252266Y0198548D02*
X0272936Y0198548D01*
X0272936Y0199531D02*
X0252266Y0199531D01*
X0252266Y0194617D02*
X0272936Y0194617D01*
X0272936Y0193634D02*
X0251528Y0193634D01*
X0250546Y0192652D02*
X0272936Y0192652D01*
X0272936Y0191669D02*
X0249609Y0191669D01*
X0249609Y0190686D02*
X0272936Y0190686D01*
X0272936Y0189703D02*
X0249609Y0189703D01*
X0249609Y0188721D02*
X0272936Y0188721D01*
X0272936Y0187738D02*
X0249609Y0187738D01*
X0249609Y0186755D02*
X0272936Y0186755D01*
X0272398Y0185772D02*
X0249609Y0185772D01*
X0249609Y0184790D02*
X0271415Y0184790D01*
X0270433Y0183807D02*
X0249609Y0183807D01*
X0249609Y0182824D02*
X0269450Y0182824D01*
X0268467Y0181841D02*
X0249609Y0181841D01*
X0249609Y0180858D02*
X0251410Y0180858D01*
X0250917Y0179876D02*
X0249609Y0179876D01*
X0249609Y0178893D02*
X0250888Y0178893D01*
X0251277Y0177910D02*
X0249609Y0177910D01*
X0249609Y0176927D02*
X0251000Y0176927D01*
X0250888Y0175945D02*
X0249609Y0175945D01*
X0249609Y0174962D02*
X0251185Y0174962D01*
X0247837Y0174962D02*
X0228644Y0174962D01*
X0228644Y0175945D02*
X0247837Y0175945D01*
X0247837Y0176927D02*
X0228644Y0176927D01*
X0228644Y0177910D02*
X0247837Y0177910D01*
X0247837Y0178893D02*
X0228644Y0178893D01*
X0228644Y0179876D02*
X0247837Y0179876D01*
X0246011Y0180858D02*
X0228644Y0180858D01*
X0229499Y0181841D02*
X0244590Y0181841D01*
X0244196Y0182824D02*
X0230482Y0182824D01*
X0231464Y0183807D02*
X0244222Y0183807D01*
X0244711Y0184790D02*
X0232447Y0184790D01*
X0233430Y0185772D02*
X0247837Y0185772D01*
X0247837Y0186755D02*
X0234413Y0186755D01*
X0235395Y0187738D02*
X0247837Y0187738D01*
X0247837Y0188721D02*
X0246614Y0188721D01*
X0247597Y0189703D02*
X0247837Y0189703D01*
X0245813Y0192652D02*
X0221951Y0192652D01*
X0221769Y0193634D02*
X0246796Y0193634D01*
X0244830Y0191669D02*
X0221726Y0191669D01*
X0220953Y0190686D02*
X0233611Y0190686D01*
X0228644Y0173979D02*
X0247837Y0173979D01*
X0247837Y0172996D02*
X0228644Y0172996D01*
X0228644Y0172014D02*
X0247837Y0172014D01*
X0247837Y0171031D02*
X0228644Y0171031D01*
X0228496Y0149410D02*
X0228989Y0149410D01*
X0225461Y0131720D02*
X0241046Y0131720D01*
X0241046Y0130738D02*
X0226298Y0130738D01*
X0226298Y0129755D02*
X0241046Y0129755D01*
X0251494Y0162186D02*
X0259983Y0162186D01*
X0260492Y0163169D02*
X0249609Y0163169D01*
X0282778Y0189703D02*
X0283762Y0189703D01*
X0283762Y0190686D02*
X0282778Y0190686D01*
X0282778Y0191669D02*
X0283762Y0191669D01*
X0283762Y0192652D02*
X0282778Y0192652D01*
X0282778Y0193634D02*
X0283762Y0193634D01*
X0276282Y0232945D02*
X0336322Y0232945D01*
X0336322Y0241790D02*
X0335715Y0241790D01*
X0335301Y0255548D02*
X0336322Y0255548D01*
X0336284Y0256531D02*
X0336322Y0256531D01*
X0317069Y0265376D02*
X0288388Y0265376D01*
X0288113Y0266359D02*
X0316228Y0266359D01*
X0315849Y0267342D02*
X0287130Y0267342D01*
X0286147Y0268324D02*
X0315849Y0268324D01*
X0318349Y0282083D02*
X0174368Y0282083D01*
X0264848Y0305669D02*
X0268750Y0305669D01*
X0269159Y0306652D02*
X0265750Y0306652D01*
X0266157Y0307635D02*
X0270141Y0307635D01*
X0271442Y0308618D02*
X0266564Y0308618D01*
X0335197Y0122875D02*
X0336322Y0122875D01*
X0336322Y0121893D02*
X0336180Y0121893D01*
D20*
X0316735Y0139948D03*
X0316735Y0187192D03*
X0293113Y0224199D03*
X0298231Y0229318D03*
X0316735Y0234436D03*
X0291932Y0271837D03*
X0296656Y0276562D03*
X0316341Y0281680D03*
X0250593Y0215144D03*
X0242325Y0207270D03*
X0237601Y0202546D03*
X0246262Y0198609D03*
X0237995Y0186010D03*
X0246656Y0183255D03*
X0253349Y0179318D03*
X0253349Y0176168D03*
X0253349Y0171444D03*
X0250593Y0167900D03*
X0250199Y0159633D03*
X0258073Y0156483D03*
X0262404Y0161601D03*
X0257286Y0131286D03*
X0244294Y0121050D03*
X0244294Y0109239D03*
X0244294Y0097428D03*
X0244294Y0085617D03*
X0217522Y0147822D03*
X0226971Y0151365D03*
X0230908Y0150971D03*
X0229333Y0168294D03*
X0212010Y0175381D03*
X0219491Y0192703D03*
X0223822Y0202546D03*
X0223822Y0220262D03*
X0220278Y0255302D03*
X0217916Y0256877D03*
X0220278Y0258451D03*
X0217916Y0260026D03*
X0220278Y0261601D03*
X0217916Y0263176D03*
X0220278Y0264751D03*
X0217916Y0266325D03*
X0220278Y0267900D03*
X0217916Y0269475D03*
X0220278Y0271050D03*
X0217916Y0272625D03*
X0220278Y0274199D03*
X0175003Y0292310D03*
X0171066Y0292310D03*
X0173034Y0296247D03*
X0171066Y0300184D03*
X0175003Y0300184D03*
X0173034Y0304121D03*
X0171066Y0308058D03*
X0175003Y0308058D03*
X0173034Y0311995D03*
X0171066Y0315932D03*
X0175003Y0315932D03*
X0173034Y0319869D03*
X0171066Y0323806D03*
X0175003Y0323806D03*
X0163192Y0262782D03*
X0163192Y0258845D03*
X0159255Y0260814D03*
X0155318Y0262782D03*
X0155318Y0258845D03*
X0151381Y0260814D03*
X0147444Y0262782D03*
X0147444Y0258845D03*
X0143507Y0260814D03*
X0147444Y0191916D03*
X0147444Y0187979D03*
X0151381Y0189948D03*
X0155318Y0191916D03*
X0155318Y0187979D03*
X0159255Y0189948D03*
X0143507Y0189948D03*
X0155318Y0168294D03*
X0159255Y0168294D03*
X0155318Y0164357D03*
X0155318Y0160420D03*
X0184845Y0178924D03*
X0191538Y0194672D03*
D21*
X0246656Y0183255D02*
X0249018Y0183255D01*
X0250199Y0182073D01*
X0250199Y0183255D01*
X0250199Y0184436D01*
X0249018Y0183255D01*
X0250199Y0183255D01*
D22*
X0253349Y0179318D02*
X0268310Y0179318D01*
X0274609Y0185617D01*
X0274609Y0243491D01*
X0283270Y0252152D01*
X0283270Y0263963D01*
X0291932Y0271837D02*
X0296656Y0276562D01*
X0298231Y0229318D02*
X0293113Y0224199D01*
X0283270Y0216719D02*
X0283270Y0209633D01*
X0276184Y0202546D01*
X0276184Y0183255D01*
X0269097Y0176168D01*
X0253349Y0176168D01*
X0253349Y0171444D02*
X0275790Y0171444D01*
X0277759Y0169475D01*
X0283270Y0169475D01*
X0250593Y0195066D02*
X0250593Y0215144D01*
X0242325Y0207270D02*
X0237601Y0202546D01*
X0235239Y0189948D02*
X0245475Y0189948D01*
X0250593Y0195066D01*
X0235239Y0189948D02*
X0226971Y0181680D01*
X0226971Y0151365D01*
X0229333Y0152546D02*
X0230908Y0150971D01*
X0229333Y0152546D02*
X0229333Y0168294D01*
D23*
X0247444Y0159633D02*
X0250199Y0159633D01*
D24*
X0244294Y0144278D02*
X0244294Y0121050D01*
X0244294Y0109239D01*
X0244294Y0097428D01*
X0244294Y0085617D01*
D25*
X0250199Y0159633D02*
X0260436Y0159633D01*
X0262404Y0161601D01*
M02*
