G75*
%MOIN*%
%OFA0B0*%
%FSLAX25Y25*%
%IPPOS*%
%LPD*%
%AMOC8*
5,1,8,0,0,1.08239X$1,22.5*
%
%ADD10C,0.16142*%
%ADD11OC8,0.07874*%
%ADD12C,0.04134*%
%ADD13C,0.12992*%
%ADD14C,0.13055*%
%ADD15C,0.05709*%
%ADD16C,0.10236*%
%ADD17OC8,0.08071*%
%ADD18OC8,0.06299*%
%ADD19OC8,0.06694*%
%ADD20C,0.06694*%
D10*
X0043113Y0048215D03*
X0043113Y0363176D03*
X0358073Y0363176D03*
X0358073Y0048215D03*
D11*
X0332680Y0118294D03*
X0332680Y0151365D03*
X0332680Y0165538D03*
X0332680Y0198609D03*
X0332680Y0212782D03*
X0332680Y0245853D03*
X0332680Y0260026D03*
X0332680Y0293097D03*
D12*
X0322739Y0285223D02*
X0318999Y0285223D01*
X0318999Y0267900D02*
X0322739Y0267900D01*
X0322739Y0237979D02*
X0318999Y0237979D01*
X0318999Y0220656D02*
X0322739Y0220656D01*
X0322739Y0190735D02*
X0318999Y0190735D01*
X0318999Y0173412D02*
X0322739Y0173412D01*
X0322739Y0143491D02*
X0318999Y0143491D01*
X0318999Y0126168D02*
X0322739Y0126168D01*
D13*
X0322640Y0083648D03*
X0322640Y0327743D03*
X0078546Y0327743D03*
X0078546Y0083648D03*
D14*
X0075790Y0108845D03*
X0075790Y0160814D03*
X0075790Y0179711D03*
X0075790Y0231680D03*
X0075790Y0250577D03*
X0075790Y0302546D03*
D15*
X0086420Y0290341D03*
X0086420Y0280499D03*
X0086420Y0272625D03*
X0086420Y0262782D03*
X0086420Y0219475D03*
X0086420Y0209633D03*
X0086420Y0201759D03*
X0086420Y0191916D03*
X0086420Y0148609D03*
X0086420Y0138766D03*
X0086420Y0130892D03*
X0086420Y0121050D03*
D16*
X0260436Y0310026D02*
X0260436Y0319869D01*
X0274412Y0327743D02*
X0284255Y0327743D01*
X0284255Y0303136D02*
X0274412Y0303136D01*
D17*
X0283270Y0289160D03*
X0283270Y0263963D03*
X0283270Y0241916D03*
X0283270Y0216719D03*
X0283270Y0194672D03*
X0283270Y0169475D03*
X0283270Y0147428D03*
X0283270Y0122231D03*
D18*
X0225593Y0105003D03*
X0215593Y0105003D03*
X0205593Y0105003D03*
X0195593Y0105003D03*
X0185593Y0105003D03*
X0175593Y0105003D03*
X0211617Y0129042D03*
X0211617Y0139042D03*
X0221853Y0139042D03*
X0221853Y0129042D03*
D19*
X0242325Y0315735D03*
D20*
X0242325Y0305892D03*
M02*
