G75*
%MOIN*%
%OFA0B0*%
%FSLAX25Y25*%
%IPPOS*%
%LPD*%
%AMOC8*
5,1,8,0,0,1.08239X$1,22.5*
%
%ADD10C,0.00800*%
%ADD11C,0.00787*%
%ADD12C,0.00984*%
%ADD13R,0.01575X0.01575*%
%ADD14R,0.03346X0.00984*%
%ADD15R,0.02953X0.00984*%
%ADD16R,0.02362X0.00787*%
%ADD17R,0.02165X0.00787*%
%ADD18R,0.00591X0.00591*%
%ADD19R,0.03543X0.01378*%
%ADD20R,0.01181X0.00787*%
%ADD21C,0.01575*%
%ADD22R,0.01181X0.01181*%
D10*
X0094694Y0076173D02*
X0095874Y0074993D01*
X0098234Y0074993D01*
X0099414Y0076173D01*
X0099414Y0082073D01*
X0101944Y0080893D02*
X0101944Y0079713D01*
X0103124Y0078533D01*
X0105484Y0078533D01*
X0106664Y0077353D01*
X0106664Y0076173D01*
X0105484Y0074993D01*
X0103124Y0074993D01*
X0101944Y0076173D01*
X0101944Y0080893D02*
X0103124Y0082073D01*
X0105484Y0082073D01*
X0106664Y0080893D01*
X0109195Y0082073D02*
X0109195Y0074993D01*
X0112735Y0074993D01*
X0113915Y0076173D01*
X0113915Y0077353D01*
X0112735Y0078533D01*
X0109195Y0078533D01*
X0112735Y0078533D02*
X0113915Y0079713D01*
X0113915Y0080893D01*
X0112735Y0082073D01*
X0109195Y0082073D01*
X0116445Y0078533D02*
X0121165Y0078533D01*
X0123695Y0079713D02*
X0128415Y0074993D01*
X0130945Y0076173D02*
X0132125Y0074993D01*
X0134485Y0074993D01*
X0135665Y0076173D01*
X0135665Y0077353D01*
X0134485Y0078533D01*
X0133305Y0078533D01*
X0134485Y0078533D02*
X0135665Y0079713D01*
X0135665Y0080893D01*
X0134485Y0082073D01*
X0132125Y0082073D01*
X0130945Y0080893D01*
X0128415Y0079713D02*
X0123695Y0074993D01*
X0119985Y0074993D02*
X0119985Y0082073D01*
X0116445Y0078533D01*
X0094694Y0076173D02*
X0094694Y0082073D01*
X0095083Y0110033D02*
X0095738Y0110687D01*
X0095083Y0110033D02*
X0093774Y0110033D01*
X0093119Y0110687D01*
X0093119Y0113306D01*
X0093774Y0113960D01*
X0095083Y0113960D01*
X0095738Y0113306D01*
X0097469Y0113306D02*
X0097469Y0110687D01*
X0098124Y0110033D01*
X0099433Y0110033D01*
X0100088Y0110687D01*
X0100088Y0113306D01*
X0099433Y0113960D01*
X0098124Y0113960D01*
X0097469Y0113306D01*
X0101820Y0113960D02*
X0104438Y0110033D01*
X0104438Y0113960D01*
X0106170Y0113960D02*
X0108788Y0113960D01*
X0108788Y0113306D01*
X0106170Y0110687D01*
X0106170Y0110033D01*
X0101820Y0110033D02*
X0101820Y0113960D01*
X0103219Y0132415D02*
X0105838Y0132415D01*
X0106492Y0133070D01*
X0106492Y0134379D01*
X0105838Y0135034D01*
X0106492Y0136765D02*
X0106492Y0139384D01*
X0106492Y0138075D02*
X0102565Y0138075D01*
X0103874Y0136765D01*
X0103219Y0135034D02*
X0102565Y0134379D01*
X0102565Y0133070D01*
X0103219Y0132415D01*
X0099012Y0133070D02*
X0099012Y0134379D01*
X0098357Y0135034D01*
X0099012Y0136765D02*
X0099012Y0139384D01*
X0099012Y0138075D02*
X0095084Y0138075D01*
X0096394Y0136765D01*
X0095739Y0135034D02*
X0095084Y0134379D01*
X0095084Y0133070D01*
X0095739Y0132415D01*
X0098357Y0132415D01*
X0099012Y0133070D01*
X0098357Y0141115D02*
X0097048Y0141115D01*
X0097048Y0143079D01*
X0097703Y0143734D01*
X0098357Y0143734D01*
X0099012Y0143079D01*
X0099012Y0141770D01*
X0098357Y0141115D01*
X0097048Y0141115D02*
X0095739Y0142425D01*
X0095084Y0143734D01*
X0102565Y0143079D02*
X0103219Y0143734D01*
X0105838Y0141115D01*
X0106492Y0141770D01*
X0106492Y0143079D01*
X0105838Y0143734D01*
X0103219Y0143734D01*
X0102565Y0143079D02*
X0102565Y0141770D01*
X0103219Y0141115D01*
X0105838Y0141115D01*
X0121177Y0152946D02*
X0122486Y0152946D01*
X0121832Y0152946D02*
X0121832Y0156874D01*
X0122486Y0156874D02*
X0121177Y0156874D01*
X0124077Y0156219D02*
X0124077Y0153601D01*
X0124732Y0152946D01*
X0126041Y0152946D01*
X0126696Y0153601D01*
X0128427Y0153601D02*
X0129082Y0152946D01*
X0130391Y0152946D01*
X0131046Y0153601D01*
X0131046Y0154910D01*
X0130391Y0155564D01*
X0129737Y0155564D01*
X0128427Y0154910D01*
X0128427Y0156874D01*
X0131046Y0156874D01*
X0126696Y0156219D02*
X0126041Y0156874D01*
X0124732Y0156874D01*
X0124077Y0156219D01*
X0125009Y0145063D02*
X0126973Y0145063D01*
X0127627Y0144408D01*
X0127627Y0143099D01*
X0126973Y0142444D01*
X0125009Y0142444D01*
X0125009Y0141135D02*
X0125009Y0145063D01*
X0126318Y0142444D02*
X0127627Y0141135D01*
X0129359Y0141135D02*
X0131978Y0141135D01*
X0130668Y0141135D02*
X0130668Y0145063D01*
X0129359Y0143753D01*
X0133709Y0144408D02*
X0134364Y0145063D01*
X0135673Y0145063D01*
X0136328Y0144408D01*
X0136328Y0143753D01*
X0135673Y0143099D01*
X0136328Y0142444D01*
X0136328Y0141790D01*
X0135673Y0141135D01*
X0134364Y0141135D01*
X0133709Y0141790D01*
X0135019Y0143099D02*
X0135673Y0143099D01*
X0135634Y0139551D02*
X0133670Y0139551D01*
X0133670Y0135623D01*
X0133670Y0134826D02*
X0135634Y0134826D01*
X0136289Y0134172D01*
X0136289Y0132863D01*
X0135634Y0132208D01*
X0133670Y0132208D01*
X0133670Y0130899D02*
X0133670Y0134826D01*
X0133670Y0136932D02*
X0135634Y0136932D01*
X0136289Y0137587D01*
X0136289Y0138896D01*
X0135634Y0139551D01*
X0138021Y0139551D02*
X0140639Y0139551D01*
X0140639Y0138896D01*
X0138021Y0136278D01*
X0138021Y0135623D01*
X0138675Y0134826D02*
X0138021Y0134172D01*
X0138021Y0133517D01*
X0138675Y0132863D01*
X0139984Y0132863D01*
X0140639Y0132208D01*
X0140639Y0131553D01*
X0139984Y0130899D01*
X0138675Y0130899D01*
X0138021Y0131553D01*
X0138021Y0132208D01*
X0138675Y0132863D01*
X0139984Y0132863D02*
X0140639Y0133517D01*
X0140639Y0134172D01*
X0139984Y0134826D01*
X0138675Y0134826D01*
X0136289Y0135623D02*
X0134980Y0136932D01*
X0134980Y0132208D02*
X0136289Y0130899D01*
X0135673Y0129708D02*
X0133709Y0127744D01*
X0136328Y0127744D01*
X0135673Y0125781D02*
X0135673Y0129708D01*
X0130668Y0129708D02*
X0130668Y0125781D01*
X0129359Y0125781D02*
X0131978Y0125781D01*
X0129359Y0128399D02*
X0130668Y0129708D01*
X0127627Y0129054D02*
X0127627Y0127744D01*
X0126973Y0127090D01*
X0125009Y0127090D01*
X0126318Y0127090D02*
X0127627Y0125781D01*
X0125009Y0125781D02*
X0125009Y0129708D01*
X0126973Y0129708D01*
X0127627Y0129054D01*
X0161190Y0096637D02*
X0163809Y0092710D01*
X0165541Y0092710D02*
X0168159Y0092710D01*
X0166850Y0092710D02*
X0166850Y0096637D01*
X0165541Y0095328D01*
X0163809Y0096637D02*
X0161190Y0092710D01*
X0156236Y0082073D02*
X0152696Y0082073D01*
X0152696Y0074993D01*
X0156236Y0074993D01*
X0157416Y0076173D01*
X0157416Y0077353D01*
X0156236Y0078533D01*
X0152696Y0078533D01*
X0150166Y0076173D02*
X0150166Y0082073D01*
X0145446Y0082073D02*
X0145446Y0076173D01*
X0146626Y0074993D01*
X0148986Y0074993D01*
X0150166Y0076173D01*
X0142916Y0074993D02*
X0142916Y0082073D01*
X0142916Y0078533D02*
X0138196Y0078533D01*
X0138196Y0074993D02*
X0138196Y0082073D01*
X0156236Y0082073D02*
X0157416Y0080893D01*
X0157416Y0079713D01*
X0156236Y0078533D01*
X0183667Y0119068D02*
X0183667Y0121032D01*
X0184322Y0121687D01*
X0185631Y0121687D01*
X0186285Y0121032D01*
X0186285Y0119068D01*
X0186285Y0120377D02*
X0187595Y0121687D01*
X0187595Y0123418D02*
X0184976Y0126037D01*
X0184322Y0126037D01*
X0183667Y0125382D01*
X0183667Y0124073D01*
X0184322Y0123418D01*
X0187595Y0123418D02*
X0187595Y0126037D01*
X0193510Y0124728D02*
X0194819Y0123418D01*
X0194164Y0121687D02*
X0195473Y0121687D01*
X0196128Y0121032D01*
X0196128Y0119068D01*
X0197437Y0119068D02*
X0193510Y0119068D01*
X0193510Y0121032D01*
X0194164Y0121687D01*
X0196128Y0120377D02*
X0197437Y0121687D01*
X0197437Y0123418D02*
X0197437Y0126037D01*
X0197437Y0124728D02*
X0193510Y0124728D01*
X0200181Y0128242D02*
X0200181Y0139842D01*
X0201777Y0137856D02*
X0202432Y0138511D01*
X0203741Y0138511D01*
X0204396Y0137856D01*
X0204396Y0135892D01*
X0205705Y0135892D02*
X0201777Y0135892D01*
X0201777Y0137856D01*
X0202432Y0134160D02*
X0201777Y0133506D01*
X0201777Y0132196D01*
X0202432Y0131542D01*
X0203086Y0131542D01*
X0203741Y0132196D01*
X0203741Y0133506D01*
X0204396Y0134160D01*
X0205050Y0134160D01*
X0205705Y0133506D01*
X0205705Y0132196D01*
X0205050Y0131542D01*
X0205705Y0129951D02*
X0205705Y0128642D01*
X0205705Y0129296D02*
X0201777Y0129296D01*
X0201777Y0128642D02*
X0201777Y0129951D01*
X0209491Y0121440D02*
X0211584Y0118300D01*
X0213116Y0118300D02*
X0215209Y0120393D01*
X0215209Y0120917D01*
X0214686Y0121440D01*
X0213639Y0121440D01*
X0213116Y0120917D01*
X0211584Y0121440D02*
X0209491Y0118300D01*
X0213116Y0118300D02*
X0215209Y0118300D01*
X0219727Y0118300D02*
X0221820Y0121440D01*
X0223352Y0120917D02*
X0223876Y0121440D01*
X0224922Y0121440D01*
X0225445Y0120917D01*
X0225445Y0120393D01*
X0224922Y0119870D01*
X0225445Y0119347D01*
X0225445Y0118824D01*
X0224922Y0118300D01*
X0223876Y0118300D01*
X0223352Y0118824D01*
X0224399Y0119870D02*
X0224922Y0119870D01*
X0221820Y0118300D02*
X0219727Y0121440D01*
X0227740Y0123167D02*
X0227740Y0144917D01*
X0228326Y0145859D02*
X0228326Y0149787D01*
X0230290Y0149787D01*
X0230945Y0149132D01*
X0230945Y0147823D01*
X0230290Y0147169D01*
X0228326Y0147169D01*
X0229635Y0147169D02*
X0230945Y0145859D01*
X0232676Y0145859D02*
X0235295Y0148478D01*
X0235295Y0149132D01*
X0234640Y0149787D01*
X0233331Y0149787D01*
X0232676Y0149132D01*
X0232676Y0145859D02*
X0235295Y0145859D01*
X0237027Y0146514D02*
X0237681Y0145859D01*
X0238990Y0145859D01*
X0239645Y0146514D01*
X0239645Y0147823D01*
X0238990Y0148478D01*
X0238336Y0148478D01*
X0237027Y0147823D01*
X0237027Y0149787D01*
X0239645Y0149787D01*
X0233264Y0142276D02*
X0229336Y0142276D01*
X0229336Y0140967D02*
X0229336Y0143586D01*
X0229336Y0139236D02*
X0229336Y0136617D01*
X0233264Y0136617D01*
X0233264Y0139236D01*
X0231300Y0137926D02*
X0231300Y0136617D01*
X0231955Y0134885D02*
X0231300Y0134231D01*
X0231300Y0132922D01*
X0230646Y0132267D01*
X0229991Y0132267D01*
X0229336Y0132922D01*
X0229336Y0134231D01*
X0229991Y0134885D01*
X0231955Y0134885D02*
X0232609Y0134885D01*
X0233264Y0134231D01*
X0233264Y0132922D01*
X0232609Y0132267D01*
X0233264Y0130535D02*
X0233264Y0127917D01*
X0229336Y0127917D01*
X0229336Y0130535D01*
X0231300Y0129226D02*
X0231300Y0127917D01*
X0231300Y0126185D02*
X0231955Y0125530D01*
X0231955Y0123567D01*
X0231955Y0124876D02*
X0233264Y0126185D01*
X0231300Y0126185D02*
X0229991Y0126185D01*
X0229336Y0125530D01*
X0229336Y0123567D01*
X0233264Y0123567D01*
X0229615Y0113173D02*
X0226997Y0110554D01*
X0227652Y0111209D02*
X0229615Y0109245D01*
X0226997Y0109245D02*
X0226997Y0113173D01*
X0225265Y0112518D02*
X0225265Y0111864D01*
X0224611Y0111209D01*
X0222647Y0111209D01*
X0224611Y0111209D02*
X0225265Y0110554D01*
X0225265Y0109900D01*
X0224611Y0109245D01*
X0222647Y0109245D01*
X0222647Y0113173D01*
X0224611Y0113173D01*
X0225265Y0112518D01*
X0251855Y0115938D02*
X0251855Y0119078D01*
X0253425Y0119078D01*
X0253948Y0118554D01*
X0253948Y0117508D01*
X0253425Y0116985D01*
X0251855Y0116985D01*
X0252901Y0116985D02*
X0253948Y0115938D01*
X0255480Y0115938D02*
X0257573Y0118031D01*
X0257573Y0118554D01*
X0257050Y0119078D01*
X0256003Y0119078D01*
X0255480Y0118554D01*
X0255480Y0115938D02*
X0257573Y0115938D01*
X0259105Y0115938D02*
X0259105Y0116461D01*
X0261198Y0118554D01*
X0261198Y0119078D01*
X0259105Y0119078D01*
X0259628Y0107267D02*
X0260675Y0107267D01*
X0261198Y0106743D01*
X0261198Y0106220D01*
X0260675Y0105697D01*
X0259628Y0105697D01*
X0259105Y0106220D01*
X0259105Y0106743D01*
X0259628Y0107267D01*
X0259628Y0105697D02*
X0259105Y0105174D01*
X0259105Y0104650D01*
X0259628Y0104127D01*
X0260675Y0104127D01*
X0261198Y0104650D01*
X0261198Y0105174D01*
X0260675Y0105697D01*
X0257573Y0106220D02*
X0257573Y0106743D01*
X0257050Y0107267D01*
X0256003Y0107267D01*
X0255480Y0106743D01*
X0253948Y0106743D02*
X0253948Y0105697D01*
X0253425Y0105174D01*
X0251855Y0105174D01*
X0252901Y0105174D02*
X0253948Y0104127D01*
X0255480Y0104127D02*
X0257573Y0106220D01*
X0257573Y0104127D02*
X0255480Y0104127D01*
X0253948Y0106743D02*
X0253425Y0107267D01*
X0251855Y0107267D01*
X0251855Y0104127D01*
X0251855Y0095456D02*
X0253425Y0095456D01*
X0253948Y0094932D01*
X0253948Y0093886D01*
X0253425Y0093363D01*
X0251855Y0093363D01*
X0252901Y0093363D02*
X0253948Y0092316D01*
X0255480Y0092316D02*
X0257573Y0094409D01*
X0257573Y0094932D01*
X0257050Y0095456D01*
X0256003Y0095456D01*
X0255480Y0094932D01*
X0255480Y0092316D02*
X0257573Y0092316D01*
X0259105Y0092839D02*
X0259628Y0092316D01*
X0260675Y0092316D01*
X0261198Y0092839D01*
X0261198Y0094932D01*
X0260675Y0095456D01*
X0259628Y0095456D01*
X0259105Y0094932D01*
X0259105Y0094409D01*
X0259628Y0093886D01*
X0261198Y0093886D01*
X0251855Y0092316D02*
X0251855Y0095456D01*
X0251855Y0083645D02*
X0253425Y0083645D01*
X0253948Y0083121D01*
X0253948Y0082075D01*
X0253425Y0081552D01*
X0251855Y0081552D01*
X0252901Y0081552D02*
X0253948Y0080505D01*
X0255480Y0081028D02*
X0256003Y0080505D01*
X0257050Y0080505D01*
X0257573Y0081028D01*
X0257573Y0081552D01*
X0257050Y0082075D01*
X0256526Y0082075D01*
X0257050Y0082075D02*
X0257573Y0082598D01*
X0257573Y0083121D01*
X0257050Y0083645D01*
X0256003Y0083645D01*
X0255480Y0083121D01*
X0259105Y0083121D02*
X0259628Y0083645D01*
X0260675Y0083645D01*
X0261198Y0083121D01*
X0259105Y0081028D01*
X0259628Y0080505D01*
X0260675Y0080505D01*
X0261198Y0081028D01*
X0261198Y0083121D01*
X0259105Y0083121D02*
X0259105Y0081028D01*
X0251855Y0080505D02*
X0251855Y0083645D01*
X0275757Y0091529D02*
X0278376Y0091529D01*
X0280108Y0091529D02*
X0282726Y0091529D01*
X0284458Y0091529D02*
X0284458Y0095456D01*
X0286422Y0095456D01*
X0287076Y0094802D01*
X0287076Y0092183D01*
X0286422Y0091529D01*
X0284458Y0091529D01*
X0281417Y0093492D02*
X0280108Y0093492D01*
X0280108Y0091529D02*
X0280108Y0095456D01*
X0282726Y0095456D01*
X0282726Y0097040D02*
X0280108Y0097040D01*
X0280108Y0100968D01*
X0282726Y0100968D01*
X0282726Y0102552D02*
X0280108Y0102552D01*
X0280108Y0106480D01*
X0282726Y0106480D01*
X0282726Y0108064D02*
X0280108Y0108064D01*
X0280108Y0111992D01*
X0282726Y0111992D01*
X0284458Y0111992D02*
X0284458Y0108064D01*
X0286422Y0108064D01*
X0287076Y0108719D01*
X0287076Y0111337D01*
X0286422Y0111992D01*
X0284458Y0111992D01*
X0281417Y0110028D02*
X0280108Y0110028D01*
X0278376Y0108064D02*
X0275757Y0108064D01*
X0275757Y0111992D01*
X0275757Y0106480D02*
X0275757Y0102552D01*
X0278376Y0102552D01*
X0280108Y0104516D02*
X0281417Y0104516D01*
X0284458Y0102552D02*
X0286422Y0102552D01*
X0287076Y0103207D01*
X0287076Y0105825D01*
X0286422Y0106480D01*
X0284458Y0106480D01*
X0284458Y0102552D01*
X0284458Y0100968D02*
X0286422Y0100968D01*
X0287076Y0100314D01*
X0287076Y0097695D01*
X0286422Y0097040D01*
X0284458Y0097040D01*
X0284458Y0100968D01*
X0281417Y0099004D02*
X0280108Y0099004D01*
X0278376Y0097040D02*
X0275757Y0097040D01*
X0275757Y0100968D01*
X0275757Y0095456D02*
X0275757Y0091529D01*
X0283791Y0079713D02*
X0283791Y0074993D01*
X0283791Y0077353D02*
X0286151Y0079713D01*
X0287331Y0079713D01*
X0289833Y0080893D02*
X0289833Y0076173D01*
X0294553Y0080893D01*
X0294553Y0076173D01*
X0293373Y0074993D01*
X0291013Y0074993D01*
X0289833Y0076173D01*
X0289833Y0080893D02*
X0291013Y0082073D01*
X0293373Y0082073D01*
X0294553Y0080893D01*
X0297083Y0076173D02*
X0298263Y0076173D01*
X0298263Y0074993D01*
X0297083Y0074993D01*
X0297083Y0076173D01*
X0300709Y0076173D02*
X0301889Y0074993D01*
X0304249Y0074993D01*
X0305429Y0076173D01*
X0305429Y0077353D01*
X0304249Y0078533D01*
X0303069Y0078533D01*
X0304249Y0078533D02*
X0305429Y0079713D01*
X0305429Y0080893D01*
X0304249Y0082073D01*
X0301889Y0082073D01*
X0300709Y0080893D01*
X0290772Y0091529D02*
X0290772Y0095456D01*
X0288808Y0093492D01*
X0291426Y0093492D01*
X0290772Y0097040D02*
X0289463Y0097040D01*
X0288808Y0097695D01*
X0290117Y0099004D02*
X0290772Y0099004D01*
X0291426Y0098350D01*
X0291426Y0097695D01*
X0290772Y0097040D01*
X0290772Y0099004D02*
X0291426Y0099659D01*
X0291426Y0100314D01*
X0290772Y0100968D01*
X0289463Y0100968D01*
X0288808Y0100314D01*
X0288808Y0102552D02*
X0291426Y0105171D01*
X0291426Y0105825D01*
X0290772Y0106480D01*
X0289463Y0106480D01*
X0288808Y0105825D01*
X0288808Y0108064D02*
X0291426Y0108064D01*
X0290117Y0108064D02*
X0290117Y0111992D01*
X0288808Y0110683D01*
X0288808Y0102552D02*
X0291426Y0102552D01*
X0298966Y0124206D02*
X0298966Y0128134D01*
X0300930Y0128134D01*
X0301585Y0127479D01*
X0301585Y0126170D01*
X0300930Y0125515D01*
X0298966Y0125515D01*
X0300276Y0125515D02*
X0301585Y0124206D01*
X0303316Y0124206D02*
X0305935Y0126824D01*
X0305935Y0127479D01*
X0305280Y0128134D01*
X0303971Y0128134D01*
X0303316Y0127479D01*
X0303316Y0124206D02*
X0305935Y0124206D01*
X0307667Y0124860D02*
X0308321Y0124206D01*
X0309630Y0124206D01*
X0310285Y0124860D01*
X0310285Y0125515D01*
X0309630Y0126170D01*
X0308976Y0126170D01*
X0309630Y0126170D02*
X0310285Y0126824D01*
X0310285Y0127479D01*
X0309630Y0128134D01*
X0308321Y0128134D01*
X0307667Y0127479D01*
X0306918Y0139166D02*
X0309537Y0141785D01*
X0309537Y0142440D01*
X0308882Y0143094D01*
X0307573Y0143094D01*
X0306918Y0142440D01*
X0305186Y0142440D02*
X0305186Y0141130D01*
X0304532Y0140476D01*
X0302568Y0140476D01*
X0303877Y0140476D02*
X0305186Y0139166D01*
X0306918Y0139166D02*
X0309537Y0139166D01*
X0311268Y0139166D02*
X0313887Y0141785D01*
X0313887Y0142440D01*
X0313232Y0143094D01*
X0311923Y0143094D01*
X0311268Y0142440D01*
X0311268Y0139166D02*
X0313887Y0139166D01*
X0305186Y0142440D02*
X0304532Y0143094D01*
X0302568Y0143094D01*
X0302568Y0139166D01*
X0301964Y0150977D02*
X0303273Y0150977D01*
X0303928Y0151632D01*
X0305659Y0151632D02*
X0305659Y0154251D01*
X0306314Y0154905D01*
X0307623Y0154905D01*
X0308278Y0154251D01*
X0308278Y0151632D01*
X0307623Y0150977D01*
X0306314Y0150977D01*
X0305659Y0151632D01*
X0303928Y0154251D02*
X0303273Y0154905D01*
X0301964Y0154905D01*
X0301309Y0154251D01*
X0301309Y0151632D01*
X0301964Y0150977D01*
X0310009Y0150977D02*
X0310009Y0154905D01*
X0312628Y0150977D01*
X0312628Y0154905D01*
X0314360Y0152941D02*
X0316978Y0152941D01*
X0316323Y0150977D02*
X0316323Y0154905D01*
X0314360Y0152941D01*
X0310285Y0171450D02*
X0307667Y0171450D01*
X0308976Y0171450D02*
X0308976Y0175378D01*
X0307667Y0174068D01*
X0305935Y0174068D02*
X0305935Y0174723D01*
X0305280Y0175378D01*
X0303971Y0175378D01*
X0303316Y0174723D01*
X0301585Y0174723D02*
X0301585Y0173414D01*
X0300930Y0172759D01*
X0298966Y0172759D01*
X0298966Y0171450D02*
X0298966Y0175378D01*
X0300930Y0175378D01*
X0301585Y0174723D01*
X0300276Y0172759D02*
X0301585Y0171450D01*
X0303316Y0171450D02*
X0305935Y0174068D01*
X0305935Y0171450D02*
X0303316Y0171450D01*
X0302568Y0186410D02*
X0302568Y0190338D01*
X0304532Y0190338D01*
X0305186Y0189684D01*
X0305186Y0188374D01*
X0304532Y0187720D01*
X0302568Y0187720D01*
X0303877Y0187720D02*
X0305186Y0186410D01*
X0306918Y0186410D02*
X0309537Y0189029D01*
X0309537Y0189684D01*
X0308882Y0190338D01*
X0307573Y0190338D01*
X0306918Y0189684D01*
X0306918Y0186410D02*
X0309537Y0186410D01*
X0311268Y0187065D02*
X0313887Y0189684D01*
X0313887Y0187065D01*
X0313232Y0186410D01*
X0311923Y0186410D01*
X0311268Y0187065D01*
X0311268Y0189684D01*
X0311923Y0190338D01*
X0313232Y0190338D01*
X0313887Y0189684D01*
X0315014Y0198222D02*
X0314360Y0198876D01*
X0315014Y0198222D02*
X0316323Y0198222D01*
X0316978Y0198876D01*
X0316978Y0199531D01*
X0316323Y0200185D01*
X0315669Y0200185D01*
X0316323Y0200185D02*
X0316978Y0200840D01*
X0316978Y0201495D01*
X0316323Y0202149D01*
X0315014Y0202149D01*
X0314360Y0201495D01*
X0312628Y0202149D02*
X0312628Y0198222D01*
X0310009Y0202149D01*
X0310009Y0198222D01*
X0308278Y0198876D02*
X0308278Y0201495D01*
X0307623Y0202149D01*
X0306314Y0202149D01*
X0305659Y0201495D01*
X0305659Y0198876D01*
X0306314Y0198222D01*
X0307623Y0198222D01*
X0308278Y0198876D01*
X0303928Y0198876D02*
X0303273Y0198222D01*
X0301964Y0198222D01*
X0301309Y0198876D01*
X0301309Y0201495D01*
X0301964Y0202149D01*
X0303273Y0202149D01*
X0303928Y0201495D01*
X0303316Y0218694D02*
X0305935Y0218694D01*
X0304626Y0218694D02*
X0304626Y0222622D01*
X0303316Y0221312D01*
X0301585Y0220658D02*
X0300930Y0220003D01*
X0298966Y0220003D01*
X0298966Y0218694D02*
X0298966Y0222622D01*
X0300930Y0222622D01*
X0301585Y0221967D01*
X0301585Y0220658D01*
X0300276Y0220003D02*
X0301585Y0218694D01*
X0307667Y0219349D02*
X0308321Y0218694D01*
X0309630Y0218694D01*
X0310285Y0219349D01*
X0310285Y0221967D01*
X0309630Y0222622D01*
X0308321Y0222622D01*
X0307667Y0221967D01*
X0307667Y0221312D01*
X0308321Y0220658D01*
X0310285Y0220658D01*
X0309537Y0233655D02*
X0306918Y0233655D01*
X0308227Y0233655D02*
X0308227Y0237582D01*
X0306918Y0236273D01*
X0305186Y0235618D02*
X0304532Y0234964D01*
X0302568Y0234964D01*
X0303877Y0234964D02*
X0305186Y0233655D01*
X0305186Y0235618D02*
X0305186Y0236928D01*
X0304532Y0237582D01*
X0302568Y0237582D01*
X0302568Y0233655D01*
X0311268Y0234309D02*
X0311923Y0233655D01*
X0313232Y0233655D01*
X0313887Y0234309D01*
X0313887Y0234964D01*
X0313232Y0235618D01*
X0311923Y0235618D01*
X0311268Y0236273D01*
X0311268Y0236928D01*
X0311923Y0237582D01*
X0313232Y0237582D01*
X0313887Y0236928D01*
X0313887Y0236273D01*
X0313232Y0235618D01*
X0311923Y0235618D02*
X0311268Y0234964D01*
X0311268Y0234309D01*
X0310009Y0245466D02*
X0310009Y0249393D01*
X0312628Y0245466D01*
X0312628Y0249393D01*
X0314360Y0248739D02*
X0315014Y0249393D01*
X0316323Y0249393D01*
X0316978Y0248739D01*
X0316978Y0248084D01*
X0314360Y0245466D01*
X0316978Y0245466D01*
X0308278Y0246120D02*
X0308278Y0248739D01*
X0307623Y0249393D01*
X0306314Y0249393D01*
X0305659Y0248739D01*
X0305659Y0246120D01*
X0306314Y0245466D01*
X0307623Y0245466D01*
X0308278Y0246120D01*
X0303928Y0246120D02*
X0303273Y0245466D01*
X0301964Y0245466D01*
X0301309Y0246120D01*
X0301309Y0248739D01*
X0301964Y0249393D01*
X0303273Y0249393D01*
X0303928Y0248739D01*
X0303316Y0265938D02*
X0305935Y0265938D01*
X0304626Y0265938D02*
X0304626Y0269866D01*
X0303316Y0268557D01*
X0301585Y0269211D02*
X0301585Y0267902D01*
X0300930Y0267247D01*
X0298966Y0267247D01*
X0298966Y0265938D02*
X0298966Y0269866D01*
X0300930Y0269866D01*
X0301585Y0269211D01*
X0300276Y0267247D02*
X0301585Y0265938D01*
X0307667Y0265938D02*
X0307667Y0266593D01*
X0310285Y0269211D01*
X0310285Y0269866D01*
X0307667Y0269866D01*
X0308227Y0280899D02*
X0308227Y0284826D01*
X0306918Y0283517D01*
X0305186Y0282863D02*
X0304532Y0282208D01*
X0302568Y0282208D01*
X0303877Y0282208D02*
X0305186Y0280899D01*
X0306918Y0280899D02*
X0309537Y0280899D01*
X0311268Y0281553D02*
X0311923Y0280899D01*
X0313232Y0280899D01*
X0313887Y0281553D01*
X0313887Y0282208D01*
X0313232Y0282863D01*
X0311268Y0282863D01*
X0311268Y0281553D01*
X0311268Y0282863D02*
X0312578Y0284172D01*
X0313887Y0284826D01*
X0314360Y0292710D02*
X0316978Y0292710D01*
X0315669Y0292710D02*
X0315669Y0296637D01*
X0314360Y0295328D01*
X0312628Y0296637D02*
X0312628Y0292710D01*
X0310009Y0296637D01*
X0310009Y0292710D01*
X0308278Y0293364D02*
X0308278Y0295983D01*
X0307623Y0296637D01*
X0306314Y0296637D01*
X0305659Y0295983D01*
X0305659Y0293364D01*
X0306314Y0292710D01*
X0307623Y0292710D01*
X0308278Y0293364D01*
X0303928Y0293364D02*
X0303273Y0292710D01*
X0301964Y0292710D01*
X0301309Y0293364D01*
X0301309Y0295983D01*
X0301964Y0296637D01*
X0303273Y0296637D01*
X0303928Y0295983D01*
X0303660Y0300820D02*
X0303660Y0304748D01*
X0302351Y0303438D01*
X0300620Y0304748D02*
X0299310Y0304748D01*
X0299965Y0304748D02*
X0299965Y0301475D01*
X0299310Y0300820D01*
X0298656Y0300820D01*
X0298001Y0301475D01*
X0302351Y0300820D02*
X0304970Y0300820D01*
X0304532Y0284826D02*
X0305186Y0284172D01*
X0305186Y0282863D01*
X0304532Y0284826D02*
X0302568Y0284826D01*
X0302568Y0280899D01*
X0273149Y0263567D02*
X0273149Y0259639D01*
X0271840Y0259639D02*
X0274458Y0259639D01*
X0271840Y0262257D02*
X0273149Y0263567D01*
X0270108Y0263567D02*
X0270108Y0259639D01*
X0268799Y0260948D01*
X0267490Y0259639D01*
X0267490Y0263567D01*
X0265758Y0262912D02*
X0265103Y0263567D01*
X0263794Y0263567D01*
X0263140Y0262912D01*
X0263140Y0262257D01*
X0263794Y0261603D01*
X0265103Y0261603D01*
X0265758Y0260948D01*
X0265758Y0260293D01*
X0265103Y0259639D01*
X0263794Y0259639D01*
X0263140Y0260293D01*
X0262617Y0284836D02*
X0265236Y0287454D01*
X0265236Y0288109D01*
X0264581Y0288763D01*
X0263272Y0288763D01*
X0262617Y0288109D01*
X0259576Y0288763D02*
X0259576Y0284836D01*
X0258267Y0284836D02*
X0260885Y0284836D01*
X0262617Y0284836D02*
X0265236Y0284836D01*
X0259576Y0288763D02*
X0258267Y0287454D01*
X0256535Y0288109D02*
X0255881Y0288763D01*
X0254571Y0288763D01*
X0253917Y0288109D01*
X0253917Y0285490D01*
X0254571Y0284836D01*
X0255881Y0284836D01*
X0256535Y0285490D01*
X0243145Y0282858D02*
X0241836Y0282203D01*
X0240527Y0280894D01*
X0242491Y0280894D01*
X0243145Y0280239D01*
X0243145Y0279585D01*
X0242491Y0278930D01*
X0241182Y0278930D01*
X0240527Y0279585D01*
X0240527Y0280894D01*
X0238795Y0279585D02*
X0238141Y0278930D01*
X0236831Y0278930D01*
X0236177Y0279585D01*
X0236177Y0282203D01*
X0236831Y0282858D01*
X0238141Y0282858D01*
X0238795Y0282203D01*
X0234586Y0282858D02*
X0233277Y0282858D01*
X0233931Y0282858D02*
X0233931Y0278930D01*
X0233277Y0278930D02*
X0234586Y0278930D01*
X0230196Y0308851D02*
X0227578Y0308851D01*
X0228887Y0308851D02*
X0228887Y0312779D01*
X0227578Y0311470D01*
X0225846Y0308851D02*
X0223228Y0308851D01*
X0224537Y0308851D02*
X0224537Y0312779D01*
X0223228Y0311470D01*
X0221496Y0312125D02*
X0220841Y0312779D01*
X0219532Y0312779D01*
X0218877Y0312125D01*
X0218877Y0309506D01*
X0219532Y0308851D01*
X0220841Y0308851D01*
X0221496Y0309506D01*
X0223060Y0329324D02*
X0218340Y0329324D01*
X0218340Y0330504D01*
X0223060Y0335224D01*
X0223060Y0336404D01*
X0218340Y0336404D01*
X0214629Y0336404D02*
X0214629Y0329324D01*
X0215809Y0332864D02*
X0211089Y0332864D01*
X0214629Y0336404D01*
X0208559Y0336404D02*
X0203839Y0331684D01*
X0205019Y0332864D02*
X0208559Y0329324D01*
X0203839Y0329324D02*
X0203839Y0336404D01*
X0201309Y0328144D02*
X0196589Y0328144D01*
X0194058Y0330504D02*
X0192878Y0329324D01*
X0190518Y0329324D01*
X0189338Y0330504D01*
X0189338Y0335224D01*
X0190518Y0336404D01*
X0192878Y0336404D01*
X0194058Y0335224D01*
X0194058Y0332864D01*
X0192878Y0331684D01*
X0192878Y0334044D01*
X0190518Y0334044D01*
X0190518Y0331684D01*
X0192878Y0331684D01*
X0193341Y0347040D02*
X0196881Y0347040D01*
X0198061Y0348220D01*
X0196881Y0349400D01*
X0194521Y0349400D01*
X0193341Y0350580D01*
X0194521Y0351760D01*
X0198061Y0351760D01*
X0200591Y0350580D02*
X0201771Y0351760D01*
X0205311Y0351760D01*
X0204131Y0349400D02*
X0201771Y0349400D01*
X0200591Y0350580D01*
X0200591Y0347040D02*
X0204131Y0347040D01*
X0205311Y0348220D01*
X0204131Y0349400D01*
X0215092Y0351760D02*
X0217452Y0351760D01*
X0216272Y0352940D02*
X0216272Y0348220D01*
X0217452Y0347040D01*
X0219925Y0349400D02*
X0224645Y0349400D01*
X0224645Y0351760D02*
X0219925Y0351760D01*
X0227176Y0351760D02*
X0229536Y0354120D01*
X0229536Y0347040D01*
X0227176Y0347040D02*
X0231896Y0347040D01*
X0234426Y0347040D02*
X0235606Y0347040D01*
X0235606Y0348220D01*
X0234426Y0348220D01*
X0234426Y0347040D01*
X0238051Y0347040D02*
X0242771Y0351760D01*
X0242771Y0352940D01*
X0241591Y0354120D01*
X0239231Y0354120D01*
X0238051Y0352940D01*
X0238051Y0347040D02*
X0242771Y0347040D01*
X0245301Y0347040D02*
X0245301Y0351760D01*
X0246481Y0351760D01*
X0247661Y0350580D01*
X0248841Y0351760D01*
X0250021Y0350580D01*
X0250021Y0347040D01*
X0247661Y0347040D02*
X0247661Y0350580D01*
X0252552Y0351760D02*
X0252552Y0347040D01*
X0254912Y0347040D02*
X0254912Y0350580D01*
X0256092Y0351760D01*
X0257272Y0350580D01*
X0257272Y0347040D01*
X0254912Y0350580D02*
X0253732Y0351760D01*
X0252552Y0351760D01*
X0242450Y0336404D02*
X0240090Y0336404D01*
X0241270Y0336404D02*
X0241270Y0329324D01*
X0240090Y0329324D02*
X0242450Y0329324D01*
X0244924Y0328144D02*
X0249644Y0328144D01*
X0237560Y0329324D02*
X0234020Y0332864D01*
X0232840Y0331684D02*
X0237560Y0336404D01*
X0232840Y0336404D02*
X0232840Y0329324D01*
X0230310Y0330504D02*
X0230310Y0336404D01*
X0225590Y0336404D02*
X0225590Y0330504D01*
X0226770Y0329324D01*
X0229130Y0329324D01*
X0230310Y0330504D01*
X0190811Y0349400D02*
X0186091Y0349400D01*
X0186091Y0348220D02*
X0186091Y0350580D01*
X0187271Y0351760D01*
X0189631Y0351760D01*
X0190811Y0350580D01*
X0190811Y0349400D01*
X0189631Y0347040D02*
X0187271Y0347040D01*
X0186091Y0348220D01*
X0183561Y0347040D02*
X0183561Y0350580D01*
X0182381Y0351760D01*
X0178840Y0351760D01*
X0178840Y0347040D01*
X0176339Y0347040D02*
X0172799Y0349400D01*
X0176339Y0351760D01*
X0172799Y0354120D02*
X0172799Y0347040D01*
X0170268Y0347040D02*
X0166728Y0347040D01*
X0165548Y0348220D01*
X0165548Y0350580D01*
X0166728Y0351760D01*
X0170268Y0351760D01*
X0163075Y0347040D02*
X0160715Y0347040D01*
X0161895Y0347040D02*
X0161895Y0351760D01*
X0160715Y0351760D01*
X0161895Y0354120D02*
X0161895Y0355300D01*
X0158185Y0350580D02*
X0158185Y0347040D01*
X0158185Y0350580D02*
X0157005Y0351760D01*
X0154645Y0351760D01*
X0153464Y0350580D01*
X0150991Y0351760D02*
X0148631Y0351760D01*
X0149811Y0352940D02*
X0149811Y0348220D01*
X0150991Y0347040D01*
X0153464Y0347040D02*
X0153464Y0354120D01*
X0136846Y0333645D02*
X0136846Y0332991D01*
X0134228Y0330372D01*
X0134228Y0329718D01*
X0132496Y0330372D02*
X0131841Y0329718D01*
X0130532Y0329718D01*
X0129878Y0330372D01*
X0129878Y0332991D01*
X0130532Y0333645D01*
X0131841Y0333645D01*
X0132496Y0332991D01*
X0134228Y0333645D02*
X0136846Y0333645D01*
X0128287Y0333645D02*
X0126977Y0333645D01*
X0127632Y0333645D02*
X0127632Y0329718D01*
X0126977Y0329718D02*
X0128287Y0329718D01*
X0109123Y0317110D02*
X0106505Y0317110D01*
X0106505Y0315146D01*
X0107814Y0315801D01*
X0108469Y0315801D01*
X0109123Y0315146D01*
X0109123Y0313837D01*
X0108469Y0313182D01*
X0107160Y0313182D01*
X0106505Y0313837D01*
X0104773Y0313837D02*
X0104119Y0313182D01*
X0102809Y0313182D01*
X0102155Y0313837D01*
X0102155Y0316455D01*
X0102809Y0317110D01*
X0104119Y0317110D01*
X0104773Y0316455D01*
X0121571Y0298606D02*
X0122880Y0298606D01*
X0122226Y0298606D02*
X0122226Y0294678D01*
X0122880Y0294678D02*
X0121571Y0294678D01*
X0124471Y0295333D02*
X0125126Y0294678D01*
X0126435Y0294678D01*
X0127090Y0295333D01*
X0128821Y0295333D02*
X0129476Y0294678D01*
X0130785Y0294678D01*
X0131440Y0295333D01*
X0131440Y0295987D01*
X0130785Y0296642D01*
X0130130Y0296642D01*
X0130785Y0296642D02*
X0131440Y0297297D01*
X0131440Y0297951D01*
X0130785Y0298606D01*
X0129476Y0298606D01*
X0128821Y0297951D01*
X0127090Y0297951D02*
X0126435Y0298606D01*
X0125126Y0298606D01*
X0124471Y0297951D01*
X0124471Y0295333D01*
X0125009Y0286795D02*
X0126973Y0286795D01*
X0127627Y0286140D01*
X0127627Y0284831D01*
X0126973Y0284176D01*
X0125009Y0284176D01*
X0125009Y0282867D02*
X0125009Y0286795D01*
X0126318Y0284176D02*
X0127627Y0282867D01*
X0129359Y0283522D02*
X0130014Y0282867D01*
X0131323Y0282867D01*
X0131978Y0283522D01*
X0131978Y0286140D01*
X0131323Y0286795D01*
X0130014Y0286795D01*
X0129359Y0286140D01*
X0129359Y0285486D01*
X0130014Y0284831D01*
X0131978Y0284831D01*
X0133670Y0281283D02*
X0135634Y0281283D01*
X0136289Y0280629D01*
X0136289Y0279319D01*
X0135634Y0278665D01*
X0133670Y0278665D01*
X0134980Y0278665D02*
X0136289Y0277355D01*
X0135634Y0276559D02*
X0133670Y0276559D01*
X0133670Y0272631D01*
X0133670Y0273940D02*
X0135634Y0273940D01*
X0136289Y0274595D01*
X0136289Y0275904D01*
X0135634Y0276559D01*
X0133670Y0277355D02*
X0133670Y0281283D01*
X0138021Y0280629D02*
X0138675Y0281283D01*
X0139984Y0281283D01*
X0140639Y0280629D01*
X0140639Y0279974D01*
X0139984Y0279319D01*
X0140639Y0278665D01*
X0140639Y0278010D01*
X0139984Y0277355D01*
X0138675Y0277355D01*
X0138021Y0278010D01*
X0139330Y0279319D02*
X0139984Y0279319D01*
X0139984Y0276559D02*
X0138021Y0274595D01*
X0140639Y0274595D01*
X0139984Y0272631D02*
X0139984Y0276559D01*
X0136289Y0272631D02*
X0134980Y0273940D01*
X0134364Y0271441D02*
X0133709Y0270786D01*
X0133709Y0268167D01*
X0136328Y0270786D01*
X0136328Y0268167D01*
X0135673Y0267513D01*
X0134364Y0267513D01*
X0133709Y0268167D01*
X0131978Y0267513D02*
X0129359Y0267513D01*
X0130668Y0267513D02*
X0130668Y0271441D01*
X0129359Y0270131D01*
X0127627Y0269477D02*
X0126973Y0268822D01*
X0125009Y0268822D01*
X0125009Y0267513D02*
X0125009Y0271441D01*
X0126973Y0271441D01*
X0127627Y0270786D01*
X0127627Y0269477D01*
X0126318Y0268822D02*
X0127627Y0267513D01*
X0127632Y0262779D02*
X0127632Y0258851D01*
X0126977Y0258851D02*
X0128287Y0258851D01*
X0129878Y0259506D02*
X0130532Y0258851D01*
X0131841Y0258851D01*
X0132496Y0259506D01*
X0134228Y0259506D02*
X0134228Y0260161D01*
X0134882Y0260815D01*
X0136192Y0260815D01*
X0136846Y0260161D01*
X0136846Y0259506D01*
X0136192Y0258851D01*
X0134882Y0258851D01*
X0134228Y0259506D01*
X0134882Y0260815D02*
X0134228Y0261470D01*
X0134228Y0262125D01*
X0134882Y0262779D01*
X0136192Y0262779D01*
X0136846Y0262125D01*
X0136846Y0261470D01*
X0136192Y0260815D01*
X0132496Y0262125D02*
X0131841Y0262779D01*
X0130532Y0262779D01*
X0129878Y0262125D01*
X0129878Y0259506D01*
X0128287Y0262779D02*
X0126977Y0262779D01*
X0134364Y0271441D02*
X0135673Y0271441D01*
X0136328Y0270786D01*
X0160045Y0253542D02*
X0160700Y0254196D01*
X0161354Y0254196D01*
X0162009Y0253542D01*
X0162009Y0252232D01*
X0161354Y0251578D01*
X0160700Y0251578D01*
X0160045Y0252232D01*
X0160045Y0253542D01*
X0162009Y0253542D02*
X0162663Y0254196D01*
X0163318Y0254196D01*
X0163973Y0253542D01*
X0163973Y0252232D01*
X0163318Y0251578D01*
X0162663Y0251578D01*
X0162009Y0252232D01*
X0163973Y0249846D02*
X0163973Y0247228D01*
X0163973Y0248537D02*
X0160045Y0248537D01*
X0161354Y0247228D01*
X0160700Y0245496D02*
X0160045Y0244841D01*
X0160045Y0243532D01*
X0160700Y0242877D01*
X0163318Y0242877D01*
X0163973Y0243532D01*
X0163973Y0244841D01*
X0163318Y0245496D01*
X0134625Y0215535D02*
X0134625Y0211607D01*
X0133316Y0211607D02*
X0135934Y0211607D01*
X0135634Y0210417D02*
X0136289Y0209762D01*
X0136289Y0208453D01*
X0135634Y0207798D01*
X0133670Y0207798D01*
X0133670Y0206489D02*
X0133670Y0210417D01*
X0135634Y0210417D01*
X0138021Y0210417D02*
X0138021Y0208453D01*
X0139330Y0209108D01*
X0139984Y0209108D01*
X0140639Y0208453D01*
X0140639Y0207144D01*
X0139984Y0206489D01*
X0138675Y0206489D01*
X0138021Y0207144D01*
X0136289Y0206489D02*
X0134980Y0207798D01*
X0135634Y0205693D02*
X0136289Y0205038D01*
X0136289Y0203729D01*
X0135634Y0203074D01*
X0133670Y0203074D01*
X0133670Y0201765D02*
X0133670Y0205693D01*
X0135634Y0205693D01*
X0134980Y0203074D02*
X0136289Y0201765D01*
X0135673Y0200574D02*
X0134364Y0200574D01*
X0133709Y0199920D01*
X0135673Y0200574D02*
X0136328Y0199920D01*
X0136328Y0199265D01*
X0133709Y0196647D01*
X0136328Y0196647D01*
X0131978Y0196647D02*
X0129359Y0196647D01*
X0130668Y0196647D02*
X0130668Y0200574D01*
X0129359Y0199265D01*
X0127627Y0198611D02*
X0126973Y0197956D01*
X0125009Y0197956D01*
X0126318Y0197956D02*
X0127627Y0196647D01*
X0127627Y0198611D02*
X0127627Y0199920D01*
X0126973Y0200574D01*
X0125009Y0200574D01*
X0125009Y0196647D01*
X0126977Y0191519D02*
X0128287Y0191519D01*
X0127632Y0191519D02*
X0127632Y0187592D01*
X0126977Y0187592D02*
X0128287Y0187592D01*
X0129878Y0188246D02*
X0130532Y0187592D01*
X0131841Y0187592D01*
X0132496Y0188246D01*
X0134228Y0188246D02*
X0134882Y0187592D01*
X0136192Y0187592D01*
X0136846Y0188246D01*
X0136846Y0190865D01*
X0136192Y0191519D01*
X0134882Y0191519D01*
X0134228Y0190865D01*
X0134228Y0190210D01*
X0134882Y0189555D01*
X0136846Y0189555D01*
X0132496Y0190865D02*
X0131841Y0191519D01*
X0130532Y0191519D01*
X0129878Y0190865D01*
X0129878Y0188246D01*
X0138675Y0201765D02*
X0138021Y0202419D01*
X0138021Y0203729D01*
X0139984Y0203729D01*
X0140639Y0203074D01*
X0140639Y0202419D01*
X0139984Y0201765D01*
X0138675Y0201765D01*
X0138021Y0203729D02*
X0139330Y0205038D01*
X0140639Y0205693D01*
X0140639Y0210417D02*
X0138021Y0210417D01*
X0133316Y0214226D02*
X0134625Y0215535D01*
X0130275Y0215535D02*
X0130275Y0211607D01*
X0131584Y0211607D02*
X0128965Y0211607D01*
X0127234Y0211607D02*
X0125924Y0212917D01*
X0126579Y0212917D02*
X0124615Y0212917D01*
X0124615Y0211607D02*
X0124615Y0215535D01*
X0126579Y0215535D01*
X0127234Y0214880D01*
X0127234Y0213571D01*
X0126579Y0212917D01*
X0128965Y0214226D02*
X0130275Y0215535D01*
X0130785Y0223812D02*
X0130785Y0227740D01*
X0128821Y0225776D01*
X0131440Y0225776D01*
X0127090Y0227085D02*
X0126435Y0227740D01*
X0125126Y0227740D01*
X0124471Y0227085D01*
X0124471Y0224467D01*
X0125126Y0223812D01*
X0126435Y0223812D01*
X0127090Y0224467D01*
X0122880Y0223812D02*
X0121571Y0223812D01*
X0122226Y0223812D02*
X0122226Y0227740D01*
X0122880Y0227740D02*
X0121571Y0227740D01*
X0108469Y0242316D02*
X0109123Y0242971D01*
X0109123Y0243625D01*
X0108469Y0244280D01*
X0106505Y0244280D01*
X0106505Y0242971D01*
X0107160Y0242316D01*
X0108469Y0242316D01*
X0106505Y0244280D02*
X0107814Y0245589D01*
X0109123Y0246244D01*
X0104773Y0245589D02*
X0104119Y0246244D01*
X0102809Y0246244D01*
X0102155Y0245589D01*
X0102155Y0242971D01*
X0102809Y0242316D01*
X0104119Y0242316D01*
X0104773Y0242971D01*
X0104438Y0251371D02*
X0104438Y0255299D01*
X0106170Y0255299D02*
X0106170Y0253335D01*
X0107479Y0253990D01*
X0108134Y0253990D01*
X0108788Y0253335D01*
X0108788Y0252026D01*
X0108134Y0251371D01*
X0106824Y0251371D01*
X0106170Y0252026D01*
X0104438Y0251371D02*
X0101820Y0255299D01*
X0101820Y0251371D01*
X0100088Y0252026D02*
X0100088Y0254644D01*
X0099433Y0255299D01*
X0098124Y0255299D01*
X0097469Y0254644D01*
X0097469Y0252026D01*
X0098124Y0251371D01*
X0099433Y0251371D01*
X0100088Y0252026D01*
X0095738Y0252026D02*
X0095083Y0251371D01*
X0093774Y0251371D01*
X0093119Y0252026D01*
X0093119Y0254644D01*
X0093774Y0255299D01*
X0095083Y0255299D01*
X0095738Y0254644D01*
X0106170Y0255299D02*
X0108788Y0255299D01*
X0098751Y0274147D02*
X0096133Y0274147D01*
X0095478Y0274802D01*
X0095478Y0276111D01*
X0096133Y0276766D01*
X0096787Y0278498D02*
X0095478Y0279807D01*
X0099406Y0279807D01*
X0099406Y0278498D02*
X0099406Y0281116D01*
X0097442Y0282848D02*
X0097442Y0285466D01*
X0099406Y0284812D02*
X0095478Y0284812D01*
X0097442Y0282848D01*
X0102958Y0283502D02*
X0102958Y0284812D01*
X0103613Y0285466D01*
X0104268Y0285466D01*
X0104922Y0284812D01*
X0104922Y0283502D01*
X0104268Y0282848D01*
X0103613Y0282848D01*
X0102958Y0283502D01*
X0104922Y0283502D02*
X0105577Y0282848D01*
X0106231Y0282848D01*
X0106886Y0283502D01*
X0106886Y0284812D01*
X0106231Y0285466D01*
X0105577Y0285466D01*
X0104922Y0284812D01*
X0103613Y0281116D02*
X0102958Y0280461D01*
X0102958Y0279152D01*
X0103613Y0278498D01*
X0106231Y0278498D01*
X0106886Y0279152D01*
X0106886Y0280461D01*
X0106231Y0281116D01*
X0099406Y0276111D02*
X0098751Y0276766D01*
X0099406Y0276111D02*
X0099406Y0274802D01*
X0098751Y0274147D01*
X0098357Y0214600D02*
X0097048Y0214600D01*
X0096394Y0213945D01*
X0096394Y0213291D01*
X0097048Y0211982D01*
X0095084Y0211982D01*
X0095084Y0214600D01*
X0098357Y0214600D02*
X0099012Y0213945D01*
X0099012Y0212636D01*
X0098357Y0211982D01*
X0099012Y0210250D02*
X0099012Y0207631D01*
X0099012Y0208941D02*
X0095084Y0208941D01*
X0096394Y0207631D01*
X0095739Y0205900D02*
X0095084Y0205245D01*
X0095084Y0203936D01*
X0095739Y0203281D01*
X0098357Y0203281D01*
X0099012Y0203936D01*
X0099012Y0205245D01*
X0098357Y0205900D01*
X0102565Y0208286D02*
X0102565Y0209595D01*
X0103219Y0210250D01*
X0103219Y0211982D02*
X0103874Y0211982D01*
X0104529Y0212636D01*
X0104529Y0214600D01*
X0105838Y0214600D02*
X0103219Y0214600D01*
X0102565Y0213945D01*
X0102565Y0212636D01*
X0103219Y0211982D01*
X0105838Y0211982D02*
X0106492Y0212636D01*
X0106492Y0213945D01*
X0105838Y0214600D01*
X0105838Y0210250D02*
X0106492Y0209595D01*
X0106492Y0208286D01*
X0105838Y0207631D01*
X0103219Y0207631D01*
X0102565Y0208286D01*
X0101820Y0184826D02*
X0104438Y0180899D01*
X0104438Y0184826D01*
X0106170Y0182863D02*
X0108134Y0182863D01*
X0108788Y0182208D01*
X0108788Y0181553D01*
X0108134Y0180899D01*
X0106824Y0180899D01*
X0106170Y0181553D01*
X0106170Y0182863D01*
X0107479Y0184172D01*
X0108788Y0184826D01*
X0101820Y0184826D02*
X0101820Y0180899D01*
X0100088Y0181553D02*
X0100088Y0184172D01*
X0099433Y0184826D01*
X0098124Y0184826D01*
X0097469Y0184172D01*
X0097469Y0181553D01*
X0098124Y0180899D01*
X0099433Y0180899D01*
X0100088Y0181553D01*
X0095738Y0181553D02*
X0095083Y0180899D01*
X0093774Y0180899D01*
X0093119Y0181553D01*
X0093119Y0184172D01*
X0093774Y0184826D01*
X0095083Y0184826D01*
X0095738Y0184172D01*
X0102809Y0175771D02*
X0102155Y0175117D01*
X0102155Y0172498D01*
X0102809Y0171844D01*
X0104119Y0171844D01*
X0104773Y0172498D01*
X0106505Y0172498D02*
X0109123Y0175117D01*
X0109123Y0175771D01*
X0106505Y0175771D01*
X0104773Y0175117D02*
X0104119Y0175771D01*
X0102809Y0175771D01*
X0106505Y0172498D02*
X0106505Y0171844D01*
X0160045Y0172272D02*
X0160700Y0171618D01*
X0163318Y0171618D01*
X0163973Y0172272D01*
X0163973Y0173581D01*
X0163318Y0174236D01*
X0163973Y0175968D02*
X0163973Y0178586D01*
X0163973Y0177277D02*
X0160045Y0177277D01*
X0161354Y0175968D01*
X0160700Y0174236D02*
X0160045Y0173581D01*
X0160045Y0172272D01*
X0160700Y0180318D02*
X0161354Y0180318D01*
X0162009Y0180972D01*
X0162009Y0182936D01*
X0163318Y0182936D02*
X0160700Y0182936D01*
X0160045Y0182282D01*
X0160045Y0180972D01*
X0160700Y0180318D01*
X0163318Y0180318D02*
X0163973Y0180972D01*
X0163973Y0182282D01*
X0163318Y0182936D01*
X0175796Y0179841D02*
X0175796Y0177223D01*
X0176451Y0176568D01*
X0177760Y0176568D01*
X0178415Y0177223D01*
X0180146Y0176568D02*
X0182765Y0179186D01*
X0182765Y0179841D01*
X0182110Y0180496D01*
X0180801Y0180496D01*
X0180146Y0179841D01*
X0178415Y0179841D02*
X0177760Y0180496D01*
X0176451Y0180496D01*
X0175796Y0179841D01*
X0180146Y0176568D02*
X0182765Y0176568D01*
X0184173Y0166323D02*
X0184173Y0162395D01*
X0185482Y0162395D02*
X0182863Y0162395D01*
X0181132Y0162395D02*
X0178513Y0162395D01*
X0181132Y0165013D01*
X0181132Y0165668D01*
X0180477Y0166323D01*
X0179168Y0166323D01*
X0178513Y0165668D01*
X0176782Y0165668D02*
X0176127Y0166323D01*
X0174818Y0166323D01*
X0174163Y0165668D01*
X0174163Y0163049D01*
X0174818Y0162395D01*
X0176127Y0162395D01*
X0176782Y0163049D01*
X0182863Y0165013D02*
X0184173Y0166323D01*
X0185073Y0157267D02*
X0184419Y0156613D01*
X0184419Y0153994D01*
X0185073Y0153340D01*
X0186383Y0153340D01*
X0187037Y0153994D01*
X0188769Y0155304D02*
X0191387Y0155304D01*
X0190733Y0157267D02*
X0190733Y0153340D01*
X0188769Y0155304D02*
X0190733Y0157267D01*
X0187037Y0156613D02*
X0186383Y0157267D01*
X0185073Y0157267D01*
X0204930Y0167774D02*
X0205585Y0167119D01*
X0206894Y0167119D01*
X0207549Y0167774D01*
X0207549Y0170392D01*
X0206894Y0171047D01*
X0205585Y0171047D01*
X0204930Y0170392D01*
X0204930Y0167774D01*
X0206239Y0168428D02*
X0207549Y0167119D01*
X0209280Y0167119D02*
X0211899Y0167119D01*
X0212407Y0165972D02*
X0214371Y0164008D01*
X0214371Y0166627D01*
X0216335Y0165972D02*
X0212407Y0165972D01*
X0210590Y0167119D02*
X0210590Y0171047D01*
X0209280Y0169738D01*
X0213062Y0162277D02*
X0212407Y0161622D01*
X0212407Y0160313D01*
X0213062Y0159658D01*
X0213062Y0157927D02*
X0214371Y0157927D01*
X0215026Y0157272D01*
X0215026Y0155308D01*
X0216335Y0155308D02*
X0212407Y0155308D01*
X0212407Y0157272D01*
X0213062Y0157927D01*
X0215026Y0156617D02*
X0216335Y0157927D01*
X0216335Y0159658D02*
X0213716Y0162277D01*
X0213062Y0162277D01*
X0216335Y0162277D02*
X0216335Y0159658D01*
X0218144Y0167907D02*
X0219454Y0167907D01*
X0220108Y0168561D01*
X0220108Y0171834D01*
X0221840Y0170525D02*
X0223149Y0171834D01*
X0223149Y0167907D01*
X0221840Y0167907D02*
X0224458Y0167907D01*
X0218144Y0167907D02*
X0217490Y0168561D01*
X0217490Y0171834D01*
X0216866Y0176962D02*
X0215819Y0178008D01*
X0216343Y0178008D02*
X0214773Y0178008D01*
X0214773Y0176962D02*
X0214773Y0180101D01*
X0216343Y0180101D01*
X0216866Y0179578D01*
X0216866Y0178532D01*
X0216343Y0178008D01*
X0218398Y0177485D02*
X0218921Y0176962D01*
X0219968Y0176962D01*
X0220491Y0177485D01*
X0220491Y0178008D01*
X0219968Y0178532D01*
X0219444Y0178532D01*
X0219968Y0178532D02*
X0220491Y0179055D01*
X0220491Y0179578D01*
X0219968Y0180101D01*
X0218921Y0180101D01*
X0218398Y0179578D01*
X0218398Y0181686D02*
X0220491Y0183779D01*
X0220491Y0184302D01*
X0219968Y0184826D01*
X0218921Y0184826D01*
X0218398Y0184302D01*
X0216866Y0184302D02*
X0216866Y0183256D01*
X0216343Y0182733D01*
X0214773Y0182733D01*
X0215819Y0182733D02*
X0216866Y0181686D01*
X0218398Y0181686D02*
X0220491Y0181686D01*
X0222023Y0182209D02*
X0222546Y0181686D01*
X0223593Y0181686D01*
X0224116Y0182209D01*
X0224116Y0182733D01*
X0223593Y0183256D01*
X0222023Y0183256D01*
X0222023Y0182209D01*
X0222023Y0183256D02*
X0223070Y0184302D01*
X0224116Y0184826D01*
X0224243Y0186410D02*
X0224243Y0189550D01*
X0223196Y0188504D01*
X0221664Y0189027D02*
X0221664Y0187980D01*
X0221141Y0187457D01*
X0219571Y0187457D01*
X0219571Y0186410D02*
X0219571Y0189550D01*
X0221141Y0189550D01*
X0221664Y0189027D01*
X0220618Y0187457D02*
X0221664Y0186410D01*
X0223196Y0186410D02*
X0225289Y0186410D01*
X0226821Y0186934D02*
X0227345Y0186410D01*
X0228391Y0186410D01*
X0228915Y0186934D01*
X0228915Y0187980D01*
X0228391Y0188504D01*
X0227868Y0188504D01*
X0226821Y0187980D01*
X0226821Y0189550D01*
X0228915Y0189550D01*
X0234851Y0190471D02*
X0234851Y0187853D01*
X0235506Y0187198D01*
X0236815Y0187198D01*
X0237470Y0187853D01*
X0239202Y0187198D02*
X0241820Y0187198D01*
X0240511Y0187198D02*
X0240511Y0191126D01*
X0239202Y0189816D01*
X0237470Y0190471D02*
X0236815Y0191126D01*
X0235506Y0191126D01*
X0234851Y0190471D01*
X0235202Y0196253D02*
X0235856Y0196908D01*
X0235202Y0196253D02*
X0233892Y0196253D01*
X0233238Y0196908D01*
X0233238Y0199526D01*
X0233892Y0200181D01*
X0235202Y0200181D01*
X0235856Y0199526D01*
X0237588Y0199526D02*
X0238243Y0200181D01*
X0239552Y0200181D01*
X0240206Y0199526D01*
X0240206Y0198872D01*
X0239552Y0198217D01*
X0240206Y0197562D01*
X0240206Y0196908D01*
X0239552Y0196253D01*
X0238243Y0196253D01*
X0237588Y0196908D01*
X0238897Y0198217D02*
X0239552Y0198217D01*
X0244206Y0191126D02*
X0243552Y0190471D01*
X0244206Y0191126D02*
X0245516Y0191126D01*
X0246170Y0190471D01*
X0246170Y0189816D01*
X0245516Y0189162D01*
X0246170Y0188507D01*
X0246170Y0187853D01*
X0245516Y0187198D01*
X0244206Y0187198D01*
X0243552Y0187853D01*
X0244861Y0189162D02*
X0245516Y0189162D01*
X0262746Y0191002D02*
X0263400Y0190348D01*
X0264710Y0190348D01*
X0265364Y0191002D01*
X0265364Y0191657D01*
X0264710Y0192311D01*
X0263400Y0192311D01*
X0262746Y0192966D01*
X0262746Y0193621D01*
X0263400Y0194275D01*
X0264710Y0194275D01*
X0265364Y0193621D01*
X0267096Y0194275D02*
X0267096Y0190348D01*
X0268405Y0191657D01*
X0269714Y0190348D01*
X0269714Y0194275D01*
X0271446Y0193621D02*
X0272101Y0194275D01*
X0273410Y0194275D01*
X0274065Y0193621D01*
X0274065Y0192966D01*
X0273410Y0192311D01*
X0274065Y0191657D01*
X0274065Y0191002D01*
X0273410Y0190348D01*
X0272101Y0190348D01*
X0271446Y0191002D01*
X0272755Y0192311D02*
X0273410Y0192311D01*
X0273537Y0183251D02*
X0273537Y0180111D01*
X0272491Y0180111D02*
X0274584Y0180111D01*
X0274061Y0177739D02*
X0273014Y0177739D01*
X0272491Y0177216D01*
X0270959Y0177216D02*
X0270959Y0176693D01*
X0270435Y0176169D01*
X0270959Y0175646D01*
X0270959Y0175123D01*
X0270435Y0174599D01*
X0269389Y0174599D01*
X0268866Y0175123D01*
X0269912Y0176169D02*
X0270435Y0176169D01*
X0270959Y0177216D02*
X0270435Y0177739D01*
X0269389Y0177739D01*
X0268866Y0177216D01*
X0267334Y0177216D02*
X0267334Y0176169D01*
X0266810Y0175646D01*
X0265241Y0175646D01*
X0266287Y0175646D02*
X0267334Y0174599D01*
X0265241Y0174599D02*
X0265241Y0177739D01*
X0266810Y0177739D01*
X0267334Y0177216D01*
X0267334Y0180111D02*
X0266287Y0181158D01*
X0266810Y0181158D02*
X0265241Y0181158D01*
X0265241Y0180111D02*
X0265241Y0183251D01*
X0266810Y0183251D01*
X0267334Y0182728D01*
X0267334Y0181681D01*
X0266810Y0181158D01*
X0268866Y0180635D02*
X0269389Y0180111D01*
X0270435Y0180111D01*
X0270959Y0180635D01*
X0270959Y0181158D01*
X0270435Y0181681D01*
X0269912Y0181681D01*
X0270435Y0181681D02*
X0270959Y0182204D01*
X0270959Y0182728D01*
X0270435Y0183251D01*
X0269389Y0183251D01*
X0268866Y0182728D01*
X0272491Y0182204D02*
X0273537Y0183251D01*
X0274061Y0177739D02*
X0274584Y0177216D01*
X0274584Y0176693D01*
X0272491Y0174599D01*
X0274584Y0174599D01*
X0274061Y0172227D02*
X0274584Y0171704D01*
X0274584Y0171181D01*
X0274061Y0170658D01*
X0274584Y0170134D01*
X0274584Y0169611D01*
X0274061Y0169088D01*
X0273014Y0169088D01*
X0272491Y0169611D01*
X0273537Y0170658D02*
X0274061Y0170658D01*
X0274061Y0172227D02*
X0273014Y0172227D01*
X0272491Y0171704D01*
X0270959Y0171704D02*
X0270959Y0171181D01*
X0270435Y0170658D01*
X0270959Y0170134D01*
X0270959Y0169611D01*
X0270435Y0169088D01*
X0269389Y0169088D01*
X0268866Y0169611D01*
X0269912Y0170658D02*
X0270435Y0170658D01*
X0270959Y0171704D02*
X0270435Y0172227D01*
X0269389Y0172227D01*
X0268866Y0171704D01*
X0267334Y0171704D02*
X0267334Y0170658D01*
X0266810Y0170134D01*
X0265241Y0170134D01*
X0266287Y0170134D02*
X0267334Y0169088D01*
X0265241Y0169088D02*
X0265241Y0172227D01*
X0266810Y0172227D01*
X0267334Y0171704D01*
X0266810Y0166716D02*
X0267334Y0166192D01*
X0267334Y0165146D01*
X0266810Y0164622D01*
X0265241Y0164622D01*
X0266287Y0164622D02*
X0267334Y0163576D01*
X0268866Y0164099D02*
X0269389Y0163576D01*
X0270435Y0163576D01*
X0270959Y0164099D01*
X0270959Y0164622D01*
X0270435Y0165146D01*
X0269912Y0165146D01*
X0270435Y0165146D02*
X0270959Y0165669D01*
X0270959Y0166192D01*
X0270435Y0166716D01*
X0269389Y0166716D01*
X0268866Y0166192D01*
X0266810Y0166716D02*
X0265241Y0166716D01*
X0265241Y0163576D01*
X0265317Y0158054D02*
X0264271Y0158054D01*
X0263748Y0157531D01*
X0262216Y0157531D02*
X0261692Y0158054D01*
X0260646Y0158054D01*
X0260122Y0157531D01*
X0260122Y0155438D01*
X0260646Y0154914D01*
X0261692Y0154914D01*
X0262216Y0155438D01*
X0263748Y0154914D02*
X0265841Y0157008D01*
X0265841Y0157531D01*
X0265317Y0158054D01*
X0267373Y0157531D02*
X0267896Y0158054D01*
X0268943Y0158054D01*
X0269466Y0157531D01*
X0267373Y0155438D01*
X0267896Y0154914D01*
X0268943Y0154914D01*
X0269466Y0155438D01*
X0269466Y0157531D01*
X0267373Y0157531D02*
X0267373Y0155438D01*
X0265841Y0154914D02*
X0263748Y0154914D01*
X0263823Y0145062D02*
X0263299Y0144539D01*
X0263299Y0142446D01*
X0263823Y0141922D01*
X0264869Y0141922D01*
X0265392Y0142446D01*
X0266924Y0141922D02*
X0269018Y0141922D01*
X0267971Y0141922D02*
X0267971Y0145062D01*
X0266924Y0144015D01*
X0265392Y0144539D02*
X0264869Y0145062D01*
X0263823Y0145062D01*
X0261929Y0145062D02*
X0260883Y0145062D01*
X0261406Y0145062D02*
X0261406Y0141922D01*
X0260883Y0141922D02*
X0261929Y0141922D01*
X0264020Y0134433D02*
X0263366Y0133778D01*
X0263366Y0133123D01*
X0264020Y0132469D01*
X0265329Y0132469D01*
X0265984Y0131814D01*
X0265984Y0131160D01*
X0265329Y0130505D01*
X0264020Y0130505D01*
X0263366Y0131160D01*
X0264020Y0134433D02*
X0265329Y0134433D01*
X0265984Y0133778D01*
X0267716Y0134433D02*
X0267716Y0130505D01*
X0269025Y0131814D01*
X0270334Y0130505D01*
X0270334Y0134433D01*
X0272066Y0132469D02*
X0274684Y0132469D01*
X0274030Y0134433D02*
X0272066Y0132469D01*
X0274030Y0130505D02*
X0274030Y0134433D01*
X0272119Y0141922D02*
X0271073Y0141922D01*
X0270550Y0142446D01*
X0272643Y0144539D01*
X0272643Y0142446D01*
X0272119Y0141922D01*
X0270550Y0142446D02*
X0270550Y0144539D01*
X0271073Y0145062D01*
X0272119Y0145062D01*
X0272643Y0144539D01*
X0274061Y0163576D02*
X0274061Y0166716D01*
X0272491Y0165146D01*
X0274584Y0165146D01*
X0274458Y0212395D02*
X0271840Y0212395D01*
X0274458Y0215013D01*
X0274458Y0215668D01*
X0273804Y0216323D01*
X0272494Y0216323D01*
X0271840Y0215668D01*
X0270108Y0216323D02*
X0270108Y0212395D01*
X0268799Y0213704D01*
X0267490Y0212395D01*
X0267490Y0216323D01*
X0265758Y0215668D02*
X0265103Y0216323D01*
X0263794Y0216323D01*
X0263140Y0215668D01*
X0263140Y0215013D01*
X0263794Y0214359D01*
X0265103Y0214359D01*
X0265758Y0213704D01*
X0265758Y0213049D01*
X0265103Y0212395D01*
X0263794Y0212395D01*
X0263140Y0213049D01*
X0256531Y0217907D02*
X0253913Y0217907D01*
X0256531Y0220525D01*
X0256531Y0221180D01*
X0255877Y0221834D01*
X0254567Y0221834D01*
X0253913Y0221180D01*
X0252181Y0221180D02*
X0251526Y0221834D01*
X0250217Y0221834D01*
X0249563Y0221180D01*
X0249563Y0218561D01*
X0250217Y0217907D01*
X0251526Y0217907D01*
X0252181Y0218561D01*
X0247972Y0217907D02*
X0246662Y0217907D01*
X0247317Y0217907D02*
X0247317Y0221834D01*
X0246662Y0221834D02*
X0247972Y0221834D01*
X0236001Y0218290D02*
X0234955Y0217767D01*
X0233908Y0216720D01*
X0235478Y0216720D01*
X0236001Y0216197D01*
X0236001Y0215674D01*
X0235478Y0215151D01*
X0234431Y0215151D01*
X0233908Y0215674D01*
X0233908Y0216720D01*
X0232376Y0216197D02*
X0232376Y0215674D01*
X0231853Y0215151D01*
X0230806Y0215151D01*
X0230283Y0215674D01*
X0231330Y0216720D02*
X0231853Y0216720D01*
X0232376Y0216197D01*
X0231853Y0216720D02*
X0232376Y0217244D01*
X0232376Y0217767D01*
X0231853Y0218290D01*
X0230806Y0218290D01*
X0230283Y0217767D01*
X0228751Y0217767D02*
X0228751Y0216720D01*
X0228228Y0216197D01*
X0226658Y0216197D01*
X0226658Y0215151D02*
X0226658Y0218290D01*
X0228228Y0218290D01*
X0228751Y0217767D01*
X0227704Y0216197D02*
X0228751Y0215151D01*
X0228228Y0213566D02*
X0228751Y0213043D01*
X0228751Y0211996D01*
X0228228Y0211473D01*
X0226658Y0211473D01*
X0227704Y0211473D02*
X0228751Y0210426D01*
X0230283Y0210950D02*
X0230806Y0210426D01*
X0231853Y0210426D01*
X0232376Y0210950D01*
X0232376Y0211473D01*
X0231853Y0211996D01*
X0231330Y0211996D01*
X0231853Y0211996D02*
X0232376Y0212519D01*
X0232376Y0213043D01*
X0231853Y0213566D01*
X0230806Y0213566D01*
X0230283Y0213043D01*
X0228228Y0213566D02*
X0226658Y0213566D01*
X0226658Y0210426D01*
X0225772Y0208842D02*
X0224463Y0208842D01*
X0223808Y0208188D01*
X0223808Y0205569D01*
X0224463Y0204914D01*
X0225772Y0204914D01*
X0226427Y0205569D01*
X0228159Y0204914D02*
X0230777Y0204914D01*
X0229468Y0204914D02*
X0229468Y0208842D01*
X0228159Y0207533D01*
X0226427Y0208188D02*
X0225772Y0208842D01*
X0233908Y0210426D02*
X0233908Y0210950D01*
X0236001Y0213043D01*
X0236001Y0213566D01*
X0233908Y0213566D01*
X0221098Y0220662D02*
X0218480Y0220662D01*
X0219789Y0220662D02*
X0219789Y0224590D01*
X0218480Y0223281D01*
X0216748Y0223936D02*
X0216093Y0224590D01*
X0214784Y0224590D01*
X0214130Y0223936D01*
X0214130Y0221317D01*
X0214784Y0220662D01*
X0216093Y0220662D01*
X0216748Y0221317D01*
X0212539Y0220662D02*
X0211229Y0220662D01*
X0211884Y0220662D02*
X0211884Y0224590D01*
X0211229Y0224590D02*
X0212539Y0224590D01*
X0214773Y0184826D02*
X0216343Y0184826D01*
X0216866Y0184302D01*
X0214773Y0184826D02*
X0214773Y0181686D01*
X0222023Y0179578D02*
X0222023Y0179055D01*
X0222546Y0178532D01*
X0223593Y0178532D01*
X0224116Y0178008D01*
X0224116Y0177485D01*
X0223593Y0176962D01*
X0222546Y0176962D01*
X0222023Y0177485D01*
X0222023Y0178008D01*
X0222546Y0178532D01*
X0223593Y0178532D02*
X0224116Y0179055D01*
X0224116Y0179578D01*
X0223593Y0180101D01*
X0222546Y0180101D01*
X0222023Y0179578D01*
X0201749Y0181816D02*
X0201226Y0181292D01*
X0200179Y0181292D01*
X0199656Y0181816D01*
X0199656Y0182862D02*
X0200703Y0183386D01*
X0201226Y0183386D01*
X0201749Y0182862D01*
X0201749Y0181816D01*
X0199656Y0182862D02*
X0199656Y0184432D01*
X0201749Y0184432D01*
X0198124Y0183909D02*
X0198124Y0183386D01*
X0197601Y0182862D01*
X0198124Y0182339D01*
X0198124Y0181816D01*
X0197601Y0181292D01*
X0196554Y0181292D01*
X0196031Y0181816D01*
X0197078Y0182862D02*
X0197601Y0182862D01*
X0198124Y0183909D02*
X0197601Y0184432D01*
X0196554Y0184432D01*
X0196031Y0183909D01*
X0194499Y0183909D02*
X0194499Y0182862D01*
X0193976Y0182339D01*
X0192406Y0182339D01*
X0193452Y0182339D02*
X0194499Y0181292D01*
X0192406Y0181292D02*
X0192406Y0184432D01*
X0193976Y0184432D01*
X0194499Y0183909D01*
X0187595Y0119068D02*
X0183667Y0119068D01*
X0163318Y0314137D02*
X0160700Y0314137D01*
X0160045Y0314792D01*
X0160045Y0316101D01*
X0160700Y0316756D01*
X0161354Y0318487D02*
X0160045Y0319797D01*
X0163973Y0319797D01*
X0163973Y0321106D02*
X0163973Y0318487D01*
X0163318Y0316756D02*
X0163973Y0316101D01*
X0163973Y0314792D01*
X0163318Y0314137D01*
X0163318Y0322838D02*
X0163973Y0322838D01*
X0163318Y0322838D02*
X0160700Y0325456D01*
X0160045Y0325456D01*
X0160045Y0322838D01*
D11*
X0092988Y0090327D02*
X0093084Y0090211D01*
X0095278Y0089788D01*
X0095365Y0089717D01*
X0096126Y0087879D01*
X0096115Y0087768D01*
X0094863Y0085917D01*
X0094877Y0085767D01*
X0096458Y0084186D01*
X0096608Y0084171D01*
X0098459Y0085424D01*
X0098571Y0085435D01*
X0099412Y0085086D01*
X0099567Y0085151D01*
X0101116Y0088946D01*
X0100790Y0088766D02*
X0099215Y0085420D01*
X0098428Y0086010D01*
X0096656Y0084436D01*
X0095475Y0085814D01*
X0096459Y0087782D01*
X0095475Y0090144D01*
X0093310Y0090538D01*
X0093310Y0092310D01*
X0095672Y0092900D01*
X0096459Y0095066D01*
X0095278Y0096640D01*
X0096656Y0098215D01*
X0098428Y0097034D01*
X0100790Y0098018D01*
X0101184Y0100184D01*
X0103152Y0100184D01*
X0103546Y0097822D01*
X0105908Y0097034D01*
X0107680Y0098215D01*
X0108861Y0097034D01*
X0107680Y0095066D01*
X0108664Y0092900D01*
X0110829Y0092310D01*
X0110829Y0090538D01*
X0108664Y0090144D01*
X0107680Y0087782D01*
X0108861Y0085814D01*
X0107680Y0084633D01*
X0105908Y0085814D01*
X0104924Y0085617D01*
X0103546Y0088766D01*
X0105318Y0090932D01*
X0104530Y0093491D01*
X0102168Y0094672D01*
X0099412Y0093294D01*
X0099215Y0090735D01*
X0100790Y0088766D01*
X0100567Y0089045D02*
X0095933Y0089045D01*
X0096260Y0088260D02*
X0100552Y0088260D01*
X0100182Y0087474D02*
X0096305Y0087474D01*
X0095912Y0086688D02*
X0099812Y0086688D01*
X0099442Y0085902D02*
X0098573Y0085902D01*
X0098306Y0085902D02*
X0095519Y0085902D01*
X0096073Y0085116D02*
X0097421Y0085116D01*
X0095605Y0089831D02*
X0099938Y0089831D01*
X0099309Y0090617D02*
X0093310Y0090617D01*
X0092988Y0090327D02*
X0092988Y0092564D01*
X0093084Y0092680D01*
X0095278Y0093103D01*
X0095365Y0093174D01*
X0096126Y0095012D01*
X0096115Y0095123D01*
X0094863Y0096974D01*
X0094877Y0097124D01*
X0096458Y0098706D01*
X0096608Y0098720D01*
X0098459Y0097468D01*
X0098571Y0097456D01*
X0100409Y0098218D01*
X0100479Y0098304D01*
X0100903Y0100499D01*
X0101019Y0100595D01*
X0103255Y0100595D01*
X0103371Y0100499D01*
X0103795Y0098304D01*
X0103865Y0098218D01*
X0105703Y0097456D01*
X0105815Y0097468D01*
X0107666Y0098720D01*
X0107815Y0098706D01*
X0109397Y0097124D01*
X0109411Y0096974D01*
X0108159Y0095123D01*
X0108148Y0095012D01*
X0108909Y0093174D01*
X0108996Y0093103D01*
X0111190Y0092680D01*
X0111286Y0092564D01*
X0111286Y0090327D01*
X0111190Y0090211D01*
X0108996Y0089788D01*
X0108909Y0089717D01*
X0108148Y0087879D01*
X0108159Y0087768D01*
X0109411Y0085917D01*
X0109397Y0085767D01*
X0107815Y0084186D01*
X0107666Y0084171D01*
X0105815Y0085424D01*
X0105703Y0085435D01*
X0104862Y0085086D01*
X0104707Y0085151D01*
X0103158Y0088946D01*
X0103774Y0089045D02*
X0108206Y0089045D01*
X0107879Y0088260D02*
X0103768Y0088260D01*
X0104112Y0087474D02*
X0107865Y0087474D01*
X0108336Y0086688D02*
X0104455Y0086688D01*
X0104799Y0085902D02*
X0108808Y0085902D01*
X0108163Y0085116D02*
X0106955Y0085116D01*
X0108534Y0089831D02*
X0104417Y0089831D01*
X0105060Y0090617D02*
X0110829Y0090617D01*
X0110829Y0091403D02*
X0105173Y0091403D01*
X0104931Y0092189D02*
X0110829Y0092189D01*
X0108630Y0092975D02*
X0104689Y0092975D01*
X0103990Y0093761D02*
X0108273Y0093761D01*
X0107916Y0094547D02*
X0102418Y0094547D01*
X0101918Y0094547D02*
X0096271Y0094547D01*
X0096259Y0095333D02*
X0107840Y0095333D01*
X0108312Y0096119D02*
X0095670Y0096119D01*
X0095509Y0096905D02*
X0108783Y0096905D01*
X0108204Y0097691D02*
X0106893Y0097691D01*
X0103939Y0097691D02*
X0100003Y0097691D01*
X0100873Y0098476D02*
X0103437Y0098476D01*
X0103306Y0099262D02*
X0101016Y0099262D01*
X0101159Y0100048D02*
X0103175Y0100048D01*
X0100346Y0093761D02*
X0095985Y0093761D01*
X0095699Y0092975D02*
X0099388Y0092975D01*
X0099327Y0092189D02*
X0093310Y0092189D01*
X0093310Y0091403D02*
X0099267Y0091403D01*
X0100987Y0089160D02*
X0100897Y0089207D01*
X0100809Y0089258D01*
X0100722Y0089312D01*
X0100638Y0089369D01*
X0100556Y0089430D01*
X0100477Y0089493D01*
X0100400Y0089560D01*
X0100326Y0089629D01*
X0100254Y0089702D01*
X0100186Y0089777D01*
X0100120Y0089855D01*
X0100057Y0089935D01*
X0099998Y0090017D01*
X0099941Y0090102D01*
X0099888Y0090189D01*
X0099839Y0090278D01*
X0099792Y0090368D01*
X0099750Y0090461D01*
X0099711Y0090555D01*
X0099675Y0090650D01*
X0099643Y0090747D01*
X0099615Y0090844D01*
X0099591Y0090943D01*
X0099571Y0091043D01*
X0099554Y0091143D01*
X0099542Y0091244D01*
X0099533Y0091346D01*
X0099528Y0091447D01*
X0099527Y0091549D01*
X0099530Y0091651D01*
X0099537Y0091752D01*
X0099548Y0091854D01*
X0099563Y0091954D01*
X0099581Y0092054D01*
X0099604Y0092154D01*
X0099630Y0092252D01*
X0099660Y0092349D01*
X0099694Y0092445D01*
X0099731Y0092540D01*
X0099772Y0092633D01*
X0099817Y0092724D01*
X0099865Y0092814D01*
X0099916Y0092902D01*
X0099971Y0092987D01*
X0100029Y0093071D01*
X0100090Y0093152D01*
X0100155Y0093231D01*
X0100222Y0093307D01*
X0100292Y0093381D01*
X0100365Y0093452D01*
X0100441Y0093520D01*
X0100519Y0093585D01*
X0100600Y0093647D01*
X0100683Y0093706D01*
X0100768Y0093761D01*
X0100855Y0093814D01*
X0100945Y0093863D01*
X0101036Y0093908D01*
X0101128Y0093950D01*
X0101223Y0093988D01*
X0101318Y0094023D01*
X0101415Y0094053D01*
X0101513Y0094081D01*
X0101612Y0094104D01*
X0101712Y0094123D01*
X0101813Y0094139D01*
X0101914Y0094151D01*
X0102015Y0094159D01*
X0102117Y0094163D01*
X0102219Y0094163D01*
X0102321Y0094159D01*
X0102422Y0094151D01*
X0102523Y0094139D01*
X0102624Y0094123D01*
X0102724Y0094104D01*
X0102823Y0094081D01*
X0102921Y0094053D01*
X0103018Y0094023D01*
X0103113Y0093988D01*
X0103208Y0093950D01*
X0103300Y0093908D01*
X0103391Y0093863D01*
X0103481Y0093814D01*
X0103568Y0093761D01*
X0103653Y0093706D01*
X0103736Y0093647D01*
X0103817Y0093585D01*
X0103895Y0093520D01*
X0103971Y0093452D01*
X0104044Y0093381D01*
X0104114Y0093307D01*
X0104181Y0093231D01*
X0104246Y0093152D01*
X0104307Y0093071D01*
X0104365Y0092987D01*
X0104420Y0092902D01*
X0104471Y0092814D01*
X0104519Y0092724D01*
X0104564Y0092633D01*
X0104605Y0092540D01*
X0104642Y0092445D01*
X0104676Y0092349D01*
X0104706Y0092252D01*
X0104732Y0092154D01*
X0104755Y0092054D01*
X0104773Y0091954D01*
X0104788Y0091854D01*
X0104799Y0091752D01*
X0104806Y0091651D01*
X0104809Y0091549D01*
X0104808Y0091447D01*
X0104803Y0091346D01*
X0104794Y0091244D01*
X0104782Y0091143D01*
X0104765Y0091043D01*
X0104745Y0090943D01*
X0104721Y0090844D01*
X0104693Y0090747D01*
X0104661Y0090650D01*
X0104625Y0090555D01*
X0104586Y0090461D01*
X0104544Y0090368D01*
X0104497Y0090278D01*
X0104448Y0090189D01*
X0104395Y0090102D01*
X0104338Y0090017D01*
X0104279Y0089935D01*
X0104216Y0089855D01*
X0104150Y0089777D01*
X0104082Y0089702D01*
X0104010Y0089629D01*
X0103936Y0089560D01*
X0103859Y0089493D01*
X0103780Y0089430D01*
X0103698Y0089369D01*
X0103614Y0089312D01*
X0103527Y0089258D01*
X0103439Y0089207D01*
X0103349Y0089160D01*
X0097443Y0097691D02*
X0096197Y0097691D01*
X0091932Y0110026D02*
X0083270Y0110026D01*
X0091932Y0110026D02*
X0091932Y0159633D01*
X0083270Y0159633D01*
X0094688Y0154514D02*
X0094688Y0152152D01*
X0099412Y0152152D02*
X0099412Y0154514D01*
X0102168Y0154514D02*
X0102168Y0152152D01*
X0106892Y0152152D02*
X0106892Y0154514D01*
X0110160Y0153451D02*
X0110160Y0152310D01*
X0120199Y0152310D01*
X0120199Y0157467D01*
X0110160Y0157467D01*
X0110160Y0156365D01*
X0110829Y0155696D01*
X0110829Y0154121D01*
X0110160Y0153451D01*
X0108585Y0150774D02*
X0108585Y0147192D01*
X0119885Y0139948D02*
X0119885Y0139554D01*
X0123822Y0139554D01*
X0123822Y0139160D01*
X0123822Y0139554D02*
X0123822Y0139948D01*
X0119885Y0139554D02*
X0119885Y0139160D01*
X0128152Y0139160D02*
X0128546Y0139160D01*
X0128546Y0135223D01*
X0128152Y0135223D01*
X0128546Y0135223D02*
X0128940Y0135223D01*
X0128940Y0134436D02*
X0128546Y0134436D01*
X0128546Y0130499D01*
X0128152Y0130499D01*
X0128546Y0130499D02*
X0128940Y0130499D01*
X0128546Y0134436D02*
X0128152Y0134436D01*
X0128546Y0139160D02*
X0128940Y0139160D01*
X0123822Y0130499D02*
X0123822Y0130105D01*
X0119885Y0130105D01*
X0119885Y0130499D01*
X0119885Y0130105D02*
X0119885Y0129711D01*
X0123822Y0129711D02*
X0123822Y0130105D01*
X0126577Y0160420D02*
X0126577Y0186404D01*
X0140751Y0186404D01*
X0140751Y0160420D01*
X0126577Y0160420D01*
X0107286Y0165538D02*
X0104924Y0165538D01*
X0104924Y0170262D02*
X0107286Y0170262D01*
X0091932Y0180892D02*
X0083270Y0180892D01*
X0091932Y0180892D02*
X0091932Y0230499D01*
X0083270Y0230499D01*
X0094688Y0225381D02*
X0094688Y0223018D01*
X0099412Y0223018D02*
X0099412Y0225381D01*
X0102168Y0225381D02*
X0102168Y0223018D01*
X0106892Y0223018D02*
X0106892Y0225381D01*
X0110160Y0224318D02*
X0110829Y0224987D01*
X0110829Y0226562D01*
X0110160Y0227231D01*
X0110160Y0228333D01*
X0120199Y0228333D01*
X0120199Y0223176D01*
X0110160Y0223176D01*
X0110160Y0224318D01*
X0108585Y0221640D02*
X0108585Y0218058D01*
X0119885Y0210814D02*
X0119885Y0210420D01*
X0123822Y0210420D01*
X0123822Y0210026D01*
X0123822Y0210420D02*
X0123822Y0210814D01*
X0119885Y0210420D02*
X0119885Y0210026D01*
X0128152Y0210026D02*
X0128546Y0210026D01*
X0128546Y0206089D01*
X0128152Y0206089D01*
X0128546Y0206089D02*
X0128940Y0206089D01*
X0128940Y0205302D02*
X0128546Y0205302D01*
X0128546Y0201365D01*
X0128152Y0201365D01*
X0128546Y0201365D02*
X0128940Y0201365D01*
X0128546Y0205302D02*
X0128152Y0205302D01*
X0128546Y0210026D02*
X0128940Y0210026D01*
X0123822Y0201365D02*
X0123822Y0200971D01*
X0119885Y0200971D01*
X0119885Y0201365D01*
X0119885Y0200971D02*
X0119885Y0200577D01*
X0123822Y0200577D02*
X0123822Y0200971D01*
X0126577Y0231680D02*
X0126577Y0257664D01*
X0140751Y0257664D01*
X0140751Y0231680D01*
X0126577Y0231680D01*
X0107286Y0236404D02*
X0104924Y0236404D01*
X0104924Y0241129D02*
X0107286Y0241129D01*
X0091932Y0251759D02*
X0083270Y0251759D01*
X0091932Y0251759D02*
X0091932Y0301365D01*
X0083270Y0301365D01*
X0094688Y0296247D02*
X0094688Y0293885D01*
X0099412Y0293885D02*
X0099412Y0296247D01*
X0102168Y0296247D02*
X0102168Y0293885D01*
X0106892Y0293885D02*
X0106892Y0296247D01*
X0110160Y0295184D02*
X0110829Y0295853D01*
X0110829Y0297428D01*
X0110160Y0298097D01*
X0110160Y0299199D01*
X0120199Y0299199D01*
X0120199Y0294042D01*
X0110160Y0294042D01*
X0110160Y0295184D01*
X0108585Y0292507D02*
X0108585Y0288924D01*
X0119885Y0281680D02*
X0119885Y0281286D01*
X0123822Y0281286D01*
X0123822Y0280892D01*
X0123822Y0281286D02*
X0123822Y0281680D01*
X0119885Y0281286D02*
X0119885Y0280892D01*
X0128152Y0280892D02*
X0128546Y0280892D01*
X0128546Y0276955D01*
X0128152Y0276955D01*
X0128546Y0276955D02*
X0128940Y0276955D01*
X0128940Y0276168D02*
X0128546Y0276168D01*
X0128546Y0272231D01*
X0128152Y0272231D01*
X0128546Y0272231D02*
X0128940Y0272231D01*
X0128546Y0276168D02*
X0128152Y0276168D01*
X0128546Y0280892D02*
X0128940Y0280892D01*
X0123822Y0272231D02*
X0123822Y0271837D01*
X0119885Y0271837D01*
X0119885Y0272231D01*
X0119885Y0271837D02*
X0119885Y0271444D01*
X0123822Y0271444D02*
X0123822Y0271837D01*
X0153743Y0250184D02*
X0153743Y0247822D01*
X0158467Y0247822D02*
X0158467Y0250184D01*
X0183664Y0218688D02*
X0183270Y0218294D01*
X0183270Y0193097D02*
X0183664Y0192703D01*
X0182877Y0185617D02*
X0182483Y0185617D01*
X0182483Y0181680D01*
X0182089Y0181680D01*
X0182483Y0181680D02*
X0182877Y0181680D01*
X0182483Y0185617D02*
X0182089Y0185617D01*
X0187207Y0181680D02*
X0187207Y0181286D01*
X0191144Y0181286D01*
X0191144Y0181680D01*
X0191144Y0181286D02*
X0191144Y0180892D01*
X0187207Y0180892D02*
X0187207Y0181286D01*
X0189083Y0175774D02*
X0189085Y0175833D01*
X0189091Y0175891D01*
X0189101Y0175949D01*
X0189114Y0176006D01*
X0189132Y0176063D01*
X0189153Y0176118D01*
X0189178Y0176171D01*
X0189206Y0176222D01*
X0189237Y0176272D01*
X0189272Y0176319D01*
X0189310Y0176364D01*
X0189351Y0176407D01*
X0189395Y0176446D01*
X0189441Y0176482D01*
X0189489Y0176516D01*
X0189540Y0176546D01*
X0189593Y0176572D01*
X0189647Y0176595D01*
X0189702Y0176614D01*
X0189759Y0176630D01*
X0189817Y0176642D01*
X0189875Y0176650D01*
X0189934Y0176654D01*
X0189992Y0176654D01*
X0190051Y0176650D01*
X0190109Y0176642D01*
X0190167Y0176630D01*
X0190224Y0176614D01*
X0190279Y0176595D01*
X0190333Y0176572D01*
X0190386Y0176546D01*
X0190437Y0176516D01*
X0190485Y0176482D01*
X0190531Y0176446D01*
X0190575Y0176407D01*
X0190616Y0176364D01*
X0190654Y0176319D01*
X0190689Y0176272D01*
X0190720Y0176222D01*
X0190748Y0176171D01*
X0190773Y0176118D01*
X0190794Y0176063D01*
X0190812Y0176006D01*
X0190825Y0175949D01*
X0190835Y0175891D01*
X0190841Y0175833D01*
X0190843Y0175774D01*
X0190841Y0175715D01*
X0190835Y0175657D01*
X0190825Y0175599D01*
X0190812Y0175542D01*
X0190794Y0175485D01*
X0190773Y0175430D01*
X0190748Y0175377D01*
X0190720Y0175326D01*
X0190689Y0175276D01*
X0190654Y0175229D01*
X0190616Y0175184D01*
X0190575Y0175141D01*
X0190531Y0175102D01*
X0190485Y0175066D01*
X0190437Y0175032D01*
X0190386Y0175002D01*
X0190333Y0174976D01*
X0190279Y0174953D01*
X0190224Y0174934D01*
X0190167Y0174918D01*
X0190109Y0174906D01*
X0190051Y0174898D01*
X0189992Y0174894D01*
X0189934Y0174894D01*
X0189875Y0174898D01*
X0189817Y0174906D01*
X0189759Y0174918D01*
X0189702Y0174934D01*
X0189647Y0174953D01*
X0189593Y0174976D01*
X0189540Y0175002D01*
X0189489Y0175032D01*
X0189441Y0175066D01*
X0189395Y0175102D01*
X0189351Y0175141D01*
X0189310Y0175184D01*
X0189272Y0175229D01*
X0189237Y0175276D01*
X0189206Y0175326D01*
X0189178Y0175377D01*
X0189153Y0175430D01*
X0189132Y0175485D01*
X0189114Y0175542D01*
X0189101Y0175599D01*
X0189091Y0175657D01*
X0189085Y0175715D01*
X0189083Y0175774D01*
X0190751Y0174987D02*
X0192719Y0174987D01*
X0190751Y0174987D02*
X0190751Y0173018D01*
X0192719Y0167703D02*
X0192719Y0165735D01*
X0190751Y0166325D02*
X0190751Y0166719D01*
X0186814Y0166719D01*
X0186814Y0166325D01*
X0186814Y0166719D02*
X0186814Y0167113D01*
X0190751Y0167113D02*
X0190751Y0166719D01*
X0190751Y0160420D02*
X0190751Y0158451D01*
X0192719Y0158451D01*
X0197050Y0157664D02*
X0197444Y0157664D01*
X0197444Y0153727D01*
X0197050Y0153727D01*
X0197444Y0153727D02*
X0197837Y0153727D01*
X0197837Y0157664D02*
X0197444Y0157664D01*
X0197640Y0160420D02*
X0197247Y0160420D01*
X0202168Y0158451D02*
X0204136Y0158451D01*
X0204136Y0160420D01*
X0202168Y0165735D02*
X0202168Y0167703D01*
X0204136Y0173018D02*
X0204136Y0174987D01*
X0202168Y0174987D01*
X0198231Y0174987D01*
X0198231Y0178136D01*
X0202168Y0178136D01*
X0202168Y0174987D01*
X0197640Y0173018D02*
X0197247Y0173018D01*
X0209255Y0176562D02*
X0209648Y0176562D01*
X0209648Y0180499D01*
X0209255Y0180499D01*
X0209648Y0180499D02*
X0210042Y0180499D01*
X0210042Y0181286D02*
X0209648Y0181286D01*
X0209648Y0185223D01*
X0209255Y0185223D01*
X0209648Y0185223D02*
X0210042Y0185223D01*
X0209648Y0181286D02*
X0209255Y0181286D01*
X0209648Y0176562D02*
X0210042Y0176562D01*
X0208861Y0192703D02*
X0209255Y0193097D01*
X0218703Y0204514D02*
X0218703Y0204908D01*
X0222640Y0204908D01*
X0222640Y0205302D01*
X0222640Y0204908D02*
X0222640Y0204514D01*
X0218703Y0204908D02*
X0218703Y0205302D01*
X0221066Y0210026D02*
X0221459Y0210026D01*
X0221459Y0213963D01*
X0221066Y0213963D01*
X0221459Y0213963D02*
X0221853Y0213963D01*
X0221853Y0214751D02*
X0221459Y0214751D01*
X0221459Y0218688D01*
X0221066Y0218688D01*
X0221459Y0218688D02*
X0221853Y0218688D01*
X0221459Y0214751D02*
X0221066Y0214751D01*
X0221459Y0210026D02*
X0221853Y0210026D01*
X0209255Y0218294D02*
X0208861Y0218688D01*
X0224215Y0194672D02*
X0224609Y0194672D01*
X0224609Y0190735D01*
X0224215Y0190735D01*
X0224609Y0190735D02*
X0225003Y0190735D01*
X0225003Y0194672D02*
X0224609Y0194672D01*
X0241144Y0195853D02*
X0241144Y0196247D01*
X0245081Y0196247D01*
X0245081Y0195853D01*
X0245081Y0196247D02*
X0245081Y0196640D01*
X0246066Y0199987D02*
X0246066Y0201168D01*
X0246066Y0199987D02*
X0247247Y0199987D01*
X0241144Y0196640D02*
X0241144Y0196247D01*
X0240751Y0185223D02*
X0240357Y0185223D01*
X0240357Y0181286D01*
X0239963Y0181286D01*
X0240357Y0181286D02*
X0240751Y0181286D01*
X0240357Y0185223D02*
X0239963Y0185223D01*
X0246262Y0173018D02*
X0246262Y0159633D01*
X0252168Y0158451D02*
X0252562Y0158451D01*
X0252562Y0154514D01*
X0252955Y0154514D01*
X0252562Y0154514D02*
X0252168Y0154514D01*
X0252562Y0158451D02*
X0252955Y0158451D01*
X0259648Y0163176D02*
X0260042Y0163176D01*
X0260042Y0167113D01*
X0260436Y0167113D01*
X0260042Y0167113D02*
X0259648Y0167113D01*
X0259648Y0168688D02*
X0260042Y0168688D01*
X0260042Y0172625D01*
X0260436Y0172625D01*
X0260042Y0172625D02*
X0259648Y0172625D01*
X0259648Y0174199D02*
X0260042Y0174199D01*
X0260042Y0178136D01*
X0260436Y0178136D01*
X0260042Y0178136D02*
X0259648Y0178136D01*
X0259648Y0179711D02*
X0260042Y0179711D01*
X0260042Y0183648D01*
X0260436Y0183648D01*
X0260042Y0183648D02*
X0259648Y0183648D01*
X0260042Y0179711D02*
X0260436Y0179711D01*
X0260436Y0174199D02*
X0260042Y0174199D01*
X0260042Y0168688D02*
X0260436Y0168688D01*
X0260436Y0163176D02*
X0260042Y0163176D01*
X0259648Y0149396D02*
X0258861Y0149396D01*
X0259648Y0149396D02*
X0259648Y0137585D01*
X0258861Y0137585D01*
X0255711Y0130499D02*
X0255711Y0129711D01*
X0254924Y0130499D01*
X0255711Y0130499D01*
X0254530Y0129318D01*
X0254136Y0129711D01*
X0253349Y0128924D01*
X0252168Y0128136D02*
X0249806Y0126562D01*
X0249806Y0126955D01*
X0251381Y0128136D01*
X0249806Y0129318D01*
X0249806Y0126955D01*
X0251381Y0128136D02*
X0246656Y0128136D01*
X0249806Y0129318D02*
X0249806Y0129711D01*
X0252168Y0128136D01*
X0252168Y0125774D01*
X0252168Y0128136D02*
X0251381Y0128136D01*
X0252168Y0128136D02*
X0252168Y0130499D01*
X0252168Y0128136D02*
X0255318Y0128136D01*
X0247050Y0119475D02*
X0246656Y0119475D01*
X0246656Y0115538D01*
X0246262Y0115538D01*
X0246656Y0115538D02*
X0247050Y0115538D01*
X0246656Y0119475D02*
X0246262Y0119475D01*
X0246262Y0107664D02*
X0246656Y0107664D01*
X0246656Y0103727D01*
X0246262Y0103727D01*
X0246656Y0103727D02*
X0247050Y0103727D01*
X0247050Y0107664D02*
X0246656Y0107664D01*
X0246656Y0095853D02*
X0246656Y0091916D01*
X0246262Y0091916D01*
X0246656Y0091916D02*
X0247050Y0091916D01*
X0247050Y0095853D02*
X0246656Y0095853D01*
X0246262Y0095853D01*
X0246262Y0084042D02*
X0246656Y0084042D01*
X0246656Y0080105D01*
X0246262Y0080105D01*
X0246656Y0080105D02*
X0247050Y0080105D01*
X0247050Y0084042D02*
X0246656Y0084042D01*
X0231101Y0090948D02*
X0231101Y0098585D01*
X0170085Y0098585D01*
X0170085Y0090948D01*
X0231101Y0090948D01*
X0230908Y0096247D02*
X0230908Y0098609D01*
X0228546Y0098609D01*
X0230908Y0096247D01*
X0230908Y0096905D02*
X0230250Y0096905D01*
X0230908Y0097691D02*
X0229464Y0097691D01*
X0228678Y0098476D02*
X0230908Y0098476D01*
X0226400Y0123534D02*
X0217306Y0123534D01*
X0217306Y0144550D01*
X0226400Y0144550D01*
X0226400Y0123534D01*
X0216164Y0123534D02*
X0207070Y0123534D01*
X0207070Y0144550D01*
X0216164Y0144550D01*
X0216164Y0123534D01*
X0217522Y0141916D02*
X0217522Y0144278D01*
X0219885Y0144278D01*
X0217522Y0141916D01*
X0217522Y0142488D02*
X0218094Y0142488D01*
X0217522Y0143273D02*
X0218880Y0143273D01*
X0219666Y0144059D02*
X0217522Y0144059D01*
X0222640Y0145853D02*
X0223034Y0145853D01*
X0223034Y0149790D01*
X0222640Y0149790D01*
X0223034Y0149790D02*
X0223428Y0149790D01*
X0223428Y0145853D02*
X0223034Y0145853D01*
X0216341Y0149790D02*
X0216341Y0150184D01*
X0212404Y0150184D01*
X0212404Y0149790D01*
X0212404Y0150184D02*
X0212404Y0150577D01*
X0216341Y0150577D02*
X0216341Y0150184D01*
X0209648Y0144278D02*
X0207286Y0144278D01*
X0207286Y0141916D01*
X0209648Y0144278D01*
X0209429Y0144059D02*
X0207286Y0144059D01*
X0207286Y0143273D02*
X0208644Y0143273D01*
X0207858Y0142488D02*
X0207286Y0142488D01*
X0226577Y0159633D02*
X0226577Y0173018D01*
X0247050Y0149396D02*
X0247050Y0137585D01*
X0247837Y0137585D01*
X0247837Y0149396D02*
X0247050Y0149396D01*
X0276184Y0146640D02*
X0276184Y0123018D01*
X0278546Y0123018D01*
X0287995Y0123018D02*
X0290357Y0123018D01*
X0290357Y0146640D01*
X0287995Y0146640D01*
X0278546Y0146640D02*
X0276184Y0146640D01*
X0276184Y0170262D02*
X0276184Y0193885D01*
X0278546Y0193885D01*
X0287995Y0193885D02*
X0290357Y0193885D01*
X0290357Y0170262D01*
X0287995Y0170262D01*
X0278546Y0170262D02*
X0276184Y0170262D01*
X0257483Y0199987D02*
X0257483Y0201168D01*
X0257483Y0199987D02*
X0256302Y0199987D01*
X0257483Y0210223D02*
X0257483Y0211404D01*
X0256302Y0211404D01*
X0247247Y0211404D02*
X0246066Y0211404D01*
X0246066Y0210223D01*
X0243507Y0213176D02*
X0243509Y0213232D01*
X0243515Y0213287D01*
X0243525Y0213341D01*
X0243538Y0213395D01*
X0243556Y0213448D01*
X0243577Y0213499D01*
X0243601Y0213549D01*
X0243629Y0213597D01*
X0243661Y0213643D01*
X0243695Y0213687D01*
X0243733Y0213728D01*
X0243773Y0213766D01*
X0243816Y0213801D01*
X0243861Y0213833D01*
X0243909Y0213862D01*
X0243958Y0213888D01*
X0244009Y0213910D01*
X0244061Y0213928D01*
X0244115Y0213942D01*
X0244170Y0213953D01*
X0244225Y0213960D01*
X0244280Y0213963D01*
X0244336Y0213962D01*
X0244391Y0213957D01*
X0244446Y0213948D01*
X0244500Y0213936D01*
X0244553Y0213919D01*
X0244605Y0213899D01*
X0244655Y0213875D01*
X0244703Y0213848D01*
X0244750Y0213818D01*
X0244794Y0213784D01*
X0244836Y0213747D01*
X0244874Y0213707D01*
X0244911Y0213665D01*
X0244944Y0213620D01*
X0244973Y0213574D01*
X0245000Y0213525D01*
X0245022Y0213474D01*
X0245042Y0213422D01*
X0245057Y0213368D01*
X0245069Y0213314D01*
X0245077Y0213259D01*
X0245081Y0213204D01*
X0245081Y0213148D01*
X0245077Y0213093D01*
X0245069Y0213038D01*
X0245057Y0212984D01*
X0245042Y0212930D01*
X0245022Y0212878D01*
X0245000Y0212827D01*
X0244973Y0212778D01*
X0244944Y0212732D01*
X0244911Y0212687D01*
X0244874Y0212645D01*
X0244836Y0212605D01*
X0244794Y0212568D01*
X0244750Y0212534D01*
X0244703Y0212504D01*
X0244655Y0212477D01*
X0244605Y0212453D01*
X0244553Y0212433D01*
X0244500Y0212416D01*
X0244446Y0212404D01*
X0244391Y0212395D01*
X0244336Y0212390D01*
X0244280Y0212389D01*
X0244225Y0212392D01*
X0244170Y0212399D01*
X0244115Y0212410D01*
X0244061Y0212424D01*
X0244009Y0212442D01*
X0243958Y0212464D01*
X0243909Y0212490D01*
X0243861Y0212519D01*
X0243816Y0212551D01*
X0243773Y0212586D01*
X0243733Y0212624D01*
X0243695Y0212665D01*
X0243661Y0212709D01*
X0243629Y0212755D01*
X0243601Y0212803D01*
X0243577Y0212853D01*
X0243556Y0212904D01*
X0243538Y0212957D01*
X0243525Y0213011D01*
X0243515Y0213065D01*
X0243509Y0213120D01*
X0243507Y0213176D01*
X0243900Y0213176D02*
X0243902Y0213215D01*
X0243908Y0213254D01*
X0243918Y0213292D01*
X0243931Y0213329D01*
X0243948Y0213364D01*
X0243968Y0213398D01*
X0243992Y0213429D01*
X0244019Y0213458D01*
X0244048Y0213484D01*
X0244080Y0213507D01*
X0244114Y0213527D01*
X0244150Y0213543D01*
X0244187Y0213555D01*
X0244226Y0213564D01*
X0244265Y0213569D01*
X0244304Y0213570D01*
X0244343Y0213567D01*
X0244382Y0213560D01*
X0244419Y0213549D01*
X0244456Y0213535D01*
X0244491Y0213517D01*
X0244524Y0213496D01*
X0244555Y0213471D01*
X0244583Y0213444D01*
X0244608Y0213414D01*
X0244630Y0213381D01*
X0244649Y0213347D01*
X0244664Y0213311D01*
X0244676Y0213273D01*
X0244684Y0213235D01*
X0244688Y0213196D01*
X0244688Y0213156D01*
X0244684Y0213117D01*
X0244676Y0213079D01*
X0244664Y0213041D01*
X0244649Y0213005D01*
X0244630Y0212971D01*
X0244608Y0212938D01*
X0244583Y0212908D01*
X0244555Y0212881D01*
X0244524Y0212856D01*
X0244491Y0212835D01*
X0244456Y0212817D01*
X0244419Y0212803D01*
X0244382Y0212792D01*
X0244343Y0212785D01*
X0244304Y0212782D01*
X0244265Y0212783D01*
X0244226Y0212788D01*
X0244187Y0212797D01*
X0244150Y0212809D01*
X0244114Y0212825D01*
X0244080Y0212845D01*
X0244048Y0212868D01*
X0244019Y0212894D01*
X0243992Y0212923D01*
X0243968Y0212954D01*
X0243948Y0212988D01*
X0243931Y0213023D01*
X0243918Y0213060D01*
X0243908Y0213098D01*
X0243902Y0213137D01*
X0243900Y0213176D01*
X0276184Y0217507D02*
X0276184Y0241129D01*
X0278546Y0241129D01*
X0287995Y0241129D02*
X0290357Y0241129D01*
X0290357Y0217507D01*
X0287995Y0217507D01*
X0278546Y0217507D02*
X0276184Y0217507D01*
X0306499Y0223806D02*
X0306892Y0223806D01*
X0306892Y0227743D01*
X0306499Y0227743D01*
X0306892Y0227743D02*
X0307286Y0227743D01*
X0307286Y0228530D02*
X0306892Y0228530D01*
X0306892Y0232467D01*
X0306499Y0232467D01*
X0306892Y0232467D02*
X0307286Y0232467D01*
X0306892Y0228530D02*
X0306499Y0228530D01*
X0306892Y0223806D02*
X0307286Y0223806D01*
X0319097Y0217900D02*
X0319097Y0214357D01*
X0327759Y0214357D01*
X0337601Y0214357D02*
X0338388Y0214357D01*
X0338388Y0244278D01*
X0337601Y0244278D01*
X0327759Y0244278D02*
X0319097Y0244278D01*
X0319097Y0240735D01*
X0319097Y0261601D02*
X0327759Y0261601D01*
X0319097Y0261601D02*
X0319097Y0265144D01*
X0307286Y0271050D02*
X0306892Y0271050D01*
X0306892Y0274987D01*
X0306499Y0274987D01*
X0306892Y0274987D02*
X0307286Y0274987D01*
X0307286Y0275774D02*
X0306892Y0275774D01*
X0306892Y0279711D01*
X0306499Y0279711D01*
X0306892Y0279711D02*
X0307286Y0279711D01*
X0306892Y0275774D02*
X0306499Y0275774D01*
X0306499Y0271050D02*
X0306892Y0271050D01*
X0290357Y0264751D02*
X0290357Y0288373D01*
X0287995Y0288373D01*
X0278546Y0288373D02*
X0276184Y0288373D01*
X0276184Y0264751D01*
X0278546Y0264751D01*
X0287995Y0264751D02*
X0290357Y0264751D01*
X0261223Y0278530D02*
X0258861Y0278530D01*
X0258861Y0283255D02*
X0261223Y0283255D01*
X0247050Y0277743D02*
X0247050Y0251759D01*
X0232877Y0251759D01*
X0232877Y0277743D01*
X0247050Y0277743D01*
X0261617Y0300971D02*
X0268310Y0300971D01*
X0261617Y0300971D02*
X0261617Y0304121D01*
X0250790Y0305892D02*
X0246656Y0305892D01*
X0246654Y0305761D01*
X0246648Y0305631D01*
X0246638Y0305500D01*
X0246624Y0305370D01*
X0246607Y0305240D01*
X0246585Y0305111D01*
X0246560Y0304983D01*
X0246530Y0304856D01*
X0246497Y0304729D01*
X0246460Y0304604D01*
X0246419Y0304479D01*
X0246375Y0304356D01*
X0246326Y0304235D01*
X0246274Y0304115D01*
X0246219Y0303996D01*
X0246160Y0303879D01*
X0246097Y0303764D01*
X0246031Y0303651D01*
X0245962Y0303540D01*
X0245889Y0303432D01*
X0245813Y0303325D01*
X0245734Y0303221D01*
X0245652Y0303119D01*
X0245567Y0303020D01*
X0245479Y0302923D01*
X0245387Y0302830D01*
X0245294Y0302738D01*
X0245197Y0302650D01*
X0245098Y0302565D01*
X0244996Y0302483D01*
X0244892Y0302404D01*
X0244785Y0302328D01*
X0244677Y0302255D01*
X0244566Y0302186D01*
X0244453Y0302120D01*
X0244338Y0302057D01*
X0244221Y0301998D01*
X0244102Y0301943D01*
X0243982Y0301891D01*
X0243861Y0301842D01*
X0243738Y0301798D01*
X0243613Y0301757D01*
X0243488Y0301720D01*
X0243361Y0301687D01*
X0243234Y0301657D01*
X0243106Y0301632D01*
X0242977Y0301610D01*
X0242847Y0301593D01*
X0242717Y0301579D01*
X0242586Y0301569D01*
X0242456Y0301563D01*
X0242325Y0301561D01*
X0242194Y0301563D01*
X0242064Y0301569D01*
X0241933Y0301579D01*
X0241803Y0301593D01*
X0241673Y0301610D01*
X0241544Y0301632D01*
X0241416Y0301657D01*
X0241289Y0301687D01*
X0241162Y0301720D01*
X0241037Y0301757D01*
X0240912Y0301798D01*
X0240789Y0301842D01*
X0240668Y0301891D01*
X0240548Y0301943D01*
X0240429Y0301998D01*
X0240312Y0302057D01*
X0240197Y0302120D01*
X0240084Y0302186D01*
X0239973Y0302255D01*
X0239865Y0302328D01*
X0239758Y0302404D01*
X0239654Y0302483D01*
X0239552Y0302565D01*
X0239453Y0302650D01*
X0239356Y0302738D01*
X0239263Y0302830D01*
X0239171Y0302923D01*
X0239083Y0303020D01*
X0238998Y0303119D01*
X0238916Y0303221D01*
X0238837Y0303325D01*
X0238761Y0303432D01*
X0238688Y0303540D01*
X0238619Y0303651D01*
X0238553Y0303764D01*
X0238490Y0303879D01*
X0238431Y0303996D01*
X0238376Y0304115D01*
X0238324Y0304235D01*
X0238275Y0304356D01*
X0238231Y0304479D01*
X0238190Y0304604D01*
X0238153Y0304729D01*
X0238120Y0304856D01*
X0238090Y0304983D01*
X0238065Y0305111D01*
X0238043Y0305240D01*
X0238026Y0305370D01*
X0238012Y0305500D01*
X0238002Y0305631D01*
X0237996Y0305761D01*
X0237994Y0305892D01*
X0237995Y0305892D02*
X0233861Y0305892D01*
X0233388Y0303755D02*
X0233388Y0302755D01*
X0232388Y0302755D01*
X0233388Y0302755D02*
X0234388Y0302755D01*
X0233388Y0302755D02*
X0233388Y0301755D01*
X0232325Y0310814D02*
X0232328Y0311059D01*
X0232337Y0311305D01*
X0232352Y0311550D01*
X0232373Y0311794D01*
X0232400Y0312038D01*
X0232433Y0312281D01*
X0232472Y0312524D01*
X0232517Y0312765D01*
X0232568Y0313005D01*
X0232625Y0313244D01*
X0232687Y0313481D01*
X0232756Y0313717D01*
X0232830Y0313951D01*
X0232910Y0314183D01*
X0232995Y0314413D01*
X0233086Y0314641D01*
X0233183Y0314866D01*
X0233285Y0315090D01*
X0233393Y0315310D01*
X0233506Y0315528D01*
X0233624Y0315743D01*
X0233748Y0315955D01*
X0233876Y0316164D01*
X0234010Y0316370D01*
X0234149Y0316572D01*
X0234293Y0316771D01*
X0234442Y0316966D01*
X0234595Y0317158D01*
X0234753Y0317346D01*
X0234915Y0317530D01*
X0235083Y0317709D01*
X0235254Y0317885D01*
X0235430Y0318056D01*
X0235609Y0318224D01*
X0235793Y0318386D01*
X0235981Y0318544D01*
X0236173Y0318697D01*
X0236368Y0318846D01*
X0236567Y0318990D01*
X0236769Y0319129D01*
X0236975Y0319263D01*
X0237184Y0319391D01*
X0237396Y0319515D01*
X0237611Y0319633D01*
X0237829Y0319746D01*
X0238049Y0319854D01*
X0238273Y0319956D01*
X0238498Y0320053D01*
X0238726Y0320144D01*
X0238956Y0320229D01*
X0239188Y0320309D01*
X0239422Y0320383D01*
X0239658Y0320452D01*
X0239895Y0320514D01*
X0240134Y0320571D01*
X0240374Y0320622D01*
X0240615Y0320667D01*
X0240858Y0320706D01*
X0241101Y0320739D01*
X0241345Y0320766D01*
X0241589Y0320787D01*
X0241834Y0320802D01*
X0242080Y0320811D01*
X0242325Y0320814D01*
X0242570Y0320811D01*
X0242816Y0320802D01*
X0243061Y0320787D01*
X0243305Y0320766D01*
X0243549Y0320739D01*
X0243792Y0320706D01*
X0244035Y0320667D01*
X0244276Y0320622D01*
X0244516Y0320571D01*
X0244755Y0320514D01*
X0244992Y0320452D01*
X0245228Y0320383D01*
X0245462Y0320309D01*
X0245694Y0320229D01*
X0245924Y0320144D01*
X0246152Y0320053D01*
X0246377Y0319956D01*
X0246601Y0319854D01*
X0246821Y0319746D01*
X0247039Y0319633D01*
X0247254Y0319515D01*
X0247466Y0319391D01*
X0247675Y0319263D01*
X0247881Y0319129D01*
X0248083Y0318990D01*
X0248282Y0318846D01*
X0248477Y0318697D01*
X0248669Y0318544D01*
X0248857Y0318386D01*
X0249041Y0318224D01*
X0249220Y0318056D01*
X0249396Y0317885D01*
X0249567Y0317709D01*
X0249735Y0317530D01*
X0249897Y0317346D01*
X0250055Y0317158D01*
X0250208Y0316966D01*
X0250357Y0316771D01*
X0250501Y0316572D01*
X0250640Y0316370D01*
X0250774Y0316164D01*
X0250902Y0315955D01*
X0251026Y0315743D01*
X0251144Y0315528D01*
X0251257Y0315310D01*
X0251365Y0315090D01*
X0251467Y0314866D01*
X0251564Y0314641D01*
X0251655Y0314413D01*
X0251740Y0314183D01*
X0251820Y0313951D01*
X0251894Y0313717D01*
X0251963Y0313481D01*
X0252025Y0313244D01*
X0252082Y0313005D01*
X0252133Y0312765D01*
X0252178Y0312524D01*
X0252217Y0312281D01*
X0252250Y0312038D01*
X0252277Y0311794D01*
X0252298Y0311550D01*
X0252313Y0311305D01*
X0252322Y0311059D01*
X0252325Y0310814D01*
X0252322Y0310569D01*
X0252313Y0310323D01*
X0252298Y0310078D01*
X0252277Y0309834D01*
X0252250Y0309590D01*
X0252217Y0309347D01*
X0252178Y0309104D01*
X0252133Y0308863D01*
X0252082Y0308623D01*
X0252025Y0308384D01*
X0251963Y0308147D01*
X0251894Y0307911D01*
X0251820Y0307677D01*
X0251740Y0307445D01*
X0251655Y0307215D01*
X0251564Y0306987D01*
X0251467Y0306762D01*
X0251365Y0306538D01*
X0251257Y0306318D01*
X0251144Y0306100D01*
X0251026Y0305885D01*
X0250902Y0305673D01*
X0250774Y0305464D01*
X0250640Y0305258D01*
X0250501Y0305056D01*
X0250357Y0304857D01*
X0250208Y0304662D01*
X0250055Y0304470D01*
X0249897Y0304282D01*
X0249735Y0304098D01*
X0249567Y0303919D01*
X0249396Y0303743D01*
X0249220Y0303572D01*
X0249041Y0303404D01*
X0248857Y0303242D01*
X0248669Y0303084D01*
X0248477Y0302931D01*
X0248282Y0302782D01*
X0248083Y0302638D01*
X0247881Y0302499D01*
X0247675Y0302365D01*
X0247466Y0302237D01*
X0247254Y0302113D01*
X0247039Y0301995D01*
X0246821Y0301882D01*
X0246601Y0301774D01*
X0246377Y0301672D01*
X0246152Y0301575D01*
X0245924Y0301484D01*
X0245694Y0301399D01*
X0245462Y0301319D01*
X0245228Y0301245D01*
X0244992Y0301176D01*
X0244755Y0301114D01*
X0244516Y0301057D01*
X0244276Y0301006D01*
X0244035Y0300961D01*
X0243792Y0300922D01*
X0243549Y0300889D01*
X0243305Y0300862D01*
X0243061Y0300841D01*
X0242816Y0300826D01*
X0242570Y0300817D01*
X0242325Y0300814D01*
X0242080Y0300817D01*
X0241834Y0300826D01*
X0241589Y0300841D01*
X0241345Y0300862D01*
X0241101Y0300889D01*
X0240858Y0300922D01*
X0240615Y0300961D01*
X0240374Y0301006D01*
X0240134Y0301057D01*
X0239895Y0301114D01*
X0239658Y0301176D01*
X0239422Y0301245D01*
X0239188Y0301319D01*
X0238956Y0301399D01*
X0238726Y0301484D01*
X0238498Y0301575D01*
X0238273Y0301672D01*
X0238049Y0301774D01*
X0237829Y0301882D01*
X0237611Y0301995D01*
X0237396Y0302113D01*
X0237184Y0302237D01*
X0236975Y0302365D01*
X0236769Y0302499D01*
X0236567Y0302638D01*
X0236368Y0302782D01*
X0236173Y0302931D01*
X0235981Y0303084D01*
X0235793Y0303242D01*
X0235609Y0303404D01*
X0235430Y0303572D01*
X0235254Y0303743D01*
X0235083Y0303919D01*
X0234915Y0304098D01*
X0234753Y0304282D01*
X0234595Y0304470D01*
X0234442Y0304662D01*
X0234293Y0304857D01*
X0234149Y0305056D01*
X0234010Y0305258D01*
X0233876Y0305464D01*
X0233748Y0305673D01*
X0233624Y0305885D01*
X0233506Y0306100D01*
X0233393Y0306318D01*
X0233285Y0306538D01*
X0233183Y0306762D01*
X0233086Y0306987D01*
X0232995Y0307215D01*
X0232910Y0307445D01*
X0232830Y0307677D01*
X0232756Y0307911D01*
X0232687Y0308147D01*
X0232625Y0308384D01*
X0232568Y0308623D01*
X0232517Y0308863D01*
X0232472Y0309104D01*
X0232433Y0309347D01*
X0232400Y0309590D01*
X0232373Y0309834D01*
X0232352Y0310078D01*
X0232337Y0310323D01*
X0232328Y0310569D01*
X0232325Y0310814D01*
X0261617Y0325774D02*
X0261617Y0357270D01*
X0297050Y0357270D01*
X0297050Y0300971D01*
X0290357Y0300971D01*
X0319097Y0291522D02*
X0319097Y0287979D01*
X0319097Y0291522D02*
X0327759Y0291522D01*
X0337601Y0291522D02*
X0338388Y0291522D01*
X0338388Y0261601D01*
X0337601Y0261601D01*
X0337601Y0197034D02*
X0338388Y0197034D01*
X0338388Y0167113D01*
X0337601Y0167113D01*
X0327759Y0167113D02*
X0319097Y0167113D01*
X0319097Y0170656D01*
X0307286Y0176562D02*
X0306892Y0176562D01*
X0306892Y0180499D01*
X0306499Y0180499D01*
X0306892Y0180499D02*
X0307286Y0180499D01*
X0307286Y0181286D02*
X0306892Y0181286D01*
X0306892Y0185223D01*
X0306499Y0185223D01*
X0306892Y0185223D02*
X0307286Y0185223D01*
X0306892Y0181286D02*
X0306499Y0181286D01*
X0306499Y0176562D02*
X0306892Y0176562D01*
X0319097Y0193491D02*
X0319097Y0197034D01*
X0327759Y0197034D01*
X0327759Y0149790D02*
X0319097Y0149790D01*
X0319097Y0146247D01*
X0307286Y0137979D02*
X0306892Y0137979D01*
X0306892Y0134042D01*
X0306499Y0134042D01*
X0306892Y0134042D02*
X0307286Y0134042D01*
X0307286Y0133255D02*
X0306892Y0133255D01*
X0306892Y0129318D01*
X0306499Y0129318D01*
X0306892Y0129318D02*
X0307286Y0129318D01*
X0306892Y0133255D02*
X0306499Y0133255D01*
X0306499Y0137979D02*
X0306892Y0137979D01*
X0319097Y0123412D02*
X0319097Y0119869D01*
X0327759Y0119869D01*
X0325790Y0111601D02*
X0335239Y0111601D01*
X0335239Y0095066D01*
X0325790Y0095066D01*
X0325790Y0111601D01*
X0337601Y0119869D02*
X0338388Y0119869D01*
X0338388Y0149790D01*
X0337601Y0149790D01*
X0274609Y0113176D02*
X0264766Y0123018D01*
X0264766Y0111207D02*
X0267916Y0111207D01*
X0274609Y0104514D01*
X0274609Y0099396D02*
X0264766Y0099396D01*
X0274609Y0090341D02*
X0271853Y0087585D01*
X0264766Y0087585D01*
X0282483Y0083255D02*
X0282483Y0073806D01*
X0306499Y0073806D01*
X0306499Y0083255D01*
X0282483Y0083255D01*
X0197444Y0113570D02*
X0197444Y0113963D01*
X0193507Y0113963D01*
X0193507Y0114357D01*
X0193507Y0113963D02*
X0193507Y0113570D01*
X0197444Y0113963D02*
X0197444Y0114357D01*
X0187601Y0114357D02*
X0187601Y0113963D01*
X0183664Y0113963D01*
X0183664Y0114357D01*
X0183664Y0113963D02*
X0183664Y0113570D01*
X0187601Y0113570D02*
X0187601Y0113963D01*
X0158467Y0176562D02*
X0158467Y0178924D01*
X0153743Y0178924D02*
X0153743Y0176562D01*
X0068310Y0180892D02*
X0061617Y0180892D01*
X0061617Y0230499D01*
X0068310Y0230499D01*
X0068310Y0251759D02*
X0061617Y0251759D01*
X0061617Y0301365D01*
X0068310Y0301365D01*
X0093900Y0330892D02*
X0093900Y0340341D01*
X0110436Y0340341D01*
X0110436Y0330892D01*
X0093900Y0330892D01*
X0104924Y0311995D02*
X0107286Y0311995D01*
X0107286Y0307270D02*
X0104924Y0307270D01*
X0126577Y0302546D02*
X0126577Y0328530D01*
X0140751Y0328530D01*
X0140751Y0302546D01*
X0126577Y0302546D01*
X0153743Y0319081D02*
X0153743Y0321444D01*
X0158467Y0321444D02*
X0158467Y0319081D01*
X0068310Y0159633D02*
X0061617Y0159633D01*
X0061617Y0110026D01*
X0068310Y0110026D01*
D12*
X0210897Y0189948D02*
X0210899Y0190015D01*
X0210905Y0190081D01*
X0210915Y0190147D01*
X0210929Y0190212D01*
X0210946Y0190276D01*
X0210968Y0190339D01*
X0210993Y0190401D01*
X0211022Y0190461D01*
X0211055Y0190519D01*
X0211090Y0190575D01*
X0211130Y0190629D01*
X0211172Y0190680D01*
X0211217Y0190729D01*
X0211265Y0190775D01*
X0211316Y0190818D01*
X0211369Y0190858D01*
X0211425Y0190895D01*
X0211483Y0190928D01*
X0211542Y0190958D01*
X0211603Y0190984D01*
X0211666Y0191007D01*
X0211730Y0191025D01*
X0211795Y0191040D01*
X0211861Y0191051D01*
X0211927Y0191058D01*
X0211993Y0191061D01*
X0212060Y0191060D01*
X0212126Y0191055D01*
X0212192Y0191046D01*
X0212258Y0191033D01*
X0212322Y0191016D01*
X0212385Y0190996D01*
X0212447Y0190971D01*
X0212508Y0190943D01*
X0212567Y0190912D01*
X0212623Y0190877D01*
X0212678Y0190839D01*
X0212730Y0190797D01*
X0212779Y0190752D01*
X0212826Y0190705D01*
X0212870Y0190655D01*
X0212910Y0190602D01*
X0212948Y0190547D01*
X0212982Y0190490D01*
X0213013Y0190431D01*
X0213040Y0190370D01*
X0213063Y0190308D01*
X0213083Y0190244D01*
X0213099Y0190179D01*
X0213111Y0190114D01*
X0213119Y0190048D01*
X0213123Y0189981D01*
X0213123Y0189915D01*
X0213119Y0189848D01*
X0213111Y0189782D01*
X0213099Y0189717D01*
X0213083Y0189652D01*
X0213063Y0189588D01*
X0213040Y0189526D01*
X0213013Y0189465D01*
X0212982Y0189406D01*
X0212948Y0189349D01*
X0212910Y0189294D01*
X0212870Y0189241D01*
X0212826Y0189191D01*
X0212779Y0189144D01*
X0212730Y0189099D01*
X0212678Y0189057D01*
X0212623Y0189019D01*
X0212566Y0188984D01*
X0212508Y0188953D01*
X0212447Y0188925D01*
X0212385Y0188900D01*
X0212322Y0188880D01*
X0212258Y0188863D01*
X0212192Y0188850D01*
X0212126Y0188841D01*
X0212060Y0188836D01*
X0211993Y0188835D01*
X0211927Y0188838D01*
X0211861Y0188845D01*
X0211795Y0188856D01*
X0211730Y0188871D01*
X0211666Y0188889D01*
X0211603Y0188912D01*
X0211542Y0188938D01*
X0211483Y0188968D01*
X0211425Y0189001D01*
X0211369Y0189038D01*
X0211316Y0189078D01*
X0211265Y0189121D01*
X0211217Y0189167D01*
X0211172Y0189216D01*
X0211130Y0189267D01*
X0211090Y0189321D01*
X0211055Y0189377D01*
X0211022Y0189435D01*
X0210993Y0189495D01*
X0210968Y0189557D01*
X0210946Y0189620D01*
X0210929Y0189684D01*
X0210915Y0189749D01*
X0210905Y0189815D01*
X0210899Y0189881D01*
X0210897Y0189948D01*
X0221920Y0155302D02*
X0221922Y0155369D01*
X0221928Y0155435D01*
X0221938Y0155501D01*
X0221952Y0155566D01*
X0221969Y0155630D01*
X0221991Y0155693D01*
X0222016Y0155755D01*
X0222045Y0155815D01*
X0222078Y0155873D01*
X0222114Y0155930D01*
X0222153Y0155983D01*
X0222195Y0156035D01*
X0222240Y0156084D01*
X0222289Y0156130D01*
X0222339Y0156173D01*
X0222393Y0156213D01*
X0222448Y0156250D01*
X0222506Y0156283D01*
X0222566Y0156313D01*
X0222627Y0156339D01*
X0222690Y0156361D01*
X0222754Y0156380D01*
X0222819Y0156395D01*
X0222884Y0156406D01*
X0222951Y0156413D01*
X0223017Y0156416D01*
X0223084Y0156415D01*
X0223150Y0156410D01*
X0223216Y0156401D01*
X0223282Y0156388D01*
X0223346Y0156371D01*
X0223410Y0156351D01*
X0223472Y0156326D01*
X0223532Y0156298D01*
X0223591Y0156267D01*
X0223648Y0156232D01*
X0223702Y0156193D01*
X0223754Y0156152D01*
X0223804Y0156107D01*
X0223851Y0156060D01*
X0223894Y0156010D01*
X0223935Y0155957D01*
X0223973Y0155902D01*
X0224007Y0155845D01*
X0224038Y0155785D01*
X0224065Y0155724D01*
X0224088Y0155662D01*
X0224108Y0155598D01*
X0224124Y0155534D01*
X0224136Y0155468D01*
X0224144Y0155402D01*
X0224148Y0155335D01*
X0224148Y0155269D01*
X0224144Y0155202D01*
X0224136Y0155136D01*
X0224124Y0155070D01*
X0224108Y0155006D01*
X0224088Y0154942D01*
X0224065Y0154880D01*
X0224038Y0154819D01*
X0224007Y0154759D01*
X0223973Y0154702D01*
X0223935Y0154647D01*
X0223894Y0154594D01*
X0223851Y0154544D01*
X0223804Y0154497D01*
X0223754Y0154452D01*
X0223702Y0154411D01*
X0223648Y0154372D01*
X0223591Y0154337D01*
X0223532Y0154306D01*
X0223472Y0154278D01*
X0223410Y0154253D01*
X0223346Y0154233D01*
X0223282Y0154216D01*
X0223216Y0154203D01*
X0223150Y0154194D01*
X0223084Y0154189D01*
X0223017Y0154188D01*
X0222951Y0154191D01*
X0222884Y0154198D01*
X0222819Y0154209D01*
X0222754Y0154224D01*
X0222690Y0154243D01*
X0222627Y0154265D01*
X0222566Y0154291D01*
X0222506Y0154321D01*
X0222448Y0154354D01*
X0222393Y0154391D01*
X0222339Y0154431D01*
X0222289Y0154474D01*
X0222240Y0154520D01*
X0222195Y0154569D01*
X0222153Y0154621D01*
X0222114Y0154674D01*
X0222078Y0154731D01*
X0222045Y0154789D01*
X0222016Y0154849D01*
X0221991Y0154911D01*
X0221969Y0154974D01*
X0221952Y0155038D01*
X0221938Y0155103D01*
X0221928Y0155169D01*
X0221922Y0155235D01*
X0221920Y0155302D01*
D13*
X0223034Y0155302D03*
X0212010Y0189948D03*
X0262404Y0123018D03*
X0262404Y0111207D03*
X0262404Y0099396D03*
X0262404Y0087585D03*
D14*
X0247739Y0303825D03*
X0236912Y0303825D03*
D15*
X0237503Y0303038D03*
X0247148Y0303038D03*
D16*
X0246262Y0302349D03*
X0238388Y0302349D03*
D17*
X0239471Y0301759D03*
X0245180Y0301759D03*
D18*
X0250101Y0305400D03*
X0234550Y0305400D03*
D19*
X0236223Y0304810D03*
X0248428Y0304810D03*
D20*
X0243703Y0301365D03*
X0240948Y0301365D03*
D21*
X0244688Y0136010D02*
X0244690Y0136066D01*
X0244696Y0136121D01*
X0244706Y0136175D01*
X0244719Y0136229D01*
X0244737Y0136282D01*
X0244758Y0136333D01*
X0244782Y0136383D01*
X0244810Y0136431D01*
X0244842Y0136477D01*
X0244876Y0136521D01*
X0244914Y0136562D01*
X0244954Y0136600D01*
X0244997Y0136635D01*
X0245042Y0136667D01*
X0245090Y0136696D01*
X0245139Y0136722D01*
X0245190Y0136744D01*
X0245242Y0136762D01*
X0245296Y0136776D01*
X0245351Y0136787D01*
X0245406Y0136794D01*
X0245461Y0136797D01*
X0245517Y0136796D01*
X0245572Y0136791D01*
X0245627Y0136782D01*
X0245681Y0136770D01*
X0245734Y0136753D01*
X0245786Y0136733D01*
X0245836Y0136709D01*
X0245884Y0136682D01*
X0245931Y0136652D01*
X0245975Y0136618D01*
X0246017Y0136581D01*
X0246055Y0136541D01*
X0246092Y0136499D01*
X0246125Y0136454D01*
X0246154Y0136408D01*
X0246181Y0136359D01*
X0246203Y0136308D01*
X0246223Y0136256D01*
X0246238Y0136202D01*
X0246250Y0136148D01*
X0246258Y0136093D01*
X0246262Y0136038D01*
X0246262Y0135982D01*
X0246258Y0135927D01*
X0246250Y0135872D01*
X0246238Y0135818D01*
X0246223Y0135764D01*
X0246203Y0135712D01*
X0246181Y0135661D01*
X0246154Y0135612D01*
X0246125Y0135566D01*
X0246092Y0135521D01*
X0246055Y0135479D01*
X0246017Y0135439D01*
X0245975Y0135402D01*
X0245931Y0135368D01*
X0245884Y0135338D01*
X0245836Y0135311D01*
X0245786Y0135287D01*
X0245734Y0135267D01*
X0245681Y0135250D01*
X0245627Y0135238D01*
X0245572Y0135229D01*
X0245517Y0135224D01*
X0245461Y0135223D01*
X0245406Y0135226D01*
X0245351Y0135233D01*
X0245296Y0135244D01*
X0245242Y0135258D01*
X0245190Y0135276D01*
X0245139Y0135298D01*
X0245090Y0135324D01*
X0245042Y0135353D01*
X0244997Y0135385D01*
X0244954Y0135420D01*
X0244914Y0135458D01*
X0244876Y0135499D01*
X0244842Y0135543D01*
X0244810Y0135589D01*
X0244782Y0135637D01*
X0244758Y0135687D01*
X0244737Y0135738D01*
X0244719Y0135791D01*
X0244706Y0135845D01*
X0244696Y0135899D01*
X0244690Y0135954D01*
X0244688Y0136010D01*
X0262010Y0123018D02*
X0262012Y0123057D01*
X0262018Y0123096D01*
X0262028Y0123134D01*
X0262041Y0123171D01*
X0262058Y0123206D01*
X0262078Y0123240D01*
X0262102Y0123271D01*
X0262129Y0123300D01*
X0262158Y0123326D01*
X0262190Y0123349D01*
X0262224Y0123369D01*
X0262260Y0123385D01*
X0262297Y0123397D01*
X0262336Y0123406D01*
X0262375Y0123411D01*
X0262414Y0123412D01*
X0262453Y0123409D01*
X0262492Y0123402D01*
X0262529Y0123391D01*
X0262566Y0123377D01*
X0262601Y0123359D01*
X0262634Y0123338D01*
X0262665Y0123313D01*
X0262693Y0123286D01*
X0262718Y0123256D01*
X0262740Y0123223D01*
X0262759Y0123189D01*
X0262774Y0123153D01*
X0262786Y0123115D01*
X0262794Y0123077D01*
X0262798Y0123038D01*
X0262798Y0122998D01*
X0262794Y0122959D01*
X0262786Y0122921D01*
X0262774Y0122883D01*
X0262759Y0122847D01*
X0262740Y0122813D01*
X0262718Y0122780D01*
X0262693Y0122750D01*
X0262665Y0122723D01*
X0262634Y0122698D01*
X0262601Y0122677D01*
X0262566Y0122659D01*
X0262529Y0122645D01*
X0262492Y0122634D01*
X0262453Y0122627D01*
X0262414Y0122624D01*
X0262375Y0122625D01*
X0262336Y0122630D01*
X0262297Y0122639D01*
X0262260Y0122651D01*
X0262224Y0122667D01*
X0262190Y0122687D01*
X0262158Y0122710D01*
X0262129Y0122736D01*
X0262102Y0122765D01*
X0262078Y0122796D01*
X0262058Y0122830D01*
X0262041Y0122865D01*
X0262028Y0122902D01*
X0262018Y0122940D01*
X0262012Y0122979D01*
X0262010Y0123018D01*
X0262010Y0111207D02*
X0262012Y0111246D01*
X0262018Y0111285D01*
X0262028Y0111323D01*
X0262041Y0111360D01*
X0262058Y0111395D01*
X0262078Y0111429D01*
X0262102Y0111460D01*
X0262129Y0111489D01*
X0262158Y0111515D01*
X0262190Y0111538D01*
X0262224Y0111558D01*
X0262260Y0111574D01*
X0262297Y0111586D01*
X0262336Y0111595D01*
X0262375Y0111600D01*
X0262414Y0111601D01*
X0262453Y0111598D01*
X0262492Y0111591D01*
X0262529Y0111580D01*
X0262566Y0111566D01*
X0262601Y0111548D01*
X0262634Y0111527D01*
X0262665Y0111502D01*
X0262693Y0111475D01*
X0262718Y0111445D01*
X0262740Y0111412D01*
X0262759Y0111378D01*
X0262774Y0111342D01*
X0262786Y0111304D01*
X0262794Y0111266D01*
X0262798Y0111227D01*
X0262798Y0111187D01*
X0262794Y0111148D01*
X0262786Y0111110D01*
X0262774Y0111072D01*
X0262759Y0111036D01*
X0262740Y0111002D01*
X0262718Y0110969D01*
X0262693Y0110939D01*
X0262665Y0110912D01*
X0262634Y0110887D01*
X0262601Y0110866D01*
X0262566Y0110848D01*
X0262529Y0110834D01*
X0262492Y0110823D01*
X0262453Y0110816D01*
X0262414Y0110813D01*
X0262375Y0110814D01*
X0262336Y0110819D01*
X0262297Y0110828D01*
X0262260Y0110840D01*
X0262224Y0110856D01*
X0262190Y0110876D01*
X0262158Y0110899D01*
X0262129Y0110925D01*
X0262102Y0110954D01*
X0262078Y0110985D01*
X0262058Y0111019D01*
X0262041Y0111054D01*
X0262028Y0111091D01*
X0262018Y0111129D01*
X0262012Y0111168D01*
X0262010Y0111207D01*
X0262010Y0099396D02*
X0262012Y0099435D01*
X0262018Y0099474D01*
X0262028Y0099512D01*
X0262041Y0099549D01*
X0262058Y0099584D01*
X0262078Y0099618D01*
X0262102Y0099649D01*
X0262129Y0099678D01*
X0262158Y0099704D01*
X0262190Y0099727D01*
X0262224Y0099747D01*
X0262260Y0099763D01*
X0262297Y0099775D01*
X0262336Y0099784D01*
X0262375Y0099789D01*
X0262414Y0099790D01*
X0262453Y0099787D01*
X0262492Y0099780D01*
X0262529Y0099769D01*
X0262566Y0099755D01*
X0262601Y0099737D01*
X0262634Y0099716D01*
X0262665Y0099691D01*
X0262693Y0099664D01*
X0262718Y0099634D01*
X0262740Y0099601D01*
X0262759Y0099567D01*
X0262774Y0099531D01*
X0262786Y0099493D01*
X0262794Y0099455D01*
X0262798Y0099416D01*
X0262798Y0099376D01*
X0262794Y0099337D01*
X0262786Y0099299D01*
X0262774Y0099261D01*
X0262759Y0099225D01*
X0262740Y0099191D01*
X0262718Y0099158D01*
X0262693Y0099128D01*
X0262665Y0099101D01*
X0262634Y0099076D01*
X0262601Y0099055D01*
X0262566Y0099037D01*
X0262529Y0099023D01*
X0262492Y0099012D01*
X0262453Y0099005D01*
X0262414Y0099002D01*
X0262375Y0099003D01*
X0262336Y0099008D01*
X0262297Y0099017D01*
X0262260Y0099029D01*
X0262224Y0099045D01*
X0262190Y0099065D01*
X0262158Y0099088D01*
X0262129Y0099114D01*
X0262102Y0099143D01*
X0262078Y0099174D01*
X0262058Y0099208D01*
X0262041Y0099243D01*
X0262028Y0099280D01*
X0262018Y0099318D01*
X0262012Y0099357D01*
X0262010Y0099396D01*
X0262010Y0087585D02*
X0262012Y0087624D01*
X0262018Y0087663D01*
X0262028Y0087701D01*
X0262041Y0087738D01*
X0262058Y0087773D01*
X0262078Y0087807D01*
X0262102Y0087838D01*
X0262129Y0087867D01*
X0262158Y0087893D01*
X0262190Y0087916D01*
X0262224Y0087936D01*
X0262260Y0087952D01*
X0262297Y0087964D01*
X0262336Y0087973D01*
X0262375Y0087978D01*
X0262414Y0087979D01*
X0262453Y0087976D01*
X0262492Y0087969D01*
X0262529Y0087958D01*
X0262566Y0087944D01*
X0262601Y0087926D01*
X0262634Y0087905D01*
X0262665Y0087880D01*
X0262693Y0087853D01*
X0262718Y0087823D01*
X0262740Y0087790D01*
X0262759Y0087756D01*
X0262774Y0087720D01*
X0262786Y0087682D01*
X0262794Y0087644D01*
X0262798Y0087605D01*
X0262798Y0087565D01*
X0262794Y0087526D01*
X0262786Y0087488D01*
X0262774Y0087450D01*
X0262759Y0087414D01*
X0262740Y0087380D01*
X0262718Y0087347D01*
X0262693Y0087317D01*
X0262665Y0087290D01*
X0262634Y0087265D01*
X0262601Y0087244D01*
X0262566Y0087226D01*
X0262529Y0087212D01*
X0262492Y0087201D01*
X0262453Y0087194D01*
X0262414Y0087191D01*
X0262375Y0087192D01*
X0262336Y0087197D01*
X0262297Y0087206D01*
X0262260Y0087218D01*
X0262224Y0087234D01*
X0262190Y0087254D01*
X0262158Y0087277D01*
X0262129Y0087303D01*
X0262102Y0087332D01*
X0262078Y0087363D01*
X0262058Y0087397D01*
X0262041Y0087432D01*
X0262028Y0087469D01*
X0262018Y0087507D01*
X0262012Y0087546D01*
X0262010Y0087585D01*
D22*
X0189963Y0175774D03*
M02*
