G75*
%MOIN*%
%OFA0B0*%
%FSLAX25Y25*%
%IPPOS*%
%LPD*%
%AMOC8*
5,1,8,0,0,1.08239X$1,22.5*
%
%ADD10C,0.03150*%
%ADD11C,0.00000*%
%ADD12C,0.00600*%
%ADD13C,0.00787*%
%ADD14C,0.07874*%
%ADD15C,0.01969*%
%ADD16C,0.02362*%
D10*
X0266926Y0099063D02*
X0664564Y0099063D01*
X0497241Y0332921D02*
X0497241Y0341583D01*
X0664564Y0386465D02*
X0266926Y0386465D01*
D11*
X0278737Y0402213D02*
X0278739Y0402406D01*
X0278746Y0402599D01*
X0278758Y0402792D01*
X0278775Y0402985D01*
X0278796Y0403177D01*
X0278822Y0403368D01*
X0278853Y0403559D01*
X0278888Y0403749D01*
X0278928Y0403938D01*
X0278973Y0404126D01*
X0279022Y0404313D01*
X0279076Y0404499D01*
X0279134Y0404683D01*
X0279197Y0404866D01*
X0279265Y0405047D01*
X0279336Y0405226D01*
X0279413Y0405404D01*
X0279493Y0405580D01*
X0279578Y0405753D01*
X0279667Y0405925D01*
X0279760Y0406094D01*
X0279857Y0406261D01*
X0279959Y0406426D01*
X0280064Y0406588D01*
X0280173Y0406747D01*
X0280287Y0406904D01*
X0280404Y0407057D01*
X0280524Y0407208D01*
X0280649Y0407356D01*
X0280777Y0407501D01*
X0280908Y0407642D01*
X0281043Y0407781D01*
X0281182Y0407916D01*
X0281323Y0408047D01*
X0281468Y0408175D01*
X0281616Y0408300D01*
X0281767Y0408420D01*
X0281920Y0408537D01*
X0282077Y0408651D01*
X0282236Y0408760D01*
X0282398Y0408865D01*
X0282563Y0408967D01*
X0282730Y0409064D01*
X0282899Y0409157D01*
X0283071Y0409246D01*
X0283244Y0409331D01*
X0283420Y0409411D01*
X0283598Y0409488D01*
X0283777Y0409559D01*
X0283958Y0409627D01*
X0284141Y0409690D01*
X0284325Y0409748D01*
X0284511Y0409802D01*
X0284698Y0409851D01*
X0284886Y0409896D01*
X0285075Y0409936D01*
X0285265Y0409971D01*
X0285456Y0410002D01*
X0285647Y0410028D01*
X0285839Y0410049D01*
X0286032Y0410066D01*
X0286225Y0410078D01*
X0286418Y0410085D01*
X0286611Y0410087D01*
X0286804Y0410085D01*
X0286997Y0410078D01*
X0287190Y0410066D01*
X0287383Y0410049D01*
X0287575Y0410028D01*
X0287766Y0410002D01*
X0287957Y0409971D01*
X0288147Y0409936D01*
X0288336Y0409896D01*
X0288524Y0409851D01*
X0288711Y0409802D01*
X0288897Y0409748D01*
X0289081Y0409690D01*
X0289264Y0409627D01*
X0289445Y0409559D01*
X0289624Y0409488D01*
X0289802Y0409411D01*
X0289978Y0409331D01*
X0290151Y0409246D01*
X0290323Y0409157D01*
X0290492Y0409064D01*
X0290659Y0408967D01*
X0290824Y0408865D01*
X0290986Y0408760D01*
X0291145Y0408651D01*
X0291302Y0408537D01*
X0291455Y0408420D01*
X0291606Y0408300D01*
X0291754Y0408175D01*
X0291899Y0408047D01*
X0292040Y0407916D01*
X0292179Y0407781D01*
X0292314Y0407642D01*
X0292445Y0407501D01*
X0292573Y0407356D01*
X0292698Y0407208D01*
X0292818Y0407057D01*
X0292935Y0406904D01*
X0293049Y0406747D01*
X0293158Y0406588D01*
X0293263Y0406426D01*
X0293365Y0406261D01*
X0293462Y0406094D01*
X0293555Y0405925D01*
X0293644Y0405753D01*
X0293729Y0405580D01*
X0293809Y0405404D01*
X0293886Y0405226D01*
X0293957Y0405047D01*
X0294025Y0404866D01*
X0294088Y0404683D01*
X0294146Y0404499D01*
X0294200Y0404313D01*
X0294249Y0404126D01*
X0294294Y0403938D01*
X0294334Y0403749D01*
X0294369Y0403559D01*
X0294400Y0403368D01*
X0294426Y0403177D01*
X0294447Y0402985D01*
X0294464Y0402792D01*
X0294476Y0402599D01*
X0294483Y0402406D01*
X0294485Y0402213D01*
X0294483Y0402020D01*
X0294476Y0401827D01*
X0294464Y0401634D01*
X0294447Y0401441D01*
X0294426Y0401249D01*
X0294400Y0401058D01*
X0294369Y0400867D01*
X0294334Y0400677D01*
X0294294Y0400488D01*
X0294249Y0400300D01*
X0294200Y0400113D01*
X0294146Y0399927D01*
X0294088Y0399743D01*
X0294025Y0399560D01*
X0293957Y0399379D01*
X0293886Y0399200D01*
X0293809Y0399022D01*
X0293729Y0398846D01*
X0293644Y0398673D01*
X0293555Y0398501D01*
X0293462Y0398332D01*
X0293365Y0398165D01*
X0293263Y0398000D01*
X0293158Y0397838D01*
X0293049Y0397679D01*
X0292935Y0397522D01*
X0292818Y0397369D01*
X0292698Y0397218D01*
X0292573Y0397070D01*
X0292445Y0396925D01*
X0292314Y0396784D01*
X0292179Y0396645D01*
X0292040Y0396510D01*
X0291899Y0396379D01*
X0291754Y0396251D01*
X0291606Y0396126D01*
X0291455Y0396006D01*
X0291302Y0395889D01*
X0291145Y0395775D01*
X0290986Y0395666D01*
X0290824Y0395561D01*
X0290659Y0395459D01*
X0290492Y0395362D01*
X0290323Y0395269D01*
X0290151Y0395180D01*
X0289978Y0395095D01*
X0289802Y0395015D01*
X0289624Y0394938D01*
X0289445Y0394867D01*
X0289264Y0394799D01*
X0289081Y0394736D01*
X0288897Y0394678D01*
X0288711Y0394624D01*
X0288524Y0394575D01*
X0288336Y0394530D01*
X0288147Y0394490D01*
X0287957Y0394455D01*
X0287766Y0394424D01*
X0287575Y0394398D01*
X0287383Y0394377D01*
X0287190Y0394360D01*
X0286997Y0394348D01*
X0286804Y0394341D01*
X0286611Y0394339D01*
X0286418Y0394341D01*
X0286225Y0394348D01*
X0286032Y0394360D01*
X0285839Y0394377D01*
X0285647Y0394398D01*
X0285456Y0394424D01*
X0285265Y0394455D01*
X0285075Y0394490D01*
X0284886Y0394530D01*
X0284698Y0394575D01*
X0284511Y0394624D01*
X0284325Y0394678D01*
X0284141Y0394736D01*
X0283958Y0394799D01*
X0283777Y0394867D01*
X0283598Y0394938D01*
X0283420Y0395015D01*
X0283244Y0395095D01*
X0283071Y0395180D01*
X0282899Y0395269D01*
X0282730Y0395362D01*
X0282563Y0395459D01*
X0282398Y0395561D01*
X0282236Y0395666D01*
X0282077Y0395775D01*
X0281920Y0395889D01*
X0281767Y0396006D01*
X0281616Y0396126D01*
X0281468Y0396251D01*
X0281323Y0396379D01*
X0281182Y0396510D01*
X0281043Y0396645D01*
X0280908Y0396784D01*
X0280777Y0396925D01*
X0280649Y0397070D01*
X0280524Y0397218D01*
X0280404Y0397369D01*
X0280287Y0397522D01*
X0280173Y0397679D01*
X0280064Y0397838D01*
X0279959Y0398000D01*
X0279857Y0398165D01*
X0279760Y0398332D01*
X0279667Y0398501D01*
X0279578Y0398673D01*
X0279493Y0398846D01*
X0279413Y0399022D01*
X0279336Y0399200D01*
X0279265Y0399379D01*
X0279197Y0399560D01*
X0279134Y0399743D01*
X0279076Y0399927D01*
X0279022Y0400113D01*
X0278973Y0400300D01*
X0278928Y0400488D01*
X0278888Y0400677D01*
X0278853Y0400867D01*
X0278822Y0401058D01*
X0278796Y0401249D01*
X0278775Y0401441D01*
X0278758Y0401634D01*
X0278746Y0401827D01*
X0278739Y0402020D01*
X0278737Y0402213D01*
X0270863Y0419929D02*
X0270863Y0065598D01*
X0664564Y0065598D01*
X0664564Y0419929D01*
X0270863Y0419929D01*
X0318107Y0386465D02*
X0342123Y0386465D01*
X0340154Y0386465D02*
X0487005Y0386465D01*
X0511020Y0386465D01*
X0511401Y0386460D01*
X0511781Y0386447D01*
X0512161Y0386424D01*
X0512540Y0386391D01*
X0512918Y0386350D01*
X0513295Y0386300D01*
X0513671Y0386240D01*
X0514046Y0386172D01*
X0514418Y0386094D01*
X0514789Y0386007D01*
X0515157Y0385912D01*
X0515523Y0385807D01*
X0515886Y0385694D01*
X0516247Y0385572D01*
X0516604Y0385442D01*
X0516958Y0385302D01*
X0517309Y0385155D01*
X0517656Y0384998D01*
X0517999Y0384834D01*
X0518338Y0384661D01*
X0518673Y0384480D01*
X0519004Y0384291D01*
X0519329Y0384094D01*
X0519650Y0383890D01*
X0519966Y0383677D01*
X0520276Y0383457D01*
X0520582Y0383230D01*
X0520881Y0382995D01*
X0521175Y0382753D01*
X0521463Y0382505D01*
X0521745Y0382249D01*
X0522020Y0381986D01*
X0522289Y0381717D01*
X0522552Y0381442D01*
X0522808Y0381160D01*
X0523056Y0380872D01*
X0523298Y0380578D01*
X0523533Y0380279D01*
X0523760Y0379973D01*
X0523980Y0379663D01*
X0524193Y0379347D01*
X0524397Y0379026D01*
X0524594Y0378701D01*
X0524783Y0378370D01*
X0524964Y0378035D01*
X0525137Y0377696D01*
X0525301Y0377353D01*
X0525458Y0377006D01*
X0525605Y0376655D01*
X0525745Y0376301D01*
X0525875Y0375944D01*
X0525997Y0375583D01*
X0526110Y0375220D01*
X0526215Y0374854D01*
X0526310Y0374486D01*
X0526397Y0374115D01*
X0526475Y0373743D01*
X0526543Y0373368D01*
X0526603Y0372992D01*
X0526653Y0372615D01*
X0526694Y0372237D01*
X0526727Y0371858D01*
X0526750Y0371478D01*
X0526763Y0371098D01*
X0526768Y0370717D01*
X0526768Y0346701D01*
X0526768Y0138827D01*
X0526768Y0114811D01*
X0534642Y0114811D02*
X0534642Y0138827D01*
X0534642Y0346701D01*
X0534642Y0370717D01*
X0534647Y0371098D01*
X0534660Y0371478D01*
X0534683Y0371858D01*
X0534716Y0372237D01*
X0534757Y0372615D01*
X0534807Y0372992D01*
X0534867Y0373368D01*
X0534935Y0373743D01*
X0535013Y0374115D01*
X0535100Y0374486D01*
X0535195Y0374854D01*
X0535300Y0375220D01*
X0535413Y0375583D01*
X0535535Y0375944D01*
X0535665Y0376301D01*
X0535805Y0376655D01*
X0535952Y0377006D01*
X0536109Y0377353D01*
X0536273Y0377696D01*
X0536446Y0378035D01*
X0536627Y0378370D01*
X0536816Y0378701D01*
X0537013Y0379026D01*
X0537217Y0379347D01*
X0537430Y0379663D01*
X0537650Y0379973D01*
X0537877Y0380279D01*
X0538112Y0380578D01*
X0538354Y0380872D01*
X0538602Y0381160D01*
X0538858Y0381442D01*
X0539121Y0381717D01*
X0539390Y0381986D01*
X0539665Y0382249D01*
X0539947Y0382505D01*
X0540235Y0382753D01*
X0540529Y0382995D01*
X0540828Y0383230D01*
X0541134Y0383457D01*
X0541444Y0383677D01*
X0541760Y0383890D01*
X0542081Y0384094D01*
X0542406Y0384291D01*
X0542737Y0384480D01*
X0543072Y0384661D01*
X0543411Y0384834D01*
X0543754Y0384998D01*
X0544101Y0385155D01*
X0544452Y0385302D01*
X0544806Y0385442D01*
X0545163Y0385572D01*
X0545524Y0385694D01*
X0545887Y0385807D01*
X0546253Y0385912D01*
X0546621Y0386007D01*
X0546992Y0386094D01*
X0547364Y0386172D01*
X0547739Y0386240D01*
X0548115Y0386300D01*
X0548492Y0386350D01*
X0548870Y0386391D01*
X0549249Y0386424D01*
X0549629Y0386447D01*
X0550009Y0386460D01*
X0550390Y0386465D01*
X0574406Y0386465D01*
X0593304Y0386465D02*
X0617320Y0386465D01*
X0617701Y0386460D01*
X0618081Y0386447D01*
X0618461Y0386424D01*
X0618840Y0386391D01*
X0619218Y0386350D01*
X0619595Y0386300D01*
X0619971Y0386240D01*
X0620346Y0386172D01*
X0620718Y0386094D01*
X0621089Y0386007D01*
X0621457Y0385912D01*
X0621823Y0385807D01*
X0622186Y0385694D01*
X0622547Y0385572D01*
X0622904Y0385442D01*
X0623258Y0385302D01*
X0623609Y0385155D01*
X0623956Y0384998D01*
X0624299Y0384834D01*
X0624638Y0384661D01*
X0624973Y0384480D01*
X0625304Y0384291D01*
X0625629Y0384094D01*
X0625950Y0383890D01*
X0626266Y0383677D01*
X0626576Y0383457D01*
X0626882Y0383230D01*
X0627181Y0382995D01*
X0627475Y0382753D01*
X0627763Y0382505D01*
X0628045Y0382249D01*
X0628320Y0381986D01*
X0628589Y0381717D01*
X0628852Y0381442D01*
X0629108Y0381160D01*
X0629356Y0380872D01*
X0629598Y0380578D01*
X0629833Y0380279D01*
X0630060Y0379973D01*
X0630280Y0379663D01*
X0630493Y0379347D01*
X0630697Y0379026D01*
X0630894Y0378701D01*
X0631083Y0378370D01*
X0631264Y0378035D01*
X0631437Y0377696D01*
X0631601Y0377353D01*
X0631758Y0377006D01*
X0631905Y0376655D01*
X0632045Y0376301D01*
X0632175Y0375944D01*
X0632297Y0375583D01*
X0632410Y0375220D01*
X0632515Y0374854D01*
X0632610Y0374486D01*
X0632697Y0374115D01*
X0632775Y0373743D01*
X0632843Y0373368D01*
X0632903Y0372992D01*
X0632953Y0372615D01*
X0632994Y0372237D01*
X0633027Y0371858D01*
X0633050Y0371478D01*
X0633063Y0371098D01*
X0633068Y0370717D01*
X0633068Y0346701D01*
X0633068Y0138827D01*
X0633068Y0114811D01*
X0633063Y0114430D01*
X0633050Y0114050D01*
X0633027Y0113670D01*
X0632994Y0113291D01*
X0632953Y0112913D01*
X0632903Y0112536D01*
X0632843Y0112160D01*
X0632775Y0111785D01*
X0632697Y0111413D01*
X0632610Y0111042D01*
X0632515Y0110674D01*
X0632410Y0110308D01*
X0632297Y0109945D01*
X0632175Y0109584D01*
X0632045Y0109227D01*
X0631905Y0108873D01*
X0631758Y0108522D01*
X0631601Y0108175D01*
X0631437Y0107832D01*
X0631264Y0107493D01*
X0631083Y0107158D01*
X0630894Y0106827D01*
X0630697Y0106502D01*
X0630493Y0106181D01*
X0630280Y0105865D01*
X0630060Y0105555D01*
X0629833Y0105249D01*
X0629598Y0104950D01*
X0629356Y0104656D01*
X0629108Y0104368D01*
X0628852Y0104086D01*
X0628589Y0103811D01*
X0628320Y0103542D01*
X0628045Y0103279D01*
X0627763Y0103023D01*
X0627475Y0102775D01*
X0627181Y0102533D01*
X0626882Y0102298D01*
X0626576Y0102071D01*
X0626266Y0101851D01*
X0625950Y0101638D01*
X0625629Y0101434D01*
X0625304Y0101237D01*
X0624973Y0101048D01*
X0624638Y0100867D01*
X0624299Y0100694D01*
X0623956Y0100530D01*
X0623609Y0100373D01*
X0623258Y0100226D01*
X0622904Y0100086D01*
X0622547Y0099956D01*
X0622186Y0099834D01*
X0621823Y0099721D01*
X0621457Y0099616D01*
X0621089Y0099521D01*
X0620718Y0099434D01*
X0620346Y0099356D01*
X0619971Y0099288D01*
X0619595Y0099228D01*
X0619218Y0099178D01*
X0618840Y0099137D01*
X0618461Y0099104D01*
X0618081Y0099081D01*
X0617701Y0099068D01*
X0617320Y0099063D01*
X0593304Y0099063D01*
X0574406Y0099063D02*
X0550390Y0099063D01*
X0550009Y0099068D01*
X0549629Y0099081D01*
X0549249Y0099104D01*
X0548870Y0099137D01*
X0548492Y0099178D01*
X0548115Y0099228D01*
X0547739Y0099288D01*
X0547364Y0099356D01*
X0546992Y0099434D01*
X0546621Y0099521D01*
X0546253Y0099616D01*
X0545887Y0099721D01*
X0545524Y0099834D01*
X0545163Y0099956D01*
X0544806Y0100086D01*
X0544452Y0100226D01*
X0544101Y0100373D01*
X0543754Y0100530D01*
X0543411Y0100694D01*
X0543072Y0100867D01*
X0542737Y0101048D01*
X0542406Y0101237D01*
X0542081Y0101434D01*
X0541760Y0101638D01*
X0541444Y0101851D01*
X0541134Y0102071D01*
X0540828Y0102298D01*
X0540529Y0102533D01*
X0540235Y0102775D01*
X0539947Y0103023D01*
X0539665Y0103279D01*
X0539390Y0103542D01*
X0539121Y0103811D01*
X0538858Y0104086D01*
X0538602Y0104368D01*
X0538354Y0104656D01*
X0538112Y0104950D01*
X0537877Y0105249D01*
X0537650Y0105555D01*
X0537430Y0105865D01*
X0537217Y0106181D01*
X0537013Y0106502D01*
X0536816Y0106827D01*
X0536627Y0107158D01*
X0536446Y0107493D01*
X0536273Y0107832D01*
X0536109Y0108175D01*
X0535952Y0108522D01*
X0535805Y0108873D01*
X0535665Y0109227D01*
X0535535Y0109584D01*
X0535413Y0109945D01*
X0535300Y0110308D01*
X0535195Y0110674D01*
X0535100Y0111042D01*
X0535013Y0111413D01*
X0534935Y0111785D01*
X0534867Y0112160D01*
X0534807Y0112536D01*
X0534757Y0112913D01*
X0534716Y0113291D01*
X0534683Y0113670D01*
X0534660Y0114050D01*
X0534647Y0114430D01*
X0534642Y0114811D01*
X0526768Y0114811D02*
X0526763Y0114430D01*
X0526750Y0114050D01*
X0526727Y0113670D01*
X0526694Y0113291D01*
X0526653Y0112913D01*
X0526603Y0112536D01*
X0526543Y0112160D01*
X0526475Y0111785D01*
X0526397Y0111413D01*
X0526310Y0111042D01*
X0526215Y0110674D01*
X0526110Y0110308D01*
X0525997Y0109945D01*
X0525875Y0109584D01*
X0525745Y0109227D01*
X0525605Y0108873D01*
X0525458Y0108522D01*
X0525301Y0108175D01*
X0525137Y0107832D01*
X0524964Y0107493D01*
X0524783Y0107158D01*
X0524594Y0106827D01*
X0524397Y0106502D01*
X0524193Y0106181D01*
X0523980Y0105865D01*
X0523760Y0105555D01*
X0523533Y0105249D01*
X0523298Y0104950D01*
X0523056Y0104656D01*
X0522808Y0104368D01*
X0522552Y0104086D01*
X0522289Y0103811D01*
X0522020Y0103542D01*
X0521745Y0103279D01*
X0521463Y0103023D01*
X0521175Y0102775D01*
X0520881Y0102533D01*
X0520582Y0102298D01*
X0520276Y0102071D01*
X0519966Y0101851D01*
X0519650Y0101638D01*
X0519329Y0101434D01*
X0519004Y0101237D01*
X0518673Y0101048D01*
X0518338Y0100867D01*
X0517999Y0100694D01*
X0517656Y0100530D01*
X0517309Y0100373D01*
X0516958Y0100226D01*
X0516604Y0100086D01*
X0516247Y0099956D01*
X0515886Y0099834D01*
X0515523Y0099721D01*
X0515157Y0099616D01*
X0514789Y0099521D01*
X0514418Y0099434D01*
X0514046Y0099356D01*
X0513671Y0099288D01*
X0513295Y0099228D01*
X0512918Y0099178D01*
X0512540Y0099137D01*
X0512161Y0099104D01*
X0511781Y0099081D01*
X0511401Y0099068D01*
X0511020Y0099063D01*
X0487005Y0099063D01*
X0340154Y0099063D01*
X0342123Y0099063D02*
X0318107Y0099063D01*
X0317726Y0099068D01*
X0317346Y0099081D01*
X0316966Y0099104D01*
X0316587Y0099137D01*
X0316209Y0099178D01*
X0315832Y0099228D01*
X0315456Y0099288D01*
X0315081Y0099356D01*
X0314709Y0099434D01*
X0314338Y0099521D01*
X0313970Y0099616D01*
X0313604Y0099721D01*
X0313241Y0099834D01*
X0312880Y0099956D01*
X0312523Y0100086D01*
X0312169Y0100226D01*
X0311818Y0100373D01*
X0311471Y0100530D01*
X0311128Y0100694D01*
X0310789Y0100867D01*
X0310454Y0101048D01*
X0310123Y0101237D01*
X0309798Y0101434D01*
X0309477Y0101638D01*
X0309161Y0101851D01*
X0308851Y0102071D01*
X0308545Y0102298D01*
X0308246Y0102533D01*
X0307952Y0102775D01*
X0307664Y0103023D01*
X0307382Y0103279D01*
X0307107Y0103542D01*
X0306838Y0103811D01*
X0306575Y0104086D01*
X0306319Y0104368D01*
X0306071Y0104656D01*
X0305829Y0104950D01*
X0305594Y0105249D01*
X0305367Y0105555D01*
X0305147Y0105865D01*
X0304934Y0106181D01*
X0304730Y0106502D01*
X0304533Y0106827D01*
X0304344Y0107158D01*
X0304163Y0107493D01*
X0303990Y0107832D01*
X0303826Y0108175D01*
X0303669Y0108522D01*
X0303522Y0108873D01*
X0303382Y0109227D01*
X0303252Y0109584D01*
X0303130Y0109945D01*
X0303017Y0110308D01*
X0302912Y0110674D01*
X0302817Y0111042D01*
X0302730Y0111413D01*
X0302652Y0111785D01*
X0302584Y0112160D01*
X0302524Y0112536D01*
X0302474Y0112913D01*
X0302433Y0113291D01*
X0302400Y0113670D01*
X0302377Y0114050D01*
X0302364Y0114430D01*
X0302359Y0114811D01*
X0302359Y0138827D01*
X0302359Y0346701D01*
X0302359Y0370717D01*
X0302364Y0371098D01*
X0302377Y0371478D01*
X0302400Y0371858D01*
X0302433Y0372237D01*
X0302474Y0372615D01*
X0302524Y0372992D01*
X0302584Y0373368D01*
X0302652Y0373743D01*
X0302730Y0374115D01*
X0302817Y0374486D01*
X0302912Y0374854D01*
X0303017Y0375220D01*
X0303130Y0375583D01*
X0303252Y0375944D01*
X0303382Y0376301D01*
X0303522Y0376655D01*
X0303669Y0377006D01*
X0303826Y0377353D01*
X0303990Y0377696D01*
X0304163Y0378035D01*
X0304344Y0378370D01*
X0304533Y0378701D01*
X0304730Y0379026D01*
X0304934Y0379347D01*
X0305147Y0379663D01*
X0305367Y0379973D01*
X0305594Y0380279D01*
X0305829Y0380578D01*
X0306071Y0380872D01*
X0306319Y0381160D01*
X0306575Y0381442D01*
X0306838Y0381717D01*
X0307107Y0381986D01*
X0307382Y0382249D01*
X0307664Y0382505D01*
X0307952Y0382753D01*
X0308246Y0382995D01*
X0308545Y0383230D01*
X0308851Y0383457D01*
X0309161Y0383677D01*
X0309477Y0383890D01*
X0309798Y0384094D01*
X0310123Y0384291D01*
X0310454Y0384480D01*
X0310789Y0384661D01*
X0311128Y0384834D01*
X0311471Y0384998D01*
X0311818Y0385155D01*
X0312169Y0385302D01*
X0312523Y0385442D01*
X0312880Y0385572D01*
X0313241Y0385694D01*
X0313604Y0385807D01*
X0313970Y0385912D01*
X0314338Y0386007D01*
X0314709Y0386094D01*
X0315081Y0386172D01*
X0315456Y0386240D01*
X0315832Y0386300D01*
X0316209Y0386350D01*
X0316587Y0386391D01*
X0316966Y0386424D01*
X0317346Y0386447D01*
X0317726Y0386460D01*
X0318107Y0386465D01*
X0311808Y0370717D02*
X0311810Y0370875D01*
X0311816Y0371033D01*
X0311826Y0371191D01*
X0311840Y0371349D01*
X0311858Y0371506D01*
X0311879Y0371663D01*
X0311905Y0371819D01*
X0311935Y0371975D01*
X0311968Y0372130D01*
X0312006Y0372283D01*
X0312047Y0372436D01*
X0312092Y0372588D01*
X0312141Y0372739D01*
X0312194Y0372888D01*
X0312250Y0373036D01*
X0312310Y0373182D01*
X0312374Y0373327D01*
X0312442Y0373470D01*
X0312513Y0373612D01*
X0312587Y0373752D01*
X0312665Y0373889D01*
X0312747Y0374025D01*
X0312831Y0374159D01*
X0312920Y0374290D01*
X0313011Y0374419D01*
X0313106Y0374546D01*
X0313203Y0374671D01*
X0313304Y0374793D01*
X0313408Y0374912D01*
X0313515Y0375029D01*
X0313625Y0375143D01*
X0313738Y0375254D01*
X0313853Y0375363D01*
X0313971Y0375468D01*
X0314092Y0375570D01*
X0314215Y0375670D01*
X0314341Y0375766D01*
X0314469Y0375859D01*
X0314599Y0375949D01*
X0314732Y0376035D01*
X0314867Y0376119D01*
X0315003Y0376198D01*
X0315142Y0376275D01*
X0315283Y0376347D01*
X0315425Y0376417D01*
X0315569Y0376482D01*
X0315715Y0376544D01*
X0315862Y0376602D01*
X0316011Y0376657D01*
X0316161Y0376708D01*
X0316312Y0376755D01*
X0316464Y0376798D01*
X0316617Y0376837D01*
X0316772Y0376873D01*
X0316927Y0376904D01*
X0317083Y0376932D01*
X0317239Y0376956D01*
X0317396Y0376976D01*
X0317554Y0376992D01*
X0317711Y0377004D01*
X0317870Y0377012D01*
X0318028Y0377016D01*
X0318186Y0377016D01*
X0318344Y0377012D01*
X0318503Y0377004D01*
X0318660Y0376992D01*
X0318818Y0376976D01*
X0318975Y0376956D01*
X0319131Y0376932D01*
X0319287Y0376904D01*
X0319442Y0376873D01*
X0319597Y0376837D01*
X0319750Y0376798D01*
X0319902Y0376755D01*
X0320053Y0376708D01*
X0320203Y0376657D01*
X0320352Y0376602D01*
X0320499Y0376544D01*
X0320645Y0376482D01*
X0320789Y0376417D01*
X0320931Y0376347D01*
X0321072Y0376275D01*
X0321211Y0376198D01*
X0321347Y0376119D01*
X0321482Y0376035D01*
X0321615Y0375949D01*
X0321745Y0375859D01*
X0321873Y0375766D01*
X0321999Y0375670D01*
X0322122Y0375570D01*
X0322243Y0375468D01*
X0322361Y0375363D01*
X0322476Y0375254D01*
X0322589Y0375143D01*
X0322699Y0375029D01*
X0322806Y0374912D01*
X0322910Y0374793D01*
X0323011Y0374671D01*
X0323108Y0374546D01*
X0323203Y0374419D01*
X0323294Y0374290D01*
X0323383Y0374159D01*
X0323467Y0374025D01*
X0323549Y0373889D01*
X0323627Y0373752D01*
X0323701Y0373612D01*
X0323772Y0373470D01*
X0323840Y0373327D01*
X0323904Y0373182D01*
X0323964Y0373036D01*
X0324020Y0372888D01*
X0324073Y0372739D01*
X0324122Y0372588D01*
X0324167Y0372436D01*
X0324208Y0372283D01*
X0324246Y0372130D01*
X0324279Y0371975D01*
X0324309Y0371819D01*
X0324335Y0371663D01*
X0324356Y0371506D01*
X0324374Y0371349D01*
X0324388Y0371191D01*
X0324398Y0371033D01*
X0324404Y0370875D01*
X0324406Y0370717D01*
X0324404Y0370559D01*
X0324398Y0370401D01*
X0324388Y0370243D01*
X0324374Y0370085D01*
X0324356Y0369928D01*
X0324335Y0369771D01*
X0324309Y0369615D01*
X0324279Y0369459D01*
X0324246Y0369304D01*
X0324208Y0369151D01*
X0324167Y0368998D01*
X0324122Y0368846D01*
X0324073Y0368695D01*
X0324020Y0368546D01*
X0323964Y0368398D01*
X0323904Y0368252D01*
X0323840Y0368107D01*
X0323772Y0367964D01*
X0323701Y0367822D01*
X0323627Y0367682D01*
X0323549Y0367545D01*
X0323467Y0367409D01*
X0323383Y0367275D01*
X0323294Y0367144D01*
X0323203Y0367015D01*
X0323108Y0366888D01*
X0323011Y0366763D01*
X0322910Y0366641D01*
X0322806Y0366522D01*
X0322699Y0366405D01*
X0322589Y0366291D01*
X0322476Y0366180D01*
X0322361Y0366071D01*
X0322243Y0365966D01*
X0322122Y0365864D01*
X0321999Y0365764D01*
X0321873Y0365668D01*
X0321745Y0365575D01*
X0321615Y0365485D01*
X0321482Y0365399D01*
X0321347Y0365315D01*
X0321211Y0365236D01*
X0321072Y0365159D01*
X0320931Y0365087D01*
X0320789Y0365017D01*
X0320645Y0364952D01*
X0320499Y0364890D01*
X0320352Y0364832D01*
X0320203Y0364777D01*
X0320053Y0364726D01*
X0319902Y0364679D01*
X0319750Y0364636D01*
X0319597Y0364597D01*
X0319442Y0364561D01*
X0319287Y0364530D01*
X0319131Y0364502D01*
X0318975Y0364478D01*
X0318818Y0364458D01*
X0318660Y0364442D01*
X0318503Y0364430D01*
X0318344Y0364422D01*
X0318186Y0364418D01*
X0318028Y0364418D01*
X0317870Y0364422D01*
X0317711Y0364430D01*
X0317554Y0364442D01*
X0317396Y0364458D01*
X0317239Y0364478D01*
X0317083Y0364502D01*
X0316927Y0364530D01*
X0316772Y0364561D01*
X0316617Y0364597D01*
X0316464Y0364636D01*
X0316312Y0364679D01*
X0316161Y0364726D01*
X0316011Y0364777D01*
X0315862Y0364832D01*
X0315715Y0364890D01*
X0315569Y0364952D01*
X0315425Y0365017D01*
X0315283Y0365087D01*
X0315142Y0365159D01*
X0315003Y0365236D01*
X0314867Y0365315D01*
X0314732Y0365399D01*
X0314599Y0365485D01*
X0314469Y0365575D01*
X0314341Y0365668D01*
X0314215Y0365764D01*
X0314092Y0365864D01*
X0313971Y0365966D01*
X0313853Y0366071D01*
X0313738Y0366180D01*
X0313625Y0366291D01*
X0313515Y0366405D01*
X0313408Y0366522D01*
X0313304Y0366641D01*
X0313203Y0366763D01*
X0313106Y0366888D01*
X0313011Y0367015D01*
X0312920Y0367144D01*
X0312831Y0367275D01*
X0312747Y0367409D01*
X0312665Y0367545D01*
X0312587Y0367682D01*
X0312513Y0367822D01*
X0312442Y0367964D01*
X0312374Y0368107D01*
X0312310Y0368252D01*
X0312250Y0368398D01*
X0312194Y0368546D01*
X0312141Y0368695D01*
X0312092Y0368846D01*
X0312047Y0368998D01*
X0312006Y0369151D01*
X0311968Y0369304D01*
X0311935Y0369459D01*
X0311905Y0369615D01*
X0311879Y0369771D01*
X0311858Y0369928D01*
X0311840Y0370085D01*
X0311826Y0370243D01*
X0311816Y0370401D01*
X0311810Y0370559D01*
X0311808Y0370717D01*
X0465351Y0305756D02*
X0465353Y0305914D01*
X0465359Y0306072D01*
X0465369Y0306230D01*
X0465383Y0306388D01*
X0465401Y0306545D01*
X0465422Y0306702D01*
X0465448Y0306858D01*
X0465478Y0307014D01*
X0465511Y0307169D01*
X0465549Y0307322D01*
X0465590Y0307475D01*
X0465635Y0307627D01*
X0465684Y0307778D01*
X0465737Y0307927D01*
X0465793Y0308075D01*
X0465853Y0308221D01*
X0465917Y0308366D01*
X0465985Y0308509D01*
X0466056Y0308651D01*
X0466130Y0308791D01*
X0466208Y0308928D01*
X0466290Y0309064D01*
X0466374Y0309198D01*
X0466463Y0309329D01*
X0466554Y0309458D01*
X0466649Y0309585D01*
X0466746Y0309710D01*
X0466847Y0309832D01*
X0466951Y0309951D01*
X0467058Y0310068D01*
X0467168Y0310182D01*
X0467281Y0310293D01*
X0467396Y0310402D01*
X0467514Y0310507D01*
X0467635Y0310609D01*
X0467758Y0310709D01*
X0467884Y0310805D01*
X0468012Y0310898D01*
X0468142Y0310988D01*
X0468275Y0311074D01*
X0468410Y0311158D01*
X0468546Y0311237D01*
X0468685Y0311314D01*
X0468826Y0311386D01*
X0468968Y0311456D01*
X0469112Y0311521D01*
X0469258Y0311583D01*
X0469405Y0311641D01*
X0469554Y0311696D01*
X0469704Y0311747D01*
X0469855Y0311794D01*
X0470007Y0311837D01*
X0470160Y0311876D01*
X0470315Y0311912D01*
X0470470Y0311943D01*
X0470626Y0311971D01*
X0470782Y0311995D01*
X0470939Y0312015D01*
X0471097Y0312031D01*
X0471254Y0312043D01*
X0471413Y0312051D01*
X0471571Y0312055D01*
X0471729Y0312055D01*
X0471887Y0312051D01*
X0472046Y0312043D01*
X0472203Y0312031D01*
X0472361Y0312015D01*
X0472518Y0311995D01*
X0472674Y0311971D01*
X0472830Y0311943D01*
X0472985Y0311912D01*
X0473140Y0311876D01*
X0473293Y0311837D01*
X0473445Y0311794D01*
X0473596Y0311747D01*
X0473746Y0311696D01*
X0473895Y0311641D01*
X0474042Y0311583D01*
X0474188Y0311521D01*
X0474332Y0311456D01*
X0474474Y0311386D01*
X0474615Y0311314D01*
X0474754Y0311237D01*
X0474890Y0311158D01*
X0475025Y0311074D01*
X0475158Y0310988D01*
X0475288Y0310898D01*
X0475416Y0310805D01*
X0475542Y0310709D01*
X0475665Y0310609D01*
X0475786Y0310507D01*
X0475904Y0310402D01*
X0476019Y0310293D01*
X0476132Y0310182D01*
X0476242Y0310068D01*
X0476349Y0309951D01*
X0476453Y0309832D01*
X0476554Y0309710D01*
X0476651Y0309585D01*
X0476746Y0309458D01*
X0476837Y0309329D01*
X0476926Y0309198D01*
X0477010Y0309064D01*
X0477092Y0308928D01*
X0477170Y0308791D01*
X0477244Y0308651D01*
X0477315Y0308509D01*
X0477383Y0308366D01*
X0477447Y0308221D01*
X0477507Y0308075D01*
X0477563Y0307927D01*
X0477616Y0307778D01*
X0477665Y0307627D01*
X0477710Y0307475D01*
X0477751Y0307322D01*
X0477789Y0307169D01*
X0477822Y0307014D01*
X0477852Y0306858D01*
X0477878Y0306702D01*
X0477899Y0306545D01*
X0477917Y0306388D01*
X0477931Y0306230D01*
X0477941Y0306072D01*
X0477947Y0305914D01*
X0477949Y0305756D01*
X0477947Y0305598D01*
X0477941Y0305440D01*
X0477931Y0305282D01*
X0477917Y0305124D01*
X0477899Y0304967D01*
X0477878Y0304810D01*
X0477852Y0304654D01*
X0477822Y0304498D01*
X0477789Y0304343D01*
X0477751Y0304190D01*
X0477710Y0304037D01*
X0477665Y0303885D01*
X0477616Y0303734D01*
X0477563Y0303585D01*
X0477507Y0303437D01*
X0477447Y0303291D01*
X0477383Y0303146D01*
X0477315Y0303003D01*
X0477244Y0302861D01*
X0477170Y0302721D01*
X0477092Y0302584D01*
X0477010Y0302448D01*
X0476926Y0302314D01*
X0476837Y0302183D01*
X0476746Y0302054D01*
X0476651Y0301927D01*
X0476554Y0301802D01*
X0476453Y0301680D01*
X0476349Y0301561D01*
X0476242Y0301444D01*
X0476132Y0301330D01*
X0476019Y0301219D01*
X0475904Y0301110D01*
X0475786Y0301005D01*
X0475665Y0300903D01*
X0475542Y0300803D01*
X0475416Y0300707D01*
X0475288Y0300614D01*
X0475158Y0300524D01*
X0475025Y0300438D01*
X0474890Y0300354D01*
X0474754Y0300275D01*
X0474615Y0300198D01*
X0474474Y0300126D01*
X0474332Y0300056D01*
X0474188Y0299991D01*
X0474042Y0299929D01*
X0473895Y0299871D01*
X0473746Y0299816D01*
X0473596Y0299765D01*
X0473445Y0299718D01*
X0473293Y0299675D01*
X0473140Y0299636D01*
X0472985Y0299600D01*
X0472830Y0299569D01*
X0472674Y0299541D01*
X0472518Y0299517D01*
X0472361Y0299497D01*
X0472203Y0299481D01*
X0472046Y0299469D01*
X0471887Y0299461D01*
X0471729Y0299457D01*
X0471571Y0299457D01*
X0471413Y0299461D01*
X0471254Y0299469D01*
X0471097Y0299481D01*
X0470939Y0299497D01*
X0470782Y0299517D01*
X0470626Y0299541D01*
X0470470Y0299569D01*
X0470315Y0299600D01*
X0470160Y0299636D01*
X0470007Y0299675D01*
X0469855Y0299718D01*
X0469704Y0299765D01*
X0469554Y0299816D01*
X0469405Y0299871D01*
X0469258Y0299929D01*
X0469112Y0299991D01*
X0468968Y0300056D01*
X0468826Y0300126D01*
X0468685Y0300198D01*
X0468546Y0300275D01*
X0468410Y0300354D01*
X0468275Y0300438D01*
X0468142Y0300524D01*
X0468012Y0300614D01*
X0467884Y0300707D01*
X0467758Y0300803D01*
X0467635Y0300903D01*
X0467514Y0301005D01*
X0467396Y0301110D01*
X0467281Y0301219D01*
X0467168Y0301330D01*
X0467058Y0301444D01*
X0466951Y0301561D01*
X0466847Y0301680D01*
X0466746Y0301802D01*
X0466649Y0301927D01*
X0466554Y0302054D01*
X0466463Y0302183D01*
X0466374Y0302314D01*
X0466290Y0302448D01*
X0466208Y0302584D01*
X0466130Y0302721D01*
X0466056Y0302861D01*
X0465985Y0303003D01*
X0465917Y0303146D01*
X0465853Y0303291D01*
X0465793Y0303437D01*
X0465737Y0303585D01*
X0465684Y0303734D01*
X0465635Y0303885D01*
X0465590Y0304037D01*
X0465549Y0304190D01*
X0465511Y0304343D01*
X0465478Y0304498D01*
X0465448Y0304654D01*
X0465422Y0304810D01*
X0465401Y0304967D01*
X0465383Y0305124D01*
X0465369Y0305282D01*
X0465359Y0305440D01*
X0465353Y0305598D01*
X0465351Y0305756D01*
X0504721Y0370717D02*
X0504723Y0370875D01*
X0504729Y0371033D01*
X0504739Y0371191D01*
X0504753Y0371349D01*
X0504771Y0371506D01*
X0504792Y0371663D01*
X0504818Y0371819D01*
X0504848Y0371975D01*
X0504881Y0372130D01*
X0504919Y0372283D01*
X0504960Y0372436D01*
X0505005Y0372588D01*
X0505054Y0372739D01*
X0505107Y0372888D01*
X0505163Y0373036D01*
X0505223Y0373182D01*
X0505287Y0373327D01*
X0505355Y0373470D01*
X0505426Y0373612D01*
X0505500Y0373752D01*
X0505578Y0373889D01*
X0505660Y0374025D01*
X0505744Y0374159D01*
X0505833Y0374290D01*
X0505924Y0374419D01*
X0506019Y0374546D01*
X0506116Y0374671D01*
X0506217Y0374793D01*
X0506321Y0374912D01*
X0506428Y0375029D01*
X0506538Y0375143D01*
X0506651Y0375254D01*
X0506766Y0375363D01*
X0506884Y0375468D01*
X0507005Y0375570D01*
X0507128Y0375670D01*
X0507254Y0375766D01*
X0507382Y0375859D01*
X0507512Y0375949D01*
X0507645Y0376035D01*
X0507780Y0376119D01*
X0507916Y0376198D01*
X0508055Y0376275D01*
X0508196Y0376347D01*
X0508338Y0376417D01*
X0508482Y0376482D01*
X0508628Y0376544D01*
X0508775Y0376602D01*
X0508924Y0376657D01*
X0509074Y0376708D01*
X0509225Y0376755D01*
X0509377Y0376798D01*
X0509530Y0376837D01*
X0509685Y0376873D01*
X0509840Y0376904D01*
X0509996Y0376932D01*
X0510152Y0376956D01*
X0510309Y0376976D01*
X0510467Y0376992D01*
X0510624Y0377004D01*
X0510783Y0377012D01*
X0510941Y0377016D01*
X0511099Y0377016D01*
X0511257Y0377012D01*
X0511416Y0377004D01*
X0511573Y0376992D01*
X0511731Y0376976D01*
X0511888Y0376956D01*
X0512044Y0376932D01*
X0512200Y0376904D01*
X0512355Y0376873D01*
X0512510Y0376837D01*
X0512663Y0376798D01*
X0512815Y0376755D01*
X0512966Y0376708D01*
X0513116Y0376657D01*
X0513265Y0376602D01*
X0513412Y0376544D01*
X0513558Y0376482D01*
X0513702Y0376417D01*
X0513844Y0376347D01*
X0513985Y0376275D01*
X0514124Y0376198D01*
X0514260Y0376119D01*
X0514395Y0376035D01*
X0514528Y0375949D01*
X0514658Y0375859D01*
X0514786Y0375766D01*
X0514912Y0375670D01*
X0515035Y0375570D01*
X0515156Y0375468D01*
X0515274Y0375363D01*
X0515389Y0375254D01*
X0515502Y0375143D01*
X0515612Y0375029D01*
X0515719Y0374912D01*
X0515823Y0374793D01*
X0515924Y0374671D01*
X0516021Y0374546D01*
X0516116Y0374419D01*
X0516207Y0374290D01*
X0516296Y0374159D01*
X0516380Y0374025D01*
X0516462Y0373889D01*
X0516540Y0373752D01*
X0516614Y0373612D01*
X0516685Y0373470D01*
X0516753Y0373327D01*
X0516817Y0373182D01*
X0516877Y0373036D01*
X0516933Y0372888D01*
X0516986Y0372739D01*
X0517035Y0372588D01*
X0517080Y0372436D01*
X0517121Y0372283D01*
X0517159Y0372130D01*
X0517192Y0371975D01*
X0517222Y0371819D01*
X0517248Y0371663D01*
X0517269Y0371506D01*
X0517287Y0371349D01*
X0517301Y0371191D01*
X0517311Y0371033D01*
X0517317Y0370875D01*
X0517319Y0370717D01*
X0517317Y0370559D01*
X0517311Y0370401D01*
X0517301Y0370243D01*
X0517287Y0370085D01*
X0517269Y0369928D01*
X0517248Y0369771D01*
X0517222Y0369615D01*
X0517192Y0369459D01*
X0517159Y0369304D01*
X0517121Y0369151D01*
X0517080Y0368998D01*
X0517035Y0368846D01*
X0516986Y0368695D01*
X0516933Y0368546D01*
X0516877Y0368398D01*
X0516817Y0368252D01*
X0516753Y0368107D01*
X0516685Y0367964D01*
X0516614Y0367822D01*
X0516540Y0367682D01*
X0516462Y0367545D01*
X0516380Y0367409D01*
X0516296Y0367275D01*
X0516207Y0367144D01*
X0516116Y0367015D01*
X0516021Y0366888D01*
X0515924Y0366763D01*
X0515823Y0366641D01*
X0515719Y0366522D01*
X0515612Y0366405D01*
X0515502Y0366291D01*
X0515389Y0366180D01*
X0515274Y0366071D01*
X0515156Y0365966D01*
X0515035Y0365864D01*
X0514912Y0365764D01*
X0514786Y0365668D01*
X0514658Y0365575D01*
X0514528Y0365485D01*
X0514395Y0365399D01*
X0514260Y0365315D01*
X0514124Y0365236D01*
X0513985Y0365159D01*
X0513844Y0365087D01*
X0513702Y0365017D01*
X0513558Y0364952D01*
X0513412Y0364890D01*
X0513265Y0364832D01*
X0513116Y0364777D01*
X0512966Y0364726D01*
X0512815Y0364679D01*
X0512663Y0364636D01*
X0512510Y0364597D01*
X0512355Y0364561D01*
X0512200Y0364530D01*
X0512044Y0364502D01*
X0511888Y0364478D01*
X0511731Y0364458D01*
X0511573Y0364442D01*
X0511416Y0364430D01*
X0511257Y0364422D01*
X0511099Y0364418D01*
X0510941Y0364418D01*
X0510783Y0364422D01*
X0510624Y0364430D01*
X0510467Y0364442D01*
X0510309Y0364458D01*
X0510152Y0364478D01*
X0509996Y0364502D01*
X0509840Y0364530D01*
X0509685Y0364561D01*
X0509530Y0364597D01*
X0509377Y0364636D01*
X0509225Y0364679D01*
X0509074Y0364726D01*
X0508924Y0364777D01*
X0508775Y0364832D01*
X0508628Y0364890D01*
X0508482Y0364952D01*
X0508338Y0365017D01*
X0508196Y0365087D01*
X0508055Y0365159D01*
X0507916Y0365236D01*
X0507780Y0365315D01*
X0507645Y0365399D01*
X0507512Y0365485D01*
X0507382Y0365575D01*
X0507254Y0365668D01*
X0507128Y0365764D01*
X0507005Y0365864D01*
X0506884Y0365966D01*
X0506766Y0366071D01*
X0506651Y0366180D01*
X0506538Y0366291D01*
X0506428Y0366405D01*
X0506321Y0366522D01*
X0506217Y0366641D01*
X0506116Y0366763D01*
X0506019Y0366888D01*
X0505924Y0367015D01*
X0505833Y0367144D01*
X0505744Y0367275D01*
X0505660Y0367409D01*
X0505578Y0367545D01*
X0505500Y0367682D01*
X0505426Y0367822D01*
X0505355Y0367964D01*
X0505287Y0368107D01*
X0505223Y0368252D01*
X0505163Y0368398D01*
X0505107Y0368546D01*
X0505054Y0368695D01*
X0505005Y0368846D01*
X0504960Y0368998D01*
X0504919Y0369151D01*
X0504881Y0369304D01*
X0504848Y0369459D01*
X0504818Y0369615D01*
X0504792Y0369771D01*
X0504771Y0369928D01*
X0504753Y0370085D01*
X0504739Y0370243D01*
X0504729Y0370401D01*
X0504723Y0370559D01*
X0504721Y0370717D01*
X0583461Y0305756D02*
X0583463Y0305914D01*
X0583469Y0306072D01*
X0583479Y0306230D01*
X0583493Y0306388D01*
X0583511Y0306545D01*
X0583532Y0306702D01*
X0583558Y0306858D01*
X0583588Y0307014D01*
X0583621Y0307169D01*
X0583659Y0307322D01*
X0583700Y0307475D01*
X0583745Y0307627D01*
X0583794Y0307778D01*
X0583847Y0307927D01*
X0583903Y0308075D01*
X0583963Y0308221D01*
X0584027Y0308366D01*
X0584095Y0308509D01*
X0584166Y0308651D01*
X0584240Y0308791D01*
X0584318Y0308928D01*
X0584400Y0309064D01*
X0584484Y0309198D01*
X0584573Y0309329D01*
X0584664Y0309458D01*
X0584759Y0309585D01*
X0584856Y0309710D01*
X0584957Y0309832D01*
X0585061Y0309951D01*
X0585168Y0310068D01*
X0585278Y0310182D01*
X0585391Y0310293D01*
X0585506Y0310402D01*
X0585624Y0310507D01*
X0585745Y0310609D01*
X0585868Y0310709D01*
X0585994Y0310805D01*
X0586122Y0310898D01*
X0586252Y0310988D01*
X0586385Y0311074D01*
X0586520Y0311158D01*
X0586656Y0311237D01*
X0586795Y0311314D01*
X0586936Y0311386D01*
X0587078Y0311456D01*
X0587222Y0311521D01*
X0587368Y0311583D01*
X0587515Y0311641D01*
X0587664Y0311696D01*
X0587814Y0311747D01*
X0587965Y0311794D01*
X0588117Y0311837D01*
X0588270Y0311876D01*
X0588425Y0311912D01*
X0588580Y0311943D01*
X0588736Y0311971D01*
X0588892Y0311995D01*
X0589049Y0312015D01*
X0589207Y0312031D01*
X0589364Y0312043D01*
X0589523Y0312051D01*
X0589681Y0312055D01*
X0589839Y0312055D01*
X0589997Y0312051D01*
X0590156Y0312043D01*
X0590313Y0312031D01*
X0590471Y0312015D01*
X0590628Y0311995D01*
X0590784Y0311971D01*
X0590940Y0311943D01*
X0591095Y0311912D01*
X0591250Y0311876D01*
X0591403Y0311837D01*
X0591555Y0311794D01*
X0591706Y0311747D01*
X0591856Y0311696D01*
X0592005Y0311641D01*
X0592152Y0311583D01*
X0592298Y0311521D01*
X0592442Y0311456D01*
X0592584Y0311386D01*
X0592725Y0311314D01*
X0592864Y0311237D01*
X0593000Y0311158D01*
X0593135Y0311074D01*
X0593268Y0310988D01*
X0593398Y0310898D01*
X0593526Y0310805D01*
X0593652Y0310709D01*
X0593775Y0310609D01*
X0593896Y0310507D01*
X0594014Y0310402D01*
X0594129Y0310293D01*
X0594242Y0310182D01*
X0594352Y0310068D01*
X0594459Y0309951D01*
X0594563Y0309832D01*
X0594664Y0309710D01*
X0594761Y0309585D01*
X0594856Y0309458D01*
X0594947Y0309329D01*
X0595036Y0309198D01*
X0595120Y0309064D01*
X0595202Y0308928D01*
X0595280Y0308791D01*
X0595354Y0308651D01*
X0595425Y0308509D01*
X0595493Y0308366D01*
X0595557Y0308221D01*
X0595617Y0308075D01*
X0595673Y0307927D01*
X0595726Y0307778D01*
X0595775Y0307627D01*
X0595820Y0307475D01*
X0595861Y0307322D01*
X0595899Y0307169D01*
X0595932Y0307014D01*
X0595962Y0306858D01*
X0595988Y0306702D01*
X0596009Y0306545D01*
X0596027Y0306388D01*
X0596041Y0306230D01*
X0596051Y0306072D01*
X0596057Y0305914D01*
X0596059Y0305756D01*
X0596057Y0305598D01*
X0596051Y0305440D01*
X0596041Y0305282D01*
X0596027Y0305124D01*
X0596009Y0304967D01*
X0595988Y0304810D01*
X0595962Y0304654D01*
X0595932Y0304498D01*
X0595899Y0304343D01*
X0595861Y0304190D01*
X0595820Y0304037D01*
X0595775Y0303885D01*
X0595726Y0303734D01*
X0595673Y0303585D01*
X0595617Y0303437D01*
X0595557Y0303291D01*
X0595493Y0303146D01*
X0595425Y0303003D01*
X0595354Y0302861D01*
X0595280Y0302721D01*
X0595202Y0302584D01*
X0595120Y0302448D01*
X0595036Y0302314D01*
X0594947Y0302183D01*
X0594856Y0302054D01*
X0594761Y0301927D01*
X0594664Y0301802D01*
X0594563Y0301680D01*
X0594459Y0301561D01*
X0594352Y0301444D01*
X0594242Y0301330D01*
X0594129Y0301219D01*
X0594014Y0301110D01*
X0593896Y0301005D01*
X0593775Y0300903D01*
X0593652Y0300803D01*
X0593526Y0300707D01*
X0593398Y0300614D01*
X0593268Y0300524D01*
X0593135Y0300438D01*
X0593000Y0300354D01*
X0592864Y0300275D01*
X0592725Y0300198D01*
X0592584Y0300126D01*
X0592442Y0300056D01*
X0592298Y0299991D01*
X0592152Y0299929D01*
X0592005Y0299871D01*
X0591856Y0299816D01*
X0591706Y0299765D01*
X0591555Y0299718D01*
X0591403Y0299675D01*
X0591250Y0299636D01*
X0591095Y0299600D01*
X0590940Y0299569D01*
X0590784Y0299541D01*
X0590628Y0299517D01*
X0590471Y0299497D01*
X0590313Y0299481D01*
X0590156Y0299469D01*
X0589997Y0299461D01*
X0589839Y0299457D01*
X0589681Y0299457D01*
X0589523Y0299461D01*
X0589364Y0299469D01*
X0589207Y0299481D01*
X0589049Y0299497D01*
X0588892Y0299517D01*
X0588736Y0299541D01*
X0588580Y0299569D01*
X0588425Y0299600D01*
X0588270Y0299636D01*
X0588117Y0299675D01*
X0587965Y0299718D01*
X0587814Y0299765D01*
X0587664Y0299816D01*
X0587515Y0299871D01*
X0587368Y0299929D01*
X0587222Y0299991D01*
X0587078Y0300056D01*
X0586936Y0300126D01*
X0586795Y0300198D01*
X0586656Y0300275D01*
X0586520Y0300354D01*
X0586385Y0300438D01*
X0586252Y0300524D01*
X0586122Y0300614D01*
X0585994Y0300707D01*
X0585868Y0300803D01*
X0585745Y0300903D01*
X0585624Y0301005D01*
X0585506Y0301110D01*
X0585391Y0301219D01*
X0585278Y0301330D01*
X0585168Y0301444D01*
X0585061Y0301561D01*
X0584957Y0301680D01*
X0584856Y0301802D01*
X0584759Y0301927D01*
X0584664Y0302054D01*
X0584573Y0302183D01*
X0584484Y0302314D01*
X0584400Y0302448D01*
X0584318Y0302584D01*
X0584240Y0302721D01*
X0584166Y0302861D01*
X0584095Y0303003D01*
X0584027Y0303146D01*
X0583963Y0303291D01*
X0583903Y0303437D01*
X0583847Y0303585D01*
X0583794Y0303734D01*
X0583745Y0303885D01*
X0583700Y0304037D01*
X0583659Y0304190D01*
X0583621Y0304343D01*
X0583588Y0304498D01*
X0583558Y0304654D01*
X0583532Y0304810D01*
X0583511Y0304967D01*
X0583493Y0305124D01*
X0583479Y0305282D01*
X0583469Y0305440D01*
X0583463Y0305598D01*
X0583461Y0305756D01*
X0640942Y0402213D02*
X0640944Y0402406D01*
X0640951Y0402599D01*
X0640963Y0402792D01*
X0640980Y0402985D01*
X0641001Y0403177D01*
X0641027Y0403368D01*
X0641058Y0403559D01*
X0641093Y0403749D01*
X0641133Y0403938D01*
X0641178Y0404126D01*
X0641227Y0404313D01*
X0641281Y0404499D01*
X0641339Y0404683D01*
X0641402Y0404866D01*
X0641470Y0405047D01*
X0641541Y0405226D01*
X0641618Y0405404D01*
X0641698Y0405580D01*
X0641783Y0405753D01*
X0641872Y0405925D01*
X0641965Y0406094D01*
X0642062Y0406261D01*
X0642164Y0406426D01*
X0642269Y0406588D01*
X0642378Y0406747D01*
X0642492Y0406904D01*
X0642609Y0407057D01*
X0642729Y0407208D01*
X0642854Y0407356D01*
X0642982Y0407501D01*
X0643113Y0407642D01*
X0643248Y0407781D01*
X0643387Y0407916D01*
X0643528Y0408047D01*
X0643673Y0408175D01*
X0643821Y0408300D01*
X0643972Y0408420D01*
X0644125Y0408537D01*
X0644282Y0408651D01*
X0644441Y0408760D01*
X0644603Y0408865D01*
X0644768Y0408967D01*
X0644935Y0409064D01*
X0645104Y0409157D01*
X0645276Y0409246D01*
X0645449Y0409331D01*
X0645625Y0409411D01*
X0645803Y0409488D01*
X0645982Y0409559D01*
X0646163Y0409627D01*
X0646346Y0409690D01*
X0646530Y0409748D01*
X0646716Y0409802D01*
X0646903Y0409851D01*
X0647091Y0409896D01*
X0647280Y0409936D01*
X0647470Y0409971D01*
X0647661Y0410002D01*
X0647852Y0410028D01*
X0648044Y0410049D01*
X0648237Y0410066D01*
X0648430Y0410078D01*
X0648623Y0410085D01*
X0648816Y0410087D01*
X0649009Y0410085D01*
X0649202Y0410078D01*
X0649395Y0410066D01*
X0649588Y0410049D01*
X0649780Y0410028D01*
X0649971Y0410002D01*
X0650162Y0409971D01*
X0650352Y0409936D01*
X0650541Y0409896D01*
X0650729Y0409851D01*
X0650916Y0409802D01*
X0651102Y0409748D01*
X0651286Y0409690D01*
X0651469Y0409627D01*
X0651650Y0409559D01*
X0651829Y0409488D01*
X0652007Y0409411D01*
X0652183Y0409331D01*
X0652356Y0409246D01*
X0652528Y0409157D01*
X0652697Y0409064D01*
X0652864Y0408967D01*
X0653029Y0408865D01*
X0653191Y0408760D01*
X0653350Y0408651D01*
X0653507Y0408537D01*
X0653660Y0408420D01*
X0653811Y0408300D01*
X0653959Y0408175D01*
X0654104Y0408047D01*
X0654245Y0407916D01*
X0654384Y0407781D01*
X0654519Y0407642D01*
X0654650Y0407501D01*
X0654778Y0407356D01*
X0654903Y0407208D01*
X0655023Y0407057D01*
X0655140Y0406904D01*
X0655254Y0406747D01*
X0655363Y0406588D01*
X0655468Y0406426D01*
X0655570Y0406261D01*
X0655667Y0406094D01*
X0655760Y0405925D01*
X0655849Y0405753D01*
X0655934Y0405580D01*
X0656014Y0405404D01*
X0656091Y0405226D01*
X0656162Y0405047D01*
X0656230Y0404866D01*
X0656293Y0404683D01*
X0656351Y0404499D01*
X0656405Y0404313D01*
X0656454Y0404126D01*
X0656499Y0403938D01*
X0656539Y0403749D01*
X0656574Y0403559D01*
X0656605Y0403368D01*
X0656631Y0403177D01*
X0656652Y0402985D01*
X0656669Y0402792D01*
X0656681Y0402599D01*
X0656688Y0402406D01*
X0656690Y0402213D01*
X0656688Y0402020D01*
X0656681Y0401827D01*
X0656669Y0401634D01*
X0656652Y0401441D01*
X0656631Y0401249D01*
X0656605Y0401058D01*
X0656574Y0400867D01*
X0656539Y0400677D01*
X0656499Y0400488D01*
X0656454Y0400300D01*
X0656405Y0400113D01*
X0656351Y0399927D01*
X0656293Y0399743D01*
X0656230Y0399560D01*
X0656162Y0399379D01*
X0656091Y0399200D01*
X0656014Y0399022D01*
X0655934Y0398846D01*
X0655849Y0398673D01*
X0655760Y0398501D01*
X0655667Y0398332D01*
X0655570Y0398165D01*
X0655468Y0398000D01*
X0655363Y0397838D01*
X0655254Y0397679D01*
X0655140Y0397522D01*
X0655023Y0397369D01*
X0654903Y0397218D01*
X0654778Y0397070D01*
X0654650Y0396925D01*
X0654519Y0396784D01*
X0654384Y0396645D01*
X0654245Y0396510D01*
X0654104Y0396379D01*
X0653959Y0396251D01*
X0653811Y0396126D01*
X0653660Y0396006D01*
X0653507Y0395889D01*
X0653350Y0395775D01*
X0653191Y0395666D01*
X0653029Y0395561D01*
X0652864Y0395459D01*
X0652697Y0395362D01*
X0652528Y0395269D01*
X0652356Y0395180D01*
X0652183Y0395095D01*
X0652007Y0395015D01*
X0651829Y0394938D01*
X0651650Y0394867D01*
X0651469Y0394799D01*
X0651286Y0394736D01*
X0651102Y0394678D01*
X0650916Y0394624D01*
X0650729Y0394575D01*
X0650541Y0394530D01*
X0650352Y0394490D01*
X0650162Y0394455D01*
X0649971Y0394424D01*
X0649780Y0394398D01*
X0649588Y0394377D01*
X0649395Y0394360D01*
X0649202Y0394348D01*
X0649009Y0394341D01*
X0648816Y0394339D01*
X0648623Y0394341D01*
X0648430Y0394348D01*
X0648237Y0394360D01*
X0648044Y0394377D01*
X0647852Y0394398D01*
X0647661Y0394424D01*
X0647470Y0394455D01*
X0647280Y0394490D01*
X0647091Y0394530D01*
X0646903Y0394575D01*
X0646716Y0394624D01*
X0646530Y0394678D01*
X0646346Y0394736D01*
X0646163Y0394799D01*
X0645982Y0394867D01*
X0645803Y0394938D01*
X0645625Y0395015D01*
X0645449Y0395095D01*
X0645276Y0395180D01*
X0645104Y0395269D01*
X0644935Y0395362D01*
X0644768Y0395459D01*
X0644603Y0395561D01*
X0644441Y0395666D01*
X0644282Y0395775D01*
X0644125Y0395889D01*
X0643972Y0396006D01*
X0643821Y0396126D01*
X0643673Y0396251D01*
X0643528Y0396379D01*
X0643387Y0396510D01*
X0643248Y0396645D01*
X0643113Y0396784D01*
X0642982Y0396925D01*
X0642854Y0397070D01*
X0642729Y0397218D01*
X0642609Y0397369D01*
X0642492Y0397522D01*
X0642378Y0397679D01*
X0642269Y0397838D01*
X0642164Y0398000D01*
X0642062Y0398165D01*
X0641965Y0398332D01*
X0641872Y0398501D01*
X0641783Y0398673D01*
X0641698Y0398846D01*
X0641618Y0399022D01*
X0641541Y0399200D01*
X0641470Y0399379D01*
X0641402Y0399560D01*
X0641339Y0399743D01*
X0641281Y0399927D01*
X0641227Y0400113D01*
X0641178Y0400300D01*
X0641133Y0400488D01*
X0641093Y0400677D01*
X0641058Y0400867D01*
X0641027Y0401058D01*
X0641001Y0401249D01*
X0640980Y0401441D01*
X0640963Y0401634D01*
X0640951Y0401827D01*
X0640944Y0402020D01*
X0640942Y0402213D01*
X0504721Y0114811D02*
X0504723Y0114969D01*
X0504729Y0115127D01*
X0504739Y0115285D01*
X0504753Y0115443D01*
X0504771Y0115600D01*
X0504792Y0115757D01*
X0504818Y0115913D01*
X0504848Y0116069D01*
X0504881Y0116224D01*
X0504919Y0116377D01*
X0504960Y0116530D01*
X0505005Y0116682D01*
X0505054Y0116833D01*
X0505107Y0116982D01*
X0505163Y0117130D01*
X0505223Y0117276D01*
X0505287Y0117421D01*
X0505355Y0117564D01*
X0505426Y0117706D01*
X0505500Y0117846D01*
X0505578Y0117983D01*
X0505660Y0118119D01*
X0505744Y0118253D01*
X0505833Y0118384D01*
X0505924Y0118513D01*
X0506019Y0118640D01*
X0506116Y0118765D01*
X0506217Y0118887D01*
X0506321Y0119006D01*
X0506428Y0119123D01*
X0506538Y0119237D01*
X0506651Y0119348D01*
X0506766Y0119457D01*
X0506884Y0119562D01*
X0507005Y0119664D01*
X0507128Y0119764D01*
X0507254Y0119860D01*
X0507382Y0119953D01*
X0507512Y0120043D01*
X0507645Y0120129D01*
X0507780Y0120213D01*
X0507916Y0120292D01*
X0508055Y0120369D01*
X0508196Y0120441D01*
X0508338Y0120511D01*
X0508482Y0120576D01*
X0508628Y0120638D01*
X0508775Y0120696D01*
X0508924Y0120751D01*
X0509074Y0120802D01*
X0509225Y0120849D01*
X0509377Y0120892D01*
X0509530Y0120931D01*
X0509685Y0120967D01*
X0509840Y0120998D01*
X0509996Y0121026D01*
X0510152Y0121050D01*
X0510309Y0121070D01*
X0510467Y0121086D01*
X0510624Y0121098D01*
X0510783Y0121106D01*
X0510941Y0121110D01*
X0511099Y0121110D01*
X0511257Y0121106D01*
X0511416Y0121098D01*
X0511573Y0121086D01*
X0511731Y0121070D01*
X0511888Y0121050D01*
X0512044Y0121026D01*
X0512200Y0120998D01*
X0512355Y0120967D01*
X0512510Y0120931D01*
X0512663Y0120892D01*
X0512815Y0120849D01*
X0512966Y0120802D01*
X0513116Y0120751D01*
X0513265Y0120696D01*
X0513412Y0120638D01*
X0513558Y0120576D01*
X0513702Y0120511D01*
X0513844Y0120441D01*
X0513985Y0120369D01*
X0514124Y0120292D01*
X0514260Y0120213D01*
X0514395Y0120129D01*
X0514528Y0120043D01*
X0514658Y0119953D01*
X0514786Y0119860D01*
X0514912Y0119764D01*
X0515035Y0119664D01*
X0515156Y0119562D01*
X0515274Y0119457D01*
X0515389Y0119348D01*
X0515502Y0119237D01*
X0515612Y0119123D01*
X0515719Y0119006D01*
X0515823Y0118887D01*
X0515924Y0118765D01*
X0516021Y0118640D01*
X0516116Y0118513D01*
X0516207Y0118384D01*
X0516296Y0118253D01*
X0516380Y0118119D01*
X0516462Y0117983D01*
X0516540Y0117846D01*
X0516614Y0117706D01*
X0516685Y0117564D01*
X0516753Y0117421D01*
X0516817Y0117276D01*
X0516877Y0117130D01*
X0516933Y0116982D01*
X0516986Y0116833D01*
X0517035Y0116682D01*
X0517080Y0116530D01*
X0517121Y0116377D01*
X0517159Y0116224D01*
X0517192Y0116069D01*
X0517222Y0115913D01*
X0517248Y0115757D01*
X0517269Y0115600D01*
X0517287Y0115443D01*
X0517301Y0115285D01*
X0517311Y0115127D01*
X0517317Y0114969D01*
X0517319Y0114811D01*
X0517317Y0114653D01*
X0517311Y0114495D01*
X0517301Y0114337D01*
X0517287Y0114179D01*
X0517269Y0114022D01*
X0517248Y0113865D01*
X0517222Y0113709D01*
X0517192Y0113553D01*
X0517159Y0113398D01*
X0517121Y0113245D01*
X0517080Y0113092D01*
X0517035Y0112940D01*
X0516986Y0112789D01*
X0516933Y0112640D01*
X0516877Y0112492D01*
X0516817Y0112346D01*
X0516753Y0112201D01*
X0516685Y0112058D01*
X0516614Y0111916D01*
X0516540Y0111776D01*
X0516462Y0111639D01*
X0516380Y0111503D01*
X0516296Y0111369D01*
X0516207Y0111238D01*
X0516116Y0111109D01*
X0516021Y0110982D01*
X0515924Y0110857D01*
X0515823Y0110735D01*
X0515719Y0110616D01*
X0515612Y0110499D01*
X0515502Y0110385D01*
X0515389Y0110274D01*
X0515274Y0110165D01*
X0515156Y0110060D01*
X0515035Y0109958D01*
X0514912Y0109858D01*
X0514786Y0109762D01*
X0514658Y0109669D01*
X0514528Y0109579D01*
X0514395Y0109493D01*
X0514260Y0109409D01*
X0514124Y0109330D01*
X0513985Y0109253D01*
X0513844Y0109181D01*
X0513702Y0109111D01*
X0513558Y0109046D01*
X0513412Y0108984D01*
X0513265Y0108926D01*
X0513116Y0108871D01*
X0512966Y0108820D01*
X0512815Y0108773D01*
X0512663Y0108730D01*
X0512510Y0108691D01*
X0512355Y0108655D01*
X0512200Y0108624D01*
X0512044Y0108596D01*
X0511888Y0108572D01*
X0511731Y0108552D01*
X0511573Y0108536D01*
X0511416Y0108524D01*
X0511257Y0108516D01*
X0511099Y0108512D01*
X0510941Y0108512D01*
X0510783Y0108516D01*
X0510624Y0108524D01*
X0510467Y0108536D01*
X0510309Y0108552D01*
X0510152Y0108572D01*
X0509996Y0108596D01*
X0509840Y0108624D01*
X0509685Y0108655D01*
X0509530Y0108691D01*
X0509377Y0108730D01*
X0509225Y0108773D01*
X0509074Y0108820D01*
X0508924Y0108871D01*
X0508775Y0108926D01*
X0508628Y0108984D01*
X0508482Y0109046D01*
X0508338Y0109111D01*
X0508196Y0109181D01*
X0508055Y0109253D01*
X0507916Y0109330D01*
X0507780Y0109409D01*
X0507645Y0109493D01*
X0507512Y0109579D01*
X0507382Y0109669D01*
X0507254Y0109762D01*
X0507128Y0109858D01*
X0507005Y0109958D01*
X0506884Y0110060D01*
X0506766Y0110165D01*
X0506651Y0110274D01*
X0506538Y0110385D01*
X0506428Y0110499D01*
X0506321Y0110616D01*
X0506217Y0110735D01*
X0506116Y0110857D01*
X0506019Y0110982D01*
X0505924Y0111109D01*
X0505833Y0111238D01*
X0505744Y0111369D01*
X0505660Y0111503D01*
X0505578Y0111639D01*
X0505500Y0111776D01*
X0505426Y0111916D01*
X0505355Y0112058D01*
X0505287Y0112201D01*
X0505223Y0112346D01*
X0505163Y0112492D01*
X0505107Y0112640D01*
X0505054Y0112789D01*
X0505005Y0112940D01*
X0504960Y0113092D01*
X0504919Y0113245D01*
X0504881Y0113398D01*
X0504848Y0113553D01*
X0504818Y0113709D01*
X0504792Y0113865D01*
X0504771Y0114022D01*
X0504753Y0114179D01*
X0504739Y0114337D01*
X0504729Y0114495D01*
X0504723Y0114653D01*
X0504721Y0114811D01*
X0640942Y0083315D02*
X0640944Y0083508D01*
X0640951Y0083701D01*
X0640963Y0083894D01*
X0640980Y0084087D01*
X0641001Y0084279D01*
X0641027Y0084470D01*
X0641058Y0084661D01*
X0641093Y0084851D01*
X0641133Y0085040D01*
X0641178Y0085228D01*
X0641227Y0085415D01*
X0641281Y0085601D01*
X0641339Y0085785D01*
X0641402Y0085968D01*
X0641470Y0086149D01*
X0641541Y0086328D01*
X0641618Y0086506D01*
X0641698Y0086682D01*
X0641783Y0086855D01*
X0641872Y0087027D01*
X0641965Y0087196D01*
X0642062Y0087363D01*
X0642164Y0087528D01*
X0642269Y0087690D01*
X0642378Y0087849D01*
X0642492Y0088006D01*
X0642609Y0088159D01*
X0642729Y0088310D01*
X0642854Y0088458D01*
X0642982Y0088603D01*
X0643113Y0088744D01*
X0643248Y0088883D01*
X0643387Y0089018D01*
X0643528Y0089149D01*
X0643673Y0089277D01*
X0643821Y0089402D01*
X0643972Y0089522D01*
X0644125Y0089639D01*
X0644282Y0089753D01*
X0644441Y0089862D01*
X0644603Y0089967D01*
X0644768Y0090069D01*
X0644935Y0090166D01*
X0645104Y0090259D01*
X0645276Y0090348D01*
X0645449Y0090433D01*
X0645625Y0090513D01*
X0645803Y0090590D01*
X0645982Y0090661D01*
X0646163Y0090729D01*
X0646346Y0090792D01*
X0646530Y0090850D01*
X0646716Y0090904D01*
X0646903Y0090953D01*
X0647091Y0090998D01*
X0647280Y0091038D01*
X0647470Y0091073D01*
X0647661Y0091104D01*
X0647852Y0091130D01*
X0648044Y0091151D01*
X0648237Y0091168D01*
X0648430Y0091180D01*
X0648623Y0091187D01*
X0648816Y0091189D01*
X0649009Y0091187D01*
X0649202Y0091180D01*
X0649395Y0091168D01*
X0649588Y0091151D01*
X0649780Y0091130D01*
X0649971Y0091104D01*
X0650162Y0091073D01*
X0650352Y0091038D01*
X0650541Y0090998D01*
X0650729Y0090953D01*
X0650916Y0090904D01*
X0651102Y0090850D01*
X0651286Y0090792D01*
X0651469Y0090729D01*
X0651650Y0090661D01*
X0651829Y0090590D01*
X0652007Y0090513D01*
X0652183Y0090433D01*
X0652356Y0090348D01*
X0652528Y0090259D01*
X0652697Y0090166D01*
X0652864Y0090069D01*
X0653029Y0089967D01*
X0653191Y0089862D01*
X0653350Y0089753D01*
X0653507Y0089639D01*
X0653660Y0089522D01*
X0653811Y0089402D01*
X0653959Y0089277D01*
X0654104Y0089149D01*
X0654245Y0089018D01*
X0654384Y0088883D01*
X0654519Y0088744D01*
X0654650Y0088603D01*
X0654778Y0088458D01*
X0654903Y0088310D01*
X0655023Y0088159D01*
X0655140Y0088006D01*
X0655254Y0087849D01*
X0655363Y0087690D01*
X0655468Y0087528D01*
X0655570Y0087363D01*
X0655667Y0087196D01*
X0655760Y0087027D01*
X0655849Y0086855D01*
X0655934Y0086682D01*
X0656014Y0086506D01*
X0656091Y0086328D01*
X0656162Y0086149D01*
X0656230Y0085968D01*
X0656293Y0085785D01*
X0656351Y0085601D01*
X0656405Y0085415D01*
X0656454Y0085228D01*
X0656499Y0085040D01*
X0656539Y0084851D01*
X0656574Y0084661D01*
X0656605Y0084470D01*
X0656631Y0084279D01*
X0656652Y0084087D01*
X0656669Y0083894D01*
X0656681Y0083701D01*
X0656688Y0083508D01*
X0656690Y0083315D01*
X0656688Y0083122D01*
X0656681Y0082929D01*
X0656669Y0082736D01*
X0656652Y0082543D01*
X0656631Y0082351D01*
X0656605Y0082160D01*
X0656574Y0081969D01*
X0656539Y0081779D01*
X0656499Y0081590D01*
X0656454Y0081402D01*
X0656405Y0081215D01*
X0656351Y0081029D01*
X0656293Y0080845D01*
X0656230Y0080662D01*
X0656162Y0080481D01*
X0656091Y0080302D01*
X0656014Y0080124D01*
X0655934Y0079948D01*
X0655849Y0079775D01*
X0655760Y0079603D01*
X0655667Y0079434D01*
X0655570Y0079267D01*
X0655468Y0079102D01*
X0655363Y0078940D01*
X0655254Y0078781D01*
X0655140Y0078624D01*
X0655023Y0078471D01*
X0654903Y0078320D01*
X0654778Y0078172D01*
X0654650Y0078027D01*
X0654519Y0077886D01*
X0654384Y0077747D01*
X0654245Y0077612D01*
X0654104Y0077481D01*
X0653959Y0077353D01*
X0653811Y0077228D01*
X0653660Y0077108D01*
X0653507Y0076991D01*
X0653350Y0076877D01*
X0653191Y0076768D01*
X0653029Y0076663D01*
X0652864Y0076561D01*
X0652697Y0076464D01*
X0652528Y0076371D01*
X0652356Y0076282D01*
X0652183Y0076197D01*
X0652007Y0076117D01*
X0651829Y0076040D01*
X0651650Y0075969D01*
X0651469Y0075901D01*
X0651286Y0075838D01*
X0651102Y0075780D01*
X0650916Y0075726D01*
X0650729Y0075677D01*
X0650541Y0075632D01*
X0650352Y0075592D01*
X0650162Y0075557D01*
X0649971Y0075526D01*
X0649780Y0075500D01*
X0649588Y0075479D01*
X0649395Y0075462D01*
X0649202Y0075450D01*
X0649009Y0075443D01*
X0648816Y0075441D01*
X0648623Y0075443D01*
X0648430Y0075450D01*
X0648237Y0075462D01*
X0648044Y0075479D01*
X0647852Y0075500D01*
X0647661Y0075526D01*
X0647470Y0075557D01*
X0647280Y0075592D01*
X0647091Y0075632D01*
X0646903Y0075677D01*
X0646716Y0075726D01*
X0646530Y0075780D01*
X0646346Y0075838D01*
X0646163Y0075901D01*
X0645982Y0075969D01*
X0645803Y0076040D01*
X0645625Y0076117D01*
X0645449Y0076197D01*
X0645276Y0076282D01*
X0645104Y0076371D01*
X0644935Y0076464D01*
X0644768Y0076561D01*
X0644603Y0076663D01*
X0644441Y0076768D01*
X0644282Y0076877D01*
X0644125Y0076991D01*
X0643972Y0077108D01*
X0643821Y0077228D01*
X0643673Y0077353D01*
X0643528Y0077481D01*
X0643387Y0077612D01*
X0643248Y0077747D01*
X0643113Y0077886D01*
X0642982Y0078027D01*
X0642854Y0078172D01*
X0642729Y0078320D01*
X0642609Y0078471D01*
X0642492Y0078624D01*
X0642378Y0078781D01*
X0642269Y0078940D01*
X0642164Y0079102D01*
X0642062Y0079267D01*
X0641965Y0079434D01*
X0641872Y0079603D01*
X0641783Y0079775D01*
X0641698Y0079948D01*
X0641618Y0080124D01*
X0641541Y0080302D01*
X0641470Y0080481D01*
X0641402Y0080662D01*
X0641339Y0080845D01*
X0641281Y0081029D01*
X0641227Y0081215D01*
X0641178Y0081402D01*
X0641133Y0081590D01*
X0641093Y0081779D01*
X0641058Y0081969D01*
X0641027Y0082160D01*
X0641001Y0082351D01*
X0640980Y0082543D01*
X0640963Y0082736D01*
X0640951Y0082929D01*
X0640944Y0083122D01*
X0640942Y0083315D01*
X0311808Y0114811D02*
X0311810Y0114969D01*
X0311816Y0115127D01*
X0311826Y0115285D01*
X0311840Y0115443D01*
X0311858Y0115600D01*
X0311879Y0115757D01*
X0311905Y0115913D01*
X0311935Y0116069D01*
X0311968Y0116224D01*
X0312006Y0116377D01*
X0312047Y0116530D01*
X0312092Y0116682D01*
X0312141Y0116833D01*
X0312194Y0116982D01*
X0312250Y0117130D01*
X0312310Y0117276D01*
X0312374Y0117421D01*
X0312442Y0117564D01*
X0312513Y0117706D01*
X0312587Y0117846D01*
X0312665Y0117983D01*
X0312747Y0118119D01*
X0312831Y0118253D01*
X0312920Y0118384D01*
X0313011Y0118513D01*
X0313106Y0118640D01*
X0313203Y0118765D01*
X0313304Y0118887D01*
X0313408Y0119006D01*
X0313515Y0119123D01*
X0313625Y0119237D01*
X0313738Y0119348D01*
X0313853Y0119457D01*
X0313971Y0119562D01*
X0314092Y0119664D01*
X0314215Y0119764D01*
X0314341Y0119860D01*
X0314469Y0119953D01*
X0314599Y0120043D01*
X0314732Y0120129D01*
X0314867Y0120213D01*
X0315003Y0120292D01*
X0315142Y0120369D01*
X0315283Y0120441D01*
X0315425Y0120511D01*
X0315569Y0120576D01*
X0315715Y0120638D01*
X0315862Y0120696D01*
X0316011Y0120751D01*
X0316161Y0120802D01*
X0316312Y0120849D01*
X0316464Y0120892D01*
X0316617Y0120931D01*
X0316772Y0120967D01*
X0316927Y0120998D01*
X0317083Y0121026D01*
X0317239Y0121050D01*
X0317396Y0121070D01*
X0317554Y0121086D01*
X0317711Y0121098D01*
X0317870Y0121106D01*
X0318028Y0121110D01*
X0318186Y0121110D01*
X0318344Y0121106D01*
X0318503Y0121098D01*
X0318660Y0121086D01*
X0318818Y0121070D01*
X0318975Y0121050D01*
X0319131Y0121026D01*
X0319287Y0120998D01*
X0319442Y0120967D01*
X0319597Y0120931D01*
X0319750Y0120892D01*
X0319902Y0120849D01*
X0320053Y0120802D01*
X0320203Y0120751D01*
X0320352Y0120696D01*
X0320499Y0120638D01*
X0320645Y0120576D01*
X0320789Y0120511D01*
X0320931Y0120441D01*
X0321072Y0120369D01*
X0321211Y0120292D01*
X0321347Y0120213D01*
X0321482Y0120129D01*
X0321615Y0120043D01*
X0321745Y0119953D01*
X0321873Y0119860D01*
X0321999Y0119764D01*
X0322122Y0119664D01*
X0322243Y0119562D01*
X0322361Y0119457D01*
X0322476Y0119348D01*
X0322589Y0119237D01*
X0322699Y0119123D01*
X0322806Y0119006D01*
X0322910Y0118887D01*
X0323011Y0118765D01*
X0323108Y0118640D01*
X0323203Y0118513D01*
X0323294Y0118384D01*
X0323383Y0118253D01*
X0323467Y0118119D01*
X0323549Y0117983D01*
X0323627Y0117846D01*
X0323701Y0117706D01*
X0323772Y0117564D01*
X0323840Y0117421D01*
X0323904Y0117276D01*
X0323964Y0117130D01*
X0324020Y0116982D01*
X0324073Y0116833D01*
X0324122Y0116682D01*
X0324167Y0116530D01*
X0324208Y0116377D01*
X0324246Y0116224D01*
X0324279Y0116069D01*
X0324309Y0115913D01*
X0324335Y0115757D01*
X0324356Y0115600D01*
X0324374Y0115443D01*
X0324388Y0115285D01*
X0324398Y0115127D01*
X0324404Y0114969D01*
X0324406Y0114811D01*
X0324404Y0114653D01*
X0324398Y0114495D01*
X0324388Y0114337D01*
X0324374Y0114179D01*
X0324356Y0114022D01*
X0324335Y0113865D01*
X0324309Y0113709D01*
X0324279Y0113553D01*
X0324246Y0113398D01*
X0324208Y0113245D01*
X0324167Y0113092D01*
X0324122Y0112940D01*
X0324073Y0112789D01*
X0324020Y0112640D01*
X0323964Y0112492D01*
X0323904Y0112346D01*
X0323840Y0112201D01*
X0323772Y0112058D01*
X0323701Y0111916D01*
X0323627Y0111776D01*
X0323549Y0111639D01*
X0323467Y0111503D01*
X0323383Y0111369D01*
X0323294Y0111238D01*
X0323203Y0111109D01*
X0323108Y0110982D01*
X0323011Y0110857D01*
X0322910Y0110735D01*
X0322806Y0110616D01*
X0322699Y0110499D01*
X0322589Y0110385D01*
X0322476Y0110274D01*
X0322361Y0110165D01*
X0322243Y0110060D01*
X0322122Y0109958D01*
X0321999Y0109858D01*
X0321873Y0109762D01*
X0321745Y0109669D01*
X0321615Y0109579D01*
X0321482Y0109493D01*
X0321347Y0109409D01*
X0321211Y0109330D01*
X0321072Y0109253D01*
X0320931Y0109181D01*
X0320789Y0109111D01*
X0320645Y0109046D01*
X0320499Y0108984D01*
X0320352Y0108926D01*
X0320203Y0108871D01*
X0320053Y0108820D01*
X0319902Y0108773D01*
X0319750Y0108730D01*
X0319597Y0108691D01*
X0319442Y0108655D01*
X0319287Y0108624D01*
X0319131Y0108596D01*
X0318975Y0108572D01*
X0318818Y0108552D01*
X0318660Y0108536D01*
X0318503Y0108524D01*
X0318344Y0108516D01*
X0318186Y0108512D01*
X0318028Y0108512D01*
X0317870Y0108516D01*
X0317711Y0108524D01*
X0317554Y0108536D01*
X0317396Y0108552D01*
X0317239Y0108572D01*
X0317083Y0108596D01*
X0316927Y0108624D01*
X0316772Y0108655D01*
X0316617Y0108691D01*
X0316464Y0108730D01*
X0316312Y0108773D01*
X0316161Y0108820D01*
X0316011Y0108871D01*
X0315862Y0108926D01*
X0315715Y0108984D01*
X0315569Y0109046D01*
X0315425Y0109111D01*
X0315283Y0109181D01*
X0315142Y0109253D01*
X0315003Y0109330D01*
X0314867Y0109409D01*
X0314732Y0109493D01*
X0314599Y0109579D01*
X0314469Y0109669D01*
X0314341Y0109762D01*
X0314215Y0109858D01*
X0314092Y0109958D01*
X0313971Y0110060D01*
X0313853Y0110165D01*
X0313738Y0110274D01*
X0313625Y0110385D01*
X0313515Y0110499D01*
X0313408Y0110616D01*
X0313304Y0110735D01*
X0313203Y0110857D01*
X0313106Y0110982D01*
X0313011Y0111109D01*
X0312920Y0111238D01*
X0312831Y0111369D01*
X0312747Y0111503D01*
X0312665Y0111639D01*
X0312587Y0111776D01*
X0312513Y0111916D01*
X0312442Y0112058D01*
X0312374Y0112201D01*
X0312310Y0112346D01*
X0312250Y0112492D01*
X0312194Y0112640D01*
X0312141Y0112789D01*
X0312092Y0112940D01*
X0312047Y0113092D01*
X0312006Y0113245D01*
X0311968Y0113398D01*
X0311935Y0113553D01*
X0311905Y0113709D01*
X0311879Y0113865D01*
X0311858Y0114022D01*
X0311840Y0114179D01*
X0311826Y0114337D01*
X0311816Y0114495D01*
X0311810Y0114653D01*
X0311808Y0114811D01*
X0278737Y0083315D02*
X0278739Y0083508D01*
X0278746Y0083701D01*
X0278758Y0083894D01*
X0278775Y0084087D01*
X0278796Y0084279D01*
X0278822Y0084470D01*
X0278853Y0084661D01*
X0278888Y0084851D01*
X0278928Y0085040D01*
X0278973Y0085228D01*
X0279022Y0085415D01*
X0279076Y0085601D01*
X0279134Y0085785D01*
X0279197Y0085968D01*
X0279265Y0086149D01*
X0279336Y0086328D01*
X0279413Y0086506D01*
X0279493Y0086682D01*
X0279578Y0086855D01*
X0279667Y0087027D01*
X0279760Y0087196D01*
X0279857Y0087363D01*
X0279959Y0087528D01*
X0280064Y0087690D01*
X0280173Y0087849D01*
X0280287Y0088006D01*
X0280404Y0088159D01*
X0280524Y0088310D01*
X0280649Y0088458D01*
X0280777Y0088603D01*
X0280908Y0088744D01*
X0281043Y0088883D01*
X0281182Y0089018D01*
X0281323Y0089149D01*
X0281468Y0089277D01*
X0281616Y0089402D01*
X0281767Y0089522D01*
X0281920Y0089639D01*
X0282077Y0089753D01*
X0282236Y0089862D01*
X0282398Y0089967D01*
X0282563Y0090069D01*
X0282730Y0090166D01*
X0282899Y0090259D01*
X0283071Y0090348D01*
X0283244Y0090433D01*
X0283420Y0090513D01*
X0283598Y0090590D01*
X0283777Y0090661D01*
X0283958Y0090729D01*
X0284141Y0090792D01*
X0284325Y0090850D01*
X0284511Y0090904D01*
X0284698Y0090953D01*
X0284886Y0090998D01*
X0285075Y0091038D01*
X0285265Y0091073D01*
X0285456Y0091104D01*
X0285647Y0091130D01*
X0285839Y0091151D01*
X0286032Y0091168D01*
X0286225Y0091180D01*
X0286418Y0091187D01*
X0286611Y0091189D01*
X0286804Y0091187D01*
X0286997Y0091180D01*
X0287190Y0091168D01*
X0287383Y0091151D01*
X0287575Y0091130D01*
X0287766Y0091104D01*
X0287957Y0091073D01*
X0288147Y0091038D01*
X0288336Y0090998D01*
X0288524Y0090953D01*
X0288711Y0090904D01*
X0288897Y0090850D01*
X0289081Y0090792D01*
X0289264Y0090729D01*
X0289445Y0090661D01*
X0289624Y0090590D01*
X0289802Y0090513D01*
X0289978Y0090433D01*
X0290151Y0090348D01*
X0290323Y0090259D01*
X0290492Y0090166D01*
X0290659Y0090069D01*
X0290824Y0089967D01*
X0290986Y0089862D01*
X0291145Y0089753D01*
X0291302Y0089639D01*
X0291455Y0089522D01*
X0291606Y0089402D01*
X0291754Y0089277D01*
X0291899Y0089149D01*
X0292040Y0089018D01*
X0292179Y0088883D01*
X0292314Y0088744D01*
X0292445Y0088603D01*
X0292573Y0088458D01*
X0292698Y0088310D01*
X0292818Y0088159D01*
X0292935Y0088006D01*
X0293049Y0087849D01*
X0293158Y0087690D01*
X0293263Y0087528D01*
X0293365Y0087363D01*
X0293462Y0087196D01*
X0293555Y0087027D01*
X0293644Y0086855D01*
X0293729Y0086682D01*
X0293809Y0086506D01*
X0293886Y0086328D01*
X0293957Y0086149D01*
X0294025Y0085968D01*
X0294088Y0085785D01*
X0294146Y0085601D01*
X0294200Y0085415D01*
X0294249Y0085228D01*
X0294294Y0085040D01*
X0294334Y0084851D01*
X0294369Y0084661D01*
X0294400Y0084470D01*
X0294426Y0084279D01*
X0294447Y0084087D01*
X0294464Y0083894D01*
X0294476Y0083701D01*
X0294483Y0083508D01*
X0294485Y0083315D01*
X0294483Y0083122D01*
X0294476Y0082929D01*
X0294464Y0082736D01*
X0294447Y0082543D01*
X0294426Y0082351D01*
X0294400Y0082160D01*
X0294369Y0081969D01*
X0294334Y0081779D01*
X0294294Y0081590D01*
X0294249Y0081402D01*
X0294200Y0081215D01*
X0294146Y0081029D01*
X0294088Y0080845D01*
X0294025Y0080662D01*
X0293957Y0080481D01*
X0293886Y0080302D01*
X0293809Y0080124D01*
X0293729Y0079948D01*
X0293644Y0079775D01*
X0293555Y0079603D01*
X0293462Y0079434D01*
X0293365Y0079267D01*
X0293263Y0079102D01*
X0293158Y0078940D01*
X0293049Y0078781D01*
X0292935Y0078624D01*
X0292818Y0078471D01*
X0292698Y0078320D01*
X0292573Y0078172D01*
X0292445Y0078027D01*
X0292314Y0077886D01*
X0292179Y0077747D01*
X0292040Y0077612D01*
X0291899Y0077481D01*
X0291754Y0077353D01*
X0291606Y0077228D01*
X0291455Y0077108D01*
X0291302Y0076991D01*
X0291145Y0076877D01*
X0290986Y0076768D01*
X0290824Y0076663D01*
X0290659Y0076561D01*
X0290492Y0076464D01*
X0290323Y0076371D01*
X0290151Y0076282D01*
X0289978Y0076197D01*
X0289802Y0076117D01*
X0289624Y0076040D01*
X0289445Y0075969D01*
X0289264Y0075901D01*
X0289081Y0075838D01*
X0288897Y0075780D01*
X0288711Y0075726D01*
X0288524Y0075677D01*
X0288336Y0075632D01*
X0288147Y0075592D01*
X0287957Y0075557D01*
X0287766Y0075526D01*
X0287575Y0075500D01*
X0287383Y0075479D01*
X0287190Y0075462D01*
X0286997Y0075450D01*
X0286804Y0075443D01*
X0286611Y0075441D01*
X0286418Y0075443D01*
X0286225Y0075450D01*
X0286032Y0075462D01*
X0285839Y0075479D01*
X0285647Y0075500D01*
X0285456Y0075526D01*
X0285265Y0075557D01*
X0285075Y0075592D01*
X0284886Y0075632D01*
X0284698Y0075677D01*
X0284511Y0075726D01*
X0284325Y0075780D01*
X0284141Y0075838D01*
X0283958Y0075901D01*
X0283777Y0075969D01*
X0283598Y0076040D01*
X0283420Y0076117D01*
X0283244Y0076197D01*
X0283071Y0076282D01*
X0282899Y0076371D01*
X0282730Y0076464D01*
X0282563Y0076561D01*
X0282398Y0076663D01*
X0282236Y0076768D01*
X0282077Y0076877D01*
X0281920Y0076991D01*
X0281767Y0077108D01*
X0281616Y0077228D01*
X0281468Y0077353D01*
X0281323Y0077481D01*
X0281182Y0077612D01*
X0281043Y0077747D01*
X0280908Y0077886D01*
X0280777Y0078027D01*
X0280649Y0078172D01*
X0280524Y0078320D01*
X0280404Y0078471D01*
X0280287Y0078624D01*
X0280173Y0078781D01*
X0280064Y0078940D01*
X0279959Y0079102D01*
X0279857Y0079267D01*
X0279760Y0079434D01*
X0279667Y0079603D01*
X0279578Y0079775D01*
X0279493Y0079948D01*
X0279413Y0080124D01*
X0279336Y0080302D01*
X0279265Y0080481D01*
X0279197Y0080662D01*
X0279134Y0080845D01*
X0279076Y0081029D01*
X0279022Y0081215D01*
X0278973Y0081402D01*
X0278928Y0081590D01*
X0278888Y0081779D01*
X0278853Y0081969D01*
X0278822Y0082160D01*
X0278796Y0082351D01*
X0278775Y0082543D01*
X0278758Y0082736D01*
X0278746Y0082929D01*
X0278739Y0083122D01*
X0278737Y0083315D01*
D12*
X0683055Y0084009D02*
X0687325Y0084009D01*
X0689460Y0086144D01*
X0687325Y0088279D01*
X0683055Y0088279D01*
X0686258Y0090454D02*
X0686258Y0094724D01*
X0688393Y0096900D02*
X0689460Y0097967D01*
X0689460Y0100102D01*
X0688393Y0101170D01*
X0688393Y0103345D02*
X0689460Y0104413D01*
X0689460Y0106548D01*
X0688393Y0107615D01*
X0683055Y0107615D01*
X0683055Y0109791D02*
X0683055Y0114061D01*
X0683055Y0111926D02*
X0689460Y0111926D01*
X0688393Y0103345D02*
X0683055Y0103345D01*
X0684123Y0101170D02*
X0683055Y0100102D01*
X0683055Y0097967D01*
X0684123Y0096900D01*
X0688393Y0096900D01*
X0687325Y0371410D02*
X0683055Y0371410D01*
X0687325Y0371410D02*
X0689460Y0373545D01*
X0687325Y0375681D01*
X0683055Y0375681D01*
X0686258Y0377856D02*
X0686258Y0382126D01*
X0684123Y0384301D02*
X0688393Y0384301D01*
X0689460Y0385369D01*
X0689460Y0387504D01*
X0688393Y0388572D01*
X0688393Y0390747D02*
X0683055Y0390747D01*
X0684123Y0388572D02*
X0683055Y0387504D01*
X0683055Y0385369D01*
X0684123Y0384301D01*
X0688393Y0390747D02*
X0689460Y0391814D01*
X0689460Y0393949D01*
X0688393Y0395017D01*
X0683055Y0395017D01*
X0683055Y0397192D02*
X0683055Y0401463D01*
X0683055Y0399327D02*
X0689460Y0399327D01*
D13*
X0670469Y0390795D02*
X0666138Y0386465D01*
X0681099Y0386465D01*
X0670469Y0382134D02*
X0670469Y0390795D01*
X0666138Y0386465D02*
X0670469Y0382134D01*
X0670469Y0103394D02*
X0666138Y0099063D01*
X0681099Y0099063D01*
X0670469Y0094732D02*
X0670469Y0103394D01*
X0666138Y0099063D02*
X0670469Y0094732D01*
D14*
X0637005Y0114811D02*
X0637005Y0134890D01*
X0637005Y0350638D01*
X0637005Y0370717D01*
X0636999Y0371193D01*
X0636982Y0371668D01*
X0636953Y0372143D01*
X0636913Y0372617D01*
X0636861Y0373090D01*
X0636798Y0373561D01*
X0636724Y0374031D01*
X0636638Y0374499D01*
X0636541Y0374965D01*
X0636433Y0375428D01*
X0636314Y0375888D01*
X0636183Y0376346D01*
X0636042Y0376800D01*
X0635889Y0377251D01*
X0635726Y0377697D01*
X0635552Y0378140D01*
X0635367Y0378578D01*
X0635172Y0379012D01*
X0634966Y0379441D01*
X0634750Y0379865D01*
X0634524Y0380284D01*
X0634288Y0380697D01*
X0634042Y0381104D01*
X0633786Y0381505D01*
X0633520Y0381899D01*
X0633245Y0382288D01*
X0632961Y0382669D01*
X0632668Y0383043D01*
X0632366Y0383411D01*
X0632054Y0383771D01*
X0631735Y0384123D01*
X0631407Y0384467D01*
X0631070Y0384804D01*
X0630726Y0385132D01*
X0630374Y0385451D01*
X0630014Y0385763D01*
X0629646Y0386065D01*
X0629272Y0386358D01*
X0628891Y0386642D01*
X0628502Y0386917D01*
X0628108Y0387183D01*
X0627707Y0387439D01*
X0627300Y0387685D01*
X0626887Y0387921D01*
X0626468Y0388147D01*
X0626044Y0388363D01*
X0625615Y0388569D01*
X0625181Y0388764D01*
X0624743Y0388949D01*
X0624300Y0389123D01*
X0623854Y0389286D01*
X0623403Y0389439D01*
X0622949Y0389580D01*
X0622491Y0389711D01*
X0622031Y0389830D01*
X0621568Y0389938D01*
X0621102Y0390035D01*
X0620634Y0390121D01*
X0620164Y0390195D01*
X0619693Y0390258D01*
X0619220Y0390310D01*
X0618746Y0390350D01*
X0618271Y0390379D01*
X0617796Y0390396D01*
X0617320Y0390402D01*
X0597241Y0390402D01*
X0570469Y0390402D02*
X0550390Y0390402D01*
X0530705Y0390402D01*
X0530705Y0370717D01*
X0530705Y0350638D01*
X0530705Y0370717D01*
X0530699Y0371193D01*
X0530682Y0371668D01*
X0530653Y0372143D01*
X0530613Y0372617D01*
X0530561Y0373090D01*
X0530498Y0373561D01*
X0530424Y0374031D01*
X0530338Y0374499D01*
X0530241Y0374965D01*
X0530133Y0375428D01*
X0530014Y0375888D01*
X0529883Y0376346D01*
X0529742Y0376800D01*
X0529589Y0377251D01*
X0529426Y0377697D01*
X0529252Y0378140D01*
X0529067Y0378578D01*
X0528872Y0379012D01*
X0528666Y0379441D01*
X0528450Y0379865D01*
X0528224Y0380284D01*
X0527988Y0380697D01*
X0527742Y0381104D01*
X0527486Y0381505D01*
X0527220Y0381899D01*
X0526945Y0382288D01*
X0526661Y0382669D01*
X0526368Y0383043D01*
X0526066Y0383411D01*
X0525754Y0383771D01*
X0525435Y0384123D01*
X0525107Y0384467D01*
X0524770Y0384804D01*
X0524426Y0385132D01*
X0524074Y0385451D01*
X0523714Y0385763D01*
X0523346Y0386065D01*
X0522972Y0386358D01*
X0522591Y0386642D01*
X0522202Y0386917D01*
X0521808Y0387183D01*
X0521407Y0387439D01*
X0521000Y0387685D01*
X0520587Y0387921D01*
X0520168Y0388147D01*
X0519744Y0388363D01*
X0519315Y0388569D01*
X0518881Y0388764D01*
X0518443Y0388949D01*
X0518000Y0389123D01*
X0517554Y0389286D01*
X0517103Y0389439D01*
X0516649Y0389580D01*
X0516191Y0389711D01*
X0515731Y0389830D01*
X0515268Y0389938D01*
X0514802Y0390035D01*
X0514334Y0390121D01*
X0513864Y0390195D01*
X0513393Y0390258D01*
X0512920Y0390310D01*
X0512446Y0390350D01*
X0511971Y0390379D01*
X0511496Y0390396D01*
X0511020Y0390402D01*
X0490942Y0390402D01*
X0511020Y0390402D02*
X0530705Y0390402D01*
X0550390Y0390402D02*
X0549914Y0390396D01*
X0549439Y0390379D01*
X0548964Y0390350D01*
X0548490Y0390310D01*
X0548017Y0390258D01*
X0547546Y0390195D01*
X0547076Y0390121D01*
X0546608Y0390035D01*
X0546142Y0389938D01*
X0545679Y0389830D01*
X0545219Y0389711D01*
X0544761Y0389580D01*
X0544307Y0389439D01*
X0543856Y0389286D01*
X0543410Y0389123D01*
X0542967Y0388949D01*
X0542529Y0388764D01*
X0542095Y0388569D01*
X0541666Y0388363D01*
X0541242Y0388147D01*
X0540823Y0387921D01*
X0540410Y0387685D01*
X0540003Y0387439D01*
X0539602Y0387183D01*
X0539208Y0386917D01*
X0538819Y0386642D01*
X0538438Y0386358D01*
X0538064Y0386065D01*
X0537696Y0385763D01*
X0537336Y0385451D01*
X0536984Y0385132D01*
X0536640Y0384804D01*
X0536303Y0384467D01*
X0535975Y0384123D01*
X0535656Y0383771D01*
X0535344Y0383411D01*
X0535042Y0383043D01*
X0534749Y0382669D01*
X0534465Y0382288D01*
X0534190Y0381899D01*
X0533924Y0381505D01*
X0533668Y0381104D01*
X0533422Y0380697D01*
X0533186Y0380284D01*
X0532960Y0379865D01*
X0532744Y0379441D01*
X0532538Y0379012D01*
X0532343Y0378578D01*
X0532158Y0378140D01*
X0531984Y0377697D01*
X0531821Y0377251D01*
X0531668Y0376800D01*
X0531527Y0376346D01*
X0531396Y0375888D01*
X0531277Y0375428D01*
X0531169Y0374965D01*
X0531072Y0374499D01*
X0530986Y0374031D01*
X0530912Y0373561D01*
X0530849Y0373090D01*
X0530797Y0372617D01*
X0530757Y0372143D01*
X0530728Y0371668D01*
X0530711Y0371193D01*
X0530705Y0370717D01*
X0530705Y0351819D02*
X0582674Y0351819D01*
X0582674Y0322685D01*
X0530705Y0322685D01*
X0530705Y0134890D01*
X0530705Y0114811D01*
X0530705Y0134890D01*
X0530705Y0114811D02*
X0530705Y0095126D01*
X0550390Y0095126D01*
X0570469Y0095126D01*
X0597241Y0095126D02*
X0617320Y0095126D01*
X0617796Y0095132D01*
X0618271Y0095149D01*
X0618746Y0095178D01*
X0619220Y0095218D01*
X0619693Y0095270D01*
X0620164Y0095333D01*
X0620634Y0095407D01*
X0621102Y0095493D01*
X0621568Y0095590D01*
X0622031Y0095698D01*
X0622491Y0095817D01*
X0622949Y0095948D01*
X0623403Y0096089D01*
X0623854Y0096242D01*
X0624300Y0096405D01*
X0624743Y0096579D01*
X0625181Y0096764D01*
X0625615Y0096959D01*
X0626044Y0097165D01*
X0626468Y0097381D01*
X0626887Y0097607D01*
X0627300Y0097843D01*
X0627707Y0098089D01*
X0628108Y0098345D01*
X0628502Y0098611D01*
X0628891Y0098886D01*
X0629272Y0099170D01*
X0629646Y0099463D01*
X0630014Y0099765D01*
X0630374Y0100077D01*
X0630726Y0100396D01*
X0631070Y0100724D01*
X0631407Y0101061D01*
X0631735Y0101405D01*
X0632054Y0101757D01*
X0632366Y0102117D01*
X0632668Y0102485D01*
X0632961Y0102859D01*
X0633245Y0103240D01*
X0633520Y0103629D01*
X0633786Y0104023D01*
X0634042Y0104424D01*
X0634288Y0104831D01*
X0634524Y0105244D01*
X0634750Y0105663D01*
X0634966Y0106087D01*
X0635172Y0106516D01*
X0635367Y0106950D01*
X0635552Y0107388D01*
X0635726Y0107831D01*
X0635889Y0108277D01*
X0636042Y0108728D01*
X0636183Y0109182D01*
X0636314Y0109640D01*
X0636433Y0110100D01*
X0636541Y0110563D01*
X0636638Y0111029D01*
X0636724Y0111497D01*
X0636798Y0111967D01*
X0636861Y0112438D01*
X0636913Y0112911D01*
X0636953Y0113385D01*
X0636982Y0113860D01*
X0636999Y0114335D01*
X0637005Y0114811D01*
X0550390Y0095126D02*
X0549914Y0095132D01*
X0549439Y0095149D01*
X0548964Y0095178D01*
X0548490Y0095218D01*
X0548017Y0095270D01*
X0547546Y0095333D01*
X0547076Y0095407D01*
X0546608Y0095493D01*
X0546142Y0095590D01*
X0545679Y0095698D01*
X0545219Y0095817D01*
X0544761Y0095948D01*
X0544307Y0096089D01*
X0543856Y0096242D01*
X0543410Y0096405D01*
X0542967Y0096579D01*
X0542529Y0096764D01*
X0542095Y0096959D01*
X0541666Y0097165D01*
X0541242Y0097381D01*
X0540823Y0097607D01*
X0540410Y0097843D01*
X0540003Y0098089D01*
X0539602Y0098345D01*
X0539208Y0098611D01*
X0538819Y0098886D01*
X0538438Y0099170D01*
X0538064Y0099463D01*
X0537696Y0099765D01*
X0537336Y0100077D01*
X0536984Y0100396D01*
X0536640Y0100724D01*
X0536303Y0101061D01*
X0535975Y0101405D01*
X0535656Y0101757D01*
X0535344Y0102117D01*
X0535042Y0102485D01*
X0534749Y0102859D01*
X0534465Y0103240D01*
X0534190Y0103629D01*
X0533924Y0104023D01*
X0533668Y0104424D01*
X0533422Y0104831D01*
X0533186Y0105244D01*
X0532960Y0105663D01*
X0532744Y0106087D01*
X0532538Y0106516D01*
X0532343Y0106950D01*
X0532158Y0107388D01*
X0531984Y0107831D01*
X0531821Y0108277D01*
X0531668Y0108728D01*
X0531527Y0109182D01*
X0531396Y0109640D01*
X0531277Y0110100D01*
X0531169Y0110563D01*
X0531072Y0111029D01*
X0530986Y0111497D01*
X0530912Y0111967D01*
X0530849Y0112438D01*
X0530797Y0112911D01*
X0530757Y0113385D01*
X0530728Y0113860D01*
X0530711Y0114335D01*
X0530705Y0114811D01*
X0530699Y0114335D01*
X0530682Y0113860D01*
X0530653Y0113385D01*
X0530613Y0112911D01*
X0530561Y0112438D01*
X0530498Y0111967D01*
X0530424Y0111497D01*
X0530338Y0111029D01*
X0530241Y0110563D01*
X0530133Y0110100D01*
X0530014Y0109640D01*
X0529883Y0109182D01*
X0529742Y0108728D01*
X0529589Y0108277D01*
X0529426Y0107831D01*
X0529252Y0107388D01*
X0529067Y0106950D01*
X0528872Y0106516D01*
X0528666Y0106087D01*
X0528450Y0105663D01*
X0528224Y0105244D01*
X0527988Y0104831D01*
X0527742Y0104424D01*
X0527486Y0104023D01*
X0527220Y0103629D01*
X0526945Y0103240D01*
X0526661Y0102859D01*
X0526368Y0102485D01*
X0526066Y0102117D01*
X0525754Y0101757D01*
X0525435Y0101405D01*
X0525107Y0101061D01*
X0524770Y0100724D01*
X0524426Y0100396D01*
X0524074Y0100077D01*
X0523714Y0099765D01*
X0523346Y0099463D01*
X0522972Y0099170D01*
X0522591Y0098886D01*
X0522202Y0098611D01*
X0521808Y0098345D01*
X0521407Y0098089D01*
X0521000Y0097843D01*
X0520587Y0097607D01*
X0520168Y0097381D01*
X0519744Y0097165D01*
X0519315Y0096959D01*
X0518881Y0096764D01*
X0518443Y0096579D01*
X0518000Y0096405D01*
X0517554Y0096242D01*
X0517103Y0096089D01*
X0516649Y0095948D01*
X0516191Y0095817D01*
X0515731Y0095698D01*
X0515268Y0095590D01*
X0514802Y0095493D01*
X0514334Y0095407D01*
X0513864Y0095333D01*
X0513393Y0095270D01*
X0512920Y0095218D01*
X0512446Y0095178D01*
X0511971Y0095149D01*
X0511496Y0095132D01*
X0511020Y0095126D01*
X0490942Y0095126D01*
X0511020Y0095126D02*
X0530705Y0095126D01*
X0338186Y0095126D02*
X0318107Y0095126D01*
X0317631Y0095132D01*
X0317156Y0095149D01*
X0316681Y0095178D01*
X0316207Y0095218D01*
X0315734Y0095270D01*
X0315263Y0095333D01*
X0314793Y0095407D01*
X0314325Y0095493D01*
X0313859Y0095590D01*
X0313396Y0095698D01*
X0312936Y0095817D01*
X0312478Y0095948D01*
X0312024Y0096089D01*
X0311573Y0096242D01*
X0311127Y0096405D01*
X0310684Y0096579D01*
X0310246Y0096764D01*
X0309812Y0096959D01*
X0309383Y0097165D01*
X0308959Y0097381D01*
X0308540Y0097607D01*
X0308127Y0097843D01*
X0307720Y0098089D01*
X0307319Y0098345D01*
X0306925Y0098611D01*
X0306536Y0098886D01*
X0306155Y0099170D01*
X0305781Y0099463D01*
X0305413Y0099765D01*
X0305053Y0100077D01*
X0304701Y0100396D01*
X0304357Y0100724D01*
X0304020Y0101061D01*
X0303692Y0101405D01*
X0303373Y0101757D01*
X0303061Y0102117D01*
X0302759Y0102485D01*
X0302466Y0102859D01*
X0302182Y0103240D01*
X0301907Y0103629D01*
X0301641Y0104023D01*
X0301385Y0104424D01*
X0301139Y0104831D01*
X0300903Y0105244D01*
X0300677Y0105663D01*
X0300461Y0106087D01*
X0300255Y0106516D01*
X0300060Y0106950D01*
X0299875Y0107388D01*
X0299701Y0107831D01*
X0299538Y0108277D01*
X0299385Y0108728D01*
X0299244Y0109182D01*
X0299113Y0109640D01*
X0298994Y0110100D01*
X0298886Y0110563D01*
X0298789Y0111029D01*
X0298703Y0111497D01*
X0298629Y0111967D01*
X0298566Y0112438D01*
X0298514Y0112911D01*
X0298474Y0113385D01*
X0298445Y0113860D01*
X0298428Y0114335D01*
X0298422Y0114811D01*
X0298422Y0134890D01*
X0298422Y0350638D01*
X0298422Y0370717D01*
X0298428Y0371193D01*
X0298445Y0371668D01*
X0298474Y0372143D01*
X0298514Y0372617D01*
X0298566Y0373090D01*
X0298629Y0373561D01*
X0298703Y0374031D01*
X0298789Y0374499D01*
X0298886Y0374965D01*
X0298994Y0375428D01*
X0299113Y0375888D01*
X0299244Y0376346D01*
X0299385Y0376800D01*
X0299538Y0377251D01*
X0299701Y0377697D01*
X0299875Y0378140D01*
X0300060Y0378578D01*
X0300255Y0379012D01*
X0300461Y0379441D01*
X0300677Y0379865D01*
X0300903Y0380284D01*
X0301139Y0380697D01*
X0301385Y0381104D01*
X0301641Y0381505D01*
X0301907Y0381899D01*
X0302182Y0382288D01*
X0302466Y0382669D01*
X0302759Y0383043D01*
X0303061Y0383411D01*
X0303373Y0383771D01*
X0303692Y0384123D01*
X0304020Y0384467D01*
X0304357Y0384804D01*
X0304701Y0385132D01*
X0305053Y0385451D01*
X0305413Y0385763D01*
X0305781Y0386065D01*
X0306155Y0386358D01*
X0306536Y0386642D01*
X0306925Y0386917D01*
X0307319Y0387183D01*
X0307720Y0387439D01*
X0308127Y0387685D01*
X0308540Y0387921D01*
X0308959Y0388147D01*
X0309383Y0388363D01*
X0309812Y0388569D01*
X0310246Y0388764D01*
X0310684Y0388949D01*
X0311127Y0389123D01*
X0311573Y0389286D01*
X0312024Y0389439D01*
X0312478Y0389580D01*
X0312936Y0389711D01*
X0313396Y0389830D01*
X0313859Y0389938D01*
X0314325Y0390035D01*
X0314793Y0390121D01*
X0315263Y0390195D01*
X0315734Y0390258D01*
X0316207Y0390310D01*
X0316681Y0390350D01*
X0317156Y0390379D01*
X0317631Y0390396D01*
X0318107Y0390402D01*
X0338186Y0390402D01*
X0530705Y0351819D02*
X0530705Y0322685D01*
D15*
X0509874Y0298988D02*
X0509961Y0298901D01*
X0510017Y0298791D01*
X0510036Y0298669D01*
X0510017Y0298548D01*
X0509961Y0298438D01*
X0509874Y0298351D01*
X0509764Y0298295D01*
X0509642Y0298276D01*
X0508855Y0298276D01*
X0508733Y0298295D01*
X0508624Y0298351D01*
X0508536Y0298438D01*
X0508481Y0298548D01*
X0508461Y0298669D01*
X0508481Y0298791D01*
X0508536Y0298901D01*
X0508624Y0298988D01*
X0508733Y0299044D01*
X0508855Y0299063D01*
X0509642Y0299063D01*
X0509764Y0299044D01*
X0509874Y0298988D01*
X0509642Y0281740D02*
X0509764Y0281721D01*
X0509874Y0281665D01*
X0509961Y0281578D01*
X0510017Y0281468D01*
X0510036Y0281346D01*
X0510017Y0281225D01*
X0509961Y0281115D01*
X0509874Y0281028D01*
X0509764Y0280972D01*
X0509642Y0280953D01*
X0508855Y0280953D01*
X0508733Y0280972D01*
X0508624Y0281028D01*
X0508536Y0281115D01*
X0508481Y0281225D01*
X0508461Y0281346D01*
X0508481Y0281468D01*
X0508536Y0281578D01*
X0508624Y0281665D01*
X0508733Y0281721D01*
X0508855Y0281740D01*
X0509642Y0281740D01*
X0509642Y0251819D02*
X0509764Y0251800D01*
X0509874Y0251744D01*
X0509961Y0251657D01*
X0510017Y0251547D01*
X0510036Y0251425D01*
X0510017Y0251304D01*
X0509961Y0251194D01*
X0509874Y0251107D01*
X0509764Y0251051D01*
X0509642Y0251031D01*
X0508855Y0251031D01*
X0508733Y0251051D01*
X0508624Y0251107D01*
X0508536Y0251194D01*
X0508481Y0251304D01*
X0508461Y0251425D01*
X0508481Y0251547D01*
X0508536Y0251657D01*
X0508624Y0251744D01*
X0508733Y0251800D01*
X0508855Y0251819D01*
X0509642Y0251819D01*
X0509642Y0234496D02*
X0509764Y0234477D01*
X0509874Y0234421D01*
X0509961Y0234334D01*
X0510017Y0234224D01*
X0510036Y0234102D01*
X0510017Y0233981D01*
X0509961Y0233871D01*
X0509874Y0233784D01*
X0509764Y0233728D01*
X0509642Y0233709D01*
X0508855Y0233709D01*
X0508733Y0233728D01*
X0508624Y0233784D01*
X0508536Y0233871D01*
X0508481Y0233981D01*
X0508461Y0234102D01*
X0508481Y0234224D01*
X0508536Y0234334D01*
X0508624Y0234421D01*
X0508733Y0234477D01*
X0508855Y0234496D01*
X0509642Y0234496D01*
X0509642Y0204575D02*
X0509764Y0204556D01*
X0509874Y0204500D01*
X0509961Y0204413D01*
X0510017Y0204303D01*
X0510036Y0204181D01*
X0510017Y0204059D01*
X0509961Y0203950D01*
X0509874Y0203863D01*
X0509764Y0203807D01*
X0509642Y0203787D01*
X0508855Y0203787D01*
X0508733Y0203807D01*
X0508624Y0203863D01*
X0508536Y0203950D01*
X0508481Y0204059D01*
X0508461Y0204181D01*
X0508481Y0204303D01*
X0508536Y0204413D01*
X0508624Y0204500D01*
X0508733Y0204556D01*
X0508855Y0204575D01*
X0509642Y0204575D01*
X0509642Y0187252D02*
X0509764Y0187233D01*
X0509874Y0187177D01*
X0509961Y0187090D01*
X0510017Y0186980D01*
X0510036Y0186858D01*
X0510017Y0186737D01*
X0509961Y0186627D01*
X0509874Y0186540D01*
X0509764Y0186484D01*
X0509642Y0186465D01*
X0508855Y0186465D01*
X0508733Y0186484D01*
X0508624Y0186540D01*
X0508536Y0186627D01*
X0508481Y0186737D01*
X0508461Y0186858D01*
X0508481Y0186980D01*
X0508536Y0187090D01*
X0508624Y0187177D01*
X0508733Y0187233D01*
X0508855Y0187252D01*
X0509642Y0187252D01*
X0509642Y0157331D02*
X0509764Y0157311D01*
X0509874Y0157256D01*
X0509961Y0157168D01*
X0510017Y0157059D01*
X0510036Y0156937D01*
X0510017Y0156815D01*
X0509961Y0156706D01*
X0509874Y0156618D01*
X0509764Y0156563D01*
X0509642Y0156543D01*
X0508855Y0156543D01*
X0508733Y0156563D01*
X0508624Y0156618D01*
X0508536Y0156706D01*
X0508481Y0156815D01*
X0508461Y0156937D01*
X0508481Y0157059D01*
X0508536Y0157168D01*
X0508624Y0157256D01*
X0508733Y0157311D01*
X0508855Y0157331D01*
X0509642Y0157331D01*
X0509642Y0140008D02*
X0509764Y0139989D01*
X0509874Y0139933D01*
X0509961Y0139846D01*
X0510017Y0139736D01*
X0510036Y0139614D01*
X0510017Y0139493D01*
X0509961Y0139383D01*
X0509874Y0139296D01*
X0509764Y0139240D01*
X0509642Y0139220D01*
X0508855Y0139220D01*
X0508733Y0139240D01*
X0508624Y0139296D01*
X0508536Y0139383D01*
X0508481Y0139493D01*
X0508461Y0139614D01*
X0508481Y0139736D01*
X0508536Y0139846D01*
X0508624Y0139933D01*
X0508733Y0139989D01*
X0508855Y0140008D01*
X0509642Y0140008D01*
X0473619Y0332134D02*
X0473619Y0342370D01*
X0473617Y0342432D01*
X0473611Y0342493D01*
X0473602Y0342554D01*
X0473588Y0342615D01*
X0473571Y0342674D01*
X0473550Y0342732D01*
X0473525Y0342789D01*
X0473497Y0342844D01*
X0473466Y0342897D01*
X0473431Y0342948D01*
X0473393Y0342997D01*
X0473352Y0343044D01*
X0473309Y0343087D01*
X0473262Y0343128D01*
X0473213Y0343166D01*
X0473162Y0343201D01*
X0473109Y0343232D01*
X0473054Y0343260D01*
X0472997Y0343285D01*
X0472939Y0343306D01*
X0472880Y0343323D01*
X0472819Y0343337D01*
X0472758Y0343346D01*
X0472697Y0343352D01*
X0472635Y0343354D01*
X0472573Y0343352D01*
X0472512Y0343346D01*
X0472451Y0343337D01*
X0472390Y0343323D01*
X0472331Y0343306D01*
X0472273Y0343285D01*
X0472216Y0343260D01*
X0472161Y0343232D01*
X0472108Y0343201D01*
X0472057Y0343166D01*
X0472008Y0343128D01*
X0471961Y0343087D01*
X0471918Y0343044D01*
X0471877Y0342997D01*
X0471839Y0342948D01*
X0471804Y0342897D01*
X0471773Y0342844D01*
X0471745Y0342789D01*
X0471720Y0342732D01*
X0471699Y0342674D01*
X0471682Y0342615D01*
X0471668Y0342554D01*
X0471659Y0342493D01*
X0471653Y0342432D01*
X0471651Y0342370D01*
X0471650Y0342370D02*
X0471650Y0332134D01*
X0471651Y0332134D02*
X0471653Y0332072D01*
X0471659Y0332011D01*
X0471668Y0331950D01*
X0471682Y0331889D01*
X0471699Y0331830D01*
X0471720Y0331772D01*
X0471745Y0331715D01*
X0471773Y0331660D01*
X0471804Y0331607D01*
X0471839Y0331556D01*
X0471877Y0331507D01*
X0471918Y0331460D01*
X0471961Y0331417D01*
X0472008Y0331376D01*
X0472057Y0331338D01*
X0472108Y0331303D01*
X0472161Y0331272D01*
X0472216Y0331244D01*
X0472273Y0331219D01*
X0472331Y0331198D01*
X0472390Y0331181D01*
X0472451Y0331167D01*
X0472512Y0331158D01*
X0472573Y0331152D01*
X0472635Y0331150D01*
X0472697Y0331152D01*
X0472758Y0331158D01*
X0472819Y0331167D01*
X0472880Y0331181D01*
X0472939Y0331198D01*
X0472997Y0331219D01*
X0473054Y0331244D01*
X0473109Y0331272D01*
X0473162Y0331303D01*
X0473213Y0331338D01*
X0473262Y0331376D01*
X0473309Y0331417D01*
X0473352Y0331460D01*
X0473393Y0331507D01*
X0473431Y0331556D01*
X0473466Y0331607D01*
X0473497Y0331660D01*
X0473525Y0331715D01*
X0473550Y0331772D01*
X0473571Y0331830D01*
X0473588Y0331889D01*
X0473602Y0331950D01*
X0473611Y0332011D01*
X0473617Y0332072D01*
X0473619Y0332134D01*
X0480115Y0355559D02*
X0488776Y0355559D01*
X0488824Y0355561D01*
X0488871Y0355567D01*
X0488917Y0355576D01*
X0488963Y0355589D01*
X0489008Y0355606D01*
X0489051Y0355627D01*
X0489092Y0355650D01*
X0489131Y0355678D01*
X0489168Y0355708D01*
X0489202Y0355741D01*
X0489234Y0355776D01*
X0489262Y0355814D01*
X0489288Y0355855D01*
X0489310Y0355897D01*
X0489329Y0355940D01*
X0489344Y0355986D01*
X0489355Y0356032D01*
X0489363Y0356079D01*
X0489367Y0356126D01*
X0489367Y0356174D01*
X0489363Y0356221D01*
X0489355Y0356268D01*
X0489344Y0356314D01*
X0489329Y0356360D01*
X0489310Y0356403D01*
X0489288Y0356446D01*
X0489262Y0356486D01*
X0489234Y0356524D01*
X0489202Y0356559D01*
X0489168Y0356592D01*
X0489131Y0356622D01*
X0489092Y0356650D01*
X0489051Y0356673D01*
X0489008Y0356694D01*
X0488963Y0356711D01*
X0488917Y0356724D01*
X0488871Y0356733D01*
X0488824Y0356739D01*
X0488776Y0356741D01*
X0488776Y0356740D02*
X0480115Y0356740D01*
X0480115Y0356741D02*
X0480067Y0356739D01*
X0480020Y0356733D01*
X0479974Y0356724D01*
X0479928Y0356711D01*
X0479883Y0356694D01*
X0479840Y0356673D01*
X0479799Y0356650D01*
X0479760Y0356622D01*
X0479723Y0356592D01*
X0479689Y0356559D01*
X0479657Y0356524D01*
X0479629Y0356486D01*
X0479603Y0356446D01*
X0479581Y0356403D01*
X0479562Y0356360D01*
X0479547Y0356314D01*
X0479536Y0356268D01*
X0479528Y0356221D01*
X0479524Y0356174D01*
X0479524Y0356126D01*
X0479528Y0356079D01*
X0479536Y0356032D01*
X0479547Y0355986D01*
X0479562Y0355940D01*
X0479581Y0355897D01*
X0479603Y0355855D01*
X0479629Y0355814D01*
X0479657Y0355776D01*
X0479689Y0355741D01*
X0479723Y0355708D01*
X0479760Y0355678D01*
X0479799Y0355650D01*
X0479840Y0355627D01*
X0479883Y0355606D01*
X0479928Y0355589D01*
X0479974Y0355576D01*
X0480020Y0355567D01*
X0480067Y0355561D01*
X0480115Y0355559D01*
D16*
X0519288Y0306543D02*
X0522831Y0306543D01*
X0522831Y0273472D02*
X0519288Y0273472D01*
X0519288Y0259299D02*
X0522831Y0259299D01*
X0522831Y0226228D02*
X0519288Y0226228D01*
X0519288Y0212055D02*
X0522831Y0212055D01*
X0522831Y0178984D02*
X0519288Y0178984D01*
X0519288Y0164811D02*
X0522831Y0164811D01*
X0522831Y0131740D02*
X0519288Y0131740D01*
X0313579Y0146701D02*
X0308068Y0146701D01*
X0308068Y0197094D02*
X0313579Y0197094D01*
X0313579Y0217567D02*
X0308068Y0217567D01*
X0308068Y0267961D02*
X0313579Y0267961D01*
X0313579Y0288433D02*
X0308068Y0288433D01*
X0308068Y0338827D02*
X0313579Y0338827D01*
M02*
