G75*
%MOIN*%
%OFA0B0*%
%FSLAX25Y25*%
%IPPOS*%
%LPD*%
%AMOC8*
5,1,8,0,0,1.08239X$1,22.5*
%
%ADD10C,0.00800*%
%ADD11C,0.00787*%
%ADD12C,0.00900*%
%ADD13C,0.00984*%
%ADD14R,0.01575X0.01575*%
%ADD15C,0.01575*%
%ADD16C,0.00591*%
D10*
X0322838Y0110907D02*
X0322838Y0115627D01*
X0324018Y0116807D01*
X0326378Y0116807D01*
X0327558Y0115627D01*
X0327558Y0113267D01*
X0326378Y0112087D01*
X0326378Y0114447D01*
X0324018Y0114447D01*
X0324018Y0112087D01*
X0326378Y0112087D01*
X0327558Y0110907D02*
X0326378Y0109727D01*
X0324018Y0109727D01*
X0322838Y0110907D01*
X0330088Y0108547D02*
X0334808Y0108547D01*
X0337338Y0109727D02*
X0337338Y0116807D01*
X0338518Y0113267D02*
X0342058Y0109727D01*
X0344589Y0113267D02*
X0349309Y0113267D01*
X0351839Y0110907D02*
X0351839Y0109727D01*
X0356559Y0109727D01*
X0359089Y0110907D02*
X0360269Y0109727D01*
X0362629Y0109727D01*
X0363809Y0110907D01*
X0363809Y0116807D01*
X0366339Y0116807D02*
X0366339Y0109727D01*
X0366339Y0112087D02*
X0371059Y0116807D01*
X0373590Y0116807D02*
X0375950Y0116807D01*
X0374770Y0116807D02*
X0374770Y0109727D01*
X0373590Y0109727D02*
X0375950Y0109727D01*
X0378423Y0108547D02*
X0383143Y0108547D01*
X0371059Y0109727D02*
X0367519Y0113267D01*
X0359089Y0110907D02*
X0359089Y0116807D01*
X0356559Y0116807D02*
X0356559Y0115627D01*
X0351839Y0110907D01*
X0348129Y0109727D02*
X0348129Y0116807D01*
X0344589Y0113267D01*
X0342058Y0116807D02*
X0337338Y0112087D01*
X0351839Y0116807D02*
X0356559Y0116807D01*
X0385830Y0122719D02*
X0388448Y0126647D01*
X0390180Y0125337D02*
X0391489Y0126647D01*
X0391489Y0122719D01*
X0390180Y0122719D02*
X0392798Y0122719D01*
X0388448Y0122719D02*
X0385830Y0126647D01*
X0382488Y0135711D02*
X0381179Y0135711D01*
X0380525Y0136366D01*
X0383143Y0138984D01*
X0383143Y0136366D01*
X0382488Y0135711D01*
X0380525Y0136366D02*
X0380525Y0138984D01*
X0381179Y0139639D01*
X0382488Y0139639D01*
X0383143Y0138984D01*
X0378793Y0135711D02*
X0376174Y0135711D01*
X0377484Y0135711D02*
X0377484Y0139639D01*
X0376174Y0138330D01*
X0374443Y0138984D02*
X0373788Y0139639D01*
X0372479Y0139639D01*
X0371824Y0138984D01*
X0371824Y0136366D01*
X0372479Y0135711D01*
X0373788Y0135711D01*
X0374443Y0136366D01*
X0393704Y0142798D02*
X0393704Y0145937D01*
X0395274Y0145937D01*
X0395797Y0145414D01*
X0395797Y0144367D01*
X0395274Y0143844D01*
X0393704Y0143844D01*
X0394750Y0143844D02*
X0395797Y0142798D01*
X0397329Y0142798D02*
X0399422Y0142798D01*
X0398375Y0142798D02*
X0398375Y0145937D01*
X0397329Y0144891D01*
X0397852Y0147522D02*
X0397329Y0148045D01*
X0397329Y0148569D01*
X0397852Y0149092D01*
X0398899Y0149092D01*
X0399422Y0148569D01*
X0399422Y0148045D01*
X0398899Y0147522D01*
X0397852Y0147522D01*
X0397852Y0149092D02*
X0397329Y0149615D01*
X0397329Y0150138D01*
X0397852Y0150662D01*
X0398899Y0150662D01*
X0399422Y0150138D01*
X0399422Y0149615D01*
X0398899Y0149092D01*
X0400394Y0150352D02*
X0400394Y0151922D01*
X0400917Y0152445D01*
X0401964Y0152445D01*
X0402487Y0151922D01*
X0402487Y0150352D01*
X0402487Y0151399D02*
X0403534Y0152445D01*
X0405118Y0151922D02*
X0405642Y0152445D01*
X0406688Y0152445D01*
X0407212Y0151922D01*
X0407212Y0150352D01*
X0408258Y0150352D02*
X0405118Y0150352D01*
X0405118Y0151922D01*
X0407212Y0151399D02*
X0408258Y0152445D01*
X0409843Y0151922D02*
X0410366Y0152445D01*
X0411413Y0152445D01*
X0411936Y0151922D01*
X0411936Y0150352D01*
X0412983Y0150352D02*
X0409843Y0150352D01*
X0409843Y0151922D01*
X0411936Y0151399D02*
X0412983Y0152445D01*
X0414567Y0151922D02*
X0415091Y0152445D01*
X0416137Y0152445D01*
X0416660Y0151922D01*
X0416660Y0150352D01*
X0416660Y0151399D02*
X0417707Y0152445D01*
X0419292Y0151922D02*
X0419292Y0150352D01*
X0422431Y0150352D01*
X0421385Y0150352D02*
X0421385Y0151922D01*
X0420862Y0152445D01*
X0419815Y0152445D01*
X0419292Y0151922D01*
X0421385Y0151399D02*
X0422431Y0152445D01*
X0420862Y0153977D02*
X0420862Y0156070D01*
X0422431Y0155547D02*
X0419292Y0155547D01*
X0420862Y0153977D01*
X0417707Y0155547D02*
X0414567Y0155547D01*
X0416137Y0153977D01*
X0416137Y0156070D01*
X0416137Y0157602D02*
X0416137Y0159695D01*
X0414567Y0159172D02*
X0416137Y0157602D01*
X0417707Y0159172D02*
X0414567Y0159172D01*
X0412983Y0159172D02*
X0412983Y0158126D01*
X0412459Y0157602D01*
X0411413Y0158649D02*
X0411413Y0159172D01*
X0411936Y0159695D01*
X0412459Y0159695D01*
X0412983Y0159172D01*
X0411413Y0159172D02*
X0410889Y0159695D01*
X0410366Y0159695D01*
X0409843Y0159172D01*
X0409843Y0158126D01*
X0410366Y0157602D01*
X0411413Y0156070D02*
X0411413Y0153977D01*
X0409843Y0155547D01*
X0412983Y0155547D01*
X0414567Y0151922D02*
X0414567Y0150352D01*
X0417707Y0150352D01*
X0423994Y0146089D02*
X0423994Y0167840D01*
X0425590Y0166508D02*
X0425590Y0163890D01*
X0425590Y0165199D02*
X0429518Y0165199D01*
X0429518Y0162158D02*
X0429518Y0159540D01*
X0425590Y0159540D01*
X0425590Y0162158D01*
X0427554Y0160849D02*
X0427554Y0159540D01*
X0428209Y0157808D02*
X0428863Y0157808D01*
X0429518Y0157153D01*
X0429518Y0155844D01*
X0428863Y0155189D01*
X0427554Y0155844D02*
X0426899Y0155189D01*
X0426245Y0155189D01*
X0425590Y0155844D01*
X0425590Y0157153D01*
X0426245Y0157808D01*
X0427554Y0157153D02*
X0428209Y0157808D01*
X0427554Y0157153D02*
X0427554Y0155844D01*
X0425590Y0153458D02*
X0425590Y0150839D01*
X0429518Y0150839D01*
X0429518Y0153458D01*
X0427554Y0152149D02*
X0427554Y0150839D01*
X0427554Y0149108D02*
X0428209Y0148453D01*
X0428209Y0146489D01*
X0429518Y0146489D02*
X0425590Y0146489D01*
X0425590Y0148453D01*
X0426245Y0149108D01*
X0427554Y0149108D01*
X0428209Y0147798D02*
X0429518Y0149108D01*
X0429526Y0143969D02*
X0428479Y0143969D01*
X0427956Y0143446D01*
X0426424Y0143969D02*
X0424331Y0140829D01*
X0426424Y0140829D02*
X0424331Y0143969D01*
X0427956Y0140829D02*
X0430049Y0142922D01*
X0430049Y0143446D01*
X0429526Y0143969D01*
X0430049Y0140829D02*
X0427956Y0140829D01*
X0451102Y0140829D02*
X0453195Y0143969D01*
X0454727Y0143446D02*
X0455251Y0143969D01*
X0456297Y0143969D01*
X0456821Y0143446D01*
X0456821Y0142922D01*
X0456297Y0142399D01*
X0456821Y0141876D01*
X0456821Y0141352D01*
X0456297Y0140829D01*
X0455251Y0140829D01*
X0454727Y0141352D01*
X0455774Y0142399D02*
X0456297Y0142399D01*
X0453195Y0140829D02*
X0451102Y0143969D01*
X0451553Y0147227D02*
X0451553Y0158828D01*
X0453149Y0156841D02*
X0453804Y0157496D01*
X0455113Y0157496D01*
X0455768Y0156841D01*
X0455768Y0154878D01*
X0457077Y0154878D02*
X0453149Y0154878D01*
X0453149Y0156841D01*
X0453804Y0153146D02*
X0453149Y0152491D01*
X0453149Y0151182D01*
X0453804Y0150527D01*
X0454459Y0150527D01*
X0455113Y0151182D01*
X0455113Y0152491D01*
X0455768Y0153146D01*
X0456422Y0153146D01*
X0457077Y0152491D01*
X0457077Y0151182D01*
X0456422Y0150527D01*
X0457077Y0148937D02*
X0457077Y0147627D01*
X0457077Y0148282D02*
X0453149Y0148282D01*
X0453149Y0147627D02*
X0453149Y0148937D01*
X0454334Y0136883D02*
X0456298Y0136883D01*
X0456952Y0136228D01*
X0456952Y0135574D01*
X0456298Y0134919D01*
X0454334Y0134919D01*
X0456298Y0134919D02*
X0456952Y0134264D01*
X0456952Y0133610D01*
X0456298Y0132955D01*
X0454334Y0132955D01*
X0454334Y0136883D01*
X0458684Y0136883D02*
X0458684Y0132955D01*
X0458684Y0134264D02*
X0461302Y0136883D01*
X0459339Y0134919D02*
X0461302Y0132955D01*
X0469762Y0132561D02*
X0469762Y0135701D01*
X0471332Y0135701D01*
X0471855Y0135178D01*
X0471855Y0134131D01*
X0471332Y0133608D01*
X0469762Y0133608D01*
X0470809Y0133608D02*
X0471855Y0132561D01*
X0473387Y0132561D02*
X0475480Y0134655D01*
X0475480Y0135178D01*
X0474957Y0135701D01*
X0473911Y0135701D01*
X0473387Y0135178D01*
X0473387Y0132561D02*
X0475480Y0132561D01*
X0477012Y0132561D02*
X0477012Y0133085D01*
X0479106Y0135178D01*
X0479106Y0135701D01*
X0477012Y0135701D01*
X0477536Y0123890D02*
X0478582Y0123890D01*
X0479106Y0123367D01*
X0479106Y0122844D01*
X0478582Y0122320D01*
X0477536Y0122320D01*
X0477012Y0122844D01*
X0477012Y0123367D01*
X0477536Y0123890D01*
X0477536Y0122320D02*
X0477012Y0121797D01*
X0477012Y0121274D01*
X0477536Y0120750D01*
X0478582Y0120750D01*
X0479106Y0121274D01*
X0479106Y0121797D01*
X0478582Y0122320D01*
X0475480Y0122844D02*
X0473387Y0120750D01*
X0475480Y0120750D01*
X0475480Y0122844D02*
X0475480Y0123367D01*
X0474957Y0123890D01*
X0473911Y0123890D01*
X0473387Y0123367D01*
X0471855Y0123367D02*
X0471855Y0122320D01*
X0471332Y0121797D01*
X0469762Y0121797D01*
X0469762Y0120750D02*
X0469762Y0123890D01*
X0471332Y0123890D01*
X0471855Y0123367D01*
X0470809Y0121797D02*
X0471855Y0120750D01*
X0471332Y0112079D02*
X0471855Y0111556D01*
X0471855Y0110509D01*
X0471332Y0109986D01*
X0469762Y0109986D01*
X0469762Y0108939D02*
X0469762Y0112079D01*
X0471332Y0112079D01*
X0473387Y0111556D02*
X0473911Y0112079D01*
X0474957Y0112079D01*
X0475480Y0111556D01*
X0475480Y0111032D01*
X0473387Y0108939D01*
X0475480Y0108939D01*
X0477012Y0109463D02*
X0477536Y0108939D01*
X0478582Y0108939D01*
X0479106Y0109463D01*
X0479106Y0111556D01*
X0478582Y0112079D01*
X0477536Y0112079D01*
X0477012Y0111556D01*
X0477012Y0111032D01*
X0477536Y0110509D01*
X0479106Y0110509D01*
X0471855Y0108939D02*
X0470809Y0109986D01*
X0471332Y0100268D02*
X0471855Y0099745D01*
X0471855Y0098698D01*
X0471332Y0098175D01*
X0469762Y0098175D01*
X0469762Y0097128D02*
X0469762Y0100268D01*
X0471332Y0100268D01*
X0473387Y0099745D02*
X0473911Y0100268D01*
X0474957Y0100268D01*
X0475480Y0099745D01*
X0475480Y0099221D01*
X0474957Y0098698D01*
X0475480Y0098175D01*
X0475480Y0097652D01*
X0474957Y0097128D01*
X0473911Y0097128D01*
X0473387Y0097652D01*
X0474434Y0098698D02*
X0474957Y0098698D01*
X0477012Y0097652D02*
X0479106Y0099745D01*
X0479106Y0097652D01*
X0478582Y0097128D01*
X0477536Y0097128D01*
X0477012Y0097652D01*
X0477012Y0099745D01*
X0477536Y0100268D01*
X0478582Y0100268D01*
X0479106Y0099745D01*
X0471855Y0097128D02*
X0470809Y0098175D01*
X0470313Y0093575D02*
X0471359Y0093575D01*
X0471883Y0093052D01*
X0469789Y0090959D01*
X0470313Y0090435D01*
X0471359Y0090435D01*
X0471883Y0090959D01*
X0471883Y0093052D01*
X0470313Y0093575D02*
X0469789Y0093052D01*
X0469789Y0090959D01*
X0468257Y0090959D02*
X0467734Y0090435D01*
X0466688Y0090435D01*
X0466164Y0090959D01*
X0467211Y0092005D02*
X0467734Y0092005D01*
X0468257Y0091482D01*
X0468257Y0090959D01*
X0467734Y0092005D02*
X0468257Y0092529D01*
X0468257Y0093052D01*
X0467734Y0093575D01*
X0466688Y0093575D01*
X0466164Y0093052D01*
X0464632Y0092005D02*
X0464632Y0090435D01*
X0463062Y0090435D01*
X0462539Y0090959D01*
X0463062Y0091482D01*
X0464632Y0091482D01*
X0464632Y0092005D02*
X0464109Y0092529D01*
X0463062Y0092529D01*
X0473415Y0092005D02*
X0474461Y0092005D01*
X0473938Y0093052D02*
X0474461Y0093575D01*
X0473938Y0093052D02*
X0473938Y0090435D01*
X0475831Y0090959D02*
X0475831Y0092005D01*
X0476355Y0092529D01*
X0477924Y0092529D01*
X0477924Y0093575D02*
X0477924Y0090435D01*
X0476355Y0090435D01*
X0475831Y0090959D01*
X0479456Y0090435D02*
X0481550Y0090435D01*
X0480503Y0090435D02*
X0480503Y0093575D01*
X0479456Y0092529D01*
X0483082Y0092005D02*
X0484128Y0092005D01*
X0483605Y0093052D02*
X0484128Y0093575D01*
X0483605Y0093052D02*
X0483605Y0090435D01*
X0487526Y0091617D02*
X0487526Y0096337D01*
X0487526Y0093977D02*
X0489886Y0096337D01*
X0491066Y0096337D01*
X0493567Y0097517D02*
X0494747Y0098697D01*
X0497107Y0098697D01*
X0498287Y0097517D01*
X0493567Y0092797D01*
X0494747Y0091617D01*
X0497107Y0091617D01*
X0498287Y0092797D01*
X0498287Y0097517D01*
X0493567Y0097517D02*
X0493567Y0092797D01*
X0500818Y0092797D02*
X0501998Y0092797D01*
X0501998Y0091617D01*
X0500818Y0091617D01*
X0500818Y0092797D01*
X0504443Y0095157D02*
X0509163Y0095157D01*
X0507983Y0098697D02*
X0504443Y0095157D01*
X0507983Y0091617D02*
X0507983Y0098697D01*
X0508271Y0108152D02*
X0510235Y0108152D01*
X0510889Y0108807D01*
X0510889Y0111425D01*
X0510235Y0112080D01*
X0508271Y0112080D01*
X0508271Y0108152D01*
X0506539Y0108152D02*
X0503921Y0108152D01*
X0503921Y0112080D01*
X0506539Y0112080D01*
X0506539Y0113664D02*
X0503921Y0113664D01*
X0503921Y0117592D01*
X0506539Y0117592D01*
X0506539Y0119176D02*
X0503921Y0119176D01*
X0503921Y0123103D01*
X0506539Y0123103D01*
X0506539Y0124687D02*
X0503921Y0124687D01*
X0503921Y0128615D01*
X0506539Y0128615D01*
X0506263Y0129806D02*
X0507573Y0131115D01*
X0508882Y0129806D01*
X0508882Y0133733D01*
X0510613Y0131769D02*
X0512577Y0133733D01*
X0512577Y0129806D01*
X0513930Y0128615D02*
X0512621Y0127306D01*
X0510889Y0127961D02*
X0510889Y0125342D01*
X0510235Y0124687D01*
X0508271Y0124687D01*
X0508271Y0128615D01*
X0510235Y0128615D01*
X0510889Y0127961D01*
X0513930Y0128615D02*
X0513930Y0124687D01*
X0512621Y0124687D02*
X0515239Y0124687D01*
X0514585Y0123103D02*
X0513276Y0123103D01*
X0512621Y0122449D01*
X0510889Y0122449D02*
X0510235Y0123103D01*
X0508271Y0123103D01*
X0508271Y0119176D01*
X0510235Y0119176D01*
X0510889Y0119830D01*
X0510889Y0122449D01*
X0512621Y0119176D02*
X0515239Y0121794D01*
X0515239Y0122449D01*
X0514585Y0123103D01*
X0517306Y0124687D02*
X0517306Y0128615D01*
X0519270Y0128615D01*
X0519925Y0127961D01*
X0519925Y0126651D01*
X0519270Y0125997D01*
X0517306Y0125997D01*
X0518616Y0125997D02*
X0519925Y0124687D01*
X0521657Y0124687D02*
X0521657Y0128615D01*
X0523620Y0128615D01*
X0524275Y0127961D01*
X0524275Y0125342D01*
X0523620Y0124687D01*
X0521657Y0124687D01*
X0515239Y0119176D02*
X0512621Y0119176D01*
X0513276Y0117592D02*
X0512621Y0116937D01*
X0513276Y0117592D02*
X0514585Y0117592D01*
X0515239Y0116937D01*
X0515239Y0116282D01*
X0514585Y0115628D01*
X0515239Y0114973D01*
X0515239Y0114318D01*
X0514585Y0113664D01*
X0513276Y0113664D01*
X0512621Y0114318D01*
X0510889Y0114318D02*
X0510889Y0116937D01*
X0510235Y0117592D01*
X0508271Y0117592D01*
X0508271Y0113664D01*
X0510235Y0113664D01*
X0510889Y0114318D01*
X0513930Y0115628D02*
X0514585Y0115628D01*
X0514585Y0112080D02*
X0512621Y0110116D01*
X0515239Y0110116D01*
X0514585Y0108152D02*
X0514585Y0112080D01*
X0505230Y0110116D02*
X0503921Y0110116D01*
X0502189Y0108152D02*
X0499570Y0108152D01*
X0499570Y0112080D01*
X0499570Y0113664D02*
X0502189Y0113664D01*
X0503921Y0115628D02*
X0505230Y0115628D01*
X0502189Y0119176D02*
X0499570Y0119176D01*
X0499570Y0123103D01*
X0499570Y0124687D02*
X0502189Y0124687D01*
X0503921Y0126651D02*
X0505230Y0126651D01*
X0506263Y0129806D02*
X0506263Y0133733D01*
X0504532Y0133079D02*
X0503877Y0133733D01*
X0502568Y0133733D01*
X0501913Y0133079D01*
X0501913Y0132424D01*
X0502568Y0131769D01*
X0503877Y0131769D01*
X0504532Y0131115D01*
X0504532Y0130460D01*
X0503877Y0129806D01*
X0502568Y0129806D01*
X0501913Y0130460D01*
X0499570Y0128615D02*
X0499570Y0124687D01*
X0503921Y0121139D02*
X0505230Y0121139D01*
X0499570Y0117592D02*
X0499570Y0113664D01*
X0510613Y0131769D02*
X0513232Y0131769D01*
X0511545Y0149884D02*
X0509452Y0149884D01*
X0509452Y0153024D01*
X0507920Y0153024D02*
X0507920Y0152501D01*
X0506873Y0151454D01*
X0506873Y0149884D01*
X0506873Y0151454D02*
X0505827Y0152501D01*
X0505827Y0153024D01*
X0499160Y0158807D02*
X0498505Y0158152D01*
X0497196Y0158152D01*
X0496542Y0158807D01*
X0499160Y0161425D01*
X0499160Y0158807D01*
X0499160Y0161425D02*
X0498505Y0162080D01*
X0497196Y0162080D01*
X0496542Y0161425D01*
X0496542Y0158807D01*
X0494810Y0158152D02*
X0492191Y0158152D01*
X0493501Y0158152D02*
X0493501Y0162080D01*
X0492191Y0160770D01*
X0490460Y0161425D02*
X0489805Y0162080D01*
X0488496Y0162080D01*
X0487841Y0161425D01*
X0487841Y0158807D01*
X0488496Y0158152D01*
X0489805Y0158152D01*
X0490460Y0158807D01*
X0486250Y0158152D02*
X0484941Y0158152D01*
X0485596Y0158152D02*
X0485596Y0162080D01*
X0486250Y0162080D02*
X0484941Y0162080D01*
X0484459Y0170750D02*
X0485505Y0170750D01*
X0486029Y0171274D01*
X0487561Y0170750D02*
X0489654Y0172844D01*
X0489654Y0173367D01*
X0489130Y0173890D01*
X0488084Y0173890D01*
X0487561Y0173367D01*
X0486029Y0173367D02*
X0485505Y0173890D01*
X0484459Y0173890D01*
X0483935Y0173367D01*
X0483935Y0171274D01*
X0484459Y0170750D01*
X0487561Y0170750D02*
X0489654Y0170750D01*
X0491186Y0170750D02*
X0493279Y0172844D01*
X0493279Y0173367D01*
X0492755Y0173890D01*
X0491709Y0173890D01*
X0491186Y0173367D01*
X0491540Y0175869D02*
X0490494Y0176915D01*
X0491017Y0176915D02*
X0489447Y0176915D01*
X0489447Y0175869D02*
X0489447Y0179008D01*
X0491017Y0179008D01*
X0491540Y0178485D01*
X0491540Y0177438D01*
X0491017Y0176915D01*
X0493072Y0176392D02*
X0493596Y0175869D01*
X0494642Y0175869D01*
X0495165Y0176392D01*
X0495165Y0176915D01*
X0494642Y0177438D01*
X0494119Y0177438D01*
X0494642Y0177438D02*
X0495165Y0177962D01*
X0495165Y0178485D01*
X0494642Y0179008D01*
X0493596Y0179008D01*
X0493072Y0178485D01*
X0493591Y0180593D02*
X0491498Y0180593D01*
X0493591Y0182686D01*
X0493591Y0183209D01*
X0493067Y0183733D01*
X0492021Y0183733D01*
X0491498Y0183209D01*
X0489966Y0183209D02*
X0489442Y0183733D01*
X0488396Y0183733D01*
X0487872Y0183209D01*
X0487872Y0181116D01*
X0488396Y0180593D01*
X0489442Y0180593D01*
X0489966Y0181116D01*
X0489966Y0185317D02*
X0488919Y0186364D01*
X0489442Y0186364D02*
X0487872Y0186364D01*
X0487872Y0185317D02*
X0487872Y0188457D01*
X0489442Y0188457D01*
X0489966Y0187934D01*
X0489966Y0186887D01*
X0489442Y0186364D01*
X0491498Y0185841D02*
X0492021Y0185317D01*
X0493067Y0185317D01*
X0493591Y0185841D01*
X0493591Y0186364D01*
X0493067Y0186887D01*
X0492544Y0186887D01*
X0493067Y0186887D02*
X0493591Y0187410D01*
X0493591Y0187934D01*
X0493067Y0188457D01*
X0492021Y0188457D01*
X0491498Y0187934D01*
X0491498Y0190042D02*
X0493591Y0192135D01*
X0493591Y0192658D01*
X0493067Y0193181D01*
X0492021Y0193181D01*
X0491498Y0192658D01*
X0489966Y0192658D02*
X0489442Y0193181D01*
X0488396Y0193181D01*
X0487872Y0192658D01*
X0487872Y0190565D01*
X0488396Y0190042D01*
X0489442Y0190042D01*
X0489966Y0190565D01*
X0491498Y0190042D02*
X0493591Y0190042D01*
X0495123Y0190565D02*
X0497216Y0192658D01*
X0497216Y0190565D01*
X0496692Y0190042D01*
X0495646Y0190042D01*
X0495123Y0190565D01*
X0495123Y0192658D01*
X0495646Y0193181D01*
X0496692Y0193181D01*
X0497216Y0192658D01*
X0497216Y0194766D02*
X0495123Y0194766D01*
X0497216Y0196859D01*
X0497216Y0197383D01*
X0496693Y0197906D01*
X0495646Y0197906D01*
X0495123Y0197383D01*
X0493591Y0197383D02*
X0493591Y0196859D01*
X0493067Y0196336D01*
X0493591Y0195813D01*
X0493591Y0195289D01*
X0493067Y0194766D01*
X0492021Y0194766D01*
X0491498Y0195289D01*
X0492544Y0196336D02*
X0493067Y0196336D01*
X0493591Y0197383D02*
X0493067Y0197906D01*
X0492021Y0197906D01*
X0491498Y0197383D01*
X0489966Y0197383D02*
X0489966Y0196336D01*
X0489442Y0195813D01*
X0487872Y0195813D01*
X0487872Y0194766D02*
X0487872Y0197906D01*
X0489442Y0197906D01*
X0489966Y0197383D01*
X0488919Y0195813D02*
X0489966Y0194766D01*
X0489442Y0199491D02*
X0488396Y0199491D01*
X0487872Y0200014D01*
X0487872Y0202107D01*
X0488396Y0202630D01*
X0489442Y0202630D01*
X0489966Y0202107D01*
X0491498Y0201584D02*
X0492544Y0202630D01*
X0492544Y0199491D01*
X0491498Y0199491D02*
X0493591Y0199491D01*
X0495123Y0200014D02*
X0495646Y0199491D01*
X0496692Y0199491D01*
X0497216Y0200014D01*
X0497216Y0202107D01*
X0496692Y0202630D01*
X0495646Y0202630D01*
X0495123Y0202107D01*
X0495123Y0201584D01*
X0495646Y0201060D01*
X0497216Y0201060D01*
X0497216Y0204215D02*
X0495123Y0204215D01*
X0496169Y0204215D02*
X0496169Y0207355D01*
X0495123Y0206308D01*
X0493591Y0206308D02*
X0493067Y0205785D01*
X0493591Y0205262D01*
X0493591Y0204738D01*
X0493067Y0204215D01*
X0492021Y0204215D01*
X0491498Y0204738D01*
X0492544Y0205785D02*
X0493067Y0205785D01*
X0493591Y0206308D02*
X0493591Y0206831D01*
X0493067Y0207355D01*
X0492021Y0207355D01*
X0491498Y0206831D01*
X0489966Y0206831D02*
X0489966Y0205785D01*
X0489442Y0205262D01*
X0487872Y0205262D01*
X0488919Y0205262D02*
X0489966Y0204215D01*
X0487872Y0204215D02*
X0487872Y0207355D01*
X0489442Y0207355D01*
X0489966Y0206831D01*
X0489966Y0200014D02*
X0489442Y0199491D01*
X0497638Y0205396D02*
X0497638Y0206966D01*
X0498161Y0207489D01*
X0499208Y0207489D01*
X0499731Y0206966D01*
X0499731Y0205396D01*
X0499731Y0206443D02*
X0500778Y0207489D01*
X0500778Y0209021D02*
X0498685Y0211114D01*
X0498161Y0211114D01*
X0497638Y0210591D01*
X0497638Y0209544D01*
X0498161Y0209021D01*
X0500778Y0209021D02*
X0500778Y0211114D01*
X0500255Y0212646D02*
X0500778Y0213170D01*
X0500778Y0214216D01*
X0500255Y0214739D01*
X0499731Y0214739D01*
X0499208Y0214216D01*
X0499208Y0213693D01*
X0499208Y0214216D02*
X0498685Y0214739D01*
X0498161Y0214739D01*
X0497638Y0214216D01*
X0497638Y0213170D01*
X0498161Y0212646D01*
X0497641Y0218388D02*
X0497641Y0221528D01*
X0499211Y0221528D01*
X0499734Y0221005D01*
X0499734Y0219958D01*
X0499211Y0219435D01*
X0497641Y0219435D01*
X0498687Y0219435D02*
X0499734Y0218388D01*
X0501266Y0218388D02*
X0503359Y0220481D01*
X0503359Y0221005D01*
X0502836Y0221528D01*
X0501789Y0221528D01*
X0501266Y0221005D01*
X0501266Y0223113D02*
X0503359Y0225206D01*
X0503359Y0225729D01*
X0502836Y0226252D01*
X0501789Y0226252D01*
X0501266Y0225729D01*
X0499734Y0225729D02*
X0499734Y0224682D01*
X0499211Y0224159D01*
X0497641Y0224159D01*
X0498687Y0224159D02*
X0499734Y0223113D01*
X0501266Y0223113D02*
X0503359Y0223113D01*
X0504891Y0223636D02*
X0506984Y0225729D01*
X0506984Y0223636D01*
X0506461Y0223113D01*
X0505414Y0223113D01*
X0504891Y0223636D01*
X0504891Y0225729D01*
X0505414Y0226252D01*
X0506461Y0226252D01*
X0506984Y0225729D01*
X0505938Y0221528D02*
X0505938Y0218388D01*
X0506984Y0218388D02*
X0504891Y0218388D01*
X0503359Y0218388D02*
X0501266Y0218388D01*
X0504891Y0220481D02*
X0505938Y0221528D01*
X0499734Y0225729D02*
X0499211Y0226252D01*
X0497641Y0226252D01*
X0497641Y0223113D01*
X0497638Y0231380D02*
X0497638Y0232950D01*
X0498161Y0233473D01*
X0499208Y0233473D01*
X0499731Y0232950D01*
X0499731Y0231380D01*
X0500778Y0231380D02*
X0497638Y0231380D01*
X0499731Y0232427D02*
X0500778Y0233473D01*
X0500778Y0235005D02*
X0500778Y0237099D01*
X0500778Y0236052D02*
X0497638Y0236052D01*
X0498685Y0235005D01*
X0495905Y0237286D02*
X0496428Y0237809D01*
X0496428Y0239902D01*
X0495905Y0240426D01*
X0494859Y0240426D01*
X0494335Y0239902D01*
X0494335Y0239379D01*
X0494859Y0238856D01*
X0496428Y0238856D01*
X0497638Y0239154D02*
X0497638Y0240200D01*
X0498161Y0240724D01*
X0498685Y0240724D01*
X0499208Y0240200D01*
X0499208Y0239154D01*
X0498685Y0238631D01*
X0498161Y0238631D01*
X0497638Y0239154D01*
X0499208Y0239154D02*
X0499731Y0238631D01*
X0500255Y0238631D01*
X0500778Y0239154D01*
X0500778Y0240200D01*
X0500255Y0240724D01*
X0499731Y0240724D01*
X0499208Y0240200D01*
X0495905Y0237286D02*
X0494859Y0237286D01*
X0494335Y0237809D01*
X0492803Y0237286D02*
X0490710Y0237286D01*
X0491757Y0237286D02*
X0491757Y0240426D01*
X0490710Y0239379D01*
X0489178Y0239902D02*
X0489178Y0238856D01*
X0488655Y0238332D01*
X0487085Y0238332D01*
X0487085Y0237286D02*
X0487085Y0240426D01*
X0488655Y0240426D01*
X0489178Y0239902D01*
X0488132Y0238332D02*
X0489178Y0237286D01*
X0485856Y0238330D02*
X0483238Y0235711D01*
X0485856Y0235711D01*
X0485856Y0238330D02*
X0485856Y0238984D01*
X0485201Y0239639D01*
X0483892Y0239639D01*
X0483238Y0238984D01*
X0481506Y0238984D02*
X0480851Y0239639D01*
X0479542Y0239639D01*
X0478887Y0238984D01*
X0478887Y0236366D01*
X0479542Y0235711D01*
X0480851Y0235711D01*
X0481506Y0236366D01*
X0477297Y0235711D02*
X0475987Y0235711D01*
X0476642Y0235711D02*
X0476642Y0239639D01*
X0475987Y0239639D02*
X0477297Y0239639D01*
X0460208Y0239244D02*
X0459161Y0238721D01*
X0458115Y0237675D01*
X0459685Y0237675D01*
X0460208Y0237151D01*
X0460208Y0236628D01*
X0459685Y0236105D01*
X0458638Y0236105D01*
X0458115Y0236628D01*
X0458115Y0237675D01*
X0456583Y0238198D02*
X0456059Y0237675D01*
X0456583Y0237151D01*
X0456583Y0236628D01*
X0456059Y0236105D01*
X0455013Y0236105D01*
X0454490Y0236628D01*
X0455536Y0237675D02*
X0456059Y0237675D01*
X0456583Y0238198D02*
X0456583Y0238721D01*
X0456059Y0239244D01*
X0455013Y0239244D01*
X0454490Y0238721D01*
X0452958Y0238721D02*
X0452958Y0237675D01*
X0452434Y0237151D01*
X0450865Y0237151D01*
X0451911Y0237151D02*
X0452958Y0236105D01*
X0452434Y0234520D02*
X0452958Y0233997D01*
X0452958Y0232950D01*
X0452434Y0232427D01*
X0450865Y0232427D01*
X0451911Y0232427D02*
X0452958Y0231380D01*
X0452434Y0229796D02*
X0451388Y0229796D01*
X0450865Y0229272D01*
X0450865Y0227179D01*
X0451388Y0226656D01*
X0452434Y0226656D01*
X0452958Y0227179D01*
X0454490Y0226656D02*
X0456583Y0228749D01*
X0456583Y0229272D01*
X0456059Y0229796D01*
X0455013Y0229796D01*
X0454490Y0229272D01*
X0452958Y0229272D02*
X0452434Y0229796D01*
X0450865Y0231380D02*
X0450865Y0234520D01*
X0452434Y0234520D01*
X0450865Y0236105D02*
X0450865Y0239244D01*
X0452434Y0239244D01*
X0452958Y0238721D01*
X0456059Y0234520D02*
X0454490Y0232950D01*
X0456583Y0232950D01*
X0458115Y0233473D02*
X0459161Y0234520D01*
X0459161Y0231380D01*
X0458115Y0231380D02*
X0460208Y0231380D01*
X0459685Y0229796D02*
X0460208Y0229272D01*
X0460208Y0228749D01*
X0459685Y0228226D01*
X0460208Y0227702D01*
X0460208Y0227179D01*
X0459685Y0226656D01*
X0458638Y0226656D01*
X0458115Y0227179D01*
X0459161Y0228226D02*
X0459685Y0228226D01*
X0459685Y0229796D02*
X0458638Y0229796D01*
X0458115Y0229272D01*
X0456059Y0231380D02*
X0456059Y0234520D01*
X0456583Y0226656D02*
X0454490Y0226656D01*
X0455013Y0225071D02*
X0456059Y0225071D01*
X0456583Y0224548D01*
X0456583Y0224025D01*
X0456059Y0223501D01*
X0456583Y0222978D01*
X0456583Y0222455D01*
X0456059Y0221931D01*
X0455013Y0221931D01*
X0454490Y0222455D01*
X0455536Y0223501D02*
X0456059Y0223501D01*
X0454490Y0224548D02*
X0455013Y0225071D01*
X0452958Y0224548D02*
X0452958Y0223501D01*
X0452434Y0222978D01*
X0450865Y0222978D01*
X0451911Y0222978D02*
X0452958Y0221931D01*
X0452672Y0220347D02*
X0451626Y0220347D01*
X0451102Y0219823D01*
X0451102Y0217730D01*
X0451626Y0217207D01*
X0452672Y0217207D01*
X0453195Y0217730D01*
X0454727Y0217207D02*
X0456821Y0217207D01*
X0455774Y0217207D02*
X0455774Y0220347D01*
X0454727Y0219300D01*
X0453195Y0219823D02*
X0452672Y0220347D01*
X0450865Y0221931D02*
X0450865Y0225071D01*
X0452434Y0225071D01*
X0452958Y0224548D01*
X0458115Y0225071D02*
X0460208Y0225071D01*
X0460208Y0224548D01*
X0458115Y0222455D01*
X0458115Y0221931D01*
X0463043Y0216016D02*
X0462520Y0215493D01*
X0462520Y0213400D01*
X0463043Y0212876D01*
X0464089Y0212876D01*
X0464613Y0213400D01*
X0466145Y0213400D02*
X0466668Y0212876D01*
X0467715Y0212876D01*
X0468238Y0213400D01*
X0468238Y0213923D01*
X0467715Y0214446D01*
X0467191Y0214446D01*
X0467715Y0214446D02*
X0468238Y0214970D01*
X0468238Y0215493D01*
X0467715Y0216016D01*
X0466668Y0216016D01*
X0466145Y0215493D01*
X0464613Y0215493D02*
X0464089Y0216016D01*
X0463043Y0216016D01*
X0460208Y0210898D02*
X0458115Y0210898D01*
X0458115Y0209328D01*
X0459161Y0209851D01*
X0459685Y0209851D01*
X0460208Y0209328D01*
X0460208Y0208282D01*
X0459685Y0207758D01*
X0458638Y0207758D01*
X0458115Y0208282D01*
X0456583Y0207758D02*
X0454490Y0207758D01*
X0455536Y0207758D02*
X0455536Y0210898D01*
X0454490Y0209851D01*
X0452958Y0209328D02*
X0452434Y0208805D01*
X0450865Y0208805D01*
X0451911Y0208805D02*
X0452958Y0207758D01*
X0452958Y0209328D02*
X0452958Y0210375D01*
X0452434Y0210898D01*
X0450865Y0210898D01*
X0450865Y0207758D01*
X0463857Y0206438D02*
X0463857Y0204345D01*
X0464380Y0203821D01*
X0465426Y0203821D01*
X0465950Y0204345D01*
X0467482Y0203821D02*
X0469575Y0203821D01*
X0468528Y0203821D02*
X0468528Y0206961D01*
X0467482Y0205914D01*
X0465950Y0206438D02*
X0465426Y0206961D01*
X0464380Y0206961D01*
X0463857Y0206438D01*
X0468187Y0209463D02*
X0468711Y0208939D01*
X0469757Y0208939D01*
X0470280Y0209463D01*
X0471812Y0208939D02*
X0473906Y0208939D01*
X0472859Y0208939D02*
X0472859Y0212079D01*
X0471812Y0211032D01*
X0470280Y0211556D02*
X0469757Y0212079D01*
X0468711Y0212079D01*
X0468187Y0211556D01*
X0468187Y0209463D01*
X0471107Y0206438D02*
X0471630Y0206961D01*
X0472677Y0206961D01*
X0473200Y0206438D01*
X0473200Y0205914D01*
X0472677Y0205391D01*
X0473200Y0204868D01*
X0473200Y0204345D01*
X0472677Y0203821D01*
X0471630Y0203821D01*
X0471107Y0204345D01*
X0472153Y0205391D02*
X0472677Y0205391D01*
X0475961Y0208939D02*
X0475438Y0209463D01*
X0475438Y0209986D01*
X0475961Y0210509D01*
X0477007Y0210509D01*
X0477531Y0209986D01*
X0477531Y0209463D01*
X0477007Y0208939D01*
X0475961Y0208939D01*
X0475961Y0210509D02*
X0475438Y0211032D01*
X0475438Y0211556D01*
X0475961Y0212079D01*
X0477007Y0212079D01*
X0477531Y0211556D01*
X0477531Y0211032D01*
X0477007Y0210509D01*
X0478104Y0213664D02*
X0478104Y0216803D01*
X0479674Y0216803D01*
X0480197Y0216280D01*
X0480197Y0215234D01*
X0479674Y0214710D01*
X0478104Y0214710D01*
X0479151Y0214710D02*
X0480197Y0213664D01*
X0481729Y0213664D02*
X0483822Y0215757D01*
X0483822Y0216280D01*
X0483299Y0216803D01*
X0482252Y0216803D01*
X0481729Y0216280D01*
X0481729Y0213664D02*
X0483822Y0213664D01*
X0485354Y0213664D02*
X0487447Y0215757D01*
X0487447Y0216280D01*
X0486924Y0216803D01*
X0485878Y0216803D01*
X0485354Y0216280D01*
X0485354Y0213664D02*
X0487447Y0213664D01*
X0497638Y0205396D02*
X0500778Y0205396D01*
X0506350Y0200268D02*
X0505827Y0199745D01*
X0505827Y0197652D01*
X0506350Y0197128D01*
X0507397Y0197128D01*
X0507920Y0197652D01*
X0507920Y0198698D01*
X0506873Y0198698D01*
X0507920Y0199745D02*
X0507397Y0200268D01*
X0506350Y0200268D01*
X0509452Y0200268D02*
X0511022Y0200268D01*
X0511545Y0199745D01*
X0511545Y0198698D01*
X0511022Y0198175D01*
X0509452Y0198175D01*
X0510498Y0198175D02*
X0511545Y0197128D01*
X0509452Y0197128D02*
X0509452Y0200268D01*
X0513572Y0214845D02*
X0514881Y0214845D01*
X0515536Y0215500D01*
X0517267Y0215500D02*
X0517922Y0214845D01*
X0519231Y0214845D01*
X0519886Y0215500D01*
X0519886Y0218118D01*
X0519231Y0218773D01*
X0517922Y0218773D01*
X0517267Y0218118D01*
X0517267Y0215500D01*
X0515536Y0218118D02*
X0514881Y0218773D01*
X0513572Y0218773D01*
X0512917Y0218118D01*
X0512917Y0215500D01*
X0513572Y0214845D01*
X0521618Y0214845D02*
X0521618Y0218773D01*
X0524236Y0214845D01*
X0524236Y0218773D01*
X0525968Y0218118D02*
X0526622Y0218773D01*
X0527932Y0218773D01*
X0528586Y0218118D01*
X0528586Y0217463D01*
X0527932Y0216809D01*
X0528586Y0216154D01*
X0528586Y0215500D01*
X0527932Y0214845D01*
X0526622Y0214845D01*
X0525968Y0215500D01*
X0527277Y0216809D02*
X0527932Y0216809D01*
X0509183Y0243585D02*
X0507090Y0243585D01*
X0507090Y0246725D01*
X0505558Y0246201D02*
X0505558Y0245678D01*
X0505034Y0245155D01*
X0503464Y0245155D01*
X0503464Y0243585D02*
X0503464Y0246725D01*
X0505034Y0246725D01*
X0505558Y0246201D01*
X0505034Y0245155D02*
X0505558Y0244632D01*
X0505558Y0244108D01*
X0505034Y0243585D01*
X0503464Y0243585D01*
X0500240Y0253821D02*
X0497621Y0253821D01*
X0500240Y0256440D01*
X0500240Y0257094D01*
X0499585Y0257749D01*
X0498276Y0257749D01*
X0497621Y0257094D01*
X0495890Y0257749D02*
X0495890Y0253821D01*
X0494580Y0255131D01*
X0493271Y0253821D01*
X0493271Y0257749D01*
X0491540Y0257094D02*
X0490885Y0257749D01*
X0489576Y0257749D01*
X0488921Y0257094D01*
X0488921Y0256440D01*
X0489576Y0255785D01*
X0490885Y0255785D01*
X0491540Y0255131D01*
X0491540Y0254476D01*
X0490885Y0253821D01*
X0489576Y0253821D01*
X0488921Y0254476D01*
X0481486Y0254950D02*
X0478347Y0254950D01*
X0479393Y0253903D01*
X0478870Y0252371D02*
X0479917Y0252371D01*
X0480440Y0251848D01*
X0480440Y0250278D01*
X0481486Y0250278D02*
X0478347Y0250278D01*
X0478347Y0251848D01*
X0478870Y0252371D01*
X0480440Y0251325D02*
X0481486Y0252371D01*
X0481486Y0253903D02*
X0481486Y0255996D01*
X0480963Y0257528D02*
X0481486Y0258052D01*
X0481486Y0259098D01*
X0480963Y0259621D01*
X0480440Y0259621D01*
X0479917Y0259098D01*
X0479917Y0257528D01*
X0480963Y0257528D01*
X0479917Y0257528D02*
X0478870Y0258575D01*
X0478347Y0259621D01*
X0476762Y0257528D02*
X0476239Y0257528D01*
X0474146Y0259621D01*
X0473622Y0259621D01*
X0473622Y0257528D01*
X0473622Y0254950D02*
X0476762Y0254950D01*
X0476762Y0255996D02*
X0476762Y0253903D01*
X0476762Y0252371D02*
X0475716Y0251325D01*
X0475716Y0251848D02*
X0475716Y0250278D01*
X0476762Y0250278D02*
X0473622Y0250278D01*
X0473622Y0251848D01*
X0474146Y0252371D01*
X0475192Y0252371D01*
X0475716Y0251848D01*
X0474669Y0253903D02*
X0473622Y0254950D01*
X0489576Y0276262D02*
X0488921Y0276917D01*
X0489576Y0276262D02*
X0490885Y0276262D01*
X0491540Y0276917D01*
X0491540Y0277571D01*
X0490885Y0278226D01*
X0489576Y0278226D01*
X0488921Y0278881D01*
X0488921Y0279535D01*
X0489576Y0280190D01*
X0490885Y0280190D01*
X0491540Y0279535D01*
X0493271Y0280190D02*
X0493271Y0276262D01*
X0494580Y0277571D01*
X0495890Y0276262D01*
X0495890Y0280190D01*
X0497621Y0278881D02*
X0498931Y0280190D01*
X0498931Y0276262D01*
X0500240Y0276262D02*
X0497621Y0276262D01*
X0512917Y0265362D02*
X0512917Y0262744D01*
X0513572Y0262089D01*
X0514881Y0262089D01*
X0515536Y0262744D01*
X0517267Y0262744D02*
X0517922Y0262089D01*
X0519231Y0262089D01*
X0519886Y0262744D01*
X0519886Y0265362D01*
X0519231Y0266017D01*
X0517922Y0266017D01*
X0517267Y0265362D01*
X0517267Y0262744D01*
X0515536Y0265362D02*
X0514881Y0266017D01*
X0513572Y0266017D01*
X0512917Y0265362D01*
X0521618Y0266017D02*
X0524236Y0262089D01*
X0524236Y0266017D01*
X0525968Y0265362D02*
X0526622Y0266017D01*
X0527932Y0266017D01*
X0528586Y0265362D01*
X0528586Y0264707D01*
X0525968Y0262089D01*
X0528586Y0262089D01*
X0521618Y0262089D02*
X0521618Y0266017D01*
X0511022Y0291223D02*
X0511545Y0291746D01*
X0511545Y0293839D01*
X0511022Y0294363D01*
X0509452Y0294363D01*
X0509452Y0291223D01*
X0511022Y0291223D01*
X0507920Y0291223D02*
X0506873Y0292269D01*
X0507397Y0292269D02*
X0505827Y0292269D01*
X0505827Y0291223D02*
X0505827Y0294363D01*
X0507397Y0294363D01*
X0507920Y0293839D01*
X0507920Y0292793D01*
X0507397Y0292269D01*
X0513572Y0309333D02*
X0514881Y0309333D01*
X0515536Y0309988D01*
X0517267Y0309988D02*
X0517922Y0309333D01*
X0519231Y0309333D01*
X0519886Y0309988D01*
X0519886Y0312606D01*
X0519231Y0313261D01*
X0517922Y0313261D01*
X0517267Y0312606D01*
X0517267Y0309988D01*
X0515536Y0312606D02*
X0514881Y0313261D01*
X0513572Y0313261D01*
X0512917Y0312606D01*
X0512917Y0309988D01*
X0513572Y0309333D01*
X0521618Y0309333D02*
X0521618Y0313261D01*
X0524236Y0309333D01*
X0524236Y0313261D01*
X0525968Y0311952D02*
X0527277Y0313261D01*
X0527277Y0309333D01*
X0525968Y0309333D02*
X0528586Y0309333D01*
X0473094Y0294890D02*
X0472439Y0295544D01*
X0471130Y0295544D01*
X0470475Y0294890D01*
X0468744Y0295544D02*
X0467435Y0295544D01*
X0468089Y0295544D02*
X0468089Y0292271D01*
X0467435Y0291617D01*
X0466780Y0291617D01*
X0466125Y0292271D01*
X0470475Y0291617D02*
X0473094Y0294235D01*
X0473094Y0294890D01*
X0473094Y0291617D02*
X0470475Y0291617D01*
X0444167Y0296735D02*
X0441548Y0296735D01*
X0444167Y0299353D01*
X0444167Y0300008D01*
X0443512Y0300662D01*
X0442203Y0300662D01*
X0441548Y0300008D01*
X0438507Y0300662D02*
X0438507Y0296735D01*
X0437198Y0296735D02*
X0439817Y0296735D01*
X0437198Y0299353D02*
X0438507Y0300662D01*
X0435466Y0300008D02*
X0434812Y0300662D01*
X0433502Y0300662D01*
X0432848Y0300008D01*
X0432848Y0297389D01*
X0433502Y0296735D01*
X0434812Y0296735D01*
X0435466Y0297389D01*
X0433712Y0284521D02*
X0432403Y0284521D01*
X0431749Y0283866D01*
X0431749Y0281248D01*
X0432403Y0280593D01*
X0433712Y0280593D01*
X0434367Y0281248D01*
X0436099Y0281248D02*
X0436753Y0280593D01*
X0438063Y0280593D01*
X0438717Y0281248D01*
X0438717Y0281902D01*
X0438063Y0282557D01*
X0436099Y0282557D01*
X0436099Y0281248D01*
X0436099Y0282557D02*
X0437408Y0283866D01*
X0438717Y0284521D01*
X0434367Y0283866D02*
X0433712Y0284521D01*
X0430158Y0284521D02*
X0428848Y0284521D01*
X0429503Y0284521D02*
X0429503Y0280593D01*
X0428848Y0280593D02*
X0430158Y0280593D01*
X0435471Y0269954D02*
X0434816Y0269299D01*
X0434816Y0266681D01*
X0435471Y0266026D01*
X0436780Y0266026D01*
X0437435Y0266681D01*
X0439167Y0266026D02*
X0441785Y0266026D01*
X0440476Y0266026D02*
X0440476Y0269954D01*
X0439167Y0268644D01*
X0437435Y0269299D02*
X0436780Y0269954D01*
X0435471Y0269954D01*
X0443517Y0267990D02*
X0446135Y0267990D01*
X0445481Y0269954D02*
X0443517Y0267990D01*
X0445481Y0266026D02*
X0445481Y0269954D01*
X0428337Y0265078D02*
X0428337Y0264031D01*
X0427814Y0263508D01*
X0426767Y0263508D02*
X0426244Y0264554D01*
X0426244Y0265078D01*
X0426767Y0265601D01*
X0427814Y0265601D01*
X0428337Y0265078D01*
X0426767Y0263508D02*
X0425197Y0263508D01*
X0425197Y0265601D01*
X0426767Y0261976D02*
X0426767Y0259883D01*
X0425197Y0261453D01*
X0428337Y0261453D01*
X0428337Y0258351D02*
X0427290Y0257304D01*
X0427290Y0257827D02*
X0427290Y0256258D01*
X0428337Y0256258D02*
X0425197Y0256258D01*
X0425197Y0257827D01*
X0425720Y0258351D01*
X0426767Y0258351D01*
X0427290Y0257827D01*
X0416920Y0258351D02*
X0415873Y0257304D01*
X0415873Y0257827D02*
X0415873Y0256258D01*
X0416920Y0256258D02*
X0413780Y0256258D01*
X0413780Y0257827D01*
X0414303Y0258351D01*
X0415350Y0258351D01*
X0415873Y0257827D01*
X0415350Y0259883D02*
X0415350Y0261976D01*
X0415350Y0263508D02*
X0415350Y0265078D01*
X0415873Y0265601D01*
X0416396Y0265601D01*
X0416920Y0265078D01*
X0416920Y0264031D01*
X0416396Y0263508D01*
X0415350Y0263508D01*
X0414303Y0264554D01*
X0413780Y0265601D01*
X0413780Y0261453D02*
X0415350Y0259883D01*
X0416920Y0261453D02*
X0413780Y0261453D01*
X0401172Y0261882D02*
X0401172Y0264501D01*
X0401172Y0263192D02*
X0397244Y0263192D01*
X0398553Y0261882D01*
X0397898Y0260151D02*
X0397244Y0259496D01*
X0397244Y0258187D01*
X0397898Y0257532D01*
X0400517Y0257532D01*
X0401172Y0258187D01*
X0401172Y0259496D01*
X0400517Y0260151D01*
X0400517Y0266233D02*
X0401172Y0266887D01*
X0401172Y0268196D01*
X0400517Y0268851D01*
X0399862Y0268851D01*
X0399208Y0268196D01*
X0399208Y0266233D01*
X0400517Y0266233D01*
X0399208Y0266233D02*
X0397898Y0267542D01*
X0397244Y0268851D01*
X0380968Y0278098D02*
X0380313Y0277443D01*
X0379004Y0277443D01*
X0378349Y0278098D01*
X0378349Y0278753D01*
X0379004Y0279407D01*
X0380313Y0279407D01*
X0380968Y0278753D01*
X0380968Y0278098D01*
X0380313Y0279407D02*
X0380968Y0280062D01*
X0380968Y0280716D01*
X0380313Y0281371D01*
X0379004Y0281371D01*
X0378349Y0280716D01*
X0378349Y0280062D01*
X0379004Y0279407D01*
X0376618Y0278098D02*
X0375963Y0277443D01*
X0374654Y0277443D01*
X0373999Y0278098D01*
X0373999Y0280716D01*
X0374654Y0281371D01*
X0375963Y0281371D01*
X0376618Y0280716D01*
X0365489Y0269299D02*
X0365489Y0268644D01*
X0364834Y0267990D01*
X0363525Y0267990D01*
X0362870Y0268644D01*
X0362870Y0269299D01*
X0363525Y0269954D01*
X0364834Y0269954D01*
X0365489Y0269299D01*
X0364834Y0267990D02*
X0365489Y0267335D01*
X0365489Y0266681D01*
X0364834Y0266026D01*
X0363525Y0266026D01*
X0362870Y0266681D01*
X0362870Y0267335D01*
X0363525Y0267990D01*
X0361139Y0269299D02*
X0360484Y0269954D01*
X0359175Y0269954D01*
X0358520Y0269299D01*
X0358520Y0266681D01*
X0359175Y0266026D01*
X0360484Y0266026D01*
X0361139Y0266681D01*
X0356929Y0266026D02*
X0355620Y0266026D01*
X0356275Y0266026D02*
X0356275Y0269954D01*
X0356929Y0269954D02*
X0355620Y0269954D01*
X0354235Y0256174D02*
X0354235Y0252246D01*
X0351617Y0256174D01*
X0351617Y0252246D01*
X0349885Y0252901D02*
X0349885Y0255520D01*
X0349230Y0256174D01*
X0347921Y0256174D01*
X0347267Y0255520D01*
X0347267Y0252901D01*
X0347921Y0252246D01*
X0349230Y0252246D01*
X0349885Y0252901D01*
X0345535Y0252901D02*
X0344880Y0252246D01*
X0343571Y0252246D01*
X0342916Y0252901D01*
X0342916Y0255520D01*
X0343571Y0256174D01*
X0344880Y0256174D01*
X0345535Y0255520D01*
X0355967Y0254210D02*
X0357931Y0254210D01*
X0358585Y0253556D01*
X0358585Y0252901D01*
X0357931Y0252246D01*
X0356622Y0252246D01*
X0355967Y0252901D01*
X0355967Y0254210D01*
X0357276Y0255520D01*
X0358585Y0256174D01*
X0366913Y0253945D02*
X0366913Y0251326D01*
X0367567Y0250672D01*
X0368877Y0250672D01*
X0369531Y0251326D01*
X0371263Y0251326D02*
X0371917Y0250672D01*
X0373227Y0250672D01*
X0373881Y0251326D01*
X0373881Y0251981D01*
X0373227Y0252636D01*
X0371263Y0252636D01*
X0371263Y0251326D01*
X0371263Y0252636D02*
X0372572Y0253945D01*
X0373881Y0254599D01*
X0369531Y0253945D02*
X0368877Y0254599D01*
X0367567Y0254599D01*
X0366913Y0253945D01*
X0383573Y0244757D02*
X0384882Y0244757D01*
X0384227Y0244757D02*
X0384227Y0240829D01*
X0383573Y0240829D02*
X0384882Y0240829D01*
X0386473Y0241484D02*
X0387128Y0240829D01*
X0388437Y0240829D01*
X0389091Y0241484D01*
X0390823Y0242793D02*
X0393442Y0242793D01*
X0392787Y0240829D02*
X0392787Y0244757D01*
X0390823Y0242793D01*
X0389091Y0244102D02*
X0388437Y0244757D01*
X0387128Y0244757D01*
X0386473Y0244102D01*
X0386473Y0241484D01*
X0392129Y0238851D02*
X0393699Y0238851D01*
X0394222Y0238327D01*
X0394222Y0237281D01*
X0393699Y0236758D01*
X0392129Y0236758D01*
X0393176Y0236758D02*
X0394222Y0235711D01*
X0395754Y0235711D02*
X0397847Y0235711D01*
X0396801Y0235711D02*
X0396801Y0238851D01*
X0395754Y0237804D01*
X0395672Y0240435D02*
X0395672Y0243575D01*
X0397242Y0243575D01*
X0397765Y0243052D01*
X0397765Y0242005D01*
X0397242Y0241482D01*
X0395672Y0241482D01*
X0396719Y0241482D02*
X0397765Y0240435D01*
X0399297Y0240959D02*
X0399821Y0240435D01*
X0400867Y0240435D01*
X0401391Y0240959D01*
X0401391Y0241482D01*
X0400867Y0242005D01*
X0399297Y0242005D01*
X0399297Y0240959D01*
X0399297Y0242005D02*
X0400344Y0243052D01*
X0401391Y0243575D01*
X0400867Y0245160D02*
X0399821Y0245160D01*
X0399297Y0245683D01*
X0399297Y0246730D02*
X0400344Y0247253D01*
X0400867Y0247253D01*
X0401391Y0246730D01*
X0401391Y0245683D01*
X0400867Y0245160D01*
X0399297Y0246730D02*
X0399297Y0248300D01*
X0401391Y0248300D01*
X0401472Y0249884D02*
X0399379Y0249884D01*
X0400426Y0249884D02*
X0400426Y0253024D01*
X0399379Y0251977D01*
X0397847Y0249884D02*
X0395754Y0249884D01*
X0396801Y0249884D02*
X0396801Y0253024D01*
X0395754Y0251977D01*
X0394222Y0251454D02*
X0393699Y0250931D01*
X0392129Y0250931D01*
X0393176Y0250931D02*
X0394222Y0249884D01*
X0394222Y0251454D02*
X0394222Y0252501D01*
X0393699Y0253024D01*
X0392129Y0253024D01*
X0392129Y0249884D01*
X0395672Y0248300D02*
X0395672Y0245160D01*
X0395672Y0246206D02*
X0397242Y0246206D01*
X0397765Y0246730D01*
X0397765Y0247776D01*
X0397242Y0248300D01*
X0395672Y0248300D01*
X0396719Y0246206D02*
X0397765Y0245160D01*
X0399903Y0238851D02*
X0399379Y0238327D01*
X0399903Y0238851D02*
X0400949Y0238851D01*
X0401472Y0238327D01*
X0401472Y0237804D01*
X0399379Y0235711D01*
X0401472Y0235711D01*
X0392129Y0235711D02*
X0392129Y0238851D01*
X0433468Y0242404D02*
X0434777Y0242404D01*
X0434122Y0242404D02*
X0434122Y0246332D01*
X0433468Y0246332D02*
X0434777Y0246332D01*
X0436368Y0245677D02*
X0436368Y0243059D01*
X0437022Y0242404D01*
X0438332Y0242404D01*
X0438986Y0243059D01*
X0440718Y0242404D02*
X0443336Y0242404D01*
X0442027Y0242404D02*
X0442027Y0246332D01*
X0440718Y0245022D01*
X0438986Y0245677D02*
X0438332Y0246332D01*
X0437022Y0246332D01*
X0436368Y0245677D01*
X0402524Y0284530D02*
X0401477Y0284530D01*
X0400954Y0285053D01*
X0403047Y0287146D01*
X0403047Y0285053D01*
X0402524Y0284530D01*
X0400954Y0285053D02*
X0400954Y0287146D01*
X0401477Y0287670D01*
X0402524Y0287670D01*
X0403047Y0287146D01*
X0399422Y0284530D02*
X0397329Y0284530D01*
X0398375Y0284530D02*
X0398375Y0287670D01*
X0397329Y0286623D01*
X0395797Y0286100D02*
X0395274Y0285576D01*
X0393704Y0285576D01*
X0393704Y0284530D02*
X0393704Y0287670D01*
X0395274Y0287670D01*
X0395797Y0287146D01*
X0395797Y0286100D01*
X0394750Y0285576D02*
X0395797Y0284530D01*
X0395797Y0289254D02*
X0394750Y0290301D01*
X0395274Y0290301D02*
X0393704Y0290301D01*
X0393704Y0289254D02*
X0393704Y0292394D01*
X0395274Y0292394D01*
X0395797Y0291871D01*
X0395797Y0290824D01*
X0395274Y0290301D01*
X0397329Y0290824D02*
X0399422Y0290824D01*
X0398899Y0289254D02*
X0398899Y0292394D01*
X0397329Y0290824D01*
X0397852Y0293979D02*
X0397329Y0294502D01*
X0397852Y0293979D02*
X0398899Y0293979D01*
X0399422Y0294502D01*
X0399422Y0295025D01*
X0398899Y0295549D01*
X0398375Y0295549D01*
X0398899Y0295549D02*
X0399422Y0296072D01*
X0399422Y0296595D01*
X0398899Y0297118D01*
X0397852Y0297118D01*
X0397329Y0296595D01*
X0395797Y0296595D02*
X0395797Y0295549D01*
X0395274Y0295025D01*
X0393704Y0295025D01*
X0393704Y0293979D02*
X0393704Y0297118D01*
X0395274Y0297118D01*
X0395797Y0296595D01*
X0394750Y0295025D02*
X0395797Y0293979D01*
X0395797Y0298703D02*
X0394750Y0299750D01*
X0395274Y0299750D02*
X0393704Y0299750D01*
X0393704Y0298703D02*
X0393704Y0301843D01*
X0395274Y0301843D01*
X0395797Y0301320D01*
X0395797Y0300273D01*
X0395274Y0299750D01*
X0397329Y0299226D02*
X0397852Y0298703D01*
X0398899Y0298703D01*
X0399422Y0299226D01*
X0399422Y0301320D01*
X0398899Y0301843D01*
X0397852Y0301843D01*
X0397329Y0301320D01*
X0397329Y0300796D01*
X0397852Y0300273D01*
X0399422Y0300273D01*
X0392787Y0311695D02*
X0391478Y0311695D01*
X0390823Y0312350D01*
X0389091Y0312350D02*
X0388437Y0311695D01*
X0387128Y0311695D01*
X0386473Y0312350D01*
X0386473Y0314968D01*
X0387128Y0315623D01*
X0388437Y0315623D01*
X0389091Y0314968D01*
X0390823Y0314968D02*
X0391478Y0315623D01*
X0392787Y0315623D01*
X0393442Y0314968D01*
X0393442Y0314314D01*
X0392787Y0313659D01*
X0393442Y0313005D01*
X0393442Y0312350D01*
X0392787Y0311695D01*
X0392787Y0313659D02*
X0392132Y0313659D01*
X0384882Y0311695D02*
X0383573Y0311695D01*
X0384227Y0311695D02*
X0384227Y0315623D01*
X0383573Y0315623D02*
X0384882Y0315623D01*
X0373881Y0322192D02*
X0373227Y0321538D01*
X0371917Y0321538D01*
X0371263Y0322192D01*
X0371263Y0323502D02*
X0372572Y0324156D01*
X0373227Y0324156D01*
X0373881Y0323502D01*
X0373881Y0322192D01*
X0371263Y0323502D02*
X0371263Y0325466D01*
X0373881Y0325466D01*
X0369531Y0324811D02*
X0368877Y0325466D01*
X0367567Y0325466D01*
X0366913Y0324811D01*
X0366913Y0322192D01*
X0367567Y0321538D01*
X0368877Y0321538D01*
X0369531Y0322192D01*
X0358585Y0323767D02*
X0357931Y0323113D01*
X0356622Y0323113D01*
X0355967Y0323767D01*
X0355967Y0325076D02*
X0357276Y0325731D01*
X0357931Y0325731D01*
X0358585Y0325076D01*
X0358585Y0323767D01*
X0355967Y0325076D02*
X0355967Y0327040D01*
X0358585Y0327040D01*
X0354235Y0327040D02*
X0354235Y0323113D01*
X0351617Y0327040D01*
X0351617Y0323113D01*
X0349885Y0323767D02*
X0349885Y0326386D01*
X0349230Y0327040D01*
X0347921Y0327040D01*
X0347267Y0326386D01*
X0347267Y0323767D01*
X0347921Y0323113D01*
X0349230Y0323113D01*
X0349885Y0323767D01*
X0345535Y0323767D02*
X0344880Y0323113D01*
X0343571Y0323113D01*
X0342916Y0323767D01*
X0342916Y0326386D01*
X0343571Y0327040D01*
X0344880Y0327040D01*
X0345535Y0326386D01*
X0372943Y0348703D02*
X0374252Y0348703D01*
X0373598Y0348703D02*
X0373598Y0352631D01*
X0374252Y0352631D02*
X0372943Y0352631D01*
X0375843Y0351976D02*
X0375843Y0349358D01*
X0376498Y0348703D01*
X0377807Y0348703D01*
X0378462Y0349358D01*
X0380193Y0349358D02*
X0380193Y0348703D01*
X0380193Y0349358D02*
X0382812Y0351976D01*
X0382812Y0352631D01*
X0380193Y0352631D01*
X0378462Y0351976D02*
X0377807Y0352631D01*
X0376498Y0352631D01*
X0375843Y0351976D01*
X0391338Y0352059D02*
X0393302Y0352059D01*
X0392648Y0353369D01*
X0392648Y0354023D01*
X0393302Y0354678D01*
X0394611Y0354678D01*
X0395266Y0354023D01*
X0395266Y0352714D01*
X0394611Y0352059D01*
X0395266Y0350328D02*
X0395266Y0347709D01*
X0395266Y0349018D02*
X0391338Y0349018D01*
X0392648Y0347709D01*
X0391993Y0345977D02*
X0391338Y0345323D01*
X0391338Y0344014D01*
X0391993Y0343359D01*
X0394611Y0343359D01*
X0395266Y0344014D01*
X0395266Y0345323D01*
X0394611Y0345977D01*
X0398530Y0349489D02*
X0399710Y0348309D01*
X0402070Y0348309D01*
X0403250Y0349489D01*
X0403250Y0355390D01*
X0405780Y0354209D02*
X0405780Y0353029D01*
X0406960Y0351849D01*
X0409320Y0351849D01*
X0410500Y0350669D01*
X0410500Y0349489D01*
X0409320Y0348309D01*
X0406960Y0348309D01*
X0405780Y0349489D01*
X0405780Y0354209D02*
X0406960Y0355390D01*
X0409320Y0355390D01*
X0410500Y0354209D01*
X0413030Y0355390D02*
X0416571Y0355390D01*
X0417751Y0354209D01*
X0417751Y0353029D01*
X0416571Y0351849D01*
X0413030Y0351849D01*
X0413030Y0348309D02*
X0416571Y0348309D01*
X0417751Y0349489D01*
X0417751Y0350669D01*
X0416571Y0351849D01*
X0420281Y0351849D02*
X0423821Y0355390D01*
X0423821Y0348309D01*
X0427531Y0348309D02*
X0432251Y0353029D01*
X0434781Y0354209D02*
X0435961Y0355390D01*
X0438321Y0355390D01*
X0439501Y0354209D01*
X0439501Y0353029D01*
X0438321Y0351849D01*
X0439501Y0350669D01*
X0439501Y0349489D01*
X0438321Y0348309D01*
X0435961Y0348309D01*
X0434781Y0349489D01*
X0432251Y0348309D02*
X0427531Y0353029D01*
X0425001Y0351849D02*
X0420281Y0351849D01*
X0413030Y0348309D02*
X0413030Y0355390D01*
X0398530Y0355390D02*
X0398530Y0349489D01*
X0391338Y0352059D02*
X0391338Y0354678D01*
X0389661Y0381774D02*
X0389661Y0386494D01*
X0393201Y0386494D01*
X0394381Y0385314D01*
X0394381Y0381774D01*
X0396912Y0382954D02*
X0396912Y0385314D01*
X0398092Y0386494D01*
X0400452Y0386494D01*
X0401632Y0385314D01*
X0401632Y0384134D01*
X0396912Y0384134D01*
X0396912Y0382954D02*
X0398092Y0381774D01*
X0400452Y0381774D01*
X0404162Y0381774D02*
X0407702Y0381774D01*
X0408882Y0382954D01*
X0407702Y0384134D01*
X0405342Y0384134D01*
X0404162Y0385314D01*
X0405342Y0386494D01*
X0408882Y0386494D01*
X0411412Y0385314D02*
X0412592Y0386494D01*
X0416132Y0386494D01*
X0414952Y0384134D02*
X0412592Y0384134D01*
X0411412Y0385314D01*
X0411412Y0381774D02*
X0414952Y0381774D01*
X0416132Y0382954D01*
X0414952Y0384134D01*
X0425913Y0386494D02*
X0428273Y0386494D01*
X0427093Y0387674D02*
X0427093Y0382954D01*
X0428273Y0381774D01*
X0430746Y0384134D02*
X0435466Y0384134D01*
X0435466Y0386494D02*
X0430746Y0386494D01*
X0437997Y0386494D02*
X0440357Y0388854D01*
X0440357Y0381774D01*
X0437997Y0381774D02*
X0442717Y0381774D01*
X0445247Y0381774D02*
X0446427Y0381774D01*
X0446427Y0382954D01*
X0445247Y0382954D01*
X0445247Y0381774D01*
X0448872Y0381774D02*
X0453592Y0386494D01*
X0453592Y0387674D01*
X0452412Y0388854D01*
X0450052Y0388854D01*
X0448872Y0387674D01*
X0456122Y0386494D02*
X0457302Y0386494D01*
X0458482Y0385314D01*
X0459662Y0386494D01*
X0460842Y0385314D01*
X0460842Y0381774D01*
X0458482Y0381774D02*
X0458482Y0385314D01*
X0456122Y0386494D02*
X0456122Y0381774D01*
X0453592Y0381774D02*
X0448872Y0381774D01*
X0463373Y0381774D02*
X0463373Y0386494D01*
X0464553Y0386494D01*
X0465733Y0385314D01*
X0466913Y0386494D01*
X0468093Y0385314D01*
X0468093Y0381774D01*
X0465733Y0381774D02*
X0465733Y0385314D01*
X0460072Y0355390D02*
X0456532Y0355390D01*
X0456532Y0348309D01*
X0460072Y0348309D01*
X0461252Y0349489D01*
X0461252Y0350669D01*
X0460072Y0351849D01*
X0456532Y0351849D01*
X0454002Y0349489D02*
X0454002Y0355390D01*
X0449282Y0355390D02*
X0449282Y0349489D01*
X0450462Y0348309D01*
X0452822Y0348309D01*
X0454002Y0349489D01*
X0460072Y0351849D02*
X0461252Y0353029D01*
X0461252Y0354209D01*
X0460072Y0355390D01*
X0446752Y0355390D02*
X0446752Y0348309D01*
X0446752Y0351849D02*
X0442032Y0351849D01*
X0442032Y0348309D02*
X0442032Y0355390D01*
X0438321Y0351849D02*
X0437141Y0351849D01*
X0423960Y0329403D02*
X0423960Y0325475D01*
X0422651Y0325475D02*
X0425269Y0325475D01*
X0422651Y0328093D02*
X0423960Y0329403D01*
X0419610Y0329403D02*
X0419610Y0325475D01*
X0420919Y0325475D02*
X0418300Y0325475D01*
X0416569Y0326129D02*
X0415914Y0325475D01*
X0414605Y0325475D01*
X0413950Y0326129D01*
X0413950Y0328748D01*
X0414605Y0329403D01*
X0415914Y0329403D01*
X0416569Y0328748D01*
X0418300Y0328093D02*
X0419610Y0329403D01*
X0458251Y0316287D02*
X0458906Y0315632D01*
X0459561Y0315632D01*
X0460215Y0316287D01*
X0460215Y0319560D01*
X0459561Y0319560D02*
X0460870Y0319560D01*
X0462601Y0318251D02*
X0463911Y0319560D01*
X0463911Y0315632D01*
X0465220Y0315632D02*
X0462601Y0315632D01*
X0387159Y0381774D02*
X0383619Y0384134D01*
X0387159Y0386494D01*
X0383619Y0388854D02*
X0383619Y0381774D01*
X0381089Y0381774D02*
X0377549Y0381774D01*
X0376369Y0382954D01*
X0376369Y0385314D01*
X0377549Y0386494D01*
X0381089Y0386494D01*
X0372716Y0386494D02*
X0372716Y0381774D01*
X0371536Y0381774D02*
X0373896Y0381774D01*
X0372716Y0386494D02*
X0371536Y0386494D01*
X0372716Y0388854D02*
X0372716Y0390034D01*
X0369005Y0385314D02*
X0369005Y0381774D01*
X0369005Y0385314D02*
X0367825Y0386494D01*
X0365465Y0386494D01*
X0364285Y0385314D01*
X0361812Y0386494D02*
X0359452Y0386494D01*
X0360632Y0387674D02*
X0360632Y0382954D01*
X0361812Y0381774D01*
X0364285Y0381774D02*
X0364285Y0388854D01*
X0374654Y0210505D02*
X0373999Y0209850D01*
X0373999Y0207232D01*
X0374654Y0206577D01*
X0375963Y0206577D01*
X0376618Y0207232D01*
X0378349Y0207232D02*
X0379004Y0206577D01*
X0380313Y0206577D01*
X0380968Y0207232D01*
X0380968Y0209850D01*
X0380313Y0210505D01*
X0379004Y0210505D01*
X0378349Y0209850D01*
X0378349Y0209196D01*
X0379004Y0208541D01*
X0380968Y0208541D01*
X0376618Y0209850D02*
X0375963Y0210505D01*
X0374654Y0210505D01*
X0365228Y0199088D02*
X0363919Y0199088D01*
X0363264Y0198433D01*
X0363264Y0197778D01*
X0363919Y0197124D01*
X0365883Y0197124D01*
X0365883Y0198433D02*
X0365883Y0195814D01*
X0365228Y0195160D01*
X0363919Y0195160D01*
X0363264Y0195814D01*
X0361532Y0195814D02*
X0360878Y0195160D01*
X0359569Y0195160D01*
X0358914Y0195814D01*
X0358914Y0198433D01*
X0359569Y0199088D01*
X0360878Y0199088D01*
X0361532Y0198433D01*
X0365228Y0199088D02*
X0365883Y0198433D01*
X0357323Y0199088D02*
X0356014Y0199088D01*
X0356668Y0199088D02*
X0356668Y0195160D01*
X0356014Y0195160D02*
X0357323Y0195160D01*
X0358585Y0185308D02*
X0358585Y0184653D01*
X0355967Y0182035D01*
X0355967Y0181380D01*
X0354235Y0181380D02*
X0354235Y0185308D01*
X0355967Y0185308D02*
X0358585Y0185308D01*
X0354235Y0181380D02*
X0351617Y0185308D01*
X0351617Y0181380D01*
X0349885Y0182035D02*
X0349885Y0184653D01*
X0349230Y0185308D01*
X0347921Y0185308D01*
X0347267Y0184653D01*
X0347267Y0182035D01*
X0347921Y0181380D01*
X0349230Y0181380D01*
X0349885Y0182035D01*
X0345535Y0182035D02*
X0344880Y0181380D01*
X0343571Y0181380D01*
X0342916Y0182035D01*
X0342916Y0184653D01*
X0343571Y0185308D01*
X0344880Y0185308D01*
X0345535Y0184653D01*
X0366913Y0183079D02*
X0366913Y0180460D01*
X0367567Y0179806D01*
X0368877Y0179806D01*
X0369531Y0180460D01*
X0371263Y0180460D02*
X0371263Y0179806D01*
X0371263Y0180460D02*
X0373881Y0183079D01*
X0373881Y0183733D01*
X0371263Y0183733D01*
X0369531Y0183079D02*
X0368877Y0183733D01*
X0367567Y0183733D01*
X0366913Y0183079D01*
X0384360Y0173891D02*
X0385670Y0173891D01*
X0385015Y0173891D02*
X0385015Y0169963D01*
X0384360Y0169963D02*
X0385670Y0169963D01*
X0387260Y0170618D02*
X0387915Y0169963D01*
X0389224Y0169963D01*
X0389879Y0170618D01*
X0391611Y0170618D02*
X0392265Y0169963D01*
X0393574Y0169963D01*
X0394229Y0170618D01*
X0394229Y0171927D01*
X0393574Y0172581D01*
X0392920Y0172581D01*
X0391611Y0171927D01*
X0391611Y0173891D01*
X0394229Y0173891D01*
X0389879Y0173236D02*
X0389224Y0173891D01*
X0387915Y0173891D01*
X0387260Y0173236D01*
X0387260Y0170618D01*
X0387352Y0164441D02*
X0386305Y0163395D01*
X0387352Y0164441D02*
X0387352Y0161302D01*
X0388398Y0161302D02*
X0386305Y0161302D01*
X0384773Y0161302D02*
X0383727Y0162348D01*
X0384250Y0162348D02*
X0382680Y0162348D01*
X0382680Y0161302D02*
X0382680Y0164441D01*
X0384250Y0164441D01*
X0384773Y0163918D01*
X0384773Y0162871D01*
X0384250Y0162348D01*
X0389930Y0161825D02*
X0390454Y0161302D01*
X0391500Y0161302D01*
X0392024Y0161825D01*
X0392024Y0162348D01*
X0391500Y0162871D01*
X0390977Y0162871D01*
X0391500Y0162871D02*
X0392024Y0163395D01*
X0392024Y0163918D01*
X0391500Y0164441D01*
X0390454Y0164441D01*
X0389930Y0163918D01*
X0400394Y0159695D02*
X0400917Y0159695D01*
X0403010Y0157602D01*
X0403534Y0157602D01*
X0405118Y0158126D02*
X0405118Y0159172D01*
X0405642Y0159695D01*
X0407735Y0157602D01*
X0408258Y0158126D01*
X0408258Y0159172D01*
X0407735Y0159695D01*
X0405642Y0159695D01*
X0405118Y0158126D02*
X0405642Y0157602D01*
X0407735Y0157602D01*
X0406688Y0156070D02*
X0406688Y0153977D01*
X0405118Y0155547D01*
X0408258Y0155547D01*
X0403534Y0155547D02*
X0400394Y0155547D01*
X0401964Y0153977D01*
X0401964Y0156070D01*
X0400394Y0157602D02*
X0400394Y0159695D01*
X0399422Y0155386D02*
X0399422Y0154863D01*
X0397329Y0152770D01*
X0397329Y0152246D01*
X0395797Y0152246D02*
X0394750Y0153293D01*
X0395274Y0153293D02*
X0393704Y0153293D01*
X0393704Y0152246D02*
X0393704Y0155386D01*
X0395274Y0155386D01*
X0395797Y0154863D01*
X0395797Y0153816D01*
X0395274Y0153293D01*
X0395274Y0150662D02*
X0393704Y0150662D01*
X0393704Y0147522D01*
X0393704Y0148569D02*
X0395274Y0148569D01*
X0395797Y0149092D01*
X0395797Y0150138D01*
X0395274Y0150662D01*
X0394750Y0148569D02*
X0395797Y0147522D01*
X0400394Y0150352D02*
X0403534Y0150352D01*
X0402524Y0145937D02*
X0400954Y0144367D01*
X0403047Y0144367D01*
X0402524Y0142798D02*
X0402524Y0145937D01*
X0399422Y0155386D02*
X0397329Y0155386D01*
X0419292Y0158126D02*
X0419815Y0157602D01*
X0419292Y0158126D02*
X0419292Y0159172D01*
X0419815Y0159695D01*
X0420338Y0159695D01*
X0422431Y0157602D01*
X0422431Y0159695D01*
X0429605Y0171931D02*
X0429605Y0175071D01*
X0431175Y0175071D01*
X0431698Y0174548D01*
X0431698Y0173501D01*
X0431175Y0172978D01*
X0429605Y0172978D01*
X0430651Y0172978D02*
X0431698Y0171931D01*
X0433230Y0171931D02*
X0435323Y0174025D01*
X0435323Y0174548D01*
X0434800Y0175071D01*
X0433753Y0175071D01*
X0433230Y0174548D01*
X0433230Y0171931D02*
X0435323Y0171931D01*
X0436855Y0173501D02*
X0438948Y0173501D01*
X0438425Y0171931D02*
X0438425Y0175071D01*
X0436855Y0173501D01*
X0441653Y0174687D02*
X0441653Y0177827D01*
X0443223Y0177827D01*
X0443747Y0177304D01*
X0443747Y0176257D01*
X0443223Y0175734D01*
X0441653Y0175734D01*
X0442700Y0175734D02*
X0443747Y0174687D01*
X0445279Y0174687D02*
X0447372Y0176781D01*
X0447372Y0177304D01*
X0446848Y0177827D01*
X0445802Y0177827D01*
X0445279Y0177304D01*
X0445279Y0174687D02*
X0447372Y0174687D01*
X0437136Y0183743D02*
X0435042Y0183743D01*
X0436089Y0183743D02*
X0436089Y0186882D01*
X0435042Y0185836D01*
X0433510Y0186359D02*
X0433510Y0184266D01*
X0432987Y0183743D01*
X0431941Y0183743D01*
X0431417Y0184266D01*
X0431417Y0186359D01*
X0431941Y0186882D01*
X0432987Y0186882D01*
X0433510Y0186359D01*
X0432464Y0184789D02*
X0433510Y0183743D01*
X0433983Y0192872D02*
X0433983Y0194442D01*
X0433460Y0194965D01*
X0432413Y0194965D01*
X0431890Y0194442D01*
X0431890Y0192872D01*
X0435030Y0192872D01*
X0433983Y0193918D02*
X0435030Y0194965D01*
X0434507Y0196497D02*
X0435030Y0197020D01*
X0435030Y0198067D01*
X0434507Y0198590D01*
X0433983Y0198590D01*
X0433460Y0198067D01*
X0433460Y0197543D01*
X0433460Y0198067D02*
X0432937Y0198590D01*
X0432413Y0198590D01*
X0431890Y0198067D01*
X0431890Y0197020D01*
X0432413Y0196497D01*
X0432413Y0200122D02*
X0432937Y0200122D01*
X0433460Y0200645D01*
X0433460Y0201692D01*
X0433983Y0202215D01*
X0434507Y0202215D01*
X0435030Y0201692D01*
X0435030Y0200645D01*
X0434507Y0200122D01*
X0433983Y0200122D01*
X0433460Y0200645D01*
X0433460Y0201692D02*
X0432937Y0202215D01*
X0432413Y0202215D01*
X0431890Y0201692D01*
X0431890Y0200645D01*
X0432413Y0200122D01*
X0419282Y0200252D02*
X0418758Y0199728D01*
X0419282Y0200252D02*
X0419282Y0201298D01*
X0418758Y0201821D01*
X0417712Y0201821D01*
X0417189Y0201298D01*
X0417189Y0200775D01*
X0417712Y0199728D01*
X0416142Y0199728D01*
X0416142Y0201821D01*
X0416665Y0198196D02*
X0417189Y0198196D01*
X0417712Y0197673D01*
X0418235Y0198196D01*
X0418758Y0198196D01*
X0419282Y0197673D01*
X0419282Y0196626D01*
X0418758Y0196103D01*
X0417712Y0197150D02*
X0417712Y0197673D01*
X0416665Y0198196D02*
X0416142Y0197673D01*
X0416142Y0196626D01*
X0416665Y0196103D01*
X0416665Y0194571D02*
X0417712Y0194571D01*
X0418235Y0194048D01*
X0418235Y0192478D01*
X0418235Y0193525D02*
X0419282Y0194571D01*
X0419282Y0192478D02*
X0416142Y0192478D01*
X0416142Y0194048D01*
X0416665Y0194571D01*
X0408659Y0184520D02*
X0407090Y0182950D01*
X0409183Y0182950D01*
X0408659Y0181380D02*
X0408659Y0184520D01*
X0405558Y0183997D02*
X0405034Y0184520D01*
X0403988Y0184520D01*
X0403464Y0183997D01*
X0403464Y0181904D01*
X0403988Y0181380D01*
X0405034Y0181380D01*
X0405558Y0181904D01*
X0407951Y0175859D02*
X0409521Y0175859D01*
X0410044Y0175335D01*
X0410044Y0174289D01*
X0409521Y0173765D01*
X0407951Y0173765D01*
X0407951Y0172719D02*
X0407951Y0175859D01*
X0408998Y0173765D02*
X0410044Y0172719D01*
X0411576Y0173242D02*
X0412100Y0172719D01*
X0413146Y0172719D01*
X0413669Y0173242D01*
X0413669Y0173765D01*
X0413146Y0174289D01*
X0412623Y0174289D01*
X0413146Y0174289D02*
X0413669Y0174812D01*
X0413669Y0175335D01*
X0413146Y0175859D01*
X0412100Y0175859D01*
X0411576Y0175335D01*
X0415201Y0175335D02*
X0415201Y0174812D01*
X0415725Y0174289D01*
X0417295Y0174289D01*
X0417295Y0175335D02*
X0417295Y0173242D01*
X0416771Y0172719D01*
X0415725Y0172719D01*
X0415201Y0173242D01*
X0415201Y0175335D02*
X0415725Y0175859D01*
X0416771Y0175859D01*
X0417295Y0175335D01*
X0401172Y0187321D02*
X0401172Y0188630D01*
X0400517Y0189285D01*
X0401172Y0191016D02*
X0401172Y0193635D01*
X0401172Y0192326D02*
X0397244Y0192326D01*
X0398553Y0191016D01*
X0397898Y0189285D02*
X0397244Y0188630D01*
X0397244Y0187321D01*
X0397898Y0186666D01*
X0400517Y0186666D01*
X0401172Y0187321D01*
X0401172Y0195366D02*
X0400517Y0195366D01*
X0397898Y0197985D01*
X0397244Y0197985D01*
X0397244Y0195366D01*
X0400920Y0203428D02*
X0401967Y0203428D01*
X0402490Y0203951D01*
X0404022Y0203428D02*
X0406115Y0205521D01*
X0406115Y0206044D01*
X0405592Y0206567D01*
X0404545Y0206567D01*
X0404022Y0206044D01*
X0402490Y0206044D02*
X0401967Y0206567D01*
X0400920Y0206567D01*
X0400397Y0206044D01*
X0400397Y0203951D01*
X0400920Y0203428D01*
X0404022Y0203428D02*
X0406115Y0203428D01*
X0441653Y0192000D02*
X0443223Y0192000D01*
X0443747Y0191477D01*
X0443747Y0190430D01*
X0443223Y0189907D01*
X0441653Y0189907D01*
X0441653Y0188861D02*
X0441653Y0192000D01*
X0442700Y0189907D02*
X0443747Y0188861D01*
X0445279Y0188861D02*
X0447372Y0188861D01*
X0446325Y0188861D02*
X0446325Y0192000D01*
X0445279Y0190954D01*
X0444959Y0165622D02*
X0446529Y0165622D01*
X0447052Y0165099D01*
X0447052Y0164053D01*
X0446529Y0163529D01*
X0444959Y0163529D01*
X0444959Y0162483D02*
X0444959Y0165622D01*
X0446006Y0163529D02*
X0447052Y0162483D01*
X0448584Y0162483D02*
X0450677Y0164576D01*
X0450677Y0165099D01*
X0450154Y0165622D01*
X0449107Y0165622D01*
X0448584Y0165099D01*
X0448584Y0162483D02*
X0450677Y0162483D01*
X0452209Y0163006D02*
X0452733Y0162483D01*
X0453779Y0162483D01*
X0454302Y0163006D01*
X0454302Y0164053D01*
X0453779Y0164576D01*
X0453256Y0164576D01*
X0452209Y0164053D01*
X0452209Y0165622D01*
X0454302Y0165622D01*
X0491186Y0170750D02*
X0493279Y0170750D01*
X0498267Y0175869D02*
X0498267Y0179008D01*
X0496697Y0177438D01*
X0498791Y0177438D01*
X0497216Y0180593D02*
X0495123Y0180593D01*
X0496169Y0180593D02*
X0496169Y0183733D01*
X0495123Y0182686D01*
X0495646Y0185317D02*
X0495123Y0185841D01*
X0495646Y0185317D02*
X0496693Y0185317D01*
X0497216Y0185841D01*
X0497216Y0186364D01*
X0496693Y0186887D01*
X0496169Y0186887D01*
X0496693Y0186887D02*
X0497216Y0187410D01*
X0497216Y0187934D01*
X0496693Y0188457D01*
X0495646Y0188457D01*
X0495123Y0187934D01*
X0503546Y0180716D02*
X0503546Y0180062D01*
X0504201Y0179407D01*
X0505510Y0179407D01*
X0506165Y0178753D01*
X0506165Y0178098D01*
X0505510Y0177443D01*
X0504201Y0177443D01*
X0503546Y0178098D01*
X0503546Y0180716D02*
X0504201Y0181371D01*
X0505510Y0181371D01*
X0506165Y0180716D01*
X0507896Y0181371D02*
X0507896Y0177443D01*
X0509206Y0178753D01*
X0510515Y0177443D01*
X0510515Y0181371D01*
X0512247Y0180716D02*
X0512901Y0181371D01*
X0514211Y0181371D01*
X0514865Y0180716D01*
X0514865Y0180062D01*
X0514211Y0179407D01*
X0514865Y0178753D01*
X0514865Y0178098D01*
X0514211Y0177443D01*
X0512901Y0177443D01*
X0512247Y0178098D01*
X0513556Y0179407D02*
X0514211Y0179407D01*
X0514487Y0171529D02*
X0513178Y0171529D01*
X0512524Y0170874D01*
X0512524Y0168255D01*
X0513178Y0167601D01*
X0514487Y0167601D01*
X0515142Y0168255D01*
X0516874Y0168255D02*
X0517528Y0167601D01*
X0518838Y0167601D01*
X0519492Y0168255D01*
X0519492Y0170874D01*
X0518838Y0171529D01*
X0517528Y0171529D01*
X0516874Y0170874D01*
X0516874Y0168255D01*
X0515142Y0170874D02*
X0514487Y0171529D01*
X0521224Y0171529D02*
X0523842Y0167601D01*
X0523842Y0171529D01*
X0521224Y0171529D02*
X0521224Y0167601D01*
X0525574Y0169565D02*
X0528193Y0169565D01*
X0527538Y0171529D02*
X0525574Y0169565D01*
X0527538Y0167601D02*
X0527538Y0171529D01*
D11*
X0314170Y0176256D02*
X0314170Y0126650D01*
X0318107Y0126650D01*
X0331099Y0126650D02*
X0343304Y0126650D01*
X0343304Y0122713D01*
X0353540Y0122713D01*
X0353540Y0133736D01*
X0357871Y0140823D02*
X0357871Y0158933D01*
X0361020Y0162083D01*
X0364957Y0162083D01*
X0370469Y0162083D02*
X0374406Y0162083D01*
X0377556Y0158933D01*
X0377556Y0140823D01*
X0370469Y0140823D01*
X0364957Y0140823D02*
X0357871Y0140823D01*
X0388186Y0142398D02*
X0388579Y0142398D01*
X0388579Y0146335D01*
X0388186Y0146335D01*
X0388579Y0146335D02*
X0388973Y0146335D01*
X0388973Y0147122D02*
X0388579Y0147122D01*
X0388579Y0151059D01*
X0388186Y0151059D01*
X0388579Y0151059D02*
X0388973Y0151059D01*
X0388973Y0151846D02*
X0388579Y0151846D01*
X0388579Y0155783D01*
X0388186Y0155783D01*
X0388579Y0155783D02*
X0388973Y0155783D01*
X0388973Y0156571D02*
X0388579Y0156571D01*
X0388579Y0160508D01*
X0388186Y0160508D01*
X0388579Y0160508D02*
X0388973Y0160508D01*
X0388579Y0156571D02*
X0388186Y0156571D01*
X0388186Y0151846D02*
X0388579Y0151846D01*
X0388579Y0147122D02*
X0388186Y0147122D01*
X0388579Y0142398D02*
X0388973Y0142398D01*
X0394091Y0128618D02*
X0394091Y0121138D01*
X0454721Y0121138D01*
X0454721Y0128618D01*
X0454721Y0126256D01*
X0452359Y0128618D01*
X0454721Y0128618D01*
X0394091Y0128618D01*
X0431099Y0140429D02*
X0439760Y0140429D01*
X0439760Y0160902D01*
X0431099Y0160902D01*
X0433461Y0160902D01*
X0431099Y0158539D01*
X0431099Y0160902D01*
X0431099Y0140429D01*
X0441335Y0140429D02*
X0449997Y0140429D01*
X0449997Y0160902D01*
X0441335Y0160902D01*
X0443698Y0160902D01*
X0441335Y0158539D01*
X0441335Y0160902D01*
X0441335Y0140429D01*
X0452517Y0128460D02*
X0454721Y0128460D01*
X0454721Y0127674D02*
X0453303Y0127674D01*
X0454089Y0126888D02*
X0454721Y0126888D01*
X0464957Y0125862D02*
X0464957Y0125469D01*
X0468894Y0125469D01*
X0468894Y0125075D01*
X0468894Y0125469D02*
X0468894Y0125862D01*
X0464957Y0125469D02*
X0464957Y0125075D01*
X0464957Y0114051D02*
X0464957Y0113657D01*
X0468894Y0113657D01*
X0468894Y0113264D01*
X0468894Y0113657D02*
X0468894Y0114051D01*
X0464957Y0113657D02*
X0464957Y0113264D01*
X0464957Y0102240D02*
X0464957Y0101846D01*
X0468894Y0101846D01*
X0468894Y0101453D01*
X0468894Y0101846D02*
X0468894Y0102240D01*
X0464957Y0101846D02*
X0464957Y0101453D01*
X0486217Y0099878D02*
X0486217Y0090429D01*
X0510233Y0090429D01*
X0510233Y0099878D01*
X0486217Y0099878D01*
X0488579Y0104209D02*
X0495666Y0104209D01*
X0498422Y0106965D01*
X0498422Y0116020D02*
X0488579Y0116020D01*
X0498422Y0121138D02*
X0491729Y0127831D01*
X0488579Y0127831D01*
X0498422Y0129799D02*
X0488579Y0139642D01*
X0479131Y0144760D02*
X0475981Y0144760D01*
X0473619Y0143185D01*
X0473619Y0143579D01*
X0475194Y0144760D01*
X0473619Y0145941D01*
X0473619Y0143579D01*
X0475194Y0144760D02*
X0475981Y0144760D01*
X0473619Y0146335D01*
X0473619Y0145941D01*
X0475194Y0144760D02*
X0470469Y0144760D01*
X0475981Y0144760D02*
X0475981Y0147122D01*
X0477162Y0145547D02*
X0477949Y0146335D01*
X0478343Y0145941D01*
X0479524Y0147122D01*
X0479524Y0146335D01*
X0478737Y0147122D01*
X0479524Y0147122D01*
X0475981Y0144760D02*
X0475981Y0142398D01*
X0468894Y0137673D02*
X0468894Y0137280D01*
X0464957Y0137280D01*
X0464957Y0136886D01*
X0464957Y0137280D02*
X0464957Y0137673D01*
X0468894Y0137280D02*
X0468894Y0136886D01*
X0470863Y0154209D02*
X0470863Y0166020D01*
X0471650Y0166020D01*
X0468501Y0165232D02*
X0464564Y0165232D01*
X0464564Y0168382D01*
X0468501Y0168382D01*
X0468501Y0165232D01*
X0475981Y0171138D02*
X0476375Y0171138D01*
X0476375Y0175075D01*
X0476768Y0175075D01*
X0476375Y0175075D02*
X0475981Y0175075D01*
X0476375Y0171138D02*
X0476768Y0171138D01*
X0482280Y0175469D02*
X0482674Y0175469D01*
X0482674Y0179406D01*
X0483068Y0179406D01*
X0482674Y0179406D02*
X0482280Y0179406D01*
X0482280Y0180193D02*
X0482674Y0180193D01*
X0482674Y0184130D01*
X0482280Y0184130D01*
X0482674Y0184130D02*
X0483068Y0184130D01*
X0483068Y0184917D02*
X0482674Y0184917D01*
X0482674Y0188854D01*
X0483068Y0188854D01*
X0482674Y0188854D02*
X0482280Y0188854D01*
X0482280Y0189642D02*
X0482674Y0189642D01*
X0482674Y0193579D01*
X0482280Y0193579D01*
X0482674Y0193579D02*
X0483068Y0193579D01*
X0483068Y0194366D02*
X0482674Y0194366D01*
X0482674Y0198303D01*
X0483068Y0198303D01*
X0482674Y0198303D02*
X0482280Y0198303D01*
X0482280Y0199091D02*
X0482674Y0199091D01*
X0482674Y0203028D01*
X0482280Y0203028D01*
X0482674Y0203028D02*
X0483068Y0203028D01*
X0483068Y0203815D02*
X0482674Y0203815D01*
X0482674Y0207752D01*
X0483068Y0207752D01*
X0482674Y0207752D02*
X0482280Y0207752D01*
X0482280Y0208539D02*
X0482674Y0208539D01*
X0482674Y0212476D01*
X0482280Y0212476D01*
X0482674Y0212476D02*
X0483068Y0212476D01*
X0483068Y0208539D02*
X0482674Y0208539D01*
X0482674Y0203815D02*
X0482280Y0203815D01*
X0482674Y0199091D02*
X0483068Y0199091D01*
X0482674Y0194366D02*
X0482280Y0194366D01*
X0482674Y0189642D02*
X0483068Y0189642D01*
X0482674Y0184917D02*
X0482280Y0184917D01*
X0482674Y0180193D02*
X0483068Y0180193D01*
X0483068Y0175469D02*
X0482674Y0175469D01*
X0482674Y0166020D02*
X0483461Y0166020D01*
X0483461Y0154209D01*
X0482674Y0154209D01*
X0471650Y0154209D02*
X0470863Y0154209D01*
X0443479Y0160683D02*
X0441335Y0160683D01*
X0441335Y0159897D02*
X0442693Y0159897D01*
X0441907Y0159111D02*
X0441335Y0159111D01*
X0433242Y0160683D02*
X0431099Y0160683D01*
X0431099Y0159897D02*
X0432457Y0159897D01*
X0431671Y0159111D02*
X0431099Y0159111D01*
X0422831Y0164445D02*
X0422831Y0164839D01*
X0422831Y0165232D01*
X0418894Y0165232D02*
X0418894Y0164839D01*
X0418894Y0164445D01*
X0418107Y0164445D02*
X0418107Y0164839D01*
X0418107Y0165232D01*
X0414170Y0165232D02*
X0414170Y0164839D01*
X0414170Y0164445D01*
X0413383Y0164445D02*
X0413383Y0164839D01*
X0413383Y0165232D01*
X0409446Y0165232D02*
X0409446Y0164839D01*
X0409446Y0164445D01*
X0408658Y0164445D02*
X0408658Y0164839D01*
X0408658Y0165232D01*
X0404721Y0165232D02*
X0404721Y0164839D01*
X0404721Y0164445D01*
X0403934Y0164445D02*
X0403934Y0164839D01*
X0399997Y0164839D01*
X0399997Y0164445D01*
X0399997Y0164839D02*
X0399997Y0165232D01*
X0403934Y0165232D02*
X0403934Y0164839D01*
X0422044Y0174287D02*
X0422438Y0174287D01*
X0422831Y0174287D01*
X0422831Y0178224D02*
X0422438Y0178224D01*
X0422044Y0178224D01*
X0421453Y0181374D02*
X0423422Y0181374D01*
X0427949Y0179012D02*
X0429918Y0179012D01*
X0429918Y0180980D01*
X0427556Y0184720D02*
X0427556Y0185902D01*
X0429918Y0189642D02*
X0429918Y0191610D01*
X0427949Y0191610D01*
X0423422Y0189248D02*
X0421453Y0189248D01*
X0416926Y0191610D02*
X0414957Y0191610D01*
X0414957Y0189642D01*
X0414170Y0185705D02*
X0414170Y0185311D01*
X0410233Y0185311D01*
X0410233Y0184917D01*
X0410233Y0185311D02*
X0410233Y0185705D01*
X0414170Y0185311D02*
X0414170Y0184917D01*
X0417320Y0184720D02*
X0417320Y0185902D01*
X0414957Y0180980D02*
X0414957Y0179012D01*
X0416926Y0179012D01*
X0413382Y0177831D02*
X0413384Y0177870D01*
X0413390Y0177909D01*
X0413400Y0177947D01*
X0413413Y0177984D01*
X0413430Y0178019D01*
X0413450Y0178053D01*
X0413474Y0178084D01*
X0413501Y0178113D01*
X0413530Y0178139D01*
X0413562Y0178162D01*
X0413596Y0178182D01*
X0413632Y0178198D01*
X0413669Y0178210D01*
X0413708Y0178219D01*
X0413747Y0178224D01*
X0413786Y0178225D01*
X0413825Y0178222D01*
X0413864Y0178215D01*
X0413901Y0178204D01*
X0413938Y0178190D01*
X0413973Y0178172D01*
X0414006Y0178151D01*
X0414037Y0178126D01*
X0414065Y0178099D01*
X0414090Y0178069D01*
X0414112Y0178036D01*
X0414131Y0178002D01*
X0414146Y0177966D01*
X0414158Y0177928D01*
X0414166Y0177890D01*
X0414170Y0177851D01*
X0414170Y0177811D01*
X0414166Y0177772D01*
X0414158Y0177734D01*
X0414146Y0177696D01*
X0414131Y0177660D01*
X0414112Y0177626D01*
X0414090Y0177593D01*
X0414065Y0177563D01*
X0414037Y0177536D01*
X0414006Y0177511D01*
X0413973Y0177490D01*
X0413938Y0177472D01*
X0413901Y0177458D01*
X0413864Y0177447D01*
X0413825Y0177440D01*
X0413786Y0177437D01*
X0413747Y0177438D01*
X0413708Y0177443D01*
X0413669Y0177452D01*
X0413632Y0177464D01*
X0413596Y0177480D01*
X0413562Y0177500D01*
X0413530Y0177523D01*
X0413501Y0177549D01*
X0413474Y0177578D01*
X0413450Y0177609D01*
X0413430Y0177643D01*
X0413413Y0177678D01*
X0413400Y0177715D01*
X0413390Y0177753D01*
X0413384Y0177792D01*
X0413382Y0177831D01*
X0433855Y0167201D02*
X0433855Y0166807D01*
X0437792Y0166807D01*
X0437792Y0166413D01*
X0437792Y0166807D02*
X0437792Y0167201D01*
X0440154Y0167201D02*
X0440154Y0166807D01*
X0444091Y0166807D01*
X0444091Y0166413D01*
X0444091Y0166807D02*
X0444091Y0167201D01*
X0440154Y0166807D02*
X0440154Y0166413D01*
X0433855Y0166413D02*
X0433855Y0166807D01*
X0444485Y0179012D02*
X0444879Y0179012D01*
X0445272Y0179012D01*
X0445272Y0182949D02*
X0444879Y0182949D01*
X0444485Y0182949D01*
X0444485Y0183736D02*
X0444879Y0183736D01*
X0445272Y0183736D01*
X0445272Y0187673D02*
X0444879Y0187673D01*
X0444485Y0187673D01*
X0450390Y0189642D02*
X0450390Y0176256D01*
X0470075Y0176256D02*
X0470075Y0189642D01*
X0464564Y0198697D02*
X0464170Y0198697D01*
X0464170Y0202634D01*
X0463776Y0202634D01*
X0464170Y0202634D02*
X0464564Y0202634D01*
X0464170Y0198697D02*
X0463776Y0198697D01*
X0446060Y0207358D02*
X0445666Y0207358D01*
X0445666Y0211295D01*
X0445272Y0211295D01*
X0445666Y0211295D02*
X0446060Y0211295D01*
X0445666Y0207358D02*
X0445272Y0207358D01*
X0440548Y0202634D02*
X0440548Y0199484D01*
X0436611Y0199484D01*
X0436611Y0202634D01*
X0440548Y0202634D01*
X0430705Y0198303D02*
X0430705Y0197909D01*
X0430705Y0197516D01*
X0426768Y0197516D02*
X0426768Y0197909D01*
X0426768Y0198303D01*
X0423619Y0197516D02*
X0423619Y0201453D01*
X0420469Y0201453D01*
X0420469Y0197516D01*
X0423619Y0197516D01*
X0414957Y0197516D02*
X0414957Y0197909D01*
X0414957Y0198303D01*
X0411020Y0198303D02*
X0411020Y0197909D01*
X0411020Y0197516D01*
X0406690Y0198303D02*
X0406296Y0198303D01*
X0406296Y0202240D01*
X0405902Y0202240D01*
X0406296Y0202240D02*
X0406690Y0202240D01*
X0406296Y0198303D02*
X0405902Y0198303D01*
X0395666Y0193972D02*
X0395666Y0191610D01*
X0390942Y0191610D02*
X0390942Y0193972D01*
X0386611Y0190429D02*
X0386611Y0188854D01*
X0370075Y0188854D01*
X0370075Y0190429D01*
X0381493Y0184130D02*
X0383855Y0184130D01*
X0383855Y0179406D02*
X0381493Y0179406D01*
X0376768Y0176650D02*
X0375194Y0176650D01*
X0374800Y0176256D01*
X0373225Y0176256D01*
X0372831Y0176650D01*
X0371257Y0176650D01*
X0371257Y0167201D01*
X0376768Y0167201D01*
X0376768Y0176650D01*
X0369879Y0178500D02*
X0366296Y0178500D01*
X0353540Y0180193D02*
X0353540Y0169169D01*
X0342910Y0176256D02*
X0342910Y0180193D01*
X0353540Y0180193D01*
X0342910Y0176256D02*
X0331099Y0176256D01*
X0318107Y0176256D02*
X0314170Y0176256D01*
X0314170Y0197516D02*
X0314170Y0247122D01*
X0318107Y0247122D01*
X0331099Y0247122D02*
X0342910Y0247122D01*
X0342910Y0251059D01*
X0353540Y0251059D01*
X0353540Y0240035D01*
X0361020Y0232949D02*
X0357871Y0229799D01*
X0357871Y0211689D01*
X0364957Y0211689D01*
X0370469Y0211689D02*
X0377556Y0211689D01*
X0377556Y0229799D01*
X0374406Y0232949D01*
X0370469Y0232949D01*
X0371257Y0238067D02*
X0371257Y0247516D01*
X0372831Y0247516D01*
X0373225Y0247122D01*
X0374800Y0247122D01*
X0375194Y0247516D01*
X0376768Y0247516D01*
X0376768Y0238067D01*
X0371257Y0238067D01*
X0364957Y0232949D02*
X0361020Y0232949D01*
X0366296Y0249366D02*
X0369879Y0249366D01*
X0381493Y0250272D02*
X0383855Y0250272D01*
X0383855Y0254996D02*
X0381493Y0254996D01*
X0386611Y0259720D02*
X0370075Y0259720D01*
X0370075Y0261295D01*
X0353540Y0264445D02*
X0343304Y0264445D01*
X0343304Y0268382D01*
X0331099Y0268382D01*
X0318107Y0268382D02*
X0314170Y0268382D01*
X0314170Y0317988D01*
X0318107Y0317988D01*
X0331099Y0317988D02*
X0342910Y0317988D01*
X0342910Y0321925D01*
X0353540Y0321925D01*
X0353540Y0310902D01*
X0361020Y0303815D02*
X0357871Y0300665D01*
X0357871Y0282555D01*
X0364957Y0282555D01*
X0370469Y0282555D02*
X0377556Y0282555D01*
X0377556Y0300665D01*
X0374406Y0303815D01*
X0370469Y0303815D01*
X0371257Y0308933D02*
X0371257Y0318382D01*
X0372831Y0318382D01*
X0373225Y0317988D01*
X0374800Y0317988D01*
X0375194Y0318382D01*
X0376768Y0318382D01*
X0376768Y0308933D01*
X0371257Y0308933D01*
X0364957Y0303815D02*
X0361020Y0303815D01*
X0366296Y0320232D02*
X0369879Y0320232D01*
X0381493Y0321138D02*
X0383855Y0321138D01*
X0383855Y0325862D02*
X0381493Y0325862D01*
X0386611Y0330587D02*
X0370075Y0330587D01*
X0370075Y0332161D01*
X0362201Y0339248D02*
X0345666Y0339248D01*
X0345666Y0348697D01*
X0362201Y0348697D01*
X0362201Y0339248D01*
X0370075Y0345547D02*
X0370075Y0347122D01*
X0386611Y0347122D01*
X0386611Y0345547D01*
X0390942Y0335705D02*
X0390942Y0333343D01*
X0386611Y0332161D02*
X0386611Y0330587D01*
X0387005Y0329012D02*
X0387007Y0329081D01*
X0387013Y0329149D01*
X0387023Y0329217D01*
X0387037Y0329284D01*
X0387055Y0329351D01*
X0387076Y0329416D01*
X0387102Y0329480D01*
X0387131Y0329542D01*
X0387163Y0329602D01*
X0387199Y0329661D01*
X0387239Y0329717D01*
X0387281Y0329771D01*
X0387327Y0329822D01*
X0387376Y0329871D01*
X0387427Y0329917D01*
X0387481Y0329959D01*
X0387537Y0329999D01*
X0387595Y0330035D01*
X0387656Y0330067D01*
X0387718Y0330096D01*
X0387782Y0330122D01*
X0387847Y0330143D01*
X0387914Y0330161D01*
X0387981Y0330175D01*
X0388049Y0330185D01*
X0388117Y0330191D01*
X0388186Y0330193D01*
X0388255Y0330191D01*
X0388323Y0330185D01*
X0388391Y0330175D01*
X0388458Y0330161D01*
X0388525Y0330143D01*
X0388590Y0330122D01*
X0388654Y0330096D01*
X0388716Y0330067D01*
X0388776Y0330035D01*
X0388835Y0329999D01*
X0388891Y0329959D01*
X0388945Y0329917D01*
X0388996Y0329871D01*
X0389045Y0329822D01*
X0389091Y0329771D01*
X0389133Y0329717D01*
X0389173Y0329661D01*
X0389209Y0329602D01*
X0389241Y0329542D01*
X0389270Y0329480D01*
X0389296Y0329416D01*
X0389317Y0329351D01*
X0389335Y0329284D01*
X0389349Y0329217D01*
X0389359Y0329149D01*
X0389365Y0329081D01*
X0389367Y0329012D01*
X0389365Y0328943D01*
X0389359Y0328875D01*
X0389349Y0328807D01*
X0389335Y0328740D01*
X0389317Y0328673D01*
X0389296Y0328608D01*
X0389270Y0328544D01*
X0389241Y0328482D01*
X0389209Y0328421D01*
X0389173Y0328363D01*
X0389133Y0328307D01*
X0389091Y0328253D01*
X0389045Y0328202D01*
X0388996Y0328153D01*
X0388945Y0328107D01*
X0388891Y0328065D01*
X0388835Y0328025D01*
X0388777Y0327989D01*
X0388716Y0327957D01*
X0388654Y0327928D01*
X0388590Y0327902D01*
X0388525Y0327881D01*
X0388458Y0327863D01*
X0388391Y0327849D01*
X0388323Y0327839D01*
X0388255Y0327833D01*
X0388186Y0327831D01*
X0388117Y0327833D01*
X0388049Y0327839D01*
X0387981Y0327849D01*
X0387914Y0327863D01*
X0387847Y0327881D01*
X0387782Y0327902D01*
X0387718Y0327928D01*
X0387656Y0327957D01*
X0387595Y0327989D01*
X0387537Y0328025D01*
X0387481Y0328065D01*
X0387427Y0328107D01*
X0387376Y0328153D01*
X0387327Y0328202D01*
X0387281Y0328253D01*
X0387239Y0328307D01*
X0387199Y0328363D01*
X0387163Y0328421D01*
X0387131Y0328482D01*
X0387102Y0328544D01*
X0387076Y0328608D01*
X0387055Y0328673D01*
X0387037Y0328740D01*
X0387023Y0328807D01*
X0387013Y0328875D01*
X0387007Y0328943D01*
X0387005Y0329012D01*
X0395666Y0333343D02*
X0395666Y0335705D01*
X0427162Y0340429D02*
X0427162Y0319563D01*
X0432280Y0314445D01*
X0437398Y0314445D01*
X0442910Y0314445D02*
X0448028Y0314445D01*
X0453146Y0319563D01*
X0453146Y0340429D01*
X0442910Y0340429D01*
X0437398Y0340429D02*
X0427162Y0340429D01*
X0465745Y0342398D02*
X0465745Y0373894D01*
X0501178Y0373894D01*
X0501178Y0317594D01*
X0494485Y0317594D01*
X0499997Y0311689D02*
X0498028Y0309720D01*
X0499997Y0307752D01*
X0499997Y0311689D01*
X0499997Y0311578D02*
X0499886Y0311578D01*
X0499997Y0310792D02*
X0499100Y0310792D01*
X0498314Y0310006D02*
X0499997Y0310006D01*
X0499997Y0309220D02*
X0498528Y0309220D01*
X0499314Y0308434D02*
X0499997Y0308434D01*
X0501965Y0304602D02*
X0504327Y0304602D01*
X0501965Y0304602D02*
X0501965Y0280980D01*
X0504327Y0280980D01*
X0513776Y0280980D02*
X0516138Y0280980D01*
X0516138Y0304602D01*
X0513776Y0304602D01*
X0521257Y0304602D02*
X0521257Y0308146D01*
X0529918Y0308146D01*
X0539760Y0308146D02*
X0540548Y0308146D01*
X0540548Y0278224D01*
X0539760Y0278224D01*
X0529918Y0278224D02*
X0521257Y0278224D01*
X0521257Y0281768D01*
X0521257Y0260902D02*
X0529918Y0260902D01*
X0521257Y0260902D02*
X0521257Y0257358D01*
X0516138Y0257752D02*
X0516138Y0234130D01*
X0513776Y0234130D01*
X0521257Y0234524D02*
X0521257Y0230980D01*
X0529918Y0230980D01*
X0539760Y0230980D02*
X0540548Y0230980D01*
X0540548Y0260902D01*
X0539760Y0260902D01*
X0516138Y0257752D02*
X0513776Y0257752D01*
X0504327Y0257752D02*
X0501965Y0257752D01*
X0501965Y0234130D01*
X0504327Y0234130D01*
X0499997Y0230193D02*
X0497241Y0228224D01*
X0492910Y0227437D02*
X0492516Y0227437D01*
X0492516Y0231374D01*
X0492123Y0231374D01*
X0492516Y0231374D02*
X0492910Y0231374D01*
X0492910Y0232161D02*
X0492516Y0232161D01*
X0492516Y0236098D01*
X0492123Y0236098D01*
X0492516Y0236098D02*
X0492910Y0236098D01*
X0492516Y0232161D02*
X0492123Y0232161D01*
X0492123Y0227437D02*
X0492516Y0227437D01*
X0492516Y0226650D02*
X0492516Y0222713D01*
X0492123Y0222713D01*
X0492516Y0222713D02*
X0492910Y0222713D01*
X0492910Y0221925D02*
X0492516Y0221925D01*
X0492516Y0217988D01*
X0492123Y0217988D01*
X0492516Y0217988D02*
X0492910Y0217988D01*
X0492910Y0217201D02*
X0492516Y0217201D01*
X0492516Y0213264D01*
X0492123Y0213264D01*
X0492516Y0213264D02*
X0492910Y0213264D01*
X0492910Y0212476D02*
X0492516Y0212476D01*
X0492516Y0208539D01*
X0492123Y0208539D01*
X0492516Y0208539D02*
X0492910Y0208539D01*
X0492516Y0212476D02*
X0492123Y0212476D01*
X0492123Y0217201D02*
X0492516Y0217201D01*
X0492516Y0221925D02*
X0492123Y0221925D01*
X0492123Y0226650D02*
X0492516Y0226650D01*
X0492910Y0226650D01*
X0481296Y0222516D02*
X0481296Y0221335D01*
X0480115Y0221335D01*
X0471060Y0221335D02*
X0469879Y0221335D01*
X0469879Y0222516D01*
X0467713Y0221138D02*
X0467713Y0220744D01*
X0463776Y0220744D01*
X0463776Y0220350D01*
X0463776Y0220744D02*
X0463776Y0221138D01*
X0467713Y0220744D02*
X0467713Y0220350D01*
X0469879Y0231571D02*
X0469879Y0232752D01*
X0471060Y0232752D01*
X0467320Y0234524D02*
X0467322Y0234580D01*
X0467328Y0234635D01*
X0467338Y0234689D01*
X0467351Y0234743D01*
X0467369Y0234796D01*
X0467390Y0234847D01*
X0467414Y0234897D01*
X0467442Y0234945D01*
X0467474Y0234991D01*
X0467508Y0235035D01*
X0467546Y0235076D01*
X0467586Y0235114D01*
X0467629Y0235149D01*
X0467674Y0235181D01*
X0467722Y0235210D01*
X0467771Y0235236D01*
X0467822Y0235258D01*
X0467874Y0235276D01*
X0467928Y0235290D01*
X0467983Y0235301D01*
X0468038Y0235308D01*
X0468093Y0235311D01*
X0468149Y0235310D01*
X0468204Y0235305D01*
X0468259Y0235296D01*
X0468313Y0235284D01*
X0468366Y0235267D01*
X0468418Y0235247D01*
X0468468Y0235223D01*
X0468516Y0235196D01*
X0468563Y0235166D01*
X0468607Y0235132D01*
X0468649Y0235095D01*
X0468687Y0235055D01*
X0468724Y0235013D01*
X0468757Y0234968D01*
X0468786Y0234922D01*
X0468813Y0234873D01*
X0468835Y0234822D01*
X0468855Y0234770D01*
X0468870Y0234716D01*
X0468882Y0234662D01*
X0468890Y0234607D01*
X0468894Y0234552D01*
X0468894Y0234496D01*
X0468890Y0234441D01*
X0468882Y0234386D01*
X0468870Y0234332D01*
X0468855Y0234278D01*
X0468835Y0234226D01*
X0468813Y0234175D01*
X0468786Y0234126D01*
X0468757Y0234080D01*
X0468724Y0234035D01*
X0468687Y0233993D01*
X0468649Y0233953D01*
X0468607Y0233916D01*
X0468563Y0233882D01*
X0468516Y0233852D01*
X0468468Y0233825D01*
X0468418Y0233801D01*
X0468366Y0233781D01*
X0468313Y0233764D01*
X0468259Y0233752D01*
X0468204Y0233743D01*
X0468149Y0233738D01*
X0468093Y0233737D01*
X0468038Y0233740D01*
X0467983Y0233747D01*
X0467928Y0233758D01*
X0467874Y0233772D01*
X0467822Y0233790D01*
X0467771Y0233812D01*
X0467722Y0233838D01*
X0467674Y0233867D01*
X0467629Y0233899D01*
X0467586Y0233934D01*
X0467546Y0233972D01*
X0467508Y0234013D01*
X0467474Y0234057D01*
X0467442Y0234103D01*
X0467414Y0234151D01*
X0467390Y0234201D01*
X0467369Y0234252D01*
X0467351Y0234305D01*
X0467338Y0234359D01*
X0467328Y0234413D01*
X0467322Y0234468D01*
X0467320Y0234524D01*
X0467713Y0234524D02*
X0467715Y0234563D01*
X0467721Y0234602D01*
X0467731Y0234640D01*
X0467744Y0234677D01*
X0467761Y0234712D01*
X0467781Y0234746D01*
X0467805Y0234777D01*
X0467832Y0234806D01*
X0467861Y0234832D01*
X0467893Y0234855D01*
X0467927Y0234875D01*
X0467963Y0234891D01*
X0468000Y0234903D01*
X0468039Y0234912D01*
X0468078Y0234917D01*
X0468117Y0234918D01*
X0468156Y0234915D01*
X0468195Y0234908D01*
X0468232Y0234897D01*
X0468269Y0234883D01*
X0468304Y0234865D01*
X0468337Y0234844D01*
X0468368Y0234819D01*
X0468396Y0234792D01*
X0468421Y0234762D01*
X0468443Y0234729D01*
X0468462Y0234695D01*
X0468477Y0234659D01*
X0468489Y0234621D01*
X0468497Y0234583D01*
X0468501Y0234544D01*
X0468501Y0234504D01*
X0468497Y0234465D01*
X0468489Y0234427D01*
X0468477Y0234389D01*
X0468462Y0234353D01*
X0468443Y0234319D01*
X0468421Y0234286D01*
X0468396Y0234256D01*
X0468368Y0234229D01*
X0468337Y0234204D01*
X0468304Y0234183D01*
X0468269Y0234165D01*
X0468232Y0234151D01*
X0468195Y0234140D01*
X0468156Y0234133D01*
X0468117Y0234130D01*
X0468078Y0234131D01*
X0468039Y0234136D01*
X0468000Y0234145D01*
X0467963Y0234157D01*
X0467927Y0234173D01*
X0467893Y0234193D01*
X0467861Y0234216D01*
X0467832Y0234242D01*
X0467805Y0234271D01*
X0467781Y0234302D01*
X0467761Y0234336D01*
X0467744Y0234371D01*
X0467731Y0234408D01*
X0467721Y0234446D01*
X0467715Y0234485D01*
X0467713Y0234524D01*
X0480115Y0232752D02*
X0481296Y0232752D01*
X0481296Y0231571D01*
X0481886Y0245154D02*
X0481886Y0245547D01*
X0477949Y0245547D01*
X0477949Y0245154D01*
X0477949Y0245547D02*
X0477949Y0245941D01*
X0477162Y0245941D02*
X0477162Y0245547D01*
X0473225Y0245547D01*
X0473225Y0245154D01*
X0473225Y0245547D02*
X0473225Y0245941D01*
X0477162Y0245547D02*
X0477162Y0245154D01*
X0481886Y0245547D02*
X0481886Y0245941D01*
X0455902Y0265626D02*
X0453540Y0265626D01*
X0453540Y0270350D02*
X0455902Y0270350D01*
X0455115Y0274287D02*
X0456690Y0274287D01*
X0456690Y0290823D01*
X0455115Y0290823D01*
X0457083Y0292398D02*
X0457085Y0292467D01*
X0457091Y0292535D01*
X0457101Y0292603D01*
X0457115Y0292670D01*
X0457133Y0292737D01*
X0457154Y0292802D01*
X0457180Y0292866D01*
X0457209Y0292928D01*
X0457241Y0292988D01*
X0457277Y0293047D01*
X0457317Y0293103D01*
X0457359Y0293157D01*
X0457405Y0293208D01*
X0457454Y0293257D01*
X0457505Y0293303D01*
X0457559Y0293345D01*
X0457615Y0293385D01*
X0457673Y0293421D01*
X0457734Y0293453D01*
X0457796Y0293482D01*
X0457860Y0293508D01*
X0457925Y0293529D01*
X0457992Y0293547D01*
X0458059Y0293561D01*
X0458127Y0293571D01*
X0458195Y0293577D01*
X0458264Y0293579D01*
X0458333Y0293577D01*
X0458401Y0293571D01*
X0458469Y0293561D01*
X0458536Y0293547D01*
X0458603Y0293529D01*
X0458668Y0293508D01*
X0458732Y0293482D01*
X0458794Y0293453D01*
X0458854Y0293421D01*
X0458913Y0293385D01*
X0458969Y0293345D01*
X0459023Y0293303D01*
X0459074Y0293257D01*
X0459123Y0293208D01*
X0459169Y0293157D01*
X0459211Y0293103D01*
X0459251Y0293047D01*
X0459287Y0292988D01*
X0459319Y0292928D01*
X0459348Y0292866D01*
X0459374Y0292802D01*
X0459395Y0292737D01*
X0459413Y0292670D01*
X0459427Y0292603D01*
X0459437Y0292535D01*
X0459443Y0292467D01*
X0459445Y0292398D01*
X0459443Y0292329D01*
X0459437Y0292261D01*
X0459427Y0292193D01*
X0459413Y0292126D01*
X0459395Y0292059D01*
X0459374Y0291994D01*
X0459348Y0291930D01*
X0459319Y0291868D01*
X0459287Y0291807D01*
X0459251Y0291749D01*
X0459211Y0291693D01*
X0459169Y0291639D01*
X0459123Y0291588D01*
X0459074Y0291539D01*
X0459023Y0291493D01*
X0458969Y0291451D01*
X0458913Y0291411D01*
X0458855Y0291375D01*
X0458794Y0291343D01*
X0458732Y0291314D01*
X0458668Y0291288D01*
X0458603Y0291267D01*
X0458536Y0291249D01*
X0458469Y0291235D01*
X0458401Y0291225D01*
X0458333Y0291219D01*
X0458264Y0291217D01*
X0458195Y0291219D01*
X0458127Y0291225D01*
X0458059Y0291235D01*
X0457992Y0291249D01*
X0457925Y0291267D01*
X0457860Y0291288D01*
X0457796Y0291314D01*
X0457734Y0291343D01*
X0457673Y0291375D01*
X0457615Y0291411D01*
X0457559Y0291451D01*
X0457505Y0291493D01*
X0457454Y0291539D01*
X0457405Y0291588D01*
X0457359Y0291639D01*
X0457317Y0291693D01*
X0457277Y0291749D01*
X0457241Y0291807D01*
X0457209Y0291868D01*
X0457180Y0291930D01*
X0457154Y0291994D01*
X0457133Y0292059D01*
X0457115Y0292126D01*
X0457101Y0292193D01*
X0457091Y0292261D01*
X0457085Y0292329D01*
X0457083Y0292398D01*
X0453934Y0296335D02*
X0451572Y0296335D01*
X0451572Y0301059D02*
X0453934Y0301059D01*
X0466532Y0297122D02*
X0466532Y0342004D01*
X0496847Y0342004D01*
X0496847Y0297122D01*
X0466532Y0297122D01*
X0441729Y0290823D02*
X0440154Y0290823D01*
X0440154Y0274287D01*
X0441729Y0274287D01*
X0428737Y0251453D02*
X0428737Y0251059D01*
X0424800Y0251059D01*
X0424800Y0250665D01*
X0424800Y0251059D02*
X0424800Y0251453D01*
X0428737Y0251059D02*
X0428737Y0250665D01*
X0417320Y0250665D02*
X0417320Y0251059D01*
X0413383Y0251059D01*
X0413383Y0250665D01*
X0413383Y0251059D02*
X0413383Y0251453D01*
X0417320Y0251453D02*
X0417320Y0251059D01*
X0395666Y0262476D02*
X0395666Y0264839D01*
X0390942Y0264839D02*
X0390942Y0262476D01*
X0386611Y0261295D02*
X0386611Y0259720D01*
X0387005Y0258146D02*
X0387007Y0258215D01*
X0387013Y0258283D01*
X0387023Y0258351D01*
X0387037Y0258418D01*
X0387055Y0258485D01*
X0387076Y0258550D01*
X0387102Y0258614D01*
X0387131Y0258676D01*
X0387163Y0258736D01*
X0387199Y0258795D01*
X0387239Y0258851D01*
X0387281Y0258905D01*
X0387327Y0258956D01*
X0387376Y0259005D01*
X0387427Y0259051D01*
X0387481Y0259093D01*
X0387537Y0259133D01*
X0387595Y0259169D01*
X0387656Y0259201D01*
X0387718Y0259230D01*
X0387782Y0259256D01*
X0387847Y0259277D01*
X0387914Y0259295D01*
X0387981Y0259309D01*
X0388049Y0259319D01*
X0388117Y0259325D01*
X0388186Y0259327D01*
X0388255Y0259325D01*
X0388323Y0259319D01*
X0388391Y0259309D01*
X0388458Y0259295D01*
X0388525Y0259277D01*
X0388590Y0259256D01*
X0388654Y0259230D01*
X0388716Y0259201D01*
X0388776Y0259169D01*
X0388835Y0259133D01*
X0388891Y0259093D01*
X0388945Y0259051D01*
X0388996Y0259005D01*
X0389045Y0258956D01*
X0389091Y0258905D01*
X0389133Y0258851D01*
X0389173Y0258795D01*
X0389209Y0258736D01*
X0389241Y0258676D01*
X0389270Y0258614D01*
X0389296Y0258550D01*
X0389317Y0258485D01*
X0389335Y0258418D01*
X0389349Y0258351D01*
X0389359Y0258283D01*
X0389365Y0258215D01*
X0389367Y0258146D01*
X0389365Y0258077D01*
X0389359Y0258009D01*
X0389349Y0257941D01*
X0389335Y0257874D01*
X0389317Y0257807D01*
X0389296Y0257742D01*
X0389270Y0257678D01*
X0389241Y0257616D01*
X0389209Y0257555D01*
X0389173Y0257497D01*
X0389133Y0257441D01*
X0389091Y0257387D01*
X0389045Y0257336D01*
X0388996Y0257287D01*
X0388945Y0257241D01*
X0388891Y0257199D01*
X0388835Y0257159D01*
X0388777Y0257123D01*
X0388716Y0257091D01*
X0388654Y0257062D01*
X0388590Y0257036D01*
X0388525Y0257015D01*
X0388458Y0256997D01*
X0388391Y0256983D01*
X0388323Y0256973D01*
X0388255Y0256967D01*
X0388186Y0256965D01*
X0388117Y0256967D01*
X0388049Y0256973D01*
X0387981Y0256983D01*
X0387914Y0256997D01*
X0387847Y0257015D01*
X0387782Y0257036D01*
X0387718Y0257062D01*
X0387656Y0257091D01*
X0387595Y0257123D01*
X0387537Y0257159D01*
X0387481Y0257199D01*
X0387427Y0257241D01*
X0387376Y0257287D01*
X0387327Y0257336D01*
X0387281Y0257387D01*
X0387239Y0257441D01*
X0387199Y0257497D01*
X0387163Y0257555D01*
X0387131Y0257616D01*
X0387102Y0257678D01*
X0387076Y0257742D01*
X0387055Y0257807D01*
X0387037Y0257874D01*
X0387023Y0257941D01*
X0387013Y0258009D01*
X0387007Y0258077D01*
X0387005Y0258146D01*
X0386611Y0274681D02*
X0386611Y0276256D01*
X0370075Y0276256D01*
X0370075Y0274681D01*
X0353540Y0275469D02*
X0353540Y0264445D01*
X0388186Y0284130D02*
X0388579Y0284130D01*
X0388579Y0288067D01*
X0388973Y0288067D01*
X0388579Y0288067D02*
X0388186Y0288067D01*
X0388186Y0288854D02*
X0388579Y0288854D01*
X0388579Y0292791D01*
X0388186Y0292791D01*
X0388579Y0292791D02*
X0388973Y0292791D01*
X0388973Y0293579D02*
X0388579Y0293579D01*
X0388579Y0297516D01*
X0388186Y0297516D01*
X0388579Y0297516D02*
X0388973Y0297516D01*
X0388973Y0298303D02*
X0388579Y0298303D01*
X0388579Y0302240D01*
X0388973Y0302240D01*
X0388579Y0302240D02*
X0388186Y0302240D01*
X0388186Y0298303D02*
X0388579Y0298303D01*
X0388579Y0293579D02*
X0388186Y0293579D01*
X0388579Y0288854D02*
X0388973Y0288854D01*
X0388973Y0284130D02*
X0388579Y0284130D01*
X0445272Y0239642D02*
X0445666Y0239642D01*
X0446060Y0239642D01*
X0446060Y0235705D02*
X0445666Y0235705D01*
X0445272Y0235705D01*
X0445272Y0234917D02*
X0445666Y0234917D01*
X0445666Y0230980D01*
X0446060Y0230980D01*
X0445666Y0230980D02*
X0445272Y0230980D01*
X0445272Y0230193D02*
X0445666Y0230193D01*
X0445666Y0226256D01*
X0446060Y0226256D01*
X0445666Y0226256D02*
X0445272Y0226256D01*
X0445272Y0225469D02*
X0445666Y0225469D01*
X0445666Y0221531D01*
X0446060Y0221531D01*
X0445666Y0221531D02*
X0445272Y0221531D01*
X0445272Y0220744D02*
X0445666Y0220744D01*
X0445666Y0216807D01*
X0446060Y0216807D01*
X0445666Y0216807D02*
X0445272Y0216807D01*
X0445666Y0220744D02*
X0446060Y0220744D01*
X0446060Y0225469D02*
X0445666Y0225469D01*
X0445666Y0230193D02*
X0446060Y0230193D01*
X0446060Y0234917D02*
X0445666Y0234917D01*
X0433068Y0234917D02*
X0432674Y0235311D01*
X0407477Y0235311D02*
X0407083Y0234917D01*
X0398028Y0234524D02*
X0398028Y0230980D01*
X0396453Y0229406D01*
X0393304Y0229406D01*
X0393304Y0224681D02*
X0396453Y0224681D01*
X0398028Y0226256D01*
X0398028Y0230980D01*
X0398028Y0226256D02*
X0398028Y0221531D01*
X0396453Y0219957D01*
X0393304Y0219957D01*
X0393304Y0215232D02*
X0396453Y0215232D01*
X0398028Y0216807D01*
X0398028Y0221531D01*
X0388973Y0221925D02*
X0388579Y0221925D01*
X0388579Y0217988D01*
X0388186Y0217988D01*
X0388579Y0217988D02*
X0388973Y0217988D01*
X0388973Y0217201D02*
X0388579Y0217201D01*
X0388579Y0213264D01*
X0388973Y0213264D01*
X0388579Y0213264D02*
X0388186Y0213264D01*
X0388186Y0217201D02*
X0388579Y0217201D01*
X0388579Y0221925D02*
X0388186Y0221925D01*
X0388186Y0222713D02*
X0388579Y0222713D01*
X0388579Y0226650D01*
X0388186Y0226650D01*
X0388579Y0226650D02*
X0388973Y0226650D01*
X0388973Y0227437D02*
X0388579Y0227437D01*
X0388579Y0231374D01*
X0388973Y0231374D01*
X0388579Y0231374D02*
X0388186Y0231374D01*
X0388186Y0227437D02*
X0388579Y0227437D01*
X0388579Y0222713D02*
X0388973Y0222713D01*
X0407083Y0209720D02*
X0407477Y0209327D01*
X0386611Y0205390D02*
X0370075Y0205390D01*
X0370075Y0203815D01*
X0353540Y0204602D02*
X0353540Y0193579D01*
X0343304Y0193579D01*
X0343304Y0197516D01*
X0331099Y0197516D01*
X0318107Y0197516D02*
X0314170Y0197516D01*
X0386611Y0203815D02*
X0386611Y0205390D01*
X0387005Y0187280D02*
X0387007Y0187349D01*
X0387013Y0187417D01*
X0387023Y0187485D01*
X0387037Y0187552D01*
X0387055Y0187619D01*
X0387076Y0187684D01*
X0387102Y0187748D01*
X0387131Y0187810D01*
X0387163Y0187870D01*
X0387199Y0187929D01*
X0387239Y0187985D01*
X0387281Y0188039D01*
X0387327Y0188090D01*
X0387376Y0188139D01*
X0387427Y0188185D01*
X0387481Y0188227D01*
X0387537Y0188267D01*
X0387595Y0188303D01*
X0387656Y0188335D01*
X0387718Y0188364D01*
X0387782Y0188390D01*
X0387847Y0188411D01*
X0387914Y0188429D01*
X0387981Y0188443D01*
X0388049Y0188453D01*
X0388117Y0188459D01*
X0388186Y0188461D01*
X0388255Y0188459D01*
X0388323Y0188453D01*
X0388391Y0188443D01*
X0388458Y0188429D01*
X0388525Y0188411D01*
X0388590Y0188390D01*
X0388654Y0188364D01*
X0388716Y0188335D01*
X0388776Y0188303D01*
X0388835Y0188267D01*
X0388891Y0188227D01*
X0388945Y0188185D01*
X0388996Y0188139D01*
X0389045Y0188090D01*
X0389091Y0188039D01*
X0389133Y0187985D01*
X0389173Y0187929D01*
X0389209Y0187870D01*
X0389241Y0187810D01*
X0389270Y0187748D01*
X0389296Y0187684D01*
X0389317Y0187619D01*
X0389335Y0187552D01*
X0389349Y0187485D01*
X0389359Y0187417D01*
X0389365Y0187349D01*
X0389367Y0187280D01*
X0389365Y0187211D01*
X0389359Y0187143D01*
X0389349Y0187075D01*
X0389335Y0187008D01*
X0389317Y0186941D01*
X0389296Y0186876D01*
X0389270Y0186812D01*
X0389241Y0186750D01*
X0389209Y0186689D01*
X0389173Y0186631D01*
X0389133Y0186575D01*
X0389091Y0186521D01*
X0389045Y0186470D01*
X0388996Y0186421D01*
X0388945Y0186375D01*
X0388891Y0186333D01*
X0388835Y0186293D01*
X0388777Y0186257D01*
X0388716Y0186225D01*
X0388654Y0186196D01*
X0388590Y0186170D01*
X0388525Y0186149D01*
X0388458Y0186131D01*
X0388391Y0186117D01*
X0388323Y0186107D01*
X0388255Y0186101D01*
X0388186Y0186099D01*
X0388117Y0186101D01*
X0388049Y0186107D01*
X0387981Y0186117D01*
X0387914Y0186131D01*
X0387847Y0186149D01*
X0387782Y0186170D01*
X0387718Y0186196D01*
X0387656Y0186225D01*
X0387595Y0186257D01*
X0387537Y0186293D01*
X0387481Y0186333D01*
X0387427Y0186375D01*
X0387376Y0186421D01*
X0387327Y0186470D01*
X0387281Y0186521D01*
X0387239Y0186575D01*
X0387199Y0186631D01*
X0387163Y0186689D01*
X0387131Y0186750D01*
X0387102Y0186812D01*
X0387076Y0186876D01*
X0387055Y0186941D01*
X0387037Y0187008D01*
X0387023Y0187075D01*
X0387013Y0187143D01*
X0387007Y0187211D01*
X0387005Y0187280D01*
X0432674Y0209327D02*
X0433068Y0209720D01*
X0501965Y0210508D02*
X0501965Y0186886D01*
X0504327Y0186886D01*
X0513776Y0186886D02*
X0516138Y0186886D01*
X0516138Y0210508D01*
X0513776Y0210508D01*
X0521257Y0210114D02*
X0521257Y0213657D01*
X0529918Y0213657D01*
X0539760Y0213657D02*
X0540548Y0213657D01*
X0540548Y0183736D01*
X0539760Y0183736D01*
X0529918Y0183736D02*
X0521257Y0183736D01*
X0521257Y0187280D01*
X0521257Y0166413D02*
X0529918Y0166413D01*
X0521257Y0166413D02*
X0521257Y0162870D01*
X0516138Y0163264D02*
X0516138Y0139642D01*
X0513776Y0139642D01*
X0521257Y0140035D02*
X0521257Y0136492D01*
X0529918Y0136492D01*
X0527949Y0128224D02*
X0537398Y0128224D01*
X0537398Y0111689D01*
X0527949Y0111689D01*
X0527949Y0128224D01*
X0539760Y0136492D02*
X0540548Y0136492D01*
X0540548Y0166413D01*
X0539760Y0166413D01*
X0516138Y0163264D02*
X0513776Y0163264D01*
X0504327Y0163264D02*
X0501965Y0163264D01*
X0501965Y0139642D01*
X0504327Y0139642D01*
X0504327Y0210508D02*
X0501965Y0210508D01*
X0354743Y0105311D02*
X0355167Y0103117D01*
X0355237Y0103030D01*
X0357075Y0102269D01*
X0357187Y0102280D01*
X0359038Y0103532D01*
X0359187Y0103518D01*
X0360769Y0101936D01*
X0360783Y0101787D01*
X0359531Y0099936D01*
X0359520Y0099824D01*
X0360281Y0097986D01*
X0360368Y0097916D01*
X0362562Y0097492D01*
X0362658Y0097376D01*
X0362658Y0095140D01*
X0362562Y0095024D01*
X0360368Y0094600D01*
X0360281Y0094530D01*
X0359520Y0092692D01*
X0359531Y0092580D01*
X0360783Y0090729D01*
X0360769Y0090580D01*
X0359187Y0088998D01*
X0359038Y0088984D01*
X0357187Y0090236D01*
X0357075Y0090247D01*
X0356234Y0089899D01*
X0356079Y0089963D01*
X0354530Y0093758D01*
X0354918Y0093579D02*
X0356690Y0095744D01*
X0355902Y0098303D01*
X0353540Y0099484D01*
X0350784Y0098106D01*
X0350587Y0095547D01*
X0352162Y0093579D01*
X0350587Y0090232D01*
X0349800Y0090823D01*
X0348028Y0089248D01*
X0346847Y0090626D01*
X0347831Y0092594D01*
X0346847Y0094957D01*
X0344682Y0095350D01*
X0344682Y0097122D01*
X0347044Y0097713D01*
X0347831Y0099878D01*
X0346650Y0101453D01*
X0348028Y0103028D01*
X0349800Y0101846D01*
X0352162Y0102831D01*
X0352556Y0104996D01*
X0354524Y0104996D01*
X0354918Y0102634D01*
X0357280Y0101846D01*
X0359052Y0103028D01*
X0360233Y0101846D01*
X0359052Y0099878D01*
X0360036Y0097713D01*
X0362201Y0097122D01*
X0362201Y0095350D01*
X0360036Y0094957D01*
X0359052Y0092594D01*
X0360233Y0090626D01*
X0359052Y0089445D01*
X0357280Y0090626D01*
X0356296Y0090429D01*
X0354918Y0093579D01*
X0355165Y0093880D02*
X0359588Y0093880D01*
X0359915Y0094666D02*
X0355808Y0094666D01*
X0356451Y0095452D02*
X0362201Y0095452D01*
X0362201Y0096238D02*
X0356538Y0096238D01*
X0356296Y0097024D02*
X0362201Y0097024D01*
X0359992Y0097810D02*
X0356054Y0097810D01*
X0355317Y0098596D02*
X0359635Y0098596D01*
X0359277Y0099382D02*
X0353745Y0099382D01*
X0353335Y0099382D02*
X0347651Y0099382D01*
X0347498Y0099824D02*
X0347487Y0099936D01*
X0346235Y0101787D01*
X0346249Y0101936D01*
X0347831Y0103518D01*
X0347980Y0103532D01*
X0349831Y0102280D01*
X0349943Y0102269D01*
X0351781Y0103030D01*
X0351851Y0103117D01*
X0352275Y0105311D01*
X0352391Y0105407D01*
X0354627Y0105407D01*
X0354743Y0105311D01*
X0354543Y0104883D02*
X0352535Y0104883D01*
X0352392Y0104097D02*
X0354674Y0104097D01*
X0354805Y0103311D02*
X0352249Y0103311D01*
X0351429Y0102525D02*
X0355244Y0102525D01*
X0358298Y0102525D02*
X0359554Y0102525D01*
X0360169Y0101739D02*
X0346901Y0101739D01*
X0347025Y0100953D02*
X0359697Y0100953D01*
X0359226Y0100167D02*
X0347614Y0100167D01*
X0347498Y0099824D02*
X0346737Y0097986D01*
X0346650Y0097916D01*
X0344456Y0097492D01*
X0344360Y0097376D01*
X0344360Y0095140D01*
X0344456Y0095024D01*
X0346650Y0094600D01*
X0346737Y0094530D01*
X0347498Y0092692D01*
X0347487Y0092580D01*
X0346235Y0090729D01*
X0346249Y0090580D01*
X0347831Y0088998D01*
X0347980Y0088984D01*
X0349831Y0090236D01*
X0349943Y0090247D01*
X0350784Y0089899D01*
X0350939Y0089963D01*
X0352488Y0093758D01*
X0351921Y0093880D02*
X0347296Y0093880D01*
X0347623Y0093094D02*
X0351934Y0093094D01*
X0351564Y0092308D02*
X0347688Y0092308D01*
X0347295Y0091522D02*
X0351194Y0091522D01*
X0350825Y0090736D02*
X0349915Y0090736D01*
X0349703Y0090736D02*
X0346902Y0090736D01*
X0347426Y0089951D02*
X0348819Y0089951D01*
X0346968Y0094666D02*
X0351292Y0094666D01*
X0350663Y0095452D02*
X0344682Y0095452D01*
X0344682Y0096238D02*
X0350640Y0096238D01*
X0350701Y0097024D02*
X0344682Y0097024D01*
X0347079Y0097810D02*
X0350761Y0097810D01*
X0351763Y0098596D02*
X0347365Y0098596D01*
X0347589Y0102525D02*
X0348782Y0102525D01*
X0352359Y0093973D02*
X0352269Y0094020D01*
X0352181Y0094071D01*
X0352094Y0094125D01*
X0352010Y0094182D01*
X0351928Y0094243D01*
X0351849Y0094306D01*
X0351772Y0094373D01*
X0351698Y0094442D01*
X0351626Y0094515D01*
X0351558Y0094590D01*
X0351492Y0094668D01*
X0351429Y0094748D01*
X0351370Y0094830D01*
X0351313Y0094915D01*
X0351260Y0095002D01*
X0351211Y0095091D01*
X0351164Y0095181D01*
X0351122Y0095274D01*
X0351083Y0095368D01*
X0351047Y0095463D01*
X0351015Y0095560D01*
X0350987Y0095657D01*
X0350963Y0095756D01*
X0350943Y0095856D01*
X0350926Y0095956D01*
X0350914Y0096057D01*
X0350905Y0096159D01*
X0350900Y0096260D01*
X0350899Y0096362D01*
X0350902Y0096464D01*
X0350909Y0096565D01*
X0350920Y0096667D01*
X0350935Y0096767D01*
X0350953Y0096867D01*
X0350976Y0096967D01*
X0351002Y0097065D01*
X0351032Y0097162D01*
X0351066Y0097258D01*
X0351103Y0097353D01*
X0351144Y0097446D01*
X0351189Y0097537D01*
X0351237Y0097627D01*
X0351288Y0097715D01*
X0351343Y0097800D01*
X0351401Y0097884D01*
X0351462Y0097965D01*
X0351527Y0098044D01*
X0351594Y0098120D01*
X0351664Y0098194D01*
X0351737Y0098265D01*
X0351813Y0098333D01*
X0351891Y0098398D01*
X0351972Y0098460D01*
X0352055Y0098519D01*
X0352140Y0098574D01*
X0352227Y0098627D01*
X0352317Y0098676D01*
X0352408Y0098721D01*
X0352500Y0098763D01*
X0352595Y0098801D01*
X0352690Y0098836D01*
X0352787Y0098866D01*
X0352885Y0098894D01*
X0352984Y0098917D01*
X0353084Y0098936D01*
X0353185Y0098952D01*
X0353286Y0098964D01*
X0353387Y0098972D01*
X0353489Y0098976D01*
X0353591Y0098976D01*
X0353693Y0098972D01*
X0353794Y0098964D01*
X0353895Y0098952D01*
X0353996Y0098936D01*
X0354096Y0098917D01*
X0354195Y0098894D01*
X0354293Y0098866D01*
X0354390Y0098836D01*
X0354485Y0098801D01*
X0354580Y0098763D01*
X0354672Y0098721D01*
X0354763Y0098676D01*
X0354853Y0098627D01*
X0354940Y0098574D01*
X0355025Y0098519D01*
X0355108Y0098460D01*
X0355189Y0098398D01*
X0355267Y0098333D01*
X0355343Y0098265D01*
X0355416Y0098194D01*
X0355486Y0098120D01*
X0355553Y0098044D01*
X0355618Y0097965D01*
X0355679Y0097884D01*
X0355737Y0097800D01*
X0355792Y0097715D01*
X0355843Y0097627D01*
X0355891Y0097537D01*
X0355936Y0097446D01*
X0355977Y0097353D01*
X0356014Y0097258D01*
X0356048Y0097162D01*
X0356078Y0097065D01*
X0356104Y0096967D01*
X0356127Y0096867D01*
X0356145Y0096767D01*
X0356160Y0096667D01*
X0356171Y0096565D01*
X0356178Y0096464D01*
X0356181Y0096362D01*
X0356180Y0096260D01*
X0356175Y0096159D01*
X0356166Y0096057D01*
X0356154Y0095956D01*
X0356137Y0095856D01*
X0356117Y0095756D01*
X0356093Y0095657D01*
X0356065Y0095560D01*
X0356033Y0095463D01*
X0355997Y0095368D01*
X0355958Y0095274D01*
X0355916Y0095181D01*
X0355869Y0095091D01*
X0355820Y0095002D01*
X0355767Y0094915D01*
X0355710Y0094830D01*
X0355651Y0094748D01*
X0355588Y0094668D01*
X0355522Y0094590D01*
X0355454Y0094515D01*
X0355382Y0094442D01*
X0355308Y0094373D01*
X0355231Y0094306D01*
X0355152Y0094243D01*
X0355070Y0094182D01*
X0354986Y0094125D01*
X0354899Y0094071D01*
X0354811Y0094020D01*
X0354721Y0093973D01*
X0355130Y0093094D02*
X0359260Y0093094D01*
X0359224Y0092308D02*
X0355474Y0092308D01*
X0355818Y0091522D02*
X0359695Y0091522D01*
X0360167Y0090736D02*
X0356161Y0090736D01*
X0358293Y0089951D02*
X0359558Y0089951D01*
X0465745Y0317594D02*
X0472438Y0317594D01*
X0465745Y0317594D02*
X0465745Y0320744D01*
D12*
X0455358Y0201931D02*
X0455358Y0197828D01*
X0453990Y0197828D02*
X0456726Y0197828D01*
X0453990Y0200564D02*
X0455358Y0201931D01*
X0452122Y0201931D02*
X0452122Y0198512D01*
X0451438Y0197828D01*
X0450070Y0197828D01*
X0449386Y0198512D01*
X0449386Y0201931D01*
X0517356Y0123053D02*
X0519270Y0123053D01*
X0519908Y0122415D01*
X0519908Y0121777D01*
X0519270Y0121139D01*
X0517356Y0121139D01*
X0517356Y0119226D02*
X0519270Y0119226D01*
X0519908Y0119864D01*
X0519908Y0120501D01*
X0519270Y0121139D01*
X0517356Y0119226D02*
X0517356Y0123053D01*
X0521707Y0123053D02*
X0521707Y0119226D01*
X0524258Y0119226D01*
X0523620Y0117541D02*
X0524258Y0116904D01*
X0524258Y0115628D01*
X0523620Y0114990D01*
X0521707Y0114990D01*
X0522982Y0114990D02*
X0524258Y0113714D01*
X0521707Y0113714D02*
X0521707Y0117541D01*
X0523620Y0117541D01*
X0519908Y0116904D02*
X0519270Y0117541D01*
X0517994Y0117541D01*
X0517356Y0116904D01*
X0517356Y0114352D01*
X0517994Y0113714D01*
X0519270Y0113714D01*
X0519908Y0114352D01*
X0519908Y0115628D01*
X0518632Y0115628D01*
X0517356Y0112030D02*
X0517356Y0111392D01*
X0518632Y0110116D01*
X0518632Y0108202D01*
X0518632Y0110116D02*
X0519908Y0111392D01*
X0519908Y0112030D01*
X0521707Y0112030D02*
X0521707Y0108202D01*
X0524258Y0108202D01*
D13*
X0445733Y0171925D02*
X0445735Y0171992D01*
X0445741Y0172058D01*
X0445751Y0172124D01*
X0445765Y0172189D01*
X0445782Y0172253D01*
X0445804Y0172316D01*
X0445829Y0172378D01*
X0445858Y0172438D01*
X0445891Y0172496D01*
X0445927Y0172553D01*
X0445966Y0172606D01*
X0446008Y0172658D01*
X0446053Y0172707D01*
X0446102Y0172753D01*
X0446152Y0172796D01*
X0446206Y0172836D01*
X0446261Y0172873D01*
X0446319Y0172906D01*
X0446379Y0172936D01*
X0446440Y0172962D01*
X0446503Y0172984D01*
X0446567Y0173003D01*
X0446632Y0173018D01*
X0446697Y0173029D01*
X0446764Y0173036D01*
X0446830Y0173039D01*
X0446897Y0173038D01*
X0446963Y0173033D01*
X0447029Y0173024D01*
X0447095Y0173011D01*
X0447159Y0172994D01*
X0447223Y0172974D01*
X0447285Y0172949D01*
X0447345Y0172921D01*
X0447404Y0172890D01*
X0447461Y0172855D01*
X0447515Y0172816D01*
X0447567Y0172775D01*
X0447617Y0172730D01*
X0447664Y0172683D01*
X0447707Y0172633D01*
X0447748Y0172580D01*
X0447786Y0172525D01*
X0447820Y0172468D01*
X0447851Y0172408D01*
X0447878Y0172347D01*
X0447901Y0172285D01*
X0447921Y0172221D01*
X0447937Y0172157D01*
X0447949Y0172091D01*
X0447957Y0172025D01*
X0447961Y0171958D01*
X0447961Y0171892D01*
X0447957Y0171825D01*
X0447949Y0171759D01*
X0447937Y0171693D01*
X0447921Y0171629D01*
X0447901Y0171565D01*
X0447878Y0171503D01*
X0447851Y0171442D01*
X0447820Y0171382D01*
X0447786Y0171325D01*
X0447748Y0171270D01*
X0447707Y0171217D01*
X0447664Y0171167D01*
X0447617Y0171120D01*
X0447567Y0171075D01*
X0447515Y0171034D01*
X0447461Y0170995D01*
X0447404Y0170960D01*
X0447345Y0170929D01*
X0447285Y0170901D01*
X0447223Y0170876D01*
X0447159Y0170856D01*
X0447095Y0170839D01*
X0447029Y0170826D01*
X0446963Y0170817D01*
X0446897Y0170812D01*
X0446830Y0170811D01*
X0446764Y0170814D01*
X0446697Y0170821D01*
X0446632Y0170832D01*
X0446567Y0170847D01*
X0446503Y0170866D01*
X0446440Y0170888D01*
X0446379Y0170914D01*
X0446319Y0170944D01*
X0446261Y0170977D01*
X0446206Y0171014D01*
X0446152Y0171054D01*
X0446102Y0171097D01*
X0446053Y0171143D01*
X0446008Y0171192D01*
X0445966Y0171244D01*
X0445927Y0171297D01*
X0445891Y0171354D01*
X0445858Y0171412D01*
X0445829Y0171472D01*
X0445804Y0171534D01*
X0445782Y0171597D01*
X0445765Y0171661D01*
X0445751Y0171726D01*
X0445741Y0171792D01*
X0445735Y0171858D01*
X0445733Y0171925D01*
X0434710Y0206571D02*
X0434712Y0206638D01*
X0434718Y0206704D01*
X0434728Y0206770D01*
X0434742Y0206835D01*
X0434759Y0206899D01*
X0434781Y0206962D01*
X0434806Y0207024D01*
X0434835Y0207084D01*
X0434868Y0207142D01*
X0434903Y0207198D01*
X0434943Y0207252D01*
X0434985Y0207303D01*
X0435030Y0207352D01*
X0435078Y0207398D01*
X0435129Y0207441D01*
X0435182Y0207481D01*
X0435238Y0207518D01*
X0435296Y0207551D01*
X0435355Y0207581D01*
X0435416Y0207607D01*
X0435479Y0207630D01*
X0435543Y0207648D01*
X0435608Y0207663D01*
X0435674Y0207674D01*
X0435740Y0207681D01*
X0435806Y0207684D01*
X0435873Y0207683D01*
X0435939Y0207678D01*
X0436005Y0207669D01*
X0436071Y0207656D01*
X0436135Y0207639D01*
X0436198Y0207619D01*
X0436260Y0207594D01*
X0436321Y0207566D01*
X0436380Y0207535D01*
X0436436Y0207500D01*
X0436491Y0207462D01*
X0436543Y0207420D01*
X0436592Y0207375D01*
X0436639Y0207328D01*
X0436683Y0207278D01*
X0436723Y0207225D01*
X0436761Y0207170D01*
X0436795Y0207113D01*
X0436826Y0207054D01*
X0436853Y0206993D01*
X0436876Y0206931D01*
X0436896Y0206867D01*
X0436912Y0206802D01*
X0436924Y0206737D01*
X0436932Y0206671D01*
X0436936Y0206604D01*
X0436936Y0206538D01*
X0436932Y0206471D01*
X0436924Y0206405D01*
X0436912Y0206340D01*
X0436896Y0206275D01*
X0436876Y0206211D01*
X0436853Y0206149D01*
X0436826Y0206088D01*
X0436795Y0206029D01*
X0436761Y0205972D01*
X0436723Y0205917D01*
X0436683Y0205864D01*
X0436639Y0205814D01*
X0436592Y0205767D01*
X0436543Y0205722D01*
X0436491Y0205680D01*
X0436436Y0205642D01*
X0436379Y0205607D01*
X0436321Y0205576D01*
X0436260Y0205548D01*
X0436198Y0205523D01*
X0436135Y0205503D01*
X0436071Y0205486D01*
X0436005Y0205473D01*
X0435939Y0205464D01*
X0435873Y0205459D01*
X0435806Y0205458D01*
X0435740Y0205461D01*
X0435674Y0205468D01*
X0435608Y0205479D01*
X0435543Y0205494D01*
X0435479Y0205512D01*
X0435416Y0205535D01*
X0435355Y0205561D01*
X0435296Y0205591D01*
X0435238Y0205624D01*
X0435182Y0205661D01*
X0435129Y0205701D01*
X0435078Y0205744D01*
X0435030Y0205790D01*
X0434985Y0205839D01*
X0434943Y0205890D01*
X0434903Y0205944D01*
X0434868Y0206000D01*
X0434835Y0206058D01*
X0434806Y0206118D01*
X0434781Y0206180D01*
X0434759Y0206243D01*
X0434742Y0206307D01*
X0434728Y0206372D01*
X0434718Y0206438D01*
X0434712Y0206504D01*
X0434710Y0206571D01*
D14*
X0435823Y0206571D03*
X0388186Y0187280D03*
X0446847Y0171925D03*
X0486217Y0139642D03*
X0486217Y0127831D03*
X0486217Y0116020D03*
X0486217Y0104209D03*
X0388186Y0258146D03*
X0458264Y0292398D03*
X0388186Y0329012D03*
D15*
X0468501Y0152634D02*
X0468503Y0152690D01*
X0468509Y0152745D01*
X0468519Y0152799D01*
X0468532Y0152853D01*
X0468550Y0152906D01*
X0468571Y0152957D01*
X0468595Y0153007D01*
X0468623Y0153055D01*
X0468655Y0153101D01*
X0468689Y0153145D01*
X0468727Y0153186D01*
X0468767Y0153224D01*
X0468810Y0153259D01*
X0468855Y0153291D01*
X0468903Y0153320D01*
X0468952Y0153346D01*
X0469003Y0153368D01*
X0469055Y0153386D01*
X0469109Y0153400D01*
X0469164Y0153411D01*
X0469219Y0153418D01*
X0469274Y0153421D01*
X0469330Y0153420D01*
X0469385Y0153415D01*
X0469440Y0153406D01*
X0469494Y0153394D01*
X0469547Y0153377D01*
X0469599Y0153357D01*
X0469649Y0153333D01*
X0469697Y0153306D01*
X0469744Y0153276D01*
X0469788Y0153242D01*
X0469830Y0153205D01*
X0469868Y0153165D01*
X0469905Y0153123D01*
X0469938Y0153078D01*
X0469967Y0153032D01*
X0469994Y0152983D01*
X0470016Y0152932D01*
X0470036Y0152880D01*
X0470051Y0152826D01*
X0470063Y0152772D01*
X0470071Y0152717D01*
X0470075Y0152662D01*
X0470075Y0152606D01*
X0470071Y0152551D01*
X0470063Y0152496D01*
X0470051Y0152442D01*
X0470036Y0152388D01*
X0470016Y0152336D01*
X0469994Y0152285D01*
X0469967Y0152236D01*
X0469938Y0152190D01*
X0469905Y0152145D01*
X0469868Y0152103D01*
X0469830Y0152063D01*
X0469788Y0152026D01*
X0469744Y0151992D01*
X0469697Y0151962D01*
X0469649Y0151935D01*
X0469599Y0151911D01*
X0469547Y0151891D01*
X0469494Y0151874D01*
X0469440Y0151862D01*
X0469385Y0151853D01*
X0469330Y0151848D01*
X0469274Y0151847D01*
X0469219Y0151850D01*
X0469164Y0151857D01*
X0469109Y0151868D01*
X0469055Y0151882D01*
X0469003Y0151900D01*
X0468952Y0151922D01*
X0468903Y0151948D01*
X0468855Y0151977D01*
X0468810Y0152009D01*
X0468767Y0152044D01*
X0468727Y0152082D01*
X0468689Y0152123D01*
X0468655Y0152167D01*
X0468623Y0152213D01*
X0468595Y0152261D01*
X0468571Y0152311D01*
X0468550Y0152362D01*
X0468532Y0152415D01*
X0468519Y0152469D01*
X0468509Y0152523D01*
X0468503Y0152578D01*
X0468501Y0152634D01*
X0485823Y0139642D02*
X0485825Y0139681D01*
X0485831Y0139720D01*
X0485841Y0139758D01*
X0485854Y0139795D01*
X0485871Y0139830D01*
X0485891Y0139864D01*
X0485915Y0139895D01*
X0485942Y0139924D01*
X0485971Y0139950D01*
X0486003Y0139973D01*
X0486037Y0139993D01*
X0486073Y0140009D01*
X0486110Y0140021D01*
X0486149Y0140030D01*
X0486188Y0140035D01*
X0486227Y0140036D01*
X0486266Y0140033D01*
X0486305Y0140026D01*
X0486342Y0140015D01*
X0486379Y0140001D01*
X0486414Y0139983D01*
X0486447Y0139962D01*
X0486478Y0139937D01*
X0486506Y0139910D01*
X0486531Y0139880D01*
X0486553Y0139847D01*
X0486572Y0139813D01*
X0486587Y0139777D01*
X0486599Y0139739D01*
X0486607Y0139701D01*
X0486611Y0139662D01*
X0486611Y0139622D01*
X0486607Y0139583D01*
X0486599Y0139545D01*
X0486587Y0139507D01*
X0486572Y0139471D01*
X0486553Y0139437D01*
X0486531Y0139404D01*
X0486506Y0139374D01*
X0486478Y0139347D01*
X0486447Y0139322D01*
X0486414Y0139301D01*
X0486379Y0139283D01*
X0486342Y0139269D01*
X0486305Y0139258D01*
X0486266Y0139251D01*
X0486227Y0139248D01*
X0486188Y0139249D01*
X0486149Y0139254D01*
X0486110Y0139263D01*
X0486073Y0139275D01*
X0486037Y0139291D01*
X0486003Y0139311D01*
X0485971Y0139334D01*
X0485942Y0139360D01*
X0485915Y0139389D01*
X0485891Y0139420D01*
X0485871Y0139454D01*
X0485854Y0139489D01*
X0485841Y0139526D01*
X0485831Y0139564D01*
X0485825Y0139603D01*
X0485823Y0139642D01*
X0485823Y0127831D02*
X0485825Y0127870D01*
X0485831Y0127909D01*
X0485841Y0127947D01*
X0485854Y0127984D01*
X0485871Y0128019D01*
X0485891Y0128053D01*
X0485915Y0128084D01*
X0485942Y0128113D01*
X0485971Y0128139D01*
X0486003Y0128162D01*
X0486037Y0128182D01*
X0486073Y0128198D01*
X0486110Y0128210D01*
X0486149Y0128219D01*
X0486188Y0128224D01*
X0486227Y0128225D01*
X0486266Y0128222D01*
X0486305Y0128215D01*
X0486342Y0128204D01*
X0486379Y0128190D01*
X0486414Y0128172D01*
X0486447Y0128151D01*
X0486478Y0128126D01*
X0486506Y0128099D01*
X0486531Y0128069D01*
X0486553Y0128036D01*
X0486572Y0128002D01*
X0486587Y0127966D01*
X0486599Y0127928D01*
X0486607Y0127890D01*
X0486611Y0127851D01*
X0486611Y0127811D01*
X0486607Y0127772D01*
X0486599Y0127734D01*
X0486587Y0127696D01*
X0486572Y0127660D01*
X0486553Y0127626D01*
X0486531Y0127593D01*
X0486506Y0127563D01*
X0486478Y0127536D01*
X0486447Y0127511D01*
X0486414Y0127490D01*
X0486379Y0127472D01*
X0486342Y0127458D01*
X0486305Y0127447D01*
X0486266Y0127440D01*
X0486227Y0127437D01*
X0486188Y0127438D01*
X0486149Y0127443D01*
X0486110Y0127452D01*
X0486073Y0127464D01*
X0486037Y0127480D01*
X0486003Y0127500D01*
X0485971Y0127523D01*
X0485942Y0127549D01*
X0485915Y0127578D01*
X0485891Y0127609D01*
X0485871Y0127643D01*
X0485854Y0127678D01*
X0485841Y0127715D01*
X0485831Y0127753D01*
X0485825Y0127792D01*
X0485823Y0127831D01*
X0485823Y0116020D02*
X0485825Y0116059D01*
X0485831Y0116098D01*
X0485841Y0116136D01*
X0485854Y0116173D01*
X0485871Y0116208D01*
X0485891Y0116242D01*
X0485915Y0116273D01*
X0485942Y0116302D01*
X0485971Y0116328D01*
X0486003Y0116351D01*
X0486037Y0116371D01*
X0486073Y0116387D01*
X0486110Y0116399D01*
X0486149Y0116408D01*
X0486188Y0116413D01*
X0486227Y0116414D01*
X0486266Y0116411D01*
X0486305Y0116404D01*
X0486342Y0116393D01*
X0486379Y0116379D01*
X0486414Y0116361D01*
X0486447Y0116340D01*
X0486478Y0116315D01*
X0486506Y0116288D01*
X0486531Y0116258D01*
X0486553Y0116225D01*
X0486572Y0116191D01*
X0486587Y0116155D01*
X0486599Y0116117D01*
X0486607Y0116079D01*
X0486611Y0116040D01*
X0486611Y0116000D01*
X0486607Y0115961D01*
X0486599Y0115923D01*
X0486587Y0115885D01*
X0486572Y0115849D01*
X0486553Y0115815D01*
X0486531Y0115782D01*
X0486506Y0115752D01*
X0486478Y0115725D01*
X0486447Y0115700D01*
X0486414Y0115679D01*
X0486379Y0115661D01*
X0486342Y0115647D01*
X0486305Y0115636D01*
X0486266Y0115629D01*
X0486227Y0115626D01*
X0486188Y0115627D01*
X0486149Y0115632D01*
X0486110Y0115641D01*
X0486073Y0115653D01*
X0486037Y0115669D01*
X0486003Y0115689D01*
X0485971Y0115712D01*
X0485942Y0115738D01*
X0485915Y0115767D01*
X0485891Y0115798D01*
X0485871Y0115832D01*
X0485854Y0115867D01*
X0485841Y0115904D01*
X0485831Y0115942D01*
X0485825Y0115981D01*
X0485823Y0116020D01*
X0485823Y0104209D02*
X0485825Y0104248D01*
X0485831Y0104287D01*
X0485841Y0104325D01*
X0485854Y0104362D01*
X0485871Y0104397D01*
X0485891Y0104431D01*
X0485915Y0104462D01*
X0485942Y0104491D01*
X0485971Y0104517D01*
X0486003Y0104540D01*
X0486037Y0104560D01*
X0486073Y0104576D01*
X0486110Y0104588D01*
X0486149Y0104597D01*
X0486188Y0104602D01*
X0486227Y0104603D01*
X0486266Y0104600D01*
X0486305Y0104593D01*
X0486342Y0104582D01*
X0486379Y0104568D01*
X0486414Y0104550D01*
X0486447Y0104529D01*
X0486478Y0104504D01*
X0486506Y0104477D01*
X0486531Y0104447D01*
X0486553Y0104414D01*
X0486572Y0104380D01*
X0486587Y0104344D01*
X0486599Y0104306D01*
X0486607Y0104268D01*
X0486611Y0104229D01*
X0486611Y0104189D01*
X0486607Y0104150D01*
X0486599Y0104112D01*
X0486587Y0104074D01*
X0486572Y0104038D01*
X0486553Y0104004D01*
X0486531Y0103971D01*
X0486506Y0103941D01*
X0486478Y0103914D01*
X0486447Y0103889D01*
X0486414Y0103868D01*
X0486379Y0103850D01*
X0486342Y0103836D01*
X0486305Y0103825D01*
X0486266Y0103818D01*
X0486227Y0103815D01*
X0486188Y0103816D01*
X0486149Y0103821D01*
X0486110Y0103830D01*
X0486073Y0103842D01*
X0486037Y0103858D01*
X0486003Y0103878D01*
X0485971Y0103901D01*
X0485942Y0103927D01*
X0485915Y0103956D01*
X0485891Y0103987D01*
X0485871Y0104021D01*
X0485854Y0104056D01*
X0485841Y0104093D01*
X0485831Y0104131D01*
X0485825Y0104170D01*
X0485823Y0104209D01*
D16*
X0385036Y0104060D02*
X0383500Y0104060D01*
X0383500Y0104418D02*
X0383500Y0098333D01*
X0385036Y0098333D01*
X0385036Y0104470D01*
X0385032Y0104558D01*
X0385023Y0104645D01*
X0385014Y0104732D01*
X0385001Y0104817D01*
X0384984Y0104901D01*
X0384966Y0104985D01*
X0384945Y0105068D01*
X0384920Y0105149D01*
X0384895Y0105229D01*
X0384866Y0105309D01*
X0384833Y0105386D01*
X0384800Y0105463D01*
X0384764Y0105539D01*
X0384724Y0105612D01*
X0384684Y0105685D01*
X0384641Y0105756D01*
X0384594Y0105825D01*
X0384548Y0105893D01*
X0384498Y0105960D01*
X0384446Y0106024D01*
X0384393Y0106087D01*
X0384337Y0106149D01*
X0384279Y0106207D01*
X0384220Y0106266D01*
X0384159Y0106321D01*
X0384095Y0106374D01*
X0384031Y0106427D01*
X0383965Y0106476D01*
X0383896Y0106523D01*
X0383828Y0106569D01*
X0383756Y0106613D01*
X0383683Y0106652D01*
X0383610Y0106692D01*
X0383535Y0106729D01*
X0383457Y0106761D01*
X0383380Y0106794D01*
X0383301Y0106823D01*
X0383220Y0106848D01*
X0383139Y0106873D01*
X0383057Y0106895D01*
X0382973Y0106912D01*
X0382889Y0106929D01*
X0382803Y0106943D01*
X0382717Y0106951D01*
X0382630Y0106960D01*
X0382542Y0106965D01*
X0367845Y0106965D01*
X0367757Y0106960D01*
X0367670Y0106951D01*
X0367584Y0106943D01*
X0367498Y0106929D01*
X0367414Y0106912D01*
X0367330Y0106895D01*
X0367248Y0106873D01*
X0367167Y0106848D01*
X0367086Y0106823D01*
X0367007Y0106794D01*
X0366930Y0106761D01*
X0366853Y0106729D01*
X0366777Y0106692D01*
X0366704Y0106652D01*
X0366631Y0106613D01*
X0366560Y0106569D01*
X0366491Y0106523D01*
X0366422Y0106476D01*
X0366356Y0106427D01*
X0366292Y0106374D01*
X0366228Y0106321D01*
X0366167Y0106266D01*
X0366108Y0106207D01*
X0366050Y0106149D01*
X0365994Y0106087D01*
X0365942Y0106024D01*
X0365889Y0105960D01*
X0365839Y0105893D01*
X0365793Y0105825D01*
X0365746Y0105756D01*
X0365703Y0105685D01*
X0365663Y0105612D01*
X0365623Y0105539D01*
X0365587Y0105463D01*
X0365554Y0105386D01*
X0365522Y0105309D01*
X0365493Y0105229D01*
X0365467Y0105149D01*
X0365442Y0105068D01*
X0365421Y0104985D01*
X0365404Y0104901D01*
X0365386Y0104817D01*
X0365373Y0104732D01*
X0365364Y0104645D01*
X0365356Y0104558D01*
X0365351Y0104470D01*
X0365351Y0089774D01*
X0365356Y0089685D01*
X0365364Y0089599D01*
X0365373Y0089512D01*
X0365386Y0089427D01*
X0365404Y0089343D01*
X0365421Y0089259D01*
X0365442Y0089176D01*
X0365467Y0089095D01*
X0365493Y0089014D01*
X0365522Y0088935D01*
X0365554Y0088858D01*
X0365587Y0088781D01*
X0365623Y0088706D01*
X0365663Y0088632D01*
X0365703Y0088559D01*
X0365746Y0088488D01*
X0365793Y0088419D01*
X0365839Y0088351D01*
X0365889Y0088284D01*
X0365942Y0088220D01*
X0365994Y0088157D01*
X0366050Y0088095D01*
X0366108Y0088037D01*
X0366167Y0087978D01*
X0366228Y0087923D01*
X0366292Y0087870D01*
X0366356Y0087817D01*
X0366422Y0087768D01*
X0366491Y0087721D01*
X0366560Y0087675D01*
X0366631Y0087631D01*
X0366704Y0087592D01*
X0366777Y0087552D01*
X0366853Y0087516D01*
X0366930Y0087483D01*
X0367007Y0087450D01*
X0367086Y0087421D01*
X0367167Y0087396D01*
X0367248Y0087371D01*
X0367330Y0087349D01*
X0367414Y0087332D01*
X0367498Y0087315D01*
X0367584Y0087302D01*
X0367670Y0087293D01*
X0367757Y0087284D01*
X0367845Y0087280D01*
X0382542Y0087280D01*
X0382630Y0087284D01*
X0382717Y0087293D01*
X0382803Y0087302D01*
X0382889Y0087315D01*
X0382973Y0087332D01*
X0383057Y0087349D01*
X0383139Y0087371D01*
X0383220Y0087396D01*
X0383301Y0087421D01*
X0383380Y0087450D01*
X0383457Y0087483D01*
X0383535Y0087516D01*
X0383610Y0087552D01*
X0383683Y0087592D01*
X0383756Y0087631D01*
X0383828Y0087675D01*
X0383896Y0087721D01*
X0383965Y0087768D01*
X0384031Y0087817D01*
X0384095Y0087870D01*
X0384159Y0087923D01*
X0384220Y0087978D01*
X0384279Y0088037D01*
X0384337Y0088095D01*
X0384393Y0088157D01*
X0384446Y0088220D01*
X0384498Y0088284D01*
X0384548Y0088351D01*
X0384594Y0088419D01*
X0384641Y0088488D01*
X0384684Y0088559D01*
X0384724Y0088632D01*
X0384764Y0088706D01*
X0384800Y0088781D01*
X0384833Y0088858D01*
X0384866Y0088935D01*
X0384895Y0089014D01*
X0384920Y0089095D01*
X0384945Y0089176D01*
X0384966Y0089259D01*
X0384984Y0089343D01*
X0385001Y0089427D01*
X0385014Y0089512D01*
X0385023Y0089599D01*
X0385032Y0089685D01*
X0385036Y0089774D01*
X0385036Y0096105D01*
X0383500Y0096105D01*
X0383500Y0089827D01*
X0383498Y0089791D01*
X0383494Y0089756D01*
X0383491Y0089721D01*
X0383485Y0089686D01*
X0383478Y0089652D01*
X0383471Y0089618D01*
X0383463Y0089584D01*
X0383452Y0089552D01*
X0383442Y0089519D01*
X0383431Y0089487D01*
X0383417Y0089456D01*
X0383404Y0089424D01*
X0383389Y0089394D01*
X0383373Y0089364D01*
X0383357Y0089335D01*
X0383339Y0089306D01*
X0383321Y0089278D01*
X0383302Y0089250D01*
X0383282Y0089223D01*
X0383260Y0089197D01*
X0383239Y0089171D01*
X0383216Y0089147D01*
X0383193Y0089123D01*
X0383169Y0089099D01*
X0383144Y0089077D01*
X0383118Y0089055D01*
X0383092Y0089034D01*
X0383066Y0089014D01*
X0383038Y0088995D01*
X0383010Y0088976D01*
X0382981Y0088959D01*
X0382952Y0088943D01*
X0382922Y0088926D01*
X0382891Y0088912D01*
X0382860Y0088898D01*
X0382829Y0088885D01*
X0382797Y0088873D01*
X0382764Y0088863D01*
X0382731Y0088853D01*
X0382698Y0088844D01*
X0382664Y0088837D01*
X0382630Y0088830D01*
X0382595Y0088825D01*
X0382560Y0088822D01*
X0382525Y0088818D01*
X0382489Y0088816D01*
X0367898Y0088816D01*
X0367862Y0088818D01*
X0367827Y0088822D01*
X0367792Y0088825D01*
X0367758Y0088830D01*
X0367724Y0088837D01*
X0367690Y0088844D01*
X0367656Y0088853D01*
X0367623Y0088863D01*
X0367591Y0088873D01*
X0367558Y0088885D01*
X0367527Y0088898D01*
X0367496Y0088912D01*
X0367465Y0088926D01*
X0367436Y0088943D01*
X0367406Y0088959D01*
X0367377Y0088976D01*
X0367349Y0088995D01*
X0367322Y0089014D01*
X0367295Y0089034D01*
X0367269Y0089055D01*
X0367243Y0089077D01*
X0367218Y0089099D01*
X0367194Y0089123D01*
X0367171Y0089147D01*
X0367148Y0089171D01*
X0367127Y0089197D01*
X0367106Y0089223D01*
X0367085Y0089250D01*
X0367067Y0089278D01*
X0367048Y0089306D01*
X0367030Y0089335D01*
X0367014Y0089364D01*
X0366998Y0089394D01*
X0366983Y0089424D01*
X0366970Y0089456D01*
X0366957Y0089487D01*
X0366945Y0089519D01*
X0366935Y0089552D01*
X0366925Y0089584D01*
X0366916Y0089618D01*
X0366909Y0089652D01*
X0366902Y0089686D01*
X0366897Y0089721D01*
X0366893Y0089756D01*
X0366889Y0089791D01*
X0366888Y0089827D01*
X0366888Y0104418D01*
X0366889Y0104453D01*
X0366893Y0104488D01*
X0366897Y0104523D01*
X0366902Y0104558D01*
X0366909Y0104592D01*
X0366916Y0104626D01*
X0366925Y0104659D01*
X0366935Y0104692D01*
X0366945Y0104725D01*
X0366957Y0104757D01*
X0366970Y0104788D01*
X0366983Y0104820D01*
X0366998Y0104850D01*
X0367014Y0104880D01*
X0367030Y0104910D01*
X0367048Y0104938D01*
X0367067Y0104966D01*
X0367085Y0104994D01*
X0367106Y0105021D01*
X0367127Y0105047D01*
X0367148Y0105073D01*
X0367171Y0105098D01*
X0367194Y0105121D01*
X0367218Y0105145D01*
X0367243Y0105167D01*
X0367269Y0105189D01*
X0367295Y0105210D01*
X0367322Y0105230D01*
X0367349Y0105249D01*
X0367377Y0105268D01*
X0367406Y0105285D01*
X0367436Y0105302D01*
X0367465Y0105318D01*
X0367496Y0105332D01*
X0367527Y0105346D01*
X0367558Y0105359D01*
X0367591Y0105371D01*
X0367623Y0105381D01*
X0367656Y0105391D01*
X0367690Y0105400D01*
X0367724Y0105407D01*
X0367758Y0105414D01*
X0367792Y0105419D01*
X0367827Y0105423D01*
X0367862Y0105426D01*
X0367898Y0105428D01*
X0382489Y0105428D01*
X0382525Y0105426D01*
X0382560Y0105423D01*
X0382595Y0105419D01*
X0382630Y0105414D01*
X0382664Y0105407D01*
X0382698Y0105400D01*
X0382731Y0105391D01*
X0382764Y0105381D01*
X0382797Y0105371D01*
X0382829Y0105359D01*
X0382860Y0105346D01*
X0382891Y0105332D01*
X0382922Y0105318D01*
X0382952Y0105302D01*
X0382981Y0105285D01*
X0383010Y0105268D01*
X0383038Y0105249D01*
X0383066Y0105230D01*
X0383092Y0105210D01*
X0383118Y0105189D01*
X0383144Y0105167D01*
X0383169Y0105145D01*
X0383193Y0105121D01*
X0383216Y0105098D01*
X0383239Y0105073D01*
X0383260Y0105047D01*
X0383282Y0105021D01*
X0383302Y0104994D01*
X0383321Y0104966D01*
X0383339Y0104938D01*
X0383357Y0104910D01*
X0383373Y0104880D01*
X0383389Y0104850D01*
X0383404Y0104820D01*
X0383417Y0104788D01*
X0383431Y0104757D01*
X0383442Y0104725D01*
X0383452Y0104692D01*
X0383463Y0104659D01*
X0383471Y0104626D01*
X0383478Y0104592D01*
X0383485Y0104558D01*
X0383491Y0104523D01*
X0383494Y0104488D01*
X0383498Y0104453D01*
X0383500Y0104418D01*
X0383465Y0104649D02*
X0385022Y0104649D01*
X0384892Y0105238D02*
X0383054Y0105238D01*
X0384044Y0106416D02*
X0366343Y0106416D01*
X0365794Y0105827D02*
X0384593Y0105827D01*
X0385036Y0103471D02*
X0383500Y0103471D01*
X0383500Y0102882D02*
X0385036Y0102882D01*
X0385036Y0102293D02*
X0383500Y0102293D01*
X0383500Y0101704D02*
X0385036Y0101704D01*
X0385036Y0101114D02*
X0383500Y0101114D01*
X0383500Y0100525D02*
X0385036Y0100525D01*
X0385036Y0099936D02*
X0383500Y0099936D01*
X0383500Y0099347D02*
X0385036Y0099347D01*
X0385036Y0098758D02*
X0383500Y0098758D01*
X0383500Y0098593D02*
X0385036Y0098593D01*
X0385036Y0095757D01*
X0383500Y0095757D01*
X0383500Y0098593D01*
X0383500Y0098169D02*
X0385036Y0098169D01*
X0385036Y0097580D02*
X0383500Y0097580D01*
X0383500Y0096991D02*
X0385036Y0096991D01*
X0385036Y0096402D02*
X0383500Y0096402D01*
X0383500Y0095813D02*
X0385036Y0095813D01*
X0383500Y0095813D01*
X0383500Y0095224D02*
X0385036Y0095224D01*
X0385036Y0094635D02*
X0383500Y0094635D01*
X0383500Y0094046D02*
X0385036Y0094046D01*
X0385036Y0093457D02*
X0383500Y0093457D01*
X0383500Y0092868D02*
X0385036Y0092868D01*
X0385036Y0092279D02*
X0383500Y0092279D01*
X0383500Y0091689D02*
X0385036Y0091689D01*
X0385036Y0091100D02*
X0383500Y0091100D01*
X0383500Y0090511D02*
X0385036Y0090511D01*
X0385036Y0089922D02*
X0383500Y0089922D01*
X0383356Y0089333D02*
X0384982Y0089333D01*
X0384782Y0088744D02*
X0365605Y0088744D01*
X0365406Y0089333D02*
X0367031Y0089333D01*
X0366888Y0089922D02*
X0365351Y0089922D01*
X0365351Y0090511D02*
X0366888Y0090511D01*
X0366888Y0091100D02*
X0365351Y0091100D01*
X0365351Y0091689D02*
X0366888Y0091689D01*
X0366888Y0092279D02*
X0365351Y0092279D01*
X0365351Y0092868D02*
X0366888Y0092868D01*
X0366888Y0093457D02*
X0365351Y0093457D01*
X0365351Y0094046D02*
X0366888Y0094046D01*
X0366888Y0094635D02*
X0365351Y0094635D01*
X0365351Y0095224D02*
X0366888Y0095224D01*
X0366888Y0095813D02*
X0365351Y0095813D01*
X0365351Y0096402D02*
X0366888Y0096402D01*
X0366888Y0096991D02*
X0365351Y0096991D01*
X0365351Y0097580D02*
X0366888Y0097580D01*
X0366888Y0098169D02*
X0365351Y0098169D01*
X0365351Y0098758D02*
X0366888Y0098758D01*
X0366888Y0099347D02*
X0365351Y0099347D01*
X0365351Y0099936D02*
X0366888Y0099936D01*
X0366888Y0100525D02*
X0365351Y0100525D01*
X0365351Y0101114D02*
X0366888Y0101114D01*
X0366888Y0101704D02*
X0365351Y0101704D01*
X0365351Y0102293D02*
X0366888Y0102293D01*
X0366888Y0102882D02*
X0365351Y0102882D01*
X0365351Y0103471D02*
X0366888Y0103471D01*
X0366888Y0104060D02*
X0365351Y0104060D01*
X0365365Y0104649D02*
X0366922Y0104649D01*
X0367333Y0105238D02*
X0365496Y0105238D01*
X0368562Y0104028D02*
X0368548Y0103993D01*
X0368538Y0103957D01*
X0368527Y0103921D01*
X0368519Y0103884D01*
X0368514Y0103846D01*
X0368508Y0103808D01*
X0368506Y0103769D01*
X0368506Y0103689D01*
X0368509Y0103648D01*
X0368514Y0103608D01*
X0368520Y0103567D01*
X0368529Y0103528D01*
X0368540Y0103489D01*
X0368551Y0103450D01*
X0368566Y0103413D01*
X0368583Y0103377D01*
X0368600Y0103341D01*
X0368619Y0103307D01*
X0368642Y0103276D01*
X0368665Y0103245D01*
X0368690Y0103216D01*
X0368718Y0103190D01*
X0368747Y0103164D01*
X0368778Y0103142D01*
X0368812Y0103123D01*
X0368845Y0103104D01*
X0368882Y0103089D01*
X0368921Y0103079D01*
X0368961Y0103068D01*
X0369003Y0103062D01*
X0369047Y0103061D01*
X0370391Y0103061D01*
X0370463Y0103061D01*
X0370632Y0103061D01*
X0370630Y0103050D01*
X0370626Y0103030D01*
X0370623Y0103010D01*
X0370618Y0102981D01*
X0370612Y0102946D01*
X0370606Y0102910D01*
X0370598Y0102868D01*
X0370590Y0102820D01*
X0370581Y0102773D01*
X0370572Y0102721D01*
X0370562Y0102666D01*
X0370552Y0102611D01*
X0370541Y0102553D01*
X0370530Y0102494D01*
X0370520Y0102436D01*
X0370508Y0102376D01*
X0370497Y0102318D01*
X0370486Y0102260D01*
X0370475Y0102203D01*
X0370464Y0102150D01*
X0370453Y0102096D01*
X0370442Y0102046D01*
X0370432Y0102001D01*
X0370206Y0102001D01*
X0370005Y0101985D01*
X0369817Y0101954D01*
X0369628Y0101922D01*
X0369451Y0101876D01*
X0369286Y0101816D01*
X0369121Y0101756D01*
X0368968Y0101683D01*
X0368828Y0101597D01*
X0368687Y0101512D01*
X0368560Y0101414D01*
X0368445Y0101306D01*
X0368330Y0101198D01*
X0368229Y0101080D01*
X0368142Y0100952D01*
X0368054Y0100824D01*
X0367980Y0100687D01*
X0367921Y0100543D01*
X0367861Y0100399D01*
X0367816Y0100246D01*
X0367786Y0100088D01*
X0367755Y0099930D01*
X0367740Y0099765D01*
X0367740Y0099578D01*
X0367740Y0099560D01*
X0367740Y0099542D01*
X0367741Y0099525D01*
X0367741Y0099507D01*
X0367742Y0099489D01*
X0367742Y0099472D01*
X0367743Y0099454D01*
X0367744Y0099437D01*
X0367745Y0099419D01*
X0367746Y0099402D01*
X0367747Y0099385D01*
X0367748Y0099367D01*
X0367750Y0099350D01*
X0367751Y0099332D01*
X0367753Y0099315D01*
X0367755Y0099297D01*
X0367757Y0099280D01*
X0367759Y0099262D01*
X0367761Y0099245D01*
X0367764Y0099227D01*
X0367766Y0099209D01*
X0367769Y0099191D01*
X0367772Y0099173D01*
X0367786Y0099076D01*
X0367807Y0098986D01*
X0367836Y0098903D01*
X0367864Y0098820D01*
X0367899Y0098744D01*
X0367940Y0098675D01*
X0367981Y0098605D01*
X0368028Y0098543D01*
X0368080Y0098486D01*
X0368132Y0098430D01*
X0368189Y0098380D01*
X0368250Y0098335D01*
X0368311Y0098290D01*
X0368376Y0098251D01*
X0368444Y0098218D01*
X0368513Y0098184D01*
X0368585Y0098155D01*
X0368659Y0098131D01*
X0368733Y0098108D01*
X0368810Y0098089D01*
X0368888Y0098074D01*
X0368966Y0098059D01*
X0369046Y0098049D01*
X0369126Y0098042D01*
X0369201Y0098036D01*
X0369276Y0098036D01*
X0369350Y0098040D01*
X0369425Y0098044D01*
X0369500Y0098054D01*
X0369574Y0098068D01*
X0369648Y0098082D01*
X0369721Y0098102D01*
X0369792Y0098125D01*
X0369864Y0098149D01*
X0369934Y0098177D01*
X0370003Y0098209D01*
X0370071Y0098242D01*
X0370137Y0098278D01*
X0370200Y0098319D01*
X0370264Y0098360D01*
X0370325Y0098404D01*
X0370382Y0098452D01*
X0370440Y0098501D01*
X0370494Y0098553D01*
X0370544Y0098608D01*
X0370595Y0098663D01*
X0370641Y0098722D01*
X0370683Y0098783D01*
X0370727Y0098846D01*
X0370768Y0098912D01*
X0370808Y0098980D01*
X0370847Y0099049D01*
X0370885Y0099120D01*
X0370921Y0099194D01*
X0370957Y0099268D01*
X0370991Y0099344D01*
X0371024Y0099422D01*
X0371056Y0099500D01*
X0371088Y0099580D01*
X0371118Y0099662D01*
X0371149Y0099743D01*
X0371178Y0099826D01*
X0371207Y0099911D01*
X0371211Y0099925D01*
X0371216Y0099939D01*
X0371220Y0099953D01*
X0371277Y0100125D01*
X0371290Y0100168D01*
X0371318Y0100254D01*
X0371345Y0100342D01*
X0371372Y0100430D01*
X0371399Y0100518D01*
X0371425Y0100606D01*
X0371452Y0100695D01*
X0371505Y0100685D01*
X0371557Y0100674D01*
X0371606Y0100662D01*
X0371656Y0100650D01*
X0371704Y0100638D01*
X0371751Y0100626D01*
X0371798Y0100613D01*
X0371844Y0100600D01*
X0371889Y0100586D01*
X0371934Y0100572D01*
X0371978Y0100558D01*
X0372022Y0100543D01*
X0372066Y0100528D01*
X0372110Y0100513D01*
X0372153Y0100498D01*
X0372197Y0100483D01*
X0372241Y0100467D01*
X0372285Y0100451D01*
X0372329Y0100435D01*
X0372373Y0100419D01*
X0372418Y0100403D01*
X0372464Y0100386D01*
X0372510Y0100370D01*
X0372557Y0100353D01*
X0372532Y0100252D01*
X0372505Y0100154D01*
X0372477Y0100061D01*
X0372449Y0099967D01*
X0372419Y0099877D01*
X0372388Y0099791D01*
X0372356Y0099703D01*
X0372323Y0099620D01*
X0372289Y0099538D01*
X0372255Y0099457D01*
X0372219Y0099378D01*
X0372182Y0099301D01*
X0372144Y0099223D01*
X0372106Y0099148D01*
X0372066Y0099073D01*
X0372026Y0098999D01*
X0371985Y0098926D01*
X0371943Y0098853D01*
X0371900Y0098780D01*
X0371857Y0098708D01*
X0371812Y0098636D01*
X0371768Y0098564D01*
X0371722Y0098492D01*
X0371675Y0098419D01*
X0371654Y0098385D01*
X0371638Y0098349D01*
X0371628Y0098310D01*
X0371617Y0098272D01*
X0371612Y0098231D01*
X0371611Y0098190D01*
X0371610Y0098149D01*
X0371613Y0098106D01*
X0371621Y0098064D01*
X0371629Y0098022D01*
X0371641Y0097980D01*
X0371656Y0097939D01*
X0371672Y0097898D01*
X0371691Y0097859D01*
X0371713Y0097822D01*
X0371735Y0097785D01*
X0371761Y0097750D01*
X0371789Y0097719D01*
X0371817Y0097688D01*
X0371848Y0097660D01*
X0371880Y0097636D01*
X0371913Y0097613D01*
X0371948Y0097594D01*
X0371985Y0097581D01*
X0372015Y0097571D01*
X0372046Y0097561D01*
X0372077Y0097554D01*
X0372108Y0097546D01*
X0372140Y0097540D01*
X0372171Y0097535D01*
X0372202Y0097530D01*
X0372233Y0097527D01*
X0372264Y0097525D01*
X0372295Y0097524D01*
X0372325Y0097524D01*
X0372355Y0097525D01*
X0372385Y0097526D01*
X0372414Y0097529D01*
X0372442Y0097533D01*
X0372471Y0097537D01*
X0372498Y0097542D01*
X0372525Y0097549D01*
X0372551Y0097556D01*
X0372576Y0097564D01*
X0372600Y0097574D01*
X0372624Y0097584D01*
X0372647Y0097594D01*
X0372668Y0097607D01*
X0372720Y0097637D01*
X0372774Y0097680D01*
X0372829Y0097733D01*
X0372884Y0097786D01*
X0372941Y0097849D01*
X0372997Y0097921D01*
X0373054Y0097993D01*
X0373111Y0098074D01*
X0373168Y0098162D01*
X0373224Y0098250D01*
X0373280Y0098345D01*
X0373336Y0098446D01*
X0373391Y0098547D01*
X0373445Y0098653D01*
X0373497Y0098764D01*
X0373550Y0098875D01*
X0373600Y0098990D01*
X0373649Y0099108D01*
X0373697Y0099226D01*
X0373743Y0099346D01*
X0373785Y0099468D01*
X0373828Y0099589D01*
X0373867Y0099712D01*
X0373903Y0099834D01*
X0373932Y0099818D01*
X0373963Y0099802D01*
X0373995Y0099786D01*
X0374027Y0099769D01*
X0374060Y0099752D01*
X0374092Y0099735D01*
X0374125Y0099719D01*
X0374158Y0099702D01*
X0374190Y0099686D01*
X0374223Y0099670D01*
X0374254Y0099655D01*
X0374285Y0099640D01*
X0374315Y0099626D01*
X0374344Y0099612D01*
X0374371Y0099600D01*
X0374399Y0099588D01*
X0374424Y0099577D01*
X0374446Y0099568D01*
X0374469Y0099559D01*
X0374488Y0099552D01*
X0374505Y0099547D01*
X0374521Y0099543D01*
X0374534Y0099540D01*
X0374590Y0099540D01*
X0374635Y0099546D01*
X0374679Y0099557D01*
X0374722Y0099569D01*
X0374764Y0099586D01*
X0374804Y0099607D01*
X0374844Y0099628D01*
X0374882Y0099654D01*
X0374917Y0099683D01*
X0374952Y0099712D01*
X0374984Y0099745D01*
X0375014Y0099781D01*
X0375044Y0099817D01*
X0375070Y0099855D01*
X0375094Y0099896D01*
X0375117Y0099937D01*
X0375137Y0099980D01*
X0375153Y0100024D01*
X0375170Y0100068D01*
X0375182Y0100113D01*
X0375191Y0100159D01*
X0375200Y0100205D01*
X0375204Y0100251D01*
X0375204Y0100322D01*
X0375203Y0100346D01*
X0375200Y0100371D01*
X0375197Y0100395D01*
X0375193Y0100420D01*
X0375187Y0100443D01*
X0375181Y0100467D01*
X0375174Y0100491D01*
X0375165Y0100514D01*
X0375157Y0100537D01*
X0375146Y0100559D01*
X0375134Y0100581D01*
X0375122Y0100602D01*
X0375109Y0100623D01*
X0375094Y0100643D01*
X0375078Y0100663D01*
X0375061Y0100683D01*
X0375043Y0100701D01*
X0375024Y0100719D01*
X0375004Y0100737D01*
X0374981Y0100753D01*
X0374959Y0100769D01*
X0374935Y0100785D01*
X0374909Y0100799D01*
X0374885Y0100812D01*
X0374858Y0100826D01*
X0374830Y0100842D01*
X0374802Y0100857D01*
X0374771Y0100874D01*
X0374740Y0100892D01*
X0374708Y0100909D01*
X0374675Y0100927D01*
X0374641Y0100946D01*
X0374606Y0100965D01*
X0374571Y0100985D01*
X0374535Y0101004D01*
X0374500Y0101024D01*
X0374463Y0101044D01*
X0374427Y0101063D01*
X0374390Y0101083D01*
X0374353Y0101102D01*
X0374317Y0101121D01*
X0374281Y0101140D01*
X0374244Y0101159D01*
X0374209Y0101177D01*
X0374174Y0101195D01*
X0374139Y0101212D01*
X0374105Y0101228D01*
X0374118Y0101346D01*
X0374129Y0101459D01*
X0374138Y0101567D01*
X0374148Y0101674D01*
X0374156Y0101777D01*
X0374164Y0101873D01*
X0374171Y0101969D01*
X0374177Y0102059D01*
X0374182Y0102142D01*
X0374187Y0102226D01*
X0374190Y0102302D01*
X0374194Y0102371D01*
X0374197Y0102440D01*
X0374199Y0102502D01*
X0374201Y0102556D01*
X0374203Y0102609D01*
X0374204Y0102655D01*
X0374205Y0102692D01*
X0374206Y0102729D01*
X0374206Y0102758D01*
X0374206Y0102777D01*
X0374207Y0102796D01*
X0374207Y0102843D01*
X0374201Y0102880D01*
X0374192Y0102915D01*
X0374182Y0102950D01*
X0374169Y0102983D01*
X0374151Y0103015D01*
X0374133Y0103047D01*
X0374111Y0103077D01*
X0374086Y0103105D01*
X0374062Y0103133D01*
X0374033Y0103159D01*
X0374003Y0103183D01*
X0373972Y0103207D01*
X0373938Y0103229D01*
X0373903Y0103248D01*
X0373867Y0103267D01*
X0373830Y0103284D01*
X0373790Y0103299D01*
X0373751Y0103313D01*
X0373711Y0103324D01*
X0373669Y0103333D01*
X0373628Y0103342D01*
X0373585Y0103348D01*
X0373543Y0103350D01*
X0373500Y0103353D01*
X0373458Y0103351D01*
X0373416Y0103346D01*
X0373375Y0103340D01*
X0373334Y0103330D01*
X0373295Y0103317D01*
X0373256Y0103303D01*
X0373219Y0103287D01*
X0373183Y0103267D01*
X0373148Y0103247D01*
X0373114Y0103224D01*
X0373084Y0103199D01*
X0373053Y0103174D01*
X0373025Y0103146D01*
X0373000Y0103116D01*
X0372975Y0103086D01*
X0372954Y0103054D01*
X0372936Y0103021D01*
X0372919Y0102987D01*
X0372905Y0102953D01*
X0372895Y0102917D01*
X0372886Y0102881D01*
X0372881Y0102843D01*
X0372881Y0102806D01*
X0372881Y0102796D01*
X0372880Y0102777D01*
X0372880Y0102758D01*
X0372879Y0102730D01*
X0372878Y0102695D01*
X0372877Y0102660D01*
X0372875Y0102617D01*
X0372873Y0102569D01*
X0372870Y0102521D01*
X0372867Y0102466D01*
X0372863Y0102408D01*
X0372859Y0102349D01*
X0372854Y0102286D01*
X0372848Y0102220D01*
X0372841Y0102154D01*
X0372834Y0102085D01*
X0372826Y0102015D01*
X0372817Y0101944D01*
X0372807Y0101873D01*
X0372796Y0101800D01*
X0372784Y0101728D01*
X0372771Y0101656D01*
X0372757Y0101586D01*
X0372714Y0101598D01*
X0372671Y0101610D01*
X0372628Y0101622D01*
X0372585Y0101635D01*
X0372542Y0101648D01*
X0372499Y0101660D01*
X0372456Y0101673D01*
X0372413Y0101686D01*
X0372371Y0101698D01*
X0372328Y0101711D01*
X0372286Y0101723D01*
X0372243Y0101735D01*
X0372201Y0101747D01*
X0372159Y0101759D01*
X0372116Y0101771D01*
X0372074Y0101782D01*
X0372032Y0101793D01*
X0371990Y0101804D01*
X0371948Y0101814D01*
X0371906Y0101824D01*
X0371864Y0101833D01*
X0371822Y0101842D01*
X0371781Y0101850D01*
X0371739Y0101858D01*
X0371755Y0101929D01*
X0371772Y0102007D01*
X0371789Y0102090D01*
X0371806Y0102174D01*
X0371824Y0102262D01*
X0371841Y0102351D01*
X0371859Y0102441D01*
X0371876Y0102533D01*
X0371893Y0102624D01*
X0371910Y0102714D01*
X0371927Y0102804D01*
X0371942Y0102890D01*
X0371958Y0102975D01*
X0371972Y0103057D01*
X0371985Y0103132D01*
X0371998Y0103206D01*
X0372009Y0103274D01*
X0372019Y0103332D01*
X0372029Y0103390D01*
X0372036Y0103438D01*
X0372041Y0103474D01*
X0372047Y0103509D01*
X0372050Y0103532D01*
X0372050Y0103600D01*
X0372043Y0103658D01*
X0372032Y0103713D01*
X0372020Y0103768D01*
X0372003Y0103821D01*
X0371980Y0103870D01*
X0371958Y0103919D01*
X0371930Y0103965D01*
X0371898Y0104007D01*
X0371866Y0104049D01*
X0371830Y0104088D01*
X0371789Y0104123D01*
X0371748Y0104158D01*
X0371703Y0104190D01*
X0371654Y0104217D01*
X0371606Y0104244D01*
X0371554Y0104267D01*
X0371498Y0104286D01*
X0371443Y0104305D01*
X0371385Y0104319D01*
X0371324Y0104329D01*
X0371263Y0104338D01*
X0371199Y0104343D01*
X0368994Y0104343D01*
X0368951Y0104339D01*
X0368911Y0104330D01*
X0368872Y0104321D01*
X0368835Y0104308D01*
X0368801Y0104291D01*
X0368768Y0104275D01*
X0368737Y0104254D01*
X0368710Y0104231D01*
X0368682Y0104208D01*
X0368657Y0104182D01*
X0368635Y0104153D01*
X0368613Y0104125D01*
X0368594Y0104094D01*
X0368578Y0104061D01*
X0368562Y0104028D01*
X0368578Y0104060D02*
X0371857Y0104060D01*
X0372041Y0103471D02*
X0368545Y0103471D01*
X0369011Y0101704D02*
X0372353Y0101704D01*
X0372780Y0101704D02*
X0374151Y0101704D01*
X0374190Y0102293D02*
X0372854Y0102293D01*
X0372886Y0102882D02*
X0374201Y0102882D01*
X0374330Y0101114D02*
X0368259Y0101114D01*
X0367914Y0100525D02*
X0369384Y0100525D01*
X0369386Y0100527D02*
X0369443Y0100572D01*
X0369508Y0100614D01*
X0369580Y0100651D01*
X0369651Y0100689D01*
X0369730Y0100723D01*
X0369816Y0100750D01*
X0369903Y0100778D01*
X0369996Y0100800D01*
X0370098Y0100815D01*
X0370076Y0100745D01*
X0370055Y0100677D01*
X0370035Y0100610D01*
X0370014Y0100543D01*
X0369994Y0100479D01*
X0369975Y0100416D01*
X0369956Y0100353D01*
X0369938Y0100293D01*
X0369920Y0100235D01*
X0369902Y0100177D01*
X0369885Y0100122D01*
X0369868Y0100070D01*
X0369864Y0100059D01*
X0369828Y0099953D01*
X0371220Y0099953D01*
X0369828Y0099953D01*
X0369825Y0099943D01*
X0369821Y0099932D01*
X0369818Y0099922D01*
X0369802Y0099876D01*
X0369786Y0099834D01*
X0369770Y0099795D01*
X0369755Y0099757D01*
X0369739Y0099722D01*
X0369724Y0099691D01*
X0369709Y0099660D01*
X0369694Y0099634D01*
X0369679Y0099612D01*
X0369665Y0099590D01*
X0369650Y0099569D01*
X0369635Y0099550D01*
X0369620Y0099531D01*
X0369604Y0099514D01*
X0369588Y0099497D01*
X0369572Y0099481D01*
X0369555Y0099466D01*
X0369538Y0099453D01*
X0369521Y0099440D01*
X0369503Y0099429D01*
X0369485Y0099419D01*
X0369467Y0099409D01*
X0369449Y0099400D01*
X0369431Y0099394D01*
X0369412Y0099387D01*
X0369394Y0099382D01*
X0369375Y0099379D01*
X0369356Y0099376D01*
X0369337Y0099374D01*
X0369318Y0099374D01*
X0369299Y0099374D01*
X0369280Y0099377D01*
X0369262Y0099381D01*
X0369245Y0099384D01*
X0369229Y0099389D01*
X0369213Y0099394D01*
X0369197Y0099400D01*
X0369181Y0099406D01*
X0369167Y0099414D01*
X0369152Y0099422D01*
X0369137Y0099431D01*
X0369123Y0099441D01*
X0369110Y0099451D01*
X0369097Y0099463D01*
X0369084Y0099476D01*
X0369072Y0099489D01*
X0369061Y0099503D01*
X0369050Y0099518D01*
X0369039Y0099534D01*
X0369030Y0099551D01*
X0369021Y0099569D01*
X0369012Y0099588D01*
X0369005Y0099608D01*
X0368998Y0099629D01*
X0368992Y0099651D01*
X0368987Y0099674D01*
X0368983Y0099699D01*
X0368982Y0099702D01*
X0368981Y0099705D01*
X0368980Y0099708D01*
X0368979Y0099712D01*
X0368979Y0099715D01*
X0368978Y0099718D01*
X0368978Y0099722D01*
X0368977Y0099725D01*
X0368977Y0099729D01*
X0368976Y0099732D01*
X0368976Y0099736D01*
X0368976Y0099739D01*
X0368976Y0099743D01*
X0368975Y0099746D01*
X0368975Y0099750D01*
X0368975Y0099753D01*
X0368975Y0099756D01*
X0368975Y0099760D01*
X0368975Y0099763D01*
X0368975Y0099823D01*
X0368980Y0099870D01*
X0368990Y0099919D01*
X0369000Y0099968D01*
X0369015Y0100020D01*
X0369036Y0100072D01*
X0369057Y0100124D01*
X0369083Y0100177D01*
X0369116Y0100229D01*
X0369148Y0100282D01*
X0369187Y0100333D01*
X0369232Y0100383D01*
X0369276Y0100433D01*
X0369328Y0100482D01*
X0369386Y0100527D01*
X0370009Y0100525D02*
X0371401Y0100525D01*
X0371215Y0099936D02*
X0369823Y0099936D01*
X0368993Y0099936D02*
X0367757Y0099936D01*
X0367750Y0099347D02*
X0370992Y0099347D01*
X0370666Y0098758D02*
X0367893Y0098758D01*
X0368549Y0098169D02*
X0369915Y0098169D01*
X0371610Y0098169D02*
X0373172Y0098169D01*
X0373494Y0098758D02*
X0371887Y0098758D01*
X0372204Y0099347D02*
X0373743Y0099347D01*
X0372439Y0099936D02*
X0375117Y0099936D01*
X0375161Y0100525D02*
X0372075Y0100525D01*
X0371830Y0102293D02*
X0370492Y0102293D01*
X0370601Y0102882D02*
X0371941Y0102882D01*
X0376539Y0101236D02*
X0376461Y0101009D01*
X0376383Y0100779D01*
X0376304Y0100548D01*
X0376225Y0100315D01*
X0376145Y0100077D01*
X0376064Y0099839D01*
X0375983Y0099596D01*
X0375901Y0099348D01*
X0375818Y0099099D01*
X0375734Y0098845D01*
X0375648Y0098584D01*
X0375643Y0098571D01*
X0375640Y0098558D01*
X0375636Y0098545D01*
X0375632Y0098533D01*
X0375629Y0098520D01*
X0375626Y0098507D01*
X0375623Y0098494D01*
X0375620Y0098481D01*
X0375618Y0098469D01*
X0375615Y0098456D01*
X0375613Y0098443D01*
X0375611Y0098431D01*
X0375609Y0098418D01*
X0375607Y0098406D01*
X0375606Y0098394D01*
X0375605Y0098382D01*
X0375603Y0098370D01*
X0375603Y0098358D01*
X0375602Y0098346D01*
X0375601Y0098334D01*
X0375601Y0098323D01*
X0375600Y0098311D01*
X0375600Y0098300D01*
X0375600Y0098232D01*
X0375606Y0098177D01*
X0375617Y0098125D01*
X0375628Y0098074D01*
X0375645Y0098025D01*
X0375665Y0097980D01*
X0375686Y0097935D01*
X0375712Y0097893D01*
X0375741Y0097854D01*
X0375770Y0097816D01*
X0375802Y0097781D01*
X0375838Y0097750D01*
X0375874Y0097718D01*
X0375912Y0097691D01*
X0375953Y0097667D01*
X0375993Y0097642D01*
X0376036Y0097622D01*
X0376080Y0097606D01*
X0376125Y0097590D01*
X0376170Y0097577D01*
X0376217Y0097569D01*
X0376263Y0097561D01*
X0376310Y0097556D01*
X0376357Y0097556D01*
X0376392Y0097556D01*
X0376428Y0097559D01*
X0376464Y0097564D01*
X0376499Y0097569D01*
X0376534Y0097577D01*
X0376569Y0097587D01*
X0376603Y0097597D01*
X0376637Y0097610D01*
X0376669Y0097625D01*
X0376702Y0097640D01*
X0376733Y0097658D01*
X0376763Y0097679D01*
X0376793Y0097700D01*
X0376821Y0097723D01*
X0376848Y0097749D01*
X0376874Y0097775D01*
X0376899Y0097804D01*
X0376921Y0097835D01*
X0376944Y0097867D01*
X0376964Y0097901D01*
X0376981Y0097938D01*
X0376999Y0097975D01*
X0377014Y0098015D01*
X0377026Y0098058D01*
X0377077Y0098240D01*
X0377132Y0098407D01*
X0377188Y0098561D01*
X0377244Y0098716D01*
X0377302Y0098857D01*
X0377362Y0098987D01*
X0377421Y0099116D01*
X0377482Y0099233D01*
X0377544Y0099338D01*
X0377606Y0099443D01*
X0377669Y0099537D01*
X0377733Y0099620D01*
X0377796Y0099704D01*
X0377861Y0099776D01*
X0377925Y0099838D01*
X0377989Y0099901D01*
X0378054Y0099953D01*
X0378118Y0099996D01*
X0378182Y0100039D01*
X0378245Y0100073D01*
X0378308Y0100098D01*
X0378371Y0100124D01*
X0378433Y0100140D01*
X0378494Y0100149D01*
X0378544Y0100149D01*
X0378587Y0100143D01*
X0378623Y0100130D01*
X0378659Y0100117D01*
X0378689Y0100099D01*
X0378713Y0100076D01*
X0378737Y0100052D01*
X0378756Y0100024D01*
X0378771Y0099991D01*
X0378785Y0099959D01*
X0378795Y0099922D01*
X0378802Y0099882D01*
X0378809Y0099842D01*
X0378813Y0099798D01*
X0378815Y0099752D01*
X0378816Y0099706D01*
X0378816Y0099658D01*
X0378815Y0099608D01*
X0378814Y0099558D01*
X0378812Y0099506D01*
X0378810Y0099454D01*
X0378808Y0099401D01*
X0378807Y0099348D01*
X0378807Y0099148D01*
X0378817Y0099011D01*
X0378837Y0098885D01*
X0378857Y0098759D01*
X0378886Y0098644D01*
X0378923Y0098538D01*
X0378960Y0098432D01*
X0379004Y0098336D01*
X0379056Y0098249D01*
X0379108Y0098162D01*
X0379167Y0098084D01*
X0379231Y0098014D01*
X0379296Y0097945D01*
X0379366Y0097884D01*
X0379441Y0097830D01*
X0379515Y0097777D01*
X0379594Y0097731D01*
X0379677Y0097693D01*
X0379759Y0097654D01*
X0379845Y0097623D01*
X0379933Y0097598D01*
X0380020Y0097573D01*
X0380110Y0097555D01*
X0380201Y0097543D01*
X0380347Y0097522D01*
X0380492Y0097524D01*
X0380636Y0097547D01*
X0380780Y0097570D01*
X0380922Y0097613D01*
X0381061Y0097676D01*
X0381199Y0097739D01*
X0381333Y0097822D01*
X0381462Y0097923D01*
X0381591Y0098023D01*
X0381714Y0098142D01*
X0381829Y0098278D01*
X0381943Y0098414D01*
X0382051Y0098567D01*
X0382148Y0098735D01*
X0382245Y0098904D01*
X0382332Y0099088D01*
X0382408Y0099286D01*
X0382483Y0099484D01*
X0382547Y0099697D01*
X0382597Y0099923D01*
X0382646Y0100149D01*
X0382682Y0100388D01*
X0382702Y0100639D01*
X0382702Y0100756D01*
X0382697Y0100805D01*
X0382686Y0100852D01*
X0382675Y0100898D01*
X0382659Y0100942D01*
X0382639Y0100982D01*
X0382619Y0101022D01*
X0382595Y0101059D01*
X0382567Y0101093D01*
X0382539Y0101126D01*
X0382508Y0101157D01*
X0382473Y0101184D01*
X0382439Y0101211D01*
X0382402Y0101235D01*
X0382362Y0101255D01*
X0382323Y0101276D01*
X0382281Y0101293D01*
X0382238Y0101307D01*
X0382195Y0101320D01*
X0382151Y0101331D01*
X0382106Y0101338D01*
X0382061Y0101345D01*
X0382015Y0101348D01*
X0381927Y0101348D01*
X0381886Y0101345D01*
X0381845Y0101339D01*
X0381804Y0101334D01*
X0381764Y0101325D01*
X0381725Y0101313D01*
X0381687Y0101302D01*
X0381649Y0101287D01*
X0381614Y0101270D01*
X0381578Y0101252D01*
X0381544Y0101231D01*
X0381512Y0101208D01*
X0381481Y0101184D01*
X0381451Y0101157D01*
X0381425Y0101128D01*
X0381398Y0101098D01*
X0381375Y0101065D01*
X0381354Y0101029D01*
X0381334Y0100993D01*
X0381317Y0100954D01*
X0381304Y0100912D01*
X0381291Y0100869D01*
X0381281Y0100823D01*
X0381276Y0100775D01*
X0381256Y0100566D01*
X0381233Y0100381D01*
X0381206Y0100217D01*
X0381179Y0100053D01*
X0381149Y0099911D01*
X0381116Y0099787D01*
X0381083Y0099663D01*
X0381048Y0099559D01*
X0381011Y0099470D01*
X0380973Y0099382D01*
X0380934Y0099310D01*
X0380894Y0099252D01*
X0380853Y0099193D01*
X0380812Y0099149D01*
X0380769Y0099115D01*
X0380726Y0099082D01*
X0380683Y0099059D01*
X0380640Y0099046D01*
X0380597Y0099032D01*
X0380553Y0099028D01*
X0380510Y0099029D01*
X0380468Y0099030D01*
X0380425Y0099037D01*
X0380384Y0099048D01*
X0380344Y0099059D01*
X0380311Y0099082D01*
X0380284Y0099116D01*
X0380257Y0099150D01*
X0380236Y0099193D01*
X0380220Y0099243D01*
X0380204Y0099294D01*
X0380193Y0099351D01*
X0380185Y0099411D01*
X0380178Y0099472D01*
X0380174Y0099536D01*
X0380173Y0099601D01*
X0380172Y0099665D01*
X0380173Y0099731D01*
X0380175Y0099793D01*
X0380178Y0099855D01*
X0380181Y0099914D01*
X0380185Y0099968D01*
X0380189Y0100021D01*
X0380193Y0100069D01*
X0380196Y0100107D01*
X0380199Y0100146D01*
X0380201Y0100175D01*
X0380201Y0100192D01*
X0380198Y0100370D01*
X0380178Y0100535D01*
X0380143Y0100685D01*
X0380107Y0100835D01*
X0380056Y0100971D01*
X0379993Y0101091D01*
X0379930Y0101211D01*
X0379854Y0101316D01*
X0379769Y0101404D01*
X0379683Y0101493D01*
X0379587Y0101566D01*
X0379483Y0101622D01*
X0379380Y0101678D01*
X0379269Y0101717D01*
X0379153Y0101739D01*
X0379037Y0101761D01*
X0378917Y0101766D01*
X0378793Y0101753D01*
X0378670Y0101739D01*
X0378544Y0101708D01*
X0378419Y0101658D01*
X0378294Y0101608D01*
X0378168Y0101540D01*
X0378045Y0101452D01*
X0378079Y0101539D01*
X0378114Y0101629D01*
X0378149Y0101720D01*
X0378184Y0101811D01*
X0378219Y0101903D01*
X0378255Y0101995D01*
X0378291Y0102088D01*
X0378327Y0102181D01*
X0378363Y0102274D01*
X0378399Y0102367D01*
X0378435Y0102460D01*
X0378471Y0102552D01*
X0378507Y0102644D01*
X0378543Y0102735D01*
X0378579Y0102824D01*
X0378614Y0102914D01*
X0378650Y0103002D01*
X0378685Y0103087D01*
X0378719Y0103173D01*
X0378754Y0103256D01*
X0378787Y0103337D01*
X0378820Y0103417D01*
X0378853Y0103495D01*
X0378885Y0103568D01*
X0378890Y0103579D01*
X0378895Y0103590D01*
X0378899Y0103601D01*
X0378903Y0103612D01*
X0378907Y0103622D01*
X0378911Y0103633D01*
X0378914Y0103643D01*
X0378917Y0103654D01*
X0378920Y0103664D01*
X0378923Y0103674D01*
X0378926Y0103685D01*
X0378928Y0103695D01*
X0378930Y0103705D01*
X0378932Y0103715D01*
X0378934Y0103725D01*
X0378935Y0103735D01*
X0378937Y0103745D01*
X0378938Y0103755D01*
X0378939Y0103765D01*
X0378940Y0103775D01*
X0378940Y0103785D01*
X0378941Y0103795D01*
X0378941Y0103805D01*
X0378941Y0103865D01*
X0378934Y0103913D01*
X0378922Y0103960D01*
X0378910Y0104007D01*
X0378892Y0104051D01*
X0378869Y0104094D01*
X0378846Y0104137D01*
X0378819Y0104177D01*
X0378787Y0104215D01*
X0378756Y0104252D01*
X0378720Y0104287D01*
X0378682Y0104319D01*
X0378644Y0104351D01*
X0378602Y0104380D01*
X0378559Y0104405D01*
X0378516Y0104430D01*
X0378470Y0104452D01*
X0378423Y0104469D01*
X0378377Y0104487D01*
X0378329Y0104501D01*
X0378281Y0104510D01*
X0378233Y0104519D01*
X0378184Y0104524D01*
X0378107Y0104524D01*
X0378079Y0104522D01*
X0378051Y0104519D01*
X0378022Y0104515D01*
X0377995Y0104510D01*
X0377967Y0104502D01*
X0377940Y0104495D01*
X0377914Y0104486D01*
X0377888Y0104475D01*
X0377862Y0104463D01*
X0377837Y0104450D01*
X0377813Y0104435D01*
X0377789Y0104419D01*
X0377766Y0104402D01*
X0377745Y0104382D01*
X0377723Y0104362D01*
X0377703Y0104340D01*
X0377683Y0104316D01*
X0377664Y0104292D01*
X0377646Y0104265D01*
X0377630Y0104236D01*
X0377614Y0104207D01*
X0377600Y0104176D01*
X0377587Y0104142D01*
X0377501Y0103913D01*
X0377417Y0103688D01*
X0377334Y0103465D01*
X0377252Y0103241D01*
X0377170Y0103019D01*
X0377090Y0102797D01*
X0377010Y0102575D01*
X0376931Y0102354D01*
X0376853Y0102132D01*
X0376774Y0101909D01*
X0376696Y0101686D01*
X0376618Y0101461D01*
X0376539Y0101236D01*
X0376498Y0101114D02*
X0379981Y0101114D01*
X0380179Y0100525D02*
X0376296Y0100525D01*
X0376097Y0099936D02*
X0378033Y0099936D01*
X0378791Y0099936D02*
X0380183Y0099936D01*
X0380194Y0099347D02*
X0378807Y0099347D01*
X0378857Y0098758D02*
X0382161Y0098758D01*
X0382431Y0099347D02*
X0380955Y0099347D01*
X0381154Y0099936D02*
X0382600Y0099936D01*
X0382693Y0100525D02*
X0381251Y0100525D01*
X0381413Y0101114D02*
X0382549Y0101114D01*
X0381736Y0098169D02*
X0379104Y0098169D01*
X0379997Y0097580D02*
X0380814Y0097580D01*
X0380648Y0096947D02*
X0380605Y0096957D01*
X0380555Y0096950D01*
X0380490Y0096924D01*
X0380426Y0096897D01*
X0380348Y0096851D01*
X0380248Y0096783D01*
X0380147Y0096715D01*
X0380076Y0096659D01*
X0380027Y0096609D01*
X0379979Y0096559D01*
X0379954Y0096515D01*
X0379947Y0096471D01*
X0379941Y0096427D01*
X0379952Y0096383D01*
X0379977Y0096333D01*
X0380002Y0096283D01*
X0380040Y0096226D01*
X0380087Y0096158D01*
X0380205Y0095984D01*
X0380323Y0095811D01*
X0380441Y0095637D01*
X0380559Y0095464D01*
X0380596Y0095408D01*
X0380628Y0095362D01*
X0380660Y0095327D01*
X0380693Y0095292D01*
X0380727Y0095270D01*
X0380768Y0095262D01*
X0380810Y0095255D01*
X0380860Y0095262D01*
X0380924Y0095289D01*
X0380988Y0095315D01*
X0381068Y0095360D01*
X0381169Y0095426D01*
X0381268Y0095495D01*
X0381339Y0095553D01*
X0381387Y0095603D01*
X0381435Y0095653D01*
X0381461Y0095696D01*
X0381469Y0095738D01*
X0381477Y0095779D01*
X0381469Y0095819D01*
X0381449Y0095862D01*
X0381428Y0095905D01*
X0381397Y0095952D01*
X0381359Y0096007D01*
X0381241Y0096181D01*
X0381124Y0096354D01*
X0381006Y0096528D01*
X0380888Y0096702D01*
X0380841Y0096770D01*
X0380803Y0096826D01*
X0380766Y0096868D01*
X0380728Y0096910D01*
X0380692Y0096937D01*
X0380648Y0096947D01*
X0381234Y0096662D02*
X0381228Y0096618D01*
X0381221Y0096574D01*
X0381233Y0096530D01*
X0381258Y0096480D01*
X0381283Y0096430D01*
X0381321Y0096373D01*
X0381367Y0096305D01*
X0381485Y0096131D01*
X0381603Y0095958D01*
X0381721Y0095784D01*
X0381839Y0095610D01*
X0381876Y0095555D01*
X0381908Y0095508D01*
X0381941Y0095474D01*
X0381973Y0095439D01*
X0382007Y0095416D01*
X0382049Y0095409D01*
X0382090Y0095401D01*
X0382140Y0095409D01*
X0382204Y0095435D01*
X0382269Y0095462D01*
X0382348Y0095506D01*
X0382449Y0095573D01*
X0382548Y0095642D01*
X0382619Y0095699D01*
X0382667Y0095750D01*
X0382715Y0095800D01*
X0382741Y0095843D01*
X0382749Y0095885D01*
X0382758Y0095926D01*
X0382749Y0095966D01*
X0382729Y0096009D01*
X0382709Y0096052D01*
X0382677Y0096099D01*
X0382640Y0096154D01*
X0382522Y0096328D01*
X0382404Y0096501D01*
X0382286Y0096675D01*
X0382168Y0096849D01*
X0382122Y0096917D01*
X0382083Y0096973D01*
X0382046Y0097015D01*
X0382009Y0097057D01*
X0381972Y0097084D01*
X0381928Y0097094D01*
X0381885Y0097104D01*
X0381835Y0097097D01*
X0381771Y0097070D01*
X0381706Y0097044D01*
X0381628Y0096998D01*
X0381528Y0096930D01*
X0381428Y0096862D01*
X0381356Y0096806D01*
X0381308Y0096756D01*
X0381259Y0096706D01*
X0381234Y0096662D01*
X0381301Y0096402D02*
X0382471Y0096402D01*
X0382723Y0095813D02*
X0381701Y0095813D01*
X0381470Y0095813D02*
X0380321Y0095813D01*
X0379692Y0095813D02*
X0378317Y0095813D01*
X0378317Y0096402D02*
X0379692Y0096402D01*
X0379692Y0096427D02*
X0379684Y0096465D01*
X0379669Y0096500D01*
X0379654Y0096535D01*
X0379633Y0096566D01*
X0379607Y0096592D01*
X0379581Y0096619D01*
X0379549Y0096640D01*
X0379515Y0096655D01*
X0379480Y0096669D01*
X0379442Y0096678D01*
X0378567Y0096678D01*
X0378529Y0096669D01*
X0378494Y0096655D01*
X0378460Y0096640D01*
X0378428Y0096619D01*
X0378402Y0096592D01*
X0378376Y0096566D01*
X0378354Y0096535D01*
X0378340Y0096500D01*
X0378325Y0096465D01*
X0378317Y0096427D01*
X0378317Y0095219D01*
X0375753Y0095219D01*
X0375715Y0095210D01*
X0375680Y0095196D01*
X0375645Y0095181D01*
X0375614Y0095160D01*
X0375588Y0095133D01*
X0375562Y0095107D01*
X0375540Y0095076D01*
X0375526Y0095041D01*
X0375511Y0095006D01*
X0375503Y0094968D01*
X0375503Y0094094D01*
X0375511Y0094055D01*
X0375526Y0094021D01*
X0375540Y0093986D01*
X0375562Y0093955D01*
X0375588Y0093928D01*
X0375614Y0093902D01*
X0375645Y0093881D01*
X0375680Y0093866D01*
X0375715Y0093852D01*
X0375753Y0093844D01*
X0378317Y0093844D01*
X0378317Y0089591D01*
X0378325Y0089553D01*
X0378340Y0089518D01*
X0378354Y0089484D01*
X0378376Y0089452D01*
X0378402Y0089426D01*
X0378428Y0089400D01*
X0378460Y0089378D01*
X0378494Y0089364D01*
X0378529Y0089349D01*
X0378567Y0089341D01*
X0379442Y0089341D01*
X0379480Y0089349D01*
X0379515Y0089364D01*
X0379549Y0089378D01*
X0379581Y0089400D01*
X0379607Y0089426D01*
X0379633Y0089452D01*
X0379654Y0089484D01*
X0379669Y0089518D01*
X0379684Y0089553D01*
X0379692Y0089591D01*
X0379692Y0093844D01*
X0382129Y0093844D01*
X0382167Y0093852D01*
X0382202Y0093866D01*
X0382237Y0093881D01*
X0382268Y0093902D01*
X0382294Y0093928D01*
X0382321Y0093955D01*
X0382342Y0093986D01*
X0382356Y0094021D01*
X0382371Y0094055D01*
X0382379Y0094094D01*
X0382379Y0094134D01*
X0382379Y0094968D01*
X0382371Y0095006D01*
X0382356Y0095041D01*
X0382342Y0095076D01*
X0382321Y0095107D01*
X0382294Y0095133D01*
X0382268Y0095160D01*
X0382237Y0095181D01*
X0382202Y0095196D01*
X0382167Y0095210D01*
X0382129Y0095219D01*
X0379692Y0095219D01*
X0379692Y0096427D01*
X0379947Y0096402D02*
X0381091Y0096402D01*
X0381618Y0096991D02*
X0382067Y0096991D01*
X0382379Y0094635D02*
X0375503Y0094635D01*
X0375515Y0094046D02*
X0382367Y0094046D01*
X0381283Y0093104D02*
X0381254Y0093131D01*
X0381223Y0093151D01*
X0381191Y0093172D01*
X0381156Y0093186D01*
X0381120Y0093193D01*
X0381083Y0093200D01*
X0381045Y0093200D01*
X0381008Y0093193D01*
X0380971Y0093186D01*
X0380935Y0093171D01*
X0380902Y0093149D01*
X0380721Y0093027D01*
X0380541Y0092905D01*
X0380360Y0092783D01*
X0380180Y0092661D01*
X0380147Y0092639D01*
X0380120Y0092610D01*
X0380099Y0092579D01*
X0380078Y0092547D01*
X0380064Y0092512D01*
X0380057Y0092476D01*
X0380050Y0092439D01*
X0380050Y0092401D01*
X0380057Y0092364D01*
X0380065Y0092327D01*
X0380079Y0092291D01*
X0380102Y0092258D01*
X0380438Y0091761D01*
X0380775Y0091264D01*
X0381112Y0090767D01*
X0381449Y0090270D01*
X0381471Y0090237D01*
X0381499Y0090209D01*
X0381531Y0090189D01*
X0381562Y0090168D01*
X0381597Y0090154D01*
X0381634Y0090147D01*
X0381670Y0090140D01*
X0381708Y0090140D01*
X0381745Y0090147D01*
X0381782Y0090154D01*
X0381818Y0090169D01*
X0381852Y0090192D01*
X0382032Y0090313D01*
X0382213Y0090435D01*
X0382393Y0090557D01*
X0382573Y0090679D01*
X0382607Y0090702D01*
X0382634Y0090730D01*
X0382655Y0090761D01*
X0382675Y0090793D01*
X0382689Y0090828D01*
X0382696Y0090864D01*
X0382703Y0090901D01*
X0382703Y0090939D01*
X0382696Y0090976D01*
X0382689Y0091013D01*
X0382674Y0091049D01*
X0382652Y0091082D01*
X0382315Y0091579D01*
X0381978Y0092077D01*
X0381642Y0092573D01*
X0381305Y0093071D01*
X0381283Y0093104D01*
X0381442Y0092868D02*
X0380486Y0092868D01*
X0380088Y0092279D02*
X0381842Y0092279D01*
X0382241Y0091689D02*
X0380487Y0091689D01*
X0380886Y0091100D02*
X0382640Y0091100D01*
X0382325Y0090511D02*
X0381285Y0090511D01*
X0379692Y0090511D02*
X0378317Y0090511D01*
X0378317Y0089922D02*
X0379692Y0089922D01*
X0379692Y0091100D02*
X0378317Y0091100D01*
X0378317Y0091689D02*
X0379692Y0091689D01*
X0379692Y0092279D02*
X0378317Y0092279D01*
X0377933Y0092364D02*
X0377941Y0092401D01*
X0377941Y0092439D01*
X0377934Y0092476D01*
X0377926Y0092512D01*
X0377912Y0092547D01*
X0377892Y0092579D01*
X0377871Y0092610D01*
X0377844Y0092639D01*
X0377811Y0092661D01*
X0377631Y0092783D01*
X0377450Y0092905D01*
X0377270Y0093027D01*
X0377089Y0093149D01*
X0377056Y0093171D01*
X0377020Y0093186D01*
X0376983Y0093193D01*
X0376946Y0093200D01*
X0376908Y0093200D01*
X0376871Y0093193D01*
X0376835Y0093186D01*
X0376800Y0093172D01*
X0376768Y0093151D01*
X0376736Y0093131D01*
X0376708Y0093104D01*
X0376686Y0093071D01*
X0376349Y0092573D01*
X0376013Y0092077D01*
X0375676Y0091579D01*
X0375339Y0091082D01*
X0375317Y0091049D01*
X0375302Y0091013D01*
X0375295Y0090976D01*
X0375288Y0090939D01*
X0375288Y0090901D01*
X0375295Y0090864D01*
X0375302Y0090828D01*
X0375316Y0090793D01*
X0375336Y0090761D01*
X0375357Y0090730D01*
X0375384Y0090702D01*
X0375417Y0090679D01*
X0375598Y0090557D01*
X0375778Y0090435D01*
X0375959Y0090313D01*
X0376139Y0090192D01*
X0376173Y0090169D01*
X0376209Y0090154D01*
X0376246Y0090147D01*
X0376283Y0090140D01*
X0376321Y0090140D01*
X0376357Y0090147D01*
X0376393Y0090154D01*
X0376429Y0090168D01*
X0376460Y0090189D01*
X0376492Y0090209D01*
X0376520Y0090237D01*
X0376542Y0090270D01*
X0376879Y0090767D01*
X0377216Y0091264D01*
X0377552Y0091761D01*
X0377889Y0092258D01*
X0377912Y0092291D01*
X0377926Y0092327D01*
X0377933Y0092364D01*
X0377903Y0092279D02*
X0376149Y0092279D01*
X0376548Y0092868D02*
X0377505Y0092868D01*
X0378317Y0092868D02*
X0379692Y0092868D01*
X0379692Y0093457D02*
X0378317Y0093457D01*
X0378317Y0095224D02*
X0379692Y0095224D01*
X0376546Y0097580D02*
X0376160Y0097580D01*
X0375608Y0098169D02*
X0377057Y0098169D01*
X0377261Y0098758D02*
X0375705Y0098758D01*
X0375901Y0099347D02*
X0377550Y0099347D01*
X0378143Y0101704D02*
X0376702Y0101704D01*
X0376910Y0102293D02*
X0378370Y0102293D01*
X0378533Y0101704D02*
X0379308Y0101704D01*
X0378602Y0102882D02*
X0377121Y0102882D01*
X0377337Y0103471D02*
X0378843Y0103471D01*
X0378887Y0104060D02*
X0377556Y0104060D01*
X0372616Y0097580D02*
X0371989Y0097580D01*
X0373423Y0096296D02*
X0368522Y0096296D01*
X0368484Y0096288D01*
X0368449Y0096274D01*
X0368415Y0096259D01*
X0368383Y0096238D01*
X0368357Y0096212D01*
X0368331Y0096185D01*
X0368309Y0096154D01*
X0368295Y0096119D01*
X0368280Y0096085D01*
X0368272Y0096046D01*
X0368272Y0095232D01*
X0368280Y0095194D01*
X0368295Y0095159D01*
X0368309Y0095124D01*
X0368331Y0095093D01*
X0368357Y0095067D01*
X0368383Y0095040D01*
X0368415Y0095019D01*
X0368449Y0095004D01*
X0368484Y0094990D01*
X0368522Y0094981D01*
X0372177Y0094981D01*
X0373383Y0094981D01*
X0373423Y0094981D01*
X0373461Y0094990D01*
X0373496Y0095004D01*
X0373530Y0095019D01*
X0373561Y0095040D01*
X0373588Y0095067D01*
X0373614Y0095093D01*
X0373635Y0095124D01*
X0373650Y0095159D01*
X0373665Y0095194D01*
X0373673Y0095232D01*
X0373673Y0096046D01*
X0373665Y0096085D01*
X0373650Y0096119D01*
X0373635Y0096154D01*
X0373614Y0096185D01*
X0373588Y0096212D01*
X0373561Y0096238D01*
X0373530Y0096259D01*
X0373496Y0096274D01*
X0373461Y0096288D01*
X0373423Y0096296D01*
X0373673Y0095813D02*
X0368272Y0095813D01*
X0368274Y0095224D02*
X0373671Y0095224D01*
X0373916Y0094344D02*
X0367989Y0094344D01*
X0367950Y0094336D01*
X0367916Y0094321D01*
X0367881Y0094307D01*
X0367850Y0094286D01*
X0367823Y0094259D01*
X0367797Y0094233D01*
X0367776Y0094202D01*
X0367761Y0094167D01*
X0367746Y0094132D01*
X0367738Y0094094D01*
X0367738Y0093271D01*
X0367746Y0093233D01*
X0367761Y0093198D01*
X0367776Y0093163D01*
X0367797Y0093132D01*
X0367823Y0093106D01*
X0367850Y0093079D01*
X0367881Y0093058D01*
X0367916Y0093043D01*
X0367950Y0093029D01*
X0367989Y0093021D01*
X0372693Y0093021D01*
X0372687Y0092993D01*
X0372681Y0092963D01*
X0372674Y0092932D01*
X0372666Y0092902D01*
X0372659Y0092870D01*
X0372650Y0092839D01*
X0372642Y0092808D01*
X0372633Y0092777D01*
X0372623Y0092747D01*
X0372612Y0092718D01*
X0372602Y0092689D01*
X0372590Y0092664D01*
X0372502Y0092456D01*
X0372373Y0092258D01*
X0372203Y0092072D01*
X0372033Y0091887D01*
X0371821Y0091715D01*
X0371569Y0091562D01*
X0371316Y0091409D01*
X0371023Y0091274D01*
X0370688Y0091162D01*
X0370354Y0091051D01*
X0369979Y0090963D01*
X0369562Y0090903D01*
X0369528Y0090899D01*
X0369495Y0090896D01*
X0369461Y0090892D01*
X0369427Y0090888D01*
X0369388Y0090879D01*
X0369353Y0090862D01*
X0369322Y0090839D01*
X0369292Y0090817D01*
X0369267Y0090789D01*
X0369247Y0090757D01*
X0369228Y0090725D01*
X0369215Y0090690D01*
X0369209Y0090652D01*
X0369203Y0090615D01*
X0369204Y0090576D01*
X0369213Y0090537D01*
X0369265Y0090326D01*
X0369316Y0090114D01*
X0369368Y0089902D01*
X0369420Y0089691D01*
X0369429Y0089653D01*
X0369445Y0089618D01*
X0369467Y0089588D01*
X0369489Y0089559D01*
X0369516Y0089534D01*
X0369547Y0089514D01*
X0369578Y0089495D01*
X0369612Y0089482D01*
X0369648Y0089475D01*
X0369684Y0089468D01*
X0369722Y0089468D01*
X0369761Y0089476D01*
X0369761Y0089474D01*
X0369761Y0089473D01*
X0369761Y0089471D01*
X0369762Y0089469D01*
X0369781Y0089469D01*
X0369790Y0089469D01*
X0369799Y0089469D01*
X0369808Y0089470D01*
X0369816Y0089470D01*
X0369825Y0089471D01*
X0369833Y0089471D01*
X0369841Y0089472D01*
X0369849Y0089474D01*
X0369857Y0089475D01*
X0369865Y0089477D01*
X0370594Y0089565D01*
X0371223Y0089731D01*
X0371758Y0089956D01*
X0372293Y0090181D01*
X0372735Y0090465D01*
X0373088Y0090785D01*
X0373442Y0091106D01*
X0373708Y0091465D01*
X0373892Y0091841D01*
X0374076Y0092216D01*
X0374179Y0092609D01*
X0374207Y0092998D01*
X0374207Y0094094D01*
X0374198Y0094132D01*
X0374184Y0094167D01*
X0374169Y0094202D01*
X0374148Y0094233D01*
X0374121Y0094259D01*
X0374095Y0094286D01*
X0374064Y0094307D01*
X0374029Y0094321D01*
X0373994Y0094336D01*
X0373956Y0094344D01*
X0373916Y0094344D01*
X0374207Y0094046D02*
X0367738Y0094046D01*
X0367738Y0093457D02*
X0374207Y0093457D01*
X0374197Y0092868D02*
X0372658Y0092868D01*
X0372387Y0092279D02*
X0374093Y0092279D01*
X0373818Y0091689D02*
X0371779Y0091689D01*
X0370503Y0091100D02*
X0373435Y0091100D01*
X0372786Y0090511D02*
X0369219Y0090511D01*
X0369363Y0089922D02*
X0371677Y0089922D01*
X0375352Y0091100D02*
X0377105Y0091100D01*
X0376706Y0090511D02*
X0375666Y0090511D01*
X0375750Y0091689D02*
X0377504Y0091689D01*
X0383636Y0087566D02*
X0366751Y0087566D01*
X0365996Y0088155D02*
X0384391Y0088155D01*
M02*
