%
M48
M72
T01C0.01181
T02C0.02362
T03C0.03150
T04C0.03543
T05C0.03937
T06C0.05118
T07C0.12598
T08C0.15748
%
T01
X365745Y173866
X368894Y173866
X375981Y185677
X375981Y188827
X385036Y187646
X385036Y182921
X392910Y190795
X397635Y190795
X402359Y190795
X407083Y190795
X411414Y193551
X425194Y184890
X437005Y188433
X460233Y196701
X468107Y192764
X474406Y197882
X463383Y202606
X463383Y207331
X463383Y212055
X463383Y216780
X463383Y221504
X463383Y226228
X456296Y221110
X448028Y223866
X426768Y227016
X429524Y236465
X447241Y244339
X448422Y241189
X451965Y249063
X460627Y256937
X434249Y261268
X433855Y279378
X435430Y281740
X437005Y279378
X438579Y281740
X437005Y284102
X440154Y284102
X440154Y279378
X433855Y284102
X432280Y281740
X430705Y279378
X429131Y281740
X430705Y284102
X427556Y284102
X427556Y279378
X412989Y265992
X401572Y265992
X389760Y267173
X394879Y253787
X394879Y250638
X394879Y241189
X394879Y238039
X394879Y234890
X394879Y231740
X401572Y231740
X378737Y229378
X377162Y231740
X375587Y229378
X374012Y231740
X372438Y229378
X374012Y227016
X375587Y224654
X377162Y227016
X378737Y224654
X394879Y215992
X395272Y208118
X360233Y193945
X360233Y190795
X449209Y155362
X467320Y168354
X490548Y151819
X500390Y160480
X505115Y153394
X503540Y140008
X500390Y183315
X505115Y200638
X500390Y207331
X500390Y230559
X490154Y230165
X490154Y242764
X498028Y242764
X505115Y247882
X500390Y254969
X500390Y277803
X504721Y295126
X500390Y302213
X475587Y289614
X470863Y284890
X447241Y293551
X444091Y293551
X449209Y317567
X449209Y320717
X419682Y326622
X417320Y328984
X419682Y331346
X417320Y333709
X414957Y336071
X412595Y338433
X410233Y336071
X407871Y338433
X405509Y336071
X407871Y333709
X410233Y331346
X412595Y328984
X410233Y326622
X407871Y328984
X405509Y331346
X403146Y333709
X412595Y333709
X414957Y331346
X414957Y326622
X382280Y300244
X380705Y297882
X379131Y300244
X377556Y297882
X379131Y295520
X382280Y295520
X375981Y295520
X374406Y297882
X375981Y300244
X368894Y315598
X365745Y315598
X368894Y320717
X360233Y332134
X360233Y335677
X422044Y362843
X426375Y365598
X430705Y362843
X360233Y264811
X360233Y261661
X365745Y244732
X368894Y244732
T02
X310823Y267961
X310823Y288433
X310823Y338827
X509249Y298669
X521060Y306543
X509249Y281346
X521060Y273472
X521060Y259299
X509249Y251425
X509249Y234102
X521060Y226228
X521060Y212055
X509249Y204181
X509249Y186858
X521060Y178984
X521060Y164811
X509249Y156937
X509249Y139614
X521060Y131740
X310823Y146701
X310823Y197094
X310823Y217567
T03
X497241Y337252
X484446Y356150
T04
X339760Y327409
X339760Y317567
X339760Y309693
X339760Y299850
X339760Y256543
X339760Y246701
X339760Y238827
X339760Y228984
X339760Y185677
X339760Y175835
X339760Y167961
X339760Y158118
T05
X385627Y155457
X395627Y155457
X405627Y155457
X415627Y155457
X425627Y155457
X435627Y155457
X431886Y166110
X421650Y166110
X421650Y176110
X431886Y176110
X495390Y171898
X505390Y171898
X550390Y186858
X555233Y171898
X565233Y171898
X550390Y156937
X550390Y139614
X550390Y204181
X555233Y219142
X565233Y219142
X550390Y234102
X550390Y251425
X555233Y266386
X565233Y266386
X550390Y281346
X550390Y298669
X555233Y313630
X565233Y313630
X506178Y313630
X496178Y313630
X472635Y337252
X496178Y266386
X506178Y266386
X506178Y219142
X496178Y219142
T06
X560233Y228984
X560233Y209299
X560233Y181740
X560233Y162055
X560233Y134496
X560233Y256543
X560233Y276228
X560233Y303787
T07
X589760Y305756
X511020Y370717
X471650Y305756
X318107Y370717
X318107Y114811
X511020Y114811
T08
X286611Y83315
X648816Y83315
X648816Y402213
X286611Y402213
M30
