G75*
%MOIN*%
%OFA0B0*%
%FSLAX25Y25*%
%IPPOS*%
%LPD*%
%AMOC8*
5,1,8,0,0,1.08239X$1,22.5*
%
%ADD10C,0.01575*%
%ADD11C,0.00787*%
%ADD12R,0.00787X0.00787*%
%ADD13C,0.03150*%
%ADD14C,0.01181*%
%ADD15R,0.05906X0.06693*%
%ADD16R,0.05906X0.05512*%
%ADD17R,0.03543X0.01181*%
%ADD18R,0.05512X0.09449*%
%ADD19R,0.01181X0.01181*%
%ADD20R,0.03937X0.03937*%
%ADD21C,0.02362*%
%ADD22R,0.03150X0.03150*%
%ADD23R,0.04331X0.02756*%
%ADD24R,0.02756X0.04331*%
%ADD25R,0.04724X0.11811*%
%ADD26R,0.11811X0.04724*%
%ADD27R,0.03543X0.02756*%
D10*
X0366335Y0167988D02*
X0366335Y0168382D01*
X0369091Y0168382D01*
X0369091Y0167988D01*
X0366335Y0167988D01*
X0366335Y0171728D02*
X0366335Y0172122D01*
X0369091Y0172122D01*
X0369091Y0171728D01*
X0366335Y0171728D01*
X0366335Y0175469D02*
X0366335Y0175862D01*
X0369091Y0175862D01*
X0369091Y0175469D01*
X0366335Y0175469D01*
X0376178Y0179996D02*
X0376178Y0183539D01*
X0379721Y0183539D01*
X0379721Y0179996D01*
X0376178Y0179996D01*
X0378934Y0175862D02*
X0381690Y0175862D01*
X0381690Y0175469D01*
X0378934Y0175469D01*
X0378934Y0175862D01*
X0385627Y0179996D02*
X0385627Y0183539D01*
X0389170Y0183539D01*
X0389170Y0179996D01*
X0385627Y0179996D01*
X0391532Y0186295D02*
X0391532Y0189839D01*
X0395075Y0189839D01*
X0395075Y0186295D01*
X0391532Y0186295D01*
X0391532Y0195744D02*
X0391532Y0199287D01*
X0395075Y0199287D01*
X0395075Y0195744D01*
X0391532Y0195744D01*
X0403540Y0199878D02*
X0403540Y0200665D01*
X0404327Y0200665D01*
X0404327Y0199878D01*
X0403540Y0199878D01*
X0408264Y0199878D02*
X0408264Y0200665D01*
X0409052Y0200665D01*
X0409052Y0199878D01*
X0408264Y0199878D01*
X0409052Y0204012D02*
X0409052Y0207949D01*
X0412201Y0207949D02*
X0412201Y0204012D01*
X0415351Y0204012D02*
X0415351Y0207949D01*
X0418501Y0207949D02*
X0418501Y0204012D01*
X0421650Y0204012D02*
X0421650Y0207949D01*
X0424800Y0207949D02*
X0424800Y0204012D01*
X0427949Y0204012D02*
X0427949Y0207949D01*
X0431099Y0207949D02*
X0431099Y0204012D01*
X0434446Y0211295D02*
X0438383Y0211295D01*
X0438383Y0214445D02*
X0434446Y0214445D01*
X0434446Y0217594D02*
X0438383Y0217594D01*
X0438383Y0220744D02*
X0434446Y0220744D01*
X0434446Y0223894D02*
X0438383Y0223894D01*
X0438383Y0227043D02*
X0434446Y0227043D01*
X0434446Y0230193D02*
X0438383Y0230193D01*
X0438383Y0233343D02*
X0434446Y0233343D01*
X0431099Y0236689D02*
X0431099Y0240626D01*
X0427949Y0240626D02*
X0427949Y0236689D01*
X0424800Y0236689D02*
X0424800Y0240626D01*
X0421650Y0240626D02*
X0421650Y0236689D01*
X0418501Y0236689D02*
X0418501Y0240626D01*
X0415351Y0240626D02*
X0415351Y0236689D01*
X0412201Y0236689D02*
X0412201Y0240626D01*
X0409052Y0240626D02*
X0409052Y0236689D01*
X0405705Y0233343D02*
X0401768Y0233343D01*
X0401768Y0230193D02*
X0405705Y0230193D01*
X0405705Y0227043D02*
X0401768Y0227043D01*
X0401768Y0223894D02*
X0405705Y0223894D01*
X0405705Y0220744D02*
X0401768Y0220744D01*
X0401768Y0217594D02*
X0405705Y0217594D01*
X0405705Y0214445D02*
X0401768Y0214445D01*
X0401768Y0211295D02*
X0405705Y0211295D01*
X0391335Y0214839D02*
X0390548Y0214839D01*
X0390548Y0215626D01*
X0391335Y0215626D01*
X0391335Y0214839D01*
X0391335Y0219563D02*
X0391335Y0220350D01*
X0390548Y0220350D01*
X0390548Y0219563D01*
X0391335Y0219563D01*
X0386611Y0219563D02*
X0386611Y0220350D01*
X0385823Y0220350D01*
X0385823Y0219563D01*
X0386611Y0219563D01*
X0386611Y0215626D02*
X0385823Y0215626D01*
X0385823Y0214839D01*
X0386611Y0214839D01*
X0386611Y0215626D01*
X0386611Y0224287D02*
X0385823Y0224287D01*
X0385823Y0225075D01*
X0386611Y0225075D01*
X0386611Y0224287D01*
X0390548Y0224287D02*
X0390548Y0225075D01*
X0391335Y0225075D01*
X0391335Y0224287D01*
X0390548Y0224287D01*
X0390548Y0229012D02*
X0390548Y0229799D01*
X0391335Y0229799D01*
X0391335Y0229012D01*
X0390548Y0229012D01*
X0386611Y0229012D02*
X0385823Y0229012D01*
X0385823Y0229799D01*
X0386611Y0229799D01*
X0386611Y0229012D01*
X0381690Y0238854D02*
X0378934Y0238854D01*
X0378934Y0239248D01*
X0381690Y0239248D01*
X0381690Y0238854D01*
X0381690Y0246335D02*
X0378934Y0246335D01*
X0378934Y0246728D01*
X0381690Y0246728D01*
X0381690Y0246335D01*
X0379721Y0250862D02*
X0376178Y0250862D01*
X0376178Y0254406D01*
X0379721Y0254406D01*
X0379721Y0250862D01*
X0385627Y0250862D02*
X0385627Y0254406D01*
X0389170Y0254406D01*
X0389170Y0250862D01*
X0385627Y0250862D01*
X0391532Y0257161D02*
X0391532Y0260705D01*
X0395075Y0260705D01*
X0395075Y0257161D01*
X0391532Y0257161D01*
X0391532Y0266610D02*
X0391532Y0270154D01*
X0395075Y0270154D01*
X0395075Y0266610D01*
X0391532Y0266610D01*
X0414957Y0253815D02*
X0415745Y0253815D01*
X0415745Y0253028D01*
X0414957Y0253028D01*
X0414957Y0253815D01*
X0414957Y0249091D02*
X0415745Y0249091D01*
X0415745Y0248303D01*
X0414957Y0248303D01*
X0414957Y0249091D01*
X0426375Y0249091D02*
X0427162Y0249091D01*
X0427162Y0248303D01*
X0426375Y0248303D01*
X0426375Y0249091D01*
X0426375Y0253028D02*
X0426375Y0253815D01*
X0427162Y0253815D01*
X0427162Y0253028D01*
X0426375Y0253028D01*
X0448225Y0266217D02*
X0448225Y0269760D01*
X0451768Y0269760D01*
X0451768Y0266217D01*
X0448225Y0266217D01*
X0457674Y0266217D02*
X0457674Y0269760D01*
X0461217Y0269760D01*
X0461217Y0266217D01*
X0457674Y0266217D01*
X0474800Y0248303D02*
X0475587Y0248303D01*
X0475587Y0247516D01*
X0474800Y0247516D01*
X0474800Y0248303D01*
X0474800Y0243579D02*
X0475587Y0243579D01*
X0475587Y0242791D01*
X0474800Y0242791D01*
X0474800Y0243579D01*
X0479524Y0243579D02*
X0480312Y0243579D01*
X0480312Y0242791D01*
X0479524Y0242791D01*
X0479524Y0243579D01*
X0479524Y0247516D02*
X0479524Y0248303D01*
X0480312Y0248303D01*
X0480312Y0247516D01*
X0479524Y0247516D01*
X0489760Y0234524D02*
X0490548Y0234524D01*
X0490548Y0233736D01*
X0489760Y0233736D01*
X0489760Y0234524D01*
X0489760Y0229799D02*
X0490548Y0229799D01*
X0490548Y0229012D01*
X0489760Y0229012D01*
X0489760Y0229799D01*
X0489760Y0225075D02*
X0490548Y0225075D01*
X0490548Y0224287D01*
X0489760Y0224287D01*
X0489760Y0225075D01*
X0489760Y0220350D02*
X0490548Y0220350D01*
X0490548Y0219563D01*
X0489760Y0219563D01*
X0489760Y0220350D01*
X0489760Y0215626D02*
X0490548Y0215626D01*
X0490548Y0214839D01*
X0489760Y0214839D01*
X0489760Y0215626D01*
X0489760Y0210902D02*
X0490548Y0210902D01*
X0490548Y0210114D01*
X0489760Y0210114D01*
X0489760Y0210902D01*
X0485430Y0210902D02*
X0485430Y0210114D01*
X0484642Y0210114D01*
X0484642Y0210902D01*
X0485430Y0210902D01*
X0480705Y0210902D02*
X0480705Y0210114D01*
X0479918Y0210114D01*
X0479918Y0210902D01*
X0480705Y0210902D01*
X0480705Y0206177D02*
X0480705Y0205390D01*
X0479918Y0205390D01*
X0479918Y0206177D01*
X0480705Y0206177D01*
X0484642Y0206177D02*
X0484642Y0205390D01*
X0485430Y0205390D01*
X0485430Y0206177D01*
X0484642Y0206177D01*
X0484642Y0201453D02*
X0485430Y0201453D01*
X0485430Y0200665D01*
X0484642Y0200665D01*
X0484642Y0201453D01*
X0480705Y0201453D02*
X0480705Y0200665D01*
X0479918Y0200665D01*
X0479918Y0201453D01*
X0480705Y0201453D01*
X0480705Y0196728D02*
X0480705Y0195941D01*
X0479918Y0195941D01*
X0479918Y0196728D01*
X0480705Y0196728D01*
X0484642Y0196728D02*
X0484642Y0195941D01*
X0485430Y0195941D01*
X0485430Y0196728D01*
X0484642Y0196728D01*
X0484642Y0192004D02*
X0485430Y0192004D01*
X0485430Y0191217D01*
X0484642Y0191217D01*
X0484642Y0192004D01*
X0480705Y0192004D02*
X0480705Y0191217D01*
X0479918Y0191217D01*
X0479918Y0192004D01*
X0480705Y0192004D01*
X0480705Y0187280D02*
X0480705Y0186492D01*
X0479918Y0186492D01*
X0479918Y0187280D01*
X0480705Y0187280D01*
X0484642Y0187280D02*
X0484642Y0186492D01*
X0485430Y0186492D01*
X0485430Y0187280D01*
X0484642Y0187280D01*
X0484642Y0182555D02*
X0485430Y0182555D01*
X0485430Y0181768D01*
X0484642Y0181768D01*
X0484642Y0182555D01*
X0480705Y0182555D02*
X0480705Y0181768D01*
X0479918Y0181768D01*
X0479918Y0182555D01*
X0480705Y0182555D01*
X0480705Y0177831D02*
X0480705Y0177043D01*
X0479918Y0177043D01*
X0479918Y0177831D01*
X0480705Y0177831D01*
X0484642Y0177831D02*
X0484642Y0177043D01*
X0485430Y0177043D01*
X0485430Y0177831D01*
X0484642Y0177831D01*
X0479131Y0173500D02*
X0479131Y0172713D01*
X0478343Y0172713D01*
X0478343Y0173500D01*
X0479131Y0173500D01*
X0474406Y0173500D02*
X0474406Y0172713D01*
X0473619Y0172713D01*
X0473619Y0173500D01*
X0474406Y0173500D01*
X0442516Y0169563D02*
X0441729Y0169563D01*
X0441729Y0168776D01*
X0442516Y0168776D01*
X0442516Y0169563D01*
X0442516Y0164839D02*
X0441729Y0164839D01*
X0441729Y0164051D01*
X0442516Y0164051D01*
X0442516Y0164839D01*
X0436217Y0164839D02*
X0435430Y0164839D01*
X0435430Y0164051D01*
X0436217Y0164051D01*
X0436217Y0164839D01*
X0436217Y0168776D02*
X0435430Y0168776D01*
X0435430Y0169563D01*
X0436217Y0169563D01*
X0436217Y0168776D01*
X0427949Y0180980D02*
X0425194Y0180980D01*
X0425194Y0182949D01*
X0427949Y0182949D01*
X0427949Y0180980D01*
X0427949Y0187673D02*
X0425194Y0187673D01*
X0425194Y0189642D01*
X0427949Y0189642D01*
X0427949Y0187673D01*
X0419682Y0187673D02*
X0419682Y0189642D01*
X0416926Y0189642D01*
X0416926Y0187673D01*
X0419682Y0187673D01*
X0419682Y0182949D02*
X0416926Y0182949D01*
X0416926Y0180980D01*
X0419682Y0180980D01*
X0419682Y0182949D01*
X0412595Y0183343D02*
X0411808Y0183343D01*
X0411808Y0182555D01*
X0412595Y0182555D01*
X0412595Y0183343D01*
X0412595Y0187280D02*
X0411808Y0187280D01*
X0411808Y0188067D01*
X0412595Y0188067D01*
X0412595Y0187280D01*
X0402359Y0167594D02*
X0401572Y0167594D01*
X0401572Y0166807D01*
X0402359Y0166807D01*
X0402359Y0167594D01*
X0402359Y0162870D02*
X0401572Y0162870D01*
X0401572Y0162083D01*
X0402359Y0162083D01*
X0402359Y0162870D01*
X0391335Y0158933D02*
X0391335Y0158146D01*
X0390548Y0158146D01*
X0390548Y0158933D01*
X0391335Y0158933D01*
X0386611Y0158933D02*
X0386611Y0158146D01*
X0385823Y0158146D01*
X0385823Y0158933D01*
X0386611Y0158933D01*
X0386611Y0154209D02*
X0385823Y0154209D01*
X0385823Y0153421D01*
X0386611Y0153421D01*
X0386611Y0154209D01*
X0390548Y0154209D02*
X0391335Y0154209D01*
X0391335Y0153421D01*
X0390548Y0153421D01*
X0390548Y0154209D01*
X0390548Y0149484D02*
X0391335Y0149484D01*
X0391335Y0148697D01*
X0390548Y0148697D01*
X0390548Y0149484D01*
X0386611Y0149484D02*
X0386611Y0148697D01*
X0385823Y0148697D01*
X0385823Y0149484D01*
X0386611Y0149484D01*
X0386611Y0144760D02*
X0385823Y0144760D01*
X0385823Y0143972D01*
X0386611Y0143972D01*
X0386611Y0144760D01*
X0390548Y0144760D02*
X0391335Y0144760D01*
X0391335Y0143972D01*
X0390548Y0143972D01*
X0390548Y0144760D01*
X0381690Y0167988D02*
X0378934Y0167988D01*
X0378934Y0168382D01*
X0381690Y0168382D01*
X0381690Y0167988D01*
X0442910Y0208933D02*
X0442910Y0209720D01*
X0443698Y0209720D01*
X0443698Y0208933D01*
X0442910Y0208933D01*
X0447635Y0208933D02*
X0447635Y0209720D01*
X0448422Y0209720D01*
X0448422Y0208933D01*
X0447635Y0208933D01*
X0447635Y0218382D02*
X0447635Y0219169D01*
X0448422Y0219169D01*
X0448422Y0218382D01*
X0447635Y0218382D01*
X0443698Y0218382D02*
X0442910Y0218382D01*
X0442910Y0219169D01*
X0443698Y0219169D01*
X0443698Y0218382D01*
X0443698Y0223106D02*
X0442910Y0223106D01*
X0442910Y0223894D01*
X0443698Y0223894D01*
X0443698Y0223106D01*
X0447635Y0223106D02*
X0447635Y0223894D01*
X0448422Y0223894D01*
X0448422Y0223106D01*
X0447635Y0223106D01*
X0447635Y0227831D02*
X0447635Y0228618D01*
X0448422Y0228618D01*
X0448422Y0227831D01*
X0447635Y0227831D01*
X0443698Y0227831D02*
X0442910Y0227831D01*
X0442910Y0228618D01*
X0443698Y0228618D01*
X0443698Y0227831D01*
X0443698Y0232555D02*
X0442910Y0232555D01*
X0442910Y0233343D01*
X0443698Y0233343D01*
X0443698Y0232555D01*
X0447635Y0232555D02*
X0447635Y0233343D01*
X0448422Y0233343D01*
X0448422Y0232555D01*
X0447635Y0232555D01*
X0465351Y0223500D02*
X0466138Y0223500D01*
X0466138Y0222713D01*
X0465351Y0222713D01*
X0465351Y0223500D01*
X0465351Y0218776D02*
X0466138Y0218776D01*
X0466138Y0217988D01*
X0465351Y0217988D01*
X0465351Y0218776D01*
X0466138Y0201059D02*
X0466926Y0201059D01*
X0466926Y0200272D01*
X0466138Y0200272D01*
X0466138Y0201059D01*
X0462201Y0201059D02*
X0462201Y0200272D01*
X0461414Y0200272D01*
X0461414Y0201059D01*
X0462201Y0201059D01*
X0494485Y0210114D02*
X0494485Y0210902D01*
X0495272Y0210902D01*
X0495272Y0210114D01*
X0494485Y0210114D01*
X0494485Y0214839D02*
X0494485Y0215626D01*
X0495272Y0215626D01*
X0495272Y0214839D01*
X0494485Y0214839D01*
X0494485Y0219563D02*
X0494485Y0220350D01*
X0495272Y0220350D01*
X0495272Y0219563D01*
X0494485Y0219563D01*
X0494485Y0224287D02*
X0494485Y0225075D01*
X0495272Y0225075D01*
X0495272Y0224287D01*
X0494485Y0224287D01*
X0494485Y0229012D02*
X0494485Y0229799D01*
X0495272Y0229799D01*
X0495272Y0229012D01*
X0494485Y0229012D01*
X0494485Y0233736D02*
X0494485Y0234524D01*
X0495272Y0234524D01*
X0495272Y0233736D01*
X0494485Y0233736D01*
X0506296Y0231374D02*
X0506296Y0240823D01*
X0511808Y0240823D01*
X0511808Y0231374D01*
X0506296Y0231374D01*
X0532083Y0228421D02*
X0537595Y0228421D01*
X0537595Y0234720D01*
X0532083Y0234720D01*
X0532083Y0228421D01*
X0532083Y0238854D02*
X0537595Y0238854D01*
X0537595Y0243972D01*
X0532083Y0243972D01*
X0532083Y0238854D01*
X0532083Y0247909D02*
X0532083Y0253028D01*
X0537595Y0253028D01*
X0537595Y0247909D01*
X0532083Y0247909D01*
X0532083Y0257161D02*
X0537595Y0257161D01*
X0537595Y0263461D01*
X0532083Y0263461D01*
X0532083Y0257161D01*
X0511808Y0260508D02*
X0511808Y0251059D01*
X0506296Y0251059D01*
X0506296Y0260508D01*
X0511808Y0260508D01*
X0511808Y0278224D02*
X0506296Y0278224D01*
X0506296Y0287673D01*
X0511808Y0287673D01*
X0511808Y0278224D01*
X0532083Y0275665D02*
X0537595Y0275665D01*
X0537595Y0281965D01*
X0532083Y0281965D01*
X0532083Y0275665D01*
X0532083Y0286098D02*
X0537595Y0286098D01*
X0537595Y0291217D01*
X0532083Y0291217D01*
X0532083Y0286098D01*
X0532083Y0295154D02*
X0532083Y0300272D01*
X0537595Y0300272D01*
X0537595Y0295154D01*
X0532083Y0295154D01*
X0532083Y0304406D02*
X0537595Y0304406D01*
X0537595Y0310705D01*
X0532083Y0310705D01*
X0532083Y0304406D01*
X0511808Y0307358D02*
X0511808Y0297909D01*
X0506296Y0297909D01*
X0506296Y0307358D01*
X0511808Y0307358D01*
X0459249Y0300469D02*
X0459249Y0296925D01*
X0455705Y0296925D01*
X0455705Y0300469D01*
X0459249Y0300469D01*
X0449800Y0300469D02*
X0449800Y0296925D01*
X0446257Y0296925D01*
X0446257Y0300469D01*
X0449800Y0300469D01*
X0395075Y0328028D02*
X0395075Y0331571D01*
X0391532Y0331571D01*
X0391532Y0328028D01*
X0395075Y0328028D01*
X0389170Y0325272D02*
X0389170Y0321728D01*
X0385627Y0321728D01*
X0385627Y0325272D01*
X0389170Y0325272D01*
X0379721Y0325272D02*
X0379721Y0321728D01*
X0376178Y0321728D01*
X0376178Y0325272D01*
X0379721Y0325272D01*
X0378934Y0317594D02*
X0381690Y0317594D01*
X0381690Y0317201D01*
X0378934Y0317201D01*
X0378934Y0317594D01*
X0378934Y0310114D02*
X0381690Y0310114D01*
X0381690Y0309720D01*
X0378934Y0309720D01*
X0378934Y0310114D01*
X0369091Y0310114D02*
X0366335Y0310114D01*
X0366335Y0309720D01*
X0369091Y0309720D01*
X0369091Y0310114D01*
X0369091Y0313461D02*
X0366335Y0313461D01*
X0366335Y0313854D01*
X0369091Y0313854D01*
X0369091Y0313461D01*
X0369091Y0317201D02*
X0366335Y0317201D01*
X0366335Y0317594D01*
X0369091Y0317594D01*
X0369091Y0317201D01*
X0385823Y0300665D02*
X0385823Y0299878D01*
X0386611Y0299878D01*
X0386611Y0300665D01*
X0385823Y0300665D01*
X0385823Y0295941D02*
X0386611Y0295941D01*
X0386611Y0295154D01*
X0385823Y0295154D01*
X0385823Y0295941D01*
X0385823Y0291217D02*
X0386611Y0291217D01*
X0386611Y0290429D01*
X0385823Y0290429D01*
X0385823Y0291217D01*
X0385823Y0286492D02*
X0385823Y0285705D01*
X0386611Y0285705D01*
X0386611Y0286492D01*
X0385823Y0286492D01*
X0390548Y0286492D02*
X0390548Y0285705D01*
X0391335Y0285705D01*
X0391335Y0286492D01*
X0390548Y0286492D01*
X0390548Y0290429D02*
X0390548Y0291217D01*
X0391335Y0291217D01*
X0391335Y0290429D01*
X0390548Y0290429D01*
X0390548Y0295154D02*
X0390548Y0295941D01*
X0391335Y0295941D01*
X0391335Y0295154D01*
X0390548Y0295154D01*
X0390548Y0299878D02*
X0390548Y0300665D01*
X0391335Y0300665D01*
X0391335Y0299878D01*
X0390548Y0299878D01*
X0391532Y0337476D02*
X0391532Y0341020D01*
X0395075Y0341020D01*
X0395075Y0337476D01*
X0391532Y0337476D01*
X0360430Y0341020D02*
X0347438Y0341020D01*
X0347438Y0346925D01*
X0360430Y0346925D01*
X0360430Y0341020D01*
X0366335Y0246728D02*
X0369091Y0246728D01*
X0369091Y0246335D01*
X0366335Y0246335D01*
X0366335Y0246728D01*
X0366335Y0242988D02*
X0369091Y0242988D01*
X0369091Y0242594D01*
X0366335Y0242594D01*
X0366335Y0242988D01*
X0366335Y0239248D02*
X0369091Y0239248D01*
X0369091Y0238854D01*
X0366335Y0238854D01*
X0366335Y0239248D01*
X0506296Y0213264D02*
X0506296Y0203815D01*
X0511808Y0203815D01*
X0511808Y0213264D01*
X0506296Y0213264D01*
X0532083Y0216217D02*
X0532083Y0209917D01*
X0537595Y0209917D01*
X0537595Y0216217D01*
X0532083Y0216217D01*
X0532083Y0205783D02*
X0537595Y0205783D01*
X0537595Y0200665D01*
X0532083Y0200665D01*
X0532083Y0205783D01*
X0532083Y0196728D02*
X0537595Y0196728D01*
X0537595Y0191610D01*
X0532083Y0191610D01*
X0532083Y0196728D01*
X0532083Y0187476D02*
X0537595Y0187476D01*
X0537595Y0181177D01*
X0532083Y0181177D01*
X0532083Y0187476D01*
X0511808Y0184130D02*
X0506296Y0184130D01*
X0506296Y0193579D01*
X0511808Y0193579D01*
X0511808Y0184130D01*
X0511808Y0166020D02*
X0506296Y0166020D01*
X0506296Y0156571D01*
X0511808Y0156571D01*
X0511808Y0166020D01*
X0532083Y0168972D02*
X0532083Y0162673D01*
X0537595Y0162673D01*
X0537595Y0168972D01*
X0532083Y0168972D01*
X0532083Y0158539D02*
X0537595Y0158539D01*
X0537595Y0153421D01*
X0532083Y0153421D01*
X0532083Y0158539D01*
X0532083Y0149484D02*
X0537595Y0149484D01*
X0537595Y0144366D01*
X0532083Y0144366D01*
X0532083Y0149484D01*
X0532083Y0140232D02*
X0537595Y0140232D01*
X0537595Y0133933D01*
X0532083Y0133933D01*
X0532083Y0140232D01*
X0529721Y0126453D02*
X0535627Y0126453D01*
X0535627Y0113461D01*
X0529721Y0113461D01*
X0529721Y0126453D01*
X0511808Y0136886D02*
X0506296Y0136886D01*
X0506296Y0146335D01*
X0511808Y0146335D01*
X0511808Y0136886D01*
X0482871Y0138264D02*
X0480115Y0138264D01*
X0480115Y0141020D01*
X0482871Y0141020D01*
X0482871Y0138264D01*
X0474209Y0138264D02*
X0471453Y0138264D01*
X0471453Y0141020D01*
X0474209Y0141020D01*
X0474209Y0138264D01*
X0467320Y0139248D02*
X0466532Y0139248D01*
X0466532Y0140035D01*
X0467320Y0140035D01*
X0467320Y0139248D01*
X0467320Y0135311D02*
X0466532Y0135311D01*
X0466532Y0134524D01*
X0467320Y0134524D01*
X0467320Y0135311D01*
X0467320Y0128224D02*
X0466532Y0128224D01*
X0466532Y0127437D01*
X0467320Y0127437D01*
X0467320Y0128224D01*
X0471453Y0129209D02*
X0474209Y0129209D01*
X0474209Y0126453D01*
X0471453Y0126453D01*
X0471453Y0129209D01*
X0467320Y0123500D02*
X0466532Y0123500D01*
X0466532Y0122713D01*
X0467320Y0122713D01*
X0467320Y0123500D01*
X0480115Y0126453D02*
X0480115Y0129209D01*
X0482871Y0129209D01*
X0482871Y0126453D01*
X0480115Y0126453D01*
X0480115Y0117398D02*
X0482871Y0117398D01*
X0482871Y0114642D01*
X0480115Y0114642D01*
X0480115Y0117398D01*
X0474209Y0117398D02*
X0471453Y0117398D01*
X0471453Y0114642D01*
X0474209Y0114642D01*
X0474209Y0117398D01*
X0467320Y0116413D02*
X0466532Y0116413D01*
X0466532Y0115626D01*
X0467320Y0115626D01*
X0467320Y0116413D01*
X0467320Y0111689D02*
X0466532Y0111689D01*
X0466532Y0110902D01*
X0467320Y0110902D01*
X0467320Y0111689D01*
X0467320Y0104602D02*
X0466532Y0104602D01*
X0466532Y0103815D01*
X0467320Y0103815D01*
X0467320Y0104602D01*
X0471453Y0105587D02*
X0474209Y0105587D01*
X0474209Y0102831D01*
X0471453Y0102831D01*
X0471453Y0105587D01*
X0467320Y0099878D02*
X0466532Y0099878D01*
X0466532Y0099091D01*
X0467320Y0099091D01*
X0467320Y0099878D01*
X0480115Y0102831D02*
X0480115Y0105587D01*
X0482871Y0105587D01*
X0482871Y0102831D01*
X0480115Y0102831D01*
D11*
X0381886Y0192004D02*
X0379131Y0192004D01*
X0379131Y0196335D01*
X0381886Y0196335D01*
X0381886Y0192004D01*
X0377556Y0192004D02*
X0377556Y0196335D01*
X0374800Y0196335D01*
X0374800Y0192004D01*
X0377556Y0192004D01*
X0377556Y0197909D02*
X0374800Y0197909D01*
X0374800Y0202240D01*
X0377556Y0202240D01*
X0377556Y0197909D01*
X0379131Y0197909D02*
X0379131Y0202240D01*
X0381886Y0202240D01*
X0381886Y0197909D01*
X0379131Y0197909D01*
X0468698Y0224091D02*
X0470666Y0224091D01*
X0470666Y0226059D02*
X0468698Y0226059D01*
X0468698Y0228028D02*
X0470666Y0228028D01*
X0470666Y0229996D02*
X0468698Y0229996D01*
X0472635Y0231965D02*
X0472635Y0233933D01*
X0474603Y0233933D02*
X0474603Y0231965D01*
X0476572Y0231965D02*
X0476572Y0233933D01*
X0478540Y0233933D02*
X0478540Y0231965D01*
X0477949Y0229406D02*
X0477949Y0228618D01*
X0477162Y0228618D01*
X0477162Y0229406D01*
X0477949Y0229406D01*
X0480509Y0229996D02*
X0482477Y0229996D01*
X0482477Y0228028D02*
X0480509Y0228028D01*
X0480509Y0226059D02*
X0482477Y0226059D01*
X0482477Y0224091D02*
X0480509Y0224091D01*
X0477949Y0224681D02*
X0477162Y0224681D01*
X0477162Y0225469D01*
X0477949Y0225469D01*
X0477949Y0224681D01*
X0478540Y0222122D02*
X0478540Y0220154D01*
X0476572Y0220154D02*
X0476572Y0222122D01*
X0474603Y0222122D02*
X0474603Y0220154D01*
X0472635Y0220154D02*
X0472635Y0222122D01*
X0473225Y0224681D02*
X0473225Y0225469D01*
X0474012Y0225469D01*
X0474012Y0224681D01*
X0473225Y0224681D01*
X0475194Y0226650D02*
X0475194Y0227437D01*
X0475981Y0227437D01*
X0475981Y0226650D01*
X0475194Y0226650D01*
X0474012Y0228618D02*
X0473225Y0228618D01*
X0473225Y0229406D01*
X0474012Y0229406D01*
X0474012Y0228618D01*
X0453540Y0279012D02*
X0449209Y0279012D01*
X0449209Y0281768D01*
X0453540Y0281768D01*
X0453540Y0279012D01*
X0453540Y0283343D02*
X0449209Y0283343D01*
X0449209Y0286098D01*
X0453540Y0286098D01*
X0453540Y0283343D01*
X0447635Y0283343D02*
X0447635Y0286098D01*
X0443304Y0286098D01*
X0443304Y0283343D01*
X0447635Y0283343D01*
X0447635Y0281768D02*
X0447635Y0279012D01*
X0443304Y0279012D01*
X0443304Y0281768D01*
X0447635Y0281768D01*
X0381886Y0273106D02*
X0381886Y0268776D01*
X0379131Y0268776D01*
X0379131Y0273106D01*
X0381886Y0273106D01*
X0377556Y0273106D02*
X0377556Y0268776D01*
X0374800Y0268776D01*
X0374800Y0273106D01*
X0377556Y0273106D01*
X0377556Y0267201D02*
X0377556Y0262870D01*
X0374800Y0262870D01*
X0374800Y0267201D01*
X0377556Y0267201D01*
X0379131Y0267201D02*
X0379131Y0262870D01*
X0381886Y0262870D01*
X0381886Y0267201D01*
X0379131Y0267201D01*
X0379131Y0333736D02*
X0381886Y0333736D01*
X0381886Y0338067D01*
X0379131Y0338067D01*
X0379131Y0333736D01*
X0377556Y0333736D02*
X0377556Y0338067D01*
X0374800Y0338067D01*
X0374800Y0333736D01*
X0377556Y0333736D01*
X0377556Y0339642D02*
X0374800Y0339642D01*
X0374800Y0343972D01*
X0377556Y0343972D01*
X0377556Y0339642D01*
X0379131Y0339642D02*
X0379131Y0343972D01*
X0381886Y0343972D01*
X0381886Y0339642D01*
X0379131Y0339642D01*
D12*
X0473619Y0229012D03*
X0475587Y0227043D03*
X0473619Y0225075D03*
X0477556Y0225075D03*
X0477556Y0229012D03*
D13*
X0367713Y0146728D02*
X0367713Y0138854D01*
X0367713Y0156177D02*
X0367713Y0164051D01*
X0367713Y0209720D02*
X0367713Y0217594D01*
X0367713Y0227043D02*
X0367713Y0234917D01*
X0367713Y0280587D02*
X0367713Y0288461D01*
X0367713Y0297909D02*
X0367713Y0305783D01*
X0521158Y0301846D02*
X0524898Y0301846D01*
X0524898Y0284524D02*
X0521158Y0284524D01*
X0521158Y0254602D02*
X0524898Y0254602D01*
X0524898Y0237280D02*
X0521158Y0237280D01*
X0521158Y0207358D02*
X0524898Y0207358D01*
X0524898Y0190035D02*
X0521158Y0190035D01*
X0521158Y0160114D02*
X0524898Y0160114D01*
X0524898Y0142791D02*
X0521158Y0142791D01*
D14*
X0522241Y0146335D02*
X0526178Y0146335D01*
X0526178Y0148894D02*
X0522241Y0148894D01*
X0522241Y0151453D02*
X0526178Y0151453D01*
X0526178Y0154012D02*
X0522241Y0154012D01*
X0522241Y0156571D02*
X0526178Y0156571D01*
X0481001Y0155783D02*
X0481001Y0151059D01*
X0478442Y0151059D02*
X0478442Y0155783D01*
X0475883Y0155783D02*
X0475883Y0151059D01*
X0473323Y0151059D02*
X0473323Y0155783D01*
X0473323Y0164445D02*
X0473323Y0169169D01*
X0475883Y0169169D02*
X0475883Y0164445D01*
X0478442Y0164445D02*
X0478442Y0169169D01*
X0481001Y0169169D02*
X0481001Y0164445D01*
X0470174Y0170350D02*
X0469386Y0170350D01*
X0469386Y0174287D01*
X0470174Y0174287D01*
X0470174Y0170350D01*
X0466631Y0170350D02*
X0466631Y0174287D01*
X0464072Y0174287D02*
X0464072Y0170350D01*
X0461512Y0170350D02*
X0461512Y0174287D01*
X0458953Y0174287D02*
X0458953Y0170350D01*
X0456394Y0170350D02*
X0456394Y0174287D01*
X0453835Y0174287D02*
X0453835Y0170350D01*
X0451079Y0170350D02*
X0450292Y0170350D01*
X0450292Y0174287D01*
X0451079Y0174287D01*
X0451079Y0170350D01*
X0451079Y0191610D02*
X0450292Y0191610D01*
X0450292Y0195547D01*
X0451079Y0195547D01*
X0451079Y0191610D01*
X0453835Y0191610D02*
X0453835Y0195547D01*
X0456394Y0195547D02*
X0456394Y0191610D01*
X0458953Y0191610D02*
X0458953Y0195547D01*
X0461512Y0195547D02*
X0461512Y0191610D01*
X0464072Y0191610D02*
X0464072Y0195547D01*
X0466631Y0195547D02*
X0466631Y0191610D01*
X0469386Y0191610D02*
X0470174Y0191610D01*
X0470174Y0195547D01*
X0469386Y0195547D01*
X0469386Y0191610D01*
X0522241Y0193579D02*
X0526178Y0193579D01*
X0526178Y0196138D02*
X0522241Y0196138D01*
X0522241Y0198697D02*
X0526178Y0198697D01*
X0526178Y0201256D02*
X0522241Y0201256D01*
X0522241Y0203815D02*
X0526178Y0203815D01*
X0526178Y0240823D02*
X0522241Y0240823D01*
X0522241Y0243382D02*
X0526178Y0243382D01*
X0526178Y0245941D02*
X0522241Y0245941D01*
X0522241Y0248500D02*
X0526178Y0248500D01*
X0526178Y0251059D02*
X0522241Y0251059D01*
X0522241Y0288067D02*
X0526178Y0288067D01*
X0526178Y0290626D02*
X0522241Y0290626D01*
X0522241Y0293185D02*
X0526178Y0293185D01*
X0526178Y0295744D02*
X0522241Y0295744D01*
X0522241Y0298303D02*
X0526178Y0298303D01*
X0453146Y0292398D02*
X0453146Y0289248D01*
X0449997Y0289248D02*
X0449997Y0292398D01*
X0446847Y0292398D02*
X0446847Y0289248D01*
X0443698Y0289248D02*
X0443698Y0292398D01*
X0443698Y0275862D02*
X0443698Y0272713D01*
X0446847Y0272713D02*
X0446847Y0275862D01*
X0449997Y0275862D02*
X0449997Y0272713D01*
X0453146Y0272713D02*
X0453146Y0275862D01*
X0388186Y0272713D02*
X0385036Y0272713D01*
X0385036Y0269563D02*
X0388186Y0269563D01*
X0388186Y0266413D02*
X0385036Y0266413D01*
X0385036Y0263264D02*
X0388186Y0263264D01*
X0371650Y0263264D02*
X0368501Y0263264D01*
X0368501Y0266413D02*
X0371650Y0266413D01*
X0371650Y0269563D02*
X0368501Y0269563D01*
X0368501Y0272713D02*
X0371650Y0272713D01*
X0371650Y0334130D02*
X0368501Y0334130D01*
X0368501Y0337280D02*
X0371650Y0337280D01*
X0371650Y0340429D02*
X0368501Y0340429D01*
X0368501Y0343579D02*
X0371650Y0343579D01*
X0385036Y0343579D02*
X0388186Y0343579D01*
X0388186Y0340429D02*
X0385036Y0340429D01*
X0385036Y0337280D02*
X0388186Y0337280D01*
X0388186Y0334130D02*
X0385036Y0334130D01*
X0385036Y0201846D02*
X0388186Y0201846D01*
X0388186Y0198697D02*
X0385036Y0198697D01*
X0385036Y0195547D02*
X0388186Y0195547D01*
X0388186Y0192398D02*
X0385036Y0192398D01*
X0371650Y0192398D02*
X0368501Y0192398D01*
X0368501Y0195547D02*
X0371650Y0195547D01*
X0371650Y0198697D02*
X0368501Y0198697D01*
X0368501Y0201846D02*
X0371650Y0201846D01*
D15*
X0534839Y0213067D03*
X0534839Y0231571D03*
X0534839Y0260311D03*
X0534839Y0278815D03*
X0534839Y0307555D03*
X0534839Y0184327D03*
X0534839Y0165823D03*
X0534839Y0137083D03*
D16*
X0534839Y0146925D03*
X0534839Y0155980D03*
X0534839Y0194169D03*
X0534839Y0203224D03*
X0534839Y0241413D03*
X0534839Y0250469D03*
X0534839Y0288657D03*
X0534839Y0297713D03*
D17*
X0380312Y0309917D03*
X0380312Y0317398D03*
X0367713Y0317398D03*
X0367713Y0313657D03*
X0367713Y0309917D03*
X0367713Y0246531D03*
X0367713Y0242791D03*
X0367713Y0239051D03*
X0380312Y0239051D03*
X0380312Y0246531D03*
X0380312Y0175665D03*
X0380312Y0168185D03*
X0367713Y0168185D03*
X0367713Y0171925D03*
X0367713Y0175665D03*
D18*
X0509052Y0188854D03*
X0509052Y0208539D03*
X0509052Y0236098D03*
X0509052Y0255783D03*
X0509052Y0282949D03*
X0509052Y0302634D03*
X0509052Y0161295D03*
X0509052Y0141610D03*
D19*
X0466926Y0139642D03*
X0466926Y0134917D03*
X0466926Y0127831D03*
X0466926Y0123106D03*
X0466926Y0116020D03*
X0466926Y0111295D03*
X0466926Y0104209D03*
X0466926Y0099484D03*
X0390942Y0144366D03*
X0390942Y0149091D03*
X0390942Y0153815D03*
X0390942Y0158539D03*
X0386217Y0158539D03*
X0386217Y0153815D03*
X0386217Y0149091D03*
X0386217Y0144366D03*
X0401965Y0162476D03*
X0401965Y0167201D03*
X0412201Y0182949D03*
X0412201Y0187673D03*
X0408658Y0200272D03*
X0403934Y0200272D03*
X0390942Y0215232D03*
X0390942Y0219957D03*
X0390942Y0224681D03*
X0390942Y0229406D03*
X0386217Y0229406D03*
X0386217Y0224681D03*
X0386217Y0219957D03*
X0386217Y0215232D03*
X0415351Y0248697D03*
X0415351Y0253421D03*
X0426768Y0253421D03*
X0426768Y0248697D03*
X0443304Y0232949D03*
X0448028Y0232949D03*
X0448028Y0228224D03*
X0448028Y0223500D03*
X0443304Y0223500D03*
X0443304Y0218776D03*
X0448028Y0218776D03*
X0448028Y0209327D03*
X0443304Y0209327D03*
X0461808Y0200665D03*
X0466532Y0200665D03*
X0480312Y0201059D03*
X0485036Y0201059D03*
X0485036Y0196335D03*
X0480312Y0196335D03*
X0480312Y0191610D03*
X0485036Y0191610D03*
X0485036Y0186886D03*
X0480312Y0186886D03*
X0480312Y0182161D03*
X0480312Y0177437D03*
X0478737Y0173106D03*
X0474012Y0173106D03*
X0485036Y0177437D03*
X0485036Y0182161D03*
X0485036Y0205783D03*
X0480312Y0205783D03*
X0480312Y0210508D03*
X0485036Y0210508D03*
X0490154Y0210508D03*
X0490154Y0215232D03*
X0494879Y0215232D03*
X0494879Y0210508D03*
X0494879Y0219957D03*
X0494879Y0224681D03*
X0494879Y0229406D03*
X0494879Y0234130D03*
X0490154Y0234130D03*
X0490154Y0229406D03*
X0490154Y0224681D03*
X0490154Y0219957D03*
X0465745Y0218382D03*
X0465745Y0223106D03*
X0443304Y0228224D03*
X0475194Y0243185D03*
X0479918Y0243185D03*
X0479918Y0247909D03*
X0475194Y0247909D03*
X0390942Y0286098D03*
X0386217Y0286098D03*
X0386217Y0290823D03*
X0386217Y0295547D03*
X0390942Y0295547D03*
X0390942Y0290823D03*
X0390942Y0300272D03*
X0386217Y0300272D03*
X0435823Y0169169D03*
X0435823Y0164445D03*
X0442123Y0164445D03*
X0442123Y0169169D03*
D20*
X0393304Y0188067D03*
X0387398Y0181768D03*
X0377949Y0181768D03*
X0393304Y0197516D03*
X0387398Y0252634D03*
X0393304Y0258933D03*
X0393304Y0268382D03*
X0377949Y0252634D03*
X0449997Y0267988D03*
X0459446Y0267988D03*
X0457477Y0298697D03*
X0448028Y0298697D03*
X0393304Y0329799D03*
X0387398Y0323500D03*
X0377949Y0323500D03*
X0393304Y0339248D03*
D21*
X0440154Y0342004D02*
X0440154Y0333343D01*
X0440154Y0321531D02*
X0440154Y0312870D01*
D22*
X0472831Y0139642D03*
X0481493Y0139642D03*
X0481493Y0127831D03*
X0472831Y0127831D03*
X0472831Y0116020D03*
X0481493Y0116020D03*
X0481493Y0104209D03*
X0472831Y0104209D03*
D23*
X0451375Y0280390D03*
X0451375Y0284720D03*
X0445469Y0284720D03*
X0445469Y0280390D03*
D24*
X0380509Y0270941D03*
X0376178Y0270941D03*
X0376178Y0265035D03*
X0380509Y0265035D03*
X0380509Y0200075D03*
X0376178Y0200075D03*
X0376178Y0194169D03*
X0380509Y0194169D03*
X0380509Y0335902D03*
X0376178Y0335902D03*
X0376178Y0341807D03*
X0380509Y0341807D03*
D25*
X0532674Y0119957D03*
D26*
X0353934Y0343972D03*
D27*
X0418304Y0188657D03*
X0418304Y0181965D03*
X0426572Y0181965D03*
X0426572Y0188657D03*
M02*
