G75*
%MOIN*%
%OFA0B0*%
%FSLAX25Y25*%
%IPPOS*%
%LPD*%
%AMOC8*
5,1,8,0,0,1.08239X$1,22.5*
%
%ADD10C,0.16142*%
%ADD11R,0.02362X0.06299*%
%ADD12R,0.06299X0.02362*%
%ADD13R,0.07087X0.07087*%
%ADD14R,0.01575X0.03543*%
%ADD15R,0.03543X0.01575*%
%ADD16R,0.07874X0.07480*%
%ADD17R,0.07874X0.06693*%
%ADD18OC8,0.07874*%
%ADD19C,0.04134*%
%ADD20R,0.05906X0.01969*%
%ADD21R,0.02756X0.05118*%
%ADD22C,0.12992*%
%ADD23C,0.13055*%
%ADD24C,0.05709*%
%ADD25C,0.10236*%
%ADD26R,0.02756X0.05906*%
%ADD27R,0.01969X0.05906*%
%ADD28OC8,0.08071*%
%ADD29OC8,0.06299*%
%ADD30R,0.03150X0.03150*%
%ADD31R,0.05906X0.05906*%
%ADD32OC8,0.06694*%
%ADD33C,0.06694*%
%ADD34R,0.02165X0.06693*%
%ADD35R,0.05118X0.05118*%
%ADD36R,0.05118X0.05906*%
%ADD37R,0.09843X0.05906*%
%ADD38R,0.08268X0.16142*%
%ADD39C,0.04331*%
%ADD40R,0.15748X0.15748*%
%ADD41R,0.02756X0.01969*%
%ADD42R,0.08268X0.15354*%
%ADD43R,0.15354X0.08268*%
D10*
X0043113Y0048215D03*
X0043113Y0363176D03*
X0358073Y0363176D03*
X0358073Y0048215D03*
D11*
X0207286Y0189357D03*
X0204136Y0189357D03*
X0200987Y0189357D03*
X0197837Y0189357D03*
X0194688Y0189357D03*
X0191538Y0189357D03*
X0188388Y0189357D03*
X0185239Y0189357D03*
X0185239Y0222034D03*
X0188388Y0222034D03*
X0191538Y0222034D03*
X0194688Y0222034D03*
X0197837Y0222034D03*
X0200987Y0222034D03*
X0204136Y0222034D03*
X0207286Y0222034D03*
D12*
X0212601Y0216719D03*
X0212601Y0213570D03*
X0212601Y0210420D03*
X0212601Y0207270D03*
X0212601Y0204121D03*
X0212601Y0200971D03*
X0212601Y0197822D03*
X0212601Y0194672D03*
X0179924Y0194672D03*
X0179924Y0197822D03*
X0179924Y0200971D03*
X0179924Y0204121D03*
X0179924Y0207270D03*
X0179924Y0210420D03*
X0179924Y0213570D03*
X0179924Y0216719D03*
D13*
X0251774Y0205696D03*
D14*
X0250790Y0211601D03*
X0248822Y0211601D03*
X0252759Y0211601D03*
X0254727Y0211601D03*
X0254727Y0199790D03*
X0252759Y0199790D03*
X0250790Y0199790D03*
X0248822Y0199790D03*
D15*
X0245869Y0202743D03*
X0245869Y0204711D03*
X0245869Y0206680D03*
X0245869Y0208648D03*
X0257680Y0208648D03*
X0257680Y0206680D03*
X0257680Y0204711D03*
X0257680Y0202743D03*
D16*
X0332680Y0186601D03*
X0332680Y0177546D03*
X0332680Y0139357D03*
X0332680Y0130302D03*
X0332680Y0224790D03*
X0332680Y0233845D03*
X0332680Y0272034D03*
X0332680Y0281089D03*
D17*
X0332680Y0289948D03*
X0332680Y0263176D03*
X0332680Y0242703D03*
X0332680Y0215932D03*
X0332680Y0195459D03*
X0332680Y0168688D03*
X0332680Y0148215D03*
X0332680Y0121444D03*
D18*
X0332680Y0118294D03*
X0332680Y0151365D03*
X0332680Y0165538D03*
X0332680Y0198609D03*
X0332680Y0212782D03*
X0332680Y0245853D03*
X0332680Y0260026D03*
X0332680Y0293097D03*
D19*
X0322739Y0285223D02*
X0318999Y0285223D01*
X0318999Y0267900D02*
X0322739Y0267900D01*
X0322739Y0237979D02*
X0318999Y0237979D01*
X0318999Y0220656D02*
X0322739Y0220656D01*
X0322739Y0190735D02*
X0318999Y0190735D01*
X0318999Y0173412D02*
X0322739Y0173412D01*
X0322739Y0143491D02*
X0318999Y0143491D01*
X0318999Y0126168D02*
X0322739Y0126168D01*
D20*
X0322050Y0129711D03*
X0322050Y0132270D03*
X0322050Y0134829D03*
X0322050Y0137388D03*
X0322050Y0139948D03*
X0322050Y0176955D03*
X0322050Y0179514D03*
X0322050Y0182073D03*
X0322050Y0184633D03*
X0322050Y0187192D03*
X0322050Y0224199D03*
X0322050Y0226759D03*
X0322050Y0229318D03*
X0322050Y0231877D03*
X0322050Y0234436D03*
X0322050Y0271444D03*
X0322050Y0274003D03*
X0322050Y0276562D03*
X0322050Y0279121D03*
X0322050Y0281680D03*
D21*
X0118900Y0290341D03*
X0115160Y0290341D03*
X0111420Y0290341D03*
X0111420Y0302940D03*
X0118900Y0302940D03*
X0118900Y0232073D03*
X0111420Y0232073D03*
X0111420Y0219475D03*
X0115160Y0219475D03*
X0118900Y0219475D03*
X0118900Y0161207D03*
X0111420Y0161207D03*
X0111420Y0148609D03*
X0115160Y0148609D03*
X0118900Y0148609D03*
D22*
X0078546Y0083648D03*
X0078546Y0327743D03*
X0322640Y0327743D03*
X0322640Y0083648D03*
D23*
X0075790Y0108845D03*
X0075790Y0160814D03*
X0075790Y0179711D03*
X0075790Y0231680D03*
X0075790Y0250577D03*
X0075790Y0302546D03*
D24*
X0086420Y0290341D03*
X0086420Y0280499D03*
X0086420Y0272625D03*
X0086420Y0262782D03*
X0086420Y0219475D03*
X0086420Y0209633D03*
X0086420Y0201759D03*
X0086420Y0191916D03*
X0086420Y0148609D03*
X0086420Y0138766D03*
X0086420Y0130892D03*
X0086420Y0121050D03*
D25*
X0260436Y0310026D02*
X0260436Y0319869D01*
X0274412Y0327743D02*
X0284255Y0327743D01*
X0284255Y0303136D02*
X0274412Y0303136D01*
D26*
X0245967Y0176955D03*
X0226873Y0176955D03*
X0226873Y0155696D03*
X0245967Y0155696D03*
D27*
X0242818Y0155696D03*
X0240259Y0155696D03*
X0237699Y0155696D03*
X0235140Y0155696D03*
X0232581Y0155696D03*
X0230022Y0155696D03*
X0230022Y0176955D03*
X0232581Y0176955D03*
X0235140Y0176955D03*
X0237699Y0176955D03*
X0240259Y0176955D03*
X0242818Y0176955D03*
D28*
X0283270Y0169475D03*
X0283270Y0147428D03*
X0283270Y0122231D03*
X0283270Y0194672D03*
X0283270Y0216719D03*
X0283270Y0241916D03*
X0283270Y0263963D03*
X0283270Y0289160D03*
D29*
X0221853Y0139042D03*
X0221853Y0129042D03*
X0211617Y0129042D03*
X0211617Y0139042D03*
X0215593Y0105003D03*
X0225593Y0105003D03*
X0205593Y0105003D03*
X0195593Y0105003D03*
X0185593Y0105003D03*
X0175593Y0105003D03*
D30*
X0185633Y0111601D03*
X0185633Y0116325D03*
X0195475Y0116325D03*
X0195475Y0111601D03*
X0214373Y0147822D03*
X0214373Y0152546D03*
X0220672Y0147822D03*
X0225396Y0147822D03*
X0250199Y0156483D03*
X0254924Y0156483D03*
X0257680Y0165144D03*
X0262404Y0165144D03*
X0262404Y0170656D03*
X0257680Y0170656D03*
X0257680Y0176168D03*
X0262404Y0176168D03*
X0262404Y0181680D03*
X0257680Y0181680D03*
X0242719Y0183255D03*
X0237995Y0183255D03*
X0243113Y0193885D03*
X0243113Y0198609D03*
X0226971Y0192703D03*
X0222247Y0192703D03*
X0220672Y0202546D03*
X0220672Y0207270D03*
X0219097Y0211995D03*
X0219097Y0216719D03*
X0223822Y0216719D03*
X0223822Y0211995D03*
X0212010Y0183255D03*
X0207286Y0183255D03*
X0207286Y0178530D03*
X0212010Y0178530D03*
X0199806Y0155696D03*
X0195081Y0155696D03*
X0188782Y0164357D03*
X0188782Y0169081D03*
X0189176Y0178924D03*
X0189176Y0183648D03*
X0184845Y0183648D03*
X0180121Y0183648D03*
X0130908Y0203333D03*
X0126184Y0203333D03*
X0126184Y0208058D03*
X0130908Y0208058D03*
X0121853Y0208058D03*
X0121853Y0212782D03*
X0121853Y0203333D03*
X0121853Y0198609D03*
X0121853Y0141916D03*
X0121853Y0137192D03*
X0121853Y0132467D03*
X0126184Y0132467D03*
X0130908Y0132467D03*
X0130908Y0137192D03*
X0126184Y0137192D03*
X0121853Y0127743D03*
X0244294Y0117507D03*
X0249018Y0117507D03*
X0249018Y0105696D03*
X0244294Y0105696D03*
X0244294Y0093885D03*
X0249018Y0093885D03*
X0249018Y0082073D03*
X0244294Y0082073D03*
X0304530Y0131286D03*
X0304530Y0136010D03*
X0309255Y0136010D03*
X0309255Y0131286D03*
X0309255Y0178530D03*
X0309255Y0183255D03*
X0304530Y0183255D03*
X0304530Y0178530D03*
X0304530Y0225774D03*
X0304530Y0230499D03*
X0309255Y0230499D03*
X0309255Y0225774D03*
X0309255Y0273018D03*
X0309255Y0277743D03*
X0304530Y0277743D03*
X0304530Y0273018D03*
X0130908Y0274199D03*
X0126184Y0274199D03*
X0126184Y0278924D03*
X0130908Y0278924D03*
X0121853Y0278924D03*
X0121853Y0283648D03*
X0121853Y0274199D03*
X0121853Y0269475D03*
D31*
X0104530Y0290341D03*
X0097050Y0290341D03*
X0097050Y0299790D03*
X0104530Y0299790D03*
X0101381Y0309633D03*
X0110829Y0309633D03*
X0156105Y0315538D03*
X0156105Y0324987D03*
X0156105Y0253727D03*
X0156105Y0244278D03*
X0110829Y0238766D03*
X0101381Y0238766D03*
X0104530Y0228924D03*
X0097050Y0228924D03*
X0097050Y0219475D03*
X0104530Y0219475D03*
X0101381Y0167900D03*
X0104530Y0158058D03*
X0097050Y0158058D03*
X0097050Y0148609D03*
X0104530Y0148609D03*
X0110829Y0167900D03*
X0156105Y0173018D03*
X0156105Y0182467D03*
X0255318Y0280892D03*
X0264766Y0280892D03*
D32*
X0242325Y0315735D03*
D33*
X0242325Y0305892D03*
D34*
X0249510Y0150184D03*
X0252070Y0150184D03*
X0254629Y0150184D03*
X0257188Y0150184D03*
X0257188Y0136798D03*
X0254629Y0136798D03*
X0252070Y0136798D03*
X0249510Y0136798D03*
D35*
X0249018Y0123018D03*
X0257680Y0123018D03*
X0257680Y0111207D03*
X0249018Y0111207D03*
X0249018Y0099396D03*
X0257680Y0099396D03*
X0257680Y0087585D03*
X0249018Y0087585D03*
D36*
X0200790Y0162192D03*
X0194097Y0162192D03*
X0194097Y0171247D03*
X0200790Y0171247D03*
D37*
X0146656Y0173412D03*
X0146656Y0164357D03*
X0146656Y0182467D03*
X0146656Y0235617D03*
X0146656Y0244672D03*
X0146656Y0253727D03*
X0146656Y0306483D03*
X0146656Y0315538D03*
X0146656Y0324593D03*
X0252955Y0273806D03*
X0252955Y0264751D03*
X0252955Y0255696D03*
D38*
X0226971Y0264751D03*
X0120672Y0244672D03*
X0120672Y0315538D03*
X0120672Y0173412D03*
D39*
X0082483Y0048215D03*
X0318703Y0048215D03*
X0102168Y0363176D03*
D40*
X0102168Y0363176D03*
X0082483Y0048215D03*
X0318703Y0048215D03*
D41*
X0200199Y0176562D03*
D42*
X0330514Y0103333D03*
D43*
X0102168Y0335617D03*
M02*
