%
M48
M72
T01C0.01181
T02C0.02362
T03C0.03150
T04C0.03200
T05C0.03543
T06C0.03937
T07C0.05118
T08C0.08661
T09C0.12598
%
T01
X175003Y304996
X171066Y304996
X173034Y301059
X171066Y297122
X175003Y297122
X173034Y293185
X171066Y289248
X175003Y289248
X173034Y285311
X171066Y281374
X175003Y281374
X173034Y277437
X171066Y273500
X175003Y273500
X143507Y242004
X147444Y243972
X147444Y240035
X151381Y242004
X155318Y243972
X155318Y240035
X159255Y242004
X163192Y243972
X163192Y240035
X223822Y201453
X223822Y183736
X219491Y173894
X212010Y156571
X184845Y160114
X191538Y175862
X217522Y129012
X226971Y162870
X237995Y167201
X246656Y164445
X253349Y160508
X253349Y157358
X253349Y152634
X250199Y140823
X257286Y112476
X258073Y137673
X262404Y142791
X246262Y179799
X237601Y183736
X242325Y188461
X250593Y196335
X293113Y205390
X298231Y210508
X316735Y215626
X316341Y262870
X316735Y168382
X316735Y121138
X291932Y253028
X296656Y257752
X220278Y236492
X217916Y238067
X220278Y239642
X217916Y241217
X220278Y242791
X217916Y244366
X220278Y245941
X217916Y247516
X220278Y249091
X217916Y250665
X220278Y252240
X217916Y253815
X220278Y255390
X159255Y171138
X155318Y173106
X155318Y169169
X151381Y171138
X147444Y173106
X147444Y169169
X143507Y171138
X155318Y141610
X155318Y145547
X155318Y149484
X159255Y149484
X244294Y102240
X244294Y90429
X244294Y78618
X244294Y66807
T02
X320869Y266413
X332680Y274287
X332680Y241217
X320869Y249091
X320869Y219169
X332680Y227043
X332680Y193972
X320869Y201846
X332680Y179799
X332680Y146728
X320869Y154602
X320869Y171925
X320869Y124681
X332680Y132555
X332680Y99484
X320869Y107358
T03
X260436Y296138
X279333Y308933
T04
X242325Y287083
X242325Y296925
T05
X86420Y271531
X86420Y261689
X86420Y253815
X86420Y243972
X86420Y200665
X86420Y190823
X86420Y182949
X86420Y173106
X86420Y129799
X86420Y119957
X86420Y112083
X86420Y102240
T06
X175593Y86193
X195593Y86193
X185593Y86193
X205593Y86193
X215593Y86193
X225593Y86193
X279333Y284327
X221853Y120232
X211617Y120232
X211617Y110232
X221853Y110232
T07
X283270Y245154
X283270Y270350
X283270Y223106
X283270Y197909
X283270Y175862
X283270Y150665
X283270Y128618
X283270Y103421
T08
X75790Y283736
X75790Y231768
X75790Y90035
X75790Y142004
X75790Y160902
X75790Y212870
T09
X78546Y64839
X78546Y308933
X322640Y64839
X322640Y308933
M30
