G75*
%MOIN*%
%OFA0B0*%
%FSLAX25Y25*%
%IPPOS*%
%LPD*%
%AMOC8*
5,1,8,0,0,1.08239X$1,22.5*
%
%ADD10C,0.00800*%
%ADD11C,0.00787*%
%ADD12C,0.00984*%
%ADD13R,0.01575X0.01575*%
%ADD14C,0.00900*%
%ADD15C,0.01575*%
%ADD16C,0.00591*%
D10*
X0311027Y0131352D02*
X0311027Y0136072D01*
X0312207Y0137252D01*
X0314567Y0137252D01*
X0315747Y0136072D01*
X0315747Y0133712D01*
X0314567Y0132532D01*
X0314567Y0134892D01*
X0312207Y0134892D01*
X0312207Y0132532D01*
X0314567Y0132532D01*
X0315747Y0131352D02*
X0314567Y0130172D01*
X0312207Y0130172D01*
X0311027Y0131352D01*
X0318277Y0128992D02*
X0322997Y0128992D01*
X0325527Y0130172D02*
X0325527Y0137252D01*
X0326707Y0133712D02*
X0330247Y0130172D01*
X0332777Y0133712D02*
X0337498Y0133712D01*
X0340028Y0131352D02*
X0340028Y0130172D01*
X0344748Y0130172D01*
X0347278Y0131352D02*
X0348458Y0130172D01*
X0350818Y0130172D01*
X0351998Y0131352D01*
X0351998Y0137252D01*
X0354528Y0137252D02*
X0354528Y0130172D01*
X0354528Y0132532D02*
X0359248Y0137252D01*
X0361779Y0137252D02*
X0364139Y0137252D01*
X0362959Y0137252D02*
X0362959Y0130172D01*
X0361779Y0130172D02*
X0364139Y0130172D01*
X0366612Y0128992D02*
X0371332Y0128992D01*
X0359248Y0130172D02*
X0355708Y0133712D01*
X0347278Y0131352D02*
X0347278Y0137252D01*
X0344748Y0137252D02*
X0344748Y0136072D01*
X0340028Y0131352D01*
X0336318Y0130172D02*
X0336318Y0137252D01*
X0332777Y0133712D01*
X0330247Y0137252D02*
X0325527Y0132532D01*
X0340028Y0137252D02*
X0344748Y0137252D01*
X0372050Y0143164D02*
X0374669Y0147092D01*
X0376400Y0145782D02*
X0377710Y0147092D01*
X0377710Y0143164D01*
X0379019Y0143164D02*
X0376400Y0143164D01*
X0374669Y0143164D02*
X0372050Y0147092D01*
X0368315Y0154975D02*
X0367006Y0154975D01*
X0366351Y0155629D01*
X0368970Y0158248D01*
X0368970Y0155629D01*
X0368315Y0154975D01*
X0366351Y0155629D02*
X0366351Y0158248D01*
X0367006Y0158903D01*
X0368315Y0158903D01*
X0368970Y0158248D01*
X0364620Y0154975D02*
X0362001Y0154975D01*
X0363310Y0154975D02*
X0363310Y0158903D01*
X0362001Y0157593D01*
X0360269Y0158248D02*
X0359615Y0158903D01*
X0358306Y0158903D01*
X0357651Y0158248D01*
X0357651Y0155629D01*
X0358306Y0154975D01*
X0359615Y0154975D01*
X0360269Y0155629D01*
X0379924Y0163243D02*
X0379924Y0166382D01*
X0381494Y0166382D01*
X0382017Y0165859D01*
X0382017Y0164812D01*
X0381494Y0164289D01*
X0379924Y0164289D01*
X0380971Y0164289D02*
X0382017Y0163243D01*
X0383549Y0163243D02*
X0385643Y0163243D01*
X0384596Y0163243D02*
X0384596Y0166382D01*
X0383549Y0165336D01*
X0384073Y0167967D02*
X0383549Y0168490D01*
X0383549Y0169013D01*
X0384073Y0169537D01*
X0385119Y0169537D01*
X0385643Y0169013D01*
X0385643Y0168490D01*
X0385119Y0167967D01*
X0384073Y0167967D01*
X0384073Y0169537D02*
X0383549Y0170060D01*
X0383549Y0170583D01*
X0384073Y0171107D01*
X0385119Y0171107D01*
X0385643Y0170583D01*
X0385643Y0170060D01*
X0385119Y0169537D01*
X0386615Y0170797D02*
X0386615Y0172367D01*
X0387138Y0172890D01*
X0388184Y0172890D01*
X0388708Y0172367D01*
X0388708Y0170797D01*
X0389754Y0170797D02*
X0386615Y0170797D01*
X0388708Y0171843D02*
X0389754Y0172890D01*
X0391339Y0172367D02*
X0391862Y0172890D01*
X0392909Y0172890D01*
X0393432Y0172367D01*
X0393432Y0170797D01*
X0393432Y0171843D02*
X0394479Y0172890D01*
X0396063Y0172367D02*
X0396587Y0172890D01*
X0397633Y0172890D01*
X0398156Y0172367D01*
X0398156Y0170797D01*
X0398156Y0171843D02*
X0399203Y0172890D01*
X0400788Y0172367D02*
X0401311Y0172890D01*
X0402358Y0172890D01*
X0402881Y0172367D01*
X0402881Y0170797D01*
X0403927Y0170797D02*
X0400788Y0170797D01*
X0400788Y0172367D01*
X0402881Y0171843D02*
X0403927Y0172890D01*
X0405512Y0172367D02*
X0405512Y0170797D01*
X0408652Y0170797D01*
X0407605Y0170797D02*
X0407605Y0172367D01*
X0407082Y0172890D01*
X0406035Y0172890D01*
X0405512Y0172367D01*
X0407605Y0171843D02*
X0408652Y0172890D01*
X0407082Y0174422D02*
X0407082Y0176515D01*
X0408652Y0175992D02*
X0405512Y0175992D01*
X0407082Y0174422D01*
X0403927Y0175992D02*
X0400788Y0175992D01*
X0402358Y0174422D01*
X0402358Y0176515D01*
X0402358Y0178047D02*
X0402358Y0180140D01*
X0403927Y0179617D02*
X0400788Y0179617D01*
X0402358Y0178047D01*
X0405512Y0178570D02*
X0406035Y0178047D01*
X0405512Y0178570D02*
X0405512Y0179617D01*
X0406035Y0180140D01*
X0406559Y0180140D01*
X0408652Y0178047D01*
X0408652Y0180140D01*
X0411811Y0179985D02*
X0415738Y0179985D01*
X0415738Y0182603D01*
X0413775Y0181294D02*
X0413775Y0179985D01*
X0414429Y0178253D02*
X0413775Y0177598D01*
X0413775Y0176289D01*
X0413120Y0175634D01*
X0412465Y0175634D01*
X0411811Y0176289D01*
X0411811Y0177598D01*
X0412465Y0178253D01*
X0411811Y0179985D02*
X0411811Y0182603D01*
X0411811Y0184335D02*
X0411811Y0186953D01*
X0411811Y0185644D02*
X0415738Y0185644D01*
X0410214Y0188285D02*
X0410214Y0166534D01*
X0411811Y0166934D02*
X0411811Y0168898D01*
X0412465Y0169553D01*
X0413775Y0169553D01*
X0414429Y0168898D01*
X0414429Y0166934D01*
X0414429Y0168243D02*
X0415738Y0169553D01*
X0415738Y0171284D02*
X0415738Y0173903D01*
X0415084Y0175634D02*
X0415738Y0176289D01*
X0415738Y0177598D01*
X0415084Y0178253D01*
X0414429Y0178253D01*
X0411811Y0173903D02*
X0411811Y0171284D01*
X0415738Y0171284D01*
X0413775Y0171284D02*
X0413775Y0172593D01*
X0399203Y0170797D02*
X0396063Y0170797D01*
X0396063Y0172367D01*
X0394479Y0170797D02*
X0391339Y0170797D01*
X0391339Y0172367D01*
X0392909Y0174422D02*
X0392909Y0176515D01*
X0394479Y0175992D02*
X0391339Y0175992D01*
X0392909Y0174422D01*
X0396063Y0175992D02*
X0397633Y0174422D01*
X0397633Y0176515D01*
X0399203Y0175992D02*
X0396063Y0175992D01*
X0396587Y0178047D02*
X0396063Y0178570D01*
X0396063Y0179617D01*
X0396587Y0180140D01*
X0397110Y0180140D01*
X0397633Y0179617D01*
X0398156Y0180140D01*
X0398680Y0180140D01*
X0399203Y0179617D01*
X0399203Y0178570D01*
X0398680Y0178047D01*
X0397633Y0179094D02*
X0397633Y0179617D01*
X0394479Y0179617D02*
X0394479Y0178570D01*
X0393955Y0178047D01*
X0391862Y0180140D01*
X0393955Y0180140D01*
X0394479Y0179617D01*
X0393955Y0178047D02*
X0391862Y0178047D01*
X0391339Y0178570D01*
X0391339Y0179617D01*
X0391862Y0180140D01*
X0389754Y0178047D02*
X0389231Y0178047D01*
X0387138Y0180140D01*
X0386615Y0180140D01*
X0386615Y0178047D01*
X0386615Y0175992D02*
X0388184Y0174422D01*
X0388184Y0176515D01*
X0386615Y0175992D02*
X0389754Y0175992D01*
X0385643Y0175831D02*
X0385643Y0175308D01*
X0383549Y0173215D01*
X0383549Y0172691D01*
X0382017Y0172691D02*
X0380971Y0173738D01*
X0381494Y0173738D02*
X0379924Y0173738D01*
X0379924Y0172691D02*
X0379924Y0175831D01*
X0381494Y0175831D01*
X0382017Y0175308D01*
X0382017Y0174261D01*
X0381494Y0173738D01*
X0381494Y0171107D02*
X0382017Y0170583D01*
X0382017Y0169537D01*
X0381494Y0169013D01*
X0379924Y0169013D01*
X0379924Y0167967D02*
X0379924Y0171107D01*
X0381494Y0171107D01*
X0380971Y0169013D02*
X0382017Y0167967D01*
X0387175Y0164812D02*
X0389268Y0164812D01*
X0388744Y0163243D02*
X0388744Y0166382D01*
X0387175Y0164812D01*
X0385643Y0175831D02*
X0383549Y0175831D01*
X0383061Y0177809D02*
X0379922Y0177809D01*
X0379922Y0179379D01*
X0380445Y0179903D01*
X0381491Y0179903D01*
X0382015Y0179379D01*
X0382015Y0177809D01*
X0382015Y0178856D02*
X0383061Y0179903D01*
X0383061Y0181435D02*
X0383061Y0183528D01*
X0383061Y0182481D02*
X0379922Y0182481D01*
X0380968Y0181435D01*
X0380445Y0185060D02*
X0379922Y0185583D01*
X0379922Y0186630D01*
X0380445Y0187153D01*
X0380968Y0187153D01*
X0381491Y0186630D01*
X0382015Y0187153D01*
X0382538Y0187153D01*
X0383061Y0186630D01*
X0383061Y0185583D01*
X0382538Y0185060D01*
X0381491Y0186106D02*
X0381491Y0186630D01*
X0379795Y0190408D02*
X0378486Y0190408D01*
X0377831Y0191062D01*
X0377831Y0192372D02*
X0379140Y0193026D01*
X0379795Y0193026D01*
X0380450Y0192372D01*
X0380450Y0191062D01*
X0379795Y0190408D01*
X0377831Y0192372D02*
X0377831Y0194336D01*
X0380450Y0194336D01*
X0376099Y0193681D02*
X0375445Y0194336D01*
X0374135Y0194336D01*
X0373481Y0193681D01*
X0373481Y0191062D01*
X0374135Y0190408D01*
X0375445Y0190408D01*
X0376099Y0191062D01*
X0371890Y0190408D02*
X0370581Y0190408D01*
X0371235Y0190408D02*
X0371235Y0194336D01*
X0370581Y0194336D02*
X0371890Y0194336D01*
X0360102Y0203524D02*
X0357483Y0200905D01*
X0357483Y0200250D01*
X0355752Y0200905D02*
X0355097Y0200250D01*
X0353788Y0200250D01*
X0353133Y0200905D01*
X0353133Y0203524D01*
X0353788Y0204178D01*
X0355097Y0204178D01*
X0355752Y0203524D01*
X0357483Y0204178D02*
X0360102Y0204178D01*
X0360102Y0203524D01*
X0344806Y0205098D02*
X0342187Y0202480D01*
X0342187Y0201825D01*
X0340456Y0201825D02*
X0340456Y0205753D01*
X0342187Y0205753D02*
X0344806Y0205753D01*
X0344806Y0205098D01*
X0340456Y0201825D02*
X0337837Y0205753D01*
X0337837Y0201825D01*
X0336106Y0202480D02*
X0336106Y0205098D01*
X0335451Y0205753D01*
X0334142Y0205753D01*
X0333487Y0205098D01*
X0333487Y0202480D01*
X0334142Y0201825D01*
X0335451Y0201825D01*
X0336106Y0202480D01*
X0331755Y0202480D02*
X0331101Y0201825D01*
X0329791Y0201825D01*
X0329137Y0202480D01*
X0329137Y0205098D01*
X0329791Y0205753D01*
X0331101Y0205753D01*
X0331755Y0205098D01*
X0342234Y0215605D02*
X0343544Y0215605D01*
X0342889Y0215605D02*
X0342889Y0219532D01*
X0342234Y0219532D02*
X0343544Y0219532D01*
X0345134Y0218878D02*
X0345134Y0216259D01*
X0345789Y0215605D01*
X0347098Y0215605D01*
X0347753Y0216259D01*
X0349485Y0216259D02*
X0350139Y0215605D01*
X0351448Y0215605D01*
X0352103Y0216259D01*
X0352103Y0218878D01*
X0351448Y0219532D01*
X0350139Y0219532D01*
X0349485Y0218878D01*
X0349485Y0218223D01*
X0350139Y0217569D01*
X0352103Y0217569D01*
X0347753Y0218878D02*
X0347098Y0219532D01*
X0345789Y0219532D01*
X0345134Y0218878D01*
X0383464Y0218430D02*
X0383464Y0215811D01*
X0383464Y0218430D02*
X0384119Y0218430D01*
X0386737Y0215811D01*
X0387392Y0215811D01*
X0387392Y0214080D02*
X0387392Y0211461D01*
X0387392Y0212770D02*
X0383464Y0212770D01*
X0384773Y0211461D01*
X0384119Y0209729D02*
X0383464Y0209075D01*
X0383464Y0207766D01*
X0384119Y0207111D01*
X0386737Y0207111D01*
X0387392Y0207766D01*
X0387392Y0209075D01*
X0386737Y0209729D01*
X0390208Y0204965D02*
X0389685Y0204442D01*
X0389685Y0202348D01*
X0390208Y0201825D01*
X0391255Y0201825D01*
X0391778Y0202348D01*
X0393310Y0203395D02*
X0395403Y0203395D01*
X0394880Y0201825D02*
X0394880Y0204965D01*
X0393310Y0203395D01*
X0391778Y0204442D02*
X0391255Y0204965D01*
X0390208Y0204965D01*
X0394172Y0196303D02*
X0395741Y0196303D01*
X0396265Y0195780D01*
X0396265Y0194734D01*
X0395741Y0194210D01*
X0394172Y0194210D01*
X0395218Y0194210D02*
X0396265Y0193164D01*
X0397797Y0193687D02*
X0398320Y0193164D01*
X0399367Y0193164D01*
X0399890Y0193687D01*
X0399890Y0194210D01*
X0399367Y0194734D01*
X0398843Y0194734D01*
X0399367Y0194734D02*
X0399890Y0195257D01*
X0399890Y0195780D01*
X0399367Y0196303D01*
X0398320Y0196303D01*
X0397797Y0195780D01*
X0401422Y0195780D02*
X0401422Y0195257D01*
X0401945Y0194734D01*
X0403515Y0194734D01*
X0403515Y0195780D02*
X0402992Y0196303D01*
X0401945Y0196303D01*
X0401422Y0195780D01*
X0401422Y0193687D02*
X0401945Y0193164D01*
X0402992Y0193164D01*
X0403515Y0193687D01*
X0403515Y0195780D01*
X0394172Y0196303D02*
X0394172Y0193164D01*
X0415825Y0193423D02*
X0417395Y0193423D01*
X0417918Y0193946D01*
X0417918Y0194993D01*
X0417395Y0195516D01*
X0415825Y0195516D01*
X0415825Y0192376D01*
X0416872Y0193423D02*
X0417918Y0192376D01*
X0419450Y0192376D02*
X0421543Y0194470D01*
X0421543Y0194993D01*
X0421020Y0195516D01*
X0419974Y0195516D01*
X0419450Y0194993D01*
X0419450Y0192376D02*
X0421543Y0192376D01*
X0423075Y0193946D02*
X0425169Y0193946D01*
X0424645Y0192376D02*
X0424645Y0195516D01*
X0423075Y0193946D01*
X0427874Y0195132D02*
X0427874Y0198272D01*
X0429444Y0198272D01*
X0429967Y0197749D01*
X0429967Y0196702D01*
X0429444Y0196179D01*
X0427874Y0196179D01*
X0428920Y0196179D02*
X0429967Y0195132D01*
X0431499Y0195132D02*
X0433592Y0197225D01*
X0433592Y0197749D01*
X0433069Y0198272D01*
X0432022Y0198272D01*
X0431499Y0197749D01*
X0431499Y0195132D02*
X0433592Y0195132D01*
X0432749Y0186067D02*
X0431179Y0186067D01*
X0431179Y0182928D01*
X0431179Y0183974D02*
X0432749Y0183974D01*
X0433273Y0184497D01*
X0433273Y0185544D01*
X0432749Y0186067D01*
X0434805Y0185544D02*
X0435328Y0186067D01*
X0436374Y0186067D01*
X0436898Y0185544D01*
X0436898Y0185021D01*
X0434805Y0182928D01*
X0436898Y0182928D01*
X0438430Y0183451D02*
X0438953Y0182928D01*
X0440000Y0182928D01*
X0440523Y0183451D01*
X0440523Y0184497D01*
X0440000Y0185021D01*
X0439476Y0185021D01*
X0438430Y0184497D01*
X0438430Y0186067D01*
X0440523Y0186067D01*
X0437773Y0179273D02*
X0437773Y0167672D01*
X0439370Y0168072D02*
X0439370Y0169381D01*
X0439370Y0168727D02*
X0443298Y0168727D01*
X0443298Y0169381D02*
X0443298Y0168072D01*
X0442643Y0170972D02*
X0443298Y0171627D01*
X0443298Y0172936D01*
X0442643Y0173591D01*
X0441988Y0173591D01*
X0441334Y0172936D01*
X0441334Y0171627D01*
X0440679Y0170972D01*
X0440024Y0170972D01*
X0439370Y0171627D01*
X0439370Y0172936D01*
X0440024Y0173591D01*
X0439370Y0175322D02*
X0439370Y0177286D01*
X0440024Y0177941D01*
X0441334Y0177941D01*
X0441988Y0177286D01*
X0441988Y0175322D01*
X0443298Y0175322D02*
X0439370Y0175322D01*
X0433273Y0182928D02*
X0432226Y0183974D01*
X0437323Y0164414D02*
X0439416Y0161274D01*
X0440948Y0161797D02*
X0441471Y0161274D01*
X0442518Y0161274D01*
X0443041Y0161797D01*
X0443041Y0162321D01*
X0442518Y0162844D01*
X0441994Y0162844D01*
X0442518Y0162844D02*
X0443041Y0163367D01*
X0443041Y0163890D01*
X0442518Y0164414D01*
X0441471Y0164414D01*
X0440948Y0163890D01*
X0439416Y0164414D02*
X0437323Y0161274D01*
X0440554Y0157328D02*
X0442518Y0157328D01*
X0443173Y0156673D01*
X0443173Y0156019D01*
X0442518Y0155364D01*
X0440554Y0155364D01*
X0440554Y0153400D02*
X0440554Y0157328D01*
X0442518Y0155364D02*
X0443173Y0154709D01*
X0443173Y0154055D01*
X0442518Y0153400D01*
X0440554Y0153400D01*
X0444904Y0153400D02*
X0444904Y0157328D01*
X0445559Y0155364D02*
X0447523Y0153400D01*
X0444904Y0154709D02*
X0447523Y0157328D01*
X0455983Y0156146D02*
X0457552Y0156146D01*
X0458076Y0155623D01*
X0458076Y0154576D01*
X0457552Y0154053D01*
X0455983Y0154053D01*
X0457029Y0154053D02*
X0458076Y0153006D01*
X0459608Y0153006D02*
X0461701Y0155099D01*
X0461701Y0155623D01*
X0461178Y0156146D01*
X0460131Y0156146D01*
X0459608Y0155623D01*
X0459608Y0153006D02*
X0461701Y0153006D01*
X0463233Y0153006D02*
X0463233Y0153530D01*
X0465326Y0155623D01*
X0465326Y0156146D01*
X0463233Y0156146D01*
X0455983Y0156146D02*
X0455983Y0153006D01*
X0455983Y0144335D02*
X0457552Y0144335D01*
X0458076Y0143812D01*
X0458076Y0142765D01*
X0457552Y0142242D01*
X0455983Y0142242D01*
X0457029Y0142242D02*
X0458076Y0141195D01*
X0459608Y0141195D02*
X0461701Y0143288D01*
X0461701Y0143812D01*
X0461178Y0144335D01*
X0460131Y0144335D01*
X0459608Y0143812D01*
X0459608Y0141195D02*
X0461701Y0141195D01*
X0463233Y0141719D02*
X0463233Y0142242D01*
X0463756Y0142765D01*
X0464803Y0142765D01*
X0465326Y0142242D01*
X0465326Y0141719D01*
X0464803Y0141195D01*
X0463756Y0141195D01*
X0463233Y0141719D01*
X0463756Y0142765D02*
X0463233Y0143288D01*
X0463233Y0143812D01*
X0463756Y0144335D01*
X0464803Y0144335D01*
X0465326Y0143812D01*
X0465326Y0143288D01*
X0464803Y0142765D01*
X0455983Y0141195D02*
X0455983Y0144335D01*
X0474249Y0146707D02*
X0476342Y0146707D01*
X0477874Y0146707D02*
X0477874Y0149847D01*
X0479967Y0149847D01*
X0479444Y0151038D02*
X0477874Y0151038D01*
X0477874Y0154177D01*
X0479444Y0154177D01*
X0479967Y0153654D01*
X0479967Y0153131D01*
X0479444Y0152608D01*
X0477874Y0152608D01*
X0479444Y0152608D02*
X0479967Y0152084D01*
X0479967Y0151561D01*
X0479444Y0151038D01*
X0481499Y0151038D02*
X0483592Y0151038D01*
X0483069Y0149847D02*
X0481499Y0149847D01*
X0481499Y0146707D01*
X0483069Y0146707D01*
X0483592Y0147230D01*
X0483592Y0149323D01*
X0483069Y0149847D01*
X0481499Y0151038D02*
X0481499Y0154177D01*
X0481499Y0158518D02*
X0483069Y0158518D01*
X0483592Y0159041D01*
X0483592Y0161135D01*
X0483069Y0161658D01*
X0481499Y0161658D01*
X0481499Y0158518D01*
X0479967Y0158518D02*
X0477874Y0158518D01*
X0477874Y0161658D01*
X0479967Y0161658D01*
X0479967Y0162849D02*
X0478920Y0163895D01*
X0479444Y0163895D02*
X0477874Y0163895D01*
X0477874Y0162849D02*
X0477874Y0165989D01*
X0479444Y0165989D01*
X0479967Y0165465D01*
X0479967Y0164419D01*
X0479444Y0163895D01*
X0481499Y0162849D02*
X0483069Y0162849D01*
X0483592Y0163372D01*
X0483592Y0165465D01*
X0483069Y0165989D01*
X0481499Y0165989D01*
X0481499Y0162849D01*
X0478920Y0160088D02*
X0477874Y0160088D01*
X0476342Y0158518D02*
X0474249Y0158518D01*
X0474249Y0161658D01*
X0485124Y0160611D02*
X0486171Y0161658D01*
X0486171Y0158518D01*
X0487217Y0158518D02*
X0485124Y0158518D01*
X0490476Y0161141D02*
X0490476Y0163760D01*
X0491131Y0164414D01*
X0492440Y0164414D01*
X0493095Y0163760D01*
X0494827Y0163760D02*
X0494827Y0161141D01*
X0495481Y0160487D01*
X0496790Y0160487D01*
X0497445Y0161141D01*
X0497445Y0163760D01*
X0496790Y0164414D01*
X0495481Y0164414D01*
X0494827Y0163760D01*
X0493095Y0161141D02*
X0492440Y0160487D01*
X0491131Y0160487D01*
X0490476Y0161141D01*
X0499177Y0160487D02*
X0499177Y0164414D01*
X0501795Y0160487D01*
X0501795Y0164414D01*
X0503527Y0162450D02*
X0506145Y0162450D01*
X0505491Y0160487D02*
X0505491Y0164414D01*
X0503527Y0162450D01*
X0504326Y0152188D02*
X0504326Y0150094D01*
X0502756Y0151664D01*
X0505896Y0151664D01*
X0505896Y0148562D02*
X0502756Y0148562D01*
X0502756Y0146469D02*
X0505896Y0146469D01*
X0504849Y0147516D01*
X0505896Y0148562D01*
X0505373Y0144937D02*
X0505896Y0144414D01*
X0505896Y0143367D01*
X0505373Y0142844D01*
X0504326Y0143367D02*
X0504326Y0144414D01*
X0504849Y0144937D01*
X0505373Y0144937D01*
X0504326Y0143367D02*
X0503803Y0142844D01*
X0503280Y0142844D01*
X0502756Y0143367D01*
X0502756Y0144414D01*
X0503280Y0144937D01*
X0497765Y0146707D02*
X0495672Y0146707D01*
X0495672Y0149847D01*
X0494140Y0149847D02*
X0494140Y0149323D01*
X0493094Y0148277D01*
X0493094Y0146707D01*
X0493094Y0148277D02*
X0492047Y0149323D01*
X0492047Y0149847D01*
X0487217Y0149323D02*
X0486694Y0149847D01*
X0485647Y0149847D01*
X0485124Y0149323D01*
X0487217Y0149323D02*
X0487217Y0148800D01*
X0485124Y0146707D01*
X0487217Y0146707D01*
X0483069Y0142366D02*
X0483592Y0141843D01*
X0483592Y0140797D01*
X0483069Y0140273D01*
X0481499Y0140273D01*
X0481499Y0139227D02*
X0481499Y0142366D01*
X0483069Y0142366D01*
X0482546Y0140273D02*
X0483592Y0139227D01*
X0483069Y0138036D02*
X0481499Y0138036D01*
X0481499Y0134896D01*
X0483069Y0134896D01*
X0483592Y0135419D01*
X0483592Y0137512D01*
X0483069Y0138036D01*
X0485124Y0137512D02*
X0485647Y0138036D01*
X0486694Y0138036D01*
X0487217Y0137512D01*
X0487217Y0136989D01*
X0486694Y0136466D01*
X0487217Y0135943D01*
X0487217Y0135419D01*
X0486694Y0134896D01*
X0485647Y0134896D01*
X0485124Y0135419D01*
X0486171Y0136466D02*
X0486694Y0136466D01*
X0479967Y0138036D02*
X0477874Y0138036D01*
X0477874Y0134896D01*
X0479967Y0134896D01*
X0478920Y0136466D02*
X0477874Y0136466D01*
X0476342Y0134896D02*
X0474249Y0134896D01*
X0474249Y0138036D01*
X0477874Y0139750D02*
X0478397Y0139227D01*
X0479444Y0139227D01*
X0479967Y0139750D01*
X0479967Y0140797D01*
X0478920Y0140797D01*
X0477874Y0141843D02*
X0477874Y0139750D01*
X0477874Y0141843D02*
X0478397Y0142366D01*
X0479444Y0142366D01*
X0479967Y0141843D01*
X0479967Y0146707D02*
X0477874Y0146707D01*
X0477874Y0148277D02*
X0478920Y0148277D01*
X0474249Y0149847D02*
X0474249Y0146707D01*
X0477874Y0130555D02*
X0477874Y0130032D01*
X0478920Y0128986D01*
X0478920Y0127416D01*
X0479842Y0126225D02*
X0479842Y0123085D01*
X0481936Y0123085D01*
X0483468Y0123085D02*
X0485037Y0123085D01*
X0485561Y0123608D01*
X0485561Y0125701D01*
X0485037Y0126225D01*
X0483468Y0126225D01*
X0483468Y0123085D01*
X0480889Y0124655D02*
X0479842Y0124655D01*
X0479842Y0126225D02*
X0481936Y0126225D01*
X0481499Y0127416D02*
X0483592Y0127416D01*
X0481499Y0127416D02*
X0481499Y0130555D01*
X0479967Y0130555D02*
X0479967Y0130032D01*
X0478920Y0128986D01*
X0476217Y0126225D02*
X0476217Y0123085D01*
X0478310Y0123085D01*
X0487093Y0124655D02*
X0489186Y0124655D01*
X0488663Y0126225D02*
X0487093Y0124655D01*
X0488663Y0123085D02*
X0488663Y0126225D01*
X0465326Y0129908D02*
X0465326Y0132001D01*
X0464803Y0132524D01*
X0463756Y0132524D01*
X0463233Y0132001D01*
X0463233Y0131477D01*
X0463756Y0130954D01*
X0465326Y0130954D01*
X0465326Y0129908D02*
X0464803Y0129384D01*
X0463756Y0129384D01*
X0463233Y0129908D01*
X0461701Y0129384D02*
X0459608Y0129384D01*
X0461701Y0131477D01*
X0461701Y0132001D01*
X0461178Y0132524D01*
X0460131Y0132524D01*
X0459608Y0132001D01*
X0458076Y0132001D02*
X0458076Y0130954D01*
X0457552Y0130431D01*
X0455983Y0130431D01*
X0457029Y0130431D02*
X0458076Y0129384D01*
X0455983Y0129384D02*
X0455983Y0132524D01*
X0457552Y0132524D01*
X0458076Y0132001D01*
X0457552Y0120713D02*
X0458076Y0120190D01*
X0458076Y0119143D01*
X0457552Y0118620D01*
X0455983Y0118620D01*
X0457029Y0118620D02*
X0458076Y0117573D01*
X0459608Y0118097D02*
X0460131Y0117573D01*
X0461178Y0117573D01*
X0461701Y0118097D01*
X0461701Y0118620D01*
X0461178Y0119143D01*
X0460654Y0119143D01*
X0461178Y0119143D02*
X0461701Y0119666D01*
X0461701Y0120190D01*
X0461178Y0120713D01*
X0460131Y0120713D01*
X0459608Y0120190D01*
X0457552Y0120713D02*
X0455983Y0120713D01*
X0455983Y0117573D01*
X0463233Y0118097D02*
X0465326Y0120190D01*
X0465326Y0118097D01*
X0464803Y0117573D01*
X0463756Y0117573D01*
X0463233Y0118097D01*
X0463233Y0120190D01*
X0463756Y0120713D01*
X0464803Y0120713D01*
X0465326Y0120190D01*
X0416269Y0161274D02*
X0414176Y0161274D01*
X0416269Y0163367D01*
X0416269Y0163890D01*
X0415746Y0164414D01*
X0414700Y0164414D01*
X0414176Y0163890D01*
X0412644Y0164414D02*
X0410551Y0161274D01*
X0412644Y0161274D02*
X0410551Y0164414D01*
X0411811Y0166934D02*
X0415738Y0166934D01*
X0471162Y0178597D02*
X0472471Y0178597D01*
X0471816Y0178597D02*
X0471816Y0182525D01*
X0471162Y0182525D02*
X0472471Y0182525D01*
X0474062Y0181870D02*
X0474716Y0182525D01*
X0476026Y0182525D01*
X0476680Y0181870D01*
X0478412Y0181215D02*
X0479721Y0182525D01*
X0479721Y0178597D01*
X0478412Y0178597D02*
X0481030Y0178597D01*
X0482762Y0179251D02*
X0485381Y0181870D01*
X0485381Y0179251D01*
X0484726Y0178597D01*
X0483417Y0178597D01*
X0482762Y0179251D01*
X0482762Y0181870D01*
X0483417Y0182525D01*
X0484726Y0182525D01*
X0485381Y0181870D01*
X0476680Y0179251D02*
X0476026Y0178597D01*
X0474716Y0178597D01*
X0474062Y0179251D01*
X0474062Y0181870D01*
X0473781Y0191195D02*
X0475874Y0193288D01*
X0475874Y0193812D01*
X0475351Y0194335D01*
X0474304Y0194335D01*
X0473781Y0193812D01*
X0472249Y0193812D02*
X0471726Y0194335D01*
X0470679Y0194335D01*
X0470156Y0193812D01*
X0470156Y0191719D01*
X0470679Y0191195D01*
X0471726Y0191195D01*
X0472249Y0191719D01*
X0473781Y0191195D02*
X0475874Y0191195D01*
X0477406Y0191195D02*
X0479499Y0193288D01*
X0479499Y0193812D01*
X0478976Y0194335D01*
X0477929Y0194335D01*
X0477406Y0193812D01*
X0477761Y0196313D02*
X0476714Y0197360D01*
X0477238Y0197360D02*
X0475668Y0197360D01*
X0475668Y0196313D02*
X0475668Y0199453D01*
X0477238Y0199453D01*
X0477761Y0198930D01*
X0477761Y0197883D01*
X0477238Y0197360D01*
X0479293Y0196837D02*
X0479816Y0196313D01*
X0480863Y0196313D01*
X0481386Y0196837D01*
X0481386Y0197360D01*
X0480863Y0197883D01*
X0480339Y0197883D01*
X0480863Y0197883D02*
X0481386Y0198407D01*
X0481386Y0198930D01*
X0480863Y0199453D01*
X0479816Y0199453D01*
X0479293Y0198930D01*
X0479811Y0201038D02*
X0477718Y0201038D01*
X0479811Y0203131D01*
X0479811Y0203654D01*
X0479288Y0204177D01*
X0478241Y0204177D01*
X0477718Y0203654D01*
X0476186Y0203654D02*
X0475663Y0204177D01*
X0474616Y0204177D01*
X0474093Y0203654D01*
X0474093Y0201561D01*
X0474616Y0201038D01*
X0475663Y0201038D01*
X0476186Y0201561D01*
X0476186Y0205762D02*
X0475139Y0206809D01*
X0475663Y0206809D02*
X0474093Y0206809D01*
X0474093Y0205762D02*
X0474093Y0208902D01*
X0475663Y0208902D01*
X0476186Y0208379D01*
X0476186Y0207332D01*
X0475663Y0206809D01*
X0477718Y0206285D02*
X0478241Y0205762D01*
X0479288Y0205762D01*
X0479811Y0206285D01*
X0479811Y0206809D01*
X0479288Y0207332D01*
X0478765Y0207332D01*
X0479288Y0207332D02*
X0479811Y0207855D01*
X0479811Y0208379D01*
X0479288Y0208902D01*
X0478241Y0208902D01*
X0477718Y0208379D01*
X0477718Y0210487D02*
X0479811Y0212580D01*
X0479811Y0213103D01*
X0479288Y0213626D01*
X0478241Y0213626D01*
X0477718Y0213103D01*
X0476186Y0213103D02*
X0475663Y0213626D01*
X0474616Y0213626D01*
X0474093Y0213103D01*
X0474093Y0211010D01*
X0474616Y0210487D01*
X0475663Y0210487D01*
X0476186Y0211010D01*
X0477718Y0210487D02*
X0479811Y0210487D01*
X0481343Y0211010D02*
X0483436Y0213103D01*
X0483436Y0211010D01*
X0482913Y0210487D01*
X0481866Y0210487D01*
X0481343Y0211010D01*
X0481343Y0213103D01*
X0481866Y0213626D01*
X0482913Y0213626D01*
X0483436Y0213103D01*
X0483436Y0215211D02*
X0481343Y0215211D01*
X0483436Y0217304D01*
X0483436Y0217827D01*
X0482913Y0218351D01*
X0481866Y0218351D01*
X0481343Y0217827D01*
X0479811Y0217827D02*
X0479811Y0217304D01*
X0479288Y0216781D01*
X0479811Y0216258D01*
X0479811Y0215734D01*
X0479288Y0215211D01*
X0478241Y0215211D01*
X0477718Y0215734D01*
X0478765Y0216781D02*
X0479288Y0216781D01*
X0479811Y0217827D02*
X0479288Y0218351D01*
X0478241Y0218351D01*
X0477718Y0217827D01*
X0476186Y0217827D02*
X0476186Y0216781D01*
X0475663Y0216258D01*
X0474093Y0216258D01*
X0475139Y0216258D02*
X0476186Y0215211D01*
X0474093Y0215211D02*
X0474093Y0218351D01*
X0475663Y0218351D01*
X0476186Y0217827D01*
X0475663Y0219935D02*
X0476186Y0220459D01*
X0475663Y0219935D02*
X0474616Y0219935D01*
X0474093Y0220459D01*
X0474093Y0222552D01*
X0474616Y0223075D01*
X0475663Y0223075D01*
X0476186Y0222552D01*
X0477718Y0222029D02*
X0478765Y0223075D01*
X0478765Y0219935D01*
X0479811Y0219935D02*
X0477718Y0219935D01*
X0481343Y0220459D02*
X0481866Y0219935D01*
X0482913Y0219935D01*
X0483436Y0220459D01*
X0483436Y0222552D01*
X0482913Y0223075D01*
X0481866Y0223075D01*
X0481343Y0222552D01*
X0481343Y0222029D01*
X0481866Y0221505D01*
X0483436Y0221505D01*
X0483436Y0224660D02*
X0481343Y0224660D01*
X0482390Y0224660D02*
X0482390Y0227800D01*
X0481343Y0226753D01*
X0479811Y0226753D02*
X0479288Y0226230D01*
X0479811Y0225706D01*
X0479811Y0225183D01*
X0479288Y0224660D01*
X0478241Y0224660D01*
X0477718Y0225183D01*
X0478765Y0226230D02*
X0479288Y0226230D01*
X0479811Y0226753D02*
X0479811Y0227276D01*
X0479288Y0227800D01*
X0478241Y0227800D01*
X0477718Y0227276D01*
X0476186Y0227276D02*
X0476186Y0226230D01*
X0475663Y0225706D01*
X0474093Y0225706D01*
X0474093Y0224660D02*
X0474093Y0227800D01*
X0475663Y0227800D01*
X0476186Y0227276D01*
X0475139Y0225706D02*
X0476186Y0224660D01*
X0483859Y0225841D02*
X0483859Y0227411D01*
X0484382Y0227934D01*
X0485428Y0227934D01*
X0485952Y0227411D01*
X0485952Y0225841D01*
X0486998Y0225841D02*
X0483859Y0225841D01*
X0485952Y0226887D02*
X0486998Y0227934D01*
X0486998Y0229466D02*
X0484905Y0231559D01*
X0484382Y0231559D01*
X0483859Y0231036D01*
X0483859Y0229989D01*
X0484382Y0229466D01*
X0486998Y0229466D02*
X0486998Y0231559D01*
X0486475Y0233091D02*
X0486998Y0233614D01*
X0486998Y0234661D01*
X0486475Y0235184D01*
X0485952Y0235184D01*
X0485428Y0234661D01*
X0485428Y0234138D01*
X0485428Y0234661D02*
X0484905Y0235184D01*
X0484382Y0235184D01*
X0483859Y0234661D01*
X0483859Y0233614D01*
X0484382Y0233091D01*
X0473668Y0234109D02*
X0471575Y0234109D01*
X0473668Y0236202D01*
X0473668Y0236725D01*
X0473145Y0237248D01*
X0472098Y0237248D01*
X0471575Y0236725D01*
X0470043Y0236725D02*
X0469519Y0237248D01*
X0468473Y0237248D01*
X0467950Y0236725D01*
X0466418Y0236725D02*
X0466418Y0235679D01*
X0465894Y0235155D01*
X0464324Y0235155D01*
X0464324Y0234109D02*
X0464324Y0237248D01*
X0465894Y0237248D01*
X0466418Y0236725D01*
X0465371Y0235155D02*
X0466418Y0234109D01*
X0467950Y0234109D02*
X0470043Y0236202D01*
X0470043Y0236725D01*
X0470043Y0234109D02*
X0467950Y0234109D01*
X0463751Y0232001D02*
X0463751Y0231477D01*
X0463228Y0230954D01*
X0462181Y0230954D01*
X0461658Y0231477D01*
X0461658Y0232001D01*
X0462181Y0232524D01*
X0463228Y0232524D01*
X0463751Y0232001D01*
X0463228Y0230954D02*
X0463751Y0230431D01*
X0463751Y0229908D01*
X0463228Y0229384D01*
X0462181Y0229384D01*
X0461658Y0229908D01*
X0461658Y0230431D01*
X0462181Y0230954D01*
X0460126Y0229384D02*
X0458033Y0229384D01*
X0459080Y0229384D02*
X0459080Y0232524D01*
X0458033Y0231477D01*
X0456501Y0232001D02*
X0455978Y0232524D01*
X0454931Y0232524D01*
X0454408Y0232001D01*
X0454408Y0229908D01*
X0454931Y0229384D01*
X0455978Y0229384D01*
X0456501Y0229908D01*
X0457851Y0227406D02*
X0458897Y0227406D01*
X0459420Y0226883D01*
X0459420Y0226359D01*
X0458897Y0225836D01*
X0459420Y0225313D01*
X0459420Y0224789D01*
X0458897Y0224266D01*
X0457851Y0224266D01*
X0457327Y0224789D01*
X0458374Y0225836D02*
X0458897Y0225836D01*
X0457851Y0227406D02*
X0457327Y0226883D01*
X0454749Y0227406D02*
X0454749Y0224266D01*
X0455795Y0224266D02*
X0453702Y0224266D01*
X0452170Y0224789D02*
X0451647Y0224266D01*
X0450600Y0224266D01*
X0450077Y0224789D01*
X0450077Y0226883D01*
X0450600Y0227406D01*
X0451647Y0227406D01*
X0452170Y0226883D01*
X0453702Y0226359D02*
X0454749Y0227406D01*
X0453935Y0233321D02*
X0452888Y0233321D01*
X0452365Y0233845D01*
X0453412Y0234891D02*
X0453935Y0234891D01*
X0454458Y0234368D01*
X0454458Y0233845D01*
X0453935Y0233321D01*
X0453935Y0234891D02*
X0454458Y0235414D01*
X0454458Y0235938D01*
X0453935Y0236461D01*
X0452888Y0236461D01*
X0452365Y0235938D01*
X0450833Y0235938D02*
X0450310Y0236461D01*
X0449263Y0236461D01*
X0448740Y0235938D01*
X0448740Y0233845D01*
X0449263Y0233321D01*
X0450310Y0233321D01*
X0450833Y0233845D01*
X0446428Y0231343D02*
X0444335Y0231343D01*
X0444335Y0229773D01*
X0445382Y0230296D01*
X0445905Y0230296D01*
X0446428Y0229773D01*
X0446428Y0228726D01*
X0445905Y0228203D01*
X0444859Y0228203D01*
X0444335Y0228726D01*
X0442803Y0228203D02*
X0440710Y0228203D01*
X0441757Y0228203D02*
X0441757Y0231343D01*
X0440710Y0230296D01*
X0439178Y0229773D02*
X0438655Y0229250D01*
X0437085Y0229250D01*
X0438132Y0229250D02*
X0439178Y0228203D01*
X0439178Y0229773D02*
X0439178Y0230820D01*
X0438655Y0231343D01*
X0437085Y0231343D01*
X0437085Y0228203D01*
X0437846Y0237652D02*
X0438893Y0237652D01*
X0439416Y0238175D01*
X0440948Y0237652D02*
X0443041Y0237652D01*
X0441994Y0237652D02*
X0441994Y0240792D01*
X0440948Y0239745D01*
X0439416Y0240268D02*
X0438893Y0240792D01*
X0437846Y0240792D01*
X0437323Y0240268D01*
X0437323Y0238175D01*
X0437846Y0237652D01*
X0437085Y0242376D02*
X0437085Y0245516D01*
X0438655Y0245516D01*
X0439178Y0244993D01*
X0439178Y0243946D01*
X0438655Y0243423D01*
X0437085Y0243423D01*
X0438132Y0243423D02*
X0439178Y0242376D01*
X0440710Y0242900D02*
X0441233Y0242376D01*
X0442280Y0242376D01*
X0442803Y0242900D01*
X0442803Y0243423D01*
X0442280Y0243946D01*
X0441757Y0243946D01*
X0442280Y0243946D02*
X0442803Y0244470D01*
X0442803Y0244993D01*
X0442280Y0245516D01*
X0441233Y0245516D01*
X0440710Y0244993D01*
X0440710Y0247101D02*
X0442803Y0249194D01*
X0442803Y0249717D01*
X0442280Y0250240D01*
X0441233Y0250240D01*
X0440710Y0249717D01*
X0439178Y0249717D02*
X0438655Y0250240D01*
X0437608Y0250240D01*
X0437085Y0249717D01*
X0437085Y0247624D01*
X0437608Y0247101D01*
X0438655Y0247101D01*
X0439178Y0247624D01*
X0440710Y0247101D02*
X0442803Y0247101D01*
X0444335Y0247624D02*
X0444859Y0247101D01*
X0445905Y0247101D01*
X0446428Y0247624D01*
X0446428Y0248147D01*
X0445905Y0248671D01*
X0445382Y0248671D01*
X0445905Y0248671D02*
X0446428Y0249194D01*
X0446428Y0249717D01*
X0445905Y0250240D01*
X0444859Y0250240D01*
X0444335Y0249717D01*
X0444335Y0251825D02*
X0446428Y0251825D01*
X0445382Y0251825D02*
X0445382Y0254965D01*
X0444335Y0253918D01*
X0442803Y0253395D02*
X0440710Y0253395D01*
X0442280Y0254965D01*
X0442280Y0251825D01*
X0439178Y0251825D02*
X0438132Y0252872D01*
X0438655Y0252872D02*
X0437085Y0252872D01*
X0437085Y0251825D02*
X0437085Y0254965D01*
X0438655Y0254965D01*
X0439178Y0254442D01*
X0439178Y0253395D01*
X0438655Y0252872D01*
X0439178Y0256550D02*
X0438132Y0257596D01*
X0438655Y0257596D02*
X0437085Y0257596D01*
X0437085Y0256550D02*
X0437085Y0259689D01*
X0438655Y0259689D01*
X0439178Y0259166D01*
X0439178Y0258119D01*
X0438655Y0257596D01*
X0440710Y0257073D02*
X0441233Y0256550D01*
X0442280Y0256550D01*
X0442803Y0257073D01*
X0442803Y0257596D01*
X0442280Y0258119D01*
X0441757Y0258119D01*
X0442280Y0258119D02*
X0442803Y0258643D01*
X0442803Y0259166D01*
X0442280Y0259689D01*
X0441233Y0259689D01*
X0440710Y0259166D01*
X0444335Y0258119D02*
X0445905Y0258119D01*
X0446428Y0257596D01*
X0446428Y0257073D01*
X0445905Y0256550D01*
X0444859Y0256550D01*
X0444335Y0257073D01*
X0444335Y0258119D01*
X0445382Y0259166D01*
X0446428Y0259689D01*
X0462208Y0260084D02*
X0463517Y0260084D01*
X0462862Y0260084D02*
X0462862Y0256156D01*
X0462208Y0256156D02*
X0463517Y0256156D01*
X0465108Y0256811D02*
X0465762Y0256156D01*
X0467072Y0256156D01*
X0467726Y0256811D01*
X0469458Y0256156D02*
X0472077Y0258774D01*
X0472077Y0259429D01*
X0471422Y0260084D01*
X0470113Y0260084D01*
X0469458Y0259429D01*
X0467726Y0259429D02*
X0467072Y0260084D01*
X0465762Y0260084D01*
X0465108Y0259429D01*
X0465108Y0256811D01*
X0469458Y0256156D02*
X0472077Y0256156D01*
X0473699Y0260880D02*
X0473699Y0264020D01*
X0475269Y0264020D01*
X0475792Y0263497D01*
X0475792Y0262450D01*
X0475269Y0261927D01*
X0473699Y0261927D01*
X0474746Y0261927D02*
X0475792Y0260880D01*
X0477324Y0260880D02*
X0479417Y0262973D01*
X0479417Y0263497D01*
X0478894Y0264020D01*
X0477848Y0264020D01*
X0477324Y0263497D01*
X0477324Y0265211D02*
X0479417Y0267304D01*
X0479417Y0267827D01*
X0478894Y0268351D01*
X0477848Y0268351D01*
X0477324Y0267827D01*
X0475792Y0267827D02*
X0475792Y0266781D01*
X0475269Y0266258D01*
X0473699Y0266258D01*
X0474746Y0266258D02*
X0475792Y0265211D01*
X0477324Y0265211D02*
X0479417Y0265211D01*
X0480949Y0265734D02*
X0483043Y0267827D01*
X0483043Y0265734D01*
X0482519Y0265211D01*
X0481473Y0265211D01*
X0480949Y0265734D01*
X0480949Y0267827D01*
X0481473Y0268351D01*
X0482519Y0268351D01*
X0483043Y0267827D01*
X0482519Y0269542D02*
X0481473Y0269542D01*
X0480949Y0270065D01*
X0480949Y0270588D01*
X0481473Y0271112D01*
X0482519Y0271112D01*
X0483043Y0270588D01*
X0483043Y0270065D01*
X0482519Y0269542D01*
X0482519Y0271112D02*
X0483043Y0271635D01*
X0483043Y0272158D01*
X0482519Y0272681D01*
X0481473Y0272681D01*
X0480949Y0272158D01*
X0480949Y0271635D01*
X0481473Y0271112D01*
X0479417Y0269542D02*
X0477324Y0269542D01*
X0478371Y0269542D02*
X0478371Y0272681D01*
X0477324Y0271635D01*
X0475792Y0272158D02*
X0475792Y0271112D01*
X0475269Y0270588D01*
X0473699Y0270588D01*
X0473699Y0269542D02*
X0473699Y0272681D01*
X0475269Y0272681D01*
X0475792Y0272158D01*
X0475792Y0273872D02*
X0474746Y0274919D01*
X0475269Y0274919D02*
X0473699Y0274919D01*
X0473699Y0273872D02*
X0473699Y0277012D01*
X0475269Y0277012D01*
X0475792Y0276489D01*
X0475792Y0275442D01*
X0475269Y0274919D01*
X0477324Y0275966D02*
X0478371Y0277012D01*
X0478371Y0273872D01*
X0479417Y0273872D02*
X0477324Y0273872D01*
X0480949Y0274396D02*
X0481473Y0273872D01*
X0482519Y0273872D01*
X0483043Y0274396D01*
X0483043Y0276489D01*
X0482519Y0277012D01*
X0481473Y0277012D01*
X0480949Y0276489D01*
X0480949Y0275966D01*
X0481473Y0275442D01*
X0483043Y0275442D01*
X0475792Y0269542D02*
X0474746Y0270588D01*
X0475269Y0268351D02*
X0475792Y0267827D01*
X0475269Y0268351D02*
X0473699Y0268351D01*
X0473699Y0265211D01*
X0477324Y0260880D02*
X0479417Y0260880D01*
X0480949Y0260880D02*
X0483043Y0260880D01*
X0481996Y0260880D02*
X0481996Y0264020D01*
X0480949Y0262973D01*
X0490476Y0258248D02*
X0490476Y0255629D01*
X0491131Y0254975D01*
X0492440Y0254975D01*
X0493095Y0255629D01*
X0494827Y0255629D02*
X0495481Y0254975D01*
X0496790Y0254975D01*
X0497445Y0255629D01*
X0497445Y0258248D01*
X0496790Y0258903D01*
X0495481Y0258903D01*
X0494827Y0258248D01*
X0494827Y0255629D01*
X0493095Y0258248D02*
X0492440Y0258903D01*
X0491131Y0258903D01*
X0490476Y0258248D01*
X0499177Y0258903D02*
X0501795Y0254975D01*
X0501795Y0258903D01*
X0503527Y0258248D02*
X0504181Y0258903D01*
X0505491Y0258903D01*
X0506145Y0258248D01*
X0506145Y0257593D01*
X0503527Y0254975D01*
X0506145Y0254975D01*
X0499177Y0254975D02*
X0499177Y0258903D01*
X0503280Y0246676D02*
X0502756Y0246152D01*
X0502756Y0245106D01*
X0503280Y0244583D01*
X0502756Y0243051D02*
X0505896Y0243051D01*
X0504849Y0242004D01*
X0505896Y0240957D01*
X0502756Y0240957D01*
X0503280Y0239425D02*
X0502756Y0238902D01*
X0502756Y0237856D01*
X0503280Y0237332D01*
X0503803Y0237332D01*
X0504326Y0237856D01*
X0504326Y0238902D01*
X0504849Y0239425D01*
X0505373Y0239425D01*
X0505896Y0238902D01*
X0505896Y0237856D01*
X0505373Y0237332D01*
X0505896Y0244583D02*
X0503803Y0246676D01*
X0503280Y0246676D01*
X0505896Y0246676D02*
X0505896Y0244583D01*
X0497765Y0241195D02*
X0495672Y0241195D01*
X0495672Y0244335D01*
X0494140Y0243812D02*
X0494140Y0243288D01*
X0493617Y0242765D01*
X0492047Y0242765D01*
X0492047Y0241195D02*
X0493617Y0241195D01*
X0494140Y0241719D01*
X0494140Y0242242D01*
X0493617Y0242765D01*
X0494140Y0243812D02*
X0493617Y0244335D01*
X0492047Y0244335D01*
X0492047Y0241195D01*
X0497953Y0227800D02*
X0500046Y0224660D01*
X0501578Y0225183D02*
X0502101Y0224660D01*
X0503148Y0224660D01*
X0503671Y0225183D01*
X0503671Y0226230D01*
X0503148Y0226753D01*
X0502624Y0226753D01*
X0501578Y0226230D01*
X0501578Y0227800D01*
X0503671Y0227800D01*
X0500046Y0227800D02*
X0497953Y0224660D01*
X0496790Y0211658D02*
X0497445Y0211004D01*
X0497445Y0208385D01*
X0496790Y0207731D01*
X0495481Y0207731D01*
X0494827Y0208385D01*
X0494827Y0211004D01*
X0495481Y0211658D01*
X0496790Y0211658D01*
X0499177Y0211658D02*
X0501795Y0207731D01*
X0501795Y0211658D01*
X0503527Y0211004D02*
X0504181Y0211658D01*
X0505491Y0211658D01*
X0506145Y0211004D01*
X0506145Y0210349D01*
X0505491Y0209695D01*
X0506145Y0209040D01*
X0506145Y0208385D01*
X0505491Y0207731D01*
X0504181Y0207731D01*
X0503527Y0208385D01*
X0504836Y0209695D02*
X0505491Y0209695D01*
X0499177Y0207731D02*
X0499177Y0211658D01*
X0493095Y0211004D02*
X0492440Y0211658D01*
X0491131Y0211658D01*
X0490476Y0211004D01*
X0490476Y0208385D01*
X0491131Y0207731D01*
X0492440Y0207731D01*
X0493095Y0208385D01*
X0483436Y0208379D02*
X0483436Y0207855D01*
X0482913Y0207332D01*
X0483436Y0206809D01*
X0483436Y0206285D01*
X0482913Y0205762D01*
X0481866Y0205762D01*
X0481343Y0206285D01*
X0482390Y0207332D02*
X0482913Y0207332D01*
X0483436Y0208379D02*
X0482913Y0208902D01*
X0481866Y0208902D01*
X0481343Y0208379D01*
X0482390Y0204177D02*
X0482390Y0201038D01*
X0483436Y0201038D02*
X0481343Y0201038D01*
X0481343Y0203131D02*
X0482390Y0204177D01*
X0484488Y0199453D02*
X0482918Y0197883D01*
X0485011Y0197883D01*
X0484488Y0196313D02*
X0484488Y0199453D01*
X0492047Y0196568D02*
X0492047Y0194474D01*
X0492570Y0193951D01*
X0493617Y0193951D01*
X0494140Y0194474D01*
X0494140Y0195521D01*
X0493094Y0195521D01*
X0494140Y0196568D02*
X0493617Y0197091D01*
X0492570Y0197091D01*
X0492047Y0196568D01*
X0495672Y0197091D02*
X0497242Y0197091D01*
X0497765Y0196568D01*
X0497765Y0195521D01*
X0497242Y0194998D01*
X0495672Y0194998D01*
X0495672Y0193951D02*
X0495672Y0197091D01*
X0496719Y0194998D02*
X0497765Y0193951D01*
X0502756Y0193713D02*
X0505896Y0193713D01*
X0504849Y0194760D01*
X0505896Y0195807D01*
X0502756Y0195807D01*
X0503280Y0197339D02*
X0502756Y0197862D01*
X0502756Y0198908D01*
X0503280Y0199432D01*
X0503803Y0199432D01*
X0504326Y0198908D01*
X0504849Y0199432D01*
X0505373Y0199432D01*
X0505896Y0198908D01*
X0505896Y0197862D01*
X0505373Y0197339D01*
X0504326Y0198385D02*
X0504326Y0198908D01*
X0504849Y0192181D02*
X0505373Y0192181D01*
X0505896Y0191658D01*
X0505896Y0190612D01*
X0505373Y0190088D01*
X0504326Y0190612D02*
X0504326Y0191658D01*
X0504849Y0192181D01*
X0503280Y0192181D02*
X0502756Y0191658D01*
X0502756Y0190612D01*
X0503280Y0190088D01*
X0503803Y0190088D01*
X0504326Y0190612D01*
X0502360Y0180555D02*
X0500790Y0178986D01*
X0502884Y0178986D01*
X0502360Y0180555D02*
X0502360Y0177416D01*
X0499258Y0177416D02*
X0497165Y0180555D01*
X0499258Y0180555D02*
X0497165Y0177416D01*
X0479499Y0191195D02*
X0477406Y0191195D01*
X0433592Y0209306D02*
X0431499Y0209306D01*
X0432546Y0209306D02*
X0432546Y0212445D01*
X0431499Y0211399D01*
X0429967Y0211922D02*
X0429967Y0210875D01*
X0429444Y0210352D01*
X0427874Y0210352D01*
X0428920Y0210352D02*
X0429967Y0209306D01*
X0427874Y0209306D02*
X0427874Y0212445D01*
X0429444Y0212445D01*
X0429967Y0211922D01*
X0421250Y0213317D02*
X0418111Y0213317D01*
X0418111Y0214886D01*
X0418634Y0215410D01*
X0419680Y0215410D01*
X0420204Y0214886D01*
X0420204Y0213317D01*
X0420204Y0214363D02*
X0421250Y0215410D01*
X0420727Y0216942D02*
X0421250Y0217465D01*
X0421250Y0218512D01*
X0420727Y0219035D01*
X0420204Y0219035D01*
X0419680Y0218512D01*
X0419680Y0217988D01*
X0419680Y0218512D02*
X0419157Y0219035D01*
X0418634Y0219035D01*
X0418111Y0218512D01*
X0418111Y0217465D01*
X0418634Y0216942D01*
X0418634Y0220567D02*
X0419157Y0220567D01*
X0419680Y0221090D01*
X0419680Y0222137D01*
X0420204Y0222660D01*
X0420727Y0222660D01*
X0421250Y0222137D01*
X0421250Y0221090D01*
X0420727Y0220567D01*
X0420204Y0220567D01*
X0419680Y0221090D01*
X0419680Y0222137D02*
X0419157Y0222660D01*
X0418634Y0222660D01*
X0418111Y0222137D01*
X0418111Y0221090D01*
X0418634Y0220567D01*
X0405502Y0220696D02*
X0405502Y0221743D01*
X0404979Y0222266D01*
X0403932Y0222266D01*
X0403409Y0221743D01*
X0403409Y0221220D01*
X0403932Y0220173D01*
X0402363Y0220173D01*
X0402363Y0222266D01*
X0404979Y0220173D02*
X0405502Y0220696D01*
X0404979Y0218641D02*
X0405502Y0218118D01*
X0405502Y0217071D01*
X0404979Y0216548D01*
X0403932Y0217595D02*
X0403932Y0218118D01*
X0404456Y0218641D01*
X0404979Y0218641D01*
X0403932Y0218118D02*
X0403409Y0218641D01*
X0402886Y0218641D01*
X0402363Y0218118D01*
X0402363Y0217071D01*
X0402886Y0216548D01*
X0402886Y0215016D02*
X0403932Y0215016D01*
X0404456Y0214493D01*
X0404456Y0212923D01*
X0405502Y0212923D02*
X0402363Y0212923D01*
X0402363Y0214493D01*
X0402886Y0215016D01*
X0404456Y0213969D02*
X0405502Y0215016D01*
X0417638Y0206804D02*
X0418161Y0207327D01*
X0419208Y0207327D01*
X0419731Y0206804D01*
X0419731Y0204711D01*
X0419208Y0204187D01*
X0418161Y0204187D01*
X0417638Y0204711D01*
X0417638Y0206804D01*
X0418684Y0205234D02*
X0419731Y0204187D01*
X0421263Y0204187D02*
X0423356Y0204187D01*
X0422309Y0204187D02*
X0422309Y0207327D01*
X0421263Y0206281D01*
X0392335Y0223872D02*
X0390242Y0223872D01*
X0392335Y0225966D01*
X0392335Y0226489D01*
X0391812Y0227012D01*
X0390766Y0227012D01*
X0390242Y0226489D01*
X0388710Y0226489D02*
X0388187Y0227012D01*
X0387140Y0227012D01*
X0386617Y0226489D01*
X0386617Y0224396D01*
X0387140Y0223872D01*
X0388187Y0223872D01*
X0388710Y0224396D01*
X0371258Y0252613D02*
X0371913Y0253267D01*
X0371913Y0255886D01*
X0371258Y0256540D01*
X0369949Y0256540D01*
X0369294Y0255886D01*
X0369294Y0255231D01*
X0369949Y0254576D01*
X0371913Y0254576D01*
X0371258Y0252613D02*
X0369949Y0252613D01*
X0369294Y0253267D01*
X0367563Y0253267D02*
X0366908Y0252613D01*
X0365599Y0252613D01*
X0364944Y0253267D01*
X0364944Y0255886D01*
X0365599Y0256540D01*
X0366908Y0256540D01*
X0367563Y0255886D01*
X0369793Y0261274D02*
X0371103Y0261274D01*
X0370448Y0261274D02*
X0370448Y0265202D01*
X0369793Y0265202D02*
X0371103Y0265202D01*
X0372693Y0264547D02*
X0372693Y0261929D01*
X0373348Y0261274D01*
X0374657Y0261274D01*
X0375312Y0261929D01*
X0377044Y0263238D02*
X0379662Y0263238D01*
X0379008Y0265202D02*
X0377044Y0263238D01*
X0375312Y0264547D02*
X0374657Y0265202D01*
X0373348Y0265202D01*
X0372693Y0264547D01*
X0379008Y0265202D02*
X0379008Y0261274D01*
X0378349Y0259296D02*
X0379919Y0259296D01*
X0380443Y0258772D01*
X0380443Y0257726D01*
X0379919Y0257202D01*
X0378349Y0257202D01*
X0378349Y0256156D02*
X0378349Y0259296D01*
X0379396Y0257202D02*
X0380443Y0256156D01*
X0381975Y0256156D02*
X0384068Y0256156D01*
X0383021Y0256156D02*
X0383021Y0259296D01*
X0381975Y0258249D01*
X0381893Y0260880D02*
X0381893Y0264020D01*
X0383463Y0264020D01*
X0383986Y0263497D01*
X0383986Y0262450D01*
X0383463Y0261927D01*
X0381893Y0261927D01*
X0382939Y0261927D02*
X0383986Y0260880D01*
X0385518Y0261404D02*
X0386041Y0260880D01*
X0387088Y0260880D01*
X0387611Y0261404D01*
X0387611Y0261927D01*
X0387088Y0262450D01*
X0385518Y0262450D01*
X0385518Y0261404D01*
X0385518Y0262450D02*
X0386564Y0263497D01*
X0387611Y0264020D01*
X0387088Y0265605D02*
X0387611Y0266128D01*
X0387611Y0267175D01*
X0387088Y0267698D01*
X0386564Y0267698D01*
X0385518Y0267175D01*
X0385518Y0268744D01*
X0387611Y0268744D01*
X0387693Y0270329D02*
X0385600Y0270329D01*
X0386646Y0270329D02*
X0386646Y0273469D01*
X0385600Y0272422D01*
X0384068Y0270329D02*
X0381975Y0270329D01*
X0383021Y0270329D02*
X0383021Y0273469D01*
X0381975Y0272422D01*
X0380443Y0271899D02*
X0379919Y0271376D01*
X0378349Y0271376D01*
X0378349Y0270329D02*
X0378349Y0273469D01*
X0379919Y0273469D01*
X0380443Y0272946D01*
X0380443Y0271899D01*
X0379396Y0271376D02*
X0380443Y0270329D01*
X0381893Y0268744D02*
X0383463Y0268744D01*
X0383986Y0268221D01*
X0383986Y0267175D01*
X0383463Y0266651D01*
X0381893Y0266651D01*
X0381893Y0265605D02*
X0381893Y0268744D01*
X0382939Y0266651D02*
X0383986Y0265605D01*
X0385518Y0266128D02*
X0386041Y0265605D01*
X0387088Y0265605D01*
X0387170Y0259296D02*
X0386123Y0259296D01*
X0385600Y0258772D01*
X0387170Y0259296D02*
X0387693Y0258772D01*
X0387693Y0258249D01*
X0385600Y0256156D01*
X0387693Y0256156D01*
X0419688Y0262849D02*
X0420997Y0262849D01*
X0420343Y0262849D02*
X0420343Y0266777D01*
X0420997Y0266777D02*
X0419688Y0266777D01*
X0422588Y0266122D02*
X0422588Y0263503D01*
X0423243Y0262849D01*
X0424552Y0262849D01*
X0425207Y0263503D01*
X0426938Y0262849D02*
X0429557Y0262849D01*
X0428248Y0262849D02*
X0428248Y0266777D01*
X0426938Y0265467D01*
X0425207Y0266122D02*
X0424552Y0266777D01*
X0423243Y0266777D01*
X0422588Y0266122D01*
X0414557Y0276702D02*
X0411418Y0276702D01*
X0411418Y0278272D01*
X0411941Y0278796D01*
X0412987Y0278796D01*
X0413511Y0278272D01*
X0413511Y0276702D01*
X0413511Y0277749D02*
X0414557Y0278796D01*
X0412987Y0280328D02*
X0412987Y0282421D01*
X0412987Y0283953D02*
X0412464Y0284999D01*
X0412464Y0285523D01*
X0412987Y0286046D01*
X0414034Y0286046D01*
X0414557Y0285523D01*
X0414557Y0284476D01*
X0414034Y0283953D01*
X0412987Y0283953D02*
X0411418Y0283953D01*
X0411418Y0286046D01*
X0411418Y0281897D02*
X0412987Y0280328D01*
X0411418Y0281897D02*
X0414557Y0281897D01*
X0421037Y0287125D02*
X0421691Y0286471D01*
X0423001Y0286471D01*
X0423655Y0287125D01*
X0425387Y0286471D02*
X0428005Y0286471D01*
X0426696Y0286471D02*
X0426696Y0290399D01*
X0425387Y0289089D01*
X0423655Y0289744D02*
X0423001Y0290399D01*
X0421691Y0290399D01*
X0421037Y0289744D01*
X0421037Y0287125D01*
X0429737Y0288435D02*
X0431701Y0290399D01*
X0431701Y0286471D01*
X0432356Y0288435D02*
X0429737Y0288435D01*
X0424283Y0301038D02*
X0422974Y0301038D01*
X0422319Y0301692D01*
X0422319Y0303002D01*
X0424283Y0303002D01*
X0424938Y0302347D01*
X0424938Y0301692D01*
X0424283Y0301038D01*
X0422319Y0303002D02*
X0423628Y0304311D01*
X0424938Y0304966D01*
X0420588Y0304311D02*
X0419933Y0304966D01*
X0418624Y0304966D01*
X0417969Y0304311D01*
X0417969Y0301692D01*
X0418624Y0301038D01*
X0419933Y0301038D01*
X0420588Y0301692D01*
X0416378Y0301038D02*
X0415069Y0301038D01*
X0415724Y0301038D02*
X0415724Y0304966D01*
X0416378Y0304966D02*
X0415069Y0304966D01*
X0419723Y0317180D02*
X0421032Y0317180D01*
X0421687Y0317834D01*
X0423418Y0317180D02*
X0426037Y0317180D01*
X0424728Y0317180D02*
X0424728Y0321107D01*
X0423418Y0319798D01*
X0421687Y0320453D02*
X0421032Y0321107D01*
X0419723Y0321107D01*
X0419068Y0320453D01*
X0419068Y0317834D01*
X0419723Y0317180D01*
X0427769Y0317180D02*
X0430387Y0319798D01*
X0430387Y0320453D01*
X0429733Y0321107D01*
X0428423Y0321107D01*
X0427769Y0320453D01*
X0427769Y0317180D02*
X0430387Y0317180D01*
X0462188Y0320196D02*
X0462843Y0319542D01*
X0463498Y0319542D01*
X0464152Y0320196D01*
X0464152Y0323469D01*
X0463498Y0323469D02*
X0464807Y0323469D01*
X0466538Y0322160D02*
X0467848Y0323469D01*
X0467848Y0319542D01*
X0469157Y0319542D02*
X0466538Y0319542D01*
X0490476Y0305492D02*
X0490476Y0302874D01*
X0491131Y0302219D01*
X0492440Y0302219D01*
X0493095Y0302874D01*
X0494827Y0302874D02*
X0495481Y0302219D01*
X0496790Y0302219D01*
X0497445Y0302874D01*
X0497445Y0305492D01*
X0496790Y0306147D01*
X0495481Y0306147D01*
X0494827Y0305492D01*
X0494827Y0302874D01*
X0493095Y0305492D02*
X0492440Y0306147D01*
X0491131Y0306147D01*
X0490476Y0305492D01*
X0499177Y0306147D02*
X0501795Y0302219D01*
X0501795Y0306147D01*
X0503527Y0304837D02*
X0504836Y0306147D01*
X0504836Y0302219D01*
X0503527Y0302219D02*
X0506145Y0302219D01*
X0499177Y0302219D02*
X0499177Y0306147D01*
X0512520Y0312061D02*
X0514613Y0315201D01*
X0516145Y0315201D02*
X0518238Y0315201D01*
X0518238Y0314678D01*
X0516145Y0312585D01*
X0516145Y0312061D01*
X0514613Y0312061D02*
X0512520Y0315201D01*
X0538660Y0315201D02*
X0540753Y0312061D01*
X0542285Y0312061D02*
X0544378Y0312061D01*
X0543331Y0312061D02*
X0543331Y0315201D01*
X0542285Y0314155D01*
X0540753Y0315201D02*
X0538660Y0312061D01*
X0545910Y0312061D02*
X0548003Y0312061D01*
X0546957Y0312061D02*
X0546957Y0315201D01*
X0545910Y0314155D01*
X0548819Y0294314D02*
X0548819Y0292220D01*
X0550389Y0292220D01*
X0549866Y0293267D01*
X0549866Y0293790D01*
X0550389Y0294314D01*
X0551436Y0294314D01*
X0551959Y0293790D01*
X0551959Y0292744D01*
X0551436Y0292220D01*
X0551959Y0290688D02*
X0548819Y0290688D01*
X0548819Y0288595D02*
X0551959Y0288595D01*
X0550912Y0289642D01*
X0551959Y0290688D01*
X0551436Y0287063D02*
X0551959Y0286540D01*
X0551959Y0285493D01*
X0551436Y0284970D01*
X0550389Y0285493D02*
X0549866Y0284970D01*
X0549343Y0284970D01*
X0548819Y0285493D01*
X0548819Y0286540D01*
X0549343Y0287063D01*
X0550389Y0286540D02*
X0550912Y0287063D01*
X0551436Y0287063D01*
X0550389Y0286540D02*
X0550389Y0285493D01*
X0572518Y0267957D02*
X0574611Y0264817D01*
X0576143Y0264817D02*
X0578236Y0264817D01*
X0577190Y0264817D02*
X0577190Y0267957D01*
X0576143Y0266910D01*
X0574611Y0267957D02*
X0572518Y0264817D01*
X0579768Y0265341D02*
X0581861Y0267434D01*
X0581861Y0265341D01*
X0581338Y0264817D01*
X0580292Y0264817D01*
X0579768Y0265341D01*
X0579768Y0267434D01*
X0580292Y0267957D01*
X0581338Y0267957D01*
X0581861Y0267434D01*
X0551959Y0246546D02*
X0551436Y0247069D01*
X0550912Y0247069D01*
X0550389Y0246546D01*
X0550389Y0244976D01*
X0551436Y0244976D01*
X0551959Y0245500D01*
X0551959Y0246546D01*
X0550389Y0244976D02*
X0549343Y0246023D01*
X0548819Y0247069D01*
X0548819Y0243444D02*
X0551959Y0243444D01*
X0550912Y0242398D01*
X0551959Y0241351D01*
X0548819Y0241351D01*
X0549343Y0239819D02*
X0548819Y0239296D01*
X0548819Y0238249D01*
X0549343Y0237726D01*
X0549866Y0237726D01*
X0550389Y0238249D01*
X0550389Y0239296D01*
X0550912Y0239819D01*
X0551436Y0239819D01*
X0551959Y0239296D01*
X0551959Y0238249D01*
X0551436Y0237726D01*
X0572362Y0220713D02*
X0574455Y0217573D01*
X0575987Y0218097D02*
X0576511Y0217573D01*
X0577557Y0217573D01*
X0578080Y0218097D01*
X0578080Y0220190D01*
X0577557Y0220713D01*
X0576511Y0220713D01*
X0575987Y0220190D01*
X0575987Y0219666D01*
X0576511Y0219143D01*
X0578080Y0219143D01*
X0574455Y0220713D02*
X0572362Y0217573D01*
X0551959Y0197732D02*
X0551436Y0197732D01*
X0549343Y0199825D01*
X0548819Y0199825D01*
X0548819Y0197732D01*
X0548819Y0196200D02*
X0551959Y0196200D01*
X0550912Y0195154D01*
X0551959Y0194107D01*
X0548819Y0194107D01*
X0549343Y0192575D02*
X0548819Y0192052D01*
X0548819Y0191005D01*
X0549343Y0190482D01*
X0549866Y0190482D01*
X0550389Y0191005D01*
X0550389Y0192052D01*
X0550912Y0192575D01*
X0551436Y0192575D01*
X0551959Y0192052D01*
X0551959Y0191005D01*
X0551436Y0190482D01*
X0572362Y0173469D02*
X0574455Y0170329D01*
X0575987Y0170852D02*
X0575987Y0171376D01*
X0576511Y0171899D01*
X0577557Y0171899D01*
X0578080Y0171376D01*
X0578080Y0170852D01*
X0577557Y0170329D01*
X0576511Y0170329D01*
X0575987Y0170852D01*
X0576511Y0171899D02*
X0575987Y0172422D01*
X0575987Y0172946D01*
X0576511Y0173469D01*
X0577557Y0173469D01*
X0578080Y0172946D01*
X0578080Y0172422D01*
X0577557Y0171899D01*
X0574455Y0173469D02*
X0572362Y0170329D01*
X0551959Y0152058D02*
X0551436Y0152581D01*
X0550912Y0152581D01*
X0550389Y0152058D01*
X0550389Y0151011D01*
X0549866Y0150488D01*
X0549343Y0150488D01*
X0548819Y0151011D01*
X0548819Y0152058D01*
X0549343Y0152581D01*
X0549866Y0152581D01*
X0550389Y0152058D01*
X0550389Y0151011D02*
X0550912Y0150488D01*
X0551436Y0150488D01*
X0551959Y0151011D01*
X0551959Y0152058D01*
X0551959Y0148956D02*
X0548819Y0148956D01*
X0548819Y0146863D02*
X0551959Y0146863D01*
X0550912Y0147910D01*
X0551959Y0148956D01*
X0551436Y0145331D02*
X0551959Y0144808D01*
X0551959Y0143761D01*
X0551436Y0143238D01*
X0550389Y0143761D02*
X0550389Y0144808D01*
X0550912Y0145331D01*
X0551436Y0145331D01*
X0550389Y0143761D02*
X0549866Y0143238D01*
X0549343Y0143238D01*
X0548819Y0143761D01*
X0548819Y0144808D01*
X0549343Y0145331D01*
X0444335Y0242376D02*
X0444335Y0242900D01*
X0446428Y0244993D01*
X0446428Y0245516D01*
X0444335Y0245516D01*
X0459843Y0270723D02*
X0459843Y0272293D01*
X0460366Y0272816D01*
X0461413Y0272816D01*
X0461936Y0272293D01*
X0461936Y0270723D01*
X0461936Y0271769D02*
X0462983Y0272816D01*
X0462983Y0274348D02*
X0462983Y0276441D01*
X0462983Y0275395D02*
X0459843Y0275395D01*
X0460889Y0274348D01*
X0459843Y0277973D02*
X0459843Y0280066D01*
X0460366Y0280066D01*
X0462459Y0277973D01*
X0462983Y0277973D01*
X0465091Y0279020D02*
X0466137Y0277973D01*
X0466137Y0279543D01*
X0466660Y0280066D01*
X0467184Y0280066D01*
X0467707Y0279543D01*
X0467707Y0278496D01*
X0467184Y0277973D01*
X0466137Y0277973D01*
X0465091Y0279020D02*
X0464567Y0280066D01*
X0464567Y0275395D02*
X0467707Y0275395D01*
X0467707Y0276441D02*
X0467707Y0274348D01*
X0467707Y0272816D02*
X0466660Y0271769D01*
X0466660Y0272293D02*
X0466660Y0270723D01*
X0467707Y0270723D02*
X0464567Y0270723D01*
X0464567Y0272293D01*
X0465091Y0272816D01*
X0466137Y0272816D01*
X0466660Y0272293D01*
X0465614Y0274348D02*
X0464567Y0275395D01*
X0462983Y0270723D02*
X0459843Y0270723D01*
X0492047Y0288439D02*
X0492047Y0291579D01*
X0493617Y0291579D01*
X0494140Y0291056D01*
X0494140Y0290009D01*
X0493617Y0289486D01*
X0492047Y0289486D01*
X0493094Y0289486D02*
X0494140Y0288439D01*
X0495672Y0288439D02*
X0495672Y0291579D01*
X0497242Y0291579D01*
X0497765Y0291056D01*
X0497765Y0288963D01*
X0497242Y0288439D01*
X0495672Y0288439D01*
X0502756Y0288202D02*
X0505896Y0288202D01*
X0504849Y0289248D01*
X0505896Y0290295D01*
X0502756Y0290295D01*
X0503803Y0291827D02*
X0502756Y0292873D01*
X0505896Y0292873D01*
X0505896Y0291827D02*
X0505896Y0293920D01*
X0505373Y0286670D02*
X0505896Y0286146D01*
X0505896Y0285100D01*
X0505373Y0284576D01*
X0504326Y0285100D02*
X0504326Y0286146D01*
X0504849Y0286670D01*
X0505373Y0286670D01*
X0504326Y0285100D02*
X0503803Y0284576D01*
X0503280Y0284576D01*
X0502756Y0285100D01*
X0502756Y0286146D01*
X0503280Y0286670D01*
X0503671Y0275044D02*
X0502624Y0274520D01*
X0501578Y0273474D01*
X0503148Y0273474D01*
X0503671Y0272950D01*
X0503671Y0272427D01*
X0503148Y0271904D01*
X0502101Y0271904D01*
X0501578Y0272427D01*
X0501578Y0273474D01*
X0500046Y0275044D02*
X0497953Y0271904D01*
X0500046Y0271904D02*
X0497953Y0275044D01*
X0403140Y0276702D02*
X0400000Y0276702D01*
X0400000Y0278272D01*
X0400524Y0278796D01*
X0401570Y0278796D01*
X0402093Y0278272D01*
X0402093Y0276702D01*
X0402093Y0277749D02*
X0403140Y0278796D01*
X0401570Y0280328D02*
X0401570Y0282421D01*
X0401570Y0283953D02*
X0401570Y0285523D01*
X0402093Y0286046D01*
X0402617Y0286046D01*
X0403140Y0285523D01*
X0403140Y0284476D01*
X0402617Y0283953D01*
X0401570Y0283953D01*
X0400524Y0284999D01*
X0400000Y0286046D01*
X0400000Y0281897D02*
X0401570Y0280328D01*
X0403140Y0281897D02*
X0400000Y0281897D01*
X0387392Y0282327D02*
X0387392Y0284946D01*
X0387392Y0283637D02*
X0383464Y0283637D01*
X0384773Y0282327D01*
X0384119Y0280596D02*
X0383464Y0279941D01*
X0383464Y0278632D01*
X0384119Y0277977D01*
X0386737Y0277977D01*
X0387392Y0278632D01*
X0387392Y0279941D01*
X0386737Y0280596D01*
X0386737Y0286677D02*
X0387392Y0287332D01*
X0387392Y0288641D01*
X0386737Y0289296D01*
X0386083Y0289296D01*
X0385428Y0288641D01*
X0385428Y0286677D01*
X0386737Y0286677D01*
X0385428Y0286677D02*
X0384119Y0287987D01*
X0383464Y0289296D01*
X0383549Y0304975D02*
X0385643Y0304975D01*
X0384596Y0304975D02*
X0384596Y0308114D01*
X0383549Y0307068D01*
X0382017Y0307591D02*
X0382017Y0306545D01*
X0381494Y0306021D01*
X0379924Y0306021D01*
X0379924Y0304975D02*
X0379924Y0308114D01*
X0381494Y0308114D01*
X0382017Y0307591D01*
X0380971Y0306021D02*
X0382017Y0304975D01*
X0382017Y0309699D02*
X0380971Y0310746D01*
X0381494Y0310746D02*
X0379924Y0310746D01*
X0379924Y0309699D02*
X0379924Y0312839D01*
X0381494Y0312839D01*
X0382017Y0312316D01*
X0382017Y0311269D01*
X0381494Y0310746D01*
X0383549Y0311269D02*
X0385643Y0311269D01*
X0385119Y0309699D02*
X0385119Y0312839D01*
X0383549Y0311269D01*
X0384073Y0314424D02*
X0383549Y0314947D01*
X0384073Y0314424D02*
X0385119Y0314424D01*
X0385643Y0314947D01*
X0385643Y0315470D01*
X0385119Y0315993D01*
X0384596Y0315993D01*
X0385119Y0315993D02*
X0385643Y0316517D01*
X0385643Y0317040D01*
X0385119Y0317563D01*
X0384073Y0317563D01*
X0383549Y0317040D01*
X0382017Y0317040D02*
X0382017Y0315993D01*
X0381494Y0315470D01*
X0379924Y0315470D01*
X0379924Y0314424D02*
X0379924Y0317563D01*
X0381494Y0317563D01*
X0382017Y0317040D01*
X0380971Y0315470D02*
X0382017Y0314424D01*
X0382017Y0319148D02*
X0380971Y0320195D01*
X0381494Y0320195D02*
X0379924Y0320195D01*
X0379924Y0319148D02*
X0379924Y0322288D01*
X0381494Y0322288D01*
X0382017Y0321764D01*
X0382017Y0320718D01*
X0381494Y0320195D01*
X0383549Y0319671D02*
X0384073Y0319148D01*
X0385119Y0319148D01*
X0385643Y0319671D01*
X0385643Y0321764D01*
X0385119Y0322288D01*
X0384073Y0322288D01*
X0383549Y0321764D01*
X0383549Y0321241D01*
X0384073Y0320718D01*
X0385643Y0320718D01*
X0372700Y0323346D02*
X0372046Y0322691D01*
X0370736Y0322691D01*
X0370082Y0323346D01*
X0370082Y0324001D01*
X0370736Y0324655D01*
X0372046Y0324655D01*
X0372700Y0324001D01*
X0372700Y0323346D01*
X0372046Y0324655D02*
X0372700Y0325310D01*
X0372700Y0325964D01*
X0372046Y0326619D01*
X0370736Y0326619D01*
X0370082Y0325964D01*
X0370082Y0325310D01*
X0370736Y0324655D01*
X0368350Y0323346D02*
X0367695Y0322691D01*
X0366386Y0322691D01*
X0365732Y0323346D01*
X0365732Y0325964D01*
X0366386Y0326619D01*
X0367695Y0326619D01*
X0368350Y0325964D01*
X0369793Y0332140D02*
X0371103Y0332140D01*
X0370448Y0332140D02*
X0370448Y0336068D01*
X0369793Y0336068D02*
X0371103Y0336068D01*
X0372693Y0335413D02*
X0372693Y0332795D01*
X0373348Y0332140D01*
X0374657Y0332140D01*
X0375312Y0332795D01*
X0377044Y0332795D02*
X0377698Y0332140D01*
X0379008Y0332140D01*
X0379662Y0332795D01*
X0379662Y0333449D01*
X0379008Y0334104D01*
X0378353Y0334104D01*
X0379008Y0334104D02*
X0379662Y0334759D01*
X0379662Y0335413D01*
X0379008Y0336068D01*
X0377698Y0336068D01*
X0377044Y0335413D01*
X0375312Y0335413D02*
X0374657Y0336068D01*
X0373348Y0336068D01*
X0372693Y0335413D01*
X0360102Y0342637D02*
X0359447Y0341983D01*
X0358138Y0341983D01*
X0357483Y0342637D01*
X0357483Y0343947D02*
X0358793Y0344601D01*
X0359447Y0344601D01*
X0360102Y0343947D01*
X0360102Y0342637D01*
X0357483Y0343947D02*
X0357483Y0345910D01*
X0360102Y0345910D01*
X0355752Y0345256D02*
X0355097Y0345910D01*
X0353788Y0345910D01*
X0353133Y0345256D01*
X0353133Y0342637D01*
X0353788Y0341983D01*
X0355097Y0341983D01*
X0355752Y0342637D01*
X0344806Y0344212D02*
X0344806Y0345521D01*
X0344151Y0346176D01*
X0343497Y0346176D01*
X0342187Y0345521D01*
X0342187Y0347485D01*
X0344806Y0347485D01*
X0344806Y0344212D02*
X0344151Y0343557D01*
X0342842Y0343557D01*
X0342187Y0344212D01*
X0340456Y0343557D02*
X0340456Y0347485D01*
X0337837Y0347485D02*
X0340456Y0343557D01*
X0337837Y0343557D02*
X0337837Y0347485D01*
X0336106Y0346831D02*
X0335451Y0347485D01*
X0334142Y0347485D01*
X0333487Y0346831D01*
X0333487Y0344212D01*
X0334142Y0343557D01*
X0335451Y0343557D01*
X0336106Y0344212D01*
X0336106Y0346831D01*
X0331755Y0346831D02*
X0331101Y0347485D01*
X0329791Y0347485D01*
X0329137Y0346831D01*
X0329137Y0344212D01*
X0329791Y0343557D01*
X0331101Y0343557D01*
X0331755Y0344212D01*
X0377559Y0364459D02*
X0378213Y0363804D01*
X0380832Y0363804D01*
X0381486Y0364459D01*
X0381486Y0365768D01*
X0380832Y0366422D01*
X0381486Y0368154D02*
X0381486Y0370773D01*
X0381486Y0369463D02*
X0377559Y0369463D01*
X0378868Y0368154D01*
X0378213Y0366422D02*
X0377559Y0365768D01*
X0377559Y0364459D01*
X0377559Y0372504D02*
X0379523Y0372504D01*
X0378868Y0373813D01*
X0378868Y0374468D01*
X0379523Y0375123D01*
X0380832Y0375123D01*
X0381486Y0374468D01*
X0381486Y0373159D01*
X0380832Y0372504D01*
X0377559Y0372504D02*
X0377559Y0375123D01*
X0384750Y0375834D02*
X0384750Y0369934D01*
X0385930Y0368754D01*
X0388290Y0368754D01*
X0389470Y0369934D01*
X0389470Y0375834D01*
X0392001Y0374654D02*
X0392001Y0373474D01*
X0393181Y0372294D01*
X0395541Y0372294D01*
X0396721Y0371114D01*
X0396721Y0369934D01*
X0395541Y0368754D01*
X0393181Y0368754D01*
X0392001Y0369934D01*
X0392001Y0374654D02*
X0393181Y0375834D01*
X0395541Y0375834D01*
X0396721Y0374654D01*
X0399251Y0375834D02*
X0402791Y0375834D01*
X0403971Y0374654D01*
X0403971Y0373474D01*
X0402791Y0372294D01*
X0399251Y0372294D01*
X0399251Y0368754D02*
X0402791Y0368754D01*
X0403971Y0369934D01*
X0403971Y0371114D01*
X0402791Y0372294D01*
X0406501Y0372294D02*
X0410041Y0375834D01*
X0410041Y0368754D01*
X0413752Y0368754D02*
X0418472Y0373474D01*
X0421002Y0374654D02*
X0422182Y0375834D01*
X0424542Y0375834D01*
X0425722Y0374654D01*
X0425722Y0373474D01*
X0424542Y0372294D01*
X0425722Y0371114D01*
X0425722Y0369934D01*
X0424542Y0368754D01*
X0422182Y0368754D01*
X0421002Y0369934D01*
X0418472Y0368754D02*
X0413752Y0373474D01*
X0411221Y0372294D02*
X0406501Y0372294D01*
X0399251Y0368754D02*
X0399251Y0375834D01*
X0423362Y0372294D02*
X0424542Y0372294D01*
X0428252Y0372294D02*
X0432972Y0372294D01*
X0435502Y0369934D02*
X0436682Y0368754D01*
X0439042Y0368754D01*
X0440222Y0369934D01*
X0440222Y0375834D01*
X0442753Y0375834D02*
X0446293Y0375834D01*
X0447473Y0374654D01*
X0447473Y0373474D01*
X0446293Y0372294D01*
X0442753Y0372294D01*
X0442753Y0368754D02*
X0446293Y0368754D01*
X0447473Y0369934D01*
X0447473Y0371114D01*
X0446293Y0372294D01*
X0442753Y0368754D02*
X0442753Y0375834D01*
X0435502Y0375834D02*
X0435502Y0369934D01*
X0432972Y0368754D02*
X0432972Y0375834D01*
X0428252Y0375834D02*
X0428252Y0368754D01*
X0451305Y0368754D02*
X0451305Y0373474D01*
X0451305Y0371114D02*
X0453665Y0373474D01*
X0454845Y0373474D01*
X0457347Y0374654D02*
X0457347Y0369934D01*
X0462067Y0374654D01*
X0462067Y0369934D01*
X0460887Y0368754D01*
X0458527Y0368754D01*
X0457347Y0369934D01*
X0457023Y0366382D02*
X0457023Y0363243D01*
X0455453Y0363243D01*
X0454930Y0363766D01*
X0454930Y0364812D01*
X0455453Y0365336D01*
X0457023Y0365336D01*
X0458555Y0365336D02*
X0460125Y0365336D01*
X0460648Y0364812D01*
X0460648Y0363766D01*
X0460125Y0363243D01*
X0458555Y0363243D01*
X0458555Y0366382D01*
X0462180Y0364812D02*
X0462180Y0363766D01*
X0462704Y0363243D01*
X0464274Y0363243D01*
X0465806Y0363766D02*
X0467899Y0365859D01*
X0467899Y0363766D01*
X0467375Y0363243D01*
X0466329Y0363243D01*
X0465806Y0363766D01*
X0465806Y0365859D01*
X0466329Y0366382D01*
X0467375Y0366382D01*
X0467899Y0365859D01*
X0469954Y0365336D02*
X0471001Y0365336D01*
X0471524Y0364812D01*
X0471524Y0363243D01*
X0469954Y0363243D01*
X0469431Y0363766D01*
X0469954Y0364289D01*
X0471524Y0364289D01*
X0473056Y0364812D02*
X0474102Y0364812D01*
X0473579Y0365859D02*
X0474102Y0366382D01*
X0473579Y0365859D02*
X0473579Y0363243D01*
X0471762Y0368754D02*
X0469402Y0368754D01*
X0468222Y0369934D01*
X0468222Y0372294D02*
X0470582Y0373474D01*
X0471762Y0373474D01*
X0472942Y0372294D01*
X0472942Y0369934D01*
X0471762Y0368754D01*
X0468222Y0372294D02*
X0468222Y0375834D01*
X0472942Y0375834D01*
X0465777Y0369934D02*
X0465777Y0368754D01*
X0464597Y0368754D01*
X0464597Y0369934D01*
X0465777Y0369934D01*
X0464274Y0365336D02*
X0462704Y0365336D01*
X0462180Y0364812D01*
X0453398Y0364812D02*
X0453398Y0364289D01*
X0451305Y0364289D01*
X0451305Y0363766D02*
X0451305Y0364812D01*
X0451828Y0365336D01*
X0452875Y0365336D01*
X0453398Y0364812D01*
X0452875Y0363243D02*
X0451828Y0363243D01*
X0451305Y0363766D01*
X0457347Y0374654D02*
X0458527Y0375834D01*
X0460887Y0375834D01*
X0462067Y0374654D01*
X0454313Y0402219D02*
X0454313Y0405759D01*
X0453133Y0406939D01*
X0451953Y0405759D01*
X0451953Y0402219D01*
X0449593Y0402219D02*
X0449593Y0406939D01*
X0450773Y0406939D01*
X0451953Y0405759D01*
X0447063Y0405759D02*
X0447063Y0402219D01*
X0444703Y0402219D02*
X0444703Y0405759D01*
X0445883Y0406939D01*
X0447063Y0405759D01*
X0444703Y0405759D02*
X0443523Y0406939D01*
X0442343Y0406939D01*
X0442343Y0402219D01*
X0439813Y0402219D02*
X0435092Y0402219D01*
X0439813Y0406939D01*
X0439813Y0408119D01*
X0438632Y0409299D01*
X0436272Y0409299D01*
X0435092Y0408119D01*
X0432647Y0403399D02*
X0431467Y0403399D01*
X0431467Y0402219D01*
X0432647Y0402219D01*
X0432647Y0403399D01*
X0428937Y0402219D02*
X0424217Y0402219D01*
X0426577Y0402219D02*
X0426577Y0409299D01*
X0424217Y0406939D01*
X0421687Y0406939D02*
X0416967Y0406939D01*
X0416967Y0404579D02*
X0421687Y0404579D01*
X0414493Y0406939D02*
X0412133Y0406939D01*
X0413313Y0408119D02*
X0413313Y0403399D01*
X0414493Y0402219D01*
X0402353Y0403399D02*
X0401173Y0404579D01*
X0398813Y0404579D01*
X0397633Y0405759D01*
X0398813Y0406939D01*
X0402353Y0406939D01*
X0402353Y0403399D02*
X0401173Y0402219D01*
X0397633Y0402219D01*
X0395102Y0403399D02*
X0393922Y0404579D01*
X0391562Y0404579D01*
X0390382Y0405759D01*
X0391562Y0406939D01*
X0395102Y0406939D01*
X0395102Y0403399D02*
X0393922Y0402219D01*
X0390382Y0402219D01*
X0387852Y0404579D02*
X0383132Y0404579D01*
X0383132Y0405759D02*
X0384312Y0406939D01*
X0386672Y0406939D01*
X0387852Y0405759D01*
X0387852Y0404579D01*
X0386672Y0402219D02*
X0384312Y0402219D01*
X0383132Y0403399D01*
X0383132Y0405759D01*
X0380602Y0405759D02*
X0380602Y0402219D01*
X0380602Y0405759D02*
X0379422Y0406939D01*
X0375882Y0406939D01*
X0375882Y0402219D01*
X0373380Y0402219D02*
X0369840Y0404579D01*
X0373380Y0406939D01*
X0369840Y0409299D02*
X0369840Y0402219D01*
X0367310Y0402219D02*
X0363770Y0402219D01*
X0362590Y0403399D01*
X0362590Y0405759D01*
X0363770Y0406939D01*
X0367310Y0406939D01*
X0358936Y0406939D02*
X0358936Y0402219D01*
X0357756Y0402219D02*
X0360116Y0402219D01*
X0358936Y0406939D02*
X0357756Y0406939D01*
X0358936Y0409299D02*
X0358936Y0410479D01*
X0355226Y0405759D02*
X0355226Y0402219D01*
X0355226Y0405759D02*
X0354046Y0406939D01*
X0351686Y0406939D01*
X0350506Y0405759D01*
X0348032Y0406939D02*
X0345672Y0406939D01*
X0346852Y0408119D02*
X0346852Y0403399D01*
X0348032Y0402219D01*
X0350506Y0402219D02*
X0350506Y0409299D01*
X0359163Y0373076D02*
X0360473Y0373076D01*
X0359818Y0373076D02*
X0359818Y0369148D01*
X0359163Y0369148D02*
X0360473Y0369148D01*
X0362064Y0369803D02*
X0362718Y0369148D01*
X0364027Y0369148D01*
X0364682Y0369803D01*
X0366414Y0369803D02*
X0366414Y0369148D01*
X0366414Y0369803D02*
X0369032Y0372421D01*
X0369032Y0373076D01*
X0366414Y0373076D01*
X0364682Y0372421D02*
X0364027Y0373076D01*
X0362718Y0373076D01*
X0362064Y0372421D01*
X0362064Y0369803D01*
X0400171Y0349193D02*
X0400825Y0349847D01*
X0402135Y0349847D01*
X0402789Y0349193D01*
X0404521Y0348538D02*
X0405830Y0349847D01*
X0405830Y0345920D01*
X0404521Y0345920D02*
X0407139Y0345920D01*
X0408871Y0345920D02*
X0411490Y0345920D01*
X0410180Y0345920D02*
X0410180Y0349847D01*
X0408871Y0348538D01*
X0402789Y0346574D02*
X0402135Y0345920D01*
X0400825Y0345920D01*
X0400171Y0346574D01*
X0400171Y0349193D01*
X0388744Y0308114D02*
X0389268Y0307591D01*
X0387175Y0305498D01*
X0387698Y0304975D01*
X0388744Y0304975D01*
X0389268Y0305498D01*
X0389268Y0307591D01*
X0388744Y0308114D02*
X0387698Y0308114D01*
X0387175Y0307591D01*
X0387175Y0305498D01*
X0351709Y0289744D02*
X0351709Y0289089D01*
X0351055Y0288435D01*
X0349745Y0288435D01*
X0349091Y0289089D01*
X0349091Y0289744D01*
X0349745Y0290399D01*
X0351055Y0290399D01*
X0351709Y0289744D01*
X0351055Y0288435D02*
X0351709Y0287780D01*
X0351709Y0287125D01*
X0351055Y0286471D01*
X0349745Y0286471D01*
X0349091Y0287125D01*
X0349091Y0287780D01*
X0349745Y0288435D01*
X0347359Y0289744D02*
X0346705Y0290399D01*
X0345395Y0290399D01*
X0344741Y0289744D01*
X0344741Y0287125D01*
X0345395Y0286471D01*
X0346705Y0286471D01*
X0347359Y0287125D01*
X0343150Y0286471D02*
X0341841Y0286471D01*
X0342495Y0286471D02*
X0342495Y0290399D01*
X0341841Y0290399D02*
X0343150Y0290399D01*
X0344806Y0276619D02*
X0343497Y0275964D01*
X0342187Y0274655D01*
X0344151Y0274655D01*
X0344806Y0274001D01*
X0344806Y0273346D01*
X0344151Y0272691D01*
X0342842Y0272691D01*
X0342187Y0273346D01*
X0342187Y0274655D01*
X0340456Y0272691D02*
X0340456Y0276619D01*
X0337837Y0276619D02*
X0340456Y0272691D01*
X0337837Y0272691D02*
X0337837Y0276619D01*
X0336106Y0275964D02*
X0335451Y0276619D01*
X0334142Y0276619D01*
X0333487Y0275964D01*
X0333487Y0273346D01*
X0334142Y0272691D01*
X0335451Y0272691D01*
X0336106Y0273346D01*
X0336106Y0275964D01*
X0331755Y0275964D02*
X0331101Y0276619D01*
X0329791Y0276619D01*
X0329137Y0275964D01*
X0329137Y0273346D01*
X0329791Y0272691D01*
X0331101Y0272691D01*
X0331755Y0273346D01*
X0353133Y0274390D02*
X0353133Y0271771D01*
X0353788Y0271117D01*
X0355097Y0271117D01*
X0355752Y0271771D01*
X0357483Y0271771D02*
X0358138Y0271117D01*
X0359447Y0271117D01*
X0360102Y0271771D01*
X0360102Y0272426D01*
X0359447Y0273080D01*
X0357483Y0273080D01*
X0357483Y0271771D01*
X0357483Y0273080D02*
X0358793Y0274390D01*
X0360102Y0275044D01*
X0355752Y0274390D02*
X0355097Y0275044D01*
X0353788Y0275044D01*
X0353133Y0274390D01*
D11*
X0300390Y0196701D02*
X0300390Y0147094D01*
X0304327Y0147094D01*
X0317320Y0147094D02*
X0329524Y0147094D01*
X0329524Y0143157D01*
X0339760Y0143157D01*
X0339760Y0154181D01*
X0347241Y0160480D02*
X0344091Y0163630D01*
X0344091Y0181740D01*
X0351178Y0181740D01*
X0356690Y0181740D02*
X0363776Y0181740D01*
X0363776Y0163630D01*
X0360627Y0160480D01*
X0356690Y0160480D01*
X0351178Y0160480D02*
X0347241Y0160480D01*
X0374406Y0162843D02*
X0374800Y0162843D01*
X0374800Y0166780D01*
X0374406Y0166780D01*
X0374800Y0166780D02*
X0375194Y0166780D01*
X0375194Y0167567D02*
X0374800Y0167567D01*
X0374800Y0171504D01*
X0374406Y0171504D01*
X0374800Y0171504D02*
X0375194Y0171504D01*
X0375194Y0172291D02*
X0374800Y0172291D01*
X0374800Y0176228D01*
X0374406Y0176228D01*
X0374800Y0176228D02*
X0375194Y0176228D01*
X0375194Y0177016D02*
X0374800Y0177016D01*
X0374800Y0180953D01*
X0374406Y0180953D01*
X0374800Y0180953D02*
X0375194Y0180953D01*
X0374800Y0177016D02*
X0374406Y0177016D01*
X0374406Y0172291D02*
X0374800Y0172291D01*
X0374800Y0167567D02*
X0374406Y0167567D01*
X0374800Y0162843D02*
X0375194Y0162843D01*
X0380312Y0149063D02*
X0380312Y0141583D01*
X0440942Y0141583D01*
X0440942Y0149063D01*
X0440942Y0146701D01*
X0438579Y0149063D01*
X0440942Y0149063D01*
X0380312Y0149063D01*
X0417320Y0160874D02*
X0425981Y0160874D01*
X0425981Y0181346D01*
X0417320Y0181346D01*
X0419682Y0181346D01*
X0417320Y0178984D01*
X0417320Y0181346D01*
X0417320Y0160874D01*
X0427556Y0160874D02*
X0436217Y0160874D01*
X0436217Y0181346D01*
X0427556Y0181346D01*
X0429918Y0181346D01*
X0427556Y0178984D01*
X0427556Y0181346D01*
X0427556Y0160874D01*
X0438737Y0148905D02*
X0440942Y0148905D01*
X0440942Y0148119D02*
X0439523Y0148119D01*
X0440309Y0147333D02*
X0440942Y0147333D01*
X0451178Y0146307D02*
X0451178Y0145913D01*
X0455115Y0145913D01*
X0455115Y0145520D01*
X0455115Y0145913D02*
X0455115Y0146307D01*
X0451178Y0145913D02*
X0451178Y0145520D01*
X0451178Y0134496D02*
X0451178Y0134102D01*
X0455115Y0134102D01*
X0455115Y0133709D01*
X0455115Y0134102D02*
X0455115Y0134496D01*
X0451178Y0134102D02*
X0451178Y0133709D01*
X0451178Y0122685D02*
X0451178Y0122291D01*
X0455115Y0122291D01*
X0455115Y0121898D01*
X0455115Y0122291D02*
X0455115Y0122685D01*
X0451178Y0122291D02*
X0451178Y0121898D01*
X0492910Y0140008D02*
X0497635Y0140008D01*
X0496619Y0143001D02*
X0497241Y0143291D01*
X0497803Y0143685D01*
X0498288Y0144170D01*
X0498682Y0144732D01*
X0498972Y0145354D01*
X0499149Y0146017D01*
X0499209Y0146701D01*
X0499209Y0149850D01*
X0499149Y0150534D01*
X0498972Y0151197D01*
X0498682Y0151819D01*
X0498288Y0152381D01*
X0497803Y0152866D01*
X0497241Y0153260D01*
X0496619Y0153550D01*
X0495956Y0153728D01*
X0495272Y0153787D01*
X0494589Y0153728D01*
X0493926Y0153550D01*
X0493304Y0153260D01*
X0492742Y0152866D01*
X0492256Y0152381D01*
X0491863Y0151819D01*
X0491573Y0151197D01*
X0491395Y0150534D01*
X0491335Y0149850D01*
X0491335Y0146701D01*
X0491395Y0146017D01*
X0491573Y0145354D01*
X0491863Y0144732D01*
X0492256Y0144170D01*
X0492742Y0143685D01*
X0493304Y0143291D01*
X0493926Y0143001D01*
X0494589Y0142824D01*
X0495272Y0142764D01*
X0495956Y0142824D01*
X0496619Y0143001D01*
X0497402Y0143404D02*
X0493143Y0143404D01*
X0492243Y0144190D02*
X0498302Y0144190D01*
X0498795Y0144976D02*
X0491749Y0144976D01*
X0491464Y0145762D02*
X0499081Y0145762D01*
X0499196Y0146547D02*
X0491349Y0146547D01*
X0491335Y0147333D02*
X0499209Y0147333D01*
X0499209Y0148119D02*
X0491335Y0148119D01*
X0491335Y0148905D02*
X0499209Y0148905D01*
X0499209Y0149691D02*
X0491335Y0149691D01*
X0491390Y0150477D02*
X0499154Y0150477D01*
X0498941Y0151263D02*
X0491604Y0151263D01*
X0492024Y0152049D02*
X0498521Y0152049D01*
X0497835Y0152835D02*
X0492710Y0152835D01*
X0494190Y0153621D02*
X0496355Y0153621D01*
X0497635Y0156543D02*
X0492910Y0156543D01*
X0488973Y0153000D02*
X0488973Y0143551D01*
X0501572Y0143551D02*
X0501572Y0153000D01*
X0507477Y0159693D02*
X0507477Y0163236D01*
X0516138Y0163236D01*
X0510627Y0167567D02*
X0490154Y0167567D01*
X0490154Y0176228D01*
X0510627Y0176228D01*
X0510627Y0173866D01*
X0508264Y0176228D01*
X0510627Y0176228D01*
X0510627Y0167567D01*
X0510627Y0174054D02*
X0510438Y0174054D01*
X0510627Y0174840D02*
X0509652Y0174840D01*
X0508867Y0175626D02*
X0510627Y0175626D01*
X0507477Y0180559D02*
X0516138Y0180559D01*
X0507477Y0180559D02*
X0507477Y0184102D01*
X0501572Y0190795D02*
X0501572Y0200244D01*
X0498682Y0199063D02*
X0498288Y0199625D01*
X0497803Y0200110D01*
X0497241Y0200504D01*
X0496619Y0200794D01*
X0495956Y0200972D01*
X0495272Y0201031D01*
X0494589Y0200972D01*
X0493926Y0200794D01*
X0493304Y0200504D01*
X0492742Y0200110D01*
X0492256Y0199625D01*
X0491863Y0199063D01*
X0491573Y0198441D01*
X0491395Y0197778D01*
X0491335Y0197094D01*
X0491335Y0193945D01*
X0491395Y0193261D01*
X0491573Y0192598D01*
X0491863Y0191976D01*
X0492256Y0191414D01*
X0492742Y0190929D01*
X0493304Y0190535D01*
X0493926Y0190245D01*
X0494589Y0190068D01*
X0495272Y0190008D01*
X0495956Y0190068D01*
X0496619Y0190245D01*
X0497241Y0190535D01*
X0497803Y0190929D01*
X0498288Y0191414D01*
X0498682Y0191976D01*
X0498972Y0192598D01*
X0499149Y0193261D01*
X0499209Y0193945D01*
X0499209Y0197094D01*
X0499149Y0197778D01*
X0498972Y0198441D01*
X0498682Y0199063D01*
X0498583Y0199204D02*
X0491961Y0199204D01*
X0491566Y0198418D02*
X0498978Y0198418D01*
X0499162Y0197632D02*
X0491382Y0197632D01*
X0491335Y0196846D02*
X0499209Y0196846D01*
X0499209Y0196060D02*
X0491335Y0196060D01*
X0491335Y0195274D02*
X0499209Y0195274D01*
X0499209Y0194488D02*
X0491335Y0194488D01*
X0491357Y0193702D02*
X0499188Y0193702D01*
X0499057Y0192916D02*
X0491488Y0192916D01*
X0491791Y0192130D02*
X0498754Y0192130D01*
X0498218Y0191344D02*
X0492326Y0191344D01*
X0493271Y0190559D02*
X0497274Y0190559D01*
X0497635Y0187252D02*
X0492910Y0187252D01*
X0488973Y0190795D02*
X0488973Y0200244D01*
X0492621Y0199990D02*
X0497924Y0199990D01*
X0496659Y0200775D02*
X0493886Y0200775D01*
X0492910Y0203787D02*
X0497635Y0203787D01*
X0507477Y0206937D02*
X0507477Y0210480D01*
X0516138Y0210480D01*
X0511414Y0214811D02*
X0490942Y0214811D01*
X0490942Y0223472D01*
X0511414Y0223472D01*
X0511414Y0221110D01*
X0509052Y0223472D01*
X0511414Y0223472D01*
X0511414Y0214811D01*
X0511315Y0221209D02*
X0511414Y0221209D01*
X0511414Y0221995D02*
X0510529Y0221995D01*
X0509743Y0222781D02*
X0511414Y0222781D01*
X0507477Y0227803D02*
X0516138Y0227803D01*
X0507477Y0227803D02*
X0507477Y0231346D01*
X0501572Y0238039D02*
X0501572Y0247488D01*
X0498682Y0246307D02*
X0498288Y0246869D01*
X0497803Y0247355D01*
X0497241Y0247748D01*
X0496619Y0248038D01*
X0495956Y0248216D01*
X0495272Y0248276D01*
X0494589Y0248216D01*
X0493926Y0248038D01*
X0493304Y0247748D01*
X0492742Y0247355D01*
X0492256Y0246869D01*
X0491863Y0246307D01*
X0491573Y0245685D01*
X0491395Y0245022D01*
X0491335Y0244339D01*
X0491335Y0241189D01*
X0491395Y0240505D01*
X0491573Y0239842D01*
X0491863Y0239220D01*
X0492256Y0238658D01*
X0492742Y0238173D01*
X0493304Y0237779D01*
X0493926Y0237489D01*
X0494589Y0237312D01*
X0495272Y0237252D01*
X0495956Y0237312D01*
X0496619Y0237489D01*
X0497241Y0237779D01*
X0497803Y0238173D01*
X0498288Y0238658D01*
X0498682Y0239220D01*
X0498972Y0239842D01*
X0499149Y0240505D01*
X0499209Y0241189D01*
X0499209Y0244339D01*
X0499149Y0245022D01*
X0498972Y0245685D01*
X0498682Y0246307D01*
X0498646Y0246358D02*
X0491899Y0246358D01*
X0491543Y0245572D02*
X0499002Y0245572D01*
X0499170Y0244787D02*
X0491374Y0244787D01*
X0491335Y0244001D02*
X0499209Y0244001D01*
X0499209Y0243215D02*
X0491335Y0243215D01*
X0491335Y0242429D02*
X0499209Y0242429D01*
X0499209Y0241643D02*
X0491335Y0241643D01*
X0491364Y0240857D02*
X0499180Y0240857D01*
X0499033Y0240071D02*
X0491511Y0240071D01*
X0491833Y0239285D02*
X0498712Y0239285D01*
X0498129Y0238499D02*
X0492415Y0238499D01*
X0493446Y0237713D02*
X0497099Y0237713D01*
X0497635Y0234496D02*
X0492910Y0234496D01*
X0488973Y0238039D02*
X0488973Y0247488D01*
X0485823Y0246701D02*
X0484249Y0245126D01*
X0485823Y0241976D02*
X0485823Y0273866D01*
X0484249Y0275441D01*
X0484249Y0271110D02*
X0485823Y0269535D01*
X0484249Y0266780D02*
X0485823Y0265205D01*
X0484249Y0262449D02*
X0485823Y0260874D01*
X0485823Y0256150D02*
X0484249Y0254575D01*
X0485823Y0251425D02*
X0484249Y0249850D01*
X0479131Y0247882D02*
X0478737Y0247882D01*
X0478737Y0251819D01*
X0478343Y0251819D01*
X0478737Y0251819D02*
X0479131Y0251819D01*
X0479131Y0252606D02*
X0478737Y0252606D01*
X0478737Y0256543D01*
X0478343Y0256543D01*
X0478737Y0256543D02*
X0479131Y0256543D01*
X0478737Y0252606D02*
X0478343Y0252606D01*
X0478343Y0247882D02*
X0478737Y0247882D01*
X0478737Y0247094D02*
X0478737Y0243157D01*
X0478343Y0243157D01*
X0478737Y0243157D02*
X0479131Y0243157D01*
X0479131Y0242370D02*
X0478737Y0242370D01*
X0478737Y0238433D01*
X0478343Y0238433D01*
X0478737Y0238433D02*
X0479131Y0238433D01*
X0479131Y0237646D02*
X0478737Y0237646D01*
X0478737Y0233709D01*
X0478343Y0233709D01*
X0478737Y0233709D02*
X0479131Y0233709D01*
X0479131Y0232921D02*
X0478737Y0232921D01*
X0478737Y0228984D01*
X0478343Y0228984D01*
X0478737Y0228984D02*
X0479131Y0228984D01*
X0478737Y0232921D02*
X0478343Y0232921D01*
X0478343Y0237646D02*
X0478737Y0237646D01*
X0478737Y0242370D02*
X0478343Y0242370D01*
X0478343Y0247094D02*
X0478737Y0247094D01*
X0479131Y0247094D01*
X0485823Y0241976D02*
X0484249Y0240402D01*
X0469288Y0232921D02*
X0468894Y0232921D01*
X0468894Y0228984D01*
X0468501Y0228984D01*
X0468894Y0228984D02*
X0469288Y0228984D01*
X0469288Y0228197D02*
X0468894Y0228197D01*
X0468894Y0224260D01*
X0469288Y0224260D01*
X0468894Y0224260D02*
X0468501Y0224260D01*
X0468501Y0223472D02*
X0468894Y0223472D01*
X0468894Y0219535D01*
X0468501Y0219535D01*
X0468894Y0219535D02*
X0469288Y0219535D01*
X0469288Y0218748D02*
X0468894Y0218748D01*
X0468894Y0214811D01*
X0469288Y0214811D01*
X0468894Y0214811D02*
X0468501Y0214811D01*
X0468501Y0214024D02*
X0468894Y0214024D01*
X0468894Y0210087D01*
X0468501Y0210087D01*
X0468894Y0210087D02*
X0469288Y0210087D01*
X0469288Y0209299D02*
X0468894Y0209299D01*
X0468894Y0205362D01*
X0469288Y0205362D01*
X0468894Y0205362D02*
X0468501Y0205362D01*
X0468501Y0204575D02*
X0468894Y0204575D01*
X0468894Y0200638D01*
X0468501Y0200638D01*
X0468894Y0200638D02*
X0469288Y0200638D01*
X0469288Y0199850D02*
X0468894Y0199850D01*
X0468894Y0195913D01*
X0469288Y0195913D01*
X0468894Y0195913D02*
X0468501Y0195913D01*
X0468501Y0199850D02*
X0468894Y0199850D01*
X0468894Y0204575D02*
X0469288Y0204575D01*
X0468894Y0209299D02*
X0468501Y0209299D01*
X0468894Y0214024D02*
X0469288Y0214024D01*
X0468894Y0218748D02*
X0468501Y0218748D01*
X0468894Y0223472D02*
X0469288Y0223472D01*
X0468894Y0228197D02*
X0468501Y0228197D01*
X0468501Y0232921D02*
X0468894Y0232921D01*
X0467516Y0241780D02*
X0467516Y0242961D01*
X0467516Y0241780D02*
X0466335Y0241780D01*
X0457280Y0241780D02*
X0456099Y0241780D01*
X0456099Y0242961D01*
X0453934Y0241583D02*
X0453934Y0241189D01*
X0449997Y0241189D01*
X0449997Y0240795D01*
X0449997Y0241189D02*
X0449997Y0241583D01*
X0453934Y0241189D02*
X0453934Y0240795D01*
X0432280Y0241189D02*
X0431886Y0241189D01*
X0431886Y0237252D01*
X0432280Y0237252D01*
X0431886Y0237252D02*
X0431493Y0237252D01*
X0431493Y0241189D02*
X0431886Y0241189D01*
X0431886Y0241976D02*
X0431886Y0245913D01*
X0432280Y0245913D01*
X0431886Y0245913D02*
X0431493Y0245913D01*
X0431493Y0246701D02*
X0431886Y0246701D01*
X0431886Y0250638D01*
X0432280Y0250638D01*
X0431886Y0250638D02*
X0431493Y0250638D01*
X0431493Y0251425D02*
X0431886Y0251425D01*
X0431886Y0255362D01*
X0432280Y0255362D01*
X0431886Y0255362D02*
X0431493Y0255362D01*
X0431493Y0256150D02*
X0431886Y0256150D01*
X0432280Y0256150D01*
X0432280Y0260087D02*
X0431886Y0260087D01*
X0431493Y0260087D01*
X0431886Y0251425D02*
X0432280Y0251425D01*
X0432280Y0246701D02*
X0431886Y0246701D01*
X0431886Y0241976D02*
X0432280Y0241976D01*
X0431886Y0241976D02*
X0431493Y0241976D01*
X0431493Y0231740D02*
X0431886Y0231740D01*
X0431886Y0227803D01*
X0431493Y0227803D01*
X0431886Y0227803D02*
X0432280Y0227803D01*
X0432280Y0231740D02*
X0431886Y0231740D01*
X0419288Y0230165D02*
X0418894Y0229772D01*
X0422831Y0223079D02*
X0426768Y0223079D01*
X0426768Y0219929D01*
X0422831Y0219929D01*
X0422831Y0223079D01*
X0416926Y0218748D02*
X0416926Y0218354D01*
X0416926Y0217961D01*
X0412989Y0217961D02*
X0412989Y0218354D01*
X0412989Y0218748D01*
X0409839Y0217961D02*
X0409839Y0221898D01*
X0406690Y0221898D01*
X0406690Y0217961D01*
X0409839Y0217961D01*
X0414170Y0212055D02*
X0416138Y0212055D01*
X0416138Y0210087D01*
X0413776Y0206346D02*
X0413776Y0205165D01*
X0416138Y0201425D02*
X0416138Y0199457D01*
X0414170Y0199457D01*
X0409642Y0201819D02*
X0407674Y0201819D01*
X0408264Y0198669D02*
X0408658Y0198669D01*
X0409052Y0198669D01*
X0409052Y0194732D02*
X0408658Y0194732D01*
X0408264Y0194732D01*
X0403146Y0199457D02*
X0401178Y0199457D01*
X0401178Y0201425D01*
X0399603Y0198276D02*
X0399605Y0198315D01*
X0399611Y0198354D01*
X0399621Y0198392D01*
X0399634Y0198429D01*
X0399651Y0198464D01*
X0399671Y0198498D01*
X0399695Y0198529D01*
X0399722Y0198558D01*
X0399751Y0198584D01*
X0399783Y0198607D01*
X0399817Y0198627D01*
X0399853Y0198643D01*
X0399890Y0198655D01*
X0399929Y0198664D01*
X0399968Y0198669D01*
X0400007Y0198670D01*
X0400046Y0198667D01*
X0400085Y0198660D01*
X0400122Y0198649D01*
X0400159Y0198635D01*
X0400194Y0198617D01*
X0400227Y0198596D01*
X0400258Y0198571D01*
X0400286Y0198544D01*
X0400311Y0198514D01*
X0400333Y0198481D01*
X0400352Y0198447D01*
X0400367Y0198411D01*
X0400379Y0198373D01*
X0400387Y0198335D01*
X0400391Y0198296D01*
X0400391Y0198256D01*
X0400387Y0198217D01*
X0400379Y0198179D01*
X0400367Y0198141D01*
X0400352Y0198105D01*
X0400333Y0198071D01*
X0400311Y0198038D01*
X0400286Y0198008D01*
X0400258Y0197981D01*
X0400227Y0197956D01*
X0400194Y0197935D01*
X0400159Y0197917D01*
X0400122Y0197903D01*
X0400085Y0197892D01*
X0400046Y0197885D01*
X0400007Y0197882D01*
X0399968Y0197883D01*
X0399929Y0197888D01*
X0399890Y0197897D01*
X0399853Y0197909D01*
X0399817Y0197925D01*
X0399783Y0197945D01*
X0399751Y0197968D01*
X0399722Y0197994D01*
X0399695Y0198023D01*
X0399671Y0198054D01*
X0399651Y0198088D01*
X0399634Y0198123D01*
X0399621Y0198160D01*
X0399611Y0198198D01*
X0399605Y0198237D01*
X0399603Y0198276D01*
X0400390Y0205362D02*
X0400390Y0205756D01*
X0396453Y0205756D01*
X0396453Y0205362D01*
X0396453Y0205756D02*
X0396453Y0206150D01*
X0400390Y0206150D02*
X0400390Y0205756D01*
X0403540Y0205165D02*
X0403540Y0206346D01*
X0401178Y0210087D02*
X0401178Y0212055D01*
X0403146Y0212055D01*
X0407674Y0209693D02*
X0409642Y0209693D01*
X0401178Y0217961D02*
X0401178Y0218354D01*
X0401178Y0218748D01*
X0397241Y0218748D02*
X0397241Y0218354D01*
X0397241Y0217961D01*
X0392910Y0218748D02*
X0392516Y0218748D01*
X0392516Y0222685D01*
X0392123Y0222685D01*
X0392516Y0222685D02*
X0392910Y0222685D01*
X0392516Y0218748D02*
X0392123Y0218748D01*
X0381886Y0214417D02*
X0381886Y0212055D01*
X0377162Y0212055D02*
X0377162Y0214417D01*
X0372831Y0210874D02*
X0372831Y0209299D01*
X0356296Y0209299D01*
X0356296Y0210874D01*
X0367713Y0204575D02*
X0370075Y0204575D01*
X0370075Y0199850D02*
X0367713Y0199850D01*
X0362989Y0197094D02*
X0361414Y0197094D01*
X0361020Y0196701D01*
X0359446Y0196701D01*
X0359052Y0197094D01*
X0357477Y0197094D01*
X0357477Y0187646D01*
X0362989Y0187646D01*
X0362989Y0197094D01*
X0356099Y0198945D02*
X0352516Y0198945D01*
X0339760Y0200638D02*
X0339760Y0189614D01*
X0329131Y0196701D02*
X0329131Y0200638D01*
X0339760Y0200638D01*
X0329131Y0196701D02*
X0317320Y0196701D01*
X0304327Y0196701D02*
X0300390Y0196701D01*
X0329524Y0214024D02*
X0329524Y0217961D01*
X0317320Y0217961D01*
X0329524Y0214024D02*
X0339760Y0214024D01*
X0339760Y0225047D01*
X0347241Y0231346D02*
X0344091Y0234496D01*
X0344091Y0252606D01*
X0351178Y0252606D01*
X0356690Y0252606D02*
X0363776Y0252606D01*
X0363776Y0234496D01*
X0360627Y0231346D01*
X0356690Y0231346D01*
X0351178Y0231346D02*
X0347241Y0231346D01*
X0356296Y0225835D02*
X0356296Y0224260D01*
X0356296Y0225835D02*
X0372831Y0225835D01*
X0372831Y0224260D01*
X0374406Y0233709D02*
X0374800Y0233709D01*
X0374800Y0237646D01*
X0375194Y0237646D01*
X0374800Y0237646D02*
X0374406Y0237646D01*
X0374406Y0238433D02*
X0374800Y0238433D01*
X0374800Y0242370D01*
X0374406Y0242370D01*
X0374800Y0242370D02*
X0375194Y0242370D01*
X0375194Y0243157D02*
X0374800Y0243157D01*
X0374800Y0247094D01*
X0374406Y0247094D01*
X0374800Y0247094D02*
X0375194Y0247094D01*
X0375194Y0247882D02*
X0374800Y0247882D01*
X0374800Y0251819D01*
X0375194Y0251819D01*
X0374800Y0251819D02*
X0374406Y0251819D01*
X0374406Y0247882D02*
X0374800Y0247882D01*
X0374800Y0243157D02*
X0374406Y0243157D01*
X0374800Y0238433D02*
X0375194Y0238433D01*
X0375194Y0233709D02*
X0374800Y0233709D01*
X0379524Y0235677D02*
X0382674Y0235677D01*
X0384249Y0237252D01*
X0384249Y0241976D01*
X0382674Y0240402D01*
X0379524Y0240402D01*
X0379524Y0245126D02*
X0382674Y0245126D01*
X0384249Y0246701D01*
X0384249Y0251425D01*
X0382674Y0249850D01*
X0379524Y0249850D01*
X0384249Y0251425D02*
X0384249Y0254969D01*
X0384249Y0246701D02*
X0384249Y0241976D01*
X0393304Y0255362D02*
X0393698Y0255756D01*
X0418894Y0255756D02*
X0419288Y0255362D01*
X0414957Y0271110D02*
X0414957Y0271504D01*
X0411020Y0271504D01*
X0411020Y0271110D01*
X0411020Y0271504D02*
X0411020Y0271898D01*
X0414957Y0271898D02*
X0414957Y0271504D01*
X0403540Y0271504D02*
X0399603Y0271504D01*
X0399603Y0271110D01*
X0399603Y0271504D02*
X0399603Y0271898D01*
X0403540Y0271898D02*
X0403540Y0271504D01*
X0403540Y0271110D01*
X0381886Y0282921D02*
X0381886Y0285283D01*
X0377162Y0285283D02*
X0377162Y0282921D01*
X0372831Y0281740D02*
X0372831Y0280165D01*
X0356296Y0280165D01*
X0356296Y0281740D01*
X0367713Y0275441D02*
X0370075Y0275441D01*
X0370075Y0270717D02*
X0367713Y0270717D01*
X0362989Y0267961D02*
X0361414Y0267961D01*
X0361020Y0267567D01*
X0359446Y0267567D01*
X0359052Y0267961D01*
X0357477Y0267961D01*
X0357477Y0258512D01*
X0362989Y0258512D01*
X0362989Y0267961D01*
X0356099Y0269811D02*
X0352516Y0269811D01*
X0339760Y0271504D02*
X0339760Y0260480D01*
X0329131Y0267567D02*
X0317320Y0267567D01*
X0329131Y0267567D02*
X0329131Y0271504D01*
X0339760Y0271504D01*
X0339760Y0284890D02*
X0329524Y0284890D01*
X0329524Y0288827D01*
X0317320Y0288827D01*
X0304327Y0288827D02*
X0300390Y0288827D01*
X0300390Y0338433D01*
X0304327Y0338433D01*
X0317320Y0338433D02*
X0329131Y0338433D01*
X0329131Y0342370D01*
X0339760Y0342370D01*
X0339760Y0331346D01*
X0344091Y0323472D02*
X0344091Y0305362D01*
X0347241Y0302213D01*
X0351178Y0302213D01*
X0356690Y0302213D02*
X0360627Y0302213D01*
X0363776Y0305362D01*
X0363776Y0323472D01*
X0356690Y0323472D01*
X0351178Y0323472D02*
X0344091Y0323472D01*
X0357477Y0329378D02*
X0357477Y0338827D01*
X0359052Y0338827D01*
X0359446Y0338433D01*
X0361020Y0338433D01*
X0361414Y0338827D01*
X0362989Y0338827D01*
X0362989Y0329378D01*
X0357477Y0329378D01*
X0374406Y0322685D02*
X0374800Y0322685D01*
X0374800Y0318748D01*
X0375194Y0318748D01*
X0374800Y0318748D02*
X0374406Y0318748D01*
X0374406Y0317961D02*
X0374800Y0317961D01*
X0374800Y0314024D01*
X0374406Y0314024D01*
X0374800Y0314024D02*
X0375194Y0314024D01*
X0375194Y0313236D02*
X0374800Y0313236D01*
X0374800Y0309299D01*
X0374406Y0309299D01*
X0374800Y0309299D02*
X0375194Y0309299D01*
X0375194Y0308512D02*
X0374800Y0308512D01*
X0374800Y0304575D01*
X0375194Y0304575D01*
X0374800Y0304575D02*
X0374406Y0304575D01*
X0374406Y0308512D02*
X0374800Y0308512D01*
X0374800Y0313236D02*
X0374406Y0313236D01*
X0374800Y0317961D02*
X0375194Y0317961D01*
X0375194Y0322685D02*
X0374800Y0322685D01*
X0370075Y0341583D02*
X0367713Y0341583D01*
X0367713Y0346307D02*
X0370075Y0346307D01*
X0373225Y0349457D02*
X0373227Y0349526D01*
X0373233Y0349594D01*
X0373243Y0349662D01*
X0373257Y0349729D01*
X0373275Y0349796D01*
X0373296Y0349861D01*
X0373322Y0349925D01*
X0373351Y0349987D01*
X0373383Y0350047D01*
X0373419Y0350106D01*
X0373459Y0350162D01*
X0373501Y0350216D01*
X0373547Y0350267D01*
X0373596Y0350316D01*
X0373647Y0350362D01*
X0373701Y0350404D01*
X0373757Y0350444D01*
X0373815Y0350480D01*
X0373876Y0350512D01*
X0373938Y0350541D01*
X0374002Y0350567D01*
X0374067Y0350588D01*
X0374134Y0350606D01*
X0374201Y0350620D01*
X0374269Y0350630D01*
X0374337Y0350636D01*
X0374406Y0350638D01*
X0374475Y0350636D01*
X0374543Y0350630D01*
X0374611Y0350620D01*
X0374678Y0350606D01*
X0374745Y0350588D01*
X0374810Y0350567D01*
X0374874Y0350541D01*
X0374936Y0350512D01*
X0374996Y0350480D01*
X0375055Y0350444D01*
X0375111Y0350404D01*
X0375165Y0350362D01*
X0375216Y0350316D01*
X0375265Y0350267D01*
X0375311Y0350216D01*
X0375353Y0350162D01*
X0375393Y0350106D01*
X0375429Y0350047D01*
X0375461Y0349987D01*
X0375490Y0349925D01*
X0375516Y0349861D01*
X0375537Y0349796D01*
X0375555Y0349729D01*
X0375569Y0349662D01*
X0375579Y0349594D01*
X0375585Y0349526D01*
X0375587Y0349457D01*
X0375585Y0349388D01*
X0375579Y0349320D01*
X0375569Y0349252D01*
X0375555Y0349185D01*
X0375537Y0349118D01*
X0375516Y0349053D01*
X0375490Y0348989D01*
X0375461Y0348927D01*
X0375429Y0348866D01*
X0375393Y0348808D01*
X0375353Y0348752D01*
X0375311Y0348698D01*
X0375265Y0348647D01*
X0375216Y0348598D01*
X0375165Y0348552D01*
X0375111Y0348510D01*
X0375055Y0348470D01*
X0374997Y0348434D01*
X0374936Y0348402D01*
X0374874Y0348373D01*
X0374810Y0348347D01*
X0374745Y0348326D01*
X0374678Y0348308D01*
X0374611Y0348294D01*
X0374543Y0348284D01*
X0374475Y0348278D01*
X0374406Y0348276D01*
X0374337Y0348278D01*
X0374269Y0348284D01*
X0374201Y0348294D01*
X0374134Y0348308D01*
X0374067Y0348326D01*
X0374002Y0348347D01*
X0373938Y0348373D01*
X0373876Y0348402D01*
X0373815Y0348434D01*
X0373757Y0348470D01*
X0373701Y0348510D01*
X0373647Y0348552D01*
X0373596Y0348598D01*
X0373547Y0348647D01*
X0373501Y0348698D01*
X0373459Y0348752D01*
X0373419Y0348808D01*
X0373383Y0348866D01*
X0373351Y0348927D01*
X0373322Y0348989D01*
X0373296Y0349053D01*
X0373275Y0349118D01*
X0373257Y0349185D01*
X0373243Y0349252D01*
X0373233Y0349320D01*
X0373227Y0349388D01*
X0373225Y0349457D01*
X0372831Y0351031D02*
X0356296Y0351031D01*
X0356296Y0352606D01*
X0348422Y0359693D02*
X0348422Y0369142D01*
X0331886Y0369142D01*
X0331886Y0359693D01*
X0348422Y0359693D01*
X0356296Y0365992D02*
X0356296Y0367567D01*
X0372831Y0367567D01*
X0372831Y0365992D01*
X0377162Y0356150D02*
X0377162Y0353787D01*
X0372831Y0352606D02*
X0372831Y0351031D01*
X0381886Y0353787D02*
X0381886Y0356150D01*
X0356099Y0340677D02*
X0352516Y0340677D01*
X0413383Y0340008D02*
X0418501Y0334890D01*
X0423619Y0334890D01*
X0429131Y0334890D02*
X0434249Y0334890D01*
X0439367Y0340008D01*
X0439367Y0360874D01*
X0429131Y0360874D01*
X0423619Y0360874D02*
X0413383Y0360874D01*
X0413383Y0340008D01*
X0437792Y0321504D02*
X0440154Y0321504D01*
X0440154Y0316780D02*
X0437792Y0316780D01*
X0441335Y0311268D02*
X0442910Y0311268D01*
X0442910Y0294732D01*
X0441335Y0294732D01*
X0442123Y0290795D02*
X0439760Y0290795D01*
X0439760Y0286071D02*
X0442123Y0286071D01*
X0427949Y0294732D02*
X0426375Y0294732D01*
X0426375Y0311268D01*
X0427949Y0311268D01*
X0443304Y0312843D02*
X0443306Y0312912D01*
X0443312Y0312980D01*
X0443322Y0313048D01*
X0443336Y0313115D01*
X0443354Y0313182D01*
X0443375Y0313247D01*
X0443401Y0313311D01*
X0443430Y0313373D01*
X0443462Y0313433D01*
X0443498Y0313492D01*
X0443538Y0313548D01*
X0443580Y0313602D01*
X0443626Y0313653D01*
X0443675Y0313702D01*
X0443726Y0313748D01*
X0443780Y0313790D01*
X0443836Y0313830D01*
X0443894Y0313866D01*
X0443955Y0313898D01*
X0444017Y0313927D01*
X0444081Y0313953D01*
X0444146Y0313974D01*
X0444213Y0313992D01*
X0444280Y0314006D01*
X0444348Y0314016D01*
X0444416Y0314022D01*
X0444485Y0314024D01*
X0444554Y0314022D01*
X0444622Y0314016D01*
X0444690Y0314006D01*
X0444757Y0313992D01*
X0444824Y0313974D01*
X0444889Y0313953D01*
X0444953Y0313927D01*
X0445015Y0313898D01*
X0445075Y0313866D01*
X0445134Y0313830D01*
X0445190Y0313790D01*
X0445244Y0313748D01*
X0445295Y0313702D01*
X0445344Y0313653D01*
X0445390Y0313602D01*
X0445432Y0313548D01*
X0445472Y0313492D01*
X0445508Y0313433D01*
X0445540Y0313373D01*
X0445569Y0313311D01*
X0445595Y0313247D01*
X0445616Y0313182D01*
X0445634Y0313115D01*
X0445648Y0313048D01*
X0445658Y0312980D01*
X0445664Y0312912D01*
X0445666Y0312843D01*
X0445664Y0312774D01*
X0445658Y0312706D01*
X0445648Y0312638D01*
X0445634Y0312571D01*
X0445616Y0312504D01*
X0445595Y0312439D01*
X0445569Y0312375D01*
X0445540Y0312313D01*
X0445508Y0312252D01*
X0445472Y0312194D01*
X0445432Y0312138D01*
X0445390Y0312084D01*
X0445344Y0312033D01*
X0445295Y0311984D01*
X0445244Y0311938D01*
X0445190Y0311896D01*
X0445134Y0311856D01*
X0445076Y0311820D01*
X0445015Y0311788D01*
X0444953Y0311759D01*
X0444889Y0311733D01*
X0444824Y0311712D01*
X0444757Y0311694D01*
X0444690Y0311680D01*
X0444622Y0311670D01*
X0444554Y0311664D01*
X0444485Y0311662D01*
X0444416Y0311664D01*
X0444348Y0311670D01*
X0444280Y0311680D01*
X0444213Y0311694D01*
X0444146Y0311712D01*
X0444081Y0311733D01*
X0444017Y0311759D01*
X0443955Y0311788D01*
X0443894Y0311820D01*
X0443836Y0311856D01*
X0443780Y0311896D01*
X0443726Y0311938D01*
X0443675Y0311984D01*
X0443626Y0312033D01*
X0443580Y0312084D01*
X0443538Y0312138D01*
X0443498Y0312194D01*
X0443462Y0312252D01*
X0443430Y0312313D01*
X0443401Y0312375D01*
X0443375Y0312439D01*
X0443354Y0312504D01*
X0443336Y0312571D01*
X0443322Y0312638D01*
X0443312Y0312706D01*
X0443306Y0312774D01*
X0443304Y0312843D01*
X0470469Y0319535D02*
X0470469Y0326228D01*
X0470469Y0319535D02*
X0526768Y0319535D01*
X0526768Y0354969D01*
X0495272Y0354969D01*
X0473619Y0354969D02*
X0470469Y0354969D01*
X0470469Y0348276D01*
X0474012Y0367567D02*
X0449997Y0367567D01*
X0449997Y0377016D01*
X0474012Y0377016D01*
X0474012Y0367567D01*
X0490942Y0317961D02*
X0490942Y0309299D01*
X0511414Y0309299D01*
X0511414Y0317961D01*
X0511414Y0315598D01*
X0509052Y0317961D01*
X0511414Y0317961D01*
X0490942Y0317961D01*
X0509136Y0317876D02*
X0511414Y0317876D01*
X0511414Y0317091D02*
X0509922Y0317091D01*
X0510708Y0316305D02*
X0511414Y0316305D01*
X0507477Y0304969D02*
X0516138Y0304969D01*
X0507477Y0304969D02*
X0507477Y0301425D01*
X0497635Y0298276D02*
X0492910Y0298276D01*
X0493926Y0295282D02*
X0494589Y0295460D01*
X0495272Y0295520D01*
X0495956Y0295460D01*
X0496619Y0295282D01*
X0497241Y0294992D01*
X0497803Y0294599D01*
X0498288Y0294113D01*
X0498682Y0293551D01*
X0498972Y0292929D01*
X0499149Y0292266D01*
X0499209Y0291583D01*
X0499209Y0288433D01*
X0499149Y0287749D01*
X0498972Y0287087D01*
X0498682Y0286465D01*
X0498288Y0285902D01*
X0497803Y0285417D01*
X0497241Y0285024D01*
X0496619Y0284733D01*
X0495956Y0284556D01*
X0495272Y0284496D01*
X0494589Y0284556D01*
X0493926Y0284733D01*
X0493304Y0285024D01*
X0492742Y0285417D01*
X0492256Y0285902D01*
X0491863Y0286465D01*
X0491573Y0287087D01*
X0491395Y0287749D01*
X0491335Y0288433D01*
X0491335Y0291583D01*
X0491395Y0292266D01*
X0491573Y0292929D01*
X0491863Y0293551D01*
X0492256Y0294113D01*
X0492742Y0294599D01*
X0493304Y0294992D01*
X0493926Y0295282D01*
X0493503Y0295085D02*
X0497042Y0295085D01*
X0498102Y0294299D02*
X0492442Y0294299D01*
X0491845Y0293513D02*
X0498700Y0293513D01*
X0499026Y0292727D02*
X0491519Y0292727D01*
X0491367Y0291941D02*
X0499178Y0291941D01*
X0499209Y0291155D02*
X0491335Y0291155D01*
X0491335Y0290370D02*
X0499209Y0290370D01*
X0499209Y0289584D02*
X0491335Y0289584D01*
X0491335Y0288798D02*
X0499209Y0288798D01*
X0499172Y0288012D02*
X0491372Y0288012D01*
X0491535Y0287226D02*
X0499009Y0287226D01*
X0498665Y0286440D02*
X0491880Y0286440D01*
X0492505Y0285654D02*
X0498040Y0285654D01*
X0496908Y0284868D02*
X0493637Y0284868D01*
X0492910Y0281740D02*
X0497635Y0281740D01*
X0501572Y0285283D02*
X0501572Y0294732D01*
X0488973Y0294732D02*
X0488973Y0285283D01*
X0490942Y0270717D02*
X0490942Y0262055D01*
X0511414Y0262055D01*
X0511414Y0270717D01*
X0511414Y0268354D01*
X0509052Y0270717D01*
X0511414Y0270717D01*
X0490942Y0270717D01*
X0507477Y0275047D02*
X0516138Y0275047D01*
X0511414Y0269936D02*
X0509833Y0269936D01*
X0510619Y0269150D02*
X0511414Y0269150D01*
X0511404Y0268364D02*
X0511414Y0268364D01*
X0507477Y0275047D02*
X0507477Y0278591D01*
X0525981Y0275047D02*
X0526768Y0275047D01*
X0526768Y0304969D01*
X0525981Y0304969D01*
X0538579Y0304181D02*
X0538579Y0275835D01*
X0554721Y0275835D01*
X0549997Y0270717D02*
X0570469Y0270717D01*
X0570469Y0262055D01*
X0549997Y0262055D01*
X0549997Y0264417D01*
X0552359Y0262055D01*
X0549997Y0262055D01*
X0549997Y0270717D01*
X0566138Y0275835D02*
X0566138Y0304181D01*
X0570469Y0309299D02*
X0549997Y0309299D01*
X0549997Y0311661D01*
X0552359Y0309299D01*
X0549997Y0309299D01*
X0549997Y0317961D01*
X0570469Y0317961D01*
X0570469Y0309299D01*
X0554721Y0304181D02*
X0538579Y0304181D01*
X0549997Y0310017D02*
X0551641Y0310017D01*
X0550855Y0310803D02*
X0549997Y0310803D01*
X0549997Y0311589D02*
X0550069Y0311589D01*
X0549997Y0263648D02*
X0550766Y0263648D01*
X0549997Y0262863D02*
X0551551Y0262863D01*
X0552337Y0262077D02*
X0549997Y0262077D01*
X0554721Y0256937D02*
X0538579Y0256937D01*
X0538579Y0228591D01*
X0554721Y0228591D01*
X0549997Y0223472D02*
X0570469Y0223472D01*
X0570469Y0214811D01*
X0549997Y0214811D01*
X0549997Y0217173D01*
X0552359Y0214811D01*
X0549997Y0214811D01*
X0549997Y0223472D01*
X0566138Y0228591D02*
X0566138Y0256937D01*
X0526768Y0257724D02*
X0525981Y0257724D01*
X0526768Y0257724D02*
X0526768Y0227803D01*
X0525981Y0227803D01*
X0549997Y0216494D02*
X0550676Y0216494D01*
X0549997Y0215708D02*
X0551462Y0215708D01*
X0552248Y0214922D02*
X0549997Y0214922D01*
X0554721Y0209693D02*
X0538579Y0209693D01*
X0538579Y0181346D01*
X0554721Y0181346D01*
X0549997Y0176228D02*
X0570469Y0176228D01*
X0570469Y0167567D01*
X0549997Y0167567D01*
X0549997Y0169929D01*
X0552359Y0167567D01*
X0549997Y0167567D01*
X0549997Y0176228D01*
X0549997Y0169339D02*
X0550587Y0169339D01*
X0549997Y0168553D02*
X0551373Y0168553D01*
X0552159Y0167767D02*
X0549997Y0167767D01*
X0554721Y0162449D02*
X0538579Y0162449D01*
X0538579Y0134102D01*
X0554721Y0134102D01*
X0566138Y0134102D02*
X0566138Y0162449D01*
X0566138Y0181346D02*
X0566138Y0209693D01*
X0526768Y0210480D02*
X0525981Y0210480D01*
X0526768Y0210480D02*
X0526768Y0180559D01*
X0525981Y0180559D01*
X0525981Y0163236D02*
X0526768Y0163236D01*
X0526768Y0133315D01*
X0525981Y0133315D01*
X0516138Y0133315D02*
X0507477Y0133315D01*
X0507477Y0136858D01*
X0465351Y0165205D02*
X0462201Y0165205D01*
X0459839Y0163630D01*
X0459839Y0164024D01*
X0461414Y0165205D01*
X0459839Y0166386D01*
X0459839Y0164024D01*
X0461414Y0165205D02*
X0462201Y0165205D01*
X0459839Y0166780D01*
X0459839Y0166386D01*
X0461414Y0165205D02*
X0456690Y0165205D01*
X0462201Y0165205D02*
X0462201Y0167567D01*
X0463383Y0165992D02*
X0464170Y0166780D01*
X0464564Y0166386D01*
X0465745Y0167567D01*
X0465745Y0166780D01*
X0464957Y0167567D01*
X0465745Y0167567D01*
X0462201Y0165205D02*
X0462201Y0162843D01*
X0455115Y0158118D02*
X0455115Y0157724D01*
X0451178Y0157724D01*
X0451178Y0157331D01*
X0451178Y0157724D02*
X0451178Y0158118D01*
X0455115Y0157724D02*
X0455115Y0157331D01*
X0457083Y0174654D02*
X0457083Y0186465D01*
X0457871Y0186465D01*
X0454721Y0185677D02*
X0450784Y0185677D01*
X0450784Y0188827D01*
X0454721Y0188827D01*
X0454721Y0185677D01*
X0462201Y0191583D02*
X0462595Y0191583D01*
X0462595Y0195520D01*
X0462989Y0195520D01*
X0462595Y0195520D02*
X0462201Y0195520D01*
X0462595Y0191583D02*
X0462989Y0191583D01*
X0468894Y0186465D02*
X0469682Y0186465D01*
X0469682Y0174654D01*
X0468894Y0174654D01*
X0457871Y0174654D02*
X0457083Y0174654D01*
X0429699Y0181128D02*
X0427556Y0181128D01*
X0427556Y0180342D02*
X0428913Y0180342D01*
X0428127Y0179556D02*
X0427556Y0179556D01*
X0426375Y0186858D02*
X0426375Y0187252D01*
X0430312Y0187252D01*
X0430312Y0186858D01*
X0430312Y0187252D02*
X0430312Y0187646D01*
X0426375Y0187646D02*
X0426375Y0187252D01*
X0424012Y0187252D02*
X0420075Y0187252D01*
X0420075Y0186858D01*
X0420075Y0187252D02*
X0420075Y0187646D01*
X0424012Y0187646D02*
X0424012Y0187252D01*
X0424012Y0186858D01*
X0419463Y0181128D02*
X0417320Y0181128D01*
X0417320Y0180342D02*
X0418677Y0180342D01*
X0417891Y0179556D02*
X0417320Y0179556D01*
X0409052Y0184890D02*
X0409052Y0185283D01*
X0409052Y0185677D01*
X0405115Y0185677D02*
X0405115Y0185283D01*
X0405115Y0184890D01*
X0404327Y0184890D02*
X0404327Y0185283D01*
X0404327Y0185677D01*
X0400390Y0185677D02*
X0400390Y0185283D01*
X0400390Y0184890D01*
X0399603Y0184890D02*
X0399603Y0185283D01*
X0399603Y0185677D01*
X0395666Y0185677D02*
X0395666Y0185283D01*
X0395666Y0184890D01*
X0394879Y0184890D02*
X0394879Y0185283D01*
X0394879Y0185677D01*
X0390942Y0185677D02*
X0390942Y0185283D01*
X0390942Y0184890D01*
X0390154Y0184890D02*
X0390154Y0185283D01*
X0386217Y0185283D01*
X0386217Y0184890D01*
X0386217Y0185283D02*
X0386217Y0185677D01*
X0390154Y0185677D02*
X0390154Y0185283D01*
X0430705Y0199457D02*
X0431099Y0199457D01*
X0431493Y0199457D01*
X0431493Y0203394D02*
X0431099Y0203394D01*
X0430705Y0203394D01*
X0430705Y0204181D02*
X0431099Y0204181D01*
X0431493Y0204181D01*
X0431493Y0208118D02*
X0431099Y0208118D01*
X0430705Y0208118D01*
X0436611Y0210087D02*
X0436611Y0196701D01*
X0456296Y0196701D02*
X0456296Y0210087D01*
X0450784Y0219142D02*
X0450390Y0219142D01*
X0450390Y0223079D01*
X0449997Y0223079D01*
X0450390Y0223079D02*
X0450784Y0223079D01*
X0450390Y0219142D02*
X0449997Y0219142D01*
X0492531Y0247144D02*
X0498013Y0247144D01*
X0496850Y0247930D02*
X0493694Y0247930D01*
X0492910Y0251031D02*
X0497635Y0251031D01*
X0507477Y0254181D02*
X0507477Y0257724D01*
X0516138Y0257724D01*
X0468107Y0265598D02*
X0468107Y0265992D01*
X0464170Y0265992D01*
X0464170Y0265598D01*
X0464170Y0265992D02*
X0464170Y0266386D01*
X0463383Y0266386D02*
X0463383Y0265992D01*
X0459446Y0265992D01*
X0459446Y0265598D01*
X0459446Y0265992D02*
X0459446Y0266386D01*
X0463383Y0265992D02*
X0463383Y0265598D01*
X0468107Y0265992D02*
X0468107Y0266386D01*
X0467516Y0253197D02*
X0467516Y0252016D01*
X0467516Y0253197D02*
X0466335Y0253197D01*
X0457280Y0253197D02*
X0456099Y0253197D01*
X0456099Y0252016D01*
X0453540Y0254969D02*
X0453542Y0255025D01*
X0453548Y0255080D01*
X0453558Y0255134D01*
X0453571Y0255188D01*
X0453589Y0255241D01*
X0453610Y0255292D01*
X0453634Y0255342D01*
X0453662Y0255390D01*
X0453694Y0255436D01*
X0453728Y0255480D01*
X0453766Y0255521D01*
X0453806Y0255559D01*
X0453849Y0255594D01*
X0453894Y0255626D01*
X0453942Y0255655D01*
X0453991Y0255681D01*
X0454042Y0255703D01*
X0454094Y0255721D01*
X0454148Y0255735D01*
X0454203Y0255746D01*
X0454258Y0255753D01*
X0454313Y0255756D01*
X0454369Y0255755D01*
X0454424Y0255750D01*
X0454479Y0255741D01*
X0454533Y0255729D01*
X0454586Y0255712D01*
X0454638Y0255692D01*
X0454688Y0255668D01*
X0454736Y0255641D01*
X0454783Y0255611D01*
X0454827Y0255577D01*
X0454869Y0255540D01*
X0454907Y0255500D01*
X0454944Y0255458D01*
X0454977Y0255413D01*
X0455006Y0255367D01*
X0455033Y0255318D01*
X0455055Y0255267D01*
X0455075Y0255215D01*
X0455090Y0255161D01*
X0455102Y0255107D01*
X0455110Y0255052D01*
X0455114Y0254997D01*
X0455114Y0254941D01*
X0455110Y0254886D01*
X0455102Y0254831D01*
X0455090Y0254777D01*
X0455075Y0254723D01*
X0455055Y0254671D01*
X0455033Y0254620D01*
X0455006Y0254571D01*
X0454977Y0254525D01*
X0454944Y0254480D01*
X0454907Y0254438D01*
X0454869Y0254398D01*
X0454827Y0254361D01*
X0454783Y0254327D01*
X0454736Y0254297D01*
X0454688Y0254270D01*
X0454638Y0254246D01*
X0454586Y0254226D01*
X0454533Y0254209D01*
X0454479Y0254197D01*
X0454424Y0254188D01*
X0454369Y0254183D01*
X0454313Y0254182D01*
X0454258Y0254185D01*
X0454203Y0254192D01*
X0454148Y0254203D01*
X0454094Y0254217D01*
X0454042Y0254235D01*
X0453991Y0254257D01*
X0453942Y0254283D01*
X0453894Y0254312D01*
X0453849Y0254344D01*
X0453806Y0254379D01*
X0453766Y0254417D01*
X0453728Y0254458D01*
X0453694Y0254502D01*
X0453662Y0254548D01*
X0453634Y0254596D01*
X0453610Y0254646D01*
X0453589Y0254697D01*
X0453571Y0254750D01*
X0453558Y0254804D01*
X0453548Y0254858D01*
X0453542Y0254913D01*
X0453540Y0254969D01*
X0453933Y0254969D02*
X0453935Y0255008D01*
X0453941Y0255047D01*
X0453951Y0255085D01*
X0453964Y0255122D01*
X0453981Y0255157D01*
X0454001Y0255191D01*
X0454025Y0255222D01*
X0454052Y0255251D01*
X0454081Y0255277D01*
X0454113Y0255300D01*
X0454147Y0255320D01*
X0454183Y0255336D01*
X0454220Y0255348D01*
X0454259Y0255357D01*
X0454298Y0255362D01*
X0454337Y0255363D01*
X0454376Y0255360D01*
X0454415Y0255353D01*
X0454452Y0255342D01*
X0454489Y0255328D01*
X0454524Y0255310D01*
X0454557Y0255289D01*
X0454588Y0255264D01*
X0454616Y0255237D01*
X0454641Y0255207D01*
X0454663Y0255174D01*
X0454682Y0255140D01*
X0454697Y0255104D01*
X0454709Y0255066D01*
X0454717Y0255028D01*
X0454721Y0254989D01*
X0454721Y0254949D01*
X0454717Y0254910D01*
X0454709Y0254872D01*
X0454697Y0254834D01*
X0454682Y0254798D01*
X0454663Y0254764D01*
X0454641Y0254731D01*
X0454616Y0254701D01*
X0454588Y0254674D01*
X0454557Y0254649D01*
X0454524Y0254628D01*
X0454489Y0254610D01*
X0454452Y0254596D01*
X0454415Y0254585D01*
X0454376Y0254578D01*
X0454337Y0254575D01*
X0454298Y0254576D01*
X0454259Y0254581D01*
X0454220Y0254590D01*
X0454183Y0254602D01*
X0454147Y0254618D01*
X0454113Y0254638D01*
X0454081Y0254661D01*
X0454052Y0254687D01*
X0454025Y0254716D01*
X0454001Y0254747D01*
X0453981Y0254781D01*
X0453964Y0254816D01*
X0453951Y0254853D01*
X0453941Y0254891D01*
X0453935Y0254930D01*
X0453933Y0254969D01*
X0393698Y0229772D02*
X0393304Y0230165D01*
X0373225Y0207724D02*
X0373227Y0207793D01*
X0373233Y0207861D01*
X0373243Y0207929D01*
X0373257Y0207996D01*
X0373275Y0208063D01*
X0373296Y0208128D01*
X0373322Y0208192D01*
X0373351Y0208254D01*
X0373383Y0208314D01*
X0373419Y0208373D01*
X0373459Y0208429D01*
X0373501Y0208483D01*
X0373547Y0208534D01*
X0373596Y0208583D01*
X0373647Y0208629D01*
X0373701Y0208671D01*
X0373757Y0208711D01*
X0373815Y0208747D01*
X0373876Y0208779D01*
X0373938Y0208808D01*
X0374002Y0208834D01*
X0374067Y0208855D01*
X0374134Y0208873D01*
X0374201Y0208887D01*
X0374269Y0208897D01*
X0374337Y0208903D01*
X0374406Y0208905D01*
X0374475Y0208903D01*
X0374543Y0208897D01*
X0374611Y0208887D01*
X0374678Y0208873D01*
X0374745Y0208855D01*
X0374810Y0208834D01*
X0374874Y0208808D01*
X0374936Y0208779D01*
X0374996Y0208747D01*
X0375055Y0208711D01*
X0375111Y0208671D01*
X0375165Y0208629D01*
X0375216Y0208583D01*
X0375265Y0208534D01*
X0375311Y0208483D01*
X0375353Y0208429D01*
X0375393Y0208373D01*
X0375429Y0208314D01*
X0375461Y0208254D01*
X0375490Y0208192D01*
X0375516Y0208128D01*
X0375537Y0208063D01*
X0375555Y0207996D01*
X0375569Y0207929D01*
X0375579Y0207861D01*
X0375585Y0207793D01*
X0375587Y0207724D01*
X0375585Y0207655D01*
X0375579Y0207587D01*
X0375569Y0207519D01*
X0375555Y0207452D01*
X0375537Y0207385D01*
X0375516Y0207320D01*
X0375490Y0207256D01*
X0375461Y0207194D01*
X0375429Y0207133D01*
X0375393Y0207075D01*
X0375353Y0207019D01*
X0375311Y0206965D01*
X0375265Y0206914D01*
X0375216Y0206865D01*
X0375165Y0206819D01*
X0375111Y0206777D01*
X0375055Y0206737D01*
X0374997Y0206701D01*
X0374936Y0206669D01*
X0374874Y0206640D01*
X0374810Y0206614D01*
X0374745Y0206593D01*
X0374678Y0206575D01*
X0374611Y0206561D01*
X0374543Y0206551D01*
X0374475Y0206545D01*
X0374406Y0206543D01*
X0374337Y0206545D01*
X0374269Y0206551D01*
X0374201Y0206561D01*
X0374134Y0206575D01*
X0374067Y0206593D01*
X0374002Y0206614D01*
X0373938Y0206640D01*
X0373876Y0206669D01*
X0373815Y0206701D01*
X0373757Y0206737D01*
X0373701Y0206777D01*
X0373647Y0206819D01*
X0373596Y0206865D01*
X0373547Y0206914D01*
X0373501Y0206965D01*
X0373459Y0207019D01*
X0373419Y0207075D01*
X0373383Y0207133D01*
X0373351Y0207194D01*
X0373322Y0207256D01*
X0373296Y0207320D01*
X0373275Y0207385D01*
X0373257Y0207452D01*
X0373243Y0207519D01*
X0373233Y0207587D01*
X0373227Y0207655D01*
X0373225Y0207724D01*
X0304327Y0217961D02*
X0300390Y0217961D01*
X0300390Y0267567D01*
X0304327Y0267567D01*
X0339760Y0284890D02*
X0339760Y0295913D01*
X0356296Y0296701D02*
X0356296Y0295126D01*
X0356296Y0296701D02*
X0372831Y0296701D01*
X0372831Y0295126D01*
X0373225Y0278591D02*
X0373227Y0278660D01*
X0373233Y0278728D01*
X0373243Y0278796D01*
X0373257Y0278863D01*
X0373275Y0278930D01*
X0373296Y0278995D01*
X0373322Y0279059D01*
X0373351Y0279121D01*
X0373383Y0279181D01*
X0373419Y0279240D01*
X0373459Y0279296D01*
X0373501Y0279350D01*
X0373547Y0279401D01*
X0373596Y0279450D01*
X0373647Y0279496D01*
X0373701Y0279538D01*
X0373757Y0279578D01*
X0373815Y0279614D01*
X0373876Y0279646D01*
X0373938Y0279675D01*
X0374002Y0279701D01*
X0374067Y0279722D01*
X0374134Y0279740D01*
X0374201Y0279754D01*
X0374269Y0279764D01*
X0374337Y0279770D01*
X0374406Y0279772D01*
X0374475Y0279770D01*
X0374543Y0279764D01*
X0374611Y0279754D01*
X0374678Y0279740D01*
X0374745Y0279722D01*
X0374810Y0279701D01*
X0374874Y0279675D01*
X0374936Y0279646D01*
X0374996Y0279614D01*
X0375055Y0279578D01*
X0375111Y0279538D01*
X0375165Y0279496D01*
X0375216Y0279450D01*
X0375265Y0279401D01*
X0375311Y0279350D01*
X0375353Y0279296D01*
X0375393Y0279240D01*
X0375429Y0279181D01*
X0375461Y0279121D01*
X0375490Y0279059D01*
X0375516Y0278995D01*
X0375537Y0278930D01*
X0375555Y0278863D01*
X0375569Y0278796D01*
X0375579Y0278728D01*
X0375585Y0278660D01*
X0375587Y0278591D01*
X0375585Y0278522D01*
X0375579Y0278454D01*
X0375569Y0278386D01*
X0375555Y0278319D01*
X0375537Y0278252D01*
X0375516Y0278187D01*
X0375490Y0278123D01*
X0375461Y0278061D01*
X0375429Y0278000D01*
X0375393Y0277942D01*
X0375353Y0277886D01*
X0375311Y0277832D01*
X0375265Y0277781D01*
X0375216Y0277732D01*
X0375165Y0277686D01*
X0375111Y0277644D01*
X0375055Y0277604D01*
X0374997Y0277568D01*
X0374936Y0277536D01*
X0374874Y0277507D01*
X0374810Y0277481D01*
X0374745Y0277460D01*
X0374678Y0277442D01*
X0374611Y0277428D01*
X0374543Y0277418D01*
X0374475Y0277412D01*
X0374406Y0277410D01*
X0374337Y0277412D01*
X0374269Y0277418D01*
X0374201Y0277428D01*
X0374134Y0277442D01*
X0374067Y0277460D01*
X0374002Y0277481D01*
X0373938Y0277507D01*
X0373876Y0277536D01*
X0373815Y0277568D01*
X0373757Y0277604D01*
X0373701Y0277644D01*
X0373647Y0277686D01*
X0373596Y0277732D01*
X0373547Y0277781D01*
X0373501Y0277832D01*
X0373459Y0277886D01*
X0373419Y0277942D01*
X0373383Y0278000D01*
X0373351Y0278061D01*
X0373322Y0278123D01*
X0373296Y0278187D01*
X0373275Y0278252D01*
X0373257Y0278319D01*
X0373243Y0278386D01*
X0373233Y0278454D01*
X0373227Y0278522D01*
X0373225Y0278591D01*
X0342816Y0125852D02*
X0340580Y0125852D01*
X0340464Y0125756D01*
X0340040Y0123562D01*
X0339970Y0123475D01*
X0338132Y0122714D01*
X0338020Y0122725D01*
X0336169Y0123977D01*
X0336020Y0123963D01*
X0334438Y0122381D01*
X0334424Y0122232D01*
X0335676Y0120381D01*
X0335687Y0120269D01*
X0334926Y0118431D01*
X0334839Y0118360D01*
X0332645Y0117937D01*
X0332549Y0117821D01*
X0332549Y0115585D01*
X0332645Y0115469D01*
X0334839Y0115045D01*
X0334926Y0114975D01*
X0335687Y0113136D01*
X0335676Y0113025D01*
X0334424Y0111174D01*
X0334438Y0111024D01*
X0336020Y0109443D01*
X0336169Y0109429D01*
X0338020Y0110681D01*
X0338132Y0110692D01*
X0338973Y0110344D01*
X0339128Y0110408D01*
X0340677Y0114203D01*
X0340351Y0114024D02*
X0338776Y0110677D01*
X0337989Y0111268D01*
X0336217Y0109693D01*
X0335036Y0111071D01*
X0336020Y0113039D01*
X0335036Y0115402D01*
X0332871Y0115795D01*
X0332871Y0117567D01*
X0335233Y0118157D01*
X0336020Y0120323D01*
X0334839Y0121898D01*
X0336217Y0123472D01*
X0337989Y0122291D01*
X0340351Y0123276D01*
X0340745Y0125441D01*
X0342713Y0125441D01*
X0343107Y0123079D01*
X0345469Y0122291D01*
X0347241Y0123472D01*
X0348422Y0122291D01*
X0347241Y0120323D01*
X0348225Y0118157D01*
X0350390Y0117567D01*
X0350390Y0115795D01*
X0348225Y0115402D01*
X0347241Y0113039D01*
X0348422Y0111071D01*
X0347241Y0109890D01*
X0345469Y0111071D01*
X0344485Y0110874D01*
X0343107Y0114024D01*
X0344879Y0116189D01*
X0344091Y0118748D01*
X0341729Y0119929D01*
X0338973Y0118551D01*
X0338776Y0115992D01*
X0340351Y0114024D01*
X0340110Y0114325D02*
X0335485Y0114325D01*
X0335812Y0113539D02*
X0340123Y0113539D01*
X0339753Y0112753D02*
X0335877Y0112753D01*
X0335484Y0111967D02*
X0339383Y0111967D01*
X0339014Y0111181D02*
X0338104Y0111181D01*
X0337892Y0111181D02*
X0335091Y0111181D01*
X0335615Y0110395D02*
X0337008Y0110395D01*
X0335157Y0115111D02*
X0339481Y0115111D01*
X0338852Y0115897D02*
X0332871Y0115897D01*
X0332871Y0116683D02*
X0338829Y0116683D01*
X0338890Y0117469D02*
X0332871Y0117469D01*
X0335268Y0118255D02*
X0338950Y0118255D01*
X0339952Y0119041D02*
X0335554Y0119041D01*
X0335840Y0119826D02*
X0341524Y0119826D01*
X0341934Y0119826D02*
X0347466Y0119826D01*
X0347709Y0120269D02*
X0348470Y0118431D01*
X0348557Y0118360D01*
X0350751Y0117937D01*
X0350847Y0117821D01*
X0350847Y0115585D01*
X0350751Y0115469D01*
X0348557Y0115045D01*
X0348470Y0114975D01*
X0347709Y0113136D01*
X0347720Y0113025D01*
X0348972Y0111174D01*
X0348958Y0111024D01*
X0347376Y0109443D01*
X0347227Y0109429D01*
X0345376Y0110681D01*
X0345264Y0110692D01*
X0344423Y0110344D01*
X0344268Y0110408D01*
X0342719Y0114203D01*
X0343354Y0114325D02*
X0347777Y0114325D01*
X0348104Y0115111D02*
X0343997Y0115111D01*
X0344640Y0115897D02*
X0350390Y0115897D01*
X0350390Y0116683D02*
X0344727Y0116683D01*
X0344485Y0117469D02*
X0350390Y0117469D01*
X0348181Y0118255D02*
X0344243Y0118255D01*
X0343506Y0119041D02*
X0347824Y0119041D01*
X0347709Y0120269D02*
X0347720Y0120381D01*
X0348972Y0122232D01*
X0348958Y0122381D01*
X0347376Y0123963D01*
X0347227Y0123977D01*
X0345376Y0122725D01*
X0345264Y0122714D01*
X0343426Y0123475D01*
X0343356Y0123562D01*
X0342932Y0125756D01*
X0342816Y0125852D01*
X0342732Y0125328D02*
X0340724Y0125328D01*
X0340581Y0124542D02*
X0342863Y0124542D01*
X0342994Y0123756D02*
X0340438Y0123756D01*
X0339618Y0122970D02*
X0343433Y0122970D01*
X0346487Y0122970D02*
X0347743Y0122970D01*
X0348358Y0122184D02*
X0335090Y0122184D01*
X0335214Y0121398D02*
X0347886Y0121398D01*
X0347415Y0120612D02*
X0335803Y0120612D01*
X0335778Y0122970D02*
X0336971Y0122970D01*
X0340548Y0114418D02*
X0340458Y0114465D01*
X0340370Y0114516D01*
X0340283Y0114570D01*
X0340199Y0114627D01*
X0340117Y0114688D01*
X0340038Y0114751D01*
X0339961Y0114818D01*
X0339887Y0114887D01*
X0339815Y0114960D01*
X0339747Y0115035D01*
X0339681Y0115113D01*
X0339618Y0115193D01*
X0339559Y0115275D01*
X0339502Y0115360D01*
X0339449Y0115447D01*
X0339400Y0115536D01*
X0339353Y0115626D01*
X0339311Y0115719D01*
X0339272Y0115813D01*
X0339236Y0115908D01*
X0339204Y0116005D01*
X0339176Y0116102D01*
X0339152Y0116201D01*
X0339132Y0116301D01*
X0339115Y0116401D01*
X0339103Y0116502D01*
X0339094Y0116604D01*
X0339089Y0116705D01*
X0339088Y0116807D01*
X0339091Y0116909D01*
X0339098Y0117010D01*
X0339109Y0117112D01*
X0339124Y0117212D01*
X0339142Y0117312D01*
X0339165Y0117412D01*
X0339191Y0117510D01*
X0339221Y0117607D01*
X0339255Y0117703D01*
X0339292Y0117798D01*
X0339333Y0117891D01*
X0339378Y0117982D01*
X0339426Y0118072D01*
X0339477Y0118160D01*
X0339532Y0118245D01*
X0339590Y0118329D01*
X0339651Y0118410D01*
X0339716Y0118489D01*
X0339783Y0118565D01*
X0339853Y0118639D01*
X0339926Y0118710D01*
X0340002Y0118778D01*
X0340080Y0118843D01*
X0340161Y0118905D01*
X0340244Y0118964D01*
X0340329Y0119019D01*
X0340416Y0119072D01*
X0340506Y0119121D01*
X0340597Y0119166D01*
X0340689Y0119208D01*
X0340784Y0119246D01*
X0340879Y0119281D01*
X0340976Y0119311D01*
X0341074Y0119339D01*
X0341173Y0119362D01*
X0341273Y0119381D01*
X0341374Y0119397D01*
X0341475Y0119409D01*
X0341576Y0119417D01*
X0341678Y0119421D01*
X0341780Y0119421D01*
X0341882Y0119417D01*
X0341983Y0119409D01*
X0342084Y0119397D01*
X0342185Y0119381D01*
X0342285Y0119362D01*
X0342384Y0119339D01*
X0342482Y0119311D01*
X0342579Y0119281D01*
X0342674Y0119246D01*
X0342769Y0119208D01*
X0342861Y0119166D01*
X0342952Y0119121D01*
X0343042Y0119072D01*
X0343129Y0119019D01*
X0343214Y0118964D01*
X0343297Y0118905D01*
X0343378Y0118843D01*
X0343456Y0118778D01*
X0343532Y0118710D01*
X0343605Y0118639D01*
X0343675Y0118565D01*
X0343742Y0118489D01*
X0343807Y0118410D01*
X0343868Y0118329D01*
X0343926Y0118245D01*
X0343981Y0118160D01*
X0344032Y0118072D01*
X0344080Y0117982D01*
X0344125Y0117891D01*
X0344166Y0117798D01*
X0344203Y0117703D01*
X0344237Y0117607D01*
X0344267Y0117510D01*
X0344293Y0117412D01*
X0344316Y0117312D01*
X0344334Y0117212D01*
X0344349Y0117112D01*
X0344360Y0117010D01*
X0344367Y0116909D01*
X0344370Y0116807D01*
X0344369Y0116705D01*
X0344364Y0116604D01*
X0344355Y0116502D01*
X0344343Y0116401D01*
X0344326Y0116301D01*
X0344306Y0116201D01*
X0344282Y0116102D01*
X0344254Y0116005D01*
X0344222Y0115908D01*
X0344186Y0115813D01*
X0344147Y0115719D01*
X0344105Y0115626D01*
X0344058Y0115536D01*
X0344009Y0115447D01*
X0343956Y0115360D01*
X0343899Y0115275D01*
X0343840Y0115193D01*
X0343777Y0115113D01*
X0343711Y0115035D01*
X0343643Y0114960D01*
X0343571Y0114887D01*
X0343497Y0114818D01*
X0343420Y0114751D01*
X0343341Y0114688D01*
X0343259Y0114627D01*
X0343175Y0114570D01*
X0343088Y0114516D01*
X0343000Y0114465D01*
X0342910Y0114418D01*
X0343319Y0113539D02*
X0347449Y0113539D01*
X0347413Y0112753D02*
X0343663Y0112753D01*
X0344007Y0111967D02*
X0347884Y0111967D01*
X0348356Y0111181D02*
X0344350Y0111181D01*
X0346482Y0110395D02*
X0347747Y0110395D01*
D12*
X0431954Y0192370D02*
X0431956Y0192437D01*
X0431962Y0192503D01*
X0431972Y0192569D01*
X0431986Y0192634D01*
X0432003Y0192698D01*
X0432025Y0192761D01*
X0432050Y0192823D01*
X0432079Y0192883D01*
X0432112Y0192941D01*
X0432148Y0192998D01*
X0432187Y0193051D01*
X0432229Y0193103D01*
X0432274Y0193152D01*
X0432323Y0193198D01*
X0432373Y0193241D01*
X0432427Y0193281D01*
X0432482Y0193318D01*
X0432540Y0193351D01*
X0432600Y0193381D01*
X0432661Y0193407D01*
X0432724Y0193429D01*
X0432788Y0193448D01*
X0432853Y0193463D01*
X0432918Y0193474D01*
X0432985Y0193481D01*
X0433051Y0193484D01*
X0433118Y0193483D01*
X0433184Y0193478D01*
X0433250Y0193469D01*
X0433316Y0193456D01*
X0433380Y0193439D01*
X0433444Y0193419D01*
X0433506Y0193394D01*
X0433566Y0193366D01*
X0433625Y0193335D01*
X0433682Y0193300D01*
X0433736Y0193261D01*
X0433788Y0193220D01*
X0433838Y0193175D01*
X0433885Y0193128D01*
X0433928Y0193078D01*
X0433969Y0193025D01*
X0434007Y0192970D01*
X0434041Y0192913D01*
X0434072Y0192853D01*
X0434099Y0192792D01*
X0434122Y0192730D01*
X0434142Y0192666D01*
X0434158Y0192602D01*
X0434170Y0192536D01*
X0434178Y0192470D01*
X0434182Y0192403D01*
X0434182Y0192337D01*
X0434178Y0192270D01*
X0434170Y0192204D01*
X0434158Y0192138D01*
X0434142Y0192074D01*
X0434122Y0192010D01*
X0434099Y0191948D01*
X0434072Y0191887D01*
X0434041Y0191827D01*
X0434007Y0191770D01*
X0433969Y0191715D01*
X0433928Y0191662D01*
X0433885Y0191612D01*
X0433838Y0191565D01*
X0433788Y0191520D01*
X0433736Y0191479D01*
X0433682Y0191440D01*
X0433625Y0191405D01*
X0433566Y0191374D01*
X0433506Y0191346D01*
X0433444Y0191321D01*
X0433380Y0191301D01*
X0433316Y0191284D01*
X0433250Y0191271D01*
X0433184Y0191262D01*
X0433118Y0191257D01*
X0433051Y0191256D01*
X0432985Y0191259D01*
X0432918Y0191266D01*
X0432853Y0191277D01*
X0432788Y0191292D01*
X0432724Y0191311D01*
X0432661Y0191333D01*
X0432600Y0191359D01*
X0432540Y0191389D01*
X0432482Y0191422D01*
X0432427Y0191459D01*
X0432373Y0191499D01*
X0432323Y0191542D01*
X0432274Y0191588D01*
X0432229Y0191637D01*
X0432187Y0191689D01*
X0432148Y0191742D01*
X0432112Y0191799D01*
X0432079Y0191857D01*
X0432050Y0191917D01*
X0432025Y0191979D01*
X0432003Y0192042D01*
X0431986Y0192106D01*
X0431972Y0192171D01*
X0431962Y0192237D01*
X0431956Y0192303D01*
X0431954Y0192370D01*
X0420931Y0227016D02*
X0420933Y0227083D01*
X0420939Y0227149D01*
X0420949Y0227215D01*
X0420963Y0227280D01*
X0420980Y0227344D01*
X0421002Y0227407D01*
X0421027Y0227469D01*
X0421056Y0227529D01*
X0421089Y0227587D01*
X0421124Y0227643D01*
X0421164Y0227697D01*
X0421206Y0227748D01*
X0421251Y0227797D01*
X0421299Y0227843D01*
X0421350Y0227886D01*
X0421403Y0227926D01*
X0421459Y0227963D01*
X0421517Y0227996D01*
X0421576Y0228026D01*
X0421637Y0228052D01*
X0421700Y0228075D01*
X0421764Y0228093D01*
X0421829Y0228108D01*
X0421895Y0228119D01*
X0421961Y0228126D01*
X0422027Y0228129D01*
X0422094Y0228128D01*
X0422160Y0228123D01*
X0422226Y0228114D01*
X0422292Y0228101D01*
X0422356Y0228084D01*
X0422419Y0228064D01*
X0422481Y0228039D01*
X0422542Y0228011D01*
X0422601Y0227980D01*
X0422657Y0227945D01*
X0422712Y0227907D01*
X0422764Y0227865D01*
X0422813Y0227820D01*
X0422860Y0227773D01*
X0422904Y0227723D01*
X0422944Y0227670D01*
X0422982Y0227615D01*
X0423016Y0227558D01*
X0423047Y0227499D01*
X0423074Y0227438D01*
X0423097Y0227376D01*
X0423117Y0227312D01*
X0423133Y0227247D01*
X0423145Y0227182D01*
X0423153Y0227116D01*
X0423157Y0227049D01*
X0423157Y0226983D01*
X0423153Y0226916D01*
X0423145Y0226850D01*
X0423133Y0226785D01*
X0423117Y0226720D01*
X0423097Y0226656D01*
X0423074Y0226594D01*
X0423047Y0226533D01*
X0423016Y0226474D01*
X0422982Y0226417D01*
X0422944Y0226362D01*
X0422904Y0226309D01*
X0422860Y0226259D01*
X0422813Y0226212D01*
X0422764Y0226167D01*
X0422712Y0226125D01*
X0422657Y0226087D01*
X0422600Y0226052D01*
X0422542Y0226021D01*
X0422481Y0225993D01*
X0422419Y0225968D01*
X0422356Y0225948D01*
X0422292Y0225931D01*
X0422226Y0225918D01*
X0422160Y0225909D01*
X0422094Y0225904D01*
X0422027Y0225903D01*
X0421961Y0225906D01*
X0421895Y0225913D01*
X0421829Y0225924D01*
X0421764Y0225939D01*
X0421700Y0225957D01*
X0421637Y0225980D01*
X0421576Y0226006D01*
X0421517Y0226036D01*
X0421459Y0226069D01*
X0421403Y0226106D01*
X0421350Y0226146D01*
X0421299Y0226189D01*
X0421251Y0226235D01*
X0421206Y0226284D01*
X0421164Y0226335D01*
X0421124Y0226389D01*
X0421089Y0226445D01*
X0421056Y0226503D01*
X0421027Y0226563D01*
X0421002Y0226625D01*
X0420980Y0226688D01*
X0420963Y0226752D01*
X0420949Y0226817D01*
X0420939Y0226883D01*
X0420933Y0226949D01*
X0420931Y0227016D01*
D13*
X0422044Y0227016D03*
X0374406Y0207724D03*
X0433068Y0192370D03*
X0472438Y0160087D03*
X0472438Y0148276D03*
X0472438Y0136465D03*
X0472438Y0124654D03*
X0374406Y0278591D03*
X0444485Y0312843D03*
X0374406Y0349457D03*
D14*
X0435607Y0222376D02*
X0435607Y0218957D01*
X0436290Y0218273D01*
X0437658Y0218273D01*
X0438342Y0218957D01*
X0438342Y0222376D01*
X0440210Y0221009D02*
X0441578Y0222376D01*
X0441578Y0218273D01*
X0440210Y0218273D02*
X0442946Y0218273D01*
D15*
X0454722Y0173079D02*
X0454724Y0173135D01*
X0454730Y0173190D01*
X0454740Y0173244D01*
X0454753Y0173298D01*
X0454771Y0173351D01*
X0454792Y0173402D01*
X0454816Y0173452D01*
X0454844Y0173500D01*
X0454876Y0173546D01*
X0454910Y0173590D01*
X0454948Y0173631D01*
X0454988Y0173669D01*
X0455031Y0173704D01*
X0455076Y0173736D01*
X0455124Y0173765D01*
X0455173Y0173791D01*
X0455224Y0173813D01*
X0455276Y0173831D01*
X0455330Y0173845D01*
X0455385Y0173856D01*
X0455440Y0173863D01*
X0455495Y0173866D01*
X0455551Y0173865D01*
X0455606Y0173860D01*
X0455661Y0173851D01*
X0455715Y0173839D01*
X0455768Y0173822D01*
X0455820Y0173802D01*
X0455870Y0173778D01*
X0455918Y0173751D01*
X0455965Y0173721D01*
X0456009Y0173687D01*
X0456051Y0173650D01*
X0456089Y0173610D01*
X0456126Y0173568D01*
X0456159Y0173523D01*
X0456188Y0173477D01*
X0456215Y0173428D01*
X0456237Y0173377D01*
X0456257Y0173325D01*
X0456272Y0173271D01*
X0456284Y0173217D01*
X0456292Y0173162D01*
X0456296Y0173107D01*
X0456296Y0173051D01*
X0456292Y0172996D01*
X0456284Y0172941D01*
X0456272Y0172887D01*
X0456257Y0172833D01*
X0456237Y0172781D01*
X0456215Y0172730D01*
X0456188Y0172681D01*
X0456159Y0172635D01*
X0456126Y0172590D01*
X0456089Y0172548D01*
X0456051Y0172508D01*
X0456009Y0172471D01*
X0455965Y0172437D01*
X0455918Y0172407D01*
X0455870Y0172380D01*
X0455820Y0172356D01*
X0455768Y0172336D01*
X0455715Y0172319D01*
X0455661Y0172307D01*
X0455606Y0172298D01*
X0455551Y0172293D01*
X0455495Y0172292D01*
X0455440Y0172295D01*
X0455385Y0172302D01*
X0455330Y0172313D01*
X0455276Y0172327D01*
X0455224Y0172345D01*
X0455173Y0172367D01*
X0455124Y0172393D01*
X0455076Y0172422D01*
X0455031Y0172454D01*
X0454988Y0172489D01*
X0454948Y0172527D01*
X0454910Y0172568D01*
X0454876Y0172612D01*
X0454844Y0172658D01*
X0454816Y0172706D01*
X0454792Y0172756D01*
X0454771Y0172807D01*
X0454753Y0172860D01*
X0454740Y0172914D01*
X0454730Y0172968D01*
X0454724Y0173023D01*
X0454722Y0173079D01*
X0472044Y0160087D02*
X0472046Y0160126D01*
X0472052Y0160165D01*
X0472062Y0160203D01*
X0472075Y0160240D01*
X0472092Y0160275D01*
X0472112Y0160309D01*
X0472136Y0160340D01*
X0472163Y0160369D01*
X0472192Y0160395D01*
X0472224Y0160418D01*
X0472258Y0160438D01*
X0472294Y0160454D01*
X0472331Y0160466D01*
X0472370Y0160475D01*
X0472409Y0160480D01*
X0472448Y0160481D01*
X0472487Y0160478D01*
X0472526Y0160471D01*
X0472563Y0160460D01*
X0472600Y0160446D01*
X0472635Y0160428D01*
X0472668Y0160407D01*
X0472699Y0160382D01*
X0472727Y0160355D01*
X0472752Y0160325D01*
X0472774Y0160292D01*
X0472793Y0160258D01*
X0472808Y0160222D01*
X0472820Y0160184D01*
X0472828Y0160146D01*
X0472832Y0160107D01*
X0472832Y0160067D01*
X0472828Y0160028D01*
X0472820Y0159990D01*
X0472808Y0159952D01*
X0472793Y0159916D01*
X0472774Y0159882D01*
X0472752Y0159849D01*
X0472727Y0159819D01*
X0472699Y0159792D01*
X0472668Y0159767D01*
X0472635Y0159746D01*
X0472600Y0159728D01*
X0472563Y0159714D01*
X0472526Y0159703D01*
X0472487Y0159696D01*
X0472448Y0159693D01*
X0472409Y0159694D01*
X0472370Y0159699D01*
X0472331Y0159708D01*
X0472294Y0159720D01*
X0472258Y0159736D01*
X0472224Y0159756D01*
X0472192Y0159779D01*
X0472163Y0159805D01*
X0472136Y0159834D01*
X0472112Y0159865D01*
X0472092Y0159899D01*
X0472075Y0159934D01*
X0472062Y0159971D01*
X0472052Y0160009D01*
X0472046Y0160048D01*
X0472044Y0160087D01*
X0472044Y0148276D02*
X0472046Y0148315D01*
X0472052Y0148354D01*
X0472062Y0148392D01*
X0472075Y0148429D01*
X0472092Y0148464D01*
X0472112Y0148498D01*
X0472136Y0148529D01*
X0472163Y0148558D01*
X0472192Y0148584D01*
X0472224Y0148607D01*
X0472258Y0148627D01*
X0472294Y0148643D01*
X0472331Y0148655D01*
X0472370Y0148664D01*
X0472409Y0148669D01*
X0472448Y0148670D01*
X0472487Y0148667D01*
X0472526Y0148660D01*
X0472563Y0148649D01*
X0472600Y0148635D01*
X0472635Y0148617D01*
X0472668Y0148596D01*
X0472699Y0148571D01*
X0472727Y0148544D01*
X0472752Y0148514D01*
X0472774Y0148481D01*
X0472793Y0148447D01*
X0472808Y0148411D01*
X0472820Y0148373D01*
X0472828Y0148335D01*
X0472832Y0148296D01*
X0472832Y0148256D01*
X0472828Y0148217D01*
X0472820Y0148179D01*
X0472808Y0148141D01*
X0472793Y0148105D01*
X0472774Y0148071D01*
X0472752Y0148038D01*
X0472727Y0148008D01*
X0472699Y0147981D01*
X0472668Y0147956D01*
X0472635Y0147935D01*
X0472600Y0147917D01*
X0472563Y0147903D01*
X0472526Y0147892D01*
X0472487Y0147885D01*
X0472448Y0147882D01*
X0472409Y0147883D01*
X0472370Y0147888D01*
X0472331Y0147897D01*
X0472294Y0147909D01*
X0472258Y0147925D01*
X0472224Y0147945D01*
X0472192Y0147968D01*
X0472163Y0147994D01*
X0472136Y0148023D01*
X0472112Y0148054D01*
X0472092Y0148088D01*
X0472075Y0148123D01*
X0472062Y0148160D01*
X0472052Y0148198D01*
X0472046Y0148237D01*
X0472044Y0148276D01*
X0472044Y0136465D02*
X0472046Y0136504D01*
X0472052Y0136543D01*
X0472062Y0136581D01*
X0472075Y0136618D01*
X0472092Y0136653D01*
X0472112Y0136687D01*
X0472136Y0136718D01*
X0472163Y0136747D01*
X0472192Y0136773D01*
X0472224Y0136796D01*
X0472258Y0136816D01*
X0472294Y0136832D01*
X0472331Y0136844D01*
X0472370Y0136853D01*
X0472409Y0136858D01*
X0472448Y0136859D01*
X0472487Y0136856D01*
X0472526Y0136849D01*
X0472563Y0136838D01*
X0472600Y0136824D01*
X0472635Y0136806D01*
X0472668Y0136785D01*
X0472699Y0136760D01*
X0472727Y0136733D01*
X0472752Y0136703D01*
X0472774Y0136670D01*
X0472793Y0136636D01*
X0472808Y0136600D01*
X0472820Y0136562D01*
X0472828Y0136524D01*
X0472832Y0136485D01*
X0472832Y0136445D01*
X0472828Y0136406D01*
X0472820Y0136368D01*
X0472808Y0136330D01*
X0472793Y0136294D01*
X0472774Y0136260D01*
X0472752Y0136227D01*
X0472727Y0136197D01*
X0472699Y0136170D01*
X0472668Y0136145D01*
X0472635Y0136124D01*
X0472600Y0136106D01*
X0472563Y0136092D01*
X0472526Y0136081D01*
X0472487Y0136074D01*
X0472448Y0136071D01*
X0472409Y0136072D01*
X0472370Y0136077D01*
X0472331Y0136086D01*
X0472294Y0136098D01*
X0472258Y0136114D01*
X0472224Y0136134D01*
X0472192Y0136157D01*
X0472163Y0136183D01*
X0472136Y0136212D01*
X0472112Y0136243D01*
X0472092Y0136277D01*
X0472075Y0136312D01*
X0472062Y0136349D01*
X0472052Y0136387D01*
X0472046Y0136426D01*
X0472044Y0136465D01*
X0472044Y0124654D02*
X0472046Y0124693D01*
X0472052Y0124732D01*
X0472062Y0124770D01*
X0472075Y0124807D01*
X0472092Y0124842D01*
X0472112Y0124876D01*
X0472136Y0124907D01*
X0472163Y0124936D01*
X0472192Y0124962D01*
X0472224Y0124985D01*
X0472258Y0125005D01*
X0472294Y0125021D01*
X0472331Y0125033D01*
X0472370Y0125042D01*
X0472409Y0125047D01*
X0472448Y0125048D01*
X0472487Y0125045D01*
X0472526Y0125038D01*
X0472563Y0125027D01*
X0472600Y0125013D01*
X0472635Y0124995D01*
X0472668Y0124974D01*
X0472699Y0124949D01*
X0472727Y0124922D01*
X0472752Y0124892D01*
X0472774Y0124859D01*
X0472793Y0124825D01*
X0472808Y0124789D01*
X0472820Y0124751D01*
X0472828Y0124713D01*
X0472832Y0124674D01*
X0472832Y0124634D01*
X0472828Y0124595D01*
X0472820Y0124557D01*
X0472808Y0124519D01*
X0472793Y0124483D01*
X0472774Y0124449D01*
X0472752Y0124416D01*
X0472727Y0124386D01*
X0472699Y0124359D01*
X0472668Y0124334D01*
X0472635Y0124313D01*
X0472600Y0124295D01*
X0472563Y0124281D01*
X0472526Y0124270D01*
X0472487Y0124263D01*
X0472448Y0124260D01*
X0472409Y0124261D01*
X0472370Y0124266D01*
X0472331Y0124275D01*
X0472294Y0124287D01*
X0472258Y0124303D01*
X0472224Y0124323D01*
X0472192Y0124346D01*
X0472163Y0124372D01*
X0472136Y0124401D01*
X0472112Y0124432D01*
X0472092Y0124466D01*
X0472075Y0124501D01*
X0472062Y0124538D01*
X0472052Y0124576D01*
X0472046Y0124615D01*
X0472044Y0124654D01*
D16*
X0373225Y0124505D02*
X0371688Y0124505D01*
X0371688Y0124862D02*
X0371688Y0118778D01*
X0373225Y0118778D01*
X0373225Y0124915D01*
X0373221Y0125003D01*
X0373212Y0125090D01*
X0373203Y0125177D01*
X0373190Y0125262D01*
X0373172Y0125346D01*
X0373155Y0125430D01*
X0373134Y0125513D01*
X0373109Y0125594D01*
X0373084Y0125674D01*
X0373054Y0125754D01*
X0373022Y0125831D01*
X0372989Y0125908D01*
X0372953Y0125983D01*
X0372913Y0126056D01*
X0372873Y0126130D01*
X0372830Y0126201D01*
X0372783Y0126270D01*
X0372737Y0126338D01*
X0372687Y0126405D01*
X0372635Y0126468D01*
X0372582Y0126532D01*
X0372526Y0126594D01*
X0372468Y0126652D01*
X0372409Y0126711D01*
X0372348Y0126766D01*
X0372284Y0126819D01*
X0372220Y0126872D01*
X0372154Y0126921D01*
X0372085Y0126968D01*
X0372017Y0127014D01*
X0371945Y0127057D01*
X0371872Y0127097D01*
X0371799Y0127137D01*
X0371724Y0127173D01*
X0371646Y0127206D01*
X0371569Y0127239D01*
X0371490Y0127268D01*
X0371409Y0127293D01*
X0371328Y0127318D01*
X0371246Y0127340D01*
X0371162Y0127357D01*
X0371078Y0127374D01*
X0370992Y0127387D01*
X0370906Y0127396D01*
X0370819Y0127405D01*
X0370731Y0127409D01*
X0356034Y0127409D01*
X0355946Y0127405D01*
X0355859Y0127396D01*
X0355773Y0127387D01*
X0355687Y0127374D01*
X0355603Y0127357D01*
X0355519Y0127340D01*
X0355437Y0127318D01*
X0355356Y0127293D01*
X0355275Y0127268D01*
X0355196Y0127239D01*
X0355119Y0127206D01*
X0355041Y0127173D01*
X0354966Y0127137D01*
X0354893Y0127097D01*
X0354820Y0127057D01*
X0354749Y0127014D01*
X0354680Y0126968D01*
X0354611Y0126921D01*
X0354545Y0126872D01*
X0354481Y0126819D01*
X0354417Y0126766D01*
X0354356Y0126711D01*
X0354297Y0126652D01*
X0354239Y0126594D01*
X0354183Y0126532D01*
X0354131Y0126468D01*
X0354078Y0126405D01*
X0354028Y0126338D01*
X0353982Y0126270D01*
X0353935Y0126201D01*
X0353892Y0126130D01*
X0353852Y0126056D01*
X0353812Y0125983D01*
X0353776Y0125908D01*
X0353743Y0125831D01*
X0353711Y0125754D01*
X0353682Y0125674D01*
X0353656Y0125594D01*
X0353631Y0125513D01*
X0353610Y0125430D01*
X0353593Y0125346D01*
X0353575Y0125262D01*
X0353562Y0125177D01*
X0353553Y0125090D01*
X0353545Y0125003D01*
X0353540Y0124915D01*
X0353540Y0110219D01*
X0353545Y0110130D01*
X0353553Y0110044D01*
X0353562Y0109957D01*
X0353575Y0109871D01*
X0353593Y0109788D01*
X0353610Y0109703D01*
X0353631Y0109621D01*
X0353656Y0109540D01*
X0353682Y0109459D01*
X0353711Y0109380D01*
X0353743Y0109303D01*
X0353776Y0109226D01*
X0353812Y0109150D01*
X0353852Y0109077D01*
X0353892Y0109004D01*
X0353935Y0108933D01*
X0353982Y0108864D01*
X0354028Y0108796D01*
X0354078Y0108729D01*
X0354131Y0108665D01*
X0354183Y0108601D01*
X0354239Y0108540D01*
X0354297Y0108482D01*
X0354356Y0108423D01*
X0354417Y0108368D01*
X0354481Y0108315D01*
X0354545Y0108262D01*
X0354611Y0108213D01*
X0354680Y0108166D01*
X0354749Y0108120D01*
X0354820Y0108076D01*
X0354893Y0108037D01*
X0354966Y0107997D01*
X0355041Y0107960D01*
X0355119Y0107928D01*
X0355196Y0107895D01*
X0355275Y0107866D01*
X0355356Y0107841D01*
X0355437Y0107815D01*
X0355519Y0107794D01*
X0355603Y0107777D01*
X0355687Y0107760D01*
X0355773Y0107747D01*
X0355859Y0107738D01*
X0355946Y0107729D01*
X0356034Y0107724D01*
X0370731Y0107724D01*
X0370819Y0107729D01*
X0370906Y0107738D01*
X0370992Y0107747D01*
X0371078Y0107760D01*
X0371162Y0107777D01*
X0371246Y0107794D01*
X0371328Y0107815D01*
X0371409Y0107841D01*
X0371490Y0107866D01*
X0371569Y0107895D01*
X0371646Y0107928D01*
X0371724Y0107960D01*
X0371799Y0107997D01*
X0371872Y0108037D01*
X0371945Y0108076D01*
X0372017Y0108120D01*
X0372085Y0108166D01*
X0372154Y0108213D01*
X0372220Y0108262D01*
X0372284Y0108315D01*
X0372348Y0108368D01*
X0372409Y0108423D01*
X0372468Y0108482D01*
X0372526Y0108540D01*
X0372582Y0108601D01*
X0372635Y0108665D01*
X0372687Y0108729D01*
X0372737Y0108796D01*
X0372783Y0108864D01*
X0372830Y0108933D01*
X0372873Y0109004D01*
X0372913Y0109077D01*
X0372953Y0109150D01*
X0372989Y0109226D01*
X0373022Y0109303D01*
X0373054Y0109380D01*
X0373084Y0109459D01*
X0373109Y0109540D01*
X0373134Y0109621D01*
X0373155Y0109703D01*
X0373172Y0109788D01*
X0373190Y0109871D01*
X0373203Y0109957D01*
X0373212Y0110044D01*
X0373221Y0110130D01*
X0373225Y0110219D01*
X0373225Y0116550D01*
X0371688Y0116550D01*
X0371688Y0110271D01*
X0371687Y0110236D01*
X0371683Y0110201D01*
X0371680Y0110165D01*
X0371674Y0110131D01*
X0371667Y0110097D01*
X0371660Y0110063D01*
X0371652Y0110029D01*
X0371641Y0109997D01*
X0371631Y0109964D01*
X0371619Y0109932D01*
X0371606Y0109900D01*
X0371593Y0109869D01*
X0371578Y0109839D01*
X0371562Y0109809D01*
X0371546Y0109779D01*
X0371528Y0109751D01*
X0371510Y0109723D01*
X0371491Y0109695D01*
X0371471Y0109668D01*
X0371449Y0109642D01*
X0371428Y0109616D01*
X0371405Y0109591D01*
X0371382Y0109568D01*
X0371358Y0109544D01*
X0371333Y0109522D01*
X0371307Y0109500D01*
X0371281Y0109479D01*
X0371255Y0109459D01*
X0371227Y0109440D01*
X0371199Y0109421D01*
X0371170Y0109404D01*
X0371141Y0109387D01*
X0371111Y0109371D01*
X0371080Y0109357D01*
X0371049Y0109343D01*
X0371018Y0109330D01*
X0370986Y0109318D01*
X0370953Y0109308D01*
X0370920Y0109298D01*
X0370887Y0109289D01*
X0370853Y0109282D01*
X0370819Y0109275D01*
X0370784Y0109270D01*
X0370749Y0109266D01*
X0370714Y0109263D01*
X0370678Y0109261D01*
X0356087Y0109261D01*
X0356051Y0109263D01*
X0356016Y0109266D01*
X0355981Y0109270D01*
X0355947Y0109275D01*
X0355913Y0109282D01*
X0355879Y0109289D01*
X0355845Y0109298D01*
X0355812Y0109308D01*
X0355780Y0109318D01*
X0355747Y0109330D01*
X0355716Y0109343D01*
X0355685Y0109357D01*
X0355654Y0109371D01*
X0355625Y0109387D01*
X0355595Y0109404D01*
X0355566Y0109421D01*
X0355538Y0109440D01*
X0355511Y0109459D01*
X0355484Y0109479D01*
X0355458Y0109500D01*
X0355432Y0109522D01*
X0355407Y0109544D01*
X0355383Y0109568D01*
X0355360Y0109591D01*
X0355337Y0109616D01*
X0355316Y0109642D01*
X0355295Y0109668D01*
X0355274Y0109695D01*
X0355256Y0109723D01*
X0355237Y0109751D01*
X0355219Y0109779D01*
X0355203Y0109809D01*
X0355187Y0109839D01*
X0355172Y0109869D01*
X0355159Y0109900D01*
X0355146Y0109932D01*
X0355134Y0109964D01*
X0355124Y0109997D01*
X0355114Y0110029D01*
X0355105Y0110063D01*
X0355098Y0110097D01*
X0355091Y0110131D01*
X0355086Y0110165D01*
X0355082Y0110201D01*
X0355078Y0110236D01*
X0355077Y0110271D01*
X0355077Y0124862D01*
X0355078Y0124898D01*
X0355082Y0124933D01*
X0355086Y0124968D01*
X0355091Y0125003D01*
X0355098Y0125037D01*
X0355105Y0125071D01*
X0355114Y0125104D01*
X0355124Y0125137D01*
X0355134Y0125170D01*
X0355146Y0125202D01*
X0355159Y0125233D01*
X0355172Y0125265D01*
X0355187Y0125295D01*
X0355203Y0125325D01*
X0355219Y0125354D01*
X0355237Y0125383D01*
X0355256Y0125411D01*
X0355274Y0125439D01*
X0355295Y0125466D01*
X0355316Y0125492D01*
X0355337Y0125518D01*
X0355360Y0125542D01*
X0355383Y0125566D01*
X0355407Y0125590D01*
X0355432Y0125612D01*
X0355458Y0125634D01*
X0355484Y0125655D01*
X0355511Y0125675D01*
X0355538Y0125694D01*
X0355566Y0125713D01*
X0355595Y0125730D01*
X0355625Y0125746D01*
X0355654Y0125762D01*
X0355685Y0125777D01*
X0355716Y0125790D01*
X0355747Y0125804D01*
X0355780Y0125816D01*
X0355812Y0125826D01*
X0355845Y0125836D01*
X0355879Y0125845D01*
X0355913Y0125852D01*
X0355947Y0125858D01*
X0355981Y0125864D01*
X0356016Y0125867D01*
X0356051Y0125871D01*
X0356087Y0125873D01*
X0370678Y0125873D01*
X0370714Y0125871D01*
X0370749Y0125867D01*
X0370784Y0125864D01*
X0370819Y0125858D01*
X0370853Y0125852D01*
X0370887Y0125845D01*
X0370920Y0125836D01*
X0370953Y0125826D01*
X0370986Y0125816D01*
X0371018Y0125804D01*
X0371049Y0125790D01*
X0371080Y0125777D01*
X0371111Y0125762D01*
X0371141Y0125746D01*
X0371170Y0125730D01*
X0371199Y0125713D01*
X0371227Y0125694D01*
X0371255Y0125675D01*
X0371281Y0125655D01*
X0371307Y0125634D01*
X0371333Y0125612D01*
X0371358Y0125590D01*
X0371382Y0125566D01*
X0371405Y0125542D01*
X0371428Y0125518D01*
X0371449Y0125492D01*
X0371471Y0125466D01*
X0371491Y0125439D01*
X0371510Y0125411D01*
X0371528Y0125383D01*
X0371546Y0125354D01*
X0371562Y0125325D01*
X0371578Y0125295D01*
X0371593Y0125265D01*
X0371606Y0125233D01*
X0371619Y0125202D01*
X0371631Y0125170D01*
X0371641Y0125137D01*
X0371652Y0125104D01*
X0371660Y0125071D01*
X0371667Y0125037D01*
X0371674Y0125003D01*
X0371680Y0124968D01*
X0371683Y0124933D01*
X0371687Y0124898D01*
X0371688Y0124862D01*
X0371654Y0125094D02*
X0373211Y0125094D01*
X0373081Y0125683D02*
X0371243Y0125683D01*
X0372233Y0126861D02*
X0354532Y0126861D01*
X0353983Y0126272D02*
X0372782Y0126272D01*
X0373225Y0123916D02*
X0371688Y0123916D01*
X0371688Y0123327D02*
X0373225Y0123327D01*
X0373225Y0122737D02*
X0371688Y0122737D01*
X0371688Y0122148D02*
X0373225Y0122148D01*
X0373225Y0121559D02*
X0371688Y0121559D01*
X0371688Y0120970D02*
X0373225Y0120970D01*
X0373225Y0120381D02*
X0371688Y0120381D01*
X0371688Y0119792D02*
X0373225Y0119792D01*
X0373225Y0119203D02*
X0371688Y0119203D01*
X0371688Y0119038D02*
X0373225Y0119038D01*
X0373225Y0116202D01*
X0371688Y0116202D01*
X0371688Y0119038D01*
X0371688Y0118614D02*
X0373225Y0118614D01*
X0373225Y0118025D02*
X0371688Y0118025D01*
X0371688Y0117436D02*
X0373225Y0117436D01*
X0373225Y0116847D02*
X0371688Y0116847D01*
X0371688Y0116258D02*
X0373225Y0116258D01*
X0371688Y0116258D01*
X0371688Y0115669D02*
X0373225Y0115669D01*
X0373225Y0115080D02*
X0371688Y0115080D01*
X0371688Y0114491D02*
X0373225Y0114491D01*
X0373225Y0113902D02*
X0371688Y0113902D01*
X0371688Y0113312D02*
X0373225Y0113312D01*
X0373225Y0112723D02*
X0371688Y0112723D01*
X0371688Y0112134D02*
X0373225Y0112134D01*
X0373225Y0111545D02*
X0371688Y0111545D01*
X0371688Y0110956D02*
X0373225Y0110956D01*
X0373225Y0110367D02*
X0371688Y0110367D01*
X0371545Y0109778D02*
X0373171Y0109778D01*
X0372971Y0109189D02*
X0353794Y0109189D01*
X0353595Y0109778D02*
X0355220Y0109778D01*
X0355077Y0110367D02*
X0353540Y0110367D01*
X0353540Y0110956D02*
X0355077Y0110956D01*
X0355077Y0111545D02*
X0353540Y0111545D01*
X0353540Y0112134D02*
X0355077Y0112134D01*
X0355077Y0112723D02*
X0353540Y0112723D01*
X0353540Y0113312D02*
X0355077Y0113312D01*
X0355077Y0113902D02*
X0353540Y0113902D01*
X0353540Y0114491D02*
X0355077Y0114491D01*
X0355077Y0115080D02*
X0353540Y0115080D01*
X0353540Y0115669D02*
X0355077Y0115669D01*
X0355077Y0116258D02*
X0353540Y0116258D01*
X0353540Y0116847D02*
X0355077Y0116847D01*
X0355077Y0117436D02*
X0353540Y0117436D01*
X0353540Y0118025D02*
X0355077Y0118025D01*
X0355077Y0118614D02*
X0353540Y0118614D01*
X0353540Y0119203D02*
X0355077Y0119203D01*
X0355077Y0119792D02*
X0353540Y0119792D01*
X0353540Y0120381D02*
X0355077Y0120381D01*
X0355077Y0120970D02*
X0353540Y0120970D01*
X0353540Y0121559D02*
X0355077Y0121559D01*
X0355077Y0122148D02*
X0353540Y0122148D01*
X0353540Y0122737D02*
X0355077Y0122737D01*
X0355077Y0123327D02*
X0353540Y0123327D01*
X0353540Y0123916D02*
X0355077Y0123916D01*
X0355077Y0124505D02*
X0353540Y0124505D01*
X0353554Y0125094D02*
X0355111Y0125094D01*
X0355522Y0125683D02*
X0353685Y0125683D01*
X0356751Y0124473D02*
X0356737Y0124438D01*
X0356727Y0124402D01*
X0356716Y0124366D01*
X0356708Y0124329D01*
X0356703Y0124291D01*
X0356697Y0124253D01*
X0356695Y0124214D01*
X0356695Y0124134D01*
X0356698Y0124093D01*
X0356703Y0124053D01*
X0356709Y0124012D01*
X0356718Y0123972D01*
X0356729Y0123934D01*
X0356740Y0123895D01*
X0356755Y0123858D01*
X0356772Y0123822D01*
X0356789Y0123786D01*
X0356808Y0123752D01*
X0356831Y0123721D01*
X0356854Y0123690D01*
X0356879Y0123661D01*
X0356907Y0123635D01*
X0356936Y0123609D01*
X0356967Y0123587D01*
X0357001Y0123568D01*
X0357034Y0123549D01*
X0357071Y0123534D01*
X0357110Y0123524D01*
X0357150Y0123513D01*
X0357192Y0123507D01*
X0357236Y0123506D01*
X0358580Y0123506D01*
X0358652Y0123506D01*
X0358821Y0123506D01*
X0358819Y0123495D01*
X0358815Y0123475D01*
X0358812Y0123455D01*
X0358807Y0123426D01*
X0358801Y0123391D01*
X0358795Y0123355D01*
X0358787Y0123312D01*
X0358779Y0123265D01*
X0358770Y0123218D01*
X0358761Y0123165D01*
X0358751Y0123111D01*
X0358741Y0123055D01*
X0358730Y0122998D01*
X0358719Y0122939D01*
X0358709Y0122880D01*
X0358697Y0122821D01*
X0358686Y0122763D01*
X0358675Y0122705D01*
X0358664Y0122648D01*
X0358653Y0122595D01*
X0358642Y0122541D01*
X0358631Y0122491D01*
X0358621Y0122446D01*
X0358395Y0122446D01*
X0358194Y0122430D01*
X0358006Y0122398D01*
X0357817Y0122367D01*
X0357640Y0122321D01*
X0357475Y0122261D01*
X0357310Y0122201D01*
X0357157Y0122128D01*
X0357017Y0122042D01*
X0356876Y0121957D01*
X0356749Y0121859D01*
X0356634Y0121751D01*
X0356519Y0121643D01*
X0356418Y0121525D01*
X0356331Y0121397D01*
X0356243Y0121269D01*
X0356169Y0121132D01*
X0356110Y0120988D01*
X0356050Y0120843D01*
X0356005Y0120691D01*
X0355975Y0120533D01*
X0355944Y0120374D01*
X0355929Y0120210D01*
X0355929Y0120023D01*
X0355929Y0120005D01*
X0355929Y0119987D01*
X0355930Y0119970D01*
X0355930Y0119952D01*
X0355931Y0119934D01*
X0355931Y0119917D01*
X0355932Y0119899D01*
X0355933Y0119882D01*
X0355934Y0119864D01*
X0355935Y0119847D01*
X0355936Y0119830D01*
X0355937Y0119812D01*
X0355939Y0119795D01*
X0355940Y0119777D01*
X0355942Y0119760D01*
X0355944Y0119742D01*
X0355946Y0119725D01*
X0355948Y0119707D01*
X0355950Y0119690D01*
X0355953Y0119672D01*
X0355955Y0119654D01*
X0355958Y0119636D01*
X0355961Y0119618D01*
X0355975Y0119521D01*
X0355996Y0119431D01*
X0356025Y0119348D01*
X0356053Y0119265D01*
X0356088Y0119189D01*
X0356129Y0119120D01*
X0356170Y0119050D01*
X0356217Y0118988D01*
X0356269Y0118931D01*
X0356321Y0118875D01*
X0356378Y0118824D01*
X0356439Y0118780D01*
X0356500Y0118735D01*
X0356565Y0118696D01*
X0356633Y0118662D01*
X0356702Y0118629D01*
X0356774Y0118600D01*
X0356848Y0118576D01*
X0356922Y0118553D01*
X0356999Y0118534D01*
X0357077Y0118519D01*
X0357155Y0118504D01*
X0357235Y0118494D01*
X0357315Y0118487D01*
X0357390Y0118481D01*
X0357465Y0118480D01*
X0357539Y0118485D01*
X0357614Y0118489D01*
X0357689Y0118499D01*
X0357763Y0118513D01*
X0357837Y0118527D01*
X0357910Y0118546D01*
X0357981Y0118570D01*
X0358053Y0118594D01*
X0358123Y0118622D01*
X0358192Y0118654D01*
X0358260Y0118687D01*
X0358326Y0118723D01*
X0358389Y0118764D01*
X0358453Y0118804D01*
X0358514Y0118849D01*
X0358571Y0118897D01*
X0358629Y0118945D01*
X0358683Y0118997D01*
X0358733Y0119053D01*
X0358784Y0119108D01*
X0358830Y0119166D01*
X0358872Y0119228D01*
X0358916Y0119291D01*
X0358957Y0119357D01*
X0358997Y0119425D01*
X0359036Y0119494D01*
X0359074Y0119565D01*
X0359110Y0119639D01*
X0359146Y0119713D01*
X0359180Y0119789D01*
X0359213Y0119867D01*
X0359245Y0119945D01*
X0359277Y0120025D01*
X0359307Y0120106D01*
X0359338Y0120188D01*
X0359367Y0120271D01*
X0359396Y0120356D01*
X0359400Y0120370D01*
X0359405Y0120384D01*
X0359409Y0120398D01*
X0359466Y0120570D01*
X0359479Y0120613D01*
X0359507Y0120699D01*
X0359534Y0120787D01*
X0359561Y0120875D01*
X0359587Y0120963D01*
X0359614Y0121051D01*
X0359641Y0121140D01*
X0359694Y0121130D01*
X0359746Y0121119D01*
X0359795Y0121107D01*
X0359845Y0121095D01*
X0359893Y0121083D01*
X0359940Y0121071D01*
X0359987Y0121058D01*
X0360033Y0121044D01*
X0360078Y0121031D01*
X0360123Y0121017D01*
X0360167Y0121002D01*
X0360211Y0120988D01*
X0360255Y0120973D01*
X0360299Y0120958D01*
X0360342Y0120943D01*
X0360386Y0120927D01*
X0360430Y0120912D01*
X0360474Y0120896D01*
X0360518Y0120880D01*
X0360562Y0120864D01*
X0360607Y0120847D01*
X0360652Y0120831D01*
X0360699Y0120815D01*
X0360746Y0120798D01*
X0360721Y0120697D01*
X0360694Y0120599D01*
X0360666Y0120506D01*
X0360638Y0120412D01*
X0360608Y0120322D01*
X0360577Y0120235D01*
X0360545Y0120148D01*
X0360512Y0120065D01*
X0360478Y0119983D01*
X0360444Y0119902D01*
X0360408Y0119823D01*
X0360371Y0119745D01*
X0360333Y0119668D01*
X0360295Y0119593D01*
X0360255Y0119518D01*
X0360215Y0119444D01*
X0360174Y0119371D01*
X0360132Y0119298D01*
X0360089Y0119225D01*
X0360046Y0119153D01*
X0360001Y0119081D01*
X0359957Y0119009D01*
X0359911Y0118937D01*
X0359864Y0118863D01*
X0359843Y0118830D01*
X0359827Y0118794D01*
X0359817Y0118755D01*
X0359806Y0118717D01*
X0359801Y0118676D01*
X0359800Y0118635D01*
X0359799Y0118593D01*
X0359802Y0118551D01*
X0359810Y0118509D01*
X0359818Y0118467D01*
X0359830Y0118425D01*
X0359845Y0118384D01*
X0359861Y0118343D01*
X0359880Y0118304D01*
X0359902Y0118267D01*
X0359924Y0118230D01*
X0359950Y0118195D01*
X0359978Y0118164D01*
X0360006Y0118132D01*
X0360037Y0118105D01*
X0360069Y0118081D01*
X0360102Y0118058D01*
X0360137Y0118039D01*
X0360174Y0118026D01*
X0360204Y0118015D01*
X0360235Y0118006D01*
X0360266Y0117998D01*
X0360297Y0117991D01*
X0360328Y0117985D01*
X0360360Y0117980D01*
X0360391Y0117975D01*
X0360422Y0117972D01*
X0360453Y0117970D01*
X0360484Y0117969D01*
X0360514Y0117969D01*
X0360544Y0117970D01*
X0360574Y0117971D01*
X0360603Y0117974D01*
X0360631Y0117978D01*
X0360660Y0117982D01*
X0360687Y0117987D01*
X0360714Y0117994D01*
X0360740Y0118001D01*
X0360765Y0118009D01*
X0360789Y0118019D01*
X0360813Y0118028D01*
X0360836Y0118039D01*
X0360857Y0118052D01*
X0360909Y0118082D01*
X0360963Y0118125D01*
X0361018Y0118178D01*
X0361073Y0118231D01*
X0361130Y0118294D01*
X0361186Y0118366D01*
X0361243Y0118438D01*
X0361300Y0118519D01*
X0361357Y0118606D01*
X0361413Y0118695D01*
X0361469Y0118790D01*
X0361525Y0118891D01*
X0361580Y0118992D01*
X0361634Y0119098D01*
X0361686Y0119209D01*
X0361739Y0119320D01*
X0361789Y0119435D01*
X0361838Y0119553D01*
X0361886Y0119671D01*
X0361932Y0119791D01*
X0361974Y0119913D01*
X0362017Y0120034D01*
X0362056Y0120157D01*
X0362092Y0120279D01*
X0362121Y0120263D01*
X0362152Y0120247D01*
X0362184Y0120231D01*
X0362216Y0120214D01*
X0362249Y0120197D01*
X0362281Y0120180D01*
X0362314Y0120164D01*
X0362347Y0120147D01*
X0362379Y0120131D01*
X0362412Y0120115D01*
X0362443Y0120100D01*
X0362474Y0120085D01*
X0362504Y0120071D01*
X0362533Y0120057D01*
X0362560Y0120045D01*
X0362588Y0120033D01*
X0362613Y0120022D01*
X0362635Y0120013D01*
X0362658Y0120004D01*
X0362677Y0119997D01*
X0362694Y0119992D01*
X0362710Y0119988D01*
X0362723Y0119985D01*
X0362779Y0119985D01*
X0362824Y0119991D01*
X0362868Y0120002D01*
X0362911Y0120014D01*
X0362953Y0120030D01*
X0362993Y0120052D01*
X0363033Y0120073D01*
X0363070Y0120098D01*
X0363106Y0120128D01*
X0363141Y0120157D01*
X0363173Y0120190D01*
X0363203Y0120226D01*
X0363232Y0120262D01*
X0363259Y0120300D01*
X0363283Y0120341D01*
X0363306Y0120382D01*
X0363326Y0120425D01*
X0363342Y0120469D01*
X0363359Y0120513D01*
X0363371Y0120558D01*
X0363380Y0120604D01*
X0363389Y0120650D01*
X0363393Y0120696D01*
X0363393Y0120766D01*
X0363392Y0120791D01*
X0363389Y0120816D01*
X0363386Y0120840D01*
X0363382Y0120864D01*
X0363376Y0120888D01*
X0363370Y0120912D01*
X0363363Y0120936D01*
X0363354Y0120959D01*
X0363346Y0120981D01*
X0363335Y0121004D01*
X0363323Y0121025D01*
X0363311Y0121047D01*
X0363298Y0121068D01*
X0363283Y0121088D01*
X0363267Y0121108D01*
X0363250Y0121128D01*
X0363232Y0121146D01*
X0363213Y0121164D01*
X0363193Y0121182D01*
X0363170Y0121198D01*
X0363148Y0121214D01*
X0363124Y0121230D01*
X0363098Y0121244D01*
X0363074Y0121256D01*
X0363047Y0121271D01*
X0363019Y0121287D01*
X0362991Y0121302D01*
X0362960Y0121319D01*
X0362929Y0121336D01*
X0362897Y0121354D01*
X0362864Y0121372D01*
X0362829Y0121391D01*
X0362795Y0121410D01*
X0362760Y0121430D01*
X0362724Y0121449D01*
X0362689Y0121469D01*
X0362652Y0121489D01*
X0362616Y0121508D01*
X0362579Y0121528D01*
X0362542Y0121547D01*
X0362506Y0121566D01*
X0362470Y0121585D01*
X0362433Y0121604D01*
X0362398Y0121622D01*
X0362363Y0121640D01*
X0362328Y0121657D01*
X0362294Y0121673D01*
X0362307Y0121791D01*
X0362318Y0121904D01*
X0362327Y0122012D01*
X0362337Y0122119D01*
X0362345Y0122222D01*
X0362353Y0122318D01*
X0362360Y0122414D01*
X0362366Y0122504D01*
X0362371Y0122587D01*
X0362376Y0122670D01*
X0362379Y0122747D01*
X0362383Y0122816D01*
X0362386Y0122885D01*
X0362388Y0122947D01*
X0362390Y0123000D01*
X0362392Y0123054D01*
X0362393Y0123100D01*
X0362394Y0123137D01*
X0362395Y0123174D01*
X0362395Y0123202D01*
X0362395Y0123222D01*
X0362396Y0123241D01*
X0362396Y0123288D01*
X0362390Y0123325D01*
X0362381Y0123360D01*
X0362371Y0123395D01*
X0362358Y0123428D01*
X0362340Y0123460D01*
X0362322Y0123491D01*
X0362300Y0123521D01*
X0362275Y0123550D01*
X0362251Y0123578D01*
X0362222Y0123604D01*
X0362192Y0123628D01*
X0362161Y0123652D01*
X0362127Y0123673D01*
X0362092Y0123693D01*
X0362056Y0123712D01*
X0362018Y0123729D01*
X0361979Y0123743D01*
X0361940Y0123758D01*
X0361900Y0123769D01*
X0361858Y0123778D01*
X0361817Y0123787D01*
X0361774Y0123793D01*
X0361732Y0123795D01*
X0361689Y0123798D01*
X0361647Y0123796D01*
X0361605Y0123790D01*
X0361564Y0123785D01*
X0361523Y0123775D01*
X0361484Y0123762D01*
X0361445Y0123748D01*
X0361408Y0123731D01*
X0361372Y0123712D01*
X0361337Y0123692D01*
X0361303Y0123669D01*
X0361273Y0123644D01*
X0361242Y0123618D01*
X0361214Y0123591D01*
X0361189Y0123561D01*
X0361164Y0123531D01*
X0361143Y0123499D01*
X0361125Y0123466D01*
X0361108Y0123432D01*
X0361094Y0123397D01*
X0361084Y0123361D01*
X0361075Y0123326D01*
X0361070Y0123288D01*
X0361070Y0123251D01*
X0361070Y0123241D01*
X0361069Y0123221D01*
X0361069Y0123202D01*
X0361068Y0123175D01*
X0361067Y0123140D01*
X0361066Y0123104D01*
X0361064Y0123062D01*
X0361062Y0123014D01*
X0361059Y0122965D01*
X0361056Y0122911D01*
X0361052Y0122853D01*
X0361048Y0122794D01*
X0361043Y0122731D01*
X0361036Y0122665D01*
X0361030Y0122599D01*
X0361023Y0122530D01*
X0361015Y0122460D01*
X0361006Y0122389D01*
X0360996Y0122317D01*
X0360985Y0122245D01*
X0360973Y0122173D01*
X0360960Y0122101D01*
X0360946Y0122031D01*
X0360903Y0122042D01*
X0360859Y0122055D01*
X0360817Y0122067D01*
X0360774Y0122080D01*
X0360731Y0122092D01*
X0360688Y0122105D01*
X0360645Y0122118D01*
X0360602Y0122131D01*
X0360560Y0122143D01*
X0360517Y0122156D01*
X0360475Y0122168D01*
X0360432Y0122180D01*
X0360390Y0122192D01*
X0360348Y0122204D01*
X0360305Y0122216D01*
X0360263Y0122227D01*
X0360221Y0122238D01*
X0360179Y0122249D01*
X0360137Y0122259D01*
X0360095Y0122269D01*
X0360053Y0122278D01*
X0360011Y0122287D01*
X0359970Y0122295D01*
X0359928Y0122303D01*
X0359944Y0122374D01*
X0359961Y0122452D01*
X0359978Y0122535D01*
X0359995Y0122619D01*
X0360013Y0122707D01*
X0360030Y0122796D01*
X0360048Y0122886D01*
X0360065Y0122978D01*
X0360082Y0123068D01*
X0360099Y0123159D01*
X0360116Y0123249D01*
X0360131Y0123334D01*
X0360146Y0123420D01*
X0360161Y0123502D01*
X0360174Y0123576D01*
X0360187Y0123651D01*
X0360198Y0123719D01*
X0360208Y0123777D01*
X0360218Y0123835D01*
X0360225Y0123883D01*
X0360230Y0123919D01*
X0360236Y0123954D01*
X0360239Y0123977D01*
X0360239Y0124045D01*
X0360232Y0124103D01*
X0360221Y0124158D01*
X0360209Y0124213D01*
X0360192Y0124265D01*
X0360169Y0124314D01*
X0360147Y0124363D01*
X0360119Y0124410D01*
X0360087Y0124452D01*
X0360055Y0124494D01*
X0360019Y0124533D01*
X0359978Y0124568D01*
X0359937Y0124603D01*
X0359892Y0124635D01*
X0359843Y0124662D01*
X0359795Y0124689D01*
X0359743Y0124712D01*
X0359687Y0124731D01*
X0359632Y0124750D01*
X0359574Y0124764D01*
X0359513Y0124774D01*
X0359452Y0124783D01*
X0359388Y0124788D01*
X0357183Y0124788D01*
X0357140Y0124784D01*
X0357100Y0124775D01*
X0357061Y0124766D01*
X0357024Y0124753D01*
X0356990Y0124736D01*
X0356957Y0124719D01*
X0356926Y0124699D01*
X0356899Y0124676D01*
X0356871Y0124653D01*
X0356846Y0124627D01*
X0356824Y0124598D01*
X0356802Y0124570D01*
X0356783Y0124538D01*
X0356767Y0124506D01*
X0356751Y0124473D01*
X0356767Y0124505D02*
X0360045Y0124505D01*
X0360230Y0123916D02*
X0356734Y0123916D01*
X0357200Y0122148D02*
X0360542Y0122148D01*
X0360969Y0122148D02*
X0362339Y0122148D01*
X0362379Y0122737D02*
X0361043Y0122737D01*
X0361075Y0123327D02*
X0362390Y0123327D01*
X0362519Y0121559D02*
X0356448Y0121559D01*
X0356103Y0120970D02*
X0357573Y0120970D01*
X0357575Y0120972D02*
X0357632Y0121017D01*
X0357697Y0121059D01*
X0357769Y0121096D01*
X0357840Y0121134D01*
X0357919Y0121167D01*
X0358005Y0121195D01*
X0358092Y0121223D01*
X0358185Y0121245D01*
X0358287Y0121259D01*
X0358265Y0121190D01*
X0358244Y0121121D01*
X0358224Y0121055D01*
X0358203Y0120988D01*
X0358183Y0120923D01*
X0358164Y0120861D01*
X0358145Y0120798D01*
X0358127Y0120738D01*
X0358109Y0120680D01*
X0358091Y0120622D01*
X0358074Y0120567D01*
X0358057Y0120515D01*
X0358053Y0120504D01*
X0358017Y0120398D01*
X0359409Y0120398D01*
X0358017Y0120398D01*
X0358014Y0120388D01*
X0358010Y0120377D01*
X0358007Y0120367D01*
X0357991Y0120321D01*
X0357975Y0120279D01*
X0357959Y0120240D01*
X0357944Y0120202D01*
X0357928Y0120167D01*
X0357913Y0120136D01*
X0357898Y0120105D01*
X0357883Y0120079D01*
X0357868Y0120057D01*
X0357854Y0120035D01*
X0357839Y0120014D01*
X0357824Y0119995D01*
X0357809Y0119976D01*
X0357793Y0119958D01*
X0357777Y0119942D01*
X0357761Y0119926D01*
X0357744Y0119911D01*
X0357727Y0119898D01*
X0357710Y0119885D01*
X0357692Y0119873D01*
X0357674Y0119863D01*
X0357656Y0119854D01*
X0357638Y0119845D01*
X0357620Y0119839D01*
X0357601Y0119832D01*
X0357583Y0119827D01*
X0357564Y0119824D01*
X0357545Y0119820D01*
X0357526Y0119819D01*
X0357507Y0119819D01*
X0357488Y0119819D01*
X0357469Y0119822D01*
X0357451Y0119825D01*
X0357434Y0119829D01*
X0357418Y0119834D01*
X0357402Y0119839D01*
X0357386Y0119845D01*
X0357370Y0119851D01*
X0357355Y0119859D01*
X0357341Y0119867D01*
X0357326Y0119876D01*
X0357312Y0119886D01*
X0357299Y0119896D01*
X0357286Y0119908D01*
X0357273Y0119921D01*
X0357261Y0119933D01*
X0357250Y0119948D01*
X0357239Y0119963D01*
X0357228Y0119979D01*
X0357219Y0119996D01*
X0357210Y0120014D01*
X0357201Y0120033D01*
X0357194Y0120053D01*
X0357187Y0120074D01*
X0357181Y0120096D01*
X0357176Y0120119D01*
X0357172Y0120144D01*
X0357171Y0120147D01*
X0357170Y0120150D01*
X0357169Y0120153D01*
X0357168Y0120157D01*
X0357168Y0120160D01*
X0357167Y0120163D01*
X0357167Y0120167D01*
X0357166Y0120170D01*
X0357166Y0120174D01*
X0357165Y0120177D01*
X0357165Y0120180D01*
X0357165Y0120184D01*
X0357164Y0120188D01*
X0357164Y0120191D01*
X0357164Y0120194D01*
X0357164Y0120198D01*
X0357164Y0120201D01*
X0357164Y0120205D01*
X0357164Y0120208D01*
X0357164Y0120268D01*
X0357169Y0120315D01*
X0357179Y0120364D01*
X0357189Y0120413D01*
X0357204Y0120465D01*
X0357225Y0120517D01*
X0357246Y0120569D01*
X0357272Y0120622D01*
X0357305Y0120674D01*
X0357337Y0120726D01*
X0357376Y0120778D01*
X0357421Y0120828D01*
X0357465Y0120878D01*
X0357517Y0120926D01*
X0357575Y0120972D01*
X0358198Y0120970D02*
X0359590Y0120970D01*
X0359404Y0120381D02*
X0358012Y0120381D01*
X0357182Y0120381D02*
X0355946Y0120381D01*
X0355939Y0119792D02*
X0359181Y0119792D01*
X0358855Y0119203D02*
X0356082Y0119203D01*
X0356738Y0118614D02*
X0358104Y0118614D01*
X0359799Y0118614D02*
X0361361Y0118614D01*
X0361683Y0119203D02*
X0360076Y0119203D01*
X0360393Y0119792D02*
X0361932Y0119792D01*
X0360628Y0120381D02*
X0363306Y0120381D01*
X0363350Y0120970D02*
X0360264Y0120970D01*
X0360019Y0122737D02*
X0358681Y0122737D01*
X0358790Y0123327D02*
X0360130Y0123327D01*
X0364728Y0121681D02*
X0364650Y0121454D01*
X0364572Y0121224D01*
X0364493Y0120993D01*
X0364414Y0120760D01*
X0364334Y0120522D01*
X0364253Y0120283D01*
X0364172Y0120041D01*
X0364090Y0119792D01*
X0365739Y0119792D01*
X0365733Y0119783D02*
X0365795Y0119888D01*
X0365858Y0119982D01*
X0365922Y0120065D01*
X0365985Y0120149D01*
X0366050Y0120221D01*
X0366114Y0120283D01*
X0366178Y0120346D01*
X0366243Y0120398D01*
X0366307Y0120441D01*
X0366371Y0120484D01*
X0366434Y0120518D01*
X0366497Y0120543D01*
X0366560Y0120568D01*
X0366622Y0120585D01*
X0366683Y0120594D01*
X0366733Y0120594D01*
X0366776Y0120587D01*
X0366812Y0120575D01*
X0366848Y0120562D01*
X0366878Y0120544D01*
X0366902Y0120520D01*
X0366926Y0120497D01*
X0366945Y0120469D01*
X0366960Y0120436D01*
X0366974Y0120403D01*
X0366984Y0120367D01*
X0366991Y0120327D01*
X0366998Y0120287D01*
X0367002Y0120243D01*
X0367004Y0120197D01*
X0367005Y0120151D01*
X0367005Y0120103D01*
X0367004Y0120053D01*
X0367003Y0120003D01*
X0367001Y0119951D01*
X0366999Y0119899D01*
X0366997Y0119846D01*
X0366996Y0119793D01*
X0366996Y0119593D01*
X0367006Y0119456D01*
X0367026Y0119330D01*
X0367046Y0119204D01*
X0367075Y0119089D01*
X0367112Y0118983D01*
X0367148Y0118877D01*
X0367193Y0118781D01*
X0367245Y0118694D01*
X0367297Y0118607D01*
X0367356Y0118529D01*
X0367420Y0118459D01*
X0367485Y0118389D01*
X0367555Y0118328D01*
X0367629Y0118275D01*
X0367704Y0118222D01*
X0367783Y0118176D01*
X0367865Y0118138D01*
X0367948Y0118099D01*
X0368034Y0118068D01*
X0368121Y0118043D01*
X0368209Y0118018D01*
X0368299Y0118000D01*
X0368390Y0117987D01*
X0368536Y0117967D01*
X0368681Y0117969D01*
X0368825Y0117992D01*
X0368969Y0118015D01*
X0369111Y0118058D01*
X0369250Y0118121D01*
X0369388Y0118184D01*
X0369522Y0118267D01*
X0369651Y0118367D01*
X0369780Y0118468D01*
X0369903Y0118587D01*
X0370017Y0118723D01*
X0370132Y0118859D01*
X0370240Y0119012D01*
X0370337Y0119180D01*
X0370434Y0119348D01*
X0370521Y0119533D01*
X0370597Y0119731D01*
X0370672Y0119929D01*
X0370736Y0120142D01*
X0370786Y0120368D01*
X0370835Y0120594D01*
X0370871Y0120833D01*
X0370891Y0121084D01*
X0370891Y0121201D01*
X0370886Y0121250D01*
X0370875Y0121297D01*
X0370864Y0121343D01*
X0370848Y0121387D01*
X0370828Y0121427D01*
X0370808Y0121467D01*
X0370784Y0121504D01*
X0370756Y0121538D01*
X0370728Y0121571D01*
X0370696Y0121602D01*
X0370662Y0121629D01*
X0370628Y0121656D01*
X0370591Y0121680D01*
X0370551Y0121700D01*
X0370512Y0121721D01*
X0370470Y0121738D01*
X0370427Y0121752D01*
X0370384Y0121765D01*
X0370340Y0121776D01*
X0370295Y0121783D01*
X0370250Y0121790D01*
X0370204Y0121793D01*
X0370116Y0121793D01*
X0370075Y0121790D01*
X0370034Y0121784D01*
X0369993Y0121779D01*
X0369953Y0121770D01*
X0369914Y0121758D01*
X0369876Y0121747D01*
X0369838Y0121732D01*
X0369802Y0121715D01*
X0369767Y0121697D01*
X0369733Y0121676D01*
X0369701Y0121653D01*
X0369670Y0121629D01*
X0369640Y0121602D01*
X0369614Y0121573D01*
X0369587Y0121543D01*
X0369564Y0121510D01*
X0369543Y0121474D01*
X0369523Y0121438D01*
X0369506Y0121399D01*
X0369493Y0121356D01*
X0369480Y0121314D01*
X0369470Y0121268D01*
X0369465Y0121220D01*
X0369445Y0121011D01*
X0369422Y0120825D01*
X0369395Y0120662D01*
X0369368Y0120498D01*
X0369338Y0120355D01*
X0369305Y0120232D01*
X0369272Y0120108D01*
X0369237Y0120004D01*
X0369200Y0119915D01*
X0369162Y0119827D01*
X0369123Y0119755D01*
X0369083Y0119696D01*
X0369042Y0119638D01*
X0369001Y0119594D01*
X0368958Y0119560D01*
X0368915Y0119527D01*
X0368872Y0119504D01*
X0368829Y0119491D01*
X0368786Y0119477D01*
X0368742Y0119472D01*
X0368699Y0119474D01*
X0368657Y0119475D01*
X0368614Y0119482D01*
X0368573Y0119493D01*
X0368533Y0119504D01*
X0368500Y0119527D01*
X0368473Y0119561D01*
X0368446Y0119595D01*
X0368425Y0119638D01*
X0368409Y0119688D01*
X0368393Y0119739D01*
X0368382Y0119796D01*
X0368374Y0119856D01*
X0368367Y0119917D01*
X0368363Y0119981D01*
X0368362Y0120046D01*
X0368361Y0120110D01*
X0368362Y0120175D01*
X0368364Y0120238D01*
X0368367Y0120300D01*
X0368370Y0120359D01*
X0368374Y0120413D01*
X0368378Y0120466D01*
X0368382Y0120514D01*
X0368385Y0120552D01*
X0368388Y0120590D01*
X0368390Y0120620D01*
X0368390Y0120637D01*
X0368387Y0120815D01*
X0368367Y0120980D01*
X0368332Y0121130D01*
X0368296Y0121280D01*
X0368245Y0121416D01*
X0368182Y0121536D01*
X0368119Y0121656D01*
X0368043Y0121760D01*
X0367958Y0121849D01*
X0367872Y0121938D01*
X0367776Y0122011D01*
X0367672Y0122067D01*
X0367569Y0122123D01*
X0367458Y0122162D01*
X0367342Y0122184D01*
X0367226Y0122206D01*
X0367106Y0122211D01*
X0366982Y0122198D01*
X0366859Y0122184D01*
X0366733Y0122153D01*
X0366608Y0122103D01*
X0366483Y0122053D01*
X0366357Y0121985D01*
X0366234Y0121897D01*
X0366268Y0121984D01*
X0366303Y0122074D01*
X0366338Y0122165D01*
X0366373Y0122256D01*
X0366408Y0122348D01*
X0366444Y0122440D01*
X0366480Y0122533D01*
X0366516Y0122626D01*
X0366552Y0122719D01*
X0366588Y0122812D01*
X0366624Y0122905D01*
X0366660Y0122997D01*
X0366696Y0123089D01*
X0366732Y0123180D01*
X0366768Y0123269D01*
X0366803Y0123359D01*
X0366839Y0123447D01*
X0366873Y0123532D01*
X0366908Y0123618D01*
X0366942Y0123701D01*
X0366976Y0123782D01*
X0367009Y0123862D01*
X0367042Y0123940D01*
X0367074Y0124013D01*
X0367079Y0124024D01*
X0367084Y0124035D01*
X0367088Y0124046D01*
X0367092Y0124056D01*
X0367096Y0124067D01*
X0367100Y0124078D01*
X0367103Y0124088D01*
X0367106Y0124098D01*
X0367109Y0124109D01*
X0367112Y0124119D01*
X0367115Y0124129D01*
X0367117Y0124140D01*
X0367119Y0124150D01*
X0367121Y0124160D01*
X0367123Y0124170D01*
X0367124Y0124180D01*
X0367126Y0124190D01*
X0367127Y0124200D01*
X0367128Y0124210D01*
X0367129Y0124220D01*
X0367129Y0124230D01*
X0367130Y0124240D01*
X0367130Y0124250D01*
X0367130Y0124310D01*
X0367123Y0124358D01*
X0367111Y0124405D01*
X0367099Y0124451D01*
X0367081Y0124496D01*
X0367058Y0124539D01*
X0367035Y0124581D01*
X0367008Y0124622D01*
X0366976Y0124659D01*
X0366945Y0124697D01*
X0366909Y0124732D01*
X0366871Y0124764D01*
X0366833Y0124796D01*
X0366791Y0124825D01*
X0366748Y0124850D01*
X0366705Y0124875D01*
X0366659Y0124896D01*
X0366612Y0124914D01*
X0366566Y0124932D01*
X0366518Y0124946D01*
X0366470Y0124955D01*
X0366421Y0124964D01*
X0366373Y0124969D01*
X0366296Y0124969D01*
X0366268Y0124967D01*
X0366240Y0124964D01*
X0366211Y0124960D01*
X0366184Y0124955D01*
X0366156Y0124947D01*
X0366129Y0124940D01*
X0366103Y0124931D01*
X0366077Y0124920D01*
X0366051Y0124908D01*
X0366026Y0124895D01*
X0366002Y0124880D01*
X0365978Y0124864D01*
X0365955Y0124847D01*
X0365934Y0124827D01*
X0365912Y0124807D01*
X0365891Y0124785D01*
X0365872Y0124761D01*
X0365853Y0124737D01*
X0365835Y0124710D01*
X0365819Y0124681D01*
X0365803Y0124652D01*
X0365789Y0124620D01*
X0365776Y0124587D01*
X0365690Y0124358D01*
X0365606Y0124133D01*
X0365523Y0123909D01*
X0365441Y0123686D01*
X0365359Y0123464D01*
X0365279Y0123242D01*
X0365199Y0123020D01*
X0365120Y0122799D01*
X0365042Y0122576D01*
X0364963Y0122354D01*
X0364885Y0122131D01*
X0364807Y0121906D01*
X0364728Y0121681D01*
X0364687Y0121559D02*
X0368170Y0121559D01*
X0368368Y0120970D02*
X0364485Y0120970D01*
X0364286Y0120381D02*
X0366222Y0120381D01*
X0366980Y0120381D02*
X0368372Y0120381D01*
X0368383Y0119792D02*
X0366996Y0119792D01*
X0367046Y0119203D02*
X0370350Y0119203D01*
X0370620Y0119792D02*
X0369144Y0119792D01*
X0369343Y0120381D02*
X0370789Y0120381D01*
X0370882Y0120970D02*
X0369440Y0120970D01*
X0369602Y0121559D02*
X0370738Y0121559D01*
X0369925Y0118614D02*
X0367293Y0118614D01*
X0368186Y0118025D02*
X0369003Y0118025D01*
X0368837Y0117392D02*
X0368794Y0117402D01*
X0368744Y0117395D01*
X0368679Y0117368D01*
X0368615Y0117342D01*
X0368537Y0117296D01*
X0368437Y0117228D01*
X0368336Y0117160D01*
X0368265Y0117104D01*
X0368216Y0117054D01*
X0368168Y0117004D01*
X0368143Y0116960D01*
X0368136Y0116916D01*
X0368130Y0116872D01*
X0368141Y0116828D01*
X0368166Y0116778D01*
X0368191Y0116728D01*
X0368229Y0116671D01*
X0368276Y0116603D01*
X0368394Y0116429D01*
X0368512Y0116256D01*
X0368630Y0116082D01*
X0368748Y0115909D01*
X0368785Y0115853D01*
X0368817Y0115806D01*
X0368849Y0115772D01*
X0368882Y0115737D01*
X0368916Y0115715D01*
X0368957Y0115707D01*
X0368999Y0115699D01*
X0369049Y0115707D01*
X0369113Y0115733D01*
X0369177Y0115760D01*
X0369257Y0115804D01*
X0369358Y0115871D01*
X0369457Y0115940D01*
X0369528Y0115998D01*
X0369576Y0116048D01*
X0369624Y0116098D01*
X0369650Y0116141D01*
X0369658Y0116183D01*
X0369666Y0116224D01*
X0369658Y0116264D01*
X0369638Y0116307D01*
X0369617Y0116350D01*
X0369586Y0116397D01*
X0369548Y0116452D01*
X0369430Y0116626D01*
X0369313Y0116799D01*
X0369195Y0116973D01*
X0369077Y0117147D01*
X0369030Y0117215D01*
X0368992Y0117271D01*
X0368955Y0117313D01*
X0368917Y0117355D01*
X0368881Y0117382D01*
X0368837Y0117392D01*
X0369423Y0117107D02*
X0369417Y0117063D01*
X0369410Y0117019D01*
X0369422Y0116975D01*
X0369447Y0116925D01*
X0369472Y0116874D01*
X0369510Y0116818D01*
X0369556Y0116750D01*
X0369674Y0116576D01*
X0369792Y0116402D01*
X0369910Y0116229D01*
X0370028Y0116055D01*
X0370065Y0116000D01*
X0370097Y0115953D01*
X0370130Y0115919D01*
X0370162Y0115884D01*
X0370196Y0115861D01*
X0370238Y0115854D01*
X0370279Y0115846D01*
X0370329Y0115854D01*
X0370393Y0115880D01*
X0370458Y0115907D01*
X0370537Y0115951D01*
X0370638Y0116018D01*
X0370737Y0116087D01*
X0370808Y0116144D01*
X0370856Y0116195D01*
X0370904Y0116245D01*
X0370930Y0116288D01*
X0370938Y0116330D01*
X0370947Y0116371D01*
X0370938Y0116411D01*
X0370918Y0116454D01*
X0370898Y0116497D01*
X0370866Y0116543D01*
X0370829Y0116599D01*
X0370711Y0116773D01*
X0370593Y0116946D01*
X0370475Y0117120D01*
X0370357Y0117294D01*
X0370311Y0117362D01*
X0370272Y0117418D01*
X0370235Y0117460D01*
X0370198Y0117502D01*
X0370161Y0117529D01*
X0370117Y0117539D01*
X0370074Y0117549D01*
X0370024Y0117542D01*
X0369960Y0117515D01*
X0369895Y0117489D01*
X0369817Y0117443D01*
X0369717Y0117375D01*
X0369617Y0117307D01*
X0369545Y0117251D01*
X0369497Y0117201D01*
X0369448Y0117151D01*
X0369423Y0117107D01*
X0369490Y0116847D02*
X0370660Y0116847D01*
X0370912Y0116258D02*
X0369890Y0116258D01*
X0369659Y0116258D02*
X0368510Y0116258D01*
X0367881Y0116258D02*
X0366506Y0116258D01*
X0366506Y0116847D02*
X0367881Y0116847D01*
X0367881Y0116872D02*
X0367873Y0116910D01*
X0367858Y0116945D01*
X0367843Y0116980D01*
X0367822Y0117011D01*
X0367796Y0117037D01*
X0367770Y0117064D01*
X0367738Y0117085D01*
X0367704Y0117100D01*
X0367669Y0117114D01*
X0367631Y0117122D01*
X0366756Y0117122D01*
X0366718Y0117114D01*
X0366683Y0117100D01*
X0366649Y0117085D01*
X0366617Y0117064D01*
X0366591Y0117037D01*
X0366565Y0117011D01*
X0366543Y0116980D01*
X0366529Y0116945D01*
X0366514Y0116910D01*
X0366506Y0116872D01*
X0366506Y0115663D01*
X0363942Y0115663D01*
X0363904Y0115655D01*
X0363869Y0115641D01*
X0363834Y0115626D01*
X0363803Y0115605D01*
X0363777Y0115578D01*
X0363751Y0115552D01*
X0363729Y0115521D01*
X0363715Y0115486D01*
X0363700Y0115451D01*
X0363692Y0115413D01*
X0363692Y0114539D01*
X0363700Y0114500D01*
X0363715Y0114466D01*
X0363729Y0114431D01*
X0363751Y0114400D01*
X0363777Y0114373D01*
X0363803Y0114347D01*
X0363834Y0114326D01*
X0363869Y0114311D01*
X0363904Y0114297D01*
X0363942Y0114288D01*
X0366506Y0114288D01*
X0366506Y0110036D01*
X0366514Y0109998D01*
X0366529Y0109963D01*
X0366543Y0109928D01*
X0366565Y0109897D01*
X0366591Y0109871D01*
X0366617Y0109845D01*
X0366649Y0109823D01*
X0366683Y0109809D01*
X0366718Y0109794D01*
X0366756Y0109786D01*
X0367631Y0109786D01*
X0367669Y0109794D01*
X0367704Y0109809D01*
X0367738Y0109823D01*
X0367770Y0109845D01*
X0367796Y0109871D01*
X0367822Y0109897D01*
X0367843Y0109928D01*
X0367858Y0109963D01*
X0367873Y0109998D01*
X0367881Y0110036D01*
X0367881Y0114288D01*
X0370318Y0114288D01*
X0370356Y0114297D01*
X0370391Y0114311D01*
X0370426Y0114326D01*
X0370457Y0114347D01*
X0370483Y0114373D01*
X0370509Y0114400D01*
X0370531Y0114431D01*
X0370545Y0114466D01*
X0370560Y0114500D01*
X0370568Y0114539D01*
X0370568Y0114579D01*
X0370568Y0115413D01*
X0370560Y0115451D01*
X0370545Y0115486D01*
X0370531Y0115521D01*
X0370509Y0115552D01*
X0370483Y0115578D01*
X0370457Y0115605D01*
X0370426Y0115626D01*
X0370391Y0115641D01*
X0370356Y0115655D01*
X0370318Y0115663D01*
X0367881Y0115663D01*
X0367881Y0116872D01*
X0368136Y0116847D02*
X0369280Y0116847D01*
X0369807Y0117436D02*
X0370256Y0117436D01*
X0370568Y0115080D02*
X0363692Y0115080D01*
X0363704Y0114491D02*
X0370556Y0114491D01*
X0369472Y0113549D02*
X0369443Y0113576D01*
X0369412Y0113596D01*
X0369380Y0113617D01*
X0369345Y0113631D01*
X0369309Y0113638D01*
X0369272Y0113645D01*
X0369234Y0113645D01*
X0369197Y0113638D01*
X0369160Y0113631D01*
X0369124Y0113616D01*
X0369091Y0113594D01*
X0368910Y0113472D01*
X0368730Y0113350D01*
X0368549Y0113228D01*
X0368369Y0113106D01*
X0368336Y0113083D01*
X0368308Y0113055D01*
X0368288Y0113024D01*
X0368267Y0112992D01*
X0368253Y0112957D01*
X0368246Y0112921D01*
X0368239Y0112884D01*
X0368239Y0112846D01*
X0368246Y0112809D01*
X0368254Y0112772D01*
X0368268Y0112736D01*
X0368291Y0112703D01*
X0368627Y0112206D01*
X0368964Y0111709D01*
X0369301Y0111212D01*
X0369638Y0110715D01*
X0369660Y0110681D01*
X0369688Y0110654D01*
X0369720Y0110634D01*
X0369751Y0110613D01*
X0369786Y0110599D01*
X0369823Y0110592D01*
X0369859Y0110585D01*
X0369897Y0110585D01*
X0369934Y0110592D01*
X0369971Y0110599D01*
X0370007Y0110614D01*
X0370041Y0110636D01*
X0370221Y0110758D01*
X0370401Y0110880D01*
X0370582Y0111002D01*
X0370762Y0111124D01*
X0370796Y0111146D01*
X0370823Y0111175D01*
X0370843Y0111206D01*
X0370864Y0111238D01*
X0370878Y0111273D01*
X0370885Y0111309D01*
X0370892Y0111346D01*
X0370892Y0111384D01*
X0370885Y0111421D01*
X0370878Y0111458D01*
X0370863Y0111494D01*
X0370841Y0111527D01*
X0370504Y0112024D01*
X0370167Y0112521D01*
X0369831Y0113018D01*
X0369494Y0113515D01*
X0369472Y0113549D01*
X0369631Y0113312D02*
X0368675Y0113312D01*
X0368277Y0112723D02*
X0370030Y0112723D01*
X0370430Y0112134D02*
X0368676Y0112134D01*
X0369075Y0111545D02*
X0370829Y0111545D01*
X0370514Y0110956D02*
X0369474Y0110956D01*
X0367881Y0110956D02*
X0366506Y0110956D01*
X0366506Y0110367D02*
X0367881Y0110367D01*
X0367881Y0111545D02*
X0366506Y0111545D01*
X0366506Y0112134D02*
X0367881Y0112134D01*
X0367881Y0112723D02*
X0366506Y0112723D01*
X0366122Y0112809D02*
X0366130Y0112846D01*
X0366130Y0112884D01*
X0366123Y0112921D01*
X0366115Y0112957D01*
X0366101Y0112992D01*
X0366081Y0113024D01*
X0366060Y0113055D01*
X0366033Y0113083D01*
X0366000Y0113106D01*
X0365820Y0113228D01*
X0365639Y0113350D01*
X0365458Y0113472D01*
X0365278Y0113594D01*
X0365245Y0113616D01*
X0365209Y0113631D01*
X0365172Y0113638D01*
X0365135Y0113645D01*
X0365097Y0113645D01*
X0365060Y0113638D01*
X0365024Y0113631D01*
X0364989Y0113617D01*
X0364957Y0113596D01*
X0364925Y0113576D01*
X0364897Y0113549D01*
X0364875Y0113515D01*
X0364538Y0113018D01*
X0364202Y0112521D01*
X0363865Y0112024D01*
X0363528Y0111527D01*
X0363506Y0111494D01*
X0363491Y0111458D01*
X0363484Y0111421D01*
X0363477Y0111384D01*
X0363477Y0111346D01*
X0363484Y0111309D01*
X0363491Y0111273D01*
X0363505Y0111238D01*
X0363525Y0111206D01*
X0363546Y0111175D01*
X0363573Y0111146D01*
X0363606Y0111124D01*
X0363787Y0111002D01*
X0363967Y0110880D01*
X0364148Y0110758D01*
X0364328Y0110636D01*
X0364362Y0110614D01*
X0364398Y0110599D01*
X0364435Y0110592D01*
X0364472Y0110585D01*
X0364510Y0110585D01*
X0364546Y0110592D01*
X0364582Y0110599D01*
X0364618Y0110613D01*
X0364649Y0110634D01*
X0364681Y0110654D01*
X0364709Y0110681D01*
X0364731Y0110715D01*
X0365068Y0111212D01*
X0365405Y0111709D01*
X0365741Y0112206D01*
X0366078Y0112703D01*
X0366101Y0112736D01*
X0366115Y0112772D01*
X0366122Y0112809D01*
X0366092Y0112723D02*
X0364338Y0112723D01*
X0363939Y0112134D02*
X0365693Y0112134D01*
X0365294Y0111545D02*
X0363541Y0111545D01*
X0363855Y0110956D02*
X0364895Y0110956D01*
X0364737Y0113312D02*
X0365694Y0113312D01*
X0366506Y0113312D02*
X0367881Y0113312D01*
X0367881Y0113902D02*
X0366506Y0113902D01*
X0366506Y0115669D02*
X0367881Y0115669D01*
X0365063Y0118220D02*
X0365088Y0118249D01*
X0365110Y0118280D01*
X0365133Y0118312D01*
X0365153Y0118346D01*
X0365170Y0118383D01*
X0365188Y0118420D01*
X0365203Y0118460D01*
X0365215Y0118503D01*
X0365266Y0118684D01*
X0365321Y0118852D01*
X0365377Y0119006D01*
X0365433Y0119161D01*
X0365491Y0119302D01*
X0365551Y0119431D01*
X0365610Y0119561D01*
X0365671Y0119678D01*
X0365733Y0119783D01*
X0365450Y0119203D02*
X0363894Y0119203D01*
X0363923Y0119290D02*
X0363837Y0119029D01*
X0363832Y0119016D01*
X0363829Y0119003D01*
X0363825Y0118990D01*
X0363821Y0118977D01*
X0363818Y0118965D01*
X0363815Y0118952D01*
X0363812Y0118939D01*
X0363809Y0118926D01*
X0363807Y0118914D01*
X0363804Y0118901D01*
X0363802Y0118888D01*
X0363800Y0118876D01*
X0363798Y0118863D01*
X0363796Y0118851D01*
X0363795Y0118839D01*
X0363794Y0118827D01*
X0363792Y0118815D01*
X0363792Y0118803D01*
X0363791Y0118791D01*
X0363790Y0118779D01*
X0363790Y0118768D01*
X0363789Y0118756D01*
X0363789Y0118745D01*
X0363789Y0118676D01*
X0363795Y0118622D01*
X0363806Y0118570D01*
X0363817Y0118518D01*
X0363834Y0118470D01*
X0363854Y0118425D01*
X0363875Y0118380D01*
X0363901Y0118338D01*
X0363930Y0118299D01*
X0363959Y0118261D01*
X0363991Y0118226D01*
X0364027Y0118194D01*
X0364062Y0118163D01*
X0364101Y0118135D01*
X0364142Y0118111D01*
X0364182Y0118087D01*
X0364225Y0118067D01*
X0364269Y0118051D01*
X0364314Y0118035D01*
X0364359Y0118022D01*
X0364406Y0118014D01*
X0364452Y0118006D01*
X0364499Y0118001D01*
X0364546Y0118001D01*
X0364581Y0118001D01*
X0364617Y0118004D01*
X0364653Y0118009D01*
X0364688Y0118014D01*
X0364723Y0118022D01*
X0364758Y0118032D01*
X0364792Y0118042D01*
X0364826Y0118054D01*
X0364858Y0118070D01*
X0364891Y0118085D01*
X0364922Y0118103D01*
X0364952Y0118124D01*
X0364982Y0118144D01*
X0365010Y0118168D01*
X0365037Y0118194D01*
X0365063Y0118220D01*
X0364735Y0118025D02*
X0364349Y0118025D01*
X0363797Y0118614D02*
X0365246Y0118614D01*
X0363923Y0119290D02*
X0364007Y0119544D01*
X0364090Y0119792D01*
X0364891Y0122148D02*
X0366331Y0122148D01*
X0366722Y0122148D02*
X0367497Y0122148D01*
X0366559Y0122737D02*
X0365099Y0122737D01*
X0365310Y0123327D02*
X0366791Y0123327D01*
X0367032Y0123916D02*
X0365526Y0123916D01*
X0365745Y0124505D02*
X0367076Y0124505D01*
X0360805Y0118025D02*
X0360178Y0118025D01*
X0361612Y0116741D02*
X0356711Y0116741D01*
X0356673Y0116733D01*
X0356638Y0116719D01*
X0356604Y0116704D01*
X0356572Y0116683D01*
X0356546Y0116656D01*
X0356520Y0116630D01*
X0356498Y0116599D01*
X0356484Y0116564D01*
X0356469Y0116529D01*
X0356461Y0116491D01*
X0356461Y0115677D01*
X0356469Y0115638D01*
X0356484Y0115604D01*
X0356498Y0115569D01*
X0356520Y0115538D01*
X0356546Y0115511D01*
X0356572Y0115485D01*
X0356604Y0115464D01*
X0356638Y0115449D01*
X0356673Y0115435D01*
X0356711Y0115426D01*
X0360366Y0115426D01*
X0361571Y0115426D01*
X0361612Y0115426D01*
X0361650Y0115435D01*
X0361684Y0115449D01*
X0361719Y0115464D01*
X0361750Y0115485D01*
X0361777Y0115511D01*
X0361803Y0115538D01*
X0361824Y0115569D01*
X0361839Y0115604D01*
X0361854Y0115638D01*
X0361862Y0115677D01*
X0361862Y0116491D01*
X0361854Y0116529D01*
X0361839Y0116564D01*
X0361824Y0116599D01*
X0361803Y0116630D01*
X0361777Y0116656D01*
X0361750Y0116683D01*
X0361719Y0116704D01*
X0361684Y0116719D01*
X0361650Y0116733D01*
X0361612Y0116741D01*
X0361862Y0116258D02*
X0356461Y0116258D01*
X0356463Y0115669D02*
X0361860Y0115669D01*
X0362105Y0114789D02*
X0362145Y0114789D01*
X0362183Y0114781D01*
X0362218Y0114766D01*
X0362253Y0114752D01*
X0362284Y0114730D01*
X0362310Y0114704D01*
X0362337Y0114678D01*
X0362358Y0114647D01*
X0362373Y0114612D01*
X0362387Y0114577D01*
X0362396Y0114539D01*
X0362396Y0113443D01*
X0362368Y0113054D01*
X0362265Y0112661D01*
X0362081Y0112285D01*
X0361897Y0111910D01*
X0361631Y0111551D01*
X0361277Y0111230D01*
X0360924Y0110909D01*
X0360482Y0110626D01*
X0359947Y0110401D01*
X0359412Y0110176D01*
X0358783Y0110010D01*
X0358054Y0109922D01*
X0358046Y0109920D01*
X0358038Y0109918D01*
X0358030Y0109917D01*
X0358022Y0109916D01*
X0358014Y0109915D01*
X0358005Y0109915D01*
X0357997Y0109914D01*
X0357988Y0109914D01*
X0357979Y0109914D01*
X0357970Y0109914D01*
X0357951Y0109914D01*
X0357950Y0109916D01*
X0357950Y0109917D01*
X0357950Y0109919D01*
X0357950Y0109921D01*
X0357911Y0109913D01*
X0357873Y0109913D01*
X0357837Y0109920D01*
X0357801Y0109926D01*
X0357767Y0109940D01*
X0357736Y0109959D01*
X0357705Y0109978D01*
X0357678Y0110004D01*
X0357656Y0110033D01*
X0357634Y0110063D01*
X0357618Y0110097D01*
X0357609Y0110136D01*
X0357557Y0110347D01*
X0357505Y0110559D01*
X0357454Y0110771D01*
X0357402Y0110982D01*
X0357393Y0111021D01*
X0357392Y0111060D01*
X0357398Y0111097D01*
X0357404Y0111135D01*
X0357417Y0111170D01*
X0357436Y0111202D01*
X0357456Y0111233D01*
X0357481Y0111262D01*
X0357511Y0111284D01*
X0357542Y0111306D01*
X0357577Y0111323D01*
X0357616Y0111333D01*
X0357650Y0111337D01*
X0357684Y0111340D01*
X0357717Y0111344D01*
X0357751Y0111348D01*
X0358168Y0111408D01*
X0358543Y0111496D01*
X0358877Y0111607D01*
X0359212Y0111719D01*
X0359505Y0111854D01*
X0359758Y0112007D01*
X0360010Y0112160D01*
X0360222Y0112332D01*
X0360392Y0112517D01*
X0360562Y0112703D01*
X0360691Y0112901D01*
X0360779Y0113108D01*
X0360790Y0113134D01*
X0360801Y0113162D01*
X0360812Y0113192D01*
X0360822Y0113222D01*
X0360831Y0113253D01*
X0360839Y0113284D01*
X0360848Y0113315D01*
X0360855Y0113347D01*
X0360863Y0113377D01*
X0360870Y0113408D01*
X0360876Y0113438D01*
X0360882Y0113465D01*
X0356178Y0113465D01*
X0356139Y0113474D01*
X0356105Y0113488D01*
X0356070Y0113503D01*
X0356039Y0113524D01*
X0356012Y0113551D01*
X0355986Y0113577D01*
X0355965Y0113608D01*
X0355950Y0113643D01*
X0355935Y0113678D01*
X0355927Y0113716D01*
X0355927Y0114539D01*
X0355935Y0114577D01*
X0355950Y0114612D01*
X0355965Y0114647D01*
X0355986Y0114678D01*
X0356012Y0114704D01*
X0356039Y0114730D01*
X0356070Y0114752D01*
X0356105Y0114766D01*
X0356139Y0114781D01*
X0356178Y0114789D01*
X0362105Y0114789D01*
X0362396Y0114491D02*
X0355927Y0114491D01*
X0355927Y0113902D02*
X0362396Y0113902D01*
X0362386Y0113312D02*
X0360847Y0113312D01*
X0360576Y0112723D02*
X0362282Y0112723D01*
X0362007Y0112134D02*
X0359968Y0112134D01*
X0358692Y0111545D02*
X0361624Y0111545D01*
X0360975Y0110956D02*
X0357408Y0110956D01*
X0357552Y0110367D02*
X0359866Y0110367D01*
X0354940Y0108011D02*
X0371825Y0108011D01*
X0372580Y0108600D02*
X0354185Y0108600D01*
M02*
